<svg xmlns="http://www.w3.org/2000/svg" viewBox="0 0 800 600"><defs><radialGradient id="bg-agacu" cx="50%" cy="35%" r="80%"><stop offset="0%" stop-color="#26262c"/><stop offset="100%" stop-color="#141417"/></radialGradient></defs><rect width="800" height="600" fill="url(#bg-agacu)"/><circle cx="242.52433323301375" cy="204.91471597738564" r="70" fill="#000" opacity="0.35"/><circle cx="242.52433323301375" cy="198.91471597738564" r="70" fill="#f5f2e8"/><circle cx="242.52433323301375" cy="198.91471597738564" r="60.199999999999996" fill="#f5f2e8"/><ellipse cx="197.4" cy="189.4" rx="4" ry="2" fill="#e6e0cf" transform="rotate(51 197.4 189.4)"/><ellipse cx="209.4" cy="237.8" rx="4" ry="2" fill="#e6e0cf" transform="rotate(51 209.4 237.8)"/><ellipse cx="258.6" cy="147.6" rx="4" ry="2" fill="#e6e0cf" transform="rotate(7 258.6 147.6)"/><ellipse cx="296.8" cy="185.9" rx="4" ry="2" fill="#e6e0cf" transform="rotate(135 296.8 185.9)"/><ellipse cx="289.3" cy="217.4" rx="4" ry="2" fill="#e6e0cf" transform="rotate(71 289.3 217.4)"/><ellipse cx="266.2" cy="148.9" rx="4" ry="2" fill="#e6e0cf" transform="rotate(67 266.2 148.9)"/><ellipse cx="268.6" cy="234.9" rx="4" ry="2" fill="#e6e0cf" transform="rotate(62 268.6 234.9)"/><ellipse cx="287.8" cy="177.5" rx="4" ry="2" fill="#e6e0cf" transform="rotate(152 287.8 177.5)"/><ellipse cx="284.6" cy="229.7" rx="4" ry="2" fill="#e6e0cf" transform="rotate(164 284.6 229.7)"/><ellipse cx="200.0" cy="228.4" rx="4" ry="2" fill="#e6e0cf" transform="rotate(169 200.0 228.4)"/><circle cx="257.2" cy="203.5" r="18.2" fill="#ef8354"/><circle cx="232.3" cy="210.4" r="18.2" fill="#8a5a3b"/><circle cx="234.9" cy="185.5" r="18.2" fill="#7fb069"/><circle cx="400.05186625756323" cy="205.11767039261758" r="70" fill="#000" opacity="0.35"/><circle cx="400.05186625756323" cy="199.11767039261758" r="70" fill="#f5f2e8"/><circle cx="400.05186625756323" cy="199.11767039261758" r="60.199999999999996" fill="#f5f2e8"/><ellipse cx="445.9" cy="202.3" rx="4" ry="2" fill="#e6e0cf" transform="rotate(107 445.9 202.3)"/><ellipse cx="422.6" cy="153.8" rx="4" ry="2" fill="#e6e0cf" transform="rotate(86 422.6 153.8)"/><ellipse cx="370.8" cy="153.4" rx="4" ry="2" fill="#e6e0cf" transform="rotate(35 370.8 153.4)"/><ellipse cx="369.5" cy="165.0" rx="4" ry="2" fill="#e6e0cf" transform="rotate(20 369.5 165.0)"/><ellipse cx="446.5" cy="225.9" rx="4" ry="2" fill="#e6e0cf" transform="rotate(153 446.5 225.9)"/><ellipse cx="421.4" cy="244.1" rx="4" ry="2" fill="#e6e0cf" transform="rotate(99 421.4 244.1)"/><ellipse cx="434.4" cy="163.3" rx="4" ry="2" fill="#e6e0cf" transform="rotate(13 434.4 163.3)"/><ellipse cx="371.9" cy="236.6" rx="4" ry="2" fill="#e6e0cf" transform="rotate(114 371.9 236.6)"/><ellipse cx="417.1" cy="251.7" rx="4" ry="2" fill="#e6e0cf" transform="rotate(94 417.1 251.7)"/><ellipse cx="431.7" cy="169.3" rx="4" ry="2" fill="#e6e0cf" transform="rotate(152 431.7 169.3)"/><circle cx="415.3" cy="201.3" r="18.2" fill="#ef8354"/><circle cx="391.2" cy="211.7" r="18.2" fill="#8a5a3b"/><circle cx="397.1" cy="184.0" r="18.2" fill="#7fb069"/><circle cx="558.5542302466929" cy="201.93471406027675" r="70" fill="#000" opacity="0.35"/><circle cx="558.5542302466929" cy="195.93471406027675" r="70" fill="#f5f2e8"/><circle cx="558.5542302466929" cy="195.93471406027675" r="60.199999999999996" fill="#f5f2e8"/><ellipse cx="603.0" cy="173.3" rx="4" ry="2" fill="#e6e0cf" transform="rotate(144 603.0 173.3)"/><ellipse cx="583.9" cy="145.5" rx="4" ry="2" fill="#e6e0cf" transform="rotate(47 583.9 145.5)"/><ellipse cx="544.5" cy="153.6" rx="4" ry="2" fill="#e6e0cf" transform="rotate(103 544.5 153.6)"/><ellipse cx="530.1" cy="229.1" rx="4" ry="2" fill="#e6e0cf" transform="rotate(132 530.1 229.1)"/><ellipse cx="590.5" cy="162.3" rx="4" ry="2" fill="#e6e0cf" transform="rotate(138 590.5 162.3)"/><ellipse cx="516.3" cy="183.7" rx="4" ry="2" fill="#e6e0cf" transform="rotate(135 516.3 183.7)"/><ellipse cx="561.5" cy="147.1" rx="4" ry="2" fill="#e6e0cf" transform="rotate(63 561.5 147.1)"/><ellipse cx="601.9" cy="201.3" rx="4" ry="2" fill="#e6e0cf" transform="rotate(32 601.9 201.3)"/><ellipse cx="590.2" cy="164.0" rx="4" ry="2" fill="#e6e0cf" transform="rotate(117 590.2 164.0)"/><ellipse cx="511.5" cy="164.2" rx="4" ry="2" fill="#e6e0cf" transform="rotate(147 511.5 164.2)"/><circle cx="573.1" cy="201.0" r="18.2" fill="#ef8354"/><circle cx="547.0" cy="206.1" r="18.2" fill="#8a5a3b"/><circle cx="555.7" cy="180.8" r="18.2" fill="#7fb069"/><circle cx="238.98946896754205" cy="364.92025427520275" r="70" fill="#000" opacity="0.35"/><circle cx="238.98946896754205" cy="358.92025427520275" r="70" fill="#f5f2e8"/><circle cx="238.98946896754205" cy="358.92025427520275" r="60.199999999999996" fill="#f5f2e8"/><ellipse cx="182.7" cy="366.7" rx="4" ry="2" fill="#e6e0cf" transform="rotate(141 182.7 366.7)"/><ellipse cx="255.6" cy="305.1" rx="4" ry="2" fill="#e6e0cf" transform="rotate(89 255.6 305.1)"/><ellipse cx="221.3" cy="408.7" rx="4" ry="2" fill="#e6e0cf" transform="rotate(76 221.3 408.7)"/><ellipse cx="212.0" cy="395.4" rx="4" ry="2" fill="#e6e0cf" transform="rotate(83 212.0 395.4)"/><ellipse cx="289.3" cy="364.1" rx="4" ry="2" fill="#e6e0cf" transform="rotate(16 289.3 364.1)"/><ellipse cx="223.3" cy="314.1" rx="4" ry="2" fill="#e6e0cf" transform="rotate(38 223.3 314.1)"/><ellipse cx="244.5" cy="304.1" rx="4" ry="2" fill="#e6e0cf" transform="rotate(67 244.5 304.1)"/><ellipse cx="196.8" cy="342.1" rx="4" ry="2" fill="#e6e0cf" transform="rotate(35 196.8 342.1)"/><ellipse cx="200.1" cy="380.3" rx="4" ry="2" fill="#e6e0cf" transform="rotate(99 200.1 380.3)"/><ellipse cx="249.9" cy="313.8" rx="4" ry="2" fill="#e6e0cf" transform="rotate(176 249.9 313.8)"/><circle cx="254.3" cy="360.8" r="18.2" fill="#ef8354"/><circle cx="231.2" cy="372.2" r="18.2" fill="#8a5a3b"/><circle cx="234.0" cy="344.3" r="18.2" fill="#7fb069"/><circle cx="401.910944128409" cy="368.117363139987" r="70" fill="#000" opacity="0.35"/><circle cx="401.910944128409" cy="362.117363139987" r="70" fill="#f5f2e8"/><circle cx="401.910944128409" cy="362.117363139987" r="60.199999999999996" fill="#f5f2e8"/><ellipse cx="357.9" cy="372.4" rx="4" ry="2" fill="#e6e0cf" transform="rotate(107 357.9 372.4)"/><ellipse cx="394.4" cy="306.5" rx="4" ry="2" fill="#e6e0cf" transform="rotate(9 394.4 306.5)"/><ellipse cx="437.8" cy="398.7" rx="4" ry="2" fill="#e6e0cf" transform="rotate(89 437.8 398.7)"/><ellipse cx="447.4" cy="365.3" rx="4" ry="2" fill="#e6e0cf" transform="rotate(2 447.4 365.3)"/><ellipse cx="396.2" cy="409.7" rx="4" ry="2" fill="#e6e0cf" transform="rotate(1 396.2 409.7)"/><ellipse cx="353.4" cy="343.6" rx="4" ry="2" fill="#e6e0cf" transform="rotate(21 353.4 343.6)"/><ellipse cx="373.8" cy="328.9" rx="4" ry="2" fill="#e6e0cf" transform="rotate(6 373.8 328.9)"/><ellipse cx="455.0" cy="349.2" rx="4" ry="2" fill="#e6e0cf" transform="rotate(150 455.0 349.2)"/><ellipse cx="352.4" cy="353.1" rx="4" ry="2" fill="#e6e0cf" transform="rotate(170 352.4 353.1)"/><ellipse cx="434.4" cy="325.2" rx="4" ry="2" fill="#e6e0cf" transform="rotate(91 434.4 325.2)"/><circle cx="415.8" cy="368.8" r="18.2" fill="#ef8354"/><circle cx="388.8" cy="370.2" r="18.2" fill="#8a5a3b"/><circle cx="396.7" cy="347.6" r="18.2" fill="#7fb069"/><circle cx="558.535392286256" cy="367.674353858456" r="70" fill="#000" opacity="0.35"/><circle cx="558.535392286256" cy="361.674353858456" r="70" fill="#f5f2e8"/><circle cx="558.535392286256" cy="361.674353858456" r="60.199999999999996" fill="#f5f2e8"/><ellipse cx="514.9" cy="386.9" rx="4" ry="2" fill="#e6e0cf" transform="rotate(17 514.9 386.9)"/><ellipse cx="510.3" cy="343.3" rx="4" ry="2" fill="#e6e0cf" transform="rotate(135 510.3 343.3)"/><ellipse cx="595.5" cy="392.4" rx="4" ry="2" fill="#e6e0cf" transform="rotate(154 595.5 392.4)"/><ellipse cx="511.2" cy="329.5" rx="4" ry="2" fill="#e6e0cf" transform="rotate(107 511.2 329.5)"/><ellipse cx="597.2" cy="335.5" rx="4" ry="2" fill="#e6e0cf" transform="rotate(143 597.2 335.5)"/><ellipse cx="569.6" cy="412.2" rx="4" ry="2" fill="#e6e0cf" transform="rotate(1 569.6 412.2)"/><ellipse cx="608.4" cy="382.0" rx="4" ry="2" fill="#e6e0cf" transform="rotate(172 608.4 382.0)"/><ellipse cx="587.4" cy="410.3" rx="4" ry="2" fill="#e6e0cf" transform="rotate(39 587.4 410.3)"/><ellipse cx="542.9" cy="312.8" rx="4" ry="2" fill="#e6e0cf" transform="rotate(28 542.9 312.8)"/><ellipse cx="606.4" cy="348.6" rx="4" ry="2" fill="#e6e0cf" transform="rotate(148 606.4 348.6)"/><circle cx="573.5" cy="365.5" r="18.2" fill="#ef8354"/><circle cx="548.7" cy="373.5" r="18.2" fill="#8a5a3b"/><circle cx="555.5" cy="346.6" r="18.2" fill="#7fb069"/></svg>