<svg xmlns="http://www.w3.org/2000/svg" viewBox="0 0 800 600"><defs><radialGradient id="bg-amori" cx="50%" cy="35%" r="80%"><stop offset="0%" stop-color="#ffffff"/><stop offset="100%" stop-color="#efeff2"/></radialGradient></defs><rect width="800" height="600" fill="url(#bg-amori)"/><circle cx="240.7149802595377" cy="207.34693363308907" r="70" fill="#000" opacity="0.1"/><circle cx="240.7149802595377" cy="201.34693363308907" r="70" fill="#f5f2e8" stroke="#e0d9c2" stroke-width="2"/><circle cx="240.7149802595377" cy="201.34693363308907" r="60.199999999999996" fill="#f5f2e8"/><ellipse cx="215.7" cy="162.3" rx="4" ry="2" fill="#e6e0cf" transform="rotate(76 215.7 162.3)"/><ellipse cx="256.8" cy="154.9" rx="4" ry="2" fill="#e6e0cf" transform="rotate(15 256.8 154.9)"/><ellipse cx="281.4" cy="161.5" rx="4" ry="2" fill="#e6e0cf" transform="rotate(154 281.4 161.5)"/><ellipse cx="227.8" cy="253.6" rx="4" ry="2" fill="#e6e0cf" transform="rotate(150 227.8 253.6)"/><ellipse cx="208.8" cy="170.7" rx="4" ry="2" fill="#e6e0cf" transform="rotate(165 208.8 170.7)"/><ellipse cx="202.2" cy="234.0" rx="4" ry="2" fill="#e6e0cf" transform="rotate(147 202.2 234.0)"/><ellipse cx="194.8" cy="231.5" rx="4" ry="2" fill="#e6e0cf" transform="rotate(105 194.8 231.5)"/><ellipse cx="228.2" cy="243.5" rx="4" ry="2" fill="#e6e0cf" transform="rotate(122 228.2 243.5)"/><ellipse cx="211.2" cy="233.8" rx="4" ry="2" fill="#e6e0cf" transform="rotate(40 211.2 233.8)"/><ellipse cx="232.6" cy="150.6" rx="4" ry="2" fill="#e6e0cf" transform="rotate(99 232.6 150.6)"/><circle cx="256.1" cy="201.7" r="18.2" fill="#ef8354"/><circle cx="228.9" cy="211.2" r="18.2" fill="#e2503c"/><circle cx="239.0" cy="186.0" r="18.2" fill="#7fb069"/><circle cx="400.39467726647854" cy="202.92582011409104" r="70" fill="#000" opacity="0.1"/><circle cx="400.39467726647854" cy="196.92582011409104" r="70" fill="#f5f2e8" stroke="#e0d9c2" stroke-width="2"/><circle cx="400.39467726647854" cy="196.92582011409104" r="60.199999999999996" fill="#f5f2e8"/><ellipse cx="426.5" cy="156.6" rx="4" ry="2" fill="#e6e0cf" transform="rotate(69 426.5 156.6)"/><ellipse cx="416.1" cy="143.3" rx="4" ry="2" fill="#e6e0cf" transform="rotate(98 416.1 143.3)"/><ellipse cx="396.8" cy="241.4" rx="4" ry="2" fill="#e6e0cf" transform="rotate(77 396.8 241.4)"/><ellipse cx="454.8" cy="188.0" rx="4" ry="2" fill="#e6e0cf" transform="rotate(33 454.8 188.0)"/><ellipse cx="351.1" cy="197.7" rx="4" ry="2" fill="#e6e0cf" transform="rotate(148 351.1 197.7)"/><ellipse cx="450.7" cy="200.5" rx="4" ry="2" fill="#e6e0cf" transform="rotate(5 450.7 200.5)"/><ellipse cx="442.0" cy="231.9" rx="4" ry="2" fill="#e6e0cf" transform="rotate(108 442.0 231.9)"/><ellipse cx="439.5" cy="230.5" rx="4" ry="2" fill="#e6e0cf" transform="rotate(11 439.5 230.5)"/><ellipse cx="350.8" cy="196.7" rx="4" ry="2" fill="#e6e0cf" transform="rotate(125 350.8 196.7)"/><ellipse cx="373.1" cy="153.4" rx="4" ry="2" fill="#e6e0cf" transform="rotate(116 373.1 153.4)"/><circle cx="415.3" cy="200.7" r="18.2" fill="#ef8354"/><circle cx="388.0" cy="206.1" r="18.2" fill="#e2503c"/><circle cx="399.7" cy="181.5" r="18.2" fill="#7fb069"/><circle cx="559.7212595324963" cy="203.49148149602115" r="70" fill="#000" opacity="0.1"/><circle cx="559.7212595324963" cy="197.49148149602115" r="70" fill="#f5f2e8" stroke="#e0d9c2" stroke-width="2"/><circle cx="559.7212595324963" cy="197.49148149602115" r="60.199999999999996" fill="#f5f2e8"/><ellipse cx="614.5" cy="206.4" rx="4" ry="2" fill="#e6e0cf" transform="rotate(132 614.5 206.4)"/><ellipse cx="506.0" cy="187.6" rx="4" ry="2" fill="#e6e0cf" transform="rotate(22 506.0 187.6)"/><ellipse cx="552.9" cy="145.9" rx="4" ry="2" fill="#e6e0cf" transform="rotate(20 552.9 145.9)"/><ellipse cx="598.0" cy="222.0" rx="4" ry="2" fill="#e6e0cf" transform="rotate(137 598.0 222.0)"/><ellipse cx="551.7" cy="145.4" rx="4" ry="2" fill="#e6e0cf" transform="rotate(92 551.7 145.4)"/><ellipse cx="605.6" cy="226.7" rx="4" ry="2" fill="#e6e0cf" transform="rotate(6 605.6 226.7)"/><ellipse cx="508.1" cy="182.4" rx="4" ry="2" fill="#e6e0cf" transform="rotate(17 508.1 182.4)"/><ellipse cx="561.7" cy="140.4" rx="4" ry="2" fill="#e6e0cf" transform="rotate(37 561.7 140.4)"/><ellipse cx="527.8" cy="150.3" rx="4" ry="2" fill="#e6e0cf" transform="rotate(161 527.8 150.3)"/><ellipse cx="577.2" cy="241.8" rx="4" ry="2" fill="#e6e0cf" transform="rotate(51 577.2 241.8)"/><circle cx="574.5" cy="201.8" r="18.2" fill="#ef8354"/><circle cx="549.2" cy="208.7" r="18.2" fill="#e2503c"/><circle cx="552.7" cy="183.8" r="18.2" fill="#7fb069"/><circle cx="235.9460077099502" cy="362.5576842427254" r="70" fill="#000" opacity="0.1"/><circle cx="235.9460077099502" cy="356.5576842427254" r="70" fill="#f5f2e8" stroke="#e0d9c2" stroke-width="2"/><circle cx="235.9460077099502" cy="356.5576842427254" r="60.199999999999996" fill="#f5f2e8"/><ellipse cx="209.4" cy="401.0" rx="4" ry="2" fill="#e6e0cf" transform="rotate(148 209.4 401.0)"/><ellipse cx="242.8" cy="408.3" rx="4" ry="2" fill="#e6e0cf" transform="rotate(54 242.8 408.3)"/><ellipse cx="263.8" cy="396.5" rx="4" ry="2" fill="#e6e0cf" transform="rotate(96 263.8 396.5)"/><ellipse cx="203.8" cy="394.1" rx="4" ry="2" fill="#e6e0cf" transform="rotate(125 203.8 394.1)"/><ellipse cx="190.3" cy="350.9" rx="4" ry="2" fill="#e6e0cf" transform="rotate(79 190.3 350.9)"/><ellipse cx="276.2" cy="382.6" rx="4" ry="2" fill="#e6e0cf" transform="rotate(45 276.2 382.6)"/><ellipse cx="211.1" cy="307.3" rx="4" ry="2" fill="#e6e0cf" transform="rotate(70 211.1 307.3)"/><ellipse cx="195.1" cy="394.7" rx="4" ry="2" fill="#e6e0cf" transform="rotate(170 195.1 394.7)"/><ellipse cx="185.3" cy="335.9" rx="4" ry="2" fill="#e6e0cf" transform="rotate(130 185.3 335.9)"/><ellipse cx="216.0" cy="399.3" rx="4" ry="2" fill="#e6e0cf" transform="rotate(136 216.0 399.3)"/><circle cx="251.3" cy="358.1" r="18.2" fill="#ef8354"/><circle cx="224.8" cy="367.2" r="18.2" fill="#e2503c"/><circle cx="233.2" cy="341.4" r="18.2" fill="#7fb069"/><circle cx="397.71868559345603" cy="365.11462587863207" r="70" fill="#000" opacity="0.1"/><circle cx="397.71868559345603" cy="359.11462587863207" r="70" fill="#f5f2e8" stroke="#e0d9c2" stroke-width="2"/><circle cx="397.71868559345603" cy="359.11462587863207" r="60.199999999999996" fill="#f5f2e8"/><ellipse cx="438.0" cy="395.7" rx="4" ry="2" fill="#e6e0cf" transform="rotate(148 438.0 395.7)"/><ellipse cx="417.5" cy="312.5" rx="4" ry="2" fill="#e6e0cf" transform="rotate(104 417.5 312.5)"/><ellipse cx="453.6" cy="368.6" rx="4" ry="2" fill="#e6e0cf" transform="rotate(30 453.6 368.6)"/><ellipse cx="364.5" cy="390.6" rx="4" ry="2" fill="#e6e0cf" transform="rotate(28 364.5 390.6)"/><ellipse cx="434.9" cy="334.2" rx="4" ry="2" fill="#e6e0cf" transform="rotate(147 434.9 334.2)"/><ellipse cx="356.8" cy="331.3" rx="4" ry="2" fill="#e6e0cf" transform="rotate(139 356.8 331.3)"/><ellipse cx="343.9" cy="360.7" rx="4" ry="2" fill="#e6e0cf" transform="rotate(33 343.9 360.7)"/><ellipse cx="427.8" cy="404.9" rx="4" ry="2" fill="#e6e0cf" transform="rotate(67 427.8 404.9)"/><ellipse cx="407.0" cy="308.3" rx="4" ry="2" fill="#e6e0cf" transform="rotate(18 407.0 308.3)"/><ellipse cx="354.3" cy="369.5" rx="4" ry="2" fill="#e6e0cf" transform="rotate(143 354.3 369.5)"/><circle cx="413.1" cy="359.6" r="18.2" fill="#ef8354"/><circle cx="385.2" cy="368.1" r="18.2" fill="#e2503c"/><circle cx="391.6" cy="345.0" r="18.2" fill="#7fb069"/><circle cx="562.85642032139" cy="362.8742401264608" r="70" fill="#000" opacity="0.1"/><circle cx="562.85642032139" cy="356.8742401264608" r="70" fill="#f5f2e8" stroke="#e0d9c2" stroke-width="2"/><circle cx="562.85642032139" cy="356.8742401264608" r="60.199999999999996" fill="#f5f2e8"/><ellipse cx="599.8" cy="396.4" rx="4" ry="2" fill="#e6e0cf" transform="rotate(155 599.8 396.4)"/><ellipse cx="612.3" cy="349.8" rx="4" ry="2" fill="#e6e0cf" transform="rotate(18 612.3 349.8)"/><ellipse cx="588.7" cy="397.9" rx="4" ry="2" fill="#e6e0cf" transform="rotate(54 588.7 397.9)"/><ellipse cx="563.7" cy="400.3" rx="4" ry="2" fill="#e6e0cf" transform="rotate(54 563.7 400.3)"/><ellipse cx="518.1" cy="327.0" rx="4" ry="2" fill="#e6e0cf" transform="rotate(116 518.1 327.0)"/><ellipse cx="619.0" cy="355.9" rx="4" ry="2" fill="#e6e0cf" transform="rotate(49 619.0 355.9)"/><ellipse cx="530.1" cy="388.8" rx="4" ry="2" fill="#e6e0cf" transform="rotate(16 530.1 388.8)"/><ellipse cx="509.2" cy="372.4" rx="4" ry="2" fill="#e6e0cf" transform="rotate(110 509.2 372.4)"/><ellipse cx="549.6" cy="305.8" rx="4" ry="2" fill="#e6e0cf" transform="rotate(82 549.6 305.8)"/><ellipse cx="518.1" cy="329.2" rx="4" ry="2" fill="#e6e0cf" transform="rotate(69 518.1 329.2)"/><circle cx="577.2" cy="362.6" r="18.2" fill="#ef8354"/><circle cx="554.1" cy="369.6" r="18.2" fill="#e2503c"/><circle cx="555.6" cy="343.3" r="18.2" fill="#7fb069"/></svg>