<svg xmlns="http://www.w3.org/2000/svg" viewBox="0 0 800 600"><defs><radialGradient id="bg-banzay" cx="50%" cy="35%" r="80%"><stop offset="0%" stop-color="#26262c"/><stop offset="100%" stop-color="#141417"/></radialGradient></defs><rect width="800" height="600" fill="url(#bg-banzay)"/><circle cx="239.40487027168274" cy="203.38717659562826" r="70" fill="#000" opacity="0.35"/><circle cx="239.40487027168274" cy="197.38717659562826" r="70" fill="#f5f2e8"/><circle cx="239.40487027168274" cy="197.38717659562826" r="60.199999999999996" fill="#f5f2e8"/><ellipse cx="283.3" cy="171.5" rx="4" ry="2" fill="#e6e0cf" transform="rotate(47 283.3 171.5)"/><ellipse cx="195.2" cy="214.0" rx="4" ry="2" fill="#e6e0cf" transform="rotate(44 195.2 214.0)"/><ellipse cx="271.1" cy="167.0" rx="4" ry="2" fill="#e6e0cf" transform="rotate(28 271.1 167.0)"/><ellipse cx="271.0" cy="153.4" rx="4" ry="2" fill="#e6e0cf" transform="rotate(69 271.0 153.4)"/><ellipse cx="272.4" cy="234.6" rx="4" ry="2" fill="#e6e0cf" transform="rotate(109 272.4 234.6)"/><ellipse cx="188.7" cy="211.0" rx="4" ry="2" fill="#e6e0cf" transform="rotate(63 188.7 211.0)"/><ellipse cx="288.4" cy="191.7" rx="4" ry="2" fill="#e6e0cf" transform="rotate(128 288.4 191.7)"/><ellipse cx="274.8" cy="166.8" rx="4" ry="2" fill="#e6e0cf" transform="rotate(109 274.8 166.8)"/><ellipse cx="287.2" cy="169.7" rx="4" ry="2" fill="#e6e0cf" transform="rotate(89 287.2 169.7)"/><ellipse cx="234.6" cy="153.3" rx="4" ry="2" fill="#e6e0cf" transform="rotate(99 234.6 153.3)"/><circle cx="253.2" cy="204.3" r="18.2" fill="#ef8354"/><circle cx="230.2" cy="209.8" r="18.2" fill="#7fb069"/><circle cx="237.0" cy="182.2" r="18.2" fill="#f2ecd8"/><circle cx="396.6211330667138" cy="202.7803251389414" r="70" fill="#000" opacity="0.35"/><circle cx="396.6211330667138" cy="196.7803251389414" r="70" fill="#f5f2e8"/><circle cx="396.6211330667138" cy="196.7803251389414" r="60.199999999999996" fill="#f5f2e8"/><ellipse cx="377.6" cy="244.6" rx="4" ry="2" fill="#e6e0cf" transform="rotate(126 377.6 244.6)"/><ellipse cx="401.2" cy="247.6" rx="4" ry="2" fill="#e6e0cf" transform="rotate(139 401.2 247.6)"/><ellipse cx="432.8" cy="163.9" rx="4" ry="2" fill="#e6e0cf" transform="rotate(112 432.8 163.9)"/><ellipse cx="439.7" cy="212.1" rx="4" ry="2" fill="#e6e0cf" transform="rotate(5 439.7 212.1)"/><ellipse cx="351.3" cy="195.8" rx="4" ry="2" fill="#e6e0cf" transform="rotate(178 351.3 195.8)"/><ellipse cx="439.2" cy="167.9" rx="4" ry="2" fill="#e6e0cf" transform="rotate(13 439.2 167.9)"/><ellipse cx="440.0" cy="161.0" rx="4" ry="2" fill="#e6e0cf" transform="rotate(105 440.0 161.0)"/><ellipse cx="350.3" cy="208.3" rx="4" ry="2" fill="#e6e0cf" transform="rotate(147 350.3 208.3)"/><ellipse cx="390.1" cy="253.1" rx="4" ry="2" fill="#e6e0cf" transform="rotate(177 390.1 253.1)"/><ellipse cx="360.3" cy="158.5" rx="4" ry="2" fill="#e6e0cf" transform="rotate(170 360.3 158.5)"/><circle cx="411.9" cy="198.8" r="18.2" fill="#ef8354"/><circle cx="386.3" cy="208.2" r="18.2" fill="#7fb069"/><circle cx="394.2" cy="181.6" r="18.2" fill="#f2ecd8"/><circle cx="564.968182452023" cy="205.86389023810625" r="70" fill="#000" opacity="0.35"/><circle cx="564.968182452023" cy="199.86389023810625" r="70" fill="#f5f2e8"/><circle cx="564.968182452023" cy="199.86389023810625" r="60.199999999999996" fill="#f5f2e8"/><ellipse cx="542.8" cy="161.4" rx="4" ry="2" fill="#e6e0cf" transform="rotate(142 542.8 161.4)"/><ellipse cx="524.9" cy="220.2" rx="4" ry="2" fill="#e6e0cf" transform="rotate(130 524.9 220.2)"/><ellipse cx="578.9" cy="243.1" rx="4" ry="2" fill="#e6e0cf" transform="rotate(122 578.9 243.1)"/><ellipse cx="547.0" cy="249.2" rx="4" ry="2" fill="#e6e0cf" transform="rotate(140 547.0 249.2)"/><ellipse cx="601.8" cy="227.7" rx="4" ry="2" fill="#e6e0cf" transform="rotate(17 601.8 227.7)"/><ellipse cx="598.5" cy="154.3" rx="4" ry="2" fill="#e6e0cf" transform="rotate(150 598.5 154.3)"/><ellipse cx="605.2" cy="221.1" rx="4" ry="2" fill="#e6e0cf" transform="rotate(67 605.2 221.1)"/><ellipse cx="548.6" cy="247.9" rx="4" ry="2" fill="#e6e0cf" transform="rotate(66 548.6 247.9)"/><ellipse cx="547.9" cy="247.4" rx="4" ry="2" fill="#e6e0cf" transform="rotate(99 547.9 247.4)"/><ellipse cx="575.3" cy="143.9" rx="4" ry="2" fill="#e6e0cf" transform="rotate(24 575.3 143.9)"/><circle cx="580.2" cy="202.0" r="18.2" fill="#ef8354"/><circle cx="555.0" cy="211.6" r="18.2" fill="#7fb069"/><circle cx="557.9" cy="186.2" r="18.2" fill="#f2ecd8"/><circle cx="235.41514282487333" cy="367.9679251667112" r="70" fill="#000" opacity="0.35"/><circle cx="235.41514282487333" cy="361.9679251667112" r="70" fill="#f5f2e8"/><circle cx="235.41514282487333" cy="361.9679251667112" r="60.199999999999996" fill="#f5f2e8"/><ellipse cx="223.2" cy="405.3" rx="4" ry="2" fill="#e6e0cf" transform="rotate(178 223.2 405.3)"/><ellipse cx="221.0" cy="415.5" rx="4" ry="2" fill="#e6e0cf" transform="rotate(49 221.0 415.5)"/><ellipse cx="277.9" cy="376.6" rx="4" ry="2" fill="#e6e0cf" transform="rotate(168 277.9 376.6)"/><ellipse cx="181.3" cy="344.9" rx="4" ry="2" fill="#e6e0cf" transform="rotate(47 181.3 344.9)"/><ellipse cx="269.4" cy="334.4" rx="4" ry="2" fill="#e6e0cf" transform="rotate(104 269.4 334.4)"/><ellipse cx="279.4" cy="336.6" rx="4" ry="2" fill="#e6e0cf" transform="rotate(83 279.4 336.6)"/><ellipse cx="226.2" cy="417.5" rx="4" ry="2" fill="#e6e0cf" transform="rotate(59 226.2 417.5)"/><ellipse cx="199.7" cy="389.1" rx="4" ry="2" fill="#e6e0cf" transform="rotate(169 199.7 389.1)"/><ellipse cx="186.8" cy="332.2" rx="4" ry="2" fill="#e6e0cf" transform="rotate(43 186.8 332.2)"/><ellipse cx="275.8" cy="323.4" rx="4" ry="2" fill="#e6e0cf" transform="rotate(141 275.8 323.4)"/><circle cx="250.8" cy="362.1" r="18.2" fill="#ef8354"/><circle cx="223.5" cy="371.8" r="18.2" fill="#7fb069"/><circle cx="229.6" cy="347.7" r="18.2" fill="#f2ecd8"/><circle cx="398.354587379843" cy="364.0289793703705" r="70" fill="#000" opacity="0.35"/><circle cx="398.354587379843" cy="358.0289793703705" r="70" fill="#f5f2e8"/><circle cx="398.354587379843" cy="358.0289793703705" r="60.199999999999996" fill="#f5f2e8"/><ellipse cx="396.6" cy="307.3" rx="4" ry="2" fill="#e6e0cf" transform="rotate(97 396.6 307.3)"/><ellipse cx="385.4" cy="309.5" rx="4" ry="2" fill="#e6e0cf" transform="rotate(51 385.4 309.5)"/><ellipse cx="440.1" cy="382.6" rx="4" ry="2" fill="#e6e0cf" transform="rotate(62 440.1 382.6)"/><ellipse cx="353.5" cy="338.5" rx="4" ry="2" fill="#e6e0cf" transform="rotate(170 353.5 338.5)"/><ellipse cx="422.3" cy="400.6" rx="4" ry="2" fill="#e6e0cf" transform="rotate(12 422.3 400.6)"/><ellipse cx="433.3" cy="389.4" rx="4" ry="2" fill="#e6e0cf" transform="rotate(30 433.3 389.4)"/><ellipse cx="438.3" cy="332.4" rx="4" ry="2" fill="#e6e0cf" transform="rotate(108 438.3 332.4)"/><ellipse cx="454.1" cy="348.3" rx="4" ry="2" fill="#e6e0cf" transform="rotate(115 454.1 348.3)"/><ellipse cx="378.9" cy="315.6" rx="4" ry="2" fill="#e6e0cf" transform="rotate(37 378.9 315.6)"/><ellipse cx="420.4" cy="401.0" rx="4" ry="2" fill="#e6e0cf" transform="rotate(52 420.4 401.0)"/><circle cx="413.6" cy="360.5" r="18.2" fill="#ef8354"/><circle cx="385.4" cy="366.4" r="18.2" fill="#7fb069"/><circle cx="391.5" cy="344.2" r="18.2" fill="#f2ecd8"/><circle cx="558.3927937019616" cy="369.17759231850505" r="70" fill="#000" opacity="0.35"/><circle cx="558.3927937019616" cy="363.17759231850505" r="70" fill="#f5f2e8"/><circle cx="558.3927937019616" cy="363.17759231850505" r="60.199999999999996" fill="#f5f2e8"/><ellipse cx="598.5" cy="402.2" rx="4" ry="2" fill="#e6e0cf" transform="rotate(162 598.5 402.2)"/><ellipse cx="561.6" cy="317.3" rx="4" ry="2" fill="#e6e0cf" transform="rotate(172 561.6 317.3)"/><ellipse cx="595.6" cy="386.6" rx="4" ry="2" fill="#e6e0cf" transform="rotate(79 595.6 386.6)"/><ellipse cx="518.4" cy="336.5" rx="4" ry="2" fill="#e6e0cf" transform="rotate(83 518.4 336.5)"/><ellipse cx="606.7" cy="376.6" rx="4" ry="2" fill="#e6e0cf" transform="rotate(122 606.7 376.6)"/><ellipse cx="521.2" cy="404.2" rx="4" ry="2" fill="#e6e0cf" transform="rotate(71 521.2 404.2)"/><ellipse cx="543.4" cy="317.0" rx="4" ry="2" fill="#e6e0cf" transform="rotate(165 543.4 317.0)"/><ellipse cx="515.2" cy="345.8" rx="4" ry="2" fill="#e6e0cf" transform="rotate(108 515.2 345.8)"/><ellipse cx="584.5" cy="322.5" rx="4" ry="2" fill="#e6e0cf" transform="rotate(51 584.5 322.5)"/><ellipse cx="582.1" cy="402.5" rx="4" ry="2" fill="#e6e0cf" transform="rotate(101 582.1 402.5)"/><circle cx="573.2" cy="367.4" r="18.2" fill="#ef8354"/><circle cx="547.1" cy="373.6" r="18.2" fill="#7fb069"/><circle cx="554.0" cy="348.4" r="18.2" fill="#f2ecd8"/></svg>