<svg xmlns="http://www.w3.org/2000/svg" viewBox="0 0 800 600"><defs><radialGradient id="bg-big-kush-set" cx="50%" cy="35%" r="80%"><stop offset="0%" stop-color="#ffffff"/><stop offset="100%" stop-color="#efeff2"/></radialGradient></defs><rect width="800" height="600" fill="url(#bg-big-kush-set)"/><circle cx="185.38499307073653" cy="143.4641588293016" r="62.5" fill="#000" opacity="0.1"/><circle cx="185.38499307073653" cy="137.4641588293016" r="62.5" fill="#f5f2e8" stroke="#e0d9c2" stroke-width="2"/><circle cx="185.38499307073653" cy="137.4641588293016" r="53.75" fill="#f5f2e8"/><ellipse cx="144.7" cy="139.1" rx="4" ry="2" fill="#e6e0cf" transform="rotate(0 144.7 139.1)"/><ellipse cx="156.5" cy="167.2" rx="4" ry="2" fill="#e6e0cf" transform="rotate(53 156.5 167.2)"/><ellipse cx="163.4" cy="101.6" rx="4" ry="2" fill="#e6e0cf" transform="rotate(102 163.4 101.6)"/><ellipse cx="146.0" cy="113.8" rx="4" ry="2" fill="#e6e0cf" transform="rotate(174 146.0 113.8)"/><ellipse cx="219.6" cy="170.7" rx="4" ry="2" fill="#e6e0cf" transform="rotate(112 219.6 170.7)"/><ellipse cx="200.3" cy="92.4" rx="4" ry="2" fill="#e6e0cf" transform="rotate(16 200.3 92.4)"/><ellipse cx="152.8" cy="103.5" rx="4" ry="2" fill="#e6e0cf" transform="rotate(165 152.8 103.5)"/><ellipse cx="159.2" cy="167.6" rx="4" ry="2" fill="#e6e0cf" transform="rotate(43 159.2 167.6)"/><ellipse cx="137.7" cy="119.2" rx="4" ry="2" fill="#e6e0cf" transform="rotate(151 137.7 119.2)"/><ellipse cx="215.2" cy="178.6" rx="4" ry="2" fill="#e6e0cf" transform="rotate(115 215.2 178.6)"/><circle cx="198.1" cy="142.6" r="16.3" fill="#ef8354"/><circle cx="171.7" cy="135.9" r="16.3" fill="#8a5a3b"/><circle cx="327.4729465916753" cy="144.70462615974247" r="62.5" fill="#000" opacity="0.1"/><circle cx="327.4729465916753" cy="138.70462615974247" r="62.5" fill="#f5f2e8" stroke="#e0d9c2" stroke-width="2"/><circle cx="327.4729465916753" cy="138.70462615974247" r="53.75" fill="#f5f2e8"/><ellipse cx="295.4" cy="99.8" rx="4" ry="2" fill="#e6e0cf" transform="rotate(168 295.4 99.8)"/><ellipse cx="286.0" cy="144.8" rx="4" ry="2" fill="#e6e0cf" transform="rotate(14 286.0 144.8)"/><ellipse cx="345.8" cy="95.9" rx="4" ry="2" fill="#e6e0cf" transform="rotate(147 345.8 95.9)"/><ellipse cx="373.6" cy="118.6" rx="4" ry="2" fill="#e6e0cf" transform="rotate(124 373.6 118.6)"/><ellipse cx="290.9" cy="121.8" rx="4" ry="2" fill="#e6e0cf" transform="rotate(143 290.9 121.8)"/><ellipse cx="355.2" cy="103.1" rx="4" ry="2" fill="#e6e0cf" transform="rotate(128 355.2 103.1)"/><ellipse cx="338.8" cy="181.7" rx="4" ry="2" fill="#e6e0cf" transform="rotate(174 338.8 181.7)"/><ellipse cx="372.1" cy="117.2" rx="4" ry="2" fill="#e6e0cf" transform="rotate(142 372.1 117.2)"/><ellipse cx="306.5" cy="104.0" rx="4" ry="2" fill="#e6e0cf" transform="rotate(19 306.5 104.0)"/><ellipse cx="373.4" cy="132.3" rx="4" ry="2" fill="#e6e0cf" transform="rotate(97 373.4 132.3)"/><circle cx="341.0" cy="141.1" r="16.3" fill="#ef8354"/><circle cx="313.9" cy="136.7" r="16.3" fill="#8a5a3b"/><circle cx="472.81910700351" cy="139.33158322051167" r="62.5" fill="#000" opacity="0.1"/><circle cx="472.81910700351" cy="133.33158322051167" r="62.5" fill="#f5f2e8" stroke="#e0d9c2" stroke-width="2"/><circle cx="472.81910700351" cy="133.33158322051167" r="53.75" fill="#f5f2e8"/><ellipse cx="433.8" cy="134.2" rx="4" ry="2" fill="#e6e0cf" transform="rotate(124 433.8 134.2)"/><ellipse cx="515.3" cy="132.9" rx="4" ry="2" fill="#e6e0cf" transform="rotate(149 515.3 132.9)"/><ellipse cx="504.9" cy="99.2" rx="4" ry="2" fill="#e6e0cf" transform="rotate(54 504.9 99.2)"/><ellipse cx="435.1" cy="121.2" rx="4" ry="2" fill="#e6e0cf" transform="rotate(107 435.1 121.2)"/><ellipse cx="518.6" cy="132.6" rx="4" ry="2" fill="#e6e0cf" transform="rotate(69 518.6 132.6)"/><ellipse cx="489.6" cy="175.4" rx="4" ry="2" fill="#e6e0cf" transform="rotate(148 489.6 175.4)"/><ellipse cx="438.4" cy="152.3" rx="4" ry="2" fill="#e6e0cf" transform="rotate(88 438.4 152.3)"/><ellipse cx="487.8" cy="170.0" rx="4" ry="2" fill="#e6e0cf" transform="rotate(14 487.8 170.0)"/><ellipse cx="512.1" cy="139.9" rx="4" ry="2" fill="#e6e0cf" transform="rotate(11 512.1 139.9)"/><ellipse cx="437.8" cy="155.6" rx="4" ry="2" fill="#e6e0cf" transform="rotate(134 437.8 155.6)"/><circle cx="486.2" cy="136.7" r="16.3" fill="#ef8354"/><circle cx="460.5" cy="127.3" r="16.3" fill="#8a5a3b"/><circle cx="617.5173656735569" cy="143.58207201212645" r="62.5" fill="#000" opacity="0.1"/><circle cx="617.5173656735569" cy="137.58207201212645" r="62.5" fill="#f5f2e8" stroke="#e0d9c2" stroke-width="2"/><circle cx="617.5173656735569" cy="137.58207201212645" r="53.75" fill="#f5f2e8"/><ellipse cx="591.5" cy="107.6" rx="4" ry="2" fill="#e6e0cf" transform="rotate(70 591.5 107.6)"/><ellipse cx="647.6" cy="111.3" rx="4" ry="2" fill="#e6e0cf" transform="rotate(41 647.6 111.3)"/><ellipse cx="655.9" cy="118.6" rx="4" ry="2" fill="#e6e0cf" transform="rotate(143 655.9 118.6)"/><ellipse cx="573.6" cy="155.3" rx="4" ry="2" fill="#e6e0cf" transform="rotate(140 573.6 155.3)"/><ellipse cx="617.3" cy="177.7" rx="4" ry="2" fill="#e6e0cf" transform="rotate(168 617.3 177.7)"/><ellipse cx="658.4" cy="140.5" rx="4" ry="2" fill="#e6e0cf" transform="rotate(133 658.4 140.5)"/><ellipse cx="611.5" cy="186.5" rx="4" ry="2" fill="#e6e0cf" transform="rotate(137 611.5 186.5)"/><ellipse cx="657.6" cy="123.7" rx="4" ry="2" fill="#e6e0cf" transform="rotate(19 657.6 123.7)"/><ellipse cx="576.9" cy="128.8" rx="4" ry="2" fill="#e6e0cf" transform="rotate(154 576.9 128.8)"/><ellipse cx="657.9" cy="131.1" rx="4" ry="2" fill="#e6e0cf" transform="rotate(84 657.9 131.1)"/><circle cx="631.1" cy="139.6" r="16.3" fill="#ef8354"/><circle cx="604.1" cy="134.6" r="16.3" fill="#8a5a3b"/><circle cx="184.36466176249087" cy="288.25587649457157" r="62.5" fill="#000" opacity="0.1"/><circle cx="184.36466176249087" cy="282.25587649457157" r="62.5" fill="#f5f2e8" stroke="#e0d9c2" stroke-width="2"/><circle cx="184.36466176249087" cy="282.25587649457157" r="53.75" fill="#f5f2e8"/><ellipse cx="208.7" cy="245.5" rx="4" ry="2" fill="#e6e0cf" transform="rotate(84 208.7 245.5)"/><ellipse cx="234.7" cy="289.8" rx="4" ry="2" fill="#e6e0cf" transform="rotate(2 234.7 289.8)"/><ellipse cx="221.9" cy="268.7" rx="4" ry="2" fill="#e6e0cf" transform="rotate(89 221.9 268.7)"/><ellipse cx="197.2" cy="328.9" rx="4" ry="2" fill="#e6e0cf" transform="rotate(61 197.2 328.9)"/><ellipse cx="161.9" cy="315.6" rx="4" ry="2" fill="#e6e0cf" transform="rotate(61 161.9 315.6)"/><ellipse cx="232.8" cy="298.4" rx="4" ry="2" fill="#e6e0cf" transform="rotate(32 232.8 298.4)"/><ellipse cx="199.5" cy="326.3" rx="4" ry="2" fill="#e6e0cf" transform="rotate(50 199.5 326.3)"/><ellipse cx="216.9" cy="315.9" rx="4" ry="2" fill="#e6e0cf" transform="rotate(41 216.9 315.9)"/><ellipse cx="227.1" cy="308.9" rx="4" ry="2" fill="#e6e0cf" transform="rotate(20 227.1 308.9)"/><ellipse cx="208.6" cy="247.5" rx="4" ry="2" fill="#e6e0cf" transform="rotate(155 208.6 247.5)"/><circle cx="196.9" cy="288.0" r="16.3" fill="#ef8354"/><circle cx="170.6" cy="281.5" r="16.3" fill="#8a5a3b"/><circle cx="325.9978724960238" cy="288.32571114227176" r="62.5" fill="#000" opacity="0.1"/><circle cx="325.9978724960238" cy="282.32571114227176" r="62.5" fill="#f5f2e8" stroke="#e0d9c2" stroke-width="2"/><circle cx="325.9978724960238" cy="282.32571114227176" r="53.75" fill="#f5f2e8"/><ellipse cx="350.1" cy="317.5" rx="4" ry="2" fill="#e6e0cf" transform="rotate(179 350.1 317.5)"/><ellipse cx="364.6" cy="305.9" rx="4" ry="2" fill="#e6e0cf" transform="rotate(149 364.6 305.9)"/><ellipse cx="367.8" cy="307.1" rx="4" ry="2" fill="#e6e0cf" transform="rotate(149 367.8 307.1)"/><ellipse cx="299.8" cy="312.7" rx="4" ry="2" fill="#e6e0cf" transform="rotate(51 299.8 312.7)"/><ellipse cx="303.3" cy="320.1" rx="4" ry="2" fill="#e6e0cf" transform="rotate(96 303.3 320.1)"/><ellipse cx="364.0" cy="303.4" rx="4" ry="2" fill="#e6e0cf" transform="rotate(18 364.0 303.4)"/><ellipse cx="282.4" cy="298.1" rx="4" ry="2" fill="#e6e0cf" transform="rotate(69 282.4 298.1)"/><ellipse cx="327.1" cy="331.4" rx="4" ry="2" fill="#e6e0cf" transform="rotate(133 327.1 331.4)"/><ellipse cx="286.0" cy="264.5" rx="4" ry="2" fill="#e6e0cf" transform="rotate(143 286.0 264.5)"/><ellipse cx="297.6" cy="316.5" rx="4" ry="2" fill="#e6e0cf" transform="rotate(138 297.6 316.5)"/><circle cx="338.4" cy="288.3" r="16.3" fill="#ef8354"/><circle cx="312.3" cy="280.7" r="16.3" fill="#8a5a3b"/><circle cx="473.47408137470484" cy="282.042227787897" r="62.5" fill="#000" opacity="0.1"/><circle cx="473.47408137470484" cy="276.042227787897" r="62.5" fill="#f5f2e8" stroke="#e0d9c2" stroke-width="2"/><circle cx="473.47408137470484" cy="276.042227787897" r="53.75" fill="#f5f2e8"/><ellipse cx="435.9" cy="263.2" rx="4" ry="2" fill="#e6e0cf" transform="rotate(55 435.9 263.2)"/><ellipse cx="424.8" cy="270.1" rx="4" ry="2" fill="#e6e0cf" transform="rotate(97 424.8 270.1)"/><ellipse cx="424.0" cy="283.7" rx="4" ry="2" fill="#e6e0cf" transform="rotate(88 424.0 283.7)"/><ellipse cx="514.4" cy="252.7" rx="4" ry="2" fill="#e6e0cf" transform="rotate(106 514.4 252.7)"/><ellipse cx="430.6" cy="272.3" rx="4" ry="2" fill="#e6e0cf" transform="rotate(56 430.6 272.3)"/><ellipse cx="497.7" cy="237.8" rx="4" ry="2" fill="#e6e0cf" transform="rotate(178 497.7 237.8)"/><ellipse cx="469.8" cy="325.7" rx="4" ry="2" fill="#e6e0cf" transform="rotate(153 469.8 325.7)"/><ellipse cx="440.3" cy="255.8" rx="4" ry="2" fill="#e6e0cf" transform="rotate(46 440.3 255.8)"/><ellipse cx="520.6" cy="278.7" rx="4" ry="2" fill="#e6e0cf" transform="rotate(5 520.6 278.7)"/><ellipse cx="482.5" cy="233.6" rx="4" ry="2" fill="#e6e0cf" transform="rotate(162 482.5 233.6)"/><circle cx="486.2" cy="281.1" r="16.3" fill="#ef8354"/><circle cx="461.4" cy="269.5" r="16.3" fill="#8a5a3b"/><circle cx="614.7243662588298" cy="288.07064855098724" r="62.5" fill="#000" opacity="0.1"/><circle cx="614.7243662588298" cy="282.07064855098724" r="62.5" fill="#f5f2e8" stroke="#e0d9c2" stroke-width="2"/><circle cx="614.7243662588298" cy="282.07064855098724" r="53.75" fill="#f5f2e8"/><ellipse cx="595.1" cy="241.6" rx="4" ry="2" fill="#e6e0cf" transform="rotate(33 595.1 241.6)"/><ellipse cx="664.2" cy="289.6" rx="4" ry="2" fill="#e6e0cf" transform="rotate(129 664.2 289.6)"/><ellipse cx="659.6" cy="268.2" rx="4" ry="2" fill="#e6e0cf" transform="rotate(84 659.6 268.2)"/><ellipse cx="566.0" cy="282.3" rx="4" ry="2" fill="#e6e0cf" transform="rotate(103 566.0 282.3)"/><ellipse cx="643.1" cy="248.1" rx="4" ry="2" fill="#e6e0cf" transform="rotate(80 643.1 248.1)"/><ellipse cx="610.0" cy="242.7" rx="4" ry="2" fill="#e6e0cf" transform="rotate(34 610.0 242.7)"/><ellipse cx="583.4" cy="306.5" rx="4" ry="2" fill="#e6e0cf" transform="rotate(69 583.4 306.5)"/><ellipse cx="612.5" cy="326.3" rx="4" ry="2" fill="#e6e0cf" transform="rotate(120 612.5 326.3)"/><ellipse cx="592.6" cy="245.6" rx="4" ry="2" fill="#e6e0cf" transform="rotate(168 592.6 245.6)"/><ellipse cx="583.5" cy="249.7" rx="4" ry="2" fill="#e6e0cf" transform="rotate(32 583.5 249.7)"/><circle cx="628.0" cy="285.7" r="16.3" fill="#ef8354"/><circle cx="601.6" cy="278.1" r="16.3" fill="#8a5a3b"/><circle cx="184.24465341679752" cy="428.44345050118864" r="62.5" fill="#000" opacity="0.1"/><circle cx="184.24465341679752" cy="422.44345050118864" r="62.5" fill="#f5f2e8" stroke="#e0d9c2" stroke-width="2"/><circle cx="184.24465341679752" cy="422.44345050118864" r="53.75" fill="#f5f2e8"/><ellipse cx="230.1" cy="433.3" rx="4" ry="2" fill="#e6e0cf" transform="rotate(89 230.1 433.3)"/><ellipse cx="149.3" cy="394.2" rx="4" ry="2" fill="#e6e0cf" transform="rotate(44 149.3 394.2)"/><ellipse cx="206.3" cy="460.8" rx="4" ry="2" fill="#e6e0cf" transform="rotate(177 206.3 460.8)"/><ellipse cx="139.1" cy="425.9" rx="4" ry="2" fill="#e6e0cf" transform="rotate(66 139.1 425.9)"/><ellipse cx="165.0" cy="375.4" rx="4" ry="2" fill="#e6e0cf" transform="rotate(2 165.0 375.4)"/><ellipse cx="221.0" cy="400.3" rx="4" ry="2" fill="#e6e0cf" transform="rotate(103 221.0 400.3)"/><ellipse cx="208.6" cy="379.7" rx="4" ry="2" fill="#e6e0cf" transform="rotate(60 208.6 379.7)"/><ellipse cx="151.3" cy="452.3" rx="4" ry="2" fill="#e6e0cf" transform="rotate(87 151.3 452.3)"/><ellipse cx="165.7" cy="374.8" rx="4" ry="2" fill="#e6e0cf" transform="rotate(137 165.7 374.8)"/><ellipse cx="179.2" cy="380.6" rx="4" ry="2" fill="#e6e0cf" transform="rotate(105 179.2 380.6)"/><circle cx="196.5" cy="428.7" r="16.3" fill="#ef8354"/><circle cx="170.8" cy="419.4" r="16.3" fill="#8a5a3b"/><circle cx="327.30683993175626" cy="430.89443931914866" r="62.5" fill="#000" opacity="0.1"/><circle cx="327.30683993175626" cy="424.89443931914866" r="62.5" fill="#f5f2e8" stroke="#e0d9c2" stroke-width="2"/><circle cx="327.30683993175626" cy="424.89443931914866" r="53.75" fill="#f5f2e8"/><ellipse cx="337.0" cy="377.5" rx="4" ry="2" fill="#e6e0cf" transform="rotate(154 337.0 377.5)"/><ellipse cx="362.4" cy="400.0" rx="4" ry="2" fill="#e6e0cf" transform="rotate(98 362.4 400.0)"/><ellipse cx="288.3" cy="436.8" rx="4" ry="2" fill="#e6e0cf" transform="rotate(92 288.3 436.8)"/><ellipse cx="279.9" cy="418.7" rx="4" ry="2" fill="#e6e0cf" transform="rotate(161 279.9 418.7)"/><ellipse cx="314.9" cy="386.6" rx="4" ry="2" fill="#e6e0cf" transform="rotate(24 314.9 386.6)"/><ellipse cx="279.0" cy="430.9" rx="4" ry="2" fill="#e6e0cf" transform="rotate(14 279.0 430.9)"/><ellipse cx="331.9" cy="466.2" rx="4" ry="2" fill="#e6e0cf" transform="rotate(154 331.9 466.2)"/><ellipse cx="375.8" cy="410.7" rx="4" ry="2" fill="#e6e0cf" transform="rotate(42 375.8 410.7)"/><ellipse cx="300.1" cy="463.5" rx="4" ry="2" fill="#e6e0cf" transform="rotate(98 300.1 463.5)"/><ellipse cx="373.4" cy="405.9" rx="4" ry="2" fill="#e6e0cf" transform="rotate(176 373.4 405.9)"/><circle cx="340.3" cy="429.5" r="16.3" fill="#ef8354"/><circle cx="314.4" cy="420.1" r="16.3" fill="#8a5a3b"/><circle cx="473.56265433877707" cy="429.169844198972" r="62.5" fill="#000" opacity="0.1"/><circle cx="473.56265433877707" cy="423.169844198972" r="62.5" fill="#f5f2e8" stroke="#e0d9c2" stroke-width="2"/><circle cx="473.56265433877707" cy="423.169844198972" r="53.75" fill="#f5f2e8"/><ellipse cx="478.1" cy="383.6" rx="4" ry="2" fill="#e6e0cf" transform="rotate(134 478.1 383.6)"/><ellipse cx="498.1" cy="391.2" rx="4" ry="2" fill="#e6e0cf" transform="rotate(142 498.1 391.2)"/><ellipse cx="466.0" cy="375.9" rx="4" ry="2" fill="#e6e0cf" transform="rotate(121 466.0 375.9)"/><ellipse cx="480.5" cy="382.3" rx="4" ry="2" fill="#e6e0cf" transform="rotate(11 480.5 382.3)"/><ellipse cx="478.4" cy="468.5" rx="4" ry="2" fill="#e6e0cf" transform="rotate(10 478.4 468.5)"/><ellipse cx="478.2" cy="378.0" rx="4" ry="2" fill="#e6e0cf" transform="rotate(27 478.2 378.0)"/><ellipse cx="479.2" cy="466.8" rx="4" ry="2" fill="#e6e0cf" transform="rotate(5 479.2 466.8)"/><ellipse cx="512.0" cy="453.8" rx="4" ry="2" fill="#e6e0cf" transform="rotate(39 512.0 453.8)"/><ellipse cx="517.2" cy="435.1" rx="4" ry="2" fill="#e6e0cf" transform="rotate(45 517.2 435.1)"/><ellipse cx="501.1" cy="386.4" rx="4" ry="2" fill="#e6e0cf" transform="rotate(63 501.1 386.4)"/><circle cx="487.3" cy="424.1" r="16.3" fill="#ef8354"/><circle cx="460.2" cy="419.9" r="16.3" fill="#8a5a3b"/><circle cx="617.5847619380802" cy="425.8328863289207" r="62.5" fill="#000" opacity="0.1"/><circle cx="617.5847619380802" cy="419.8328863289207" r="62.5" fill="#f5f2e8" stroke="#e0d9c2" stroke-width="2"/><circle cx="617.5847619380802" cy="419.8328863289207" r="53.75" fill="#f5f2e8"/><ellipse cx="621.7" cy="459.8" rx="4" ry="2" fill="#e6e0cf" transform="rotate(152 621.7 459.8)"/><ellipse cx="582.2" cy="389.0" rx="4" ry="2" fill="#e6e0cf" transform="rotate(104 582.2 389.0)"/><ellipse cx="633.8" cy="455.6" rx="4" ry="2" fill="#e6e0cf" transform="rotate(164 633.8 455.6)"/><ellipse cx="578.9" cy="400.3" rx="4" ry="2" fill="#e6e0cf" transform="rotate(126 578.9 400.3)"/><ellipse cx="650.7" cy="444.7" rx="4" ry="2" fill="#e6e0cf" transform="rotate(5 650.7 444.7)"/><ellipse cx="640.1" cy="385.3" rx="4" ry="2" fill="#e6e0cf" transform="rotate(153 640.1 385.3)"/><ellipse cx="575.3" cy="441.4" rx="4" ry="2" fill="#e6e0cf" transform="rotate(31 575.3 441.4)"/><ellipse cx="582.8" cy="402.0" rx="4" ry="2" fill="#e6e0cf" transform="rotate(107 582.8 402.0)"/><ellipse cx="637.4" cy="382.2" rx="4" ry="2" fill="#e6e0cf" transform="rotate(132 637.4 382.2)"/><ellipse cx="660.1" cy="435.7" rx="4" ry="2" fill="#e6e0cf" transform="rotate(81 660.1 435.7)"/><circle cx="631.1" cy="422.2" r="16.3" fill="#ef8354"/><circle cx="605.0" cy="414.4" r="16.3" fill="#8a5a3b"/></svg>