<svg xmlns="http://www.w3.org/2000/svg" viewBox="0 0 800 600"><defs><radialGradient id="bg-bonita" cx="50%" cy="35%" r="80%"><stop offset="0%" stop-color="#ffffff"/><stop offset="100%" stop-color="#efeff2"/></radialGradient></defs><rect width="800" height="600" fill="url(#bg-bonita)"/><circle cx="241.38081545196474" cy="209.42454630322754" r="70" fill="#000" opacity="0.1"/><circle cx="241.38081545196474" cy="203.42454630322754" r="70" fill="#f5f2e8" stroke="#e0d9c2" stroke-width="2"/><circle cx="241.38081545196474" cy="203.42454630322754" r="60.199999999999996" fill="#f5f2e8"/><ellipse cx="200.8" cy="168.3" rx="4" ry="2" fill="#e6e0cf" transform="rotate(119 200.8 168.3)"/><ellipse cx="249.3" cy="255.1" rx="4" ry="2" fill="#e6e0cf" transform="rotate(66 249.3 255.1)"/><ellipse cx="191.9" cy="196.9" rx="4" ry="2" fill="#e6e0cf" transform="rotate(84 191.9 196.9)"/><ellipse cx="188.2" cy="217.4" rx="4" ry="2" fill="#e6e0cf" transform="rotate(21 188.2 217.4)"/><ellipse cx="210.5" cy="161.8" rx="4" ry="2" fill="#e6e0cf" transform="rotate(162 210.5 161.8)"/><ellipse cx="216.2" cy="242.5" rx="4" ry="2" fill="#e6e0cf" transform="rotate(102 216.2 242.5)"/><ellipse cx="272.0" cy="157.8" rx="4" ry="2" fill="#e6e0cf" transform="rotate(3 272.0 157.8)"/><ellipse cx="277.6" cy="235.7" rx="4" ry="2" fill="#e6e0cf" transform="rotate(152 277.6 235.7)"/><ellipse cx="221.0" cy="256.3" rx="4" ry="2" fill="#e6e0cf" transform="rotate(158 221.0 256.3)"/><ellipse cx="276.0" cy="161.2" rx="4" ry="2" fill="#e6e0cf" transform="rotate(12 276.0 161.2)"/><circle cx="256.4" cy="206.8" r="18.2" fill="#8a5a3b"/><circle cx="228.3" cy="211.5" r="18.2" fill="#7fb069"/><circle cx="238.2" cy="188.3" r="18.2" fill="#f2ecd8"/><circle cx="402.65806441009045" cy="206.0236365571618" r="70" fill="#000" opacity="0.1"/><circle cx="402.65806441009045" cy="200.0236365571618" r="70" fill="#f5f2e8" stroke="#e0d9c2" stroke-width="2"/><circle cx="402.65806441009045" cy="200.0236365571618" r="60.199999999999996" fill="#f5f2e8"/><ellipse cx="408.1" cy="256.8" rx="4" ry="2" fill="#e6e0cf" transform="rotate(155 408.1 256.8)"/><ellipse cx="351.7" cy="223.9" rx="4" ry="2" fill="#e6e0cf" transform="rotate(169 351.7 223.9)"/><ellipse cx="421.6" cy="153.8" rx="4" ry="2" fill="#e6e0cf" transform="rotate(16 421.6 153.8)"/><ellipse cx="377.4" cy="149.9" rx="4" ry="2" fill="#e6e0cf" transform="rotate(170 377.4 149.9)"/><ellipse cx="348.7" cy="191.5" rx="4" ry="2" fill="#e6e0cf" transform="rotate(6 348.7 191.5)"/><ellipse cx="403.2" cy="244.0" rx="4" ry="2" fill="#e6e0cf" transform="rotate(3 403.2 244.0)"/><ellipse cx="381.9" cy="246.5" rx="4" ry="2" fill="#e6e0cf" transform="rotate(101 381.9 246.5)"/><ellipse cx="433.2" cy="166.0" rx="4" ry="2" fill="#e6e0cf" transform="rotate(118 433.2 166.0)"/><ellipse cx="444.3" cy="184.3" rx="4" ry="2" fill="#e6e0cf" transform="rotate(12 444.3 184.3)"/><ellipse cx="348.2" cy="208.1" rx="4" ry="2" fill="#e6e0cf" transform="rotate(78 348.2 208.1)"/><circle cx="418.0" cy="200.8" r="18.2" fill="#8a5a3b"/><circle cx="389.5" cy="208.0" r="18.2" fill="#7fb069"/><circle cx="399.5" cy="185.0" r="18.2" fill="#f2ecd8"/><circle cx="560.5409732460976" cy="202.7472292650491" r="70" fill="#000" opacity="0.1"/><circle cx="560.5409732460976" cy="196.7472292650491" r="70" fill="#f5f2e8" stroke="#e0d9c2" stroke-width="2"/><circle cx="560.5409732460976" cy="196.7472292650491" r="60.199999999999996" fill="#f5f2e8"/><ellipse cx="534.3" cy="237.3" rx="4" ry="2" fill="#e6e0cf" transform="rotate(69 534.3 237.3)"/><ellipse cx="607.8" cy="192.9" rx="4" ry="2" fill="#e6e0cf" transform="rotate(135 607.8 192.9)"/><ellipse cx="526.4" cy="231.3" rx="4" ry="2" fill="#e6e0cf" transform="rotate(58 526.4 231.3)"/><ellipse cx="587.0" cy="153.1" rx="4" ry="2" fill="#e6e0cf" transform="rotate(76 587.0 153.1)"/><ellipse cx="546.5" cy="246.7" rx="4" ry="2" fill="#e6e0cf" transform="rotate(117 546.5 246.7)"/><ellipse cx="591.5" cy="156.9" rx="4" ry="2" fill="#e6e0cf" transform="rotate(102 591.5 156.9)"/><ellipse cx="598.5" cy="175.2" rx="4" ry="2" fill="#e6e0cf" transform="rotate(161 598.5 175.2)"/><ellipse cx="604.7" cy="205.9" rx="4" ry="2" fill="#e6e0cf" transform="rotate(89 604.7 205.9)"/><ellipse cx="532.2" cy="237.8" rx="4" ry="2" fill="#e6e0cf" transform="rotate(25 532.2 237.8)"/><ellipse cx="551.5" cy="244.4" rx="4" ry="2" fill="#e6e0cf" transform="rotate(36 551.5 244.4)"/><circle cx="575.7" cy="199.7" r="18.2" fill="#8a5a3b"/><circle cx="549.3" cy="207.2" r="18.2" fill="#7fb069"/><circle cx="553.7" cy="183.0" r="18.2" fill="#f2ecd8"/><circle cx="236.34024135768414" cy="368.43874353170395" r="70" fill="#000" opacity="0.1"/><circle cx="236.34024135768414" cy="362.43874353170395" r="70" fill="#f5f2e8" stroke="#e0d9c2" stroke-width="2"/><circle cx="236.34024135768414" cy="362.43874353170395" r="60.199999999999996" fill="#f5f2e8"/><ellipse cx="270.0" cy="390.5" rx="4" ry="2" fill="#e6e0cf" transform="rotate(108 270.0 390.5)"/><ellipse cx="275.6" cy="334.3" rx="4" ry="2" fill="#e6e0cf" transform="rotate(101 275.6 334.3)"/><ellipse cx="277.7" cy="348.3" rx="4" ry="2" fill="#e6e0cf" transform="rotate(33 277.7 348.3)"/><ellipse cx="192.7" cy="343.4" rx="4" ry="2" fill="#e6e0cf" transform="rotate(84 192.7 343.4)"/><ellipse cx="223.2" cy="417.9" rx="4" ry="2" fill="#e6e0cf" transform="rotate(140 223.2 417.9)"/><ellipse cx="190.9" cy="372.1" rx="4" ry="2" fill="#e6e0cf" transform="rotate(63 190.9 372.1)"/><ellipse cx="204.0" cy="315.2" rx="4" ry="2" fill="#e6e0cf" transform="rotate(109 204.0 315.2)"/><ellipse cx="208.3" cy="399.5" rx="4" ry="2" fill="#e6e0cf" transform="rotate(39 208.3 399.5)"/><ellipse cx="274.8" cy="333.6" rx="4" ry="2" fill="#e6e0cf" transform="rotate(153 274.8 333.6)"/><ellipse cx="197.2" cy="381.5" rx="4" ry="2" fill="#e6e0cf" transform="rotate(97 197.2 381.5)"/><circle cx="251.7" cy="363.3" r="18.2" fill="#8a5a3b"/><circle cx="225.3" cy="373.2" r="18.2" fill="#7fb069"/><circle cx="233.3" cy="347.3" r="18.2" fill="#f2ecd8"/><circle cx="397.5346258189529" cy="367.4644122645259" r="70" fill="#000" opacity="0.1"/><circle cx="397.5346258189529" cy="361.4644122645259" r="70" fill="#f5f2e8" stroke="#e0d9c2" stroke-width="2"/><circle cx="397.5346258189529" cy="361.4644122645259" r="60.199999999999996" fill="#f5f2e8"/><ellipse cx="367.1" cy="400.8" rx="4" ry="2" fill="#e6e0cf" transform="rotate(151 367.1 400.8)"/><ellipse cx="362.2" cy="327.9" rx="4" ry="2" fill="#e6e0cf" transform="rotate(131 362.2 327.9)"/><ellipse cx="379.0" cy="415.0" rx="4" ry="2" fill="#e6e0cf" transform="rotate(39 379.0 415.0)"/><ellipse cx="409.3" cy="407.2" rx="4" ry="2" fill="#e6e0cf" transform="rotate(165 409.3 407.2)"/><ellipse cx="358.2" cy="327.5" rx="4" ry="2" fill="#e6e0cf" transform="rotate(86 358.2 327.5)"/><ellipse cx="442.9" cy="380.6" rx="4" ry="2" fill="#e6e0cf" transform="rotate(31 442.9 380.6)"/><ellipse cx="356.5" cy="337.0" rx="4" ry="2" fill="#e6e0cf" transform="rotate(38 356.5 337.0)"/><ellipse cx="403.3" cy="413.4" rx="4" ry="2" fill="#e6e0cf" transform="rotate(138 403.3 413.4)"/><ellipse cx="346.2" cy="356.3" rx="4" ry="2" fill="#e6e0cf" transform="rotate(58 346.2 356.3)"/><ellipse cx="348.3" cy="364.4" rx="4" ry="2" fill="#e6e0cf" transform="rotate(12 348.3 364.4)"/><circle cx="412.8" cy="363.6" r="18.2" fill="#8a5a3b"/><circle cx="387.7" cy="373.3" r="18.2" fill="#7fb069"/><circle cx="392.0" cy="347.1" r="18.2" fill="#f2ecd8"/><circle cx="559.8993946686387" cy="364.160034827888" r="70" fill="#000" opacity="0.1"/><circle cx="559.8993946686387" cy="358.160034827888" r="70" fill="#f5f2e8" stroke="#e0d9c2" stroke-width="2"/><circle cx="559.8993946686387" cy="358.160034827888" r="60.199999999999996" fill="#f5f2e8"/><ellipse cx="512.7" cy="372.8" rx="4" ry="2" fill="#e6e0cf" transform="rotate(76 512.7 372.8)"/><ellipse cx="572.1" cy="400.6" rx="4" ry="2" fill="#e6e0cf" transform="rotate(67 572.1 400.6)"/><ellipse cx="515.3" cy="360.9" rx="4" ry="2" fill="#e6e0cf" transform="rotate(134 515.3 360.9)"/><ellipse cx="595.3" cy="398.4" rx="4" ry="2" fill="#e6e0cf" transform="rotate(40 595.3 398.4)"/><ellipse cx="533.5" cy="309.0" rx="4" ry="2" fill="#e6e0cf" transform="rotate(16 533.5 309.0)"/><ellipse cx="578.6" cy="410.8" rx="4" ry="2" fill="#e6e0cf" transform="rotate(41 578.6 410.8)"/><ellipse cx="529.7" cy="315.0" rx="4" ry="2" fill="#e6e0cf" transform="rotate(75 529.7 315.0)"/><ellipse cx="527.8" cy="320.9" rx="4" ry="2" fill="#e6e0cf" transform="rotate(174 527.8 320.9)"/><ellipse cx="585.4" cy="402.7" rx="4" ry="2" fill="#e6e0cf" transform="rotate(83 585.4 402.7)"/><ellipse cx="607.1" cy="354.7" rx="4" ry="2" fill="#e6e0cf" transform="rotate(4 607.1 354.7)"/><circle cx="575.1" cy="360.7" r="18.2" fill="#8a5a3b"/><circle cx="547.1" cy="366.7" r="18.2" fill="#7fb069"/><circle cx="559.4" cy="342.8" r="18.2" fill="#f2ecd8"/></svg>