<svg xmlns="http://www.w3.org/2000/svg" viewBox="0 0 800 600"><defs><radialGradient id="bg-burger-s-krevetkoy" cx="50%" cy="35%" r="80%"><stop offset="0%" stop-color="#26262c"/><stop offset="100%" stop-color="#141417"/></radialGradient></defs><rect width="800" height="600" fill="url(#bg-burger-s-krevetkoy)"/><ellipse cx="400" cy="440" rx="200" ry="28" fill="#000" opacity="0.35"/><path d="M 210 290 Q 400 140 590 290 Z" fill="#e0913f"/><circle cx="340" cy="220" r="5" fill="#f7e8c8"/><circle cx="410" cy="200" r="5" fill="#f7e8c8"/><circle cx="470" cy="230" r="5" fill="#f7e8c8"/><path d="M 210 290 h 380 l -22 24 -30 -16 -30 18 -30 -18 -30 18 -30 -18 -30 18 -30 -18 -30 18 -30 -16 Z" fill="#8db052"/><rect x="225" y="316" width="350" height="26" rx="13" fill="#d94f3d"/><rect x="215" y="342" width="370" height="20" rx="10" fill="#f2c14e"/><rect x="220" y="362" width="360" height="42" rx="21" fill="#e8a380"/><rect x="215" y="406" width="370" height="34" rx="17" fill="#e0913f"/></svg>