<svg xmlns="http://www.w3.org/2000/svg" viewBox="0 0 800 600"><defs><radialGradient id="bg-cezar-tempura" cx="50%" cy="35%" r="80%"><stop offset="0%" stop-color="#26262c"/><stop offset="100%" stop-color="#141417"/></radialGradient></defs><rect width="800" height="600" fill="url(#bg-cezar-tempura)"/><circle cx="236.8267444577068" cy="201.88466829434037" r="70" fill="#000" opacity="0.35"/><circle cx="236.8267444577068" cy="195.88466829434037" r="70" fill="#d9a45b"/><circle cx="290.6" cy="231.4" r="6.8" fill="#b5854e"/><circle cx="279.5" cy="244.1" r="5.6" fill="#b5854e"/><circle cx="218.5" cy="257.6" r="3.5" fill="#b5854e"/><circle cx="235.9" cy="260.3" r="4.5" fill="#b5854e"/><circle cx="208.2" cy="253.6" r="4.3" fill="#b5854e"/><circle cx="174.4" cy="211.8" r="6.9" fill="#b5854e"/><circle cx="172.6" cy="200.3" r="5.8" fill="#b5854e"/><circle cx="197.4" cy="145.0" r="5.5" fill="#b5854e"/><circle cx="191.1" cy="150.6" r="3.2" fill="#b5854e"/><circle cx="228.7" cy="132.0" r="4.9" fill="#b5854e"/><circle cx="281.1" cy="149.1" r="4.6" fill="#b5854e"/><circle cx="263.5" cy="137.2" r="4.9" fill="#b5854e"/><circle cx="293.8" cy="165.9" r="4.4" fill="#b5854e"/><circle cx="296.7" cy="219.6" r="6.2" fill="#b5854e"/><circle cx="236.8267444577068" cy="195.88466829434037" r="50.4" fill="#f5f2e8"/><circle cx="251.4" cy="201.0" r="18.2" fill="#7fb069"/><circle cx="224.5" cy="205.1" r="18.2" fill="#f2ecd8"/><circle cx="230.3" cy="181.9" r="18.2" fill="#d9a45b"/><circle cx="399.3485597651452" cy="205.22620330750942" r="70" fill="#000" opacity="0.35"/><circle cx="399.3485597651452" cy="199.22620330750942" r="70" fill="#d9a45b"/><circle cx="462.7" cy="210.8" r="6.5" fill="#b5854e"/><circle cx="454.1" cy="233.1" r="3.6" fill="#b5854e"/><circle cx="389.3" cy="262.8" r="4.3" fill="#b5854e"/><circle cx="364.3" cy="253.3" r="4.0" fill="#b5854e"/><circle cx="348.8" cy="239.1" r="3.5" fill="#b5854e"/><circle cx="340.8" cy="226.2" r="6.5" fill="#b5854e"/><circle cx="338.4" cy="178.3" r="5.8" fill="#b5854e"/><circle cx="336.3" cy="186.0" r="6.6" fill="#b5854e"/><circle cx="354.6" cy="152.9" r="6.9" fill="#b5854e"/><circle cx="414.7" cy="136.7" r="6.5" fill="#b5854e"/><circle cx="406.0" cy="135.2" r="3.8" fill="#b5854e"/><circle cx="443.3" cy="152.2" r="4.1" fill="#b5854e"/><circle cx="463.7" cy="200.6" r="4.3" fill="#b5854e"/><circle cx="462.8" cy="188.4" r="4.9" fill="#b5854e"/><circle cx="399.3485597651452" cy="199.22620330750942" r="50.4" fill="#f5f2e8"/><circle cx="414.5" cy="202.1" r="18.2" fill="#7fb069"/><circle cx="387.8" cy="209.4" r="18.2" fill="#f2ecd8"/><circle cx="397.8" cy="183.9" r="18.2" fill="#d9a45b"/><circle cx="558.9484674166888" cy="207.98651525564492" r="70" fill="#000" opacity="0.35"/><circle cx="558.9484674166888" cy="201.98651525564492" r="70" fill="#d9a45b"/><circle cx="623.3" cy="205.2" r="6.8" fill="#b5854e"/><circle cx="576.4" cy="264.0" r="4.5" fill="#b5854e"/><circle cx="575.0" cy="264.3" r="5.0" fill="#b5854e"/><circle cx="567.5" cy="265.8" r="4.7" fill="#b5854e"/><circle cx="529.8" cy="259.4" r="3.8" fill="#b5854e"/><circle cx="512.8" cy="246.9" r="6.4" fill="#b5854e"/><circle cx="494.5" cy="201.9" r="6.1" fill="#b5854e"/><circle cx="496.9" cy="184.8" r="5.6" fill="#b5854e"/><circle cx="515.1" cy="154.8" r="4.3" fill="#b5854e"/><circle cx="551.5" cy="138.0" r="5.8" fill="#b5854e"/><circle cx="592.0" cy="146.7" r="4.3" fill="#b5854e"/><circle cx="573.7" cy="139.3" r="5.7" fill="#b5854e"/><circle cx="623.1" cy="196.7" r="4.7" fill="#b5854e"/><circle cx="622.8" cy="210.3" r="5.9" fill="#b5854e"/><circle cx="558.9484674166888" cy="201.98651525564492" r="50.4" fill="#f5f2e8"/><circle cx="574.2" cy="204.4" r="18.2" fill="#7fb069"/><circle cx="547.2" cy="212.0" r="18.2" fill="#f2ecd8"/><circle cx="556.0" cy="186.9" r="18.2" fill="#d9a45b"/><circle cx="235.9220046363771" cy="369.3632283322513" r="70" fill="#000" opacity="0.35"/><circle cx="235.9220046363771" cy="363.3632283322513" r="70" fill="#d9a45b"/><circle cx="282.4" cy="408.0" r="4.4" fill="#b5854e"/><circle cx="271.8" cy="416.8" r="4.7" fill="#b5854e"/><circle cx="268.1" cy="419.1" r="3.4" fill="#b5854e"/><circle cx="203.6" cy="419.0" r="5.3" fill="#b5854e"/><circle cx="213.3" cy="423.7" r="4.8" fill="#b5854e"/><circle cx="177.1" cy="389.7" r="5.5" fill="#b5854e"/><circle cx="171.6" cy="367.0" r="3.2" fill="#b5854e"/><circle cx="195.5" cy="313.2" r="3.5" fill="#b5854e"/><circle cx="180.3" cy="330.9" r="5.1" fill="#b5854e"/><circle cx="223.5" cy="300.2" r="7.0" fill="#b5854e"/><circle cx="249.1" cy="300.3" r="5.8" fill="#b5854e"/><circle cx="260.0" cy="303.6" r="4.1" fill="#b5854e"/><circle cx="300.3" cy="364.6" r="6.9" fill="#b5854e"/><circle cx="295.3" cy="388.3" r="5.1" fill="#b5854e"/><circle cx="235.9220046363771" cy="363.3632283322513" r="50.4" fill="#f5f2e8"/><circle cx="251.3" cy="364.4" r="18.2" fill="#7fb069"/><circle cx="223.9" cy="373.0" r="18.2" fill="#f2ecd8"/><circle cx="231.4" cy="348.6" r="18.2" fill="#d9a45b"/><circle cx="399.5391504187137" cy="368.18614855222404" r="70" fill="#000" opacity="0.35"/><circle cx="399.5391504187137" cy="362.18614855222404" r="70" fill="#d9a45b"/><circle cx="441.8" cy="410.8" r="3.9" fill="#b5854e"/><circle cx="456.9" cy="391.6" r="5.0" fill="#b5854e"/><circle cx="402.1" cy="426.5" r="3.6" fill="#b5854e"/><circle cx="392.9" cy="426.2" r="5.9" fill="#b5854e"/><circle cx="342.4" cy="391.8" r="3.0" fill="#b5854e"/><circle cx="352.1" cy="405.8" r="6.4" fill="#b5854e"/><circle cx="337.0" cy="346.7" r="5.2" fill="#b5854e"/><circle cx="342.9" cy="331.5" r="5.6" fill="#b5854e"/><circle cx="352.8" cy="317.8" r="4.3" fill="#b5854e"/><circle cx="376.8" cy="301.9" r="4.6" fill="#b5854e"/><circle cx="402.8" cy="297.9" r="5.0" fill="#b5854e"/><circle cx="421.2" cy="301.5" r="3.5" fill="#b5854e"/><circle cx="463.1" cy="351.7" r="3.8" fill="#b5854e"/><circle cx="459.5" cy="338.7" r="4.5" fill="#b5854e"/><circle cx="399.5391504187137" cy="362.18614855222404" r="50.4" fill="#f5f2e8"/><circle cx="414.9" cy="363.6" r="18.2" fill="#7fb069"/><circle cx="389.5" cy="373.9" r="18.2" fill="#f2ecd8"/><circle cx="395.0" cy="347.5" r="18.2" fill="#d9a45b"/><circle cx="561.1145580355078" cy="362.64405753463507" r="70" fill="#000" opacity="0.35"/><circle cx="561.1145580355078" cy="356.64405753463507" r="70" fill="#d9a45b"/><circle cx="611.7" cy="396.5" r="3.6" fill="#b5854e"/><circle cx="606.7" cy="402.2" r="5.9" fill="#b5854e"/><circle cx="546.8" cy="419.4" r="3.2" fill="#b5854e"/><circle cx="523.9" cy="409.2" r="3.9" fill="#b5854e"/><circle cx="502.3" cy="382.9" r="4.9" fill="#b5854e"/><circle cx="499.1" cy="373.9" r="6.3" fill="#b5854e"/><circle cx="497.0" cy="362.9" r="5.8" fill="#b5854e"/><circle cx="515.7" cy="311.0" r="3.5" fill="#b5854e"/><circle cx="508.5" cy="319.6" r="6.3" fill="#b5854e"/><circle cx="545.7" cy="294.1" r="4.0" fill="#b5854e"/><circle cx="552.9" cy="292.8" r="3.9" fill="#b5854e"/><circle cx="613.8" cy="319.6" r="4.0" fill="#b5854e"/><circle cx="625.3" cy="361.5" r="3.7" fill="#b5854e"/><circle cx="623.6" cy="341.0" r="3.0" fill="#b5854e"/><circle cx="561.1145580355078" cy="356.64405753463507" r="50.4" fill="#f5f2e8"/><circle cx="576.4" cy="358.5" r="18.2" fill="#7fb069"/><circle cx="551.7" cy="368.8" r="18.2" fill="#f2ecd8"/><circle cx="556.6" cy="341.9" r="18.2" fill="#d9a45b"/></svg>