<svg xmlns="http://www.w3.org/2000/svg" viewBox="0 0 800 600"><defs><radialGradient id="bg-cunami-tempura" cx="50%" cy="35%" r="80%"><stop offset="0%" stop-color="#ffffff"/><stop offset="100%" stop-color="#efeff2"/></radialGradient></defs><rect width="800" height="600" fill="url(#bg-cunami-tempura)"/><circle cx="235.98927701823413" cy="202.9895014744252" r="70" fill="#000" opacity="0.1"/><circle cx="235.98927701823413" cy="196.9895014744252" r="70" fill="#d9a45b" stroke="#c08c4a" stroke-width="2"/><circle cx="291.2" cy="230.1" r="6.6" fill="#b5854e"/><circle cx="255.5" cy="258.4" r="3.6" fill="#b5854e"/><circle cx="254.2" cy="258.8" r="5.8" fill="#b5854e"/><circle cx="207.5" cy="254.7" r="4.5" fill="#b5854e"/><circle cx="202.0" cy="251.7" r="6.1" fill="#b5854e"/><circle cx="188.9" cy="240.9" r="5.4" fill="#b5854e"/><circle cx="173.5" cy="212.7" r="3.1" fill="#b5854e"/><circle cx="193.7" cy="148.4" r="6.9" fill="#b5854e"/><circle cx="227.5" cy="133.2" r="5.2" fill="#b5854e"/><circle cx="247.8" cy="133.7" r="6.5" fill="#b5854e"/><circle cx="265.5" cy="139.8" r="5.8" fill="#b5854e"/><circle cx="256.4" cy="135.9" r="3.5" fill="#b5854e"/><circle cx="300.4" cy="198.8" r="4.1" fill="#b5854e"/><circle cx="299.0" cy="210.2" r="6.8" fill="#b5854e"/><circle cx="235.98927701823413" cy="196.9895014744252" r="50.4" fill="#f5f2e8"/><circle cx="249.6" cy="204.2" r="18.2" fill="#ef8354"/><circle cx="223.4" cy="205.9" r="18.2" fill="#7fb069"/><circle cx="235.0" cy="181.6" r="18.2" fill="#f2ecd8"/><circle cx="400.5794393438846" cy="207.04651666246355" r="70" fill="#000" opacity="0.1"/><circle cx="400.5794393438846" cy="201.04651666246355" r="70" fill="#d9a45b" stroke="#c08c4a" stroke-width="2"/><circle cx="464.5" cy="209.2" r="5.5" fill="#b5854e"/><circle cx="441.3" cy="250.9" r="4.4" fill="#b5854e"/><circle cx="400.1" cy="265.4" r="5.6" fill="#b5854e"/><circle cx="361.8" cy="252.5" r="4.1" fill="#b5854e"/><circle cx="357.5" cy="248.9" r="5.3" fill="#b5854e"/><circle cx="350.1" cy="241.0" r="3.6" fill="#b5854e"/><circle cx="337.9" cy="186.4" r="4.6" fill="#b5854e"/><circle cx="343.0" cy="172.3" r="6.1" fill="#b5854e"/><circle cx="355.4" cy="155.2" r="3.3" fill="#b5854e"/><circle cx="412.0" cy="137.7" r="6.6" fill="#b5854e"/><circle cx="430.3" cy="143.9" r="4.4" fill="#b5854e"/><circle cx="435.6" cy="147.0" r="6.2" fill="#b5854e"/><circle cx="464.9" cy="197.2" r="5.3" fill="#b5854e"/><circle cx="459.9" cy="226.1" r="3.8" fill="#b5854e"/><circle cx="400.5794393438846" cy="201.04651666246355" r="50.4" fill="#f5f2e8"/><circle cx="415.6" cy="204.5" r="18.2" fill="#ef8354"/><circle cx="388.5" cy="210.6" r="18.2" fill="#7fb069"/><circle cx="397.3" cy="186.0" r="18.2" fill="#f2ecd8"/><circle cx="563.8726943414658" cy="203.7404508255422" r="70" fill="#000" opacity="0.1"/><circle cx="563.8726943414658" cy="197.7404508255422" r="70" fill="#d9a45b" stroke="#c08c4a" stroke-width="2"/><circle cx="615.8" cy="235.8" r="6.3" fill="#b5854e"/><circle cx="580.1" cy="260.1" r="3.9" fill="#b5854e"/><circle cx="554.6" cy="261.5" r="4.1" fill="#b5854e"/><circle cx="539.0" cy="257.2" r="3.7" fill="#b5854e"/><circle cx="510.2" cy="233.4" r="5.5" fill="#b5854e"/><circle cx="507.2" cy="228.3" r="5.5" fill="#b5854e"/><circle cx="499.7" cy="191.8" r="6.3" fill="#b5854e"/><circle cx="520.9" cy="149.8" r="5.8" fill="#b5854e"/><circle cx="506.7" cy="168.1" r="4.0" fill="#b5854e"/><circle cx="565.4" cy="133.4" r="4.3" fill="#b5854e"/><circle cx="598.7" cy="143.6" r="6.4" fill="#b5854e"/><circle cx="584.2" cy="136.6" r="4.8" fill="#b5854e"/><circle cx="606.0" cy="149.0" r="3.5" fill="#b5854e"/><circle cx="623.2" cy="222.7" r="6.7" fill="#b5854e"/><circle cx="563.8726943414658" cy="197.7404508255422" r="50.4" fill="#f5f2e8"/><circle cx="578.2" cy="203.3" r="18.2" fill="#ef8354"/><circle cx="551.0" cy="206.2" r="18.2" fill="#7fb069"/><circle cx="559.0" cy="183.1" r="18.2" fill="#f2ecd8"/><circle cx="238.1442312002182" cy="368.01516350358725" r="70" fill="#000" opacity="0.1"/><circle cx="238.1442312002182" cy="362.01516350358725" r="70" fill="#d9a45b" stroke="#c08c4a" stroke-width="2"/><circle cx="298.9" cy="383.4" r="3.8" fill="#b5854e"/><circle cx="275.2" cy="414.7" r="5.9" fill="#b5854e"/><circle cx="278.3" cy="412.4" r="6.5" fill="#b5854e"/><circle cx="217.0" cy="422.8" r="5.9" fill="#b5854e"/><circle cx="179.5" cy="388.7" r="5.7" fill="#b5854e"/><circle cx="174.7" cy="372.8" r="6.1" fill="#b5854e"/><circle cx="174.2" cy="369.8" r="3.4" fill="#b5854e"/><circle cx="179.6" cy="335.2" r="6.7" fill="#b5854e"/><circle cx="211.7" cy="303.3" r="6.9" fill="#b5854e"/><circle cx="232.0" cy="297.9" r="4.3" fill="#b5854e"/><circle cx="242.8" cy="297.8" r="6.7" fill="#b5854e"/><circle cx="291.9" cy="326.5" r="5.0" fill="#b5854e"/><circle cx="279.8" cy="312.9" r="6.4" fill="#b5854e"/><circle cx="294.0" cy="394.1" r="4.4" fill="#b5854e"/><circle cx="238.1442312002182" cy="362.01516350358725" r="50.4" fill="#f5f2e8"/><circle cx="252.9" cy="366.4" r="18.2" fill="#ef8354"/><circle cx="226.0" cy="371.4" r="18.2" fill="#7fb069"/><circle cx="236.7" cy="346.7" r="18.2" fill="#f2ecd8"/><circle cx="400.90497167780995" cy="365.0356324519962" r="70" fill="#000" opacity="0.1"/><circle cx="400.90497167780995" cy="359.0356324519962" r="70" fill="#d9a45b" stroke="#c08c4a" stroke-width="2"/><circle cx="463.2" cy="375.5" r="5.7" fill="#b5854e"/><circle cx="430.3" cy="416.3" r="5.3" fill="#b5854e"/><circle cx="394.0" cy="423.1" r="6.5" fill="#b5854e"/><circle cx="378.4" cy="419.4" r="6.2" fill="#b5854e"/><circle cx="345.9" cy="392.5" r="5.9" fill="#b5854e"/><circle cx="354.7" cy="403.9" r="6.0" fill="#b5854e"/><circle cx="338.5" cy="374.8" r="3.3" fill="#b5854e"/><circle cx="339.8" cy="338.7" r="3.6" fill="#b5854e"/><circle cx="352.8" cy="316.2" r="6.7" fill="#b5854e"/><circle cx="378.8" cy="298.6" r="6.5" fill="#b5854e"/><circle cx="432.1" cy="302.7" r="3.5" fill="#b5854e"/><circle cx="429.8" cy="301.5" r="4.4" fill="#b5854e"/><circle cx="465.3" cy="361.5" r="3.6" fill="#b5854e"/><circle cx="460.8" cy="335.3" r="3.9" fill="#b5854e"/><circle cx="400.90497167780995" cy="359.0356324519962" r="50.4" fill="#f5f2e8"/><circle cx="415.1" cy="364.9" r="18.2" fill="#ef8354"/><circle cx="391.1" cy="370.9" r="18.2" fill="#7fb069"/><circle cx="394.0" cy="345.3" r="18.2" fill="#f2ecd8"/><circle cx="561.9657978266478" cy="369.00980406813323" r="70" fill="#000" opacity="0.1"/><circle cx="561.9657978266478" cy="363.00980406813323" r="70" fill="#d9a45b" stroke="#c08c4a" stroke-width="2"/><circle cx="623.0" cy="383.4" r="5.6" fill="#b5854e"/><circle cx="615.6" cy="398.6" r="4.0" fill="#b5854e"/><circle cx="583.6" cy="423.7" r="4.1" fill="#b5854e"/><circle cx="518.2" cy="410.3" r="4.5" fill="#b5854e"/><circle cx="528.5" cy="418.0" r="3.9" fill="#b5854e"/><circle cx="501.8" cy="385.9" r="5.7" fill="#b5854e"/><circle cx="506.3" cy="330.6" r="5.5" fill="#b5854e"/><circle cx="501.5" cy="340.7" r="6.2" fill="#b5854e"/><circle cx="547.3" cy="300.3" r="5.9" fill="#b5854e"/><circle cx="556.8" cy="298.8" r="3.7" fill="#b5854e"/><circle cx="567.3" cy="298.8" r="6.7" fill="#b5854e"/><circle cx="590.1" cy="305.1" r="5.4" fill="#b5854e"/><circle cx="624.5" cy="347.6" r="3.8" fill="#b5854e"/><circle cx="624.1" cy="345.9" r="4.0" fill="#b5854e"/><circle cx="561.9657978266478" cy="363.00980406813323" r="50.4" fill="#f5f2e8"/><circle cx="577.3" cy="364.5" r="18.2" fill="#ef8354"/><circle cx="550.5" cy="373.3" r="18.2" fill="#7fb069"/><circle cx="561.4" cy="347.6" r="18.2" fill="#f2ecd8"/></svg>