<svg xmlns="http://www.w3.org/2000/svg" viewBox="0 0 800 600"><defs><radialGradient id="bg-dinamit-set" cx="50%" cy="35%" r="80%"><stop offset="0%" stop-color="#ffffff"/><stop offset="100%" stop-color="#efeff2"/></radialGradient></defs><rect width="800" height="600" fill="url(#bg-dinamit-set)"/><circle cx="187.2129400651902" cy="140.64542218483984" r="62.5" fill="#000" opacity="0.1"/><circle cx="187.2129400651902" cy="134.64542218483984" r="62.5" fill="#f5f2e8" stroke="#e0d9c2" stroke-width="2"/><circle cx="187.2129400651902" cy="134.64542218483984" r="53.75" fill="#f5f2e8"/><ellipse cx="179.0" cy="173.2" rx="4" ry="2" fill="#e6e0cf" transform="rotate(159 179.0 173.2)"/><ellipse cx="219.1" cy="170.7" rx="4" ry="2" fill="#e6e0cf" transform="rotate(108 219.1 170.7)"/><ellipse cx="151.0" cy="162.4" rx="4" ry="2" fill="#e6e0cf" transform="rotate(70 151.0 162.4)"/><ellipse cx="144.5" cy="116.4" rx="4" ry="2" fill="#e6e0cf" transform="rotate(68 144.5 116.4)"/><ellipse cx="138.4" cy="119.6" rx="4" ry="2" fill="#e6e0cf" transform="rotate(46 138.4 119.6)"/><ellipse cx="164.7" cy="178.6" rx="4" ry="2" fill="#e6e0cf" transform="rotate(85 164.7 178.6)"/><ellipse cx="178.7" cy="87.4" rx="4" ry="2" fill="#e6e0cf" transform="rotate(46 178.7 87.4)"/><ellipse cx="184.3" cy="181.0" rx="4" ry="2" fill="#e6e0cf" transform="rotate(16 184.3 181.0)"/><ellipse cx="175.0" cy="93.1" rx="4" ry="2" fill="#e6e0cf" transform="rotate(164 175.0 93.1)"/><ellipse cx="230.2" cy="162.1" rx="4" ry="2" fill="#e6e0cf" transform="rotate(49 230.2 162.1)"/><circle cx="200.4" cy="138.6" r="16.3" fill="#ef8354"/><circle cx="174.0" cy="130.8" r="16.3" fill="#f2ecd8"/><circle cx="324.1502179633826" cy="144.01963128894567" r="62.5" fill="#000" opacity="0.1"/><circle cx="324.1502179633826" cy="138.01963128894567" r="62.5" fill="#f5f2e8" stroke="#e0d9c2" stroke-width="2"/><circle cx="324.1502179633826" cy="138.01963128894567" r="53.75" fill="#f5f2e8"/><ellipse cx="284.8" cy="158.4" rx="4" ry="2" fill="#e6e0cf" transform="rotate(169 284.8 158.4)"/><ellipse cx="282.6" cy="131.3" rx="4" ry="2" fill="#e6e0cf" transform="rotate(146 282.6 131.3)"/><ellipse cx="360.7" cy="105.9" rx="4" ry="2" fill="#e6e0cf" transform="rotate(75 360.7 105.9)"/><ellipse cx="359.7" cy="162.8" rx="4" ry="2" fill="#e6e0cf" transform="rotate(125 359.7 162.8)"/><ellipse cx="359.8" cy="167.2" rx="4" ry="2" fill="#e6e0cf" transform="rotate(42 359.8 167.2)"/><ellipse cx="366.9" cy="156.4" rx="4" ry="2" fill="#e6e0cf" transform="rotate(160 366.9 156.4)"/><ellipse cx="345.9" cy="178.6" rx="4" ry="2" fill="#e6e0cf" transform="rotate(39 345.9 178.6)"/><ellipse cx="361.0" cy="159.9" rx="4" ry="2" fill="#e6e0cf" transform="rotate(23 361.0 159.9)"/><ellipse cx="370.0" cy="154.0" rx="4" ry="2" fill="#e6e0cf" transform="rotate(119 370.0 154.0)"/><ellipse cx="311.6" cy="184.3" rx="4" ry="2" fill="#e6e0cf" transform="rotate(113 311.6 184.3)"/><circle cx="336.4" cy="144.3" r="16.3" fill="#ef8354"/><circle cx="311.1" cy="133.5" r="16.3" fill="#f2ecd8"/><circle cx="474.4135440476239" cy="142.57171731628478" r="62.5" fill="#000" opacity="0.1"/><circle cx="474.4135440476239" cy="136.57171731628478" r="62.5" fill="#f5f2e8" stroke="#e0d9c2" stroke-width="2"/><circle cx="474.4135440476239" cy="136.57171731628478" r="53.75" fill="#f5f2e8"/><ellipse cx="513.0" cy="105.3" rx="4" ry="2" fill="#e6e0cf" transform="rotate(105 513.0 105.3)"/><ellipse cx="515.4" cy="164.2" rx="4" ry="2" fill="#e6e0cf" transform="rotate(2 515.4 164.2)"/><ellipse cx="454.5" cy="102.7" rx="4" ry="2" fill="#e6e0cf" transform="rotate(22 454.5 102.7)"/><ellipse cx="519.5" cy="115.2" rx="4" ry="2" fill="#e6e0cf" transform="rotate(177 519.5 115.2)"/><ellipse cx="487.2" cy="91.3" rx="4" ry="2" fill="#e6e0cf" transform="rotate(156 487.2 91.3)"/><ellipse cx="452.2" cy="181.3" rx="4" ry="2" fill="#e6e0cf" transform="rotate(83 452.2 181.3)"/><ellipse cx="513.9" cy="160.5" rx="4" ry="2" fill="#e6e0cf" transform="rotate(75 513.9 160.5)"/><ellipse cx="448.5" cy="94.0" rx="4" ry="2" fill="#e6e0cf" transform="rotate(51 448.5 94.0)"/><ellipse cx="436.0" cy="163.6" rx="4" ry="2" fill="#e6e0cf" transform="rotate(135 436.0 163.6)"/><ellipse cx="493.0" cy="177.5" rx="4" ry="2" fill="#e6e0cf" transform="rotate(49 493.0 177.5)"/><circle cx="487.4" cy="141.2" r="16.3" fill="#ef8354"/><circle cx="460.7" cy="135.4" r="16.3" fill="#f2ecd8"/><circle cx="617.2180131729692" cy="141.03108236938715" r="62.5" fill="#000" opacity="0.1"/><circle cx="617.2180131729692" cy="135.03108236938715" r="62.5" fill="#f5f2e8" stroke="#e0d9c2" stroke-width="2"/><circle cx="617.2180131729692" cy="135.03108236938715" r="53.75" fill="#f5f2e8"/><ellipse cx="630.9" cy="91.4" rx="4" ry="2" fill="#e6e0cf" transform="rotate(73 630.9 91.4)"/><ellipse cx="628.3" cy="172.7" rx="4" ry="2" fill="#e6e0cf" transform="rotate(69 628.3 172.7)"/><ellipse cx="630.0" cy="184.3" rx="4" ry="2" fill="#e6e0cf" transform="rotate(105 630.0 184.3)"/><ellipse cx="589.7" cy="102.4" rx="4" ry="2" fill="#e6e0cf" transform="rotate(6 589.7 102.4)"/><ellipse cx="658.7" cy="161.3" rx="4" ry="2" fill="#e6e0cf" transform="rotate(93 658.7 161.3)"/><ellipse cx="624.2" cy="176.1" rx="4" ry="2" fill="#e6e0cf" transform="rotate(166 624.2 176.1)"/><ellipse cx="602.2" cy="93.4" rx="4" ry="2" fill="#e6e0cf" transform="rotate(106 602.2 93.4)"/><ellipse cx="567.5" cy="142.5" rx="4" ry="2" fill="#e6e0cf" transform="rotate(10 567.5 142.5)"/><ellipse cx="621.0" cy="174.7" rx="4" ry="2" fill="#e6e0cf" transform="rotate(51 621.0 174.7)"/><ellipse cx="590.8" cy="172.4" rx="4" ry="2" fill="#e6e0cf" transform="rotate(157 590.8 172.4)"/><circle cx="630.7" cy="137.6" r="16.3" fill="#ef8354"/><circle cx="603.6" cy="133.0" r="16.3" fill="#f2ecd8"/><circle cx="181.43138785660267" cy="289.6227012015879" r="62.5" fill="#000" opacity="0.1"/><circle cx="181.43138785660267" cy="283.6227012015879" r="62.5" fill="#f5f2e8" stroke="#e0d9c2" stroke-width="2"/><circle cx="181.43138785660267" cy="283.6227012015879" r="53.75" fill="#f5f2e8"/><ellipse cx="211.5" cy="308.4" rx="4" ry="2" fill="#e6e0cf" transform="rotate(96 211.5 308.4)"/><ellipse cx="179.1" cy="324.3" rx="4" ry="2" fill="#e6e0cf" transform="rotate(123 179.1 324.3)"/><ellipse cx="222.9" cy="268.9" rx="4" ry="2" fill="#e6e0cf" transform="rotate(16 222.9 268.9)"/><ellipse cx="161.6" cy="239.2" rx="4" ry="2" fill="#e6e0cf" transform="rotate(26 161.6 239.2)"/><ellipse cx="213.2" cy="259.3" rx="4" ry="2" fill="#e6e0cf" transform="rotate(106 213.2 259.3)"/><ellipse cx="220.6" cy="300.5" rx="4" ry="2" fill="#e6e0cf" transform="rotate(59 220.6 300.5)"/><ellipse cx="231.1" cy="283.1" rx="4" ry="2" fill="#e6e0cf" transform="rotate(77 231.1 283.1)"/><ellipse cx="142.5" cy="313.8" rx="4" ry="2" fill="#e6e0cf" transform="rotate(93 142.5 313.8)"/><ellipse cx="167.7" cy="328.1" rx="4" ry="2" fill="#e6e0cf" transform="rotate(115 167.7 328.1)"/><ellipse cx="138.4" cy="260.3" rx="4" ry="2" fill="#e6e0cf" transform="rotate(105 138.4 260.3)"/><circle cx="194.9" cy="286.6" r="16.3" fill="#ef8354"/><circle cx="168.2" cy="279.9" r="16.3" fill="#f2ecd8"/><circle cx="326.49408921413124" cy="287.14363361150026" r="62.5" fill="#000" opacity="0.1"/><circle cx="326.49408921413124" cy="281.14363361150026" r="62.5" fill="#f5f2e8" stroke="#e0d9c2" stroke-width="2"/><circle cx="326.49408921413124" cy="281.14363361150026" r="53.75" fill="#f5f2e8"/><ellipse cx="362.9" cy="259.8" rx="4" ry="2" fill="#e6e0cf" transform="rotate(10 362.9 259.8)"/><ellipse cx="281.8" cy="303.8" rx="4" ry="2" fill="#e6e0cf" transform="rotate(22 281.8 303.8)"/><ellipse cx="346.3" cy="314.9" rx="4" ry="2" fill="#e6e0cf" transform="rotate(71 346.3 314.9)"/><ellipse cx="319.7" cy="321.7" rx="4" ry="2" fill="#e6e0cf" transform="rotate(113 319.7 321.7)"/><ellipse cx="323.2" cy="237.4" rx="4" ry="2" fill="#e6e0cf" transform="rotate(132 323.2 237.4)"/><ellipse cx="329.0" cy="236.1" rx="4" ry="2" fill="#e6e0cf" transform="rotate(98 329.0 236.1)"/><ellipse cx="282.3" cy="287.9" rx="4" ry="2" fill="#e6e0cf" transform="rotate(141 282.3 287.9)"/><ellipse cx="350.1" cy="241.0" rx="4" ry="2" fill="#e6e0cf" transform="rotate(73 350.1 241.0)"/><ellipse cx="325.9" cy="325.7" rx="4" ry="2" fill="#e6e0cf" transform="rotate(144 325.9 325.7)"/><ellipse cx="327.0" cy="238.5" rx="4" ry="2" fill="#e6e0cf" transform="rotate(170 327.0 238.5)"/><circle cx="340.1" cy="283.1" r="16.3" fill="#ef8354"/><circle cx="313.4" cy="277.1" r="16.3" fill="#f2ecd8"/><circle cx="472.54275172017515" cy="284.9234534781426" r="62.5" fill="#000" opacity="0.1"/><circle cx="472.54275172017515" cy="278.9234534781426" r="62.5" fill="#f5f2e8" stroke="#e0d9c2" stroke-width="2"/><circle cx="472.54275172017515" cy="278.9234534781426" r="53.75" fill="#f5f2e8"/><ellipse cx="463.2" cy="327.1" rx="4" ry="2" fill="#e6e0cf" transform="rotate(169 463.2 327.1)"/><ellipse cx="489.6" cy="243.9" rx="4" ry="2" fill="#e6e0cf" transform="rotate(30 489.6 243.9)"/><ellipse cx="519.8" cy="284.2" rx="4" ry="2" fill="#e6e0cf" transform="rotate(61 519.8 284.2)"/><ellipse cx="462.4" cy="325.4" rx="4" ry="2" fill="#e6e0cf" transform="rotate(143 462.4 325.4)"/><ellipse cx="503.6" cy="309.5" rx="4" ry="2" fill="#e6e0cf" transform="rotate(38 503.6 309.5)"/><ellipse cx="464.2" cy="319.5" rx="4" ry="2" fill="#e6e0cf" transform="rotate(175 464.2 319.5)"/><ellipse cx="510.6" cy="294.4" rx="4" ry="2" fill="#e6e0cf" transform="rotate(26 510.6 294.4)"/><ellipse cx="423.6" cy="289.9" rx="4" ry="2" fill="#e6e0cf" transform="rotate(164 423.6 289.9)"/><ellipse cx="423.1" cy="279.6" rx="4" ry="2" fill="#e6e0cf" transform="rotate(176 423.1 279.6)"/><ellipse cx="447.6" cy="246.0" rx="4" ry="2" fill="#e6e0cf" transform="rotate(69 447.6 246.0)"/><circle cx="486.1" cy="281.1" r="16.3" fill="#ef8354"/><circle cx="460.4" cy="272.5" r="16.3" fill="#f2ecd8"/><circle cx="613.082158351317" cy="286.9734177850187" r="62.5" fill="#000" opacity="0.1"/><circle cx="613.082158351317" cy="280.9734177850187" r="62.5" fill="#f5f2e8" stroke="#e0d9c2" stroke-width="2"/><circle cx="613.082158351317" cy="280.9734177850187" r="53.75" fill="#f5f2e8"/><ellipse cx="625.6" cy="324.6" rx="4" ry="2" fill="#e6e0cf" transform="rotate(17 625.6 324.6)"/><ellipse cx="654.0" cy="254.7" rx="4" ry="2" fill="#e6e0cf" transform="rotate(61 654.0 254.7)"/><ellipse cx="626.5" cy="242.6" rx="4" ry="2" fill="#e6e0cf" transform="rotate(122 626.5 242.6)"/><ellipse cx="647.4" cy="253.0" rx="4" ry="2" fill="#e6e0cf" transform="rotate(108 647.4 253.0)"/><ellipse cx="663.0" cy="291.2" rx="4" ry="2" fill="#e6e0cf" transform="rotate(6 663.0 291.2)"/><ellipse cx="654.3" cy="277.9" rx="4" ry="2" fill="#e6e0cf" transform="rotate(142 654.3 277.9)"/><ellipse cx="589.9" cy="235.8" rx="4" ry="2" fill="#e6e0cf" transform="rotate(148 589.9 235.8)"/><ellipse cx="607.8" cy="324.4" rx="4" ry="2" fill="#e6e0cf" transform="rotate(5 607.8 324.4)"/><ellipse cx="625.8" cy="328.2" rx="4" ry="2" fill="#e6e0cf" transform="rotate(59 625.8 328.2)"/><ellipse cx="566.3" cy="301.0" rx="4" ry="2" fill="#e6e0cf" transform="rotate(166 566.3 301.0)"/><circle cx="626.2" cy="285.0" r="16.3" fill="#ef8354"/><circle cx="599.3" cy="280.6" r="16.3" fill="#f2ecd8"/><circle cx="186.79583934508264" cy="429.245915396139" r="62.5" fill="#000" opacity="0.1"/><circle cx="186.79583934508264" cy="423.245915396139" r="62.5" fill="#f5f2e8" stroke="#e0d9c2" stroke-width="2"/><circle cx="186.79583934508264" cy="423.245915396139" r="53.75" fill="#f5f2e8"/><ellipse cx="202.4" cy="376.8" rx="4" ry="2" fill="#e6e0cf" transform="rotate(40 202.4 376.8)"/><ellipse cx="204.1" cy="387.9" rx="4" ry="2" fill="#e6e0cf" transform="rotate(170 204.1 387.9)"/><ellipse cx="188.1" cy="463.2" rx="4" ry="2" fill="#e6e0cf" transform="rotate(5 188.1 463.2)"/><ellipse cx="195.0" cy="380.8" rx="4" ry="2" fill="#e6e0cf" transform="rotate(69 195.0 380.8)"/><ellipse cx="214.6" cy="388.5" rx="4" ry="2" fill="#e6e0cf" transform="rotate(144 214.6 388.5)"/><ellipse cx="137.0" cy="421.3" rx="4" ry="2" fill="#e6e0cf" transform="rotate(152 137.0 421.3)"/><ellipse cx="166.5" cy="378.2" rx="4" ry="2" fill="#e6e0cf" transform="rotate(11 166.5 378.2)"/><ellipse cx="144.0" cy="416.4" rx="4" ry="2" fill="#e6e0cf" transform="rotate(41 144.0 416.4)"/><ellipse cx="186.2" cy="470.5" rx="4" ry="2" fill="#e6e0cf" transform="rotate(56 186.2 470.5)"/><ellipse cx="204.6" cy="462.6" rx="4" ry="2" fill="#e6e0cf" transform="rotate(127 204.6 462.6)"/><circle cx="200.5" cy="424.4" r="16.3" fill="#ef8354"/><circle cx="174.7" cy="416.7" r="16.3" fill="#f2ecd8"/><circle cx="328.7486246638" cy="429.508596483618" r="62.5" fill="#000" opacity="0.1"/><circle cx="328.7486246638" cy="423.508596483618" r="62.5" fill="#f5f2e8" stroke="#e0d9c2" stroke-width="2"/><circle cx="328.7486246638" cy="423.508596483618" r="53.75" fill="#f5f2e8"/><ellipse cx="348.4" cy="465.5" rx="4" ry="2" fill="#e6e0cf" transform="rotate(113 348.4 465.5)"/><ellipse cx="359.6" cy="395.8" rx="4" ry="2" fill="#e6e0cf" transform="rotate(34 359.6 395.8)"/><ellipse cx="288.2" cy="422.5" rx="4" ry="2" fill="#e6e0cf" transform="rotate(16 288.2 422.5)"/><ellipse cx="349.5" cy="380.6" rx="4" ry="2" fill="#e6e0cf" transform="rotate(119 349.5 380.6)"/><ellipse cx="313.7" cy="463.6" rx="4" ry="2" fill="#e6e0cf" transform="rotate(175 313.7 463.6)"/><ellipse cx="361.1" cy="458.3" rx="4" ry="2" fill="#e6e0cf" transform="rotate(71 361.1 458.3)"/><ellipse cx="279.6" cy="430.2" rx="4" ry="2" fill="#e6e0cf" transform="rotate(134 279.6 430.2)"/><ellipse cx="282.5" cy="440.2" rx="4" ry="2" fill="#e6e0cf" transform="rotate(72 282.5 440.2)"/><ellipse cx="373.2" cy="438.9" rx="4" ry="2" fill="#e6e0cf" transform="rotate(96 373.2 438.9)"/><ellipse cx="376.9" cy="435.4" rx="4" ry="2" fill="#e6e0cf" transform="rotate(62 376.9 435.4)"/><circle cx="341.8" cy="427.8" r="16.3" fill="#ef8354"/><circle cx="315.7" cy="419.3" r="16.3" fill="#f2ecd8"/><circle cx="469.9533946495503" cy="432.8804549667984" r="62.5" fill="#000" opacity="0.1"/><circle cx="469.9533946495503" cy="426.8804549667984" r="62.5" fill="#f5f2e8" stroke="#e0d9c2" stroke-width="2"/><circle cx="469.9533946495503" cy="426.8804549667984" r="53.75" fill="#f5f2e8"/><ellipse cx="451.4" cy="383.9" rx="4" ry="2" fill="#e6e0cf" transform="rotate(133 451.4 383.9)"/><ellipse cx="439.7" cy="390.1" rx="4" ry="2" fill="#e6e0cf" transform="rotate(64 439.7 390.1)"/><ellipse cx="505.4" cy="463.4" rx="4" ry="2" fill="#e6e0cf" transform="rotate(175 505.4 463.4)"/><ellipse cx="453.6" cy="466.3" rx="4" ry="2" fill="#e6e0cf" transform="rotate(163 453.6 466.3)"/><ellipse cx="430.9" cy="449.5" rx="4" ry="2" fill="#e6e0cf" transform="rotate(12 430.9 449.5)"/><ellipse cx="436.6" cy="451.6" rx="4" ry="2" fill="#e6e0cf" transform="rotate(94 436.6 451.6)"/><ellipse cx="516.0" cy="413.2" rx="4" ry="2" fill="#e6e0cf" transform="rotate(79 516.0 413.2)"/><ellipse cx="433.0" cy="453.0" rx="4" ry="2" fill="#e6e0cf" transform="rotate(151 433.0 453.0)"/><ellipse cx="447.6" cy="384.3" rx="4" ry="2" fill="#e6e0cf" transform="rotate(28 447.6 384.3)"/><ellipse cx="466.1" cy="466.5" rx="4" ry="2" fill="#e6e0cf" transform="rotate(96 466.1 466.5)"/><circle cx="482.8" cy="431.7" r="16.3" fill="#ef8354"/><circle cx="456.2" cy="425.9" r="16.3" fill="#f2ecd8"/><circle cx="617.9406346529722" cy="429.3923346493393" r="62.5" fill="#000" opacity="0.1"/><circle cx="617.9406346529722" cy="423.3923346493393" r="62.5" fill="#f5f2e8" stroke="#e0d9c2" stroke-width="2"/><circle cx="617.9406346529722" cy="423.3923346493393" r="53.75" fill="#f5f2e8"/><ellipse cx="604.4" cy="378.3" rx="4" ry="2" fill="#e6e0cf" transform="rotate(142 604.4 378.3)"/><ellipse cx="651.2" cy="385.0" rx="4" ry="2" fill="#e6e0cf" transform="rotate(142 651.2 385.0)"/><ellipse cx="667.7" cy="425.2" rx="4" ry="2" fill="#e6e0cf" transform="rotate(26 667.7 425.2)"/><ellipse cx="659.7" cy="423.5" rx="4" ry="2" fill="#e6e0cf" transform="rotate(16 659.7 423.5)"/><ellipse cx="639.5" cy="468.7" rx="4" ry="2" fill="#e6e0cf" transform="rotate(130 639.5 468.7)"/><ellipse cx="610.3" cy="461.4" rx="4" ry="2" fill="#e6e0cf" transform="rotate(116 610.3 461.4)"/><ellipse cx="576.2" cy="447.4" rx="4" ry="2" fill="#e6e0cf" transform="rotate(74 576.2 447.4)"/><ellipse cx="613.7" cy="473.2" rx="4" ry="2" fill="#e6e0cf" transform="rotate(154 613.7 473.2)"/><ellipse cx="577.5" cy="433.7" rx="4" ry="2" fill="#e6e0cf" transform="rotate(28 577.5 433.7)"/><ellipse cx="647.8" cy="452.8" rx="4" ry="2" fill="#e6e0cf" transform="rotate(21 647.8 452.8)"/><circle cx="630.0" cy="429.9" r="16.3" fill="#ef8354"/><circle cx="604.4" cy="420.7" r="16.3" fill="#f2ecd8"/></svg>