<svg xmlns="http://www.w3.org/2000/svg" viewBox="0 0 800 600"><defs><radialGradient id="bg-drakon" cx="50%" cy="35%" r="80%"><stop offset="0%" stop-color="#ffffff"/><stop offset="100%" stop-color="#efeff2"/></radialGradient></defs><rect width="800" height="600" fill="url(#bg-drakon)"/><circle cx="236.201227536425" cy="205.1454032175243" r="70" fill="#000" opacity="0.1"/><circle cx="236.201227536425" cy="199.1454032175243" r="70" fill="#f5f2e8" stroke="#e0d9c2" stroke-width="2"/><circle cx="236.201227536425" cy="199.1454032175243" r="60.199999999999996" fill="#f5f2e8"/><ellipse cx="287.0" cy="175.0" rx="4" ry="2" fill="#e6e0cf" transform="rotate(132 287.0 175.0)"/><ellipse cx="196.6" cy="238.4" rx="4" ry="2" fill="#e6e0cf" transform="rotate(172 196.6 238.4)"/><ellipse cx="274.4" cy="169.1" rx="4" ry="2" fill="#e6e0cf" transform="rotate(36 274.4 169.1)"/><ellipse cx="196.3" cy="228.5" rx="4" ry="2" fill="#e6e0cf" transform="rotate(1 196.3 228.5)"/><ellipse cx="223.2" cy="246.8" rx="4" ry="2" fill="#e6e0cf" transform="rotate(102 223.2 246.8)"/><ellipse cx="188.3" cy="195.7" rx="4" ry="2" fill="#e6e0cf" transform="rotate(15 188.3 195.7)"/><ellipse cx="250.3" cy="148.3" rx="4" ry="2" fill="#e6e0cf" transform="rotate(175 250.3 148.3)"/><ellipse cx="273.5" cy="229.9" rx="4" ry="2" fill="#e6e0cf" transform="rotate(153 273.5 229.9)"/><ellipse cx="182.7" cy="187.4" rx="4" ry="2" fill="#e6e0cf" transform="rotate(146 182.7 187.4)"/><ellipse cx="239.2" cy="153.7" rx="4" ry="2" fill="#e6e0cf" transform="rotate(174 239.2 153.7)"/><circle cx="251.4" cy="201.9" r="18.2" fill="#8a5a3b"/><circle cx="228.0" cy="212.2" r="18.2" fill="#7fb069"/><circle cx="235.6" cy="183.8" r="18.2" fill="#d9a45b"/><circle cx="396.84378950856626" cy="208.9241564758122" r="70" fill="#000" opacity="0.1"/><circle cx="396.84378950856626" cy="202.9241564758122" r="70" fill="#f5f2e8" stroke="#e0d9c2" stroke-width="2"/><circle cx="396.84378950856626" cy="202.9241564758122" r="60.199999999999996" fill="#f5f2e8"/><ellipse cx="362.2" cy="245.7" rx="4" ry="2" fill="#e6e0cf" transform="rotate(145 362.2 245.7)"/><ellipse cx="380.2" cy="162.5" rx="4" ry="2" fill="#e6e0cf" transform="rotate(172 380.2 162.5)"/><ellipse cx="363.4" cy="239.2" rx="4" ry="2" fill="#e6e0cf" transform="rotate(169 363.4 239.2)"/><ellipse cx="349.4" cy="180.2" rx="4" ry="2" fill="#e6e0cf" transform="rotate(116 349.4 180.2)"/><ellipse cx="343.9" cy="213.6" rx="4" ry="2" fill="#e6e0cf" transform="rotate(105 343.9 213.6)"/><ellipse cx="426.9" cy="161.2" rx="4" ry="2" fill="#e6e0cf" transform="rotate(0 426.9 161.2)"/><ellipse cx="370.5" cy="252.3" rx="4" ry="2" fill="#e6e0cf" transform="rotate(88 370.5 252.3)"/><ellipse cx="417.8" cy="254.4" rx="4" ry="2" fill="#e6e0cf" transform="rotate(88 417.8 254.4)"/><ellipse cx="422.2" cy="154.4" rx="4" ry="2" fill="#e6e0cf" transform="rotate(165 422.2 154.4)"/><ellipse cx="443.4" cy="228.0" rx="4" ry="2" fill="#e6e0cf" transform="rotate(65 443.4 228.0)"/><circle cx="412.2" cy="203.8" r="18.2" fill="#8a5a3b"/><circle cx="387.5" cy="215.2" r="18.2" fill="#7fb069"/><circle cx="394.8" cy="187.7" r="18.2" fill="#d9a45b"/><circle cx="559.8432191107422" cy="202.70870539918542" r="70" fill="#000" opacity="0.1"/><circle cx="559.8432191107422" cy="196.70870539918542" r="70" fill="#f5f2e8" stroke="#e0d9c2" stroke-width="2"/><circle cx="559.8432191107422" cy="196.70870539918542" r="60.199999999999996" fill="#f5f2e8"/><ellipse cx="514.6" cy="207.6" rx="4" ry="2" fill="#e6e0cf" transform="rotate(123 514.6 207.6)"/><ellipse cx="600.5" cy="220.7" rx="4" ry="2" fill="#e6e0cf" transform="rotate(2 600.5 220.7)"/><ellipse cx="524.2" cy="226.5" rx="4" ry="2" fill="#e6e0cf" transform="rotate(147 524.2 226.5)"/><ellipse cx="535.3" cy="239.2" rx="4" ry="2" fill="#e6e0cf" transform="rotate(95 535.3 239.2)"/><ellipse cx="615.8" cy="187.6" rx="4" ry="2" fill="#e6e0cf" transform="rotate(20 615.8 187.6)"/><ellipse cx="523.1" cy="230.0" rx="4" ry="2" fill="#e6e0cf" transform="rotate(88 523.1 230.0)"/><ellipse cx="570.0" cy="241.3" rx="4" ry="2" fill="#e6e0cf" transform="rotate(48 570.0 241.3)"/><ellipse cx="588.6" cy="161.6" rx="4" ry="2" fill="#e6e0cf" transform="rotate(175 588.6 161.6)"/><ellipse cx="586.8" cy="243.0" rx="4" ry="2" fill="#e6e0cf" transform="rotate(109 586.8 243.0)"/><ellipse cx="612.4" cy="179.6" rx="4" ry="2" fill="#e6e0cf" transform="rotate(167 612.4 179.6)"/><circle cx="574.0" cy="202.7" r="18.2" fill="#8a5a3b"/><circle cx="551.8" cy="209.9" r="18.2" fill="#7fb069"/><circle cx="557.6" cy="181.5" r="18.2" fill="#d9a45b"/><circle cx="236.4638354703784" cy="363.0593049749732" r="70" fill="#000" opacity="0.1"/><circle cx="236.4638354703784" cy="357.0593049749732" r="70" fill="#f5f2e8" stroke="#e0d9c2" stroke-width="2"/><circle cx="236.4638354703784" cy="357.0593049749732" r="60.199999999999996" fill="#f5f2e8"/><ellipse cx="200.6" cy="386.3" rx="4" ry="2" fill="#e6e0cf" transform="rotate(102 200.6 386.3)"/><ellipse cx="290.1" cy="365.4" rx="4" ry="2" fill="#e6e0cf" transform="rotate(180 290.1 365.4)"/><ellipse cx="283.1" cy="363.1" rx="4" ry="2" fill="#e6e0cf" transform="rotate(122 283.1 363.1)"/><ellipse cx="280.6" cy="330.3" rx="4" ry="2" fill="#e6e0cf" transform="rotate(89 280.6 330.3)"/><ellipse cx="182.2" cy="371.3" rx="4" ry="2" fill="#e6e0cf" transform="rotate(107 182.2 371.3)"/><ellipse cx="261.5" cy="317.1" rx="4" ry="2" fill="#e6e0cf" transform="rotate(5 261.5 317.1)"/><ellipse cx="224.7" cy="409.0" rx="4" ry="2" fill="#e6e0cf" transform="rotate(133 224.7 409.0)"/><ellipse cx="277.3" cy="375.5" rx="4" ry="2" fill="#e6e0cf" transform="rotate(134 277.3 375.5)"/><ellipse cx="195.7" cy="377.5" rx="4" ry="2" fill="#e6e0cf" transform="rotate(23 195.7 377.5)"/><ellipse cx="189.5" cy="379.2" rx="4" ry="2" fill="#e6e0cf" transform="rotate(9 189.5 379.2)"/><circle cx="251.7" cy="359.1" r="18.2" fill="#8a5a3b"/><circle cx="224.7" cy="367.0" r="18.2" fill="#7fb069"/><circle cx="229.1" cy="343.6" r="18.2" fill="#d9a45b"/><circle cx="396.4696374684572" cy="368.1620563548058" r="70" fill="#000" opacity="0.1"/><circle cx="396.4696374684572" cy="362.1620563548058" r="70" fill="#f5f2e8" stroke="#e0d9c2" stroke-width="2"/><circle cx="396.4696374684572" cy="362.1620563548058" r="60.199999999999996" fill="#f5f2e8"/><ellipse cx="363.7" cy="391.7" rx="4" ry="2" fill="#e6e0cf" transform="rotate(138 363.7 391.7)"/><ellipse cx="421.4" cy="312.6" rx="4" ry="2" fill="#e6e0cf" transform="rotate(114 421.4 312.6)"/><ellipse cx="404.4" cy="409.9" rx="4" ry="2" fill="#e6e0cf" transform="rotate(73 404.4 409.9)"/><ellipse cx="444.8" cy="365.7" rx="4" ry="2" fill="#e6e0cf" transform="rotate(175 444.8 365.7)"/><ellipse cx="391.4" cy="314.7" rx="4" ry="2" fill="#e6e0cf" transform="rotate(84 391.4 314.7)"/><ellipse cx="385.1" cy="405.4" rx="4" ry="2" fill="#e6e0cf" transform="rotate(125 385.1 405.4)"/><ellipse cx="366.1" cy="318.1" rx="4" ry="2" fill="#e6e0cf" transform="rotate(171 366.1 318.1)"/><ellipse cx="392.9" cy="412.4" rx="4" ry="2" fill="#e6e0cf" transform="rotate(167 392.9 412.4)"/><ellipse cx="370.1" cy="324.3" rx="4" ry="2" fill="#e6e0cf" transform="rotate(105 370.1 324.3)"/><ellipse cx="374.9" cy="405.6" rx="4" ry="2" fill="#e6e0cf" transform="rotate(93 374.9 405.6)"/><circle cx="411.9" cy="362.8" r="18.2" fill="#8a5a3b"/><circle cx="386.1" cy="373.5" r="18.2" fill="#7fb069"/><circle cx="390.0" cy="348.2" r="18.2" fill="#d9a45b"/><circle cx="557.034891821444" cy="369.8156349863857" r="70" fill="#000" opacity="0.1"/><circle cx="557.034891821444" cy="363.8156349863857" r="70" fill="#f5f2e8" stroke="#e0d9c2" stroke-width="2"/><circle cx="557.034891821444" cy="363.8156349863857" r="60.199999999999996" fill="#f5f2e8"/><ellipse cx="511.2" cy="371.7" rx="4" ry="2" fill="#e6e0cf" transform="rotate(34 511.2 371.7)"/><ellipse cx="582.3" cy="319.3" rx="4" ry="2" fill="#e6e0cf" transform="rotate(2 582.3 319.3)"/><ellipse cx="564.7" cy="319.9" rx="4" ry="2" fill="#e6e0cf" transform="rotate(70 564.7 319.9)"/><ellipse cx="571.9" cy="321.3" rx="4" ry="2" fill="#e6e0cf" transform="rotate(2 571.9 321.3)"/><ellipse cx="602.1" cy="330.6" rx="4" ry="2" fill="#e6e0cf" transform="rotate(63 602.1 330.6)"/><ellipse cx="578.0" cy="414.0" rx="4" ry="2" fill="#e6e0cf" transform="rotate(177 578.0 414.0)"/><ellipse cx="533.5" cy="312.5" rx="4" ry="2" fill="#e6e0cf" transform="rotate(130 533.5 312.5)"/><ellipse cx="581.5" cy="409.4" rx="4" ry="2" fill="#e6e0cf" transform="rotate(54 581.5 409.4)"/><ellipse cx="560.6" cy="320.4" rx="4" ry="2" fill="#e6e0cf" transform="rotate(69 560.6 320.4)"/><ellipse cx="561.9" cy="414.1" rx="4" ry="2" fill="#e6e0cf" transform="rotate(163 561.9 414.1)"/><circle cx="572.3" cy="365.8" r="18.2" fill="#8a5a3b"/><circle cx="547.3" cy="375.8" r="18.2" fill="#7fb069"/><circle cx="551.3" cy="349.5" r="18.2" fill="#d9a45b"/></svg>