<svg xmlns="http://www.w3.org/2000/svg" viewBox="0 0 800 600"><defs><radialGradient id="bg-duet-set" cx="50%" cy="35%" r="80%"><stop offset="0%" stop-color="#26262c"/><stop offset="100%" stop-color="#141417"/></radialGradient></defs><rect width="800" height="600" fill="url(#bg-duet-set)"/><circle cx="183.86926616355777" cy="139.96312572807074" r="62.5" fill="#000" opacity="0.35"/><circle cx="183.86926616355777" cy="133.96312572807074" r="62.5" fill="#f5f2e8"/><circle cx="183.86926616355777" cy="133.96312572807074" r="53.75" fill="#f5f2e8"/><ellipse cx="144.0" cy="146.2" rx="4" ry="2" fill="#e6e0cf" transform="rotate(50 144.0 146.2)"/><ellipse cx="142.4" cy="140.0" rx="4" ry="2" fill="#e6e0cf" transform="rotate(180 142.4 140.0)"/><ellipse cx="196.9" cy="96.9" rx="4" ry="2" fill="#e6e0cf" transform="rotate(112 196.9 96.9)"/><ellipse cx="223.2" cy="160.0" rx="4" ry="2" fill="#e6e0cf" transform="rotate(79 223.2 160.0)"/><ellipse cx="150.2" cy="162.7" rx="4" ry="2" fill="#e6e0cf" transform="rotate(42 150.2 162.7)"/><ellipse cx="157.1" cy="171.1" rx="4" ry="2" fill="#e6e0cf" transform="rotate(54 157.1 171.1)"/><ellipse cx="173.6" cy="182.3" rx="4" ry="2" fill="#e6e0cf" transform="rotate(114 173.6 182.3)"/><ellipse cx="206.9" cy="169.9" rx="4" ry="2" fill="#e6e0cf" transform="rotate(0 206.9 169.9)"/><ellipse cx="181.6" cy="88.1" rx="4" ry="2" fill="#e6e0cf" transform="rotate(5 181.6 88.1)"/><ellipse cx="161.6" cy="102.0" rx="4" ry="2" fill="#e6e0cf" transform="rotate(124 161.6 102.0)"/><circle cx="197.6" cy="134.2" r="16.3" fill="#ef8354"/><circle cx="170.2" cy="132.3" r="16.3" fill="#8a5a3b"/><circle cx="324.3053578604013" cy="142.3078754618764" r="62.5" fill="#000" opacity="0.35"/><circle cx="324.3053578604013" cy="136.3078754618764" r="62.5" fill="#f5f2e8"/><circle cx="324.3053578604013" cy="136.3078754618764" r="53.75" fill="#f5f2e8"/><ellipse cx="282.2" cy="163.2" rx="4" ry="2" fill="#e6e0cf" transform="rotate(115 282.2 163.2)"/><ellipse cx="310.9" cy="180.1" rx="4" ry="2" fill="#e6e0cf" transform="rotate(83 310.9 180.1)"/><ellipse cx="279.6" cy="157.0" rx="4" ry="2" fill="#e6e0cf" transform="rotate(175 279.6 157.0)"/><ellipse cx="362.5" cy="103.5" rx="4" ry="2" fill="#e6e0cf" transform="rotate(114 362.5 103.5)"/><ellipse cx="349.2" cy="100.0" rx="4" ry="2" fill="#e6e0cf" transform="rotate(98 349.2 100.0)"/><ellipse cx="288.7" cy="160.8" rx="4" ry="2" fill="#e6e0cf" transform="rotate(86 288.7 160.8)"/><ellipse cx="275.1" cy="124.6" rx="4" ry="2" fill="#e6e0cf" transform="rotate(165 275.1 124.6)"/><ellipse cx="371.6" cy="146.3" rx="4" ry="2" fill="#e6e0cf" transform="rotate(162 371.6 146.3)"/><ellipse cx="357.5" cy="107.0" rx="4" ry="2" fill="#e6e0cf" transform="rotate(94 357.5 107.0)"/><ellipse cx="332.6" cy="98.4" rx="4" ry="2" fill="#e6e0cf" transform="rotate(66 332.6 98.4)"/><circle cx="338.0" cy="137.3" r="16.3" fill="#ef8354"/><circle cx="310.9" cy="133.3" r="16.3" fill="#8a5a3b"/><circle cx="473.8090923950076" cy="143.4188189432025" r="62.5" fill="#000" opacity="0.35"/><circle cx="473.8090923950076" cy="137.4188189432025" r="62.5" fill="#f5f2e8"/><circle cx="473.8090923950076" cy="137.4188189432025" r="53.75" fill="#f5f2e8"/><ellipse cx="445.8" cy="109.4" rx="4" ry="2" fill="#e6e0cf" transform="rotate(137 445.8 109.4)"/><ellipse cx="491.2" cy="92.8" rx="4" ry="2" fill="#e6e0cf" transform="rotate(112 491.2 92.8)"/><ellipse cx="465.3" cy="181.3" rx="4" ry="2" fill="#e6e0cf" transform="rotate(104 465.3 181.3)"/><ellipse cx="430.8" cy="144.0" rx="4" ry="2" fill="#e6e0cf" transform="rotate(94 430.8 144.0)"/><ellipse cx="436.4" cy="110.3" rx="4" ry="2" fill="#e6e0cf" transform="rotate(105 436.4 110.3)"/><ellipse cx="448.5" cy="168.3" rx="4" ry="2" fill="#e6e0cf" transform="rotate(59 448.5 168.3)"/><ellipse cx="425.8" cy="121.5" rx="4" ry="2" fill="#e6e0cf" transform="rotate(65 425.8 121.5)"/><ellipse cx="496.1" cy="97.8" rx="4" ry="2" fill="#e6e0cf" transform="rotate(129 496.1 97.8)"/><ellipse cx="430.1" cy="137.4" rx="4" ry="2" fill="#e6e0cf" transform="rotate(162 430.1 137.4)"/><ellipse cx="430.2" cy="113.9" rx="4" ry="2" fill="#e6e0cf" transform="rotate(43 430.2 113.9)"/><circle cx="487.4" cy="139.4" r="16.3" fill="#ef8354"/><circle cx="460.1" cy="136.7" r="16.3" fill="#8a5a3b"/><circle cx="614.9893551431596" cy="139.362116670236" r="62.5" fill="#000" opacity="0.35"/><circle cx="614.9893551431596" cy="133.362116670236" r="62.5" fill="#f5f2e8"/><circle cx="614.9893551431596" cy="133.362116670236" r="53.75" fill="#f5f2e8"/><ellipse cx="587.0" cy="92.0" rx="4" ry="2" fill="#e6e0cf" transform="rotate(149 587.0 92.0)"/><ellipse cx="662.4" cy="142.7" rx="4" ry="2" fill="#e6e0cf" transform="rotate(118 662.4 142.7)"/><ellipse cx="635.9" cy="92.2" rx="4" ry="2" fill="#e6e0cf" transform="rotate(7 635.9 92.2)"/><ellipse cx="635.8" cy="91.1" rx="4" ry="2" fill="#e6e0cf" transform="rotate(55 635.8 91.1)"/><ellipse cx="657.2" cy="135.9" rx="4" ry="2" fill="#e6e0cf" transform="rotate(146 657.2 135.9)"/><ellipse cx="625.7" cy="94.1" rx="4" ry="2" fill="#e6e0cf" transform="rotate(143 625.7 94.1)"/><ellipse cx="652.5" cy="148.4" rx="4" ry="2" fill="#e6e0cf" transform="rotate(17 652.5 148.4)"/><ellipse cx="635.6" cy="172.6" rx="4" ry="2" fill="#e6e0cf" transform="rotate(165 635.6 172.6)"/><ellipse cx="572.4" cy="125.1" rx="4" ry="2" fill="#e6e0cf" transform="rotate(74 572.4 125.1)"/><ellipse cx="620.7" cy="182.0" rx="4" ry="2" fill="#e6e0cf" transform="rotate(63 620.7 182.0)"/><circle cx="628.1" cy="137.6" r="16.3" fill="#ef8354"/><circle cx="602.6" cy="127.5" r="16.3" fill="#8a5a3b"/><circle cx="184.90556896664202" cy="288.01998643018305" r="62.5" fill="#000" opacity="0.35"/><circle cx="184.90556896664202" cy="282.01998643018305" r="62.5" fill="#f5f2e8"/><circle cx="184.90556896664202" cy="282.01998643018305" r="53.75" fill="#f5f2e8"/><ellipse cx="154.8" cy="250.6" rx="4" ry="2" fill="#e6e0cf" transform="rotate(83 154.8 250.6)"/><ellipse cx="225.3" cy="285.6" rx="4" ry="2" fill="#e6e0cf" transform="rotate(157 225.3 285.6)"/><ellipse cx="221.9" cy="295.6" rx="4" ry="2" fill="#e6e0cf" transform="rotate(104 221.9 295.6)"/><ellipse cx="158.8" cy="242.2" rx="4" ry="2" fill="#e6e0cf" transform="rotate(143 158.8 242.2)"/><ellipse cx="167.2" cy="246.6" rx="4" ry="2" fill="#e6e0cf" transform="rotate(131 167.2 246.6)"/><ellipse cx="235.5" cy="276.7" rx="4" ry="2" fill="#e6e0cf" transform="rotate(128 235.5 276.7)"/><ellipse cx="226.7" cy="279.3" rx="4" ry="2" fill="#e6e0cf" transform="rotate(169 226.7 279.3)"/><ellipse cx="224.9" cy="292.8" rx="4" ry="2" fill="#e6e0cf" transform="rotate(51 224.9 292.8)"/><ellipse cx="225.0" cy="295.8" rx="4" ry="2" fill="#e6e0cf" transform="rotate(149 225.0 295.8)"/><ellipse cx="198.7" cy="329.5" rx="4" ry="2" fill="#e6e0cf" transform="rotate(130 198.7 329.5)"/><circle cx="197.3" cy="287.9" r="16.3" fill="#ef8354"/><circle cx="171.2" cy="281.0" r="16.3" fill="#8a5a3b"/><circle cx="325.62403096072376" cy="288.67519466392696" r="62.5" fill="#000" opacity="0.35"/><circle cx="325.62403096072376" cy="282.67519466392696" r="62.5" fill="#f5f2e8"/><circle cx="325.62403096072376" cy="282.67519466392696" r="53.75" fill="#f5f2e8"/><ellipse cx="356.6" cy="315.1" rx="4" ry="2" fill="#e6e0cf" transform="rotate(84 356.6 315.1)"/><ellipse cx="305.2" cy="327.4" rx="4" ry="2" fill="#e6e0cf" transform="rotate(62 305.2 327.4)"/><ellipse cx="325.8" cy="330.2" rx="4" ry="2" fill="#e6e0cf" transform="rotate(96 325.8 330.2)"/><ellipse cx="282.6" cy="304.0" rx="4" ry="2" fill="#e6e0cf" transform="rotate(151 282.6 304.0)"/><ellipse cx="301.2" cy="314.2" rx="4" ry="2" fill="#e6e0cf" transform="rotate(122 301.2 314.2)"/><ellipse cx="339.9" cy="322.9" rx="4" ry="2" fill="#e6e0cf" transform="rotate(7 339.9 322.9)"/><ellipse cx="288.8" cy="301.1" rx="4" ry="2" fill="#e6e0cf" transform="rotate(21 288.8 301.1)"/><ellipse cx="340.5" cy="240.4" rx="4" ry="2" fill="#e6e0cf" transform="rotate(3 340.5 240.4)"/><ellipse cx="320.3" cy="236.6" rx="4" ry="2" fill="#e6e0cf" transform="rotate(26 320.3 236.6)"/><ellipse cx="327.0" cy="237.0" rx="4" ry="2" fill="#e6e0cf" transform="rotate(39 327.0 237.0)"/><circle cx="339.2" cy="284.9" r="16.3" fill="#ef8354"/><circle cx="311.9" cy="281.6" r="16.3" fill="#8a5a3b"/><circle cx="467.92645868472755" cy="289.5300933942199" r="62.5" fill="#000" opacity="0.35"/><circle cx="467.92645868472755" cy="283.5300933942199" r="62.5" fill="#f5f2e8"/><circle cx="467.92645868472755" cy="283.5300933942199" r="53.75" fill="#f5f2e8"/><ellipse cx="455.5" cy="320.8" rx="4" ry="2" fill="#e6e0cf" transform="rotate(134 455.5 320.8)"/><ellipse cx="449.0" cy="324.4" rx="4" ry="2" fill="#e6e0cf" transform="rotate(28 449.0 324.4)"/><ellipse cx="425.0" cy="298.8" rx="4" ry="2" fill="#e6e0cf" transform="rotate(116 425.0 298.8)"/><ellipse cx="428.7" cy="294.2" rx="4" ry="2" fill="#e6e0cf" transform="rotate(156 428.7 294.2)"/><ellipse cx="507.9" cy="291.6" rx="4" ry="2" fill="#e6e0cf" transform="rotate(141 507.9 291.6)"/><ellipse cx="484.7" cy="331.5" rx="4" ry="2" fill="#e6e0cf" transform="rotate(173 484.7 331.5)"/><ellipse cx="481.4" cy="240.7" rx="4" ry="2" fill="#e6e0cf" transform="rotate(99 481.4 240.7)"/><ellipse cx="426.2" cy="262.8" rx="4" ry="2" fill="#e6e0cf" transform="rotate(162 426.2 262.8)"/><ellipse cx="484.9" cy="325.1" rx="4" ry="2" fill="#e6e0cf" transform="rotate(144 484.9 325.1)"/><ellipse cx="475.6" cy="321.8" rx="4" ry="2" fill="#e6e0cf" transform="rotate(115 475.6 321.8)"/><circle cx="481.5" cy="285.8" r="16.3" fill="#ef8354"/><circle cx="455.6" cy="277.4" r="16.3" fill="#8a5a3b"/><circle cx="617.160196499899" cy="285.9722773935646" r="62.5" fill="#000" opacity="0.35"/><circle cx="617.160196499899" cy="279.9722773935646" r="62.5" fill="#f5f2e8"/><circle cx="617.160196499899" cy="279.9722773935646" r="53.75" fill="#f5f2e8"/><ellipse cx="624.1" cy="322.4" rx="4" ry="2" fill="#e6e0cf" transform="rotate(115 624.1 322.4)"/><ellipse cx="602.7" cy="234.8" rx="4" ry="2" fill="#e6e0cf" transform="rotate(94 602.7 234.8)"/><ellipse cx="566.9" cy="286.3" rx="4" ry="2" fill="#e6e0cf" transform="rotate(115 566.9 286.3)"/><ellipse cx="584.6" cy="306.8" rx="4" ry="2" fill="#e6e0cf" transform="rotate(86 584.6 306.8)"/><ellipse cx="659.0" cy="299.2" rx="4" ry="2" fill="#e6e0cf" transform="rotate(132 659.0 299.2)"/><ellipse cx="636.4" cy="318.5" rx="4" ry="2" fill="#e6e0cf" transform="rotate(58 636.4 318.5)"/><ellipse cx="603.7" cy="241.5" rx="4" ry="2" fill="#e6e0cf" transform="rotate(61 603.7 241.5)"/><ellipse cx="582.2" cy="313.1" rx="4" ry="2" fill="#e6e0cf" transform="rotate(14 582.2 313.1)"/><ellipse cx="623.1" cy="327.0" rx="4" ry="2" fill="#e6e0cf" transform="rotate(48 623.1 327.0)"/><ellipse cx="587.7" cy="249.4" rx="4" ry="2" fill="#e6e0cf" transform="rotate(40 587.7 249.4)"/><circle cx="630.3" cy="283.9" r="16.3" fill="#ef8354"/><circle cx="604.3" cy="275.2" r="16.3" fill="#8a5a3b"/><circle cx="188.07378892600536" cy="430.0812108684331" r="62.5" fill="#000" opacity="0.35"/><circle cx="188.07378892600536" cy="424.0812108684331" r="62.5" fill="#f5f2e8"/><circle cx="188.07378892600536" cy="424.0812108684331" r="53.75" fill="#f5f2e8"/><ellipse cx="161.9" cy="381.5" rx="4" ry="2" fill="#e6e0cf" transform="rotate(132 161.9 381.5)"/><ellipse cx="214.6" cy="461.3" rx="4" ry="2" fill="#e6e0cf" transform="rotate(156 214.6 461.3)"/><ellipse cx="173.6" cy="385.2" rx="4" ry="2" fill="#e6e0cf" transform="rotate(28 173.6 385.2)"/><ellipse cx="162.9" cy="463.0" rx="4" ry="2" fill="#e6e0cf" transform="rotate(4 162.9 463.0)"/><ellipse cx="149.5" cy="455.0" rx="4" ry="2" fill="#e6e0cf" transform="rotate(164 149.5 455.0)"/><ellipse cx="207.1" cy="471.3" rx="4" ry="2" fill="#e6e0cf" transform="rotate(163 207.1 471.3)"/><ellipse cx="193.5" cy="471.0" rx="4" ry="2" fill="#e6e0cf" transform="rotate(132 193.5 471.0)"/><ellipse cx="177.8" cy="382.7" rx="4" ry="2" fill="#e6e0cf" transform="rotate(93 177.8 382.7)"/><ellipse cx="228.8" cy="426.1" rx="4" ry="2" fill="#e6e0cf" transform="rotate(71 228.8 426.1)"/><ellipse cx="235.7" cy="413.1" rx="4" ry="2" fill="#e6e0cf" transform="rotate(178 235.7 413.1)"/><circle cx="201.0" cy="428.9" r="16.3" fill="#ef8354"/><circle cx="174.5" cy="421.8" r="16.3" fill="#8a5a3b"/><circle cx="329.3446830417961" cy="431.61769221164286" r="62.5" fill="#000" opacity="0.35"/><circle cx="329.3446830417961" cy="425.61769221164286" r="62.5" fill="#f5f2e8"/><circle cx="329.3446830417961" cy="425.61769221164286" r="53.75" fill="#f5f2e8"/><ellipse cx="300.0" cy="464.8" rx="4" ry="2" fill="#e6e0cf" transform="rotate(30 300.0 464.8)"/><ellipse cx="304.1" cy="381.2" rx="4" ry="2" fill="#e6e0cf" transform="rotate(21 304.1 381.2)"/><ellipse cx="364.5" cy="396.3" rx="4" ry="2" fill="#e6e0cf" transform="rotate(94 364.5 396.3)"/><ellipse cx="290.9" cy="456.7" rx="4" ry="2" fill="#e6e0cf" transform="rotate(46 290.9 456.7)"/><ellipse cx="326.2" cy="469.3" rx="4" ry="2" fill="#e6e0cf" transform="rotate(136 326.2 469.3)"/><ellipse cx="368.9" cy="432.8" rx="4" ry="2" fill="#e6e0cf" transform="rotate(136 368.9 432.8)"/><ellipse cx="326.8" cy="467.1" rx="4" ry="2" fill="#e6e0cf" transform="rotate(114 326.8 467.1)"/><ellipse cx="361.0" cy="465.9" rx="4" ry="2" fill="#e6e0cf" transform="rotate(165 361.0 465.9)"/><ellipse cx="355.3" cy="468.4" rx="4" ry="2" fill="#e6e0cf" transform="rotate(29 355.3 468.4)"/><ellipse cx="345.6" cy="471.0" rx="4" ry="2" fill="#e6e0cf" transform="rotate(141 345.6 471.0)"/><circle cx="343.0" cy="427.3" r="16.3" fill="#ef8354"/><circle cx="315.6" cy="424.9" r="16.3" fill="#8a5a3b"/><circle cx="471.84377515129745" cy="425.9862475413829" r="62.5" fill="#000" opacity="0.35"/><circle cx="471.84377515129745" cy="419.9862475413829" r="62.5" fill="#f5f2e8"/><circle cx="471.84377515129745" cy="419.9862475413829" r="53.75" fill="#f5f2e8"/><ellipse cx="465.6" cy="460.0" rx="4" ry="2" fill="#e6e0cf" transform="rotate(47 465.6 460.0)"/><ellipse cx="456.5" cy="462.0" rx="4" ry="2" fill="#e6e0cf" transform="rotate(32 456.5 462.0)"/><ellipse cx="464.9" cy="373.3" rx="4" ry="2" fill="#e6e0cf" transform="rotate(78 464.9 373.3)"/><ellipse cx="469.2" cy="372.8" rx="4" ry="2" fill="#e6e0cf" transform="rotate(169 469.2 372.8)"/><ellipse cx="431.8" cy="421.7" rx="4" ry="2" fill="#e6e0cf" transform="rotate(97 431.8 421.7)"/><ellipse cx="458.6" cy="465.7" rx="4" ry="2" fill="#e6e0cf" transform="rotate(31 458.6 465.7)"/><ellipse cx="440.7" cy="450.1" rx="4" ry="2" fill="#e6e0cf" transform="rotate(35 440.7 450.1)"/><ellipse cx="427.2" cy="396.9" rx="4" ry="2" fill="#e6e0cf" transform="rotate(150 427.2 396.9)"/><ellipse cx="518.1" cy="402.1" rx="4" ry="2" fill="#e6e0cf" transform="rotate(127 518.1 402.1)"/><ellipse cx="497.1" cy="452.5" rx="4" ry="2" fill="#e6e0cf" transform="rotate(135 497.1 452.5)"/><circle cx="485.5" cy="421.5" r="16.3" fill="#ef8354"/><circle cx="458.6" cy="416.5" r="16.3" fill="#8a5a3b"/><circle cx="616.3748012855649" cy="427.66151733510196" r="62.5" fill="#000" opacity="0.35"/><circle cx="616.3748012855649" cy="421.66151733510196" r="62.5" fill="#f5f2e8"/><circle cx="616.3748012855649" cy="421.66151733510196" r="53.75" fill="#f5f2e8"/><ellipse cx="592.4" cy="391.1" rx="4" ry="2" fill="#e6e0cf" transform="rotate(84 592.4 391.1)"/><ellipse cx="587.9" cy="448.3" rx="4" ry="2" fill="#e6e0cf" transform="rotate(115 587.9 448.3)"/><ellipse cx="654.7" cy="431.6" rx="4" ry="2" fill="#e6e0cf" transform="rotate(105 654.7 431.6)"/><ellipse cx="582.6" cy="389.8" rx="4" ry="2" fill="#e6e0cf" transform="rotate(120 582.6 389.8)"/><ellipse cx="616.9" cy="468.4" rx="4" ry="2" fill="#e6e0cf" transform="rotate(43 616.9 468.4)"/><ellipse cx="573.1" cy="406.5" rx="4" ry="2" fill="#e6e0cf" transform="rotate(88 573.1 406.5)"/><ellipse cx="640.4" cy="465.1" rx="4" ry="2" fill="#e6e0cf" transform="rotate(139 640.4 465.1)"/><ellipse cx="585.1" cy="452.3" rx="4" ry="2" fill="#e6e0cf" transform="rotate(67 585.1 452.3)"/><ellipse cx="665.0" cy="415.8" rx="4" ry="2" fill="#e6e0cf" transform="rotate(49 665.0 415.8)"/><ellipse cx="606.7" cy="378.0" rx="4" ry="2" fill="#e6e0cf" transform="rotate(72 606.7 378.0)"/><circle cx="628.7" cy="427.8" r="16.3" fill="#ef8354"/><circle cx="603.2" cy="417.8" r="16.3" fill="#8a5a3b"/></svg>