<svg xmlns="http://www.w3.org/2000/svg" viewBox="0 0 800 600"><defs><radialGradient id="bg-ebi-set" cx="50%" cy="35%" r="80%"><stop offset="0%" stop-color="#26262c"/><stop offset="100%" stop-color="#141417"/></radialGradient></defs><rect width="800" height="600" fill="url(#bg-ebi-set)"/><circle cx="183.8313886579126" cy="139.68774883449078" r="62.5" fill="#000" opacity="0.35"/><circle cx="183.8313886579126" cy="133.68774883449078" r="62.5" fill="#f5f2e8"/><circle cx="183.8313886579126" cy="133.68774883449078" r="53.75" fill="#f5f2e8"/><ellipse cx="227.9" cy="120.1" rx="4" ry="2" fill="#e6e0cf" transform="rotate(25 227.9 120.1)"/><ellipse cx="136.4" cy="146.7" rx="4" ry="2" fill="#e6e0cf" transform="rotate(157 136.4 146.7)"/><ellipse cx="222.0" cy="127.1" rx="4" ry="2" fill="#e6e0cf" transform="rotate(1 222.0 127.1)"/><ellipse cx="148.1" cy="107.7" rx="4" ry="2" fill="#e6e0cf" transform="rotate(155 148.1 107.7)"/><ellipse cx="145.3" cy="126.6" rx="4" ry="2" fill="#e6e0cf" transform="rotate(42 145.3 126.6)"/><ellipse cx="196.4" cy="173.6" rx="4" ry="2" fill="#e6e0cf" transform="rotate(161 196.4 173.6)"/><ellipse cx="217.6" cy="113.1" rx="4" ry="2" fill="#e6e0cf" transform="rotate(6 217.6 113.1)"/><ellipse cx="232.0" cy="150.6" rx="4" ry="2" fill="#e6e0cf" transform="rotate(23 232.0 150.6)"/><ellipse cx="152.1" cy="162.6" rx="4" ry="2" fill="#e6e0cf" transform="rotate(32 152.1 162.6)"/><ellipse cx="223.9" cy="143.9" rx="4" ry="2" fill="#e6e0cf" transform="rotate(155 223.9 143.9)"/><circle cx="183.8" cy="133.7" r="25.0" fill="#f2a48e"/><circle cx="330.579920604825" cy="140.00859317183495" r="62.5" fill="#000" opacity="0.35"/><circle cx="330.579920604825" cy="134.00859317183495" r="62.5" fill="#f5f2e8"/><circle cx="330.579920604825" cy="134.00859317183495" r="53.75" fill="#f5f2e8"/><ellipse cx="304.8" cy="171.3" rx="4" ry="2" fill="#e6e0cf" transform="rotate(81 304.8 171.3)"/><ellipse cx="358.6" cy="102.5" rx="4" ry="2" fill="#e6e0cf" transform="rotate(111 358.6 102.5)"/><ellipse cx="285.0" cy="129.8" rx="4" ry="2" fill="#e6e0cf" transform="rotate(114 285.0 129.8)"/><ellipse cx="315.9" cy="95.4" rx="4" ry="2" fill="#e6e0cf" transform="rotate(68 315.9 95.4)"/><ellipse cx="370.5" cy="124.8" rx="4" ry="2" fill="#e6e0cf" transform="rotate(3 370.5 124.8)"/><ellipse cx="376.5" cy="143.2" rx="4" ry="2" fill="#e6e0cf" transform="rotate(28 376.5 143.2)"/><ellipse cx="353.7" cy="166.1" rx="4" ry="2" fill="#e6e0cf" transform="rotate(83 353.7 166.1)"/><ellipse cx="315.4" cy="179.4" rx="4" ry="2" fill="#e6e0cf" transform="rotate(176 315.4 179.4)"/><ellipse cx="372.8" cy="122.3" rx="4" ry="2" fill="#e6e0cf" transform="rotate(153 372.8 122.3)"/><ellipse cx="329.8" cy="84.5" rx="4" ry="2" fill="#e6e0cf" transform="rotate(74 329.8 84.5)"/><circle cx="330.6" cy="134.0" r="25.0" fill="#f2a48e"/><circle cx="474.6247366592288" cy="145.3908250015229" r="62.5" fill="#000" opacity="0.35"/><circle cx="474.6247366592288" cy="139.3908250015229" r="62.5" fill="#f5f2e8"/><circle cx="474.6247366592288" cy="139.3908250015229" r="53.75" fill="#f5f2e8"/><ellipse cx="436.8" cy="107.9" rx="4" ry="2" fill="#e6e0cf" transform="rotate(81 436.8 107.9)"/><ellipse cx="451.1" cy="183.4" rx="4" ry="2" fill="#e6e0cf" transform="rotate(131 451.1 183.4)"/><ellipse cx="514.1" cy="129.1" rx="4" ry="2" fill="#e6e0cf" transform="rotate(59 514.1 129.1)"/><ellipse cx="522.5" cy="152.8" rx="4" ry="2" fill="#e6e0cf" transform="rotate(127 522.5 152.8)"/><ellipse cx="479.1" cy="94.1" rx="4" ry="2" fill="#e6e0cf" transform="rotate(8 479.1 94.1)"/><ellipse cx="453.1" cy="104.9" rx="4" ry="2" fill="#e6e0cf" transform="rotate(114 453.1 104.9)"/><ellipse cx="474.3" cy="189.6" rx="4" ry="2" fill="#e6e0cf" transform="rotate(143 474.3 189.6)"/><ellipse cx="517.5" cy="134.3" rx="4" ry="2" fill="#e6e0cf" transform="rotate(5 517.5 134.3)"/><ellipse cx="485.9" cy="91.7" rx="4" ry="2" fill="#e6e0cf" transform="rotate(88 485.9 91.7)"/><ellipse cx="491.0" cy="103.2" rx="4" ry="2" fill="#e6e0cf" transform="rotate(13 491.0 103.2)"/><circle cx="474.6" cy="139.4" r="25.0" fill="#f2a48e"/><circle cx="613.9981463849545" cy="141.2345574386418" r="62.5" fill="#000" opacity="0.35"/><circle cx="613.9981463849545" cy="135.2345574386418" r="62.5" fill="#f5f2e8"/><circle cx="613.9981463849545" cy="135.2345574386418" r="53.75" fill="#f5f2e8"/><ellipse cx="652.6" cy="125.2" rx="4" ry="2" fill="#e6e0cf" transform="rotate(157 652.6 125.2)"/><ellipse cx="655.0" cy="116.1" rx="4" ry="2" fill="#e6e0cf" transform="rotate(27 655.0 116.1)"/><ellipse cx="652.0" cy="164.7" rx="4" ry="2" fill="#e6e0cf" transform="rotate(31 652.0 164.7)"/><ellipse cx="658.8" cy="113.9" rx="4" ry="2" fill="#e6e0cf" transform="rotate(119 658.8 113.9)"/><ellipse cx="660.7" cy="125.3" rx="4" ry="2" fill="#e6e0cf" transform="rotate(59 660.7 125.3)"/><ellipse cx="640.8" cy="170.7" rx="4" ry="2" fill="#e6e0cf" transform="rotate(84 640.8 170.7)"/><ellipse cx="564.1" cy="134.1" rx="4" ry="2" fill="#e6e0cf" transform="rotate(150 564.1 134.1)"/><ellipse cx="599.5" cy="94.4" rx="4" ry="2" fill="#e6e0cf" transform="rotate(79 599.5 94.4)"/><ellipse cx="642.3" cy="164.1" rx="4" ry="2" fill="#e6e0cf" transform="rotate(56 642.3 164.1)"/><ellipse cx="617.9" cy="90.7" rx="4" ry="2" fill="#e6e0cf" transform="rotate(70 617.9 90.7)"/><circle cx="614.0" cy="135.2" r="25.0" fill="#f2a48e"/><circle cx="187.1649198718369" cy="284.8660206384957" r="62.5" fill="#000" opacity="0.35"/><circle cx="187.1649198718369" cy="278.8660206384957" r="62.5" fill="#f5f2e8"/><circle cx="187.1649198718369" cy="278.8660206384957" r="53.75" fill="#f5f2e8"/><ellipse cx="146.2" cy="260.1" rx="4" ry="2" fill="#e6e0cf" transform="rotate(18 146.2 260.1)"/><ellipse cx="144.5" cy="265.7" rx="4" ry="2" fill="#e6e0cf" transform="rotate(68 144.5 265.7)"/><ellipse cx="199.3" cy="235.4" rx="4" ry="2" fill="#e6e0cf" transform="rotate(115 199.3 235.4)"/><ellipse cx="208.2" cy="239.1" rx="4" ry="2" fill="#e6e0cf" transform="rotate(122 208.2 239.1)"/><ellipse cx="207.4" cy="239.3" rx="4" ry="2" fill="#e6e0cf" transform="rotate(151 207.4 239.3)"/><ellipse cx="232.4" cy="302.2" rx="4" ry="2" fill="#e6e0cf" transform="rotate(85 232.4 302.2)"/><ellipse cx="214.6" cy="309.7" rx="4" ry="2" fill="#e6e0cf" transform="rotate(17 214.6 309.7)"/><ellipse cx="173.6" cy="318.5" rx="4" ry="2" fill="#e6e0cf" transform="rotate(136 173.6 318.5)"/><ellipse cx="230.6" cy="291.1" rx="4" ry="2" fill="#e6e0cf" transform="rotate(53 230.6 291.1)"/><ellipse cx="184.3" cy="230.1" rx="4" ry="2" fill="#e6e0cf" transform="rotate(167 184.3 230.1)"/><circle cx="187.2" cy="278.9" r="25.0" fill="#f2a48e"/><circle cx="326.8252973854542" cy="282.4692983124405" r="62.5" fill="#000" opacity="0.35"/><circle cx="326.8252973854542" cy="276.4692983124405" r="62.5" fill="#f5f2e8"/><circle cx="326.8252973854542" cy="276.4692983124405" r="53.75" fill="#f5f2e8"/><ellipse cx="283.3" cy="289.0" rx="4" ry="2" fill="#e6e0cf" transform="rotate(143 283.3 289.0)"/><ellipse cx="352.2" cy="244.6" rx="4" ry="2" fill="#e6e0cf" transform="rotate(3 352.2 244.6)"/><ellipse cx="309.3" cy="321.8" rx="4" ry="2" fill="#e6e0cf" transform="rotate(151 309.3 321.8)"/><ellipse cx="352.7" cy="241.2" rx="4" ry="2" fill="#e6e0cf" transform="rotate(163 352.7 241.2)"/><ellipse cx="300.4" cy="312.7" rx="4" ry="2" fill="#e6e0cf" transform="rotate(34 300.4 312.7)"/><ellipse cx="363.0" cy="308.2" rx="4" ry="2" fill="#e6e0cf" transform="rotate(48 363.0 308.2)"/><ellipse cx="293.8" cy="312.0" rx="4" ry="2" fill="#e6e0cf" transform="rotate(136 293.8 312.0)"/><ellipse cx="363.0" cy="304.1" rx="4" ry="2" fill="#e6e0cf" transform="rotate(53 363.0 304.1)"/><ellipse cx="373.6" cy="296.8" rx="4" ry="2" fill="#e6e0cf" transform="rotate(48 373.6 296.8)"/><ellipse cx="300.0" cy="314.2" rx="4" ry="2" fill="#e6e0cf" transform="rotate(164 300.0 314.2)"/><circle cx="326.8" cy="276.5" r="25.0" fill="#f2a48e"/><circle cx="470.22373723983765" cy="284.3853393960744" r="62.5" fill="#000" opacity="0.35"/><circle cx="470.22373723983765" cy="278.3853393960744" r="62.5" fill="#f5f2e8"/><circle cx="470.22373723983765" cy="278.3853393960744" r="53.75" fill="#f5f2e8"/><ellipse cx="508.3" cy="246.3" rx="4" ry="2" fill="#e6e0cf" transform="rotate(82 508.3 246.3)"/><ellipse cx="432.7" cy="291.0" rx="4" ry="2" fill="#e6e0cf" transform="rotate(78 432.7 291.0)"/><ellipse cx="515.8" cy="268.9" rx="4" ry="2" fill="#e6e0cf" transform="rotate(109 515.8 268.9)"/><ellipse cx="503.9" cy="255.6" rx="4" ry="2" fill="#e6e0cf" transform="rotate(68 503.9 255.6)"/><ellipse cx="510.2" cy="301.5" rx="4" ry="2" fill="#e6e0cf" transform="rotate(52 510.2 301.5)"/><ellipse cx="419.7" cy="286.3" rx="4" ry="2" fill="#e6e0cf" transform="rotate(116 419.7 286.3)"/><ellipse cx="433.3" cy="303.2" rx="4" ry="2" fill="#e6e0cf" transform="rotate(68 433.3 303.2)"/><ellipse cx="440.7" cy="240.1" rx="4" ry="2" fill="#e6e0cf" transform="rotate(87 440.7 240.1)"/><ellipse cx="493.0" cy="246.7" rx="4" ry="2" fill="#e6e0cf" transform="rotate(152 493.0 246.7)"/><ellipse cx="436.8" cy="298.1" rx="4" ry="2" fill="#e6e0cf" transform="rotate(89 436.8 298.1)"/><circle cx="470.2" cy="278.4" r="25.0" fill="#f2a48e"/><circle cx="612.2394344955683" cy="284.488981410861" r="62.5" fill="#000" opacity="0.35"/><circle cx="612.2394344955683" cy="278.488981410861" r="62.5" fill="#f5f2e8"/><circle cx="612.2394344955683" cy="278.488981410861" r="53.75" fill="#f5f2e8"/><ellipse cx="580.4" cy="245.1" rx="4" ry="2" fill="#e6e0cf" transform="rotate(51 580.4 245.1)"/><ellipse cx="562.3" cy="279.5" rx="4" ry="2" fill="#e6e0cf" transform="rotate(180 562.3 279.5)"/><ellipse cx="659.7" cy="260.6" rx="4" ry="2" fill="#e6e0cf" transform="rotate(63 659.7 260.6)"/><ellipse cx="570.9" cy="265.7" rx="4" ry="2" fill="#e6e0cf" transform="rotate(171 570.9 265.7)"/><ellipse cx="634.9" cy="244.7" rx="4" ry="2" fill="#e6e0cf" transform="rotate(7 634.9 244.7)"/><ellipse cx="581.9" cy="318.2" rx="4" ry="2" fill="#e6e0cf" transform="rotate(14 581.9 318.2)"/><ellipse cx="633.4" cy="239.8" rx="4" ry="2" fill="#e6e0cf" transform="rotate(24 633.4 239.8)"/><ellipse cx="662.2" cy="282.1" rx="4" ry="2" fill="#e6e0cf" transform="rotate(23 662.2 282.1)"/><ellipse cx="565.0" cy="275.6" rx="4" ry="2" fill="#e6e0cf" transform="rotate(63 565.0 275.6)"/><ellipse cx="612.2" cy="326.5" rx="4" ry="2" fill="#e6e0cf" transform="rotate(81 612.2 326.5)"/><circle cx="612.2" cy="278.5" r="25.0" fill="#f2a48e"/><circle cx="183.09113923832774" cy="430.23149444907904" r="62.5" fill="#000" opacity="0.35"/><circle cx="183.09113923832774" cy="424.23149444907904" r="62.5" fill="#f5f2e8"/><circle cx="183.09113923832774" cy="424.23149444907904" r="53.75" fill="#f5f2e8"/><ellipse cx="176.0" cy="462.8" rx="4" ry="2" fill="#e6e0cf" transform="rotate(105 176.0 462.8)"/><ellipse cx="182.1" cy="464.9" rx="4" ry="2" fill="#e6e0cf" transform="rotate(50 182.1 464.9)"/><ellipse cx="143.9" cy="450.1" rx="4" ry="2" fill="#e6e0cf" transform="rotate(67 143.9 450.1)"/><ellipse cx="223.7" cy="445.4" rx="4" ry="2" fill="#e6e0cf" transform="rotate(88 223.7 445.4)"/><ellipse cx="196.3" cy="386.5" rx="4" ry="2" fill="#e6e0cf" transform="rotate(164 196.3 386.5)"/><ellipse cx="219.7" cy="449.0" rx="4" ry="2" fill="#e6e0cf" transform="rotate(145 219.7 449.0)"/><ellipse cx="221.8" cy="394.4" rx="4" ry="2" fill="#e6e0cf" transform="rotate(167 221.8 394.4)"/><ellipse cx="163.6" cy="388.1" rx="4" ry="2" fill="#e6e0cf" transform="rotate(159 163.6 388.1)"/><ellipse cx="183.4" cy="464.3" rx="4" ry="2" fill="#e6e0cf" transform="rotate(94 183.4 464.3)"/><ellipse cx="219.5" cy="410.7" rx="4" ry="2" fill="#e6e0cf" transform="rotate(37 219.5 410.7)"/><circle cx="183.1" cy="424.2" r="25.0" fill="#f2a48e"/><circle cx="324.18851270899177" cy="431.780350163579" r="62.5" fill="#000" opacity="0.35"/><circle cx="324.18851270899177" cy="425.780350163579" r="62.5" fill="#f5f2e8"/><circle cx="324.18851270899177" cy="425.780350163579" r="53.75" fill="#f5f2e8"/><ellipse cx="286.1" cy="404.9" rx="4" ry="2" fill="#e6e0cf" transform="rotate(87 286.1 404.9)"/><ellipse cx="330.5" cy="378.1" rx="4" ry="2" fill="#e6e0cf" transform="rotate(1 330.5 378.1)"/><ellipse cx="358.7" cy="461.7" rx="4" ry="2" fill="#e6e0cf" transform="rotate(1 358.7 461.7)"/><ellipse cx="351.7" cy="460.9" rx="4" ry="2" fill="#e6e0cf" transform="rotate(90 351.7 460.9)"/><ellipse cx="365.5" cy="423.4" rx="4" ry="2" fill="#e6e0cf" transform="rotate(168 365.5 423.4)"/><ellipse cx="301.1" cy="391.8" rx="4" ry="2" fill="#e6e0cf" transform="rotate(10 301.1 391.8)"/><ellipse cx="322.1" cy="381.8" rx="4" ry="2" fill="#e6e0cf" transform="rotate(120 322.1 381.8)"/><ellipse cx="319.3" cy="375.7" rx="4" ry="2" fill="#e6e0cf" transform="rotate(33 319.3 375.7)"/><ellipse cx="338.2" cy="465.6" rx="4" ry="2" fill="#e6e0cf" transform="rotate(177 338.2 465.6)"/><ellipse cx="297.0" cy="466.0" rx="4" ry="2" fill="#e6e0cf" transform="rotate(27 297.0 466.0)"/><circle cx="324.2" cy="425.8" r="25.0" fill="#f2a48e"/><circle cx="470.2833708990365" cy="429.8642626721412" r="62.5" fill="#000" opacity="0.35"/><circle cx="470.2833708990365" cy="423.8642626721412" r="62.5" fill="#f5f2e8"/><circle cx="470.2833708990365" cy="423.8642626721412" r="53.75" fill="#f5f2e8"/><ellipse cx="487.6" cy="463.3" rx="4" ry="2" fill="#e6e0cf" transform="rotate(14 487.6 463.3)"/><ellipse cx="451.1" cy="376.5" rx="4" ry="2" fill="#e6e0cf" transform="rotate(40 451.1 376.5)"/><ellipse cx="507.0" cy="453.7" rx="4" ry="2" fill="#e6e0cf" transform="rotate(37 507.0 453.7)"/><ellipse cx="486.6" cy="387.2" rx="4" ry="2" fill="#e6e0cf" transform="rotate(74 486.6 387.2)"/><ellipse cx="493.6" cy="467.6" rx="4" ry="2" fill="#e6e0cf" transform="rotate(42 493.6 467.6)"/><ellipse cx="439.1" cy="393.6" rx="4" ry="2" fill="#e6e0cf" transform="rotate(107 439.1 393.6)"/><ellipse cx="424.4" cy="437.6" rx="4" ry="2" fill="#e6e0cf" transform="rotate(151 424.4 437.6)"/><ellipse cx="423.1" cy="411.6" rx="4" ry="2" fill="#e6e0cf" transform="rotate(18 423.1 411.6)"/><ellipse cx="508.5" cy="416.3" rx="4" ry="2" fill="#e6e0cf" transform="rotate(20 508.5 416.3)"/><ellipse cx="431.2" cy="403.5" rx="4" ry="2" fill="#e6e0cf" transform="rotate(108 431.2 403.5)"/><circle cx="470.3" cy="423.9" r="25.0" fill="#f2a48e"/><circle cx="618.5869098939002" cy="430.2861136421561" r="62.5" fill="#000" opacity="0.35"/><circle cx="618.5869098939002" cy="424.2861136421561" r="62.5" fill="#f5f2e8"/><circle cx="618.5869098939002" cy="424.2861136421561" r="53.75" fill="#f5f2e8"/><ellipse cx="665.3" cy="419.0" rx="4" ry="2" fill="#e6e0cf" transform="rotate(55 665.3 419.0)"/><ellipse cx="661.0" cy="402.3" rx="4" ry="2" fill="#e6e0cf" transform="rotate(121 661.0 402.3)"/><ellipse cx="580.1" cy="443.7" rx="4" ry="2" fill="#e6e0cf" transform="rotate(56 580.1 443.7)"/><ellipse cx="635.1" cy="463.0" rx="4" ry="2" fill="#e6e0cf" transform="rotate(37 635.1 463.0)"/><ellipse cx="637.8" cy="381.3" rx="4" ry="2" fill="#e6e0cf" transform="rotate(1 637.8 381.3)"/><ellipse cx="576.9" cy="421.1" rx="4" ry="2" fill="#e6e0cf" transform="rotate(11 576.9 421.1)"/><ellipse cx="659.1" cy="427.6" rx="4" ry="2" fill="#e6e0cf" transform="rotate(10 659.1 427.6)"/><ellipse cx="664.4" cy="403.6" rx="4" ry="2" fill="#e6e0cf" transform="rotate(74 664.4 403.6)"/><ellipse cx="657.9" cy="411.5" rx="4" ry="2" fill="#e6e0cf" transform="rotate(136 657.9 411.5)"/><ellipse cx="641.4" cy="384.8" rx="4" ry="2" fill="#e6e0cf" transform="rotate(13 641.4 384.8)"/><circle cx="618.6" cy="424.3" r="25.0" fill="#f2a48e"/></svg>