<svg xmlns="http://www.w3.org/2000/svg" viewBox="0 0 800 600"><defs><radialGradient id="bg-ebi-maki-gunkan" cx="50%" cy="35%" r="80%"><stop offset="0%" stop-color="#26262c"/><stop offset="100%" stop-color="#141417"/></radialGradient></defs><rect width="800" height="600" fill="url(#bg-ebi-maki-gunkan)"/><ellipse cx="400" cy="410" rx="150" ry="26" fill="#000" opacity="0.35"/><rect x="280" y="280" width="240" height="130" rx="40" fill="#23272a"/><circle cx="375.5" cy="272.1" r="18.8" fill="#7fb069"/><circle cx="422.2" cy="265.2" r="14.0" fill="#7fb069"/><circle cx="462.7" cy="278.3" r="16.1" fill="#7fb069"/><circle cx="446.6" cy="276.6" r="18.5" fill="#7fb069"/><circle cx="411.7" cy="273.3" r="14.9" fill="#e05d5d"/><circle cx="374.8" cy="269.1" r="14.9" fill="#e05d5d"/><circle cx="471.4" cy="267.6" r="12.3" fill="#7fb069"/><circle cx="438.5" cy="263.9" r="14.5" fill="#7fb069"/><circle cx="380.4" cy="275.7" r="14.2" fill="#f2ecd8"/><circle cx="448.8" cy="275.1" r="13.0" fill="#f2ecd8"/><circle cx="478.3" cy="263.2" r="14.0" fill="#7fb069"/><circle cx="375.4" cy="273.4" r="10.5" fill="#7fb069"/><circle cx="305.3" cy="254.4" r="11.2" fill="#f2ecd8"/><circle cx="450.1" cy="260.9" r="15.0" fill="#f2ecd8"/><circle cx="449.5" cy="260.6" r="18.1" fill="#7fb069"/><circle cx="391.7" cy="277.5" r="13.6" fill="#7fb069"/><circle cx="443.6" cy="257.2" r="15.4" fill="#f2ecd8"/><circle cx="400.9" cy="276.4" r="16.8" fill="#f2ecd8"/><circle cx="441.8" cy="274.6" r="18.5" fill="#f2ecd8"/><circle cx="391.1" cy="279.5" r="14.7" fill="#e05d5d"/><circle cx="485.1" cy="275.7" r="10.9" fill="#e05d5d"/><circle cx="350.9" cy="274.6" r="17.8" fill="#e05d5d"/><circle cx="348.4" cy="258.2" r="16.2" fill="#7fb069"/><circle cx="314.6" cy="272.7" r="14.4" fill="#e05d5d"/><rect x="280" y="280" width="240" height="130" rx="40" fill="none" stroke="#111" stroke-width="3"/></svg>