<svg xmlns="http://www.w3.org/2000/svg" viewBox="0 0 800 600"><defs><radialGradient id="bg-ebi-spays" cx="50%" cy="35%" r="80%"><stop offset="0%" stop-color="#26262c"/><stop offset="100%" stop-color="#141417"/></radialGradient></defs><rect width="800" height="600" fill="url(#bg-ebi-spays)"/><ellipse cx="400" cy="410" rx="150" ry="26" fill="#000" opacity="0.35"/><rect x="280" y="280" width="240" height="130" rx="40" fill="#23272a"/><circle cx="333.1" cy="269.6" r="13.4" fill="#f2a48e"/><circle cx="438.5" cy="266.6" r="13.7" fill="#f2a48e"/><circle cx="315.3" cy="273.0" r="12.4" fill="#f2a48e"/><circle cx="451.0" cy="271.7" r="10.4" fill="#f2a48e"/><circle cx="487.2" cy="254.2" r="12.4" fill="#f2a48e"/><circle cx="441.4" cy="273.8" r="16.5" fill="#f2a48e"/><circle cx="338.3" cy="270.4" r="10.2" fill="#f2a48e"/><circle cx="426.2" cy="271.1" r="14.8" fill="#f2a48e"/><circle cx="481.4" cy="279.4" r="12.3" fill="#f2a48e"/><circle cx="484.7" cy="270.1" r="18.7" fill="#f2a48e"/><circle cx="377.8" cy="271.7" r="14.7" fill="#f2a48e"/><circle cx="369.5" cy="263.7" r="13.0" fill="#f2a48e"/><circle cx="409.7" cy="259.2" r="14.9" fill="#f2a48e"/><circle cx="389.5" cy="252.1" r="13.9" fill="#f2a48e"/><circle cx="494.1" cy="255.7" r="17.7" fill="#f2a48e"/><circle cx="405.2" cy="274.5" r="11.8" fill="#f2a48e"/><circle cx="431.9" cy="270.3" r="14.7" fill="#f2a48e"/><circle cx="494.9" cy="259.8" r="18.6" fill="#f2a48e"/><circle cx="403.7" cy="259.6" r="15.3" fill="#f2a48e"/><circle cx="445.2" cy="254.7" r="17.3" fill="#f2a48e"/><circle cx="485.6" cy="265.1" r="12.6" fill="#f2a48e"/><circle cx="312.6" cy="257.0" r="14.9" fill="#f2a48e"/><circle cx="465.4" cy="278.2" r="17.9" fill="#f2a48e"/><circle cx="387.0" cy="263.3" r="13.8" fill="#f2a48e"/><rect x="280" y="280" width="240" height="130" rx="40" fill="none" stroke="#111" stroke-width="3"/></svg>