<svg xmlns="http://www.w3.org/2000/svg" viewBox="0 0 800 600"><defs><radialGradient id="bg-ebi-tortilya" cx="50%" cy="35%" r="80%"><stop offset="0%" stop-color="#ffffff"/><stop offset="100%" stop-color="#efeff2"/></radialGradient></defs><rect width="800" height="600" fill="url(#bg-ebi-tortilya)"/><circle cx="235.32741773873568" cy="207.00599616579711" r="70" fill="#000" opacity="0.1"/><circle cx="235.32741773873568" cy="201.00599616579711" r="70" fill="#d9a45b" stroke="#c08c4a" stroke-width="2"/><circle cx="294.3" cy="226.9" r="5.8" fill="#b5854e"/><circle cx="284.2" cy="243.0" r="4.9" fill="#b5854e"/><circle cx="259.8" cy="260.6" r="5.1" fill="#b5854e"/><circle cx="190.7" cy="247.4" r="3.5" fill="#b5854e"/><circle cx="191.9" cy="248.6" r="3.8" fill="#b5854e"/><circle cx="181.4" cy="236.3" r="5.0" fill="#b5854e"/><circle cx="179.4" cy="169.1" r="3.7" fill="#b5854e"/><circle cx="175.4" cy="177.5" r="6.4" fill="#b5854e"/><circle cx="210.2" cy="141.7" r="3.4" fill="#b5854e"/><circle cx="202.0" cy="145.9" r="4.0" fill="#b5854e"/><circle cx="271.8" cy="148.0" r="3.4" fill="#b5854e"/><circle cx="255.3" cy="139.8" r="4.4" fill="#b5854e"/><circle cx="277.8" cy="152.6" r="3.5" fill="#b5854e"/><circle cx="299.2" cy="193.1" r="4.2" fill="#b5854e"/><circle cx="235.32741773873568" cy="201.00599616579711" r="50.4" fill="#f5f2e8"/><circle cx="250.0" cy="205.7" r="18.2" fill="#f2a48e"/><circle cx="227.3" cy="214.2" r="18.2" fill="#7fb069"/><circle cx="228.7" cy="187.1" r="18.2" fill="#f2ecd8"/><circle cx="399.4129788801074" cy="209.48775491677225" r="70" fill="#000" opacity="0.1"/><circle cx="399.4129788801074" cy="203.48775491677225" r="70" fill="#d9a45b" stroke="#c08c4a" stroke-width="2"/><circle cx="463.4" cy="210.7" r="4.1" fill="#b5854e"/><circle cx="419.5" cy="264.7" r="5.7" fill="#b5854e"/><circle cx="380.6" cy="265.1" r="5.0" fill="#b5854e"/><circle cx="367.4" cy="259.4" r="6.0" fill="#b5854e"/><circle cx="339.3" cy="226.6" r="3.2" fill="#b5854e"/><circle cx="344.0" cy="236.3" r="6.8" fill="#b5854e"/><circle cx="340.4" cy="177.6" r="6.7" fill="#b5854e"/><circle cx="344.9" cy="169.1" r="6.3" fill="#b5854e"/><circle cx="383.7" cy="141.0" r="5.9" fill="#b5854e"/><circle cx="361.2" cy="151.7" r="5.1" fill="#b5854e"/><circle cx="391.5" cy="139.6" r="3.7" fill="#b5854e"/><circle cx="419.8" cy="142.4" r="5.1" fill="#b5854e"/><circle cx="449.1" cy="162.5" r="4.7" fill="#b5854e"/><circle cx="462.4" cy="217.0" r="3.3" fill="#b5854e"/><circle cx="399.4129788801074" cy="203.48775491677225" r="50.4" fill="#f5f2e8"/><circle cx="413.7" cy="209.1" r="18.2" fill="#f2a48e"/><circle cx="389.8" cy="215.5" r="18.2" fill="#7fb069"/><circle cx="398.2" cy="188.1" r="18.2" fill="#f2ecd8"/><circle cx="563.8056811448187" cy="201.56074655614793" r="70" fill="#000" opacity="0.1"/><circle cx="563.8056811448187" cy="195.56074655614793" r="70" fill="#d9a45b" stroke="#c08c4a" stroke-width="2"/><circle cx="615.1" cy="234.5" r="4.8" fill="#b5854e"/><circle cx="610.2" cy="240.2" r="3.4" fill="#b5854e"/><circle cx="562.8" cy="260.0" r="5.1" fill="#b5854e"/><circle cx="549.7" cy="258.4" r="6.7" fill="#b5854e"/><circle cx="524.6" cy="246.6" r="6.1" fill="#b5854e"/><circle cx="502.0" cy="213.8" r="4.5" fill="#b5854e"/><circle cx="507.0" cy="165.3" r="5.2" fill="#b5854e"/><circle cx="502.4" cy="176.3" r="6.0" fill="#b5854e"/><circle cx="511.1" cy="158.5" r="4.2" fill="#b5854e"/><circle cx="552.0" cy="132.3" r="4.5" fill="#b5854e"/><circle cx="554.9" cy="131.8" r="4.1" fill="#b5854e"/><circle cx="622.4" cy="168.8" r="5.0" fill="#b5854e"/><circle cx="625.1" cy="175.9" r="4.2" fill="#b5854e"/><circle cx="628.1" cy="199.0" r="4.8" fill="#b5854e"/><circle cx="563.8056811448187" cy="195.56074655614793" r="50.4" fill="#f5f2e8"/><circle cx="578.8" cy="199.2" r="18.2" fill="#f2a48e"/><circle cx="554.4" cy="207.8" r="18.2" fill="#7fb069"/><circle cx="558.0" cy="181.3" r="18.2" fill="#f2ecd8"/><circle cx="237.80046338960528" cy="364.8939010258764" r="70" fill="#000" opacity="0.1"/><circle cx="237.80046338960528" cy="358.8939010258764" r="70" fill="#d9a45b" stroke="#c08c4a" stroke-width="2"/><circle cx="301.0" cy="371.5" r="3.6" fill="#b5854e"/><circle cx="288.4" cy="398.7" r="5.7" fill="#b5854e"/><circle cx="259.7" cy="419.4" r="6.7" fill="#b5854e"/><circle cx="233.9" cy="423.2" r="6.2" fill="#b5854e"/><circle cx="200.2" cy="411.2" r="3.5" fill="#b5854e"/><circle cx="180.6" cy="388.4" r="3.3" fill="#b5854e"/><circle cx="173.7" cy="365.1" r="4.7" fill="#b5854e"/><circle cx="178.8" cy="333.0" r="5.4" fill="#b5854e"/><circle cx="194.7" cy="311.1" r="4.9" fill="#b5854e"/><circle cx="217.1" cy="297.9" r="4.9" fill="#b5854e"/><circle cx="265.5" cy="300.8" r="5.6" fill="#b5854e"/><circle cx="283.4" cy="313.4" r="3.4" fill="#b5854e"/><circle cx="288.4" cy="319.0" r="3.9" fill="#b5854e"/><circle cx="302.1" cy="363.3" r="3.1" fill="#b5854e"/><circle cx="237.80046338960528" cy="358.8939010258764" r="50.4" fill="#f5f2e8"/><circle cx="251.5" cy="365.9" r="18.2" fill="#f2a48e"/><circle cx="225.8" cy="368.6" r="18.2" fill="#7fb069"/><circle cx="236.6" cy="343.5" r="18.2" fill="#f2ecd8"/><circle cx="401.7795065995306" cy="366.6878920253366" r="70" fill="#000" opacity="0.1"/><circle cx="401.7795065995306" cy="360.6878920253366" r="70" fill="#d9a45b" stroke="#c08c4a" stroke-width="2"/><circle cx="438.5" cy="413.6" r="6.7" fill="#b5854e"/><circle cx="456.2" cy="395.1" r="6.8" fill="#b5854e"/><circle cx="413.2" cy="424.1" r="5.1" fill="#b5854e"/><circle cx="410.7" cy="424.5" r="5.2" fill="#b5854e"/><circle cx="354.7" cy="404.7" r="4.2" fill="#b5854e"/><circle cx="353.7" cy="403.5" r="6.0" fill="#b5854e"/><circle cx="342.3" cy="385.4" r="3.7" fill="#b5854e"/><circle cx="352.7" cy="319.0" r="4.6" fill="#b5854e"/><circle cx="378.2" cy="300.7" r="6.3" fill="#b5854e"/><circle cx="391.4" cy="297.1" r="4.7" fill="#b5854e"/><circle cx="439.1" cy="308.2" r="3.2" fill="#b5854e"/><circle cx="454.0" cy="323.1" r="3.2" fill="#b5854e"/><circle cx="459.9" cy="332.9" r="6.8" fill="#b5854e"/><circle cx="464.3" cy="376.0" r="7.0" fill="#b5854e"/><circle cx="401.7795065995306" cy="360.6878920253366" r="50.4" fill="#f5f2e8"/><circle cx="415.6" cy="367.5" r="18.2" fill="#f2a48e"/><circle cx="393.8" cy="373.8" r="18.2" fill="#7fb069"/><circle cx="400.5" cy="345.3" r="18.2" fill="#f2ecd8"/><circle cx="563.8085604924709" cy="368.16516121290624" r="70" fill="#000" opacity="0.1"/><circle cx="563.8085604924709" cy="362.16516121290624" r="70" fill="#d9a45b" stroke="#c08c4a" stroke-width="2"/><circle cx="623.4" cy="386.6" r="4.5" fill="#b5854e"/><circle cx="575.7" cy="425.5" r="3.5" fill="#b5854e"/><circle cx="566.0" cy="426.5" r="4.6" fill="#b5854e"/><circle cx="519.9" cy="409.3" r="3.0" fill="#b5854e"/><circle cx="515.6" cy="404.8" r="6.6" fill="#b5854e"/><circle cx="507.0" cy="392.5" r="3.5" fill="#b5854e"/><circle cx="500.4" cy="373.6" r="5.4" fill="#b5854e"/><circle cx="515.9" cy="319.2" r="3.2" fill="#b5854e"/><circle cx="532.3" cy="306.0" r="6.8" fill="#b5854e"/><circle cx="537.6" cy="303.3" r="3.2" fill="#b5854e"/><circle cx="558.7" cy="298.0" r="3.5" fill="#b5854e"/><circle cx="616.0" cy="324.4" r="5.1" fill="#b5854e"/><circle cx="613.4" cy="321.1" r="3.6" fill="#b5854e"/><circle cx="627.7" cy="354.4" r="6.3" fill="#b5854e"/><circle cx="563.8085604924709" cy="362.16516121290624" r="50.4" fill="#f5f2e8"/><circle cx="577.7" cy="368.8" r="18.2" fill="#f2a48e"/><circle cx="552.1" cy="372.2" r="18.2" fill="#7fb069"/><circle cx="560.2" cy="347.2" r="18.2" fill="#f2ecd8"/></svg>