<svg xmlns="http://www.w3.org/2000/svg" viewBox="0 0 800 600"><defs><radialGradient id="bg-ebi-tempura" cx="50%" cy="35%" r="80%"><stop offset="0%" stop-color="#26262c"/><stop offset="100%" stop-color="#141417"/></radialGradient></defs><rect width="800" height="600" fill="url(#bg-ebi-tempura)"/><circle cx="239.24872077815235" cy="206.96990682184696" r="70" fill="#000" opacity="0.35"/><circle cx="239.24872077815235" cy="200.96990682184696" r="70" fill="#d9a45b"/><circle cx="299.8" cy="222.9" r="4.0" fill="#b5854e"/><circle cx="293.6" cy="235.5" r="5.0" fill="#b5854e"/><circle cx="254.3" cy="263.6" r="4.1" fill="#b5854e"/><circle cx="215.3" cy="260.8" r="5.3" fill="#b5854e"/><circle cx="184.2" cy="234.3" r="5.9" fill="#b5854e"/><circle cx="192.8" cy="245.6" r="4.5" fill="#b5854e"/><circle cx="183.0" cy="169.5" r="3.5" fill="#b5854e"/><circle cx="203.7" cy="147.3" r="3.6" fill="#b5854e"/><circle cx="200.3" cy="149.7" r="3.2" fill="#b5854e"/><circle cx="237.3" cy="136.6" r="3.3" fill="#b5854e"/><circle cx="267.8" cy="143.2" r="6.7" fill="#b5854e"/><circle cx="295.8" cy="170.2" r="6.8" fill="#b5854e"/><circle cx="285.0" cy="155.7" r="3.2" fill="#b5854e"/><circle cx="302.5" cy="188.8" r="5.1" fill="#b5854e"/><circle cx="239.24872077815235" cy="200.96990682184696" r="50.4" fill="#f5f2e8"/><circle cx="254.1" cy="205.0" r="18.2" fill="#f2a48e"/><circle cx="228.1" cy="211.6" r="18.2" fill="#7fb069"/><circle cx="233.7" cy="186.6" r="18.2" fill="#f2ecd8"/><circle cx="398.7685425952077" cy="209.2577889189124" r="70" fill="#000" opacity="0.35"/><circle cx="398.7685425952077" cy="203.2577889189124" r="70" fill="#d9a45b"/><circle cx="440.1" cy="252.7" r="5.8" fill="#b5854e"/><circle cx="451.9" cy="239.7" r="3.2" fill="#b5854e"/><circle cx="434.6" cy="256.7" r="6.7" fill="#b5854e"/><circle cx="388.5" cy="266.8" r="3.9" fill="#b5854e"/><circle cx="356.6" cy="252.0" r="5.4" fill="#b5854e"/><circle cx="334.4" cy="200.1" r="3.5" fill="#b5854e"/><circle cx="335.5" cy="215.4" r="5.9" fill="#b5854e"/><circle cx="337.7" cy="182.7" r="4.1" fill="#b5854e"/><circle cx="368.6" cy="146.3" r="3.7" fill="#b5854e"/><circle cx="364.8" cy="148.5" r="4.2" fill="#b5854e"/><circle cx="425.9" cy="144.9" r="6.5" fill="#b5854e"/><circle cx="447.9" cy="161.6" r="6.1" fill="#b5854e"/><circle cx="463.1" cy="201.0" r="3.5" fill="#b5854e"/><circle cx="459.2" cy="181.1" r="3.1" fill="#b5854e"/><circle cx="398.7685425952077" cy="203.2577889189124" r="50.4" fill="#f5f2e8"/><circle cx="414.0" cy="205.4" r="18.2" fill="#f2a48e"/><circle cx="385.6" cy="211.3" r="18.2" fill="#7fb069"/><circle cx="397.4" cy="187.9" r="18.2" fill="#f2ecd8"/><circle cx="557.3452595956624" cy="202.9960839804262" r="70" fill="#000" opacity="0.35"/><circle cx="557.3452595956624" cy="196.9960839804262" r="70" fill="#d9a45b"/><circle cx="620.7" cy="208.5" r="4.0" fill="#b5854e"/><circle cx="592.2" cy="251.1" r="4.6" fill="#b5854e"/><circle cx="565.0" cy="260.9" r="3.5" fill="#b5854e"/><circle cx="568.3" cy="260.5" r="3.9" fill="#b5854e"/><circle cx="500.7" cy="227.7" r="4.7" fill="#b5854e"/><circle cx="500.1" cy="226.5" r="3.8" fill="#b5854e"/><circle cx="493.2" cy="203.3" r="5.7" fill="#b5854e"/><circle cx="521.7" cy="143.4" r="4.2" fill="#b5854e"/><circle cx="529.0" cy="139.2" r="4.0" fill="#b5854e"/><circle cx="520.0" cy="144.5" r="3.4" fill="#b5854e"/><circle cx="551.2" cy="132.9" r="3.8" fill="#b5854e"/><circle cx="580.8" cy="137.0" r="3.9" fill="#b5854e"/><circle cx="621.1" cy="188.1" r="3.9" fill="#b5854e"/><circle cx="621.5" cy="202.4" r="4.9" fill="#b5854e"/><circle cx="557.3452595956624" cy="196.9960839804262" r="50.4" fill="#f5f2e8"/><circle cx="572.0" cy="201.7" r="18.2" fill="#f2a48e"/><circle cx="545.9" cy="207.3" r="18.2" fill="#7fb069"/><circle cx="550.6" cy="183.1" r="18.2" fill="#f2ecd8"/><circle cx="239.27968120761216" cy="369.5090366397053" r="70" fill="#000" opacity="0.35"/><circle cx="239.27968120761216" cy="363.5090366397053" r="70" fill="#d9a45b"/><circle cx="303.7" cy="364.9" r="3.9" fill="#b5854e"/><circle cx="294.0" cy="397.4" r="5.6" fill="#b5854e"/><circle cx="241.5" cy="427.9" r="6.6" fill="#b5854e"/><circle cx="218.1" cy="424.3" r="3.4" fill="#b5854e"/><circle cx="183.0" cy="394.8" r="3.9" fill="#b5854e"/><circle cx="176.4" cy="377.6" r="4.1" fill="#b5854e"/><circle cx="178.2" cy="343.1" r="6.1" fill="#b5854e"/><circle cx="186.6" cy="326.5" r="6.9" fill="#b5854e"/><circle cx="190.2" cy="321.8" r="6.5" fill="#b5854e"/><circle cx="214.4" cy="304.1" r="6.5" fill="#b5854e"/><circle cx="275.3" cy="310.1" r="6.5" fill="#b5854e"/><circle cx="289.1" cy="322.7" r="3.7" fill="#b5854e"/><circle cx="285.4" cy="318.5" r="5.7" fill="#b5854e"/><circle cx="303.1" cy="372.1" r="6.0" fill="#b5854e"/><circle cx="239.27968120761216" cy="363.5090366397053" r="50.4" fill="#f5f2e8"/><circle cx="253.9" cy="368.4" r="18.2" fill="#f2a48e"/><circle cx="226.2" cy="371.7" r="18.2" fill="#7fb069"/><circle cx="232.1" cy="349.9" r="18.2" fill="#f2ecd8"/><circle cx="398.52209760807455" cy="367.22167445346713" r="70" fill="#000" opacity="0.35"/><circle cx="398.52209760807455" cy="361.22167445346713" r="70" fill="#d9a45b"/><circle cx="460.5" cy="378.8" r="3.9" fill="#b5854e"/><circle cx="426.0" cy="419.5" r="5.9" fill="#b5854e"/><circle cx="417.1" cy="422.9" r="4.0" fill="#b5854e"/><circle cx="388.2" cy="424.8" r="4.6" fill="#b5854e"/><circle cx="378.7" cy="422.5" r="5.5" fill="#b5854e"/><circle cx="344.7" cy="396.5" r="4.3" fill="#b5854e"/><circle cx="335.1" cy="372.5" r="5.5" fill="#b5854e"/><circle cx="334.3" cy="356.6" r="6.2" fill="#b5854e"/><circle cx="368.7" cy="304.2" r="6.3" fill="#b5854e"/><circle cx="387.4" cy="297.8" r="6.6" fill="#b5854e"/><circle cx="434.2" cy="307.6" r="4.4" fill="#b5854e"/><circle cx="455.7" cy="331.6" r="5.8" fill="#b5854e"/><circle cx="457.3" cy="334.9" r="3.0" fill="#b5854e"/><circle cx="461.6" cy="374.0" r="5.9" fill="#b5854e"/><circle cx="398.52209760807455" cy="361.22167445346713" r="50.4" fill="#f5f2e8"/><circle cx="413.6" cy="364.5" r="18.2" fill="#f2a48e"/><circle cx="386.9" cy="371.3" r="18.2" fill="#7fb069"/><circle cx="398.0" cy="345.8" r="18.2" fill="#f2ecd8"/><circle cx="559.5726551096886" cy="370.0730775501579" r="70" fill="#000" opacity="0.35"/><circle cx="559.5726551096886" cy="364.0730775501579" r="70" fill="#d9a45b"/><circle cx="615.7" cy="395.6" r="3.4" fill="#b5854e"/><circle cx="569.4" cy="427.7" r="5.5" fill="#b5854e"/><circle cx="552.6" cy="428.1" r="6.2" fill="#b5854e"/><circle cx="545.9" cy="427.0" r="3.1" fill="#b5854e"/><circle cx="539.4" cy="425.2" r="5.6" fill="#b5854e"/><circle cx="497.6" cy="381.7" r="6.1" fill="#b5854e"/><circle cx="502.1" cy="335.0" r="5.2" fill="#b5854e"/><circle cx="506.1" cy="328.2" r="3.8" fill="#b5854e"/><circle cx="509.2" cy="323.9" r="4.7" fill="#b5854e"/><circle cx="561.4" cy="299.7" r="3.8" fill="#b5854e"/><circle cx="547.5" cy="300.8" r="3.8" fill="#b5854e"/><circle cx="607.4" cy="320.9" r="4.8" fill="#b5854e"/><circle cx="621.1" cy="345.2" r="6.4" fill="#b5854e"/><circle cx="622.2" cy="349.2" r="4.6" fill="#b5854e"/><circle cx="559.5726551096886" cy="364.0730775501579" r="50.4" fill="#f5f2e8"/><circle cx="574.8" cy="366.7" r="18.2" fill="#f2a48e"/><circle cx="550.5" cy="376.5" r="18.2" fill="#7fb069"/><circle cx="554.4" cy="349.6" r="18.2" fill="#f2ecd8"/></svg>