<svg xmlns="http://www.w3.org/2000/svg" viewBox="0 0 800 600"><defs><radialGradient id="bg-ebi-royal" cx="50%" cy="35%" r="80%"><stop offset="0%" stop-color="#26262c"/><stop offset="100%" stop-color="#141417"/></radialGradient></defs><rect width="800" height="600" fill="url(#bg-ebi-royal)"/><circle cx="241.99320273846388" cy="207.04106559976935" r="70" fill="#000" opacity="0.35"/><circle cx="241.99320273846388" cy="201.04106559976935" r="70" fill="#f5f2e8"/><circle cx="241.99320273846388" cy="201.04106559976935" r="60.199999999999996" fill="#f5f2e8"/><ellipse cx="241.0" cy="145.5" rx="4" ry="2" fill="#e6e0cf" transform="rotate(48 241.0 145.5)"/><ellipse cx="285.3" cy="163.7" rx="4" ry="2" fill="#e6e0cf" transform="rotate(84 285.3 163.7)"/><ellipse cx="268.3" cy="249.9" rx="4" ry="2" fill="#e6e0cf" transform="rotate(68 268.3 249.9)"/><ellipse cx="211.3" cy="236.3" rx="4" ry="2" fill="#e6e0cf" transform="rotate(35 211.3 236.3)"/><ellipse cx="275.1" cy="170.0" rx="4" ry="2" fill="#e6e0cf" transform="rotate(3 275.1 170.0)"/><ellipse cx="283.4" cy="172.8" rx="4" ry="2" fill="#e6e0cf" transform="rotate(19 283.4 172.8)"/><ellipse cx="253.0" cy="158.9" rx="4" ry="2" fill="#e6e0cf" transform="rotate(167 253.0 158.9)"/><ellipse cx="231.0" cy="149.9" rx="4" ry="2" fill="#e6e0cf" transform="rotate(53 231.0 149.9)"/><ellipse cx="219.3" cy="158.5" rx="4" ry="2" fill="#e6e0cf" transform="rotate(49 219.3 158.5)"/><ellipse cx="217.7" cy="239.0" rx="4" ry="2" fill="#e6e0cf" transform="rotate(157 217.7 239.0)"/><circle cx="256.5" cy="206.3" r="18.2" fill="#ef8354"/><circle cx="230.1" cy="210.9" r="18.2" fill="#f2a48e"/><circle cx="235.5" cy="187.1" r="18.2" fill="#7fb069"/><circle cx="402.09085967950523" cy="202.33092786930501" r="70" fill="#000" opacity="0.35"/><circle cx="402.09085967950523" cy="196.33092786930501" r="70" fill="#f5f2e8"/><circle cx="402.09085967950523" cy="196.33092786930501" r="60.199999999999996" fill="#f5f2e8"/><ellipse cx="439.9" cy="153.5" rx="4" ry="2" fill="#e6e0cf" transform="rotate(124 439.9 153.5)"/><ellipse cx="443.6" cy="177.7" rx="4" ry="2" fill="#e6e0cf" transform="rotate(154 443.6 177.7)"/><ellipse cx="360.6" cy="217.7" rx="4" ry="2" fill="#e6e0cf" transform="rotate(66 360.6 217.7)"/><ellipse cx="456.3" cy="204.2" rx="4" ry="2" fill="#e6e0cf" transform="rotate(145 456.3 204.2)"/><ellipse cx="428.4" cy="155.8" rx="4" ry="2" fill="#e6e0cf" transform="rotate(16 428.4 155.8)"/><ellipse cx="394.7" cy="144.2" rx="4" ry="2" fill="#e6e0cf" transform="rotate(20 394.7 144.2)"/><ellipse cx="442.2" cy="166.0" rx="4" ry="2" fill="#e6e0cf" transform="rotate(16 442.2 166.0)"/><ellipse cx="456.8" cy="181.3" rx="4" ry="2" fill="#e6e0cf" transform="rotate(69 456.8 181.3)"/><ellipse cx="359.6" cy="211.2" rx="4" ry="2" fill="#e6e0cf" transform="rotate(140 359.6 211.2)"/><ellipse cx="417.8" cy="249.3" rx="4" ry="2" fill="#e6e0cf" transform="rotate(31 417.8 249.3)"/><circle cx="417.1" cy="199.6" r="18.2" fill="#ef8354"/><circle cx="389.8" cy="205.6" r="18.2" fill="#f2a48e"/><circle cx="398.5" cy="181.4" r="18.2" fill="#7fb069"/><circle cx="564.157864684239" cy="203.9639538116753" r="70" fill="#000" opacity="0.35"/><circle cx="564.157864684239" cy="197.9639538116753" r="70" fill="#f5f2e8"/><circle cx="564.157864684239" cy="197.9639538116753" r="60.199999999999996" fill="#f5f2e8"/><ellipse cx="577.1" cy="250.2" rx="4" ry="2" fill="#e6e0cf" transform="rotate(19 577.1 250.2)"/><ellipse cx="514.1" cy="218.2" rx="4" ry="2" fill="#e6e0cf" transform="rotate(92 514.1 218.2)"/><ellipse cx="522.5" cy="214.3" rx="4" ry="2" fill="#e6e0cf" transform="rotate(2 522.5 214.3)"/><ellipse cx="536.8" cy="156.0" rx="4" ry="2" fill="#e6e0cf" transform="rotate(22 536.8 156.0)"/><ellipse cx="518.0" cy="190.6" rx="4" ry="2" fill="#e6e0cf" transform="rotate(41 518.0 190.6)"/><ellipse cx="598.5" cy="159.8" rx="4" ry="2" fill="#e6e0cf" transform="rotate(64 598.5 159.8)"/><ellipse cx="612.1" cy="187.8" rx="4" ry="2" fill="#e6e0cf" transform="rotate(14 612.1 187.8)"/><ellipse cx="543.8" cy="246.3" rx="4" ry="2" fill="#e6e0cf" transform="rotate(66 543.8 246.3)"/><ellipse cx="567.6" cy="154.3" rx="4" ry="2" fill="#e6e0cf" transform="rotate(26 567.6 154.3)"/><ellipse cx="573.4" cy="149.3" rx="4" ry="2" fill="#e6e0cf" transform="rotate(139 573.4 149.3)"/><circle cx="578.2" cy="204.3" r="18.2" fill="#ef8354"/><circle cx="555.7" cy="210.8" r="18.2" fill="#f2a48e"/><circle cx="563.6" cy="182.6" r="18.2" fill="#7fb069"/><circle cx="236.32070446014404" cy="365.9537269510329" r="70" fill="#000" opacity="0.35"/><circle cx="236.32070446014404" cy="359.9537269510329" r="70" fill="#f5f2e8"/><circle cx="236.32070446014404" cy="359.9537269510329" r="60.199999999999996" fill="#f5f2e8"/><ellipse cx="231.7" cy="308.4" rx="4" ry="2" fill="#e6e0cf" transform="rotate(175 231.7 308.4)"/><ellipse cx="202.2" cy="387.4" rx="4" ry="2" fill="#e6e0cf" transform="rotate(33 202.2 387.4)"/><ellipse cx="229.7" cy="312.2" rx="4" ry="2" fill="#e6e0cf" transform="rotate(143 229.7 312.2)"/><ellipse cx="202.3" cy="317.9" rx="4" ry="2" fill="#e6e0cf" transform="rotate(6 202.3 317.9)"/><ellipse cx="205.2" cy="392.8" rx="4" ry="2" fill="#e6e0cf" transform="rotate(5 205.2 392.8)"/><ellipse cx="182.0" cy="372.9" rx="4" ry="2" fill="#e6e0cf" transform="rotate(13 182.0 372.9)"/><ellipse cx="208.5" cy="406.5" rx="4" ry="2" fill="#e6e0cf" transform="rotate(71 208.5 406.5)"/><ellipse cx="276.2" cy="388.1" rx="4" ry="2" fill="#e6e0cf" transform="rotate(20 276.2 388.1)"/><ellipse cx="217.0" cy="319.3" rx="4" ry="2" fill="#e6e0cf" transform="rotate(121 217.0 319.3)"/><ellipse cx="271.1" cy="319.4" rx="4" ry="2" fill="#e6e0cf" transform="rotate(176 271.1 319.4)"/><circle cx="251.7" cy="360.9" r="18.2" fill="#ef8354"/><circle cx="226.4" cy="371.7" r="18.2" fill="#f2a48e"/><circle cx="228.9" cy="346.4" r="18.2" fill="#7fb069"/><circle cx="400.3725423272699" cy="362.9624175876379" r="70" fill="#000" opacity="0.35"/><circle cx="400.3725423272699" cy="356.9624175876379" r="70" fill="#f5f2e8"/><circle cx="400.3725423272699" cy="356.9624175876379" r="60.199999999999996" fill="#f5f2e8"/><ellipse cx="376.1" cy="396.0" rx="4" ry="2" fill="#e6e0cf" transform="rotate(110 376.1 396.0)"/><ellipse cx="394.1" cy="313.6" rx="4" ry="2" fill="#e6e0cf" transform="rotate(159 394.1 313.6)"/><ellipse cx="377.4" cy="315.4" rx="4" ry="2" fill="#e6e0cf" transform="rotate(32 377.4 315.4)"/><ellipse cx="452.5" cy="375.5" rx="4" ry="2" fill="#e6e0cf" transform="rotate(86 452.5 375.5)"/><ellipse cx="446.2" cy="339.4" rx="4" ry="2" fill="#e6e0cf" transform="rotate(170 446.2 339.4)"/><ellipse cx="456.5" cy="354.5" rx="4" ry="2" fill="#e6e0cf" transform="rotate(120 456.5 354.5)"/><ellipse cx="436.3" cy="388.6" rx="4" ry="2" fill="#e6e0cf" transform="rotate(88 436.3 388.6)"/><ellipse cx="397.4" cy="400.9" rx="4" ry="2" fill="#e6e0cf" transform="rotate(161 397.4 400.9)"/><ellipse cx="358.9" cy="390.1" rx="4" ry="2" fill="#e6e0cf" transform="rotate(115 358.9 390.1)"/><ellipse cx="425.4" cy="405.7" rx="4" ry="2" fill="#e6e0cf" transform="rotate(168 425.4 405.7)"/><circle cx="414.5" cy="363.0" r="18.2" fill="#ef8354"/><circle cx="388.2" cy="366.3" r="18.2" fill="#f2a48e"/><circle cx="395.6" cy="342.3" r="18.2" fill="#7fb069"/><circle cx="560.5489818416536" cy="366.3788657784462" r="70" fill="#000" opacity="0.35"/><circle cx="560.5489818416536" cy="360.3788657784462" r="70" fill="#f5f2e8"/><circle cx="560.5489818416536" cy="360.3788657784462" r="60.199999999999996" fill="#f5f2e8"/><ellipse cx="609.9" cy="335.4" rx="4" ry="2" fill="#e6e0cf" transform="rotate(49 609.9 335.4)"/><ellipse cx="541.3" cy="306.8" rx="4" ry="2" fill="#e6e0cf" transform="rotate(125 541.3 306.8)"/><ellipse cx="571.0" cy="405.4" rx="4" ry="2" fill="#e6e0cf" transform="rotate(127 571.0 405.4)"/><ellipse cx="506.8" cy="355.9" rx="4" ry="2" fill="#e6e0cf" transform="rotate(152 506.8 355.9)"/><ellipse cx="601.2" cy="394.4" rx="4" ry="2" fill="#e6e0cf" transform="rotate(146 601.2 394.4)"/><ellipse cx="539.4" cy="322.0" rx="4" ry="2" fill="#e6e0cf" transform="rotate(36 539.4 322.0)"/><ellipse cx="509.8" cy="356.8" rx="4" ry="2" fill="#e6e0cf" transform="rotate(26 509.8 356.8)"/><ellipse cx="515.7" cy="388.1" rx="4" ry="2" fill="#e6e0cf" transform="rotate(54 515.7 388.1)"/><ellipse cx="582.7" cy="399.4" rx="4" ry="2" fill="#e6e0cf" transform="rotate(67 582.7 399.4)"/><ellipse cx="605.8" cy="357.8" rx="4" ry="2" fill="#e6e0cf" transform="rotate(107 605.8 357.8)"/><circle cx="574.8" cy="366.2" r="18.2" fill="#ef8354"/><circle cx="548.0" cy="369.4" r="18.2" fill="#f2a48e"/><circle cx="553.9" cy="346.5" r="18.2" fill="#7fb069"/></svg>