<svg xmlns="http://www.w3.org/2000/svg" viewBox="0 0 800 600"><defs><radialGradient id="bg-filadelfiya" cx="50%" cy="35%" r="80%"><stop offset="0%" stop-color="#ffffff"/><stop offset="100%" stop-color="#efeff2"/></radialGradient></defs><rect width="800" height="600" fill="url(#bg-filadelfiya)"/><circle cx="235.87417328730226" cy="206.7066432852298" r="70" fill="#000" opacity="0.1"/><circle cx="235.87417328730226" cy="200.7066432852298" r="70" fill="#f5f2e8" stroke="#e0d9c2" stroke-width="2"/><circle cx="235.87417328730226" cy="200.7066432852298" r="60.199999999999996" fill="#f5f2e8"/><ellipse cx="193.0" cy="209.3" rx="4" ry="2" fill="#e6e0cf" transform="rotate(24 193.0 209.3)"/><ellipse cx="250.8" cy="155.4" rx="4" ry="2" fill="#e6e0cf" transform="rotate(106 250.8 155.4)"/><ellipse cx="256.7" cy="252.8" rx="4" ry="2" fill="#e6e0cf" transform="rotate(145 256.7 252.8)"/><ellipse cx="254.9" cy="148.9" rx="4" ry="2" fill="#e6e0cf" transform="rotate(87 254.9 148.9)"/><ellipse cx="245.9" cy="156.5" rx="4" ry="2" fill="#e6e0cf" transform="rotate(106 245.9 156.5)"/><ellipse cx="192.4" cy="220.2" rx="4" ry="2" fill="#e6e0cf" transform="rotate(49 192.4 220.2)"/><ellipse cx="211.4" cy="157.0" rx="4" ry="2" fill="#e6e0cf" transform="rotate(63 211.4 157.0)"/><ellipse cx="283.5" cy="221.9" rx="4" ry="2" fill="#e6e0cf" transform="rotate(147 283.5 221.9)"/><ellipse cx="191.2" cy="188.3" rx="4" ry="2" fill="#e6e0cf" transform="rotate(126 191.2 188.3)"/><ellipse cx="224.7" cy="155.0" rx="4" ry="2" fill="#e6e0cf" transform="rotate(119 224.7 155.0)"/><circle cx="250.3" cy="206.0" r="18.2" fill="#ef8354"/><circle cx="221.0" cy="196.7" r="18.2" fill="#f2ecd8"/><circle cx="399.17973399721086" cy="201.7413650881499" r="70" fill="#000" opacity="0.1"/><circle cx="399.17973399721086" cy="195.7413650881499" r="70" fill="#f5f2e8" stroke="#e0d9c2" stroke-width="2"/><circle cx="399.17973399721086" cy="195.7413650881499" r="60.199999999999996" fill="#f5f2e8"/><ellipse cx="368.9" cy="159.8" rx="4" ry="2" fill="#e6e0cf" transform="rotate(107 368.9 159.8)"/><ellipse cx="378.1" cy="247.2" rx="4" ry="2" fill="#e6e0cf" transform="rotate(102 378.1 247.2)"/><ellipse cx="429.5" cy="229.3" rx="4" ry="2" fill="#e6e0cf" transform="rotate(166 429.5 229.3)"/><ellipse cx="424.4" cy="239.7" rx="4" ry="2" fill="#e6e0cf" transform="rotate(32 424.4 239.7)"/><ellipse cx="451.3" cy="203.0" rx="4" ry="2" fill="#e6e0cf" transform="rotate(154 451.3 203.0)"/><ellipse cx="374.1" cy="244.7" rx="4" ry="2" fill="#e6e0cf" transform="rotate(167 374.1 244.7)"/><ellipse cx="363.0" cy="161.0" rx="4" ry="2" fill="#e6e0cf" transform="rotate(4 363.0 161.0)"/><ellipse cx="396.6" cy="248.0" rx="4" ry="2" fill="#e6e0cf" transform="rotate(75 396.6 248.0)"/><ellipse cx="346.1" cy="174.6" rx="4" ry="2" fill="#e6e0cf" transform="rotate(10 346.1 174.6)"/><ellipse cx="355.3" cy="217.3" rx="4" ry="2" fill="#e6e0cf" transform="rotate(117 355.3 217.3)"/><circle cx="414.5" cy="197.7" r="18.2" fill="#ef8354"/><circle cx="384.1" cy="192.7" r="18.2" fill="#f2ecd8"/><circle cx="564.7643373701721" cy="204.0019659679383" r="70" fill="#000" opacity="0.1"/><circle cx="564.7643373701721" cy="198.0019659679383" r="70" fill="#f5f2e8" stroke="#e0d9c2" stroke-width="2"/><circle cx="564.7643373701721" cy="198.0019659679383" r="60.199999999999996" fill="#f5f2e8"/><ellipse cx="517.3" cy="218.0" rx="4" ry="2" fill="#e6e0cf" transform="rotate(45 517.3 218.0)"/><ellipse cx="621.3" cy="189.1" rx="4" ry="2" fill="#e6e0cf" transform="rotate(37 621.3 189.1)"/><ellipse cx="546.6" cy="155.8" rx="4" ry="2" fill="#e6e0cf" transform="rotate(170 546.6 155.8)"/><ellipse cx="616.7" cy="191.1" rx="4" ry="2" fill="#e6e0cf" transform="rotate(136 616.7 191.1)"/><ellipse cx="591.7" cy="240.2" rx="4" ry="2" fill="#e6e0cf" transform="rotate(68 591.7 240.2)"/><ellipse cx="596.8" cy="150.8" rx="4" ry="2" fill="#e6e0cf" transform="rotate(158 596.8 150.8)"/><ellipse cx="589.4" cy="151.5" rx="4" ry="2" fill="#e6e0cf" transform="rotate(67 589.4 151.5)"/><ellipse cx="595.6" cy="233.6" rx="4" ry="2" fill="#e6e0cf" transform="rotate(114 595.6 233.6)"/><ellipse cx="606.3" cy="159.7" rx="4" ry="2" fill="#e6e0cf" transform="rotate(127 606.3 159.7)"/><ellipse cx="514.0" cy="220.8" rx="4" ry="2" fill="#e6e0cf" transform="rotate(108 514.0 220.8)"/><circle cx="580.1" cy="199.4" r="18.2" fill="#ef8354"/><circle cx="550.5" cy="192.3" r="18.2" fill="#f2ecd8"/><circle cx="241.04725674539804" cy="363.5348213426769" r="70" fill="#000" opacity="0.1"/><circle cx="241.04725674539804" cy="357.5348213426769" r="70" fill="#f5f2e8" stroke="#e0d9c2" stroke-width="2"/><circle cx="241.04725674539804" cy="357.5348213426769" r="60.199999999999996" fill="#f5f2e8"/><ellipse cx="275.6" cy="315.3" rx="4" ry="2" fill="#e6e0cf" transform="rotate(57 275.6 315.3)"/><ellipse cx="195.9" cy="329.4" rx="4" ry="2" fill="#e6e0cf" transform="rotate(161 195.9 329.4)"/><ellipse cx="214.2" cy="394.3" rx="4" ry="2" fill="#e6e0cf" transform="rotate(157 214.2 394.3)"/><ellipse cx="258.0" cy="310.4" rx="4" ry="2" fill="#e6e0cf" transform="rotate(102 258.0 310.4)"/><ellipse cx="286.1" cy="349.1" rx="4" ry="2" fill="#e6e0cf" transform="rotate(91 286.1 349.1)"/><ellipse cx="282.8" cy="336.0" rx="4" ry="2" fill="#e6e0cf" transform="rotate(92 282.8 336.0)"/><ellipse cx="287.6" cy="344.3" rx="4" ry="2" fill="#e6e0cf" transform="rotate(141 287.6 344.3)"/><ellipse cx="199.4" cy="386.2" rx="4" ry="2" fill="#e6e0cf" transform="rotate(19 199.4 386.2)"/><ellipse cx="203.6" cy="326.7" rx="4" ry="2" fill="#e6e0cf" transform="rotate(112 203.6 326.7)"/><ellipse cx="192.4" cy="368.4" rx="4" ry="2" fill="#e6e0cf" transform="rotate(70 192.4 368.4)"/><circle cx="255.5" cy="362.7" r="18.2" fill="#ef8354"/><circle cx="226.0" cy="354.3" r="18.2" fill="#f2ecd8"/><circle cx="397.7281316779554" cy="368.53122493065894" r="70" fill="#000" opacity="0.1"/><circle cx="397.7281316779554" cy="362.53122493065894" r="70" fill="#f5f2e8" stroke="#e0d9c2" stroke-width="2"/><circle cx="397.7281316779554" cy="362.53122493065894" r="60.199999999999996" fill="#f5f2e8"/><ellipse cx="445.9" cy="372.3" rx="4" ry="2" fill="#e6e0cf" transform="rotate(45 445.9 372.3)"/><ellipse cx="416.8" cy="321.3" rx="4" ry="2" fill="#e6e0cf" transform="rotate(55 416.8 321.3)"/><ellipse cx="403.3" cy="411.2" rx="4" ry="2" fill="#e6e0cf" transform="rotate(96 403.3 411.2)"/><ellipse cx="389.7" cy="412.5" rx="4" ry="2" fill="#e6e0cf" transform="rotate(62 389.7 412.5)"/><ellipse cx="395.2" cy="315.4" rx="4" ry="2" fill="#e6e0cf" transform="rotate(59 395.2 315.4)"/><ellipse cx="443.6" cy="381.6" rx="4" ry="2" fill="#e6e0cf" transform="rotate(13 443.6 381.6)"/><ellipse cx="423.1" cy="323.4" rx="4" ry="2" fill="#e6e0cf" transform="rotate(4 423.1 323.4)"/><ellipse cx="359.5" cy="339.6" rx="4" ry="2" fill="#e6e0cf" transform="rotate(172 359.5 339.6)"/><ellipse cx="384.1" cy="317.1" rx="4" ry="2" fill="#e6e0cf" transform="rotate(69 384.1 317.1)"/><ellipse cx="442.5" cy="393.8" rx="4" ry="2" fill="#e6e0cf" transform="rotate(170 442.5 393.8)"/><circle cx="412.8" cy="365.9" r="18.2" fill="#ef8354"/><circle cx="383.7" cy="356.3" r="18.2" fill="#f2ecd8"/><circle cx="564.9767907205969" cy="363.7308595124632" r="70" fill="#000" opacity="0.1"/><circle cx="564.9767907205969" cy="357.7308595124632" r="70" fill="#f5f2e8" stroke="#e0d9c2" stroke-width="2"/><circle cx="564.9767907205969" cy="357.7308595124632" r="60.199999999999996" fill="#f5f2e8"/><ellipse cx="609.8" cy="393.1" rx="4" ry="2" fill="#e6e0cf" transform="rotate(171 609.8 393.1)"/><ellipse cx="605.6" cy="329.8" rx="4" ry="2" fill="#e6e0cf" transform="rotate(169 605.6 329.8)"/><ellipse cx="578.6" cy="409.9" rx="4" ry="2" fill="#e6e0cf" transform="rotate(117 578.6 409.9)"/><ellipse cx="615.2" cy="368.8" rx="4" ry="2" fill="#e6e0cf" transform="rotate(169 615.2 368.8)"/><ellipse cx="519.4" cy="372.4" rx="4" ry="2" fill="#e6e0cf" transform="rotate(9 519.4 372.4)"/><ellipse cx="600.4" cy="395.5" rx="4" ry="2" fill="#e6e0cf" transform="rotate(124 600.4 395.5)"/><ellipse cx="584.4" cy="399.0" rx="4" ry="2" fill="#e6e0cf" transform="rotate(54 584.4 399.0)"/><ellipse cx="517.4" cy="356.1" rx="4" ry="2" fill="#e6e0cf" transform="rotate(138 517.4 356.1)"/><ellipse cx="576.8" cy="411.7" rx="4" ry="2" fill="#e6e0cf" transform="rotate(18 576.8 411.7)"/><ellipse cx="523.3" cy="370.6" rx="4" ry="2" fill="#e6e0cf" transform="rotate(148 523.3 370.6)"/><circle cx="578.5" cy="365.1" r="18.2" fill="#ef8354"/><circle cx="549.6" cy="357.3" r="18.2" fill="#f2ecd8"/></svg>