<svg xmlns="http://www.w3.org/2000/svg" viewBox="0 0 800 600"><defs><radialGradient id="bg-filadelfiya-tataki" cx="50%" cy="35%" r="80%"><stop offset="0%" stop-color="#ffffff"/><stop offset="100%" stop-color="#efeff2"/></radialGradient></defs><rect width="800" height="600" fill="url(#bg-filadelfiya-tataki)"/><circle cx="242.770852426067" cy="204.10623029060662" r="70" fill="#000" opacity="0.1"/><circle cx="242.770852426067" cy="198.10623029060662" r="70" fill="#f5f2e8" stroke="#e0d9c2" stroke-width="2"/><circle cx="242.770852426067" cy="198.10623029060662" r="60.199999999999996" fill="#f5f2e8"/><ellipse cx="192.3" cy="178.2" rx="4" ry="2" fill="#e6e0cf" transform="rotate(43 192.3 178.2)"/><ellipse cx="255.6" cy="246.4" rx="4" ry="2" fill="#e6e0cf" transform="rotate(114 255.6 246.4)"/><ellipse cx="192.6" cy="216.3" rx="4" ry="2" fill="#e6e0cf" transform="rotate(82 192.6 216.3)"/><ellipse cx="282.7" cy="162.2" rx="4" ry="2" fill="#e6e0cf" transform="rotate(142 282.7 162.2)"/><ellipse cx="264.9" cy="153.6" rx="4" ry="2" fill="#e6e0cf" transform="rotate(26 264.9 153.6)"/><ellipse cx="206.3" cy="161.8" rx="4" ry="2" fill="#e6e0cf" transform="rotate(23 206.3 161.8)"/><ellipse cx="224.6" cy="251.2" rx="4" ry="2" fill="#e6e0cf" transform="rotate(53 224.6 251.2)"/><ellipse cx="200.4" cy="163.8" rx="4" ry="2" fill="#e6e0cf" transform="rotate(115 200.4 163.8)"/><ellipse cx="215.0" cy="157.7" rx="4" ry="2" fill="#e6e0cf" transform="rotate(136 215.0 157.7)"/><ellipse cx="193.6" cy="227.3" rx="4" ry="2" fill="#e6e0cf" transform="rotate(92 193.6 227.3)"/><circle cx="258.0" cy="200.7" r="18.2" fill="#ef8354"/><circle cx="233.2" cy="210.2" r="18.2" fill="#8a5a3b"/><circle cx="237.1" cy="183.8" r="18.2" fill="#f2ecd8"/><circle cx="398.878038180992" cy="204.0516909211874" r="70" fill="#000" opacity="0.1"/><circle cx="398.878038180992" cy="198.0516909211874" r="70" fill="#f5f2e8" stroke="#e0d9c2" stroke-width="2"/><circle cx="398.878038180992" cy="198.0516909211874" r="60.199999999999996" fill="#f5f2e8"/><ellipse cx="449.9" cy="219.1" rx="4" ry="2" fill="#e6e0cf" transform="rotate(125 449.9 219.1)"/><ellipse cx="443.4" cy="175.0" rx="4" ry="2" fill="#e6e0cf" transform="rotate(49 443.4 175.0)"/><ellipse cx="440.8" cy="210.2" rx="4" ry="2" fill="#e6e0cf" transform="rotate(32 440.8 210.2)"/><ellipse cx="409.6" cy="142.9" rx="4" ry="2" fill="#e6e0cf" transform="rotate(98 409.6 142.9)"/><ellipse cx="403.9" cy="242.3" rx="4" ry="2" fill="#e6e0cf" transform="rotate(44 403.9 242.3)"/><ellipse cx="356.6" cy="233.7" rx="4" ry="2" fill="#e6e0cf" transform="rotate(117 356.6 233.7)"/><ellipse cx="371.7" cy="234.1" rx="4" ry="2" fill="#e6e0cf" transform="rotate(138 371.7 234.1)"/><ellipse cx="371.1" cy="158.6" rx="4" ry="2" fill="#e6e0cf" transform="rotate(151 371.1 158.6)"/><ellipse cx="410.7" cy="145.3" rx="4" ry="2" fill="#e6e0cf" transform="rotate(90 410.7 145.3)"/><ellipse cx="351.3" cy="196.6" rx="4" ry="2" fill="#e6e0cf" transform="rotate(168 351.3 196.6)"/><circle cx="412.4" cy="205.4" r="18.2" fill="#ef8354"/><circle cx="387.8" cy="208.8" r="18.2" fill="#8a5a3b"/><circle cx="395.0" cy="183.1" r="18.2" fill="#f2ecd8"/><circle cx="560.4520324133337" cy="204.78363503701985" r="70" fill="#000" opacity="0.1"/><circle cx="560.4520324133337" cy="198.78363503701985" r="70" fill="#f5f2e8" stroke="#e0d9c2" stroke-width="2"/><circle cx="560.4520324133337" cy="198.78363503701985" r="60.199999999999996" fill="#f5f2e8"/><ellipse cx="547.0" cy="249.5" rx="4" ry="2" fill="#e6e0cf" transform="rotate(102 547.0 249.5)"/><ellipse cx="558.3" cy="243.1" rx="4" ry="2" fill="#e6e0cf" transform="rotate(102 558.3 243.1)"/><ellipse cx="548.8" cy="154.4" rx="4" ry="2" fill="#e6e0cf" transform="rotate(37 548.8 154.4)"/><ellipse cx="550.5" cy="242.7" rx="4" ry="2" fill="#e6e0cf" transform="rotate(114 550.5 242.7)"/><ellipse cx="611.1" cy="217.0" rx="4" ry="2" fill="#e6e0cf" transform="rotate(108 611.1 217.0)"/><ellipse cx="607.5" cy="219.7" rx="4" ry="2" fill="#e6e0cf" transform="rotate(7 607.5 219.7)"/><ellipse cx="543.5" cy="246.0" rx="4" ry="2" fill="#e6e0cf" transform="rotate(24 543.5 246.0)"/><ellipse cx="511.7" cy="200.8" rx="4" ry="2" fill="#e6e0cf" transform="rotate(48 511.7 200.8)"/><ellipse cx="509.8" cy="175.3" rx="4" ry="2" fill="#e6e0cf" transform="rotate(94 509.8 175.3)"/><ellipse cx="595.2" cy="170.7" rx="4" ry="2" fill="#e6e0cf" transform="rotate(51 595.2 170.7)"/><circle cx="574.8" cy="204.3" r="18.2" fill="#ef8354"/><circle cx="550.3" cy="210.4" r="18.2" fill="#8a5a3b"/><circle cx="556.1" cy="184.0" r="18.2" fill="#f2ecd8"/><circle cx="242.258071154356" cy="366.87979655340314" r="70" fill="#000" opacity="0.1"/><circle cx="242.258071154356" cy="360.87979655340314" r="70" fill="#f5f2e8" stroke="#e0d9c2" stroke-width="2"/><circle cx="242.258071154356" cy="360.87979655340314" r="60.199999999999996" fill="#f5f2e8"/><ellipse cx="205.6" cy="392.6" rx="4" ry="2" fill="#e6e0cf" transform="rotate(170 205.6 392.6)"/><ellipse cx="248.6" cy="314.6" rx="4" ry="2" fill="#e6e0cf" transform="rotate(2 248.6 314.6)"/><ellipse cx="294.8" cy="357.0" rx="4" ry="2" fill="#e6e0cf" transform="rotate(152 294.8 357.0)"/><ellipse cx="242.9" cy="312.2" rx="4" ry="2" fill="#e6e0cf" transform="rotate(51 242.9 312.2)"/><ellipse cx="204.2" cy="399.3" rx="4" ry="2" fill="#e6e0cf" transform="rotate(108 204.2 399.3)"/><ellipse cx="200.4" cy="323.6" rx="4" ry="2" fill="#e6e0cf" transform="rotate(38 200.4 323.6)"/><ellipse cx="212.0" cy="320.9" rx="4" ry="2" fill="#e6e0cf" transform="rotate(29 212.0 320.9)"/><ellipse cx="201.6" cy="383.3" rx="4" ry="2" fill="#e6e0cf" transform="rotate(19 201.6 383.3)"/><ellipse cx="201.0" cy="342.9" rx="4" ry="2" fill="#e6e0cf" transform="rotate(103 201.0 342.9)"/><ellipse cx="190.4" cy="340.5" rx="4" ry="2" fill="#e6e0cf" transform="rotate(64 190.4 340.5)"/><circle cx="256.5" cy="366.8" r="18.2" fill="#ef8354"/><circle cx="229.8" cy="369.9" r="18.2" fill="#8a5a3b"/><circle cx="237.0" cy="346.4" r="18.2" fill="#f2ecd8"/><circle cx="396.76797503605485" cy="368.6983273141086" r="70" fill="#000" opacity="0.1"/><circle cx="396.76797503605485" cy="362.6983273141086" r="70" fill="#f5f2e8" stroke="#e0d9c2" stroke-width="2"/><circle cx="396.76797503605485" cy="362.6983273141086" r="60.199999999999996" fill="#f5f2e8"/><ellipse cx="376.6" cy="405.4" rx="4" ry="2" fill="#e6e0cf" transform="rotate(146 376.6 405.4)"/><ellipse cx="352.4" cy="394.9" rx="4" ry="2" fill="#e6e0cf" transform="rotate(180 352.4 394.9)"/><ellipse cx="360.1" cy="337.7" rx="4" ry="2" fill="#e6e0cf" transform="rotate(68 360.1 337.7)"/><ellipse cx="378.4" cy="318.0" rx="4" ry="2" fill="#e6e0cf" transform="rotate(167 378.4 318.0)"/><ellipse cx="424.6" cy="411.8" rx="4" ry="2" fill="#e6e0cf" transform="rotate(162 424.6 411.8)"/><ellipse cx="357.8" cy="339.1" rx="4" ry="2" fill="#e6e0cf" transform="rotate(151 357.8 339.1)"/><ellipse cx="376.4" cy="317.4" rx="4" ry="2" fill="#e6e0cf" transform="rotate(69 376.4 317.4)"/><ellipse cx="385.0" cy="318.0" rx="4" ry="2" fill="#e6e0cf" transform="rotate(54 385.0 318.0)"/><ellipse cx="348.6" cy="348.8" rx="4" ry="2" fill="#e6e0cf" transform="rotate(32 348.6 348.8)"/><ellipse cx="423.8" cy="397.3" rx="4" ry="2" fill="#e6e0cf" transform="rotate(101 423.8 397.3)"/><circle cx="411.6" cy="367.0" r="18.2" fill="#ef8354"/><circle cx="384.5" cy="372.0" r="18.2" fill="#8a5a3b"/><circle cx="395.9" cy="347.3" r="18.2" fill="#f2ecd8"/><circle cx="559.2320023793727" cy="368.57271141931415" r="70" fill="#000" opacity="0.1"/><circle cx="559.2320023793727" cy="362.57271141931415" r="70" fill="#f5f2e8" stroke="#e0d9c2" stroke-width="2"/><circle cx="559.2320023793727" cy="362.57271141931415" r="60.199999999999996" fill="#f5f2e8"/><ellipse cx="593.4" cy="334.5" rx="4" ry="2" fill="#e6e0cf" transform="rotate(180 593.4 334.5)"/><ellipse cx="515.1" cy="367.5" rx="4" ry="2" fill="#e6e0cf" transform="rotate(111 515.1 367.5)"/><ellipse cx="566.1" cy="419.0" rx="4" ry="2" fill="#e6e0cf" transform="rotate(70 566.1 419.0)"/><ellipse cx="605.7" cy="349.1" rx="4" ry="2" fill="#e6e0cf" transform="rotate(72 605.7 349.1)"/><ellipse cx="572.9" cy="314.8" rx="4" ry="2" fill="#e6e0cf" transform="rotate(66 572.9 314.8)"/><ellipse cx="614.7" cy="376.3" rx="4" ry="2" fill="#e6e0cf" transform="rotate(148 614.7 376.3)"/><ellipse cx="569.5" cy="317.7" rx="4" ry="2" fill="#e6e0cf" transform="rotate(71 569.5 317.7)"/><ellipse cx="604.0" cy="364.2" rx="4" ry="2" fill="#e6e0cf" transform="rotate(92 604.0 364.2)"/><ellipse cx="514.3" cy="353.3" rx="4" ry="2" fill="#e6e0cf" transform="rotate(86 514.3 353.3)"/><ellipse cx="509.7" cy="391.3" rx="4" ry="2" fill="#e6e0cf" transform="rotate(115 509.7 391.3)"/><circle cx="572.9" cy="369.7" r="18.2" fill="#ef8354"/><circle cx="549.6" cy="374.6" r="18.2" fill="#8a5a3b"/><circle cx="552.5" cy="348.7" r="18.2" fill="#f2ecd8"/></svg>