<svg xmlns="http://www.w3.org/2000/svg" viewBox="0 0 800 600"><defs><radialGradient id="bg-filadelfiya-de-lyuks" cx="50%" cy="35%" r="80%"><stop offset="0%" stop-color="#26262c"/><stop offset="100%" stop-color="#141417"/></radialGradient></defs><rect width="800" height="600" fill="url(#bg-filadelfiya-de-lyuks)"/><circle cx="236.28262379579246" cy="202.4526935275644" r="70" fill="#000" opacity="0.35"/><circle cx="236.28262379579246" cy="196.4526935275644" r="70" fill="#2e3230"/><circle cx="236.28262379579246" cy="196.4526935275644" r="60.199999999999996" fill="#f5f2e8"/><ellipse cx="280.6" cy="231.6" rx="4" ry="2" fill="#e6e0cf" transform="rotate(71 280.6 231.6)"/><ellipse cx="200.5" cy="234.4" rx="4" ry="2" fill="#e6e0cf" transform="rotate(129 200.5 234.4)"/><ellipse cx="214.2" cy="146.4" rx="4" ry="2" fill="#e6e0cf" transform="rotate(169 214.2 146.4)"/><ellipse cx="191.6" cy="202.5" rx="4" ry="2" fill="#e6e0cf" transform="rotate(159 191.6 202.5)"/><ellipse cx="268.1" cy="151.4" rx="4" ry="2" fill="#e6e0cf" transform="rotate(151 268.1 151.4)"/><ellipse cx="183.3" cy="185.8" rx="4" ry="2" fill="#e6e0cf" transform="rotate(164 183.3 185.8)"/><ellipse cx="255.0" cy="145.9" rx="4" ry="2" fill="#e6e0cf" transform="rotate(101 255.0 145.9)"/><ellipse cx="279.9" cy="188.7" rx="4" ry="2" fill="#e6e0cf" transform="rotate(179 279.9 188.7)"/><ellipse cx="262.6" cy="243.9" rx="4" ry="2" fill="#e6e0cf" transform="rotate(178 262.6 243.9)"/><ellipse cx="205.0" cy="235.8" rx="4" ry="2" fill="#e6e0cf" transform="rotate(125 205.0 235.8)"/><circle cx="250.5" cy="202.3" r="18.2" fill="#ef8354"/><circle cx="223.9" cy="205.6" r="18.2" fill="#f2ecd8"/><circle cx="233.0" cy="181.4" r="18.2" fill="#e05d5d"/><circle cx="398.2521841432899" cy="208.1153417751193" r="70" fill="#000" opacity="0.35"/><circle cx="398.2521841432899" cy="202.1153417751193" r="70" fill="#2e3230"/><circle cx="398.2521841432899" cy="202.1153417751193" r="60.199999999999996" fill="#f5f2e8"/><ellipse cx="429.0" cy="170.9" rx="4" ry="2" fill="#e6e0cf" transform="rotate(81 429.0 170.9)"/><ellipse cx="421.2" cy="240.4" rx="4" ry="2" fill="#e6e0cf" transform="rotate(97 421.2 240.4)"/><ellipse cx="366.2" cy="162.3" rx="4" ry="2" fill="#e6e0cf" transform="rotate(13 366.2 162.3)"/><ellipse cx="429.1" cy="160.8" rx="4" ry="2" fill="#e6e0cf" transform="rotate(11 429.1 160.8)"/><ellipse cx="354.5" cy="171.7" rx="4" ry="2" fill="#e6e0cf" transform="rotate(63 354.5 171.7)"/><ellipse cx="440.7" cy="188.0" rx="4" ry="2" fill="#e6e0cf" transform="rotate(42 440.7 188.0)"/><ellipse cx="352.0" cy="186.6" rx="4" ry="2" fill="#e6e0cf" transform="rotate(140 352.0 186.6)"/><ellipse cx="352.9" cy="204.3" rx="4" ry="2" fill="#e6e0cf" transform="rotate(76 352.9 204.3)"/><ellipse cx="448.3" cy="179.7" rx="4" ry="2" fill="#e6e0cf" transform="rotate(138 448.3 179.7)"/><ellipse cx="446.7" cy="175.0" rx="4" ry="2" fill="#e6e0cf" transform="rotate(144 446.7 175.0)"/><circle cx="413.6" cy="203.8" r="18.2" fill="#ef8354"/><circle cx="385.4" cy="210.6" r="18.2" fill="#f2ecd8"/><circle cx="390.8" cy="188.6" r="18.2" fill="#e05d5d"/><circle cx="563.2140340395272" cy="208.71787764504552" r="70" fill="#000" opacity="0.35"/><circle cx="563.2140340395272" cy="202.71787764504552" r="70" fill="#2e3230"/><circle cx="563.2140340395272" cy="202.71787764504552" r="60.199999999999996" fill="#f5f2e8"/><ellipse cx="530.5" cy="236.3" rx="4" ry="2" fill="#e6e0cf" transform="rotate(69 530.5 236.3)"/><ellipse cx="517.8" cy="204.8" rx="4" ry="2" fill="#e6e0cf" transform="rotate(65 517.8 204.8)"/><ellipse cx="582.6" cy="156.0" rx="4" ry="2" fill="#e6e0cf" transform="rotate(63 582.6 156.0)"/><ellipse cx="613.9" cy="221.6" rx="4" ry="2" fill="#e6e0cf" transform="rotate(172 613.9 221.6)"/><ellipse cx="512.1" cy="225.6" rx="4" ry="2" fill="#e6e0cf" transform="rotate(102 512.1 225.6)"/><ellipse cx="549.3" cy="147.5" rx="4" ry="2" fill="#e6e0cf" transform="rotate(28 549.3 147.5)"/><ellipse cx="609.2" cy="180.8" rx="4" ry="2" fill="#e6e0cf" transform="rotate(49 609.2 180.8)"/><ellipse cx="558.4" cy="246.9" rx="4" ry="2" fill="#e6e0cf" transform="rotate(5 558.4 246.9)"/><ellipse cx="611.8" cy="177.7" rx="4" ry="2" fill="#e6e0cf" transform="rotate(113 611.8 177.7)"/><ellipse cx="613.8" cy="217.7" rx="4" ry="2" fill="#e6e0cf" transform="rotate(109 613.8 217.7)"/><circle cx="578.6" cy="203.5" r="18.2" fill="#ef8354"/><circle cx="552.0" cy="213.3" r="18.2" fill="#f2ecd8"/><circle cx="556.2" cy="189.0" r="18.2" fill="#e05d5d"/><circle cx="236.74382574297488" cy="370.09968016296625" r="70" fill="#000" opacity="0.35"/><circle cx="236.74382574297488" cy="364.09968016296625" r="70" fill="#2e3230"/><circle cx="236.74382574297488" cy="364.09968016296625" r="60.199999999999996" fill="#f5f2e8"/><ellipse cx="290.3" cy="346.7" rx="4" ry="2" fill="#e6e0cf" transform="rotate(41 290.3 346.7)"/><ellipse cx="249.8" cy="315.4" rx="4" ry="2" fill="#e6e0cf" transform="rotate(104 249.8 315.4)"/><ellipse cx="270.8" cy="401.0" rx="4" ry="2" fill="#e6e0cf" transform="rotate(50 270.8 401.0)"/><ellipse cx="200.5" cy="331.4" rx="4" ry="2" fill="#e6e0cf" transform="rotate(132 200.5 331.4)"/><ellipse cx="278.8" cy="346.6" rx="4" ry="2" fill="#e6e0cf" transform="rotate(95 278.8 346.6)"/><ellipse cx="247.8" cy="419.7" rx="4" ry="2" fill="#e6e0cf" transform="rotate(62 247.8 419.7)"/><ellipse cx="209.4" cy="409.2" rx="4" ry="2" fill="#e6e0cf" transform="rotate(90 209.4 409.2)"/><ellipse cx="259.4" cy="312.4" rx="4" ry="2" fill="#e6e0cf" transform="rotate(72 259.4 312.4)"/><ellipse cx="238.8" cy="319.9" rx="4" ry="2" fill="#e6e0cf" transform="rotate(111 238.8 319.9)"/><ellipse cx="200.7" cy="323.9" rx="4" ry="2" fill="#e6e0cf" transform="rotate(31 200.7 323.9)"/><circle cx="251.9" cy="367.0" r="18.2" fill="#ef8354"/><circle cx="229.0" cy="377.4" r="18.2" fill="#f2ecd8"/><circle cx="233.1" cy="349.1" r="18.2" fill="#e05d5d"/><circle cx="397.0974626149982" cy="368.3392596933991" r="70" fill="#000" opacity="0.35"/><circle cx="397.0974626149982" cy="362.3392596933991" r="70" fill="#2e3230"/><circle cx="397.0974626149982" cy="362.3392596933991" r="60.199999999999996" fill="#f5f2e8"/><ellipse cx="355.8" cy="339.8" rx="4" ry="2" fill="#e6e0cf" transform="rotate(90 355.8 339.8)"/><ellipse cx="359.4" cy="403.2" rx="4" ry="2" fill="#e6e0cf" transform="rotate(133 359.4 403.2)"/><ellipse cx="389.9" cy="316.3" rx="4" ry="2" fill="#e6e0cf" transform="rotate(180 389.9 316.3)"/><ellipse cx="375.3" cy="311.2" rx="4" ry="2" fill="#e6e0cf" transform="rotate(5 375.3 311.2)"/><ellipse cx="398.9" cy="408.6" rx="4" ry="2" fill="#e6e0cf" transform="rotate(12 398.9 408.6)"/><ellipse cx="406.2" cy="316.2" rx="4" ry="2" fill="#e6e0cf" transform="rotate(86 406.2 316.2)"/><ellipse cx="353.1" cy="356.0" rx="4" ry="2" fill="#e6e0cf" transform="rotate(128 353.1 356.0)"/><ellipse cx="423.3" cy="315.1" rx="4" ry="2" fill="#e6e0cf" transform="rotate(142 423.3 315.1)"/><ellipse cx="415.0" cy="321.9" rx="4" ry="2" fill="#e6e0cf" transform="rotate(43 415.0 321.9)"/><ellipse cx="339.9" cy="364.0" rx="4" ry="2" fill="#e6e0cf" transform="rotate(80 339.9 364.0)"/><circle cx="412.4" cy="364.3" r="18.2" fill="#ef8354"/><circle cx="388.1" cy="374.9" r="18.2" fill="#f2ecd8"/><circle cx="396.0" cy="347.0" r="18.2" fill="#e05d5d"/><circle cx="564.1649550292641" cy="367.8206118308008" r="70" fill="#000" opacity="0.35"/><circle cx="564.1649550292641" cy="361.8206118308008" r="70" fill="#2e3230"/><circle cx="564.1649550292641" cy="361.8206118308008" r="60.199999999999996" fill="#f5f2e8"/><ellipse cx="587.9" cy="316.4" rx="4" ry="2" fill="#e6e0cf" transform="rotate(153 587.9 316.4)"/><ellipse cx="543.3" cy="310.3" rx="4" ry="2" fill="#e6e0cf" transform="rotate(122 543.3 310.3)"/><ellipse cx="619.7" cy="349.3" rx="4" ry="2" fill="#e6e0cf" transform="rotate(100 619.7 349.3)"/><ellipse cx="545.3" cy="310.7" rx="4" ry="2" fill="#e6e0cf" transform="rotate(26 545.3 310.7)"/><ellipse cx="519.1" cy="357.4" rx="4" ry="2" fill="#e6e0cf" transform="rotate(52 519.1 357.4)"/><ellipse cx="613.1" cy="351.9" rx="4" ry="2" fill="#e6e0cf" transform="rotate(146 613.1 351.9)"/><ellipse cx="591.8" cy="321.1" rx="4" ry="2" fill="#e6e0cf" transform="rotate(58 591.8 321.1)"/><ellipse cx="511.0" cy="374.9" rx="4" ry="2" fill="#e6e0cf" transform="rotate(74 511.0 374.9)"/><ellipse cx="518.5" cy="390.2" rx="4" ry="2" fill="#e6e0cf" transform="rotate(148 518.5 390.2)"/><ellipse cx="519.8" cy="386.8" rx="4" ry="2" fill="#e6e0cf" transform="rotate(160 519.8 386.8)"/><circle cx="578.9" cy="366.4" r="18.2" fill="#ef8354"/><circle cx="552.8" cy="372.2" r="18.2" fill="#f2ecd8"/><circle cx="557.3" cy="348.0" r="18.2" fill="#e05d5d"/></svg>