<svg xmlns="http://www.w3.org/2000/svg" viewBox="0 0 800 600"><defs><radialGradient id="bg-filadelfiya-royal" cx="50%" cy="35%" r="80%"><stop offset="0%" stop-color="#ffffff"/><stop offset="100%" stop-color="#efeff2"/></radialGradient></defs><rect width="800" height="600" fill="url(#bg-filadelfiya-royal)"/><circle cx="238.6914319153875" cy="206.59816479682922" r="70" fill="#000" opacity="0.1"/><circle cx="238.6914319153875" cy="200.59816479682922" r="70" fill="#2e3230" stroke="#1f2321" stroke-width="2"/><circle cx="238.6914319153875" cy="200.59816479682922" r="60.199999999999996" fill="#f5f2e8"/><ellipse cx="268.8" cy="165.7" rx="4" ry="2" fill="#e6e0cf" transform="rotate(41 268.8 165.7)"/><ellipse cx="187.7" cy="186.2" rx="4" ry="2" fill="#e6e0cf" transform="rotate(73 187.7 186.2)"/><ellipse cx="266.1" cy="241.4" rx="4" ry="2" fill="#e6e0cf" transform="rotate(101 266.1 241.4)"/><ellipse cx="230.3" cy="147.5" rx="4" ry="2" fill="#e6e0cf" transform="rotate(175 230.3 147.5)"/><ellipse cx="227.5" cy="154.1" rx="4" ry="2" fill="#e6e0cf" transform="rotate(13 227.5 154.1)"/><ellipse cx="234.4" cy="153.3" rx="4" ry="2" fill="#e6e0cf" transform="rotate(173 234.4 153.3)"/><ellipse cx="245.6" cy="148.0" rx="4" ry="2" fill="#e6e0cf" transform="rotate(65 245.6 148.0)"/><ellipse cx="243.3" cy="143.6" rx="4" ry="2" fill="#e6e0cf" transform="rotate(43 243.3 143.6)"/><ellipse cx="188.5" cy="226.0" rx="4" ry="2" fill="#e6e0cf" transform="rotate(51 188.5 226.0)"/><ellipse cx="282.6" cy="204.8" rx="4" ry="2" fill="#e6e0cf" transform="rotate(117 282.6 204.8)"/><circle cx="252.6" cy="207.2" r="18.2" fill="#e87b7b"/><circle cx="230.1" cy="213.4" r="18.2" fill="#7fb069"/><circle cx="232.8" cy="186.4" r="18.2" fill="#f2ecd8"/><circle cx="402.9962407592684" cy="204.0425442159176" r="70" fill="#000" opacity="0.1"/><circle cx="402.9962407592684" cy="198.0425442159176" r="70" fill="#2e3230" stroke="#1f2321" stroke-width="2"/><circle cx="402.9962407592684" cy="198.0425442159176" r="60.199999999999996" fill="#f5f2e8"/><ellipse cx="376.2" cy="246.6" rx="4" ry="2" fill="#e6e0cf" transform="rotate(23 376.2 246.6)"/><ellipse cx="393.3" cy="153.4" rx="4" ry="2" fill="#e6e0cf" transform="rotate(79 393.3 153.4)"/><ellipse cx="448.5" cy="204.4" rx="4" ry="2" fill="#e6e0cf" transform="rotate(147 448.5 204.4)"/><ellipse cx="436.3" cy="226.0" rx="4" ry="2" fill="#e6e0cf" transform="rotate(57 436.3 226.0)"/><ellipse cx="382.3" cy="247.7" rx="4" ry="2" fill="#e6e0cf" transform="rotate(140 382.3 247.7)"/><ellipse cx="386.1" cy="144.7" rx="4" ry="2" fill="#e6e0cf" transform="rotate(156 386.1 144.7)"/><ellipse cx="359.3" cy="167.1" rx="4" ry="2" fill="#e6e0cf" transform="rotate(74 359.3 167.1)"/><ellipse cx="406.6" cy="249.7" rx="4" ry="2" fill="#e6e0cf" transform="rotate(101 406.6 249.7)"/><ellipse cx="440.2" cy="166.6" rx="4" ry="2" fill="#e6e0cf" transform="rotate(178 440.2 166.6)"/><ellipse cx="356.0" cy="167.7" rx="4" ry="2" fill="#e6e0cf" transform="rotate(57 356.0 167.7)"/><circle cx="418.4" cy="198.2" r="18.2" fill="#e87b7b"/><circle cx="391.5" cy="208.2" r="18.2" fill="#7fb069"/><circle cx="399.5" cy="183.0" r="18.2" fill="#f2ecd8"/><circle cx="559.5480320267379" cy="206.6826609801501" r="70" fill="#000" opacity="0.1"/><circle cx="559.5480320267379" cy="200.6826609801501" r="70" fill="#2e3230" stroke="#1f2321" stroke-width="2"/><circle cx="559.5480320267379" cy="200.6826609801501" r="60.199999999999996" fill="#f5f2e8"/><ellipse cx="529.3" cy="243.1" rx="4" ry="2" fill="#e6e0cf" transform="rotate(33 529.3 243.1)"/><ellipse cx="586.9" cy="155.7" rx="4" ry="2" fill="#e6e0cf" transform="rotate(94 586.9 155.7)"/><ellipse cx="534.7" cy="248.6" rx="4" ry="2" fill="#e6e0cf" transform="rotate(148 534.7 248.6)"/><ellipse cx="610.7" cy="194.5" rx="4" ry="2" fill="#e6e0cf" transform="rotate(148 610.7 194.5)"/><ellipse cx="602.6" cy="178.3" rx="4" ry="2" fill="#e6e0cf" transform="rotate(85 602.6 178.3)"/><ellipse cx="612.0" cy="208.5" rx="4" ry="2" fill="#e6e0cf" transform="rotate(150 612.0 208.5)"/><ellipse cx="599.6" cy="180.1" rx="4" ry="2" fill="#e6e0cf" transform="rotate(104 599.6 180.1)"/><ellipse cx="513.9" cy="223.4" rx="4" ry="2" fill="#e6e0cf" transform="rotate(55 513.9 223.4)"/><ellipse cx="564.9" cy="249.3" rx="4" ry="2" fill="#e6e0cf" transform="rotate(144 564.9 249.3)"/><ellipse cx="527.1" cy="170.7" rx="4" ry="2" fill="#e6e0cf" transform="rotate(22 527.1 170.7)"/><circle cx="574.2" cy="205.3" r="18.2" fill="#e87b7b"/><circle cx="546.6" cy="209.0" r="18.2" fill="#7fb069"/><circle cx="553.7" cy="186.4" r="18.2" fill="#f2ecd8"/><circle cx="238.2543221656233" cy="369.7349594142288" r="70" fill="#000" opacity="0.1"/><circle cx="238.2543221656233" cy="363.7349594142288" r="70" fill="#2e3230" stroke="#1f2321" stroke-width="2"/><circle cx="238.2543221656233" cy="363.7349594142288" r="60.199999999999996" fill="#f5f2e8"/><ellipse cx="182.8" cy="375.0" rx="4" ry="2" fill="#e6e0cf" transform="rotate(32 182.8 375.0)"/><ellipse cx="268.0" cy="318.6" rx="4" ry="2" fill="#e6e0cf" transform="rotate(140 268.0 318.6)"/><ellipse cx="190.7" cy="371.4" rx="4" ry="2" fill="#e6e0cf" transform="rotate(103 190.7 371.4)"/><ellipse cx="220.2" cy="404.4" rx="4" ry="2" fill="#e6e0cf" transform="rotate(42 220.2 404.4)"/><ellipse cx="196.4" cy="326.2" rx="4" ry="2" fill="#e6e0cf" transform="rotate(54 196.4 326.2)"/><ellipse cx="217.0" cy="312.9" rx="4" ry="2" fill="#e6e0cf" transform="rotate(142 217.0 312.9)"/><ellipse cx="283.9" cy="331.6" rx="4" ry="2" fill="#e6e0cf" transform="rotate(15 283.9 331.6)"/><ellipse cx="181.6" cy="369.7" rx="4" ry="2" fill="#e6e0cf" transform="rotate(30 181.6 369.7)"/><ellipse cx="230.0" cy="406.8" rx="4" ry="2" fill="#e6e0cf" transform="rotate(21 230.0 406.8)"/><ellipse cx="223.0" cy="308.9" rx="4" ry="2" fill="#e6e0cf" transform="rotate(138 223.0 308.9)"/><circle cx="251.9" cy="370.9" r="18.2" fill="#e87b7b"/><circle cx="226.5" cy="373.7" r="18.2" fill="#7fb069"/><circle cx="236.8" cy="348.4" r="18.2" fill="#f2ecd8"/><circle cx="396.18997101671994" cy="368.4561746567488" r="70" fill="#000" opacity="0.1"/><circle cx="396.18997101671994" cy="362.4561746567488" r="70" fill="#2e3230" stroke="#1f2321" stroke-width="2"/><circle cx="396.18997101671994" cy="362.4561746567488" r="60.199999999999996" fill="#f5f2e8"/><ellipse cx="381.4" cy="309.5" rx="4" ry="2" fill="#e6e0cf" transform="rotate(48 381.4 309.5)"/><ellipse cx="384.4" cy="405.0" rx="4" ry="2" fill="#e6e0cf" transform="rotate(43 384.4 405.0)"/><ellipse cx="382.0" cy="311.9" rx="4" ry="2" fill="#e6e0cf" transform="rotate(74 382.0 311.9)"/><ellipse cx="430.5" cy="328.6" rx="4" ry="2" fill="#e6e0cf" transform="rotate(114 430.5 328.6)"/><ellipse cx="421.2" cy="408.0" rx="4" ry="2" fill="#e6e0cf" transform="rotate(93 421.2 408.0)"/><ellipse cx="372.0" cy="410.5" rx="4" ry="2" fill="#e6e0cf" transform="rotate(152 372.0 410.5)"/><ellipse cx="445.3" cy="346.6" rx="4" ry="2" fill="#e6e0cf" transform="rotate(107 445.3 346.6)"/><ellipse cx="374.2" cy="402.4" rx="4" ry="2" fill="#e6e0cf" transform="rotate(166 374.2 402.4)"/><ellipse cx="356.8" cy="331.5" rx="4" ry="2" fill="#e6e0cf" transform="rotate(125 356.8 331.5)"/><ellipse cx="352.8" cy="349.5" rx="4" ry="2" fill="#e6e0cf" transform="rotate(85 352.8 349.5)"/><circle cx="410.8" cy="367.2" r="18.2" fill="#e87b7b"/><circle cx="388.0" cy="375.5" r="18.2" fill="#7fb069"/><circle cx="392.6" cy="347.5" r="18.2" fill="#f2ecd8"/><circle cx="564.61540594697" cy="365.7791404463351" r="70" fill="#000" opacity="0.1"/><circle cx="564.61540594697" cy="359.7791404463351" r="70" fill="#2e3230" stroke="#1f2321" stroke-width="2"/><circle cx="564.61540594697" cy="359.7791404463351" r="60.199999999999996" fill="#f5f2e8"/><ellipse cx="617.7" cy="350.8" rx="4" ry="2" fill="#e6e0cf" transform="rotate(77 617.7 350.8)"/><ellipse cx="519.6" cy="377.9" rx="4" ry="2" fill="#e6e0cf" transform="rotate(94 519.6 377.9)"/><ellipse cx="620.7" cy="370.8" rx="4" ry="2" fill="#e6e0cf" transform="rotate(160 620.7 370.8)"/><ellipse cx="593.1" cy="321.0" rx="4" ry="2" fill="#e6e0cf" transform="rotate(38 593.1 321.0)"/><ellipse cx="508.0" cy="360.6" rx="4" ry="2" fill="#e6e0cf" transform="rotate(117 508.0 360.6)"/><ellipse cx="540.9" cy="315.5" rx="4" ry="2" fill="#e6e0cf" transform="rotate(107 540.9 315.5)"/><ellipse cx="615.3" cy="341.1" rx="4" ry="2" fill="#e6e0cf" transform="rotate(146 615.3 341.1)"/><ellipse cx="561.5" cy="313.4" rx="4" ry="2" fill="#e6e0cf" transform="rotate(94 561.5 313.4)"/><ellipse cx="518.4" cy="333.6" rx="4" ry="2" fill="#e6e0cf" transform="rotate(110 518.4 333.6)"/><ellipse cx="516.9" cy="382.2" rx="4" ry="2" fill="#e6e0cf" transform="rotate(158 516.9 382.2)"/><circle cx="578.9" cy="365.6" r="18.2" fill="#e87b7b"/><circle cx="556.8" cy="373.1" r="18.2" fill="#7fb069"/><circle cx="558.2" cy="345.8" r="18.2" fill="#f2ecd8"/></svg>