<svg xmlns="http://www.w3.org/2000/svg" viewBox="0 0 800 600"><defs><radialGradient id="bg-fila-ebi" cx="50%" cy="35%" r="80%"><stop offset="0%" stop-color="#26262c"/><stop offset="100%" stop-color="#141417"/></radialGradient></defs><rect width="800" height="600" fill="url(#bg-fila-ebi)"/><circle cx="240.94033235497773" cy="207.5069118477404" r="70" fill="#000" opacity="0.35"/><circle cx="240.94033235497773" cy="201.5069118477404" r="70" fill="#2e3230"/><circle cx="240.94033235497773" cy="201.5069118477404" r="60.199999999999996" fill="#f5f2e8"/><ellipse cx="226.9" cy="246.5" rx="4" ry="2" fill="#e6e0cf" transform="rotate(42 226.9 246.5)"/><ellipse cx="251.4" cy="244.9" rx="4" ry="2" fill="#e6e0cf" transform="rotate(73 251.4 244.9)"/><ellipse cx="294.5" cy="206.9" rx="4" ry="2" fill="#e6e0cf" transform="rotate(137 294.5 206.9)"/><ellipse cx="269.6" cy="239.5" rx="4" ry="2" fill="#e6e0cf" transform="rotate(8 269.6 239.5)"/><ellipse cx="287.8" cy="216.4" rx="4" ry="2" fill="#e6e0cf" transform="rotate(86 287.8 216.4)"/><ellipse cx="290.2" cy="193.2" rx="4" ry="2" fill="#e6e0cf" transform="rotate(47 290.2 193.2)"/><ellipse cx="275.9" cy="170.9" rx="4" ry="2" fill="#e6e0cf" transform="rotate(126 275.9 170.9)"/><ellipse cx="219.8" cy="162.7" rx="4" ry="2" fill="#e6e0cf" transform="rotate(121 219.8 162.7)"/><ellipse cx="233.7" cy="147.7" rx="4" ry="2" fill="#e6e0cf" transform="rotate(11 233.7 147.7)"/><ellipse cx="262.2" cy="152.4" rx="4" ry="2" fill="#e6e0cf" transform="rotate(102 262.2 152.4)"/><circle cx="255.8" cy="205.4" r="18.2" fill="#ef8354"/><circle cx="230.7" cy="213.0" r="18.2" fill="#f2a48e"/><circle cx="233.6" cy="188.0" r="18.2" fill="#f2ecd8"/><circle cx="403.890959944576" cy="203.66736789606512" r="70" fill="#000" opacity="0.35"/><circle cx="403.890959944576" cy="197.66736789606512" r="70" fill="#2e3230"/><circle cx="403.890959944576" cy="197.66736789606512" r="60.199999999999996" fill="#f5f2e8"/><ellipse cx="442.6" cy="161.5" rx="4" ry="2" fill="#e6e0cf" transform="rotate(135 442.6 161.5)"/><ellipse cx="395.4" cy="251.0" rx="4" ry="2" fill="#e6e0cf" transform="rotate(92 395.4 251.0)"/><ellipse cx="398.8" cy="145.0" rx="4" ry="2" fill="#e6e0cf" transform="rotate(90 398.8 145.0)"/><ellipse cx="365.5" cy="223.7" rx="4" ry="2" fill="#e6e0cf" transform="rotate(58 365.5 223.7)"/><ellipse cx="448.3" cy="226.7" rx="4" ry="2" fill="#e6e0cf" transform="rotate(22 448.3 226.7)"/><ellipse cx="450.6" cy="215.7" rx="4" ry="2" fill="#e6e0cf" transform="rotate(104 450.6 215.7)"/><ellipse cx="443.8" cy="176.5" rx="4" ry="2" fill="#e6e0cf" transform="rotate(77 443.8 176.5)"/><ellipse cx="443.7" cy="217.6" rx="4" ry="2" fill="#e6e0cf" transform="rotate(78 443.7 217.6)"/><ellipse cx="401.3" cy="146.3" rx="4" ry="2" fill="#e6e0cf" transform="rotate(78 401.3 146.3)"/><ellipse cx="395.1" cy="252.7" rx="4" ry="2" fill="#e6e0cf" transform="rotate(154 395.1 252.7)"/><circle cx="418.3" cy="203.2" r="18.2" fill="#ef8354"/><circle cx="394.4" cy="209.8" r="18.2" fill="#f2a48e"/><circle cx="396.5" cy="184.1" r="18.2" fill="#f2ecd8"/><circle cx="563.8648884892464" cy="205.63269348442554" r="70" fill="#000" opacity="0.35"/><circle cx="563.8648884892464" cy="199.63269348442554" r="70" fill="#2e3230"/><circle cx="563.8648884892464" cy="199.63269348442554" r="60.199999999999996" fill="#f5f2e8"/><ellipse cx="520.0" cy="201.1" rx="4" ry="2" fill="#e6e0cf" transform="rotate(84 520.0 201.1)"/><ellipse cx="549.8" cy="150.1" rx="4" ry="2" fill="#e6e0cf" transform="rotate(52 549.8 150.1)"/><ellipse cx="586.9" cy="160.8" rx="4" ry="2" fill="#e6e0cf" transform="rotate(148 586.9 160.8)"/><ellipse cx="512.3" cy="174.5" rx="4" ry="2" fill="#e6e0cf" transform="rotate(116 512.3 174.5)"/><ellipse cx="520.7" cy="188.4" rx="4" ry="2" fill="#e6e0cf" transform="rotate(72 520.7 188.4)"/><ellipse cx="520.9" cy="191.1" rx="4" ry="2" fill="#e6e0cf" transform="rotate(34 520.9 191.1)"/><ellipse cx="548.4" cy="152.3" rx="4" ry="2" fill="#e6e0cf" transform="rotate(67 548.4 152.3)"/><ellipse cx="544.0" cy="241.4" rx="4" ry="2" fill="#e6e0cf" transform="rotate(49 544.0 241.4)"/><ellipse cx="558.9" cy="149.9" rx="4" ry="2" fill="#e6e0cf" transform="rotate(57 558.9 149.9)"/><ellipse cx="578.5" cy="153.1" rx="4" ry="2" fill="#e6e0cf" transform="rotate(175 578.5 153.1)"/><circle cx="579.2" cy="200.8" r="18.2" fill="#ef8354"/><circle cx="555.6" cy="212.6" r="18.2" fill="#f2a48e"/><circle cx="559.2" cy="184.9" r="18.2" fill="#f2ecd8"/><circle cx="238.1298189405352" cy="365.0945099256933" r="70" fill="#000" opacity="0.35"/><circle cx="238.1298189405352" cy="359.0945099256933" r="70" fill="#2e3230"/><circle cx="238.1298189405352" cy="359.0945099256933" r="60.199999999999996" fill="#f5f2e8"/><ellipse cx="278.4" cy="342.4" rx="4" ry="2" fill="#e6e0cf" transform="rotate(179 278.4 342.4)"/><ellipse cx="281.6" cy="344.4" rx="4" ry="2" fill="#e6e0cf" transform="rotate(149 281.6 344.4)"/><ellipse cx="186.5" cy="376.3" rx="4" ry="2" fill="#e6e0cf" transform="rotate(142 186.5 376.3)"/><ellipse cx="188.9" cy="348.9" rx="4" ry="2" fill="#e6e0cf" transform="rotate(101 188.9 348.9)"/><ellipse cx="218.3" cy="310.5" rx="4" ry="2" fill="#e6e0cf" transform="rotate(36 218.3 310.5)"/><ellipse cx="209.8" cy="324.9" rx="4" ry="2" fill="#e6e0cf" transform="rotate(0 209.8 324.9)"/><ellipse cx="211.5" cy="394.9" rx="4" ry="2" fill="#e6e0cf" transform="rotate(158 211.5 394.9)"/><ellipse cx="235.5" cy="302.4" rx="4" ry="2" fill="#e6e0cf" transform="rotate(105 235.5 302.4)"/><ellipse cx="271.5" cy="324.8" rx="4" ry="2" fill="#e6e0cf" transform="rotate(134 271.5 324.8)"/><ellipse cx="237.8" cy="414.9" rx="4" ry="2" fill="#e6e0cf" transform="rotate(23 237.8 414.9)"/><circle cx="252.0" cy="365.8" r="18.2" fill="#ef8354"/><circle cx="229.8" cy="372.0" r="18.2" fill="#f2a48e"/><circle cx="236.0" cy="343.8" r="18.2" fill="#f2ecd8"/><circle cx="398.1844486128539" cy="366.9109926149249" r="70" fill="#000" opacity="0.35"/><circle cx="398.1844486128539" cy="360.9109926149249" r="70" fill="#2e3230"/><circle cx="398.1844486128539" cy="360.9109926149249" r="60.199999999999996" fill="#f5f2e8"/><ellipse cx="355.4" cy="343.0" rx="4" ry="2" fill="#e6e0cf" transform="rotate(57 355.4 343.0)"/><ellipse cx="363.8" cy="388.2" rx="4" ry="2" fill="#e6e0cf" transform="rotate(91 363.8 388.2)"/><ellipse cx="435.7" cy="330.8" rx="4" ry="2" fill="#e6e0cf" transform="rotate(54 435.7 330.8)"/><ellipse cx="446.4" cy="347.9" rx="4" ry="2" fill="#e6e0cf" transform="rotate(28 446.4 347.9)"/><ellipse cx="392.0" cy="315.3" rx="4" ry="2" fill="#e6e0cf" transform="rotate(71 392.0 315.3)"/><ellipse cx="350.3" cy="384.9" rx="4" ry="2" fill="#e6e0cf" transform="rotate(55 350.3 384.9)"/><ellipse cx="368.0" cy="409.3" rx="4" ry="2" fill="#e6e0cf" transform="rotate(30 368.0 409.3)"/><ellipse cx="442.4" cy="350.7" rx="4" ry="2" fill="#e6e0cf" transform="rotate(153 442.4 350.7)"/><ellipse cx="410.1" cy="309.6" rx="4" ry="2" fill="#e6e0cf" transform="rotate(130 410.1 309.6)"/><ellipse cx="440.6" cy="331.8" rx="4" ry="2" fill="#e6e0cf" transform="rotate(77 440.6 331.8)"/><circle cx="412.2" cy="367.3" r="18.2" fill="#ef8354"/><circle cx="389.0" cy="373.3" r="18.2" fill="#f2a48e"/><circle cx="391.5" cy="347.0" r="18.2" fill="#f2ecd8"/><circle cx="560.6628151200712" cy="365.9662500862032" r="70" fill="#000" opacity="0.35"/><circle cx="560.6628151200712" cy="359.9662500862032" r="70" fill="#2e3230"/><circle cx="560.6628151200712" cy="359.9662500862032" r="60.199999999999996" fill="#f5f2e8"/><ellipse cx="577.1" cy="317.1" rx="4" ry="2" fill="#e6e0cf" transform="rotate(152 577.1 317.1)"/><ellipse cx="556.2" cy="314.0" rx="4" ry="2" fill="#e6e0cf" transform="rotate(10 556.2 314.0)"/><ellipse cx="510.5" cy="356.0" rx="4" ry="2" fill="#e6e0cf" transform="rotate(97 510.5 356.0)"/><ellipse cx="515.5" cy="368.6" rx="4" ry="2" fill="#e6e0cf" transform="rotate(38 515.5 368.6)"/><ellipse cx="604.7" cy="338.4" rx="4" ry="2" fill="#e6e0cf" transform="rotate(116 604.7 338.4)"/><ellipse cx="590.1" cy="324.4" rx="4" ry="2" fill="#e6e0cf" transform="rotate(157 590.1 324.4)"/><ellipse cx="563.6" cy="409.8" rx="4" ry="2" fill="#e6e0cf" transform="rotate(2 563.6 409.8)"/><ellipse cx="513.4" cy="336.0" rx="4" ry="2" fill="#e6e0cf" transform="rotate(6 513.4 336.0)"/><ellipse cx="579.3" cy="406.5" rx="4" ry="2" fill="#e6e0cf" transform="rotate(59 579.3 406.5)"/><ellipse cx="583.6" cy="322.0" rx="4" ry="2" fill="#e6e0cf" transform="rotate(65 583.6 322.0)"/><circle cx="574.7" cy="366.2" r="18.2" fill="#ef8354"/><circle cx="548.5" cy="369.4" r="18.2" fill="#f2a48e"/><circle cx="555.7" cy="345.4" r="18.2" fill="#f2ecd8"/></svg>