<svg xmlns="http://www.w3.org/2000/svg" viewBox="0 0 800 600"><defs><radialGradient id="bg-filadelfiya-tempura" cx="50%" cy="35%" r="80%"><stop offset="0%" stop-color="#26262c"/><stop offset="100%" stop-color="#141417"/></radialGradient></defs><rect width="800" height="600" fill="url(#bg-filadelfiya-tempura)"/><circle cx="240.30094436369836" cy="202.3031143527478" r="70" fill="#000" opacity="0.35"/><circle cx="240.30094436369836" cy="196.3031143527478" r="70" fill="#d9a45b"/><circle cx="304.5" cy="201.7" r="4.8" fill="#b5854e"/><circle cx="264.4" cy="256.0" r="3.4" fill="#b5854e"/><circle cx="275.8" cy="250.1" r="6.8" fill="#b5854e"/><circle cx="214.1" cy="255.1" r="6.3" fill="#b5854e"/><circle cx="197.4" cy="244.3" r="5.3" fill="#b5854e"/><circle cx="191.3" cy="238.1" r="3.8" fill="#b5854e"/><circle cx="176.9" cy="185.1" r="3.3" fill="#b5854e"/><circle cx="192.3" cy="153.4" r="6.4" fill="#b5854e"/><circle cx="183.5" cy="165.9" r="4.0" fill="#b5854e"/><circle cx="231.8" cy="132.5" r="3.9" fill="#b5854e"/><circle cx="281.3" cy="146.6" r="4.0" fill="#b5854e"/><circle cx="284.2" cy="149.2" r="5.8" fill="#b5854e"/><circle cx="282.2" cy="147.4" r="4.4" fill="#b5854e"/><circle cx="304.6" cy="192.9" r="3.5" fill="#b5854e"/><circle cx="240.30094436369836" cy="196.3031143527478" r="50.4" fill="#f5f2e8"/><circle cx="255.0" cy="201.0" r="18.2" fill="#ef8354"/><circle cx="224.9" cy="195.6" r="18.2" fill="#f2ecd8"/><circle cx="398.77259831503034" cy="204.30062289349735" r="70" fill="#000" opacity="0.35"/><circle cx="398.77259831503034" cy="198.30062289349735" r="70" fill="#d9a45b"/><circle cx="463.2" cy="198.3" r="6.7" fill="#b5854e"/><circle cx="442.8" cy="245.3" r="5.3" fill="#b5854e"/><circle cx="409.3" cy="261.8" r="3.2" fill="#b5854e"/><circle cx="404.6" cy="262.4" r="4.5" fill="#b5854e"/><circle cx="381.0" cy="260.2" r="3.5" fill="#b5854e"/><circle cx="349.2" cy="239.4" r="3.2" fill="#b5854e"/><circle cx="337.6" cy="178.2" r="4.8" fill="#b5854e"/><circle cx="355.2" cy="150.9" r="4.7" fill="#b5854e"/><circle cx="368.7" cy="141.4" r="6.2" fill="#b5854e"/><circle cx="377.2" cy="137.6" r="4.8" fill="#b5854e"/><circle cx="401.7" cy="134.0" r="6.8" fill="#b5854e"/><circle cx="432.4" cy="143.4" r="6.7" fill="#b5854e"/><circle cx="462.0" cy="186.1" r="3.3" fill="#b5854e"/><circle cx="456.5" cy="226.8" r="3.2" fill="#b5854e"/><circle cx="398.77259831503034" cy="198.30062289349735" r="50.4" fill="#f5f2e8"/><circle cx="413.7" cy="202.2" r="18.2" fill="#ef8354"/><circle cx="383.7" cy="195.1" r="18.2" fill="#f2ecd8"/><circle cx="560.9641734417528" cy="202.48634504899383" r="70" fill="#000" opacity="0.35"/><circle cx="560.9641734417528" cy="196.48634504899383" r="70" fill="#d9a45b"/><circle cx="624.5" cy="207.2" r="5.5" fill="#b5854e"/><circle cx="604.7" cy="243.8" r="4.4" fill="#b5854e"/><circle cx="574.0" cy="259.6" r="4.1" fill="#b5854e"/><circle cx="539.5" cy="257.2" r="3.7" fill="#b5854e"/><circle cx="541.8" cy="258.0" r="5.6" fill="#b5854e"/><circle cx="519.4" cy="245.6" r="3.2" fill="#b5854e"/><circle cx="496.8" cy="202.2" r="3.1" fill="#b5854e"/><circle cx="496.6" cy="195.7" r="6.1" fill="#b5854e"/><circle cx="525.5" cy="142.7" r="4.6" fill="#b5854e"/><circle cx="559.9" cy="132.1" r="5.6" fill="#b5854e"/><circle cx="602.0" cy="146.9" r="6.9" fill="#b5854e"/><circle cx="618.4" cy="167.3" r="6.3" fill="#b5854e"/><circle cx="601.4" cy="146.4" r="5.6" fill="#b5854e"/><circle cx="621.9" cy="175.5" r="4.2" fill="#b5854e"/><circle cx="560.9641734417528" cy="196.48634504899383" r="50.4" fill="#f5f2e8"/><circle cx="575.9" cy="200.2" r="18.2" fill="#ef8354"/><circle cx="546.1" cy="192.6" r="18.2" fill="#f2ecd8"/><circle cx="236.64101681113243" cy="364.6540679130703" r="70" fill="#000" opacity="0.35"/><circle cx="236.64101681113243" cy="358.6540679130703" r="70" fill="#d9a45b"/><circle cx="295.0" cy="386.0" r="3.2" fill="#b5854e"/><circle cx="287.0" cy="398.8" r="3.7" fill="#b5854e"/><circle cx="241.5" cy="422.9" r="3.7" fill="#b5854e"/><circle cx="192.2" cy="405.3" r="4.7" fill="#b5854e"/><circle cx="181.3" cy="391.5" r="4.9" fill="#b5854e"/><circle cx="172.5" cy="364.0" r="4.4" fill="#b5854e"/><circle cx="173.6" cy="345.7" r="3.5" fill="#b5854e"/><circle cx="172.5" cy="352.7" r="5.7" fill="#b5854e"/><circle cx="221.6" cy="296.0" r="5.3" fill="#b5854e"/><circle cx="219.1" cy="296.7" r="6.9" fill="#b5854e"/><circle cx="256.7" cy="297.4" r="3.6" fill="#b5854e"/><circle cx="289.5" cy="321.9" r="5.1" fill="#b5854e"/><circle cx="296.2" cy="334.1" r="5.4" fill="#b5854e"/><circle cx="300.9" cy="362.4" r="6.7" fill="#b5854e"/><circle cx="236.64101681113243" cy="358.6540679130703" r="50.4" fill="#f5f2e8"/><circle cx="251.5" cy="362.6" r="18.2" fill="#ef8354"/><circle cx="221.7" cy="354.7" r="18.2" fill="#f2ecd8"/><circle cx="397.4806521087885" cy="368.2975021600723" r="70" fill="#000" opacity="0.35"/><circle cx="397.4806521087885" cy="362.2975021600723" r="70" fill="#d9a45b"/><circle cx="451.3" cy="397.7" r="6.9" fill="#b5854e"/><circle cx="453.8" cy="393.5" r="3.6" fill="#b5854e"/><circle cx="434.5" cy="415.0" r="4.3" fill="#b5854e"/><circle cx="406.5" cy="426.1" r="3.3" fill="#b5854e"/><circle cx="338.4" cy="388.0" r="4.6" fill="#b5854e"/><circle cx="333.1" cy="364.4" r="4.3" fill="#b5854e"/><circle cx="333.1" cy="360.3" r="3.6" fill="#b5854e"/><circle cx="335.5" cy="344.7" r="5.8" fill="#b5854e"/><circle cx="368.4" cy="304.8" r="4.4" fill="#b5854e"/><circle cx="407.1" cy="298.6" r="3.2" fill="#b5854e"/><circle cx="438.7" cy="312.8" r="5.4" fill="#b5854e"/><circle cx="457.2" cy="338.3" r="5.4" fill="#b5854e"/><circle cx="448.3" cy="322.7" r="3.4" fill="#b5854e"/><circle cx="457.9" cy="384.7" r="5.8" fill="#b5854e"/><circle cx="397.4806521087885" cy="362.2975021600723" r="50.4" fill="#f5f2e8"/><circle cx="412.9" cy="362.6" r="18.2" fill="#ef8354"/><circle cx="382.5" cy="358.7" r="18.2" fill="#f2ecd8"/><circle cx="559.9091450385749" cy="364.6364541184157" r="70" fill="#000" opacity="0.35"/><circle cx="559.9091450385749" cy="358.6364541184157" r="70" fill="#d9a45b"/><circle cx="613.2" cy="394.8" r="5.4" fill="#b5854e"/><circle cx="602.0" cy="407.4" r="5.9" fill="#b5854e"/><circle cx="574.6" cy="421.3" r="6.0" fill="#b5854e"/><circle cx="515.3" cy="405.1" r="4.3" fill="#b5854e"/><circle cx="525.2" cy="412.9" r="6.3" fill="#b5854e"/><circle cx="505.7" cy="393.4" r="6.6" fill="#b5854e"/><circle cx="495.8" cy="364.4" r="6.8" fill="#b5854e"/><circle cx="495.9" cy="351.8" r="5.1" fill="#b5854e"/><circle cx="532.8" cy="300.2" r="4.4" fill="#b5854e"/><circle cx="560.7" cy="294.2" r="4.8" fill="#b5854e"/><circle cx="583.9" cy="298.9" r="3.7" fill="#b5854e"/><circle cx="598.1" cy="306.8" r="4.4" fill="#b5854e"/><circle cx="623.8" cy="350.8" r="5.6" fill="#b5854e"/><circle cx="622.6" cy="373.4" r="5.8" fill="#b5854e"/><circle cx="559.9091450385749" cy="358.6364541184157" r="50.4" fill="#f5f2e8"/><circle cx="573.7" cy="365.6" r="18.2" fill="#ef8354"/><circle cx="546.4" cy="351.3" r="18.2" fill="#f2ecd8"/></svg>