<svg xmlns="http://www.w3.org/2000/svg" viewBox="0 0 800 600"><defs><radialGradient id="bg-filadelfiya-s-ogurcom" cx="50%" cy="35%" r="80%"><stop offset="0%" stop-color="#ffffff"/><stop offset="100%" stop-color="#efeff2"/></radialGradient></defs><rect width="800" height="600" fill="url(#bg-filadelfiya-s-ogurcom)"/><circle cx="235.51907077245414" cy="203.31735231541097" r="70" fill="#000" opacity="0.1"/><circle cx="235.51907077245414" cy="197.31735231541097" r="70" fill="#f5f2e8" stroke="#e0d9c2" stroke-width="2"/><circle cx="235.51907077245414" cy="197.31735231541097" r="60.199999999999996" fill="#f5f2e8"/><ellipse cx="243.5" cy="152.1" rx="4" ry="2" fill="#e6e0cf" transform="rotate(178 243.5 152.1)"/><ellipse cx="198.5" cy="170.4" rx="4" ry="2" fill="#e6e0cf" transform="rotate(52 198.5 170.4)"/><ellipse cx="190.0" cy="198.8" rx="4" ry="2" fill="#e6e0cf" transform="rotate(172 190.0 198.8)"/><ellipse cx="286.4" cy="200.7" rx="4" ry="2" fill="#e6e0cf" transform="rotate(85 286.4 200.7)"/><ellipse cx="205.3" cy="230.1" rx="4" ry="2" fill="#e6e0cf" transform="rotate(56 205.3 230.1)"/><ellipse cx="209.8" cy="239.4" rx="4" ry="2" fill="#e6e0cf" transform="rotate(33 209.8 239.4)"/><ellipse cx="187.7" cy="212.4" rx="4" ry="2" fill="#e6e0cf" transform="rotate(165 187.7 212.4)"/><ellipse cx="188.5" cy="206.3" rx="4" ry="2" fill="#e6e0cf" transform="rotate(63 188.5 206.3)"/><ellipse cx="189.9" cy="195.8" rx="4" ry="2" fill="#e6e0cf" transform="rotate(32 189.9 195.8)"/><ellipse cx="180.8" cy="201.4" rx="4" ry="2" fill="#e6e0cf" transform="rotate(158 180.8 201.4)"/><circle cx="249.7" cy="203.3" r="18.2" fill="#ef8354"/><circle cx="222.6" cy="205.6" r="18.2" fill="#7fb069"/><circle cx="234.5" cy="181.9" r="18.2" fill="#f2ecd8"/><circle cx="399.50364774279296" cy="207.39673839509487" r="70" fill="#000" opacity="0.1"/><circle cx="399.50364774279296" cy="201.39673839509487" r="70" fill="#f5f2e8" stroke="#e0d9c2" stroke-width="2"/><circle cx="399.50364774279296" cy="201.39673839509487" r="60.199999999999996" fill="#f5f2e8"/><ellipse cx="354.8" cy="227.0" rx="4" ry="2" fill="#e6e0cf" transform="rotate(82 354.8 227.0)"/><ellipse cx="452.4" cy="220.6" rx="4" ry="2" fill="#e6e0cf" transform="rotate(173 452.4 220.6)"/><ellipse cx="397.6" cy="149.6" rx="4" ry="2" fill="#e6e0cf" transform="rotate(145 397.6 149.6)"/><ellipse cx="358.9" cy="229.7" rx="4" ry="2" fill="#e6e0cf" transform="rotate(29 358.9 229.7)"/><ellipse cx="360.0" cy="235.1" rx="4" ry="2" fill="#e6e0cf" transform="rotate(15 360.0 235.1)"/><ellipse cx="365.9" cy="229.5" rx="4" ry="2" fill="#e6e0cf" transform="rotate(111 365.9 229.5)"/><ellipse cx="353.3" cy="196.6" rx="4" ry="2" fill="#e6e0cf" transform="rotate(169 353.3 196.6)"/><ellipse cx="350.2" cy="201.4" rx="4" ry="2" fill="#e6e0cf" transform="rotate(56 350.2 201.4)"/><ellipse cx="443.6" cy="220.9" rx="4" ry="2" fill="#e6e0cf" transform="rotate(32 443.6 220.9)"/><ellipse cx="351.2" cy="230.1" rx="4" ry="2" fill="#e6e0cf" transform="rotate(45 351.2 230.1)"/><circle cx="413.2" cy="208.4" r="18.2" fill="#ef8354"/><circle cx="389.6" cy="213.2" r="18.2" fill="#7fb069"/><circle cx="398.7" cy="186.0" r="18.2" fill="#f2ecd8"/><circle cx="562.2743975166231" cy="208.6356854531914" r="70" fill="#000" opacity="0.1"/><circle cx="562.2743975166231" cy="202.6356854531914" r="70" fill="#f5f2e8" stroke="#e0d9c2" stroke-width="2"/><circle cx="562.2743975166231" cy="202.6356854531914" r="60.199999999999996" fill="#f5f2e8"/><ellipse cx="583.7" cy="247.0" rx="4" ry="2" fill="#e6e0cf" transform="rotate(179 583.7 247.0)"/><ellipse cx="580.3" cy="152.9" rx="4" ry="2" fill="#e6e0cf" transform="rotate(149 580.3 152.9)"/><ellipse cx="552.1" cy="250.9" rx="4" ry="2" fill="#e6e0cf" transform="rotate(168 552.1 250.9)"/><ellipse cx="618.1" cy="208.7" rx="4" ry="2" fill="#e6e0cf" transform="rotate(139 618.1 208.7)"/><ellipse cx="520.5" cy="226.5" rx="4" ry="2" fill="#e6e0cf" transform="rotate(127 520.5 226.5)"/><ellipse cx="511.3" cy="214.8" rx="4" ry="2" fill="#e6e0cf" transform="rotate(10 511.3 214.8)"/><ellipse cx="569.2" cy="255.5" rx="4" ry="2" fill="#e6e0cf" transform="rotate(18 569.2 255.5)"/><ellipse cx="602.8" cy="220.3" rx="4" ry="2" fill="#e6e0cf" transform="rotate(114 602.8 220.3)"/><ellipse cx="570.2" cy="245.4" rx="4" ry="2" fill="#e6e0cf" transform="rotate(30 570.2 245.4)"/><ellipse cx="528.2" cy="174.5" rx="4" ry="2" fill="#e6e0cf" transform="rotate(151 528.2 174.5)"/><circle cx="576.6" cy="208.4" r="18.2" fill="#ef8354"/><circle cx="551.1" cy="213.3" r="18.2" fill="#7fb069"/><circle cx="560.1" cy="187.4" r="18.2" fill="#f2ecd8"/><circle cx="236.4429972562939" cy="369.4050005786121" r="70" fill="#000" opacity="0.1"/><circle cx="236.4429972562939" cy="363.4050005786121" r="70" fill="#f5f2e8" stroke="#e0d9c2" stroke-width="2"/><circle cx="236.4429972562939" cy="363.4050005786121" r="60.199999999999996" fill="#f5f2e8"/><ellipse cx="190.4" cy="357.3" rx="4" ry="2" fill="#e6e0cf" transform="rotate(138 190.4 357.3)"/><ellipse cx="189.5" cy="362.5" rx="4" ry="2" fill="#e6e0cf" transform="rotate(84 189.5 362.5)"/><ellipse cx="182.1" cy="378.4" rx="4" ry="2" fill="#e6e0cf" transform="rotate(173 182.1 378.4)"/><ellipse cx="194.7" cy="399.0" rx="4" ry="2" fill="#e6e0cf" transform="rotate(144 194.7 399.0)"/><ellipse cx="191.6" cy="336.8" rx="4" ry="2" fill="#e6e0cf" transform="rotate(170 191.6 336.8)"/><ellipse cx="211.2" cy="324.3" rx="4" ry="2" fill="#e6e0cf" transform="rotate(64 211.2 324.3)"/><ellipse cx="260.0" cy="312.3" rx="4" ry="2" fill="#e6e0cf" transform="rotate(124 260.0 312.3)"/><ellipse cx="189.7" cy="361.0" rx="4" ry="2" fill="#e6e0cf" transform="rotate(59 189.7 361.0)"/><ellipse cx="197.3" cy="329.8" rx="4" ry="2" fill="#e6e0cf" transform="rotate(96 197.3 329.8)"/><ellipse cx="260.7" cy="326.8" rx="4" ry="2" fill="#e6e0cf" transform="rotate(121 260.7 326.8)"/><circle cx="251.7" cy="365.1" r="18.2" fill="#ef8354"/><circle cx="225.1" cy="373.8" r="18.2" fill="#7fb069"/><circle cx="233.1" cy="348.4" r="18.2" fill="#f2ecd8"/><circle cx="398.95036081410944" cy="363.10757698491216" r="70" fill="#000" opacity="0.1"/><circle cx="398.95036081410944" cy="357.10757698491216" r="70" fill="#f5f2e8" stroke="#e0d9c2" stroke-width="2"/><circle cx="398.95036081410944" cy="357.10757698491216" r="60.199999999999996" fill="#f5f2e8"/><ellipse cx="406.6" cy="403.5" rx="4" ry="2" fill="#e6e0cf" transform="rotate(6 406.6 403.5)"/><ellipse cx="443.9" cy="374.3" rx="4" ry="2" fill="#e6e0cf" transform="rotate(83 443.9 374.3)"/><ellipse cx="353.4" cy="360.9" rx="4" ry="2" fill="#e6e0cf" transform="rotate(151 353.4 360.9)"/><ellipse cx="365.2" cy="328.6" rx="4" ry="2" fill="#e6e0cf" transform="rotate(129 365.2 328.6)"/><ellipse cx="407.6" cy="313.3" rx="4" ry="2" fill="#e6e0cf" transform="rotate(104 407.6 313.3)"/><ellipse cx="438.0" cy="397.6" rx="4" ry="2" fill="#e6e0cf" transform="rotate(126 438.0 397.6)"/><ellipse cx="424.5" cy="319.7" rx="4" ry="2" fill="#e6e0cf" transform="rotate(157 424.5 319.7)"/><ellipse cx="400.8" cy="311.4" rx="4" ry="2" fill="#e6e0cf" transform="rotate(179 400.8 311.4)"/><ellipse cx="446.4" cy="357.0" rx="4" ry="2" fill="#e6e0cf" transform="rotate(161 446.4 357.0)"/><ellipse cx="353.7" cy="382.7" rx="4" ry="2" fill="#e6e0cf" transform="rotate(27 353.7 382.7)"/><circle cx="413.8" cy="361.1" r="18.2" fill="#ef8354"/><circle cx="389.4" cy="369.2" r="18.2" fill="#7fb069"/><circle cx="397.0" cy="341.8" r="18.2" fill="#f2ecd8"/><circle cx="564.1944482307881" cy="366.53159455396235" r="70" fill="#000" opacity="0.1"/><circle cx="564.1944482307881" cy="360.53159455396235" r="70" fill="#f5f2e8" stroke="#e0d9c2" stroke-width="2"/><circle cx="564.1944482307881" cy="360.53159455396235" r="60.199999999999996" fill="#f5f2e8"/><ellipse cx="593.1" cy="396.1" rx="4" ry="2" fill="#e6e0cf" transform="rotate(34 593.1 396.1)"/><ellipse cx="603.9" cy="384.8" rx="4" ry="2" fill="#e6e0cf" transform="rotate(172 603.9 384.8)"/><ellipse cx="539.8" cy="399.3" rx="4" ry="2" fill="#e6e0cf" transform="rotate(173 539.8 399.3)"/><ellipse cx="584.0" cy="407.0" rx="4" ry="2" fill="#e6e0cf" transform="rotate(48 584.0 407.0)"/><ellipse cx="576.2" cy="306.4" rx="4" ry="2" fill="#e6e0cf" transform="rotate(30 576.2 306.4)"/><ellipse cx="556.4" cy="414.2" rx="4" ry="2" fill="#e6e0cf" transform="rotate(4 556.4 414.2)"/><ellipse cx="613.3" cy="331.9" rx="4" ry="2" fill="#e6e0cf" transform="rotate(1 613.3 331.9)"/><ellipse cx="614.3" cy="348.1" rx="4" ry="2" fill="#e6e0cf" transform="rotate(15 614.3 348.1)"/><ellipse cx="554.1" cy="405.0" rx="4" ry="2" fill="#e6e0cf" transform="rotate(104 554.1 405.0)"/><ellipse cx="604.7" cy="386.0" rx="4" ry="2" fill="#e6e0cf" transform="rotate(70 604.7 386.0)"/><circle cx="578.4" cy="366.5" r="18.2" fill="#ef8354"/><circle cx="554.9" cy="372.8" r="18.2" fill="#7fb069"/><circle cx="558.2" cy="346.3" r="18.2" fill="#f2ecd8"/></svg>