<svg xmlns="http://www.w3.org/2000/svg" viewBox="0 0 800 600"><defs><radialGradient id="bg-filadelfiya-s-ikroy" cx="50%" cy="35%" r="80%"><stop offset="0%" stop-color="#ffffff"/><stop offset="100%" stop-color="#efeff2"/></radialGradient></defs><rect width="800" height="600" fill="url(#bg-filadelfiya-s-ikroy)"/><circle cx="235.80907083489" cy="205.73016656935215" r="70" fill="#000" opacity="0.1"/><circle cx="235.80907083489" cy="199.73016656935215" r="70" fill="#2e3230" stroke="#1f2321" stroke-width="2"/><circle cx="235.80907083489" cy="199.73016656935215" r="60.199999999999996" fill="#f5f2e8"/><ellipse cx="275.2" cy="230.4" rx="4" ry="2" fill="#e6e0cf" transform="rotate(61 275.2 230.4)"/><ellipse cx="281.0" cy="225.7" rx="4" ry="2" fill="#e6e0cf" transform="rotate(144 281.0 225.7)"/><ellipse cx="245.9" cy="153.8" rx="4" ry="2" fill="#e6e0cf" transform="rotate(179 245.9 153.8)"/><ellipse cx="269.7" cy="227.7" rx="4" ry="2" fill="#e6e0cf" transform="rotate(12 269.7 227.7)"/><ellipse cx="183.7" cy="185.9" rx="4" ry="2" fill="#e6e0cf" transform="rotate(26 183.7 185.9)"/><ellipse cx="275.8" cy="182.8" rx="4" ry="2" fill="#e6e0cf" transform="rotate(142 275.8 182.8)"/><ellipse cx="205.4" cy="165.7" rx="4" ry="2" fill="#e6e0cf" transform="rotate(21 205.4 165.7)"/><ellipse cx="286.9" cy="179.9" rx="4" ry="2" fill="#e6e0cf" transform="rotate(176 286.9 179.9)"/><ellipse cx="249.0" cy="155.9" rx="4" ry="2" fill="#e6e0cf" transform="rotate(75 249.0 155.9)"/><ellipse cx="245.5" cy="152.5" rx="4" ry="2" fill="#e6e0cf" transform="rotate(35 245.5 152.5)"/><circle cx="249.5" cy="206.8" r="18.2" fill="#e2503c"/><circle cx="221.3" cy="194.6" r="18.2" fill="#f2ecd8"/><circle cx="396.66760684736073" cy="204.7283839304" r="70" fill="#000" opacity="0.1"/><circle cx="396.66760684736073" cy="198.7283839304" r="70" fill="#2e3230" stroke="#1f2321" stroke-width="2"/><circle cx="396.66760684736073" cy="198.7283839304" r="60.199999999999996" fill="#f5f2e8"/><ellipse cx="428.3" cy="238.1" rx="4" ry="2" fill="#e6e0cf" transform="rotate(20 428.3 238.1)"/><ellipse cx="370.0" cy="149.2" rx="4" ry="2" fill="#e6e0cf" transform="rotate(169 370.0 149.2)"/><ellipse cx="436.2" cy="160.3" rx="4" ry="2" fill="#e6e0cf" transform="rotate(84 436.2 160.3)"/><ellipse cx="441.4" cy="197.2" rx="4" ry="2" fill="#e6e0cf" transform="rotate(150 441.4 197.2)"/><ellipse cx="379.2" cy="149.4" rx="4" ry="2" fill="#e6e0cf" transform="rotate(60 379.2 149.4)"/><ellipse cx="418.6" cy="156.2" rx="4" ry="2" fill="#e6e0cf" transform="rotate(98 418.6 156.2)"/><ellipse cx="380.4" cy="149.3" rx="4" ry="2" fill="#e6e0cf" transform="rotate(1 380.4 149.3)"/><ellipse cx="442.2" cy="206.2" rx="4" ry="2" fill="#e6e0cf" transform="rotate(142 442.2 206.2)"/><ellipse cx="412.0" cy="155.3" rx="4" ry="2" fill="#e6e0cf" transform="rotate(155 412.0 155.3)"/><ellipse cx="347.7" cy="174.9" rx="4" ry="2" fill="#e6e0cf" transform="rotate(56 347.7 174.9)"/><circle cx="411.9" cy="201.0" r="18.2" fill="#e2503c"/><circle cx="382.0" cy="193.9" r="18.2" fill="#f2ecd8"/><circle cx="561.348670322448" cy="202.5254319589585" r="70" fill="#000" opacity="0.1"/><circle cx="561.348670322448" cy="196.5254319589585" r="70" fill="#2e3230" stroke="#1f2321" stroke-width="2"/><circle cx="561.348670322448" cy="196.5254319589585" r="60.199999999999996" fill="#f5f2e8"/><ellipse cx="515.8" cy="194.1" rx="4" ry="2" fill="#e6e0cf" transform="rotate(44 515.8 194.1)"/><ellipse cx="535.5" cy="158.8" rx="4" ry="2" fill="#e6e0cf" transform="rotate(121 535.5 158.8)"/><ellipse cx="508.9" cy="186.5" rx="4" ry="2" fill="#e6e0cf" transform="rotate(53 508.9 186.5)"/><ellipse cx="511.0" cy="215.5" rx="4" ry="2" fill="#e6e0cf" transform="rotate(14 511.0 215.5)"/><ellipse cx="513.6" cy="194.8" rx="4" ry="2" fill="#e6e0cf" transform="rotate(1 513.6 194.8)"/><ellipse cx="597.5" cy="225.8" rx="4" ry="2" fill="#e6e0cf" transform="rotate(175 597.5 225.8)"/><ellipse cx="515.7" cy="194.2" rx="4" ry="2" fill="#e6e0cf" transform="rotate(110 515.7 194.2)"/><ellipse cx="560.8" cy="147.3" rx="4" ry="2" fill="#e6e0cf" transform="rotate(128 560.8 147.3)"/><ellipse cx="542.5" cy="148.3" rx="4" ry="2" fill="#e6e0cf" transform="rotate(87 542.5 148.3)"/><ellipse cx="549.7" cy="141.9" rx="4" ry="2" fill="#e6e0cf" transform="rotate(40 549.7 141.9)"/><circle cx="575.1" cy="203.5" r="18.2" fill="#e2503c"/><circle cx="546.0" cy="195.8" r="18.2" fill="#f2ecd8"/><circle cx="238.60466720722616" cy="365.6813602987677" r="70" fill="#000" opacity="0.1"/><circle cx="238.60466720722616" cy="359.6813602987677" r="70" fill="#2e3230" stroke="#1f2321" stroke-width="2"/><circle cx="238.60466720722616" cy="359.6813602987677" r="60.199999999999996" fill="#f5f2e8"/><ellipse cx="227.0" cy="410.0" rx="4" ry="2" fill="#e6e0cf" transform="rotate(133 227.0 410.0)"/><ellipse cx="188.6" cy="375.0" rx="4" ry="2" fill="#e6e0cf" transform="rotate(119 188.6 375.0)"/><ellipse cx="223.7" cy="312.0" rx="4" ry="2" fill="#e6e0cf" transform="rotate(158 223.7 312.0)"/><ellipse cx="264.9" cy="320.1" rx="4" ry="2" fill="#e6e0cf" transform="rotate(56 264.9 320.1)"/><ellipse cx="294.0" cy="350.9" rx="4" ry="2" fill="#e6e0cf" transform="rotate(86 294.0 350.9)"/><ellipse cx="219.7" cy="407.9" rx="4" ry="2" fill="#e6e0cf" transform="rotate(54 219.7 407.9)"/><ellipse cx="291.9" cy="376.9" rx="4" ry="2" fill="#e6e0cf" transform="rotate(92 291.9 376.9)"/><ellipse cx="205.7" cy="393.7" rx="4" ry="2" fill="#e6e0cf" transform="rotate(115 205.7 393.7)"/><ellipse cx="189.6" cy="386.9" rx="4" ry="2" fill="#e6e0cf" transform="rotate(40 189.6 386.9)"/><ellipse cx="243.4" cy="303.8" rx="4" ry="2" fill="#e6e0cf" transform="rotate(13 243.4 303.8)"/><circle cx="253.8" cy="362.1" r="18.2" fill="#e2503c"/><circle cx="224.8" cy="352.8" r="18.2" fill="#f2ecd8"/><circle cx="398.9037700779736" cy="362.52552294544876" r="70" fill="#000" opacity="0.1"/><circle cx="398.9037700779736" cy="356.52552294544876" r="70" fill="#2e3230" stroke="#1f2321" stroke-width="2"/><circle cx="398.9037700779736" cy="356.52552294544876" r="60.199999999999996" fill="#f5f2e8"/><ellipse cx="396.1" cy="412.6" rx="4" ry="2" fill="#e6e0cf" transform="rotate(177 396.1 412.6)"/><ellipse cx="447.9" cy="365.1" rx="4" ry="2" fill="#e6e0cf" transform="rotate(64 447.9 365.1)"/><ellipse cx="363.8" cy="329.5" rx="4" ry="2" fill="#e6e0cf" transform="rotate(138 363.8 329.5)"/><ellipse cx="437.7" cy="320.1" rx="4" ry="2" fill="#e6e0cf" transform="rotate(140 437.7 320.1)"/><ellipse cx="355.5" cy="377.4" rx="4" ry="2" fill="#e6e0cf" transform="rotate(103 355.5 377.4)"/><ellipse cx="359.4" cy="338.1" rx="4" ry="2" fill="#e6e0cf" transform="rotate(147 359.4 338.1)"/><ellipse cx="349.1" cy="337.9" rx="4" ry="2" fill="#e6e0cf" transform="rotate(26 349.1 337.9)"/><ellipse cx="362.2" cy="313.1" rx="4" ry="2" fill="#e6e0cf" transform="rotate(151 362.2 313.1)"/><ellipse cx="344.0" cy="363.0" rx="4" ry="2" fill="#e6e0cf" transform="rotate(48 344.0 363.0)"/><ellipse cx="385.3" cy="301.5" rx="4" ry="2" fill="#e6e0cf" transform="rotate(121 385.3 301.5)"/><circle cx="413.4" cy="361.6" r="18.2" fill="#e2503c"/><circle cx="383.6" cy="354.6" r="18.2" fill="#f2ecd8"/><circle cx="559.6499180253595" cy="364.02790793403983" r="70" fill="#000" opacity="0.1"/><circle cx="559.6499180253595" cy="358.02790793403983" r="70" fill="#2e3230" stroke="#1f2321" stroke-width="2"/><circle cx="559.6499180253595" cy="358.02790793403983" r="60.199999999999996" fill="#f5f2e8"/><ellipse cx="550.6" cy="409.7" rx="4" ry="2" fill="#e6e0cf" transform="rotate(135 550.6 409.7)"/><ellipse cx="582.2" cy="403.1" rx="4" ry="2" fill="#e6e0cf" transform="rotate(106 582.2 403.1)"/><ellipse cx="572.3" cy="315.1" rx="4" ry="2" fill="#e6e0cf" transform="rotate(172 572.3 315.1)"/><ellipse cx="597.9" cy="323.5" rx="4" ry="2" fill="#e6e0cf" transform="rotate(133 597.9 323.5)"/><ellipse cx="531.1" cy="407.0" rx="4" ry="2" fill="#e6e0cf" transform="rotate(31 531.1 407.0)"/><ellipse cx="512.3" cy="352.8" rx="4" ry="2" fill="#e6e0cf" transform="rotate(15 512.3 352.8)"/><ellipse cx="516.2" cy="357.1" rx="4" ry="2" fill="#e6e0cf" transform="rotate(178 516.2 357.1)"/><ellipse cx="580.4" cy="398.4" rx="4" ry="2" fill="#e6e0cf" transform="rotate(8 580.4 398.4)"/><ellipse cx="597.8" cy="333.6" rx="4" ry="2" fill="#e6e0cf" transform="rotate(121 597.8 333.6)"/><ellipse cx="601.3" cy="335.9" rx="4" ry="2" fill="#e6e0cf" transform="rotate(119 601.3 335.9)"/><circle cx="574.9" cy="360.2" r="18.2" fill="#e2503c"/><circle cx="544.3" cy="357.7" r="18.2" fill="#f2ecd8"/></svg>