<svg xmlns="http://www.w3.org/2000/svg" viewBox="0 0 800 600"><defs><radialGradient id="bg-filla-set" cx="50%" cy="35%" r="80%"><stop offset="0%" stop-color="#ffffff"/><stop offset="100%" stop-color="#efeff2"/></radialGradient></defs><rect width="800" height="600" fill="url(#bg-filla-set)"/><circle cx="187.38155539892614" cy="143.48190878517926" r="62.5" fill="#000" opacity="0.1"/><circle cx="187.38155539892614" cy="137.48190878517926" r="62.5" fill="#f5f2e8" stroke="#e0d9c2" stroke-width="2"/><circle cx="187.38155539892614" cy="137.48190878517926" r="53.75" fill="#f5f2e8"/><ellipse cx="152.9" cy="155.9" rx="4" ry="2" fill="#e6e0cf" transform="rotate(22 152.9 155.9)"/><ellipse cx="194.8" cy="96.1" rx="4" ry="2" fill="#e6e0cf" transform="rotate(157 194.8 96.1)"/><ellipse cx="175.5" cy="179.7" rx="4" ry="2" fill="#e6e0cf" transform="rotate(10 175.5 179.7)"/><ellipse cx="158.7" cy="167.5" rx="4" ry="2" fill="#e6e0cf" transform="rotate(62 158.7 167.5)"/><ellipse cx="175.4" cy="180.9" rx="4" ry="2" fill="#e6e0cf" transform="rotate(38 175.4 180.9)"/><ellipse cx="148.2" cy="136.1" rx="4" ry="2" fill="#e6e0cf" transform="rotate(150 148.2 136.1)"/><ellipse cx="220.9" cy="173.3" rx="4" ry="2" fill="#e6e0cf" transform="rotate(168 220.9 173.3)"/><ellipse cx="232.0" cy="136.4" rx="4" ry="2" fill="#e6e0cf" transform="rotate(158 232.0 136.4)"/><ellipse cx="207.3" cy="94.8" rx="4" ry="2" fill="#e6e0cf" transform="rotate(87 207.3 94.8)"/><ellipse cx="153.7" cy="114.2" rx="4" ry="2" fill="#e6e0cf" transform="rotate(152 153.7 114.2)"/><circle cx="201.0" cy="139.6" r="16.3" fill="#ef8354"/><circle cx="173.7" cy="136.7" r="16.3" fill="#f2a48e"/><circle cx="332.06178771331906" cy="140.17037448473275" r="62.5" fill="#000" opacity="0.1"/><circle cx="332.06178771331906" cy="134.17037448473275" r="62.5" fill="#f5f2e8" stroke="#e0d9c2" stroke-width="2"/><circle cx="332.06178771331906" cy="134.17037448473275" r="53.75" fill="#f5f2e8"/><ellipse cx="355.4" cy="93.0" rx="4" ry="2" fill="#e6e0cf" transform="rotate(50 355.4 93.0)"/><ellipse cx="320.9" cy="88.7" rx="4" ry="2" fill="#e6e0cf" transform="rotate(24 320.9 88.7)"/><ellipse cx="319.1" cy="97.4" rx="4" ry="2" fill="#e6e0cf" transform="rotate(74 319.1 97.4)"/><ellipse cx="350.8" cy="170.8" rx="4" ry="2" fill="#e6e0cf" transform="rotate(17 350.8 170.8)"/><ellipse cx="305.6" cy="174.3" rx="4" ry="2" fill="#e6e0cf" transform="rotate(14 305.6 174.3)"/><ellipse cx="370.6" cy="104.7" rx="4" ry="2" fill="#e6e0cf" transform="rotate(74 370.6 104.7)"/><ellipse cx="370.0" cy="143.3" rx="4" ry="2" fill="#e6e0cf" transform="rotate(136 370.0 143.3)"/><ellipse cx="354.9" cy="167.0" rx="4" ry="2" fill="#e6e0cf" transform="rotate(44 354.9 167.0)"/><ellipse cx="361.6" cy="98.9" rx="4" ry="2" fill="#e6e0cf" transform="rotate(165 361.6 98.9)"/><ellipse cx="297.9" cy="115.0" rx="4" ry="2" fill="#e6e0cf" transform="rotate(154 297.9 115.0)"/><circle cx="344.4" cy="140.2" r="16.3" fill="#ef8354"/><circle cx="319.5" cy="128.7" r="16.3" fill="#f2a48e"/><circle cx="469.0664407964796" cy="138.44028278067708" r="62.5" fill="#000" opacity="0.1"/><circle cx="469.0664407964796" cy="132.44028278067708" r="62.5" fill="#f5f2e8" stroke="#e0d9c2" stroke-width="2"/><circle cx="469.0664407964796" cy="132.44028278067708" r="53.75" fill="#f5f2e8"/><ellipse cx="517.7" cy="121.7" rx="4" ry="2" fill="#e6e0cf" transform="rotate(37 517.7 121.7)"/><ellipse cx="509.3" cy="157.3" rx="4" ry="2" fill="#e6e0cf" transform="rotate(126 509.3 157.3)"/><ellipse cx="423.1" cy="142.9" rx="4" ry="2" fill="#e6e0cf" transform="rotate(68 423.1 142.9)"/><ellipse cx="456.8" cy="171.1" rx="4" ry="2" fill="#e6e0cf" transform="rotate(89 456.8 171.1)"/><ellipse cx="488.2" cy="178.0" rx="4" ry="2" fill="#e6e0cf" transform="rotate(177 488.2 178.0)"/><ellipse cx="511.4" cy="138.3" rx="4" ry="2" fill="#e6e0cf" transform="rotate(5 511.4 138.3)"/><ellipse cx="434.0" cy="109.4" rx="4" ry="2" fill="#e6e0cf" transform="rotate(29 434.0 109.4)"/><ellipse cx="494.3" cy="162.8" rx="4" ry="2" fill="#e6e0cf" transform="rotate(35 494.3 162.8)"/><ellipse cx="494.6" cy="169.3" rx="4" ry="2" fill="#e6e0cf" transform="rotate(108 494.6 169.3)"/><ellipse cx="435.7" cy="166.8" rx="4" ry="2" fill="#e6e0cf" transform="rotate(131 435.7 166.8)"/><circle cx="482.5" cy="135.4" r="16.3" fill="#ef8354"/><circle cx="456.6" cy="126.6" r="16.3" fill="#f2a48e"/><circle cx="616.6904727052897" cy="141.3752666413784" r="62.5" fill="#000" opacity="0.1"/><circle cx="616.6904727052897" cy="135.3752666413784" r="62.5" fill="#f5f2e8" stroke="#e0d9c2" stroke-width="2"/><circle cx="616.6904727052897" cy="135.3752666413784" r="53.75" fill="#f5f2e8"/><ellipse cx="594.5" cy="174.2" rx="4" ry="2" fill="#e6e0cf" transform="rotate(150 594.5 174.2)"/><ellipse cx="586.3" cy="165.6" rx="4" ry="2" fill="#e6e0cf" transform="rotate(29 586.3 165.6)"/><ellipse cx="608.1" cy="91.7" rx="4" ry="2" fill="#e6e0cf" transform="rotate(101 608.1 91.7)"/><ellipse cx="576.6" cy="166.2" rx="4" ry="2" fill="#e6e0cf" transform="rotate(53 576.6 166.2)"/><ellipse cx="580.2" cy="153.6" rx="4" ry="2" fill="#e6e0cf" transform="rotate(101 580.2 153.6)"/><ellipse cx="646.8" cy="166.2" rx="4" ry="2" fill="#e6e0cf" transform="rotate(74 646.8 166.2)"/><ellipse cx="617.2" cy="87.4" rx="4" ry="2" fill="#e6e0cf" transform="rotate(100 617.2 87.4)"/><ellipse cx="664.4" cy="123.9" rx="4" ry="2" fill="#e6e0cf" transform="rotate(60 664.4 123.9)"/><ellipse cx="572.2" cy="147.4" rx="4" ry="2" fill="#e6e0cf" transform="rotate(67 572.2 147.4)"/><ellipse cx="600.0" cy="88.6" rx="4" ry="2" fill="#e6e0cf" transform="rotate(170 600.0 88.6)"/><circle cx="629.3" cy="140.8" r="16.3" fill="#ef8354"/><circle cx="603.1" cy="133.0" r="16.3" fill="#f2a48e"/><circle cx="187.13155680149794" cy="286.9708454478532" r="62.5" fill="#000" opacity="0.1"/><circle cx="187.13155680149794" cy="280.9708454478532" r="62.5" fill="#f5f2e8" stroke="#e0d9c2" stroke-width="2"/><circle cx="187.13155680149794" cy="280.9708454478532" r="53.75" fill="#f5f2e8"/><ellipse cx="150.7" cy="294.6" rx="4" ry="2" fill="#e6e0cf" transform="rotate(43 150.7 294.6)"/><ellipse cx="165.2" cy="248.9" rx="4" ry="2" fill="#e6e0cf" transform="rotate(106 165.2 248.9)"/><ellipse cx="233.0" cy="265.0" rx="4" ry="2" fill="#e6e0cf" transform="rotate(117 233.0 265.0)"/><ellipse cx="226.9" cy="262.4" rx="4" ry="2" fill="#e6e0cf" transform="rotate(54 226.9 262.4)"/><ellipse cx="175.6" cy="327.6" rx="4" ry="2" fill="#e6e0cf" transform="rotate(36 175.6 327.6)"/><ellipse cx="227.4" cy="301.2" rx="4" ry="2" fill="#e6e0cf" transform="rotate(16 227.4 301.2)"/><ellipse cx="198.1" cy="237.8" rx="4" ry="2" fill="#e6e0cf" transform="rotate(119 198.1 237.8)"/><ellipse cx="204.0" cy="236.2" rx="4" ry="2" fill="#e6e0cf" transform="rotate(128 204.0 236.2)"/><ellipse cx="191.2" cy="238.5" rx="4" ry="2" fill="#e6e0cf" transform="rotate(100 191.2 238.5)"/><ellipse cx="146.0" cy="306.3" rx="4" ry="2" fill="#e6e0cf" transform="rotate(118 146.0 306.3)"/><circle cx="200.3" cy="284.8" r="16.3" fill="#ef8354"/><circle cx="173.4" cy="280.8" r="16.3" fill="#f2a48e"/><circle cx="328.33119368739426" cy="283.75782496109605" r="62.5" fill="#000" opacity="0.1"/><circle cx="328.33119368739426" cy="277.75782496109605" r="62.5" fill="#f5f2e8" stroke="#e0d9c2" stroke-width="2"/><circle cx="328.33119368739426" cy="277.75782496109605" r="53.75" fill="#f5f2e8"/><ellipse cx="284.4" cy="278.3" rx="4" ry="2" fill="#e6e0cf" transform="rotate(92 284.4 278.3)"/><ellipse cx="279.9" cy="290.0" rx="4" ry="2" fill="#e6e0cf" transform="rotate(122 279.9 290.0)"/><ellipse cx="373.0" cy="257.3" rx="4" ry="2" fill="#e6e0cf" transform="rotate(44 373.0 257.3)"/><ellipse cx="291.6" cy="307.2" rx="4" ry="2" fill="#e6e0cf" transform="rotate(117 291.6 307.2)"/><ellipse cx="340.8" cy="231.2" rx="4" ry="2" fill="#e6e0cf" transform="rotate(34 340.8 231.2)"/><ellipse cx="374.9" cy="257.7" rx="4" ry="2" fill="#e6e0cf" transform="rotate(142 374.9 257.7)"/><ellipse cx="291.7" cy="302.1" rx="4" ry="2" fill="#e6e0cf" transform="rotate(105 291.7 302.1)"/><ellipse cx="343.9" cy="316.6" rx="4" ry="2" fill="#e6e0cf" transform="rotate(168 343.9 316.6)"/><ellipse cx="317.1" cy="230.6" rx="4" ry="2" fill="#e6e0cf" transform="rotate(46 317.1 230.6)"/><ellipse cx="349.8" cy="243.9" rx="4" ry="2" fill="#e6e0cf" transform="rotate(16 349.8 243.9)"/><circle cx="341.5" cy="281.6" r="16.3" fill="#ef8354"/><circle cx="314.8" cy="275.2" r="16.3" fill="#f2a48e"/><circle cx="468.44861125573516" cy="286.938784211874" r="62.5" fill="#000" opacity="0.1"/><circle cx="468.44861125573516" cy="280.938784211874" r="62.5" fill="#f5f2e8" stroke="#e0d9c2" stroke-width="2"/><circle cx="468.44861125573516" cy="280.938784211874" r="53.75" fill="#f5f2e8"/><ellipse cx="507.5" cy="251.3" rx="4" ry="2" fill="#e6e0cf" transform="rotate(10 507.5 251.3)"/><ellipse cx="425.2" cy="307.0" rx="4" ry="2" fill="#e6e0cf" transform="rotate(179 425.2 307.0)"/><ellipse cx="473.1" cy="230.9" rx="4" ry="2" fill="#e6e0cf" transform="rotate(36 473.1 230.9)"/><ellipse cx="450.8" cy="233.0" rx="4" ry="2" fill="#e6e0cf" transform="rotate(180 450.8 233.0)"/><ellipse cx="425.2" cy="265.0" rx="4" ry="2" fill="#e6e0cf" transform="rotate(12 425.2 265.0)"/><ellipse cx="428.4" cy="308.7" rx="4" ry="2" fill="#e6e0cf" transform="rotate(128 428.4 308.7)"/><ellipse cx="433.1" cy="300.3" rx="4" ry="2" fill="#e6e0cf" transform="rotate(104 433.1 300.3)"/><ellipse cx="512.9" cy="266.5" rx="4" ry="2" fill="#e6e0cf" transform="rotate(148 512.9 266.5)"/><ellipse cx="512.2" cy="275.2" rx="4" ry="2" fill="#e6e0cf" transform="rotate(145 512.2 275.2)"/><ellipse cx="493.9" cy="321.7" rx="4" ry="2" fill="#e6e0cf" transform="rotate(178 493.9 321.7)"/><circle cx="480.7" cy="287.2" r="16.3" fill="#ef8354"/><circle cx="454.7" cy="280.2" r="16.3" fill="#f2a48e"/><circle cx="614.2584780175239" cy="286.41633174568415" r="62.5" fill="#000" opacity="0.1"/><circle cx="614.2584780175239" cy="280.41633174568415" r="62.5" fill="#f5f2e8" stroke="#e0d9c2" stroke-width="2"/><circle cx="614.2584780175239" cy="280.41633174568415" r="53.75" fill="#f5f2e8"/><ellipse cx="618.2" cy="234.9" rx="4" ry="2" fill="#e6e0cf" transform="rotate(105 618.2 234.9)"/><ellipse cx="654.2" cy="300.9" rx="4" ry="2" fill="#e6e0cf" transform="rotate(34 654.2 300.9)"/><ellipse cx="612.7" cy="234.9" rx="4" ry="2" fill="#e6e0cf" transform="rotate(173 612.7 234.9)"/><ellipse cx="590.8" cy="312.8" rx="4" ry="2" fill="#e6e0cf" transform="rotate(91 590.8 312.8)"/><ellipse cx="575.2" cy="248.7" rx="4" ry="2" fill="#e6e0cf" transform="rotate(21 575.2 248.7)"/><ellipse cx="610.6" cy="328.2" rx="4" ry="2" fill="#e6e0cf" transform="rotate(1 610.6 328.2)"/><ellipse cx="650.9" cy="253.2" rx="4" ry="2" fill="#e6e0cf" transform="rotate(125 650.9 253.2)"/><ellipse cx="630.6" cy="242.5" rx="4" ry="2" fill="#e6e0cf" transform="rotate(68 630.6 242.5)"/><ellipse cx="594.1" cy="242.8" rx="4" ry="2" fill="#e6e0cf" transform="rotate(36 594.1 242.8)"/><ellipse cx="583.6" cy="256.4" rx="4" ry="2" fill="#e6e0cf" transform="rotate(1 583.6 256.4)"/><circle cx="626.4" cy="286.8" r="16.3" fill="#ef8354"/><circle cx="600.9" cy="277.2" r="16.3" fill="#f2a48e"/><circle cx="181.64470432139933" cy="429.4239098727703" r="62.5" fill="#000" opacity="0.1"/><circle cx="181.64470432139933" cy="423.4239098727703" r="62.5" fill="#f5f2e8" stroke="#e0d9c2" stroke-width="2"/><circle cx="181.64470432139933" cy="423.4239098727703" r="53.75" fill="#f5f2e8"/><ellipse cx="224.2" cy="439.9" rx="4" ry="2" fill="#e6e0cf" transform="rotate(19 224.2 439.9)"/><ellipse cx="143.1" cy="400.9" rx="4" ry="2" fill="#e6e0cf" transform="rotate(111 143.1 400.9)"/><ellipse cx="209.6" cy="453.7" rx="4" ry="2" fill="#e6e0cf" transform="rotate(131 209.6 453.7)"/><ellipse cx="150.4" cy="388.5" rx="4" ry="2" fill="#e6e0cf" transform="rotate(135 150.4 388.5)"/><ellipse cx="145.9" cy="456.7" rx="4" ry="2" fill="#e6e0cf" transform="rotate(24 145.9 456.7)"/><ellipse cx="214.6" cy="449.8" rx="4" ry="2" fill="#e6e0cf" transform="rotate(85 214.6 449.8)"/><ellipse cx="143.4" cy="406.5" rx="4" ry="2" fill="#e6e0cf" transform="rotate(41 143.4 406.5)"/><ellipse cx="133.4" cy="432.6" rx="4" ry="2" fill="#e6e0cf" transform="rotate(37 133.4 432.6)"/><ellipse cx="226.8" cy="406.7" rx="4" ry="2" fill="#e6e0cf" transform="rotate(80 226.8 406.7)"/><ellipse cx="174.0" cy="469.5" rx="4" ry="2" fill="#e6e0cf" transform="rotate(166 174.0 469.5)"/><circle cx="194.0" cy="429.4" r="16.3" fill="#ef8354"/><circle cx="169.2" cy="417.6" r="16.3" fill="#f2a48e"/><circle cx="325.7394662294537" cy="432.4450407847762" r="62.5" fill="#000" opacity="0.1"/><circle cx="325.7394662294537" cy="426.4450407847762" r="62.5" fill="#f5f2e8" stroke="#e0d9c2" stroke-width="2"/><circle cx="325.7394662294537" cy="426.4450407847762" r="53.75" fill="#f5f2e8"/><ellipse cx="293.4" cy="399.0" rx="4" ry="2" fill="#e6e0cf" transform="rotate(134 293.4 399.0)"/><ellipse cx="369.8" cy="431.4" rx="4" ry="2" fill="#e6e0cf" transform="rotate(114 369.8 431.4)"/><ellipse cx="279.1" cy="432.2" rx="4" ry="2" fill="#e6e0cf" transform="rotate(137 279.1 432.2)"/><ellipse cx="292.7" cy="405.3" rx="4" ry="2" fill="#e6e0cf" transform="rotate(93 292.7 405.3)"/><ellipse cx="323.5" cy="382.8" rx="4" ry="2" fill="#e6e0cf" transform="rotate(124 323.5 382.8)"/><ellipse cx="288.7" cy="405.2" rx="4" ry="2" fill="#e6e0cf" transform="rotate(155 288.7 405.2)"/><ellipse cx="367.7" cy="416.6" rx="4" ry="2" fill="#e6e0cf" transform="rotate(135 367.7 416.6)"/><ellipse cx="280.9" cy="415.7" rx="4" ry="2" fill="#e6e0cf" transform="rotate(85 280.9 415.7)"/><ellipse cx="362.7" cy="459.4" rx="4" ry="2" fill="#e6e0cf" transform="rotate(86 362.7 459.4)"/><ellipse cx="289.0" cy="404.9" rx="4" ry="2" fill="#e6e0cf" transform="rotate(156 289.0 404.9)"/><circle cx="339.2" cy="429.2" r="16.3" fill="#ef8354"/><circle cx="312.2" cy="424.3" r="16.3" fill="#f2a48e"/><circle cx="473.36380899883807" cy="430.6283869445324" r="62.5" fill="#000" opacity="0.1"/><circle cx="473.36380899883807" cy="424.6283869445324" r="62.5" fill="#f5f2e8" stroke="#e0d9c2" stroke-width="2"/><circle cx="473.36380899883807" cy="424.6283869445324" r="53.75" fill="#f5f2e8"/><ellipse cx="425.7" cy="423.7" rx="4" ry="2" fill="#e6e0cf" transform="rotate(26 425.7 423.7)"/><ellipse cx="430.7" cy="400.9" rx="4" ry="2" fill="#e6e0cf" transform="rotate(72 430.7 400.9)"/><ellipse cx="502.5" cy="460.1" rx="4" ry="2" fill="#e6e0cf" transform="rotate(20 502.5 460.1)"/><ellipse cx="473.9" cy="469.6" rx="4" ry="2" fill="#e6e0cf" transform="rotate(176 473.9 469.6)"/><ellipse cx="495.1" cy="460.3" rx="4" ry="2" fill="#e6e0cf" transform="rotate(123 495.1 460.3)"/><ellipse cx="505.4" cy="393.4" rx="4" ry="2" fill="#e6e0cf" transform="rotate(135 505.4 393.4)"/><ellipse cx="452.4" cy="457.9" rx="4" ry="2" fill="#e6e0cf" transform="rotate(155 452.4 457.9)"/><ellipse cx="425.0" cy="410.8" rx="4" ry="2" fill="#e6e0cf" transform="rotate(177 425.0 410.8)"/><ellipse cx="517.8" cy="404.8" rx="4" ry="2" fill="#e6e0cf" transform="rotate(61 517.8 404.8)"/><ellipse cx="511.6" cy="452.4" rx="4" ry="2" fill="#e6e0cf" transform="rotate(179 511.6 452.4)"/><circle cx="487.1" cy="425.4" r="16.3" fill="#ef8354"/><circle cx="459.6" cy="423.7" r="16.3" fill="#f2a48e"/><circle cx="614.9333454817533" cy="433.28883329965174" r="62.5" fill="#000" opacity="0.1"/><circle cx="614.9333454817533" cy="427.28883329965174" r="62.5" fill="#f5f2e8" stroke="#e0d9c2" stroke-width="2"/><circle cx="614.9333454817533" cy="427.28883329965174" r="53.75" fill="#f5f2e8"/><ellipse cx="573.8" cy="404.2" rx="4" ry="2" fill="#e6e0cf" transform="rotate(55 573.8 404.2)"/><ellipse cx="577.7" cy="458.1" rx="4" ry="2" fill="#e6e0cf" transform="rotate(54 577.7 458.1)"/><ellipse cx="624.5" cy="388.5" rx="4" ry="2" fill="#e6e0cf" transform="rotate(77 624.5 388.5)"/><ellipse cx="574.6" cy="418.0" rx="4" ry="2" fill="#e6e0cf" transform="rotate(25 574.6 418.0)"/><ellipse cx="621.2" cy="380.1" rx="4" ry="2" fill="#e6e0cf" transform="rotate(112 621.2 380.1)"/><ellipse cx="575.9" cy="459.0" rx="4" ry="2" fill="#e6e0cf" transform="rotate(52 575.9 459.0)"/><ellipse cx="573.9" cy="454.0" rx="4" ry="2" fill="#e6e0cf" transform="rotate(124 573.9 454.0)"/><ellipse cx="572.4" cy="411.8" rx="4" ry="2" fill="#e6e0cf" transform="rotate(132 572.4 411.8)"/><ellipse cx="653.9" cy="437.8" rx="4" ry="2" fill="#e6e0cf" transform="rotate(138 653.9 437.8)"/><ellipse cx="654.2" cy="451.1" rx="4" ry="2" fill="#e6e0cf" transform="rotate(124 654.2 451.1)"/><circle cx="627.9" cy="431.8" r="16.3" fill="#ef8354"/><circle cx="601.5" cy="424.2" r="16.3" fill="#f2a48e"/></svg>