<svg xmlns="http://www.w3.org/2000/svg" viewBox="0 0 800 600"><defs><radialGradient id="bg-fudzi-set" cx="50%" cy="35%" r="80%"><stop offset="0%" stop-color="#ffffff"/><stop offset="100%" stop-color="#efeff2"/></radialGradient></defs><rect width="800" height="600" fill="url(#bg-fudzi-set)"/><circle cx="181.18996973894536" cy="143.112902443856" r="62.5" fill="#000" opacity="0.1"/><circle cx="181.18996973894536" cy="137.112902443856" r="62.5" fill="#f5f2e8" stroke="#e0d9c2" stroke-width="2"/><circle cx="181.18996973894536" cy="137.112902443856" r="53.75" fill="#f5f2e8"/><ellipse cx="139.0" cy="109.7" rx="4" ry="2" fill="#e6e0cf" transform="rotate(16 139.0 109.7)"/><ellipse cx="170.9" cy="175.4" rx="4" ry="2" fill="#e6e0cf" transform="rotate(15 170.9 175.4)"/><ellipse cx="199.8" cy="177.1" rx="4" ry="2" fill="#e6e0cf" transform="rotate(177 199.8 177.1)"/><ellipse cx="224.0" cy="119.6" rx="4" ry="2" fill="#e6e0cf" transform="rotate(73 224.0 119.6)"/><ellipse cx="149.4" cy="160.2" rx="4" ry="2" fill="#e6e0cf" transform="rotate(153 149.4 160.2)"/><ellipse cx="199.7" cy="172.0" rx="4" ry="2" fill="#e6e0cf" transform="rotate(52 199.7 172.0)"/><ellipse cx="218.9" cy="114.7" rx="4" ry="2" fill="#e6e0cf" transform="rotate(5 218.9 114.7)"/><ellipse cx="157.0" cy="179.1" rx="4" ry="2" fill="#e6e0cf" transform="rotate(148 157.0 179.1)"/><ellipse cx="206.2" cy="100.7" rx="4" ry="2" fill="#e6e0cf" transform="rotate(158 206.2 100.7)"/><ellipse cx="222.7" cy="131.0" rx="4" ry="2" fill="#e6e0cf" transform="rotate(154 222.7 131.0)"/><circle cx="194.6" cy="140.2" r="16.3" fill="#8a5a3b"/><circle cx="167.5" cy="136.2" r="16.3" fill="#e87b7b"/><circle cx="325.87608991749585" cy="141.633899461478" r="62.5" fill="#000" opacity="0.1"/><circle cx="325.87608991749585" cy="135.633899461478" r="62.5" fill="#f5f2e8" stroke="#e0d9c2" stroke-width="2"/><circle cx="325.87608991749585" cy="135.633899461478" r="53.75" fill="#f5f2e8"/><ellipse cx="339.2" cy="92.1" rx="4" ry="2" fill="#e6e0cf" transform="rotate(112 339.2 92.1)"/><ellipse cx="342.9" cy="90.7" rx="4" ry="2" fill="#e6e0cf" transform="rotate(26 342.9 90.7)"/><ellipse cx="326.5" cy="95.6" rx="4" ry="2" fill="#e6e0cf" transform="rotate(128 326.5 95.6)"/><ellipse cx="324.6" cy="183.1" rx="4" ry="2" fill="#e6e0cf" transform="rotate(175 324.6 183.1)"/><ellipse cx="321.9" cy="175.0" rx="4" ry="2" fill="#e6e0cf" transform="rotate(35 321.9 175.0)"/><ellipse cx="316.3" cy="178.4" rx="4" ry="2" fill="#e6e0cf" transform="rotate(171 316.3 178.4)"/><ellipse cx="303.3" cy="100.7" rx="4" ry="2" fill="#e6e0cf" transform="rotate(13 303.3 100.7)"/><ellipse cx="376.5" cy="141.9" rx="4" ry="2" fill="#e6e0cf" transform="rotate(106 376.5 141.9)"/><ellipse cx="363.4" cy="149.2" rx="4" ry="2" fill="#e6e0cf" transform="rotate(103 363.4 149.2)"/><ellipse cx="300.9" cy="95.2" rx="4" ry="2" fill="#e6e0cf" transform="rotate(118 300.9 95.2)"/><circle cx="339.2" cy="138.9" r="16.3" fill="#8a5a3b"/><circle cx="312.6" cy="132.1" r="16.3" fill="#e87b7b"/><circle cx="470.88474807329476" cy="143.78717404417694" r="62.5" fill="#000" opacity="0.1"/><circle cx="470.88474807329476" cy="137.78717404417694" r="62.5" fill="#f5f2e8" stroke="#e0d9c2" stroke-width="2"/><circle cx="470.88474807329476" cy="137.78717404417694" r="53.75" fill="#f5f2e8"/><ellipse cx="478.5" cy="178.0" rx="4" ry="2" fill="#e6e0cf" transform="rotate(86 478.5 178.0)"/><ellipse cx="444.9" cy="95.1" rx="4" ry="2" fill="#e6e0cf" transform="rotate(125 444.9 95.1)"/><ellipse cx="431.0" cy="161.4" rx="4" ry="2" fill="#e6e0cf" transform="rotate(65 431.0 161.4)"/><ellipse cx="461.3" cy="91.4" rx="4" ry="2" fill="#e6e0cf" transform="rotate(151 461.3 91.4)"/><ellipse cx="509.0" cy="113.7" rx="4" ry="2" fill="#e6e0cf" transform="rotate(150 509.0 113.7)"/><ellipse cx="447.3" cy="97.9" rx="4" ry="2" fill="#e6e0cf" transform="rotate(100 447.3 97.9)"/><ellipse cx="513.9" cy="155.1" rx="4" ry="2" fill="#e6e0cf" transform="rotate(116 513.9 155.1)"/><ellipse cx="508.8" cy="128.1" rx="4" ry="2" fill="#e6e0cf" transform="rotate(153 508.8 128.1)"/><ellipse cx="434.9" cy="117.6" rx="4" ry="2" fill="#e6e0cf" transform="rotate(56 434.9 117.6)"/><ellipse cx="492.8" cy="104.5" rx="4" ry="2" fill="#e6e0cf" transform="rotate(132 492.8 104.5)"/><circle cx="484.6" cy="138.5" r="16.3" fill="#8a5a3b"/><circle cx="457.7" cy="134.0" r="16.3" fill="#e87b7b"/><circle cx="616.8311473354697" cy="146.03118619695306" r="62.5" fill="#000" opacity="0.1"/><circle cx="616.8311473354697" cy="140.03118619695306" r="62.5" fill="#f5f2e8" stroke="#e0d9c2" stroke-width="2"/><circle cx="616.8311473354697" cy="140.03118619695306" r="53.75" fill="#f5f2e8"/><ellipse cx="582.4" cy="102.9" rx="4" ry="2" fill="#e6e0cf" transform="rotate(146 582.4 102.9)"/><ellipse cx="644.2" cy="111.7" rx="4" ry="2" fill="#e6e0cf" transform="rotate(81 644.2 111.7)"/><ellipse cx="606.9" cy="90.0" rx="4" ry="2" fill="#e6e0cf" transform="rotate(94 606.9 90.0)"/><ellipse cx="609.8" cy="185.3" rx="4" ry="2" fill="#e6e0cf" transform="rotate(103 609.8 185.3)"/><ellipse cx="635.4" cy="94.3" rx="4" ry="2" fill="#e6e0cf" transform="rotate(119 635.4 94.3)"/><ellipse cx="663.5" cy="149.9" rx="4" ry="2" fill="#e6e0cf" transform="rotate(122 663.5 149.9)"/><ellipse cx="586.4" cy="106.9" rx="4" ry="2" fill="#e6e0cf" transform="rotate(1 586.4 106.9)"/><ellipse cx="581.2" cy="105.5" rx="4" ry="2" fill="#e6e0cf" transform="rotate(166 581.2 105.5)"/><ellipse cx="662.1" cy="150.4" rx="4" ry="2" fill="#e6e0cf" transform="rotate(41 662.1 150.4)"/><ellipse cx="611.5" cy="178.5" rx="4" ry="2" fill="#e6e0cf" transform="rotate(124 611.5 178.5)"/><circle cx="629.0" cy="146.5" r="16.3" fill="#8a5a3b"/><circle cx="604.1" cy="134.8" r="16.3" fill="#e87b7b"/><circle cx="184.6361136958003" cy="289.96581366844475" r="62.5" fill="#000" opacity="0.1"/><circle cx="184.6361136958003" cy="283.96581366844475" r="62.5" fill="#f5f2e8" stroke="#e0d9c2" stroke-width="2"/><circle cx="184.6361136958003" cy="283.96581366844475" r="53.75" fill="#f5f2e8"/><ellipse cx="183.0" cy="235.1" rx="4" ry="2" fill="#e6e0cf" transform="rotate(58 183.0 235.1)"/><ellipse cx="146.1" cy="303.8" rx="4" ry="2" fill="#e6e0cf" transform="rotate(29 146.1 303.8)"/><ellipse cx="223.8" cy="291.3" rx="4" ry="2" fill="#e6e0cf" transform="rotate(151 223.8 291.3)"/><ellipse cx="142.0" cy="281.1" rx="4" ry="2" fill="#e6e0cf" transform="rotate(115 142.0 281.1)"/><ellipse cx="142.8" cy="264.3" rx="4" ry="2" fill="#e6e0cf" transform="rotate(158 142.8 264.3)"/><ellipse cx="233.2" cy="291.8" rx="4" ry="2" fill="#e6e0cf" transform="rotate(4 233.2 291.8)"/><ellipse cx="228.7" cy="284.1" rx="4" ry="2" fill="#e6e0cf" transform="rotate(0 228.7 284.1)"/><ellipse cx="137.7" cy="284.5" rx="4" ry="2" fill="#e6e0cf" transform="rotate(107 137.7 284.5)"/><ellipse cx="175.7" cy="245.6" rx="4" ry="2" fill="#e6e0cf" transform="rotate(166 175.7 245.6)"/><ellipse cx="225.4" cy="293.3" rx="4" ry="2" fill="#e6e0cf" transform="rotate(167 225.4 293.3)"/><circle cx="198.2" cy="286.1" r="16.3" fill="#8a5a3b"/><circle cx="171.2" cy="281.0" r="16.3" fill="#e87b7b"/><circle cx="325.8818752132356" cy="286.33158766292036" r="62.5" fill="#000" opacity="0.1"/><circle cx="325.8818752132356" cy="280.33158766292036" r="62.5" fill="#f5f2e8" stroke="#e0d9c2" stroke-width="2"/><circle cx="325.8818752132356" cy="280.33158766292036" r="53.75" fill="#f5f2e8"/><ellipse cx="301.8" cy="235.4" rx="4" ry="2" fill="#e6e0cf" transform="rotate(7 301.8 235.4)"/><ellipse cx="283.0" cy="281.3" rx="4" ry="2" fill="#e6e0cf" transform="rotate(79 283.0 281.3)"/><ellipse cx="339.2" cy="317.1" rx="4" ry="2" fill="#e6e0cf" transform="rotate(83 339.2 317.1)"/><ellipse cx="276.4" cy="282.8" rx="4" ry="2" fill="#e6e0cf" transform="rotate(5 276.4 282.8)"/><ellipse cx="368.3" cy="286.9" rx="4" ry="2" fill="#e6e0cf" transform="rotate(40 368.3 286.9)"/><ellipse cx="289.7" cy="301.7" rx="4" ry="2" fill="#e6e0cf" transform="rotate(161 289.7 301.7)"/><ellipse cx="277.7" cy="282.2" rx="4" ry="2" fill="#e6e0cf" transform="rotate(57 277.7 282.2)"/><ellipse cx="354.3" cy="250.9" rx="4" ry="2" fill="#e6e0cf" transform="rotate(101 354.3 250.9)"/><ellipse cx="305.4" cy="240.5" rx="4" ry="2" fill="#e6e0cf" transform="rotate(74 305.4 240.5)"/><ellipse cx="340.5" cy="242.4" rx="4" ry="2" fill="#e6e0cf" transform="rotate(159 340.5 242.4)"/><circle cx="338.7" cy="285.3" r="16.3" fill="#8a5a3b"/><circle cx="312.2" cy="279.6" r="16.3" fill="#e87b7b"/><circle cx="474.90996590442955" cy="288.478389672935" r="62.5" fill="#000" opacity="0.1"/><circle cx="474.90996590442955" cy="282.478389672935" r="62.5" fill="#f5f2e8" stroke="#e0d9c2" stroke-width="2"/><circle cx="474.90996590442955" cy="282.478389672935" r="53.75" fill="#f5f2e8"/><ellipse cx="503.9" cy="317.1" rx="4" ry="2" fill="#e6e0cf" transform="rotate(134 503.9 317.1)"/><ellipse cx="492.6" cy="320.0" rx="4" ry="2" fill="#e6e0cf" transform="rotate(74 492.6 320.0)"/><ellipse cx="431.4" cy="308.2" rx="4" ry="2" fill="#e6e0cf" transform="rotate(140 431.4 308.2)"/><ellipse cx="522.9" cy="286.9" rx="4" ry="2" fill="#e6e0cf" transform="rotate(134 522.9 286.9)"/><ellipse cx="505.5" cy="307.3" rx="4" ry="2" fill="#e6e0cf" transform="rotate(27 505.5 307.3)"/><ellipse cx="481.7" cy="322.8" rx="4" ry="2" fill="#e6e0cf" transform="rotate(67 481.7 322.8)"/><ellipse cx="424.4" cy="283.3" rx="4" ry="2" fill="#e6e0cf" transform="rotate(55 424.4 283.3)"/><ellipse cx="434.6" cy="288.6" rx="4" ry="2" fill="#e6e0cf" transform="rotate(173 434.6 288.6)"/><ellipse cx="492.4" cy="239.7" rx="4" ry="2" fill="#e6e0cf" transform="rotate(142 492.4 239.7)"/><ellipse cx="449.1" cy="240.5" rx="4" ry="2" fill="#e6e0cf" transform="rotate(59 449.1 240.5)"/><circle cx="488.5" cy="284.8" r="16.3" fill="#8a5a3b"/><circle cx="461.2" cy="281.4" r="16.3" fill="#e87b7b"/><circle cx="614.4665042292327" cy="282.2054904438555" r="62.5" fill="#000" opacity="0.1"/><circle cx="614.4665042292327" cy="276.2054904438555" r="62.5" fill="#f5f2e8" stroke="#e0d9c2" stroke-width="2"/><circle cx="614.4665042292327" cy="276.2054904438555" r="53.75" fill="#f5f2e8"/><ellipse cx="576.3" cy="269.1" rx="4" ry="2" fill="#e6e0cf" transform="rotate(86 576.3 269.1)"/><ellipse cx="660.7" cy="261.8" rx="4" ry="2" fill="#e6e0cf" transform="rotate(2 660.7 261.8)"/><ellipse cx="661.1" cy="272.0" rx="4" ry="2" fill="#e6e0cf" transform="rotate(136 661.1 272.0)"/><ellipse cx="603.9" cy="320.3" rx="4" ry="2" fill="#e6e0cf" transform="rotate(149 603.9 320.3)"/><ellipse cx="637.0" cy="309.3" rx="4" ry="2" fill="#e6e0cf" transform="rotate(69 637.0 309.3)"/><ellipse cx="567.0" cy="292.9" rx="4" ry="2" fill="#e6e0cf" transform="rotate(177 567.0 292.9)"/><ellipse cx="646.6" cy="311.6" rx="4" ry="2" fill="#e6e0cf" transform="rotate(25 646.6 311.6)"/><ellipse cx="567.5" cy="288.6" rx="4" ry="2" fill="#e6e0cf" transform="rotate(143 567.5 288.6)"/><ellipse cx="568.5" cy="291.2" rx="4" ry="2" fill="#e6e0cf" transform="rotate(113 568.5 291.2)"/><ellipse cx="573.0" cy="295.9" rx="4" ry="2" fill="#e6e0cf" transform="rotate(62 573.0 295.9)"/><circle cx="627.6" cy="280.3" r="16.3" fill="#8a5a3b"/><circle cx="600.8" cy="274.4" r="16.3" fill="#e87b7b"/><circle cx="182.74055843241513" cy="427.6857862640172" r="62.5" fill="#000" opacity="0.1"/><circle cx="182.74055843241513" cy="421.6857862640172" r="62.5" fill="#f5f2e8" stroke="#e0d9c2" stroke-width="2"/><circle cx="182.74055843241513" cy="421.6857862640172" r="53.75" fill="#f5f2e8"/><ellipse cx="222.2" cy="414.6" rx="4" ry="2" fill="#e6e0cf" transform="rotate(70 222.2 414.6)"/><ellipse cx="182.8" cy="376.8" rx="4" ry="2" fill="#e6e0cf" transform="rotate(162 182.8 376.8)"/><ellipse cx="203.1" cy="378.9" rx="4" ry="2" fill="#e6e0cf" transform="rotate(6 203.1 378.9)"/><ellipse cx="199.3" cy="385.9" rx="4" ry="2" fill="#e6e0cf" transform="rotate(41 199.3 385.9)"/><ellipse cx="220.6" cy="434.0" rx="4" ry="2" fill="#e6e0cf" transform="rotate(137 220.6 434.0)"/><ellipse cx="143.4" cy="391.3" rx="4" ry="2" fill="#e6e0cf" transform="rotate(122 143.4 391.3)"/><ellipse cx="231.8" cy="416.1" rx="4" ry="2" fill="#e6e0cf" transform="rotate(37 231.8 416.1)"/><ellipse cx="202.7" cy="460.9" rx="4" ry="2" fill="#e6e0cf" transform="rotate(148 202.7 460.9)"/><ellipse cx="205.8" cy="385.7" rx="4" ry="2" fill="#e6e0cf" transform="rotate(127 205.8 385.7)"/><ellipse cx="148.0" cy="403.8" rx="4" ry="2" fill="#e6e0cf" transform="rotate(47 148.0 403.8)"/><circle cx="196.4" cy="422.8" r="16.3" fill="#8a5a3b"/><circle cx="169.0" cy="421.4" r="16.3" fill="#e87b7b"/><circle cx="326.2207440175116" cy="430.3475874494761" r="62.5" fill="#000" opacity="0.1"/><circle cx="326.2207440175116" cy="424.3475874494761" r="62.5" fill="#f5f2e8" stroke="#e0d9c2" stroke-width="2"/><circle cx="326.2207440175116" cy="424.3475874494761" r="53.75" fill="#f5f2e8"/><ellipse cx="327.3" cy="379.8" rx="4" ry="2" fill="#e6e0cf" transform="rotate(63 327.3 379.8)"/><ellipse cx="311.2" cy="461.2" rx="4" ry="2" fill="#e6e0cf" transform="rotate(166 311.2 461.2)"/><ellipse cx="364.8" cy="437.3" rx="4" ry="2" fill="#e6e0cf" transform="rotate(161 364.8 437.3)"/><ellipse cx="365.2" cy="394.9" rx="4" ry="2" fill="#e6e0cf" transform="rotate(173 365.2 394.9)"/><ellipse cx="300.8" cy="468.1" rx="4" ry="2" fill="#e6e0cf" transform="rotate(43 300.8 468.1)"/><ellipse cx="326.2" cy="465.7" rx="4" ry="2" fill="#e6e0cf" transform="rotate(72 326.2 465.7)"/><ellipse cx="277.8" cy="424.3" rx="4" ry="2" fill="#e6e0cf" transform="rotate(130 277.8 424.3)"/><ellipse cx="303.3" cy="391.0" rx="4" ry="2" fill="#e6e0cf" transform="rotate(47 303.3 391.0)"/><ellipse cx="291.9" cy="393.4" rx="4" ry="2" fill="#e6e0cf" transform="rotate(38 291.9 393.4)"/><ellipse cx="334.8" cy="381.0" rx="4" ry="2" fill="#e6e0cf" transform="rotate(40 334.8 381.0)"/><circle cx="339.9" cy="425.2" r="16.3" fill="#8a5a3b"/><circle cx="312.5" cy="423.6" r="16.3" fill="#e87b7b"/><circle cx="472.95864111185074" cy="429.4520748089999" r="62.5" fill="#000" opacity="0.1"/><circle cx="472.95864111185074" cy="423.4520748089999" r="62.5" fill="#f5f2e8" stroke="#e0d9c2" stroke-width="2"/><circle cx="472.95864111185074" cy="423.4520748089999" r="53.75" fill="#f5f2e8"/><ellipse cx="500.9" cy="385.0" rx="4" ry="2" fill="#e6e0cf" transform="rotate(23 500.9 385.0)"/><ellipse cx="487.5" cy="381.2" rx="4" ry="2" fill="#e6e0cf" transform="rotate(120 487.5 381.2)"/><ellipse cx="509.6" cy="449.8" rx="4" ry="2" fill="#e6e0cf" transform="rotate(13 509.6 449.8)"/><ellipse cx="490.0" cy="464.7" rx="4" ry="2" fill="#e6e0cf" transform="rotate(137 490.0 464.7)"/><ellipse cx="456.8" cy="463.3" rx="4" ry="2" fill="#e6e0cf" transform="rotate(10 456.8 463.3)"/><ellipse cx="425.4" cy="416.1" rx="4" ry="2" fill="#e6e0cf" transform="rotate(54 425.4 416.1)"/><ellipse cx="490.0" cy="386.2" rx="4" ry="2" fill="#e6e0cf" transform="rotate(115 490.0 386.2)"/><ellipse cx="507.2" cy="460.9" rx="4" ry="2" fill="#e6e0cf" transform="rotate(91 507.2 460.9)"/><ellipse cx="502.9" cy="455.0" rx="4" ry="2" fill="#e6e0cf" transform="rotate(116 502.9 455.0)"/><ellipse cx="460.4" cy="375.5" rx="4" ry="2" fill="#e6e0cf" transform="rotate(93 460.4 375.5)"/><circle cx="486.6" cy="425.3" r="16.3" fill="#8a5a3b"/><circle cx="460.5" cy="417.6" r="16.3" fill="#e87b7b"/><circle cx="618.0574686769396" cy="425.96693517640233" r="62.5" fill="#000" opacity="0.1"/><circle cx="618.0574686769396" cy="419.96693517640233" r="62.5" fill="#f5f2e8" stroke="#e0d9c2" stroke-width="2"/><circle cx="618.0574686769396" cy="419.96693517640233" r="53.75" fill="#f5f2e8"/><ellipse cx="617.3" cy="374.7" rx="4" ry="2" fill="#e6e0cf" transform="rotate(44 617.3 374.7)"/><ellipse cx="646.9" cy="454.8" rx="4" ry="2" fill="#e6e0cf" transform="rotate(32 646.9 454.8)"/><ellipse cx="595.0" cy="381.8" rx="4" ry="2" fill="#e6e0cf" transform="rotate(16 595.0 381.8)"/><ellipse cx="572.8" cy="433.8" rx="4" ry="2" fill="#e6e0cf" transform="rotate(91 572.8 433.8)"/><ellipse cx="573.1" cy="418.3" rx="4" ry="2" fill="#e6e0cf" transform="rotate(104 573.1 418.3)"/><ellipse cx="656.0" cy="401.3" rx="4" ry="2" fill="#e6e0cf" transform="rotate(35 656.0 401.3)"/><ellipse cx="658.8" cy="411.8" rx="4" ry="2" fill="#e6e0cf" transform="rotate(131 658.8 411.8)"/><ellipse cx="595.2" cy="460.5" rx="4" ry="2" fill="#e6e0cf" transform="rotate(136 595.2 460.5)"/><ellipse cx="656.8" cy="392.4" rx="4" ry="2" fill="#e6e0cf" transform="rotate(85 656.8 392.4)"/><ellipse cx="568.2" cy="427.0" rx="4" ry="2" fill="#e6e0cf" transform="rotate(166 568.2 427.0)"/><circle cx="630.9" cy="425.0" r="16.3" fill="#8a5a3b"/><circle cx="604.4" cy="418.6" r="16.3" fill="#e87b7b"/></svg>