<svg xmlns="http://www.w3.org/2000/svg" viewBox="0 0 800 600"><defs><radialGradient id="bg-fune-set" cx="50%" cy="35%" r="80%"><stop offset="0%" stop-color="#26262c"/><stop offset="100%" stop-color="#141417"/></radialGradient></defs><rect width="800" height="600" fill="url(#bg-fune-set)"/><circle cx="187.6699095480144" cy="144.3788344487548" r="62.5" fill="#000" opacity="0.35"/><circle cx="187.6699095480144" cy="138.3788344487548" r="62.5" fill="#f5f2e8"/><circle cx="187.6699095480144" cy="138.3788344487548" r="53.75" fill="#f5f2e8"/><ellipse cx="168.3" cy="181.9" rx="4" ry="2" fill="#e6e0cf" transform="rotate(77 168.3 181.9)"/><ellipse cx="160.6" cy="109.2" rx="4" ry="2" fill="#e6e0cf" transform="rotate(0 160.6 109.2)"/><ellipse cx="145.2" cy="111.4" rx="4" ry="2" fill="#e6e0cf" transform="rotate(157 145.2 111.4)"/><ellipse cx="193.6" cy="99.2" rx="4" ry="2" fill="#e6e0cf" transform="rotate(4 193.6 99.2)"/><ellipse cx="168.0" cy="94.3" rx="4" ry="2" fill="#e6e0cf" transform="rotate(138 168.0 94.3)"/><ellipse cx="220.2" cy="166.9" rx="4" ry="2" fill="#e6e0cf" transform="rotate(48 220.2 166.9)"/><ellipse cx="173.9" cy="178.9" rx="4" ry="2" fill="#e6e0cf" transform="rotate(101 173.9 178.9)"/><ellipse cx="189.1" cy="186.0" rx="4" ry="2" fill="#e6e0cf" transform="rotate(43 189.1 186.0)"/><ellipse cx="149.1" cy="147.2" rx="4" ry="2" fill="#e6e0cf" transform="rotate(145 149.1 147.2)"/><ellipse cx="156.2" cy="178.0" rx="4" ry="2" fill="#e6e0cf" transform="rotate(143 156.2 178.0)"/><circle cx="187.7" cy="138.4" r="25.0" fill="#ef8354"/><circle cx="327.47905503958464" cy="139.6852234043181" r="62.5" fill="#000" opacity="0.35"/><circle cx="327.47905503958464" cy="133.6852234043181" r="62.5" fill="#f5f2e8"/><circle cx="327.47905503958464" cy="133.6852234043181" r="53.75" fill="#f5f2e8"/><ellipse cx="297.3" cy="159.9" rx="4" ry="2" fill="#e6e0cf" transform="rotate(43 297.3 159.9)"/><ellipse cx="365.9" cy="124.8" rx="4" ry="2" fill="#e6e0cf" transform="rotate(51 365.9 124.8)"/><ellipse cx="305.0" cy="91.2" rx="4" ry="2" fill="#e6e0cf" transform="rotate(100 305.0 91.2)"/><ellipse cx="282.1" cy="157.3" rx="4" ry="2" fill="#e6e0cf" transform="rotate(5 282.1 157.3)"/><ellipse cx="283.0" cy="132.8" rx="4" ry="2" fill="#e6e0cf" transform="rotate(19 283.0 132.8)"/><ellipse cx="311.4" cy="174.7" rx="4" ry="2" fill="#e6e0cf" transform="rotate(127 311.4 174.7)"/><ellipse cx="307.1" cy="100.0" rx="4" ry="2" fill="#e6e0cf" transform="rotate(165 307.1 100.0)"/><ellipse cx="346.2" cy="171.8" rx="4" ry="2" fill="#e6e0cf" transform="rotate(81 346.2 171.8)"/><ellipse cx="355.6" cy="99.9" rx="4" ry="2" fill="#e6e0cf" transform="rotate(132 355.6 99.9)"/><ellipse cx="320.0" cy="174.4" rx="4" ry="2" fill="#e6e0cf" transform="rotate(153 320.0 174.4)"/><circle cx="327.5" cy="133.7" r="25.0" fill="#ef8354"/><circle cx="468.96563352644444" cy="145.49329691193998" r="62.5" fill="#000" opacity="0.35"/><circle cx="468.96563352644444" cy="139.49329691193998" r="62.5" fill="#f5f2e8"/><circle cx="468.96563352644444" cy="139.49329691193998" r="53.75" fill="#f5f2e8"/><ellipse cx="444.3" cy="182.4" rx="4" ry="2" fill="#e6e0cf" transform="rotate(66 444.3 182.4)"/><ellipse cx="514.0" cy="160.5" rx="4" ry="2" fill="#e6e0cf" transform="rotate(102 514.0 160.5)"/><ellipse cx="466.9" cy="180.6" rx="4" ry="2" fill="#e6e0cf" transform="rotate(99 466.9 180.6)"/><ellipse cx="508.5" cy="145.1" rx="4" ry="2" fill="#e6e0cf" transform="rotate(156 508.5 145.1)"/><ellipse cx="514.7" cy="135.8" rx="4" ry="2" fill="#e6e0cf" transform="rotate(77 514.7 135.8)"/><ellipse cx="508.6" cy="166.8" rx="4" ry="2" fill="#e6e0cf" transform="rotate(113 508.6 166.8)"/><ellipse cx="516.4" cy="158.7" rx="4" ry="2" fill="#e6e0cf" transform="rotate(169 516.4 158.7)"/><ellipse cx="499.2" cy="114.5" rx="4" ry="2" fill="#e6e0cf" transform="rotate(101 499.2 114.5)"/><ellipse cx="483.1" cy="99.9" rx="4" ry="2" fill="#e6e0cf" transform="rotate(146 483.1 99.9)"/><ellipse cx="514.5" cy="151.5" rx="4" ry="2" fill="#e6e0cf" transform="rotate(23 514.5 151.5)"/><circle cx="469.0" cy="139.5" r="25.0" fill="#ef8354"/><circle cx="614.9084101486951" cy="141.2120003886521" r="62.5" fill="#000" opacity="0.35"/><circle cx="614.9084101486951" cy="135.2120003886521" r="62.5" fill="#f5f2e8"/><circle cx="614.9084101486951" cy="135.2120003886521" r="53.75" fill="#f5f2e8"/><ellipse cx="564.9" cy="136.7" rx="4" ry="2" fill="#e6e0cf" transform="rotate(3 564.9 136.7)"/><ellipse cx="635.5" cy="172.7" rx="4" ry="2" fill="#e6e0cf" transform="rotate(52 635.5 172.7)"/><ellipse cx="624.2" cy="180.4" rx="4" ry="2" fill="#e6e0cf" transform="rotate(153 624.2 180.4)"/><ellipse cx="592.3" cy="100.0" rx="4" ry="2" fill="#e6e0cf" transform="rotate(128 592.3 100.0)"/><ellipse cx="572.9" cy="110.7" rx="4" ry="2" fill="#e6e0cf" transform="rotate(149 572.9 110.7)"/><ellipse cx="573.5" cy="120.6" rx="4" ry="2" fill="#e6e0cf" transform="rotate(10 573.5 120.6)"/><ellipse cx="656.2" cy="159.8" rx="4" ry="2" fill="#e6e0cf" transform="rotate(76 656.2 159.8)"/><ellipse cx="565.6" cy="123.5" rx="4" ry="2" fill="#e6e0cf" transform="rotate(7 565.6 123.5)"/><ellipse cx="655.5" cy="110.0" rx="4" ry="2" fill="#e6e0cf" transform="rotate(149 655.5 110.0)"/><ellipse cx="605.1" cy="95.6" rx="4" ry="2" fill="#e6e0cf" transform="rotate(101 605.1 95.6)"/><circle cx="614.9" cy="135.2" r="25.0" fill="#ef8354"/><circle cx="184.56647617556155" cy="284.68983251042664" r="62.5" fill="#000" opacity="0.35"/><circle cx="184.56647617556155" cy="278.68983251042664" r="62.5" fill="#f5f2e8"/><circle cx="184.56647617556155" cy="278.68983251042664" r="53.75" fill="#f5f2e8"/><ellipse cx="228.6" cy="285.6" rx="4" ry="2" fill="#e6e0cf" transform="rotate(119 228.6 285.6)"/><ellipse cx="222.1" cy="255.7" rx="4" ry="2" fill="#e6e0cf" transform="rotate(81 222.1 255.7)"/><ellipse cx="162.8" cy="322.9" rx="4" ry="2" fill="#e6e0cf" transform="rotate(126 162.8 322.9)"/><ellipse cx="171.4" cy="235.1" rx="4" ry="2" fill="#e6e0cf" transform="rotate(153 171.4 235.1)"/><ellipse cx="141.4" cy="271.1" rx="4" ry="2" fill="#e6e0cf" transform="rotate(176 141.4 271.1)"/><ellipse cx="175.0" cy="236.8" rx="4" ry="2" fill="#e6e0cf" transform="rotate(173 175.0 236.8)"/><ellipse cx="231.8" cy="275.3" rx="4" ry="2" fill="#e6e0cf" transform="rotate(35 231.8 275.3)"/><ellipse cx="225.1" cy="295.1" rx="4" ry="2" fill="#e6e0cf" transform="rotate(2 225.1 295.1)"/><ellipse cx="140.5" cy="274.9" rx="4" ry="2" fill="#e6e0cf" transform="rotate(179 140.5 274.9)"/><ellipse cx="165.5" cy="319.0" rx="4" ry="2" fill="#e6e0cf" transform="rotate(43 165.5 319.0)"/><circle cx="184.6" cy="278.7" r="25.0" fill="#ef8354"/><circle cx="325.06306716986" cy="289.15346366353333" r="62.5" fill="#000" opacity="0.35"/><circle cx="325.06306716986" cy="283.15346366353333" r="62.5" fill="#f5f2e8"/><circle cx="325.06306716986" cy="283.15346366353333" r="53.75" fill="#f5f2e8"/><ellipse cx="364.0" cy="278.7" rx="4" ry="2" fill="#e6e0cf" transform="rotate(6 364.0 278.7)"/><ellipse cx="304.9" cy="328.3" rx="4" ry="2" fill="#e6e0cf" transform="rotate(66 304.9 328.3)"/><ellipse cx="374.5" cy="289.0" rx="4" ry="2" fill="#e6e0cf" transform="rotate(40 374.5 289.0)"/><ellipse cx="300.2" cy="241.2" rx="4" ry="2" fill="#e6e0cf" transform="rotate(62 300.2 241.2)"/><ellipse cx="278.9" cy="288.1" rx="4" ry="2" fill="#e6e0cf" transform="rotate(21 278.9 288.1)"/><ellipse cx="274.8" cy="275.5" rx="4" ry="2" fill="#e6e0cf" transform="rotate(25 274.8 275.5)"/><ellipse cx="292.0" cy="247.5" rx="4" ry="2" fill="#e6e0cf" transform="rotate(109 292.0 247.5)"/><ellipse cx="311.6" cy="331.2" rx="4" ry="2" fill="#e6e0cf" transform="rotate(167 311.6 331.2)"/><ellipse cx="364.8" cy="300.9" rx="4" ry="2" fill="#e6e0cf" transform="rotate(1 364.8 300.9)"/><ellipse cx="300.0" cy="320.5" rx="4" ry="2" fill="#e6e0cf" transform="rotate(178 300.0 320.5)"/><circle cx="325.1" cy="283.2" r="25.0" fill="#ef8354"/><circle cx="470.51254359446466" cy="288.1665735132992" r="62.5" fill="#000" opacity="0.35"/><circle cx="470.51254359446466" cy="282.1665735132992" r="62.5" fill="#f5f2e8"/><circle cx="470.51254359446466" cy="282.1665735132992" r="53.75" fill="#f5f2e8"/><ellipse cx="445.2" cy="323.9" rx="4" ry="2" fill="#e6e0cf" transform="rotate(154 445.2 323.9)"/><ellipse cx="451.3" cy="243.0" rx="4" ry="2" fill="#e6e0cf" transform="rotate(129 451.3 243.0)"/><ellipse cx="494.1" cy="250.6" rx="4" ry="2" fill="#e6e0cf" transform="rotate(39 494.1 250.6)"/><ellipse cx="484.9" cy="327.8" rx="4" ry="2" fill="#e6e0cf" transform="rotate(170 484.9 327.8)"/><ellipse cx="515.6" cy="265.6" rx="4" ry="2" fill="#e6e0cf" transform="rotate(75 515.6 265.6)"/><ellipse cx="444.8" cy="246.3" rx="4" ry="2" fill="#e6e0cf" transform="rotate(66 444.8 246.3)"/><ellipse cx="504.0" cy="311.9" rx="4" ry="2" fill="#e6e0cf" transform="rotate(83 504.0 311.9)"/><ellipse cx="434.0" cy="300.6" rx="4" ry="2" fill="#e6e0cf" transform="rotate(38 434.0 300.6)"/><ellipse cx="503.7" cy="315.5" rx="4" ry="2" fill="#e6e0cf" transform="rotate(6 503.7 315.5)"/><ellipse cx="475.4" cy="234.7" rx="4" ry="2" fill="#e6e0cf" transform="rotate(149 475.4 234.7)"/><circle cx="470.5" cy="282.2" r="25.0" fill="#ef8354"/><circle cx="616.4589598793536" cy="284.71835724823177" r="62.5" fill="#000" opacity="0.35"/><circle cx="616.4589598793536" cy="278.71835724823177" r="62.5" fill="#f5f2e8"/><circle cx="616.4589598793536" cy="278.71835724823177" r="53.75" fill="#f5f2e8"/><ellipse cx="664.4" cy="290.9" rx="4" ry="2" fill="#e6e0cf" transform="rotate(34 664.4 290.9)"/><ellipse cx="603.9" cy="316.4" rx="4" ry="2" fill="#e6e0cf" transform="rotate(169 603.9 316.4)"/><ellipse cx="628.3" cy="236.5" rx="4" ry="2" fill="#e6e0cf" transform="rotate(34 628.3 236.5)"/><ellipse cx="568.1" cy="267.5" rx="4" ry="2" fill="#e6e0cf" transform="rotate(6 568.1 267.5)"/><ellipse cx="666.8" cy="274.6" rx="4" ry="2" fill="#e6e0cf" transform="rotate(22 666.8 274.6)"/><ellipse cx="576.4" cy="257.9" rx="4" ry="2" fill="#e6e0cf" transform="rotate(61 576.4 257.9)"/><ellipse cx="654.1" cy="313.1" rx="4" ry="2" fill="#e6e0cf" transform="rotate(5 654.1 313.1)"/><ellipse cx="609.8" cy="320.5" rx="4" ry="2" fill="#e6e0cf" transform="rotate(173 609.8 320.5)"/><ellipse cx="591.9" cy="236.1" rx="4" ry="2" fill="#e6e0cf" transform="rotate(154 591.9 236.1)"/><ellipse cx="615.2" cy="324.3" rx="4" ry="2" fill="#e6e0cf" transform="rotate(137 615.2 324.3)"/><circle cx="616.5" cy="278.7" r="25.0" fill="#ef8354"/><circle cx="186.6226917617023" cy="432.40173953585327" r="62.5" fill="#000" opacity="0.35"/><circle cx="186.6226917617023" cy="426.40173953585327" r="62.5" fill="#f5f2e8"/><circle cx="186.6226917617023" cy="426.40173953585327" r="53.75" fill="#f5f2e8"/><ellipse cx="230.1" cy="412.5" rx="4" ry="2" fill="#e6e0cf" transform="rotate(118 230.1 412.5)"/><ellipse cx="194.4" cy="467.0" rx="4" ry="2" fill="#e6e0cf" transform="rotate(155 194.4 467.0)"/><ellipse cx="187.3" cy="383.8" rx="4" ry="2" fill="#e6e0cf" transform="rotate(164 187.3 383.8)"/><ellipse cx="224.6" cy="400.8" rx="4" ry="2" fill="#e6e0cf" transform="rotate(122 224.6 400.8)"/><ellipse cx="213.8" cy="390.5" rx="4" ry="2" fill="#e6e0cf" transform="rotate(149 213.8 390.5)"/><ellipse cx="164.3" cy="388.0" rx="4" ry="2" fill="#e6e0cf" transform="rotate(100 164.3 388.0)"/><ellipse cx="150.4" cy="395.4" rx="4" ry="2" fill="#e6e0cf" transform="rotate(175 150.4 395.4)"/><ellipse cx="235.0" cy="440.8" rx="4" ry="2" fill="#e6e0cf" transform="rotate(70 235.0 440.8)"/><ellipse cx="178.1" cy="466.0" rx="4" ry="2" fill="#e6e0cf" transform="rotate(73 178.1 466.0)"/><ellipse cx="172.3" cy="379.7" rx="4" ry="2" fill="#e6e0cf" transform="rotate(37 172.3 379.7)"/><circle cx="186.6" cy="426.4" r="25.0" fill="#ef8354"/><circle cx="330.9429291933775" cy="428.1416412964463" r="62.5" fill="#000" opacity="0.35"/><circle cx="330.9429291933775" cy="422.1416412964463" r="62.5" fill="#f5f2e8"/><circle cx="330.9429291933775" cy="422.1416412964463" r="53.75" fill="#f5f2e8"/><ellipse cx="290.5" cy="448.1" rx="4" ry="2" fill="#e6e0cf" transform="rotate(127 290.5 448.1)"/><ellipse cx="356.7" cy="454.9" rx="4" ry="2" fill="#e6e0cf" transform="rotate(128 356.7 454.9)"/><ellipse cx="303.8" cy="462.5" rx="4" ry="2" fill="#e6e0cf" transform="rotate(1 303.8 462.5)"/><ellipse cx="293.9" cy="406.5" rx="4" ry="2" fill="#e6e0cf" transform="rotate(76 293.9 406.5)"/><ellipse cx="314.5" cy="467.6" rx="4" ry="2" fill="#e6e0cf" transform="rotate(69 314.5 467.6)"/><ellipse cx="322.4" cy="463.8" rx="4" ry="2" fill="#e6e0cf" transform="rotate(3 322.4 463.8)"/><ellipse cx="299.6" cy="454.7" rx="4" ry="2" fill="#e6e0cf" transform="rotate(33 299.6 454.7)"/><ellipse cx="309.3" cy="465.4" rx="4" ry="2" fill="#e6e0cf" transform="rotate(54 309.3 465.4)"/><ellipse cx="351.3" cy="383.9" rx="4" ry="2" fill="#e6e0cf" transform="rotate(13 351.3 383.9)"/><ellipse cx="349.3" cy="468.2" rx="4" ry="2" fill="#e6e0cf" transform="rotate(102 349.3 468.2)"/><circle cx="330.9" cy="422.1" r="25.0" fill="#ef8354"/><circle cx="475.2446566391736" cy="430.406099319458" r="62.5" fill="#000" opacity="0.35"/><circle cx="475.2446566391736" cy="424.406099319458" r="62.5" fill="#f5f2e8"/><circle cx="475.2446566391736" cy="424.406099319458" r="53.75" fill="#f5f2e8"/><ellipse cx="513.7" cy="405.6" rx="4" ry="2" fill="#e6e0cf" transform="rotate(9 513.7 405.6)"/><ellipse cx="500.2" cy="458.7" rx="4" ry="2" fill="#e6e0cf" transform="rotate(3 500.2 458.7)"/><ellipse cx="502.8" cy="386.9" rx="4" ry="2" fill="#e6e0cf" transform="rotate(140 502.8 386.9)"/><ellipse cx="467.6" cy="469.3" rx="4" ry="2" fill="#e6e0cf" transform="rotate(85 467.6 469.3)"/><ellipse cx="509.9" cy="399.1" rx="4" ry="2" fill="#e6e0cf" transform="rotate(105 509.9 399.1)"/><ellipse cx="498.4" cy="462.5" rx="4" ry="2" fill="#e6e0cf" transform="rotate(64 498.4 462.5)"/><ellipse cx="442.3" cy="392.9" rx="4" ry="2" fill="#e6e0cf" transform="rotate(118 442.3 392.9)"/><ellipse cx="503.5" cy="456.4" rx="4" ry="2" fill="#e6e0cf" transform="rotate(83 503.5 456.4)"/><ellipse cx="436.2" cy="422.2" rx="4" ry="2" fill="#e6e0cf" transform="rotate(66 436.2 422.2)"/><ellipse cx="467.7" cy="375.7" rx="4" ry="2" fill="#e6e0cf" transform="rotate(40 467.7 375.7)"/><circle cx="475.2" cy="424.4" r="25.0" fill="#ef8354"/><circle cx="618.0195234008133" cy="427.558222329244" r="62.5" fill="#000" opacity="0.35"/><circle cx="618.0195234008133" cy="421.558222329244" r="62.5" fill="#f5f2e8"/><circle cx="618.0195234008133" cy="421.558222329244" r="53.75" fill="#f5f2e8"/><ellipse cx="579.2" cy="444.6" rx="4" ry="2" fill="#e6e0cf" transform="rotate(112 579.2 444.6)"/><ellipse cx="623.0" cy="374.3" rx="4" ry="2" fill="#e6e0cf" transform="rotate(132 623.0 374.3)"/><ellipse cx="570.6" cy="433.8" rx="4" ry="2" fill="#e6e0cf" transform="rotate(106 570.6 433.8)"/><ellipse cx="657.4" cy="389.8" rx="4" ry="2" fill="#e6e0cf" transform="rotate(161 657.4 389.8)"/><ellipse cx="647.0" cy="462.9" rx="4" ry="2" fill="#e6e0cf" transform="rotate(179 647.0 462.9)"/><ellipse cx="603.1" cy="383.1" rx="4" ry="2" fill="#e6e0cf" transform="rotate(142 603.1 383.1)"/><ellipse cx="582.8" cy="447.0" rx="4" ry="2" fill="#e6e0cf" transform="rotate(58 582.8 447.0)"/><ellipse cx="593.8" cy="452.6" rx="4" ry="2" fill="#e6e0cf" transform="rotate(149 593.8 452.6)"/><ellipse cx="573.6" cy="412.1" rx="4" ry="2" fill="#e6e0cf" transform="rotate(100 573.6 412.1)"/><ellipse cx="639.4" cy="387.6" rx="4" ry="2" fill="#e6e0cf" transform="rotate(102 639.4 387.6)"/><circle cx="618.0" cy="421.6" r="25.0" fill="#ef8354"/></svg>