<svg xmlns="http://www.w3.org/2000/svg" viewBox="0 0 800 600"><defs><radialGradient id="bg-geysha" cx="50%" cy="35%" r="80%"><stop offset="0%" stop-color="#26262c"/><stop offset="100%" stop-color="#141417"/></radialGradient></defs><rect width="800" height="600" fill="url(#bg-geysha)"/><circle cx="235.64466026611626" cy="207.94742007553577" r="70" fill="#000" opacity="0.35"/><circle cx="235.64466026611626" cy="201.94742007553577" r="70" fill="#f5f2e8"/><circle cx="235.64466026611626" cy="201.94742007553577" r="60.199999999999996" fill="#f5f2e8"/><ellipse cx="209.5" cy="164.5" rx="4" ry="2" fill="#e6e0cf" transform="rotate(37 209.5 164.5)"/><ellipse cx="189.0" cy="179.9" rx="4" ry="2" fill="#e6e0cf" transform="rotate(72 189.0 179.9)"/><ellipse cx="262.6" cy="164.9" rx="4" ry="2" fill="#e6e0cf" transform="rotate(137 262.6 164.9)"/><ellipse cx="289.0" cy="220.3" rx="4" ry="2" fill="#e6e0cf" transform="rotate(136 289.0 220.3)"/><ellipse cx="202.7" cy="234.0" rx="4" ry="2" fill="#e6e0cf" transform="rotate(49 202.7 234.0)"/><ellipse cx="198.5" cy="173.4" rx="4" ry="2" fill="#e6e0cf" transform="rotate(82 198.5 173.4)"/><ellipse cx="197.5" cy="230.8" rx="4" ry="2" fill="#e6e0cf" transform="rotate(115 197.5 230.8)"/><ellipse cx="270.7" cy="171.2" rx="4" ry="2" fill="#e6e0cf" transform="rotate(147 270.7 171.2)"/><ellipse cx="209.4" cy="251.2" rx="4" ry="2" fill="#e6e0cf" transform="rotate(38 209.4 251.2)"/><ellipse cx="230.0" cy="253.5" rx="4" ry="2" fill="#e6e0cf" transform="rotate(145 230.0 253.5)"/><circle cx="250.6" cy="205.5" r="18.2" fill="#ef8354"/><circle cx="226.0" cy="214.0" r="18.2" fill="#e2503c"/><circle cx="233.7" cy="186.7" r="18.2" fill="#7fb069"/><circle cx="397.68678266741335" cy="204.55034115165472" r="70" fill="#000" opacity="0.35"/><circle cx="397.68678266741335" cy="198.55034115165472" r="70" fill="#f5f2e8"/><circle cx="397.68678266741335" cy="198.55034115165472" r="60.199999999999996" fill="#f5f2e8"/><ellipse cx="420.1" cy="237.8" rx="4" ry="2" fill="#e6e0cf" transform="rotate(164 420.1 237.8)"/><ellipse cx="373.4" cy="236.6" rx="4" ry="2" fill="#e6e0cf" transform="rotate(0 373.4 236.6)"/><ellipse cx="345.3" cy="183.0" rx="4" ry="2" fill="#e6e0cf" transform="rotate(115 345.3 183.0)"/><ellipse cx="365.4" cy="229.5" rx="4" ry="2" fill="#e6e0cf" transform="rotate(95 365.4 229.5)"/><ellipse cx="383.5" cy="151.9" rx="4" ry="2" fill="#e6e0cf" transform="rotate(20 383.5 151.9)"/><ellipse cx="434.1" cy="170.8" rx="4" ry="2" fill="#e6e0cf" transform="rotate(67 434.1 170.8)"/><ellipse cx="415.0" cy="153.3" rx="4" ry="2" fill="#e6e0cf" transform="rotate(6 415.0 153.3)"/><ellipse cx="444.0" cy="218.4" rx="4" ry="2" fill="#e6e0cf" transform="rotate(91 444.0 218.4)"/><ellipse cx="377.4" cy="145.9" rx="4" ry="2" fill="#e6e0cf" transform="rotate(64 377.4 145.9)"/><ellipse cx="399.4" cy="254.7" rx="4" ry="2" fill="#e6e0cf" transform="rotate(59 399.4 254.7)"/><circle cx="411.7" cy="204.8" r="18.2" fill="#ef8354"/><circle cx="387.6" cy="210.2" r="18.2" fill="#e2503c"/><circle cx="395.5" cy="183.3" r="18.2" fill="#7fb069"/><circle cx="562.6251020599157" cy="206.24215191230178" r="70" fill="#000" opacity="0.35"/><circle cx="562.6251020599157" cy="200.24215191230178" r="70" fill="#f5f2e8"/><circle cx="562.6251020599157" cy="200.24215191230178" r="60.199999999999996" fill="#f5f2e8"/><ellipse cx="553.7" cy="146.7" rx="4" ry="2" fill="#e6e0cf" transform="rotate(22 553.7 146.7)"/><ellipse cx="530.1" cy="171.0" rx="4" ry="2" fill="#e6e0cf" transform="rotate(35 530.1 171.0)"/><ellipse cx="506.4" cy="192.7" rx="4" ry="2" fill="#e6e0cf" transform="rotate(110 506.4 192.7)"/><ellipse cx="532.8" cy="154.2" rx="4" ry="2" fill="#e6e0cf" transform="rotate(102 532.8 154.2)"/><ellipse cx="515.7" cy="222.4" rx="4" ry="2" fill="#e6e0cf" transform="rotate(113 515.7 222.4)"/><ellipse cx="524.6" cy="164.0" rx="4" ry="2" fill="#e6e0cf" transform="rotate(63 524.6 164.0)"/><ellipse cx="517.2" cy="187.5" rx="4" ry="2" fill="#e6e0cf" transform="rotate(66 517.2 187.5)"/><ellipse cx="552.1" cy="146.7" rx="4" ry="2" fill="#e6e0cf" transform="rotate(76 552.1 146.7)"/><ellipse cx="566.8" cy="148.7" rx="4" ry="2" fill="#e6e0cf" transform="rotate(62 566.8 148.7)"/><ellipse cx="615.0" cy="196.0" rx="4" ry="2" fill="#e6e0cf" transform="rotate(143 615.0 196.0)"/><circle cx="577.9" cy="202.1" r="18.2" fill="#ef8354"/><circle cx="553.1" cy="212.3" r="18.2" fill="#e2503c"/><circle cx="557.1" cy="185.9" r="18.2" fill="#7fb069"/><circle cx="237.64949232526124" cy="366.99716653861105" r="70" fill="#000" opacity="0.35"/><circle cx="237.64949232526124" cy="360.99716653861105" r="70" fill="#f5f2e8"/><circle cx="237.64949232526124" cy="360.99716653861105" r="60.199999999999996" fill="#f5f2e8"/><ellipse cx="229.0" cy="312.4" rx="4" ry="2" fill="#e6e0cf" transform="rotate(59 229.0 312.4)"/><ellipse cx="272.3" cy="315.9" rx="4" ry="2" fill="#e6e0cf" transform="rotate(55 272.3 315.9)"/><ellipse cx="241.2" cy="315.7" rx="4" ry="2" fill="#e6e0cf" transform="rotate(119 241.2 315.7)"/><ellipse cx="279.6" cy="400.1" rx="4" ry="2" fill="#e6e0cf" transform="rotate(83 279.6 400.1)"/><ellipse cx="277.5" cy="334.5" rx="4" ry="2" fill="#e6e0cf" transform="rotate(124 277.5 334.5)"/><ellipse cx="258.1" cy="413.2" rx="4" ry="2" fill="#e6e0cf" transform="rotate(43 258.1 413.2)"/><ellipse cx="183.0" cy="364.7" rx="4" ry="2" fill="#e6e0cf" transform="rotate(68 183.0 364.7)"/><ellipse cx="208.6" cy="398.7" rx="4" ry="2" fill="#e6e0cf" transform="rotate(83 208.6 398.7)"/><ellipse cx="192.6" cy="344.3" rx="4" ry="2" fill="#e6e0cf" transform="rotate(116 192.6 344.3)"/><ellipse cx="284.1" cy="358.2" rx="4" ry="2" fill="#e6e0cf" transform="rotate(65 284.1 358.2)"/><circle cx="252.4" cy="365.3" r="18.2" fill="#ef8354"/><circle cx="225.2" cy="370.1" r="18.2" fill="#e2503c"/><circle cx="236.4" cy="345.7" r="18.2" fill="#7fb069"/><circle cx="400.45535983890295" cy="367.62408478558064" r="70" fill="#000" opacity="0.35"/><circle cx="400.45535983890295" cy="361.62408478558064" r="70" fill="#f5f2e8"/><circle cx="400.45535983890295" cy="361.62408478558064" r="60.199999999999996" fill="#f5f2e8"/><ellipse cx="374.5" cy="400.6" rx="4" ry="2" fill="#e6e0cf" transform="rotate(90 374.5 400.6)"/><ellipse cx="383.7" cy="314.7" rx="4" ry="2" fill="#e6e0cf" transform="rotate(50 383.7 314.7)"/><ellipse cx="426.5" cy="315.8" rx="4" ry="2" fill="#e6e0cf" transform="rotate(135 426.5 315.8)"/><ellipse cx="411.1" cy="318.6" rx="4" ry="2" fill="#e6e0cf" transform="rotate(90 411.1 318.6)"/><ellipse cx="359.1" cy="339.9" rx="4" ry="2" fill="#e6e0cf" transform="rotate(103 359.1 339.9)"/><ellipse cx="360.4" cy="383.3" rx="4" ry="2" fill="#e6e0cf" transform="rotate(76 360.4 383.3)"/><ellipse cx="364.9" cy="397.6" rx="4" ry="2" fill="#e6e0cf" transform="rotate(44 364.9 397.6)"/><ellipse cx="366.3" cy="395.7" rx="4" ry="2" fill="#e6e0cf" transform="rotate(42 366.3 395.7)"/><ellipse cx="448.2" cy="378.5" rx="4" ry="2" fill="#e6e0cf" transform="rotate(156 448.2 378.5)"/><ellipse cx="345.0" cy="347.1" rx="4" ry="2" fill="#e6e0cf" transform="rotate(169 345.0 347.1)"/><circle cx="415.7" cy="364.1" r="18.2" fill="#ef8354"/><circle cx="392.0" cy="374.5" r="18.2" fill="#e2503c"/><circle cx="393.4" cy="347.9" r="18.2" fill="#7fb069"/><circle cx="561.4107590932399" cy="363.17659839615226" r="70" fill="#000" opacity="0.35"/><circle cx="561.4107590932399" cy="357.17659839615226" r="70" fill="#f5f2e8"/><circle cx="561.4107590932399" cy="357.17659839615226" r="60.199999999999996" fill="#f5f2e8"/><ellipse cx="591.6" cy="319.9" rx="4" ry="2" fill="#e6e0cf" transform="rotate(84 591.6 319.9)"/><ellipse cx="611.5" cy="335.6" rx="4" ry="2" fill="#e6e0cf" transform="rotate(177 611.5 335.6)"/><ellipse cx="592.7" cy="390.1" rx="4" ry="2" fill="#e6e0cf" transform="rotate(153 592.7 390.1)"/><ellipse cx="601.8" cy="385.1" rx="4" ry="2" fill="#e6e0cf" transform="rotate(2 601.8 385.1)"/><ellipse cx="505.3" cy="352.5" rx="4" ry="2" fill="#e6e0cf" transform="rotate(136 505.3 352.5)"/><ellipse cx="508.2" cy="356.9" rx="4" ry="2" fill="#e6e0cf" transform="rotate(42 508.2 356.9)"/><ellipse cx="518.5" cy="344.4" rx="4" ry="2" fill="#e6e0cf" transform="rotate(80 518.5 344.4)"/><ellipse cx="534.9" cy="391.5" rx="4" ry="2" fill="#e6e0cf" transform="rotate(86 534.9 391.5)"/><ellipse cx="504.3" cy="361.5" rx="4" ry="2" fill="#e6e0cf" transform="rotate(25 504.3 361.5)"/><ellipse cx="531.9" cy="324.0" rx="4" ry="2" fill="#e6e0cf" transform="rotate(73 531.9 324.0)"/><circle cx="576.1" cy="361.8" r="18.2" fill="#ef8354"/><circle cx="550.5" cy="368.1" r="18.2" fill="#e2503c"/><circle cx="556.3" cy="342.7" r="18.2" fill="#7fb069"/></svg>