<svg xmlns="http://www.w3.org/2000/svg" viewBox="0 0 800 600"><defs><radialGradient id="bg-geysha-maki" cx="50%" cy="35%" r="80%"><stop offset="0%" stop-color="#26262c"/><stop offset="100%" stop-color="#141417"/></radialGradient></defs><rect width="800" height="600" fill="url(#bg-geysha-maki)"/><circle cx="235.27593577839434" cy="209.28179065324366" r="70" fill="#000" opacity="0.35"/><circle cx="235.27593577839434" cy="203.28179065324366" r="70" fill="#2e3230"/><circle cx="235.27593577839434" cy="203.28179065324366" r="60.199999999999996" fill="#f5f2e8"/><ellipse cx="255.5" cy="245.4" rx="4" ry="2" fill="#e6e0cf" transform="rotate(1 255.5 245.4)"/><ellipse cx="181.2" cy="204.9" rx="4" ry="2" fill="#e6e0cf" transform="rotate(82 181.2 204.9)"/><ellipse cx="214.5" cy="242.0" rx="4" ry="2" fill="#e6e0cf" transform="rotate(129 214.5 242.0)"/><ellipse cx="236.5" cy="255.5" rx="4" ry="2" fill="#e6e0cf" transform="rotate(158 236.5 255.5)"/><ellipse cx="275.5" cy="167.8" rx="4" ry="2" fill="#e6e0cf" transform="rotate(55 275.5 167.8)"/><ellipse cx="209.5" cy="163.9" rx="4" ry="2" fill="#e6e0cf" transform="rotate(135 209.5 163.9)"/><ellipse cx="188.8" cy="229.9" rx="4" ry="2" fill="#e6e0cf" transform="rotate(110 188.8 229.9)"/><ellipse cx="191.7" cy="202.0" rx="4" ry="2" fill="#e6e0cf" transform="rotate(123 191.7 202.0)"/><ellipse cx="259.6" cy="156.6" rx="4" ry="2" fill="#e6e0cf" transform="rotate(26 259.6 156.6)"/><ellipse cx="194.1" cy="178.7" rx="4" ry="2" fill="#e6e0cf" transform="rotate(34 194.1 178.7)"/><circle cx="249.3" cy="209.7" r="18.2" fill="#ef8354"/><circle cx="222.7" cy="212.1" r="18.2" fill="#7fb069"/><circle cx="230.0" cy="188.8" r="18.2" fill="#f2ecd8"/><circle cx="403.12204462476075" cy="202.0971071626991" r="70" fill="#000" opacity="0.35"/><circle cx="403.12204462476075" cy="196.0971071626991" r="70" fill="#2e3230"/><circle cx="403.12204462476075" cy="196.0971071626991" r="60.199999999999996" fill="#f5f2e8"/><ellipse cx="443.0" cy="222.0" rx="4" ry="2" fill="#e6e0cf" transform="rotate(98 443.0 222.0)"/><ellipse cx="450.3" cy="194.4" rx="4" ry="2" fill="#e6e0cf" transform="rotate(87 450.3 194.4)"/><ellipse cx="435.0" cy="166.4" rx="4" ry="2" fill="#e6e0cf" transform="rotate(64 435.0 166.4)"/><ellipse cx="369.9" cy="167.3" rx="4" ry="2" fill="#e6e0cf" transform="rotate(85 369.9 167.3)"/><ellipse cx="444.1" cy="178.2" rx="4" ry="2" fill="#e6e0cf" transform="rotate(54 444.1 178.2)"/><ellipse cx="413.4" cy="151.0" rx="4" ry="2" fill="#e6e0cf" transform="rotate(19 413.4 151.0)"/><ellipse cx="348.5" cy="195.9" rx="4" ry="2" fill="#e6e0cf" transform="rotate(45 348.5 195.9)"/><ellipse cx="422.3" cy="147.0" rx="4" ry="2" fill="#e6e0cf" transform="rotate(142 422.3 147.0)"/><ellipse cx="352.0" cy="170.6" rx="4" ry="2" fill="#e6e0cf" transform="rotate(6 352.0 170.6)"/><ellipse cx="349.9" cy="188.5" rx="4" ry="2" fill="#e6e0cf" transform="rotate(103 349.9 188.5)"/><circle cx="418.5" cy="197.3" r="18.2" fill="#ef8354"/><circle cx="391.0" cy="205.5" r="18.2" fill="#7fb069"/><circle cx="397.1" cy="181.9" r="18.2" fill="#f2ecd8"/><circle cx="562.8806995712221" cy="206.89842185750604" r="70" fill="#000" opacity="0.35"/><circle cx="562.8806995712221" cy="200.89842185750604" r="70" fill="#2e3230"/><circle cx="562.8806995712221" cy="200.89842185750604" r="60.199999999999996" fill="#f5f2e8"/><ellipse cx="592.4" cy="247.7" rx="4" ry="2" fill="#e6e0cf" transform="rotate(6 592.4 247.7)"/><ellipse cx="543.9" cy="153.3" rx="4" ry="2" fill="#e6e0cf" transform="rotate(128 543.9 153.3)"/><ellipse cx="509.4" cy="220.6" rx="4" ry="2" fill="#e6e0cf" transform="rotate(121 509.4 220.6)"/><ellipse cx="512.2" cy="210.8" rx="4" ry="2" fill="#e6e0cf" transform="rotate(54 512.2 210.8)"/><ellipse cx="596.5" cy="230.4" rx="4" ry="2" fill="#e6e0cf" transform="rotate(134 596.5 230.4)"/><ellipse cx="586.8" cy="152.6" rx="4" ry="2" fill="#e6e0cf" transform="rotate(43 586.8 152.6)"/><ellipse cx="526.4" cy="226.7" rx="4" ry="2" fill="#e6e0cf" transform="rotate(102 526.4 226.7)"/><ellipse cx="608.1" cy="220.7" rx="4" ry="2" fill="#e6e0cf" transform="rotate(65 608.1 220.7)"/><ellipse cx="513.4" cy="209.1" rx="4" ry="2" fill="#e6e0cf" transform="rotate(127 513.4 209.1)"/><ellipse cx="552.2" cy="256.4" rx="4" ry="2" fill="#e6e0cf" transform="rotate(20 552.2 256.4)"/><circle cx="577.1" cy="206.9" r="18.2" fill="#ef8354"/><circle cx="551.4" cy="211.2" r="18.2" fill="#7fb069"/><circle cx="562.4" cy="185.5" r="18.2" fill="#f2ecd8"/><circle cx="235.74384257756174" cy="368.099536312744" r="70" fill="#000" opacity="0.35"/><circle cx="235.74384257756174" cy="362.099536312744" r="70" fill="#2e3230"/><circle cx="235.74384257756174" cy="362.099536312744" r="60.199999999999996" fill="#f5f2e8"/><ellipse cx="218.5" cy="322.2" rx="4" ry="2" fill="#e6e0cf" transform="rotate(43 218.5 322.2)"/><ellipse cx="210.5" cy="319.5" rx="4" ry="2" fill="#e6e0cf" transform="rotate(158 210.5 319.5)"/><ellipse cx="279.8" cy="384.5" rx="4" ry="2" fill="#e6e0cf" transform="rotate(31 279.8 384.5)"/><ellipse cx="283.3" cy="365.6" rx="4" ry="2" fill="#e6e0cf" transform="rotate(120 283.3 365.6)"/><ellipse cx="281.6" cy="361.7" rx="4" ry="2" fill="#e6e0cf" transform="rotate(77 281.6 361.7)"/><ellipse cx="191.8" cy="371.9" rx="4" ry="2" fill="#e6e0cf" transform="rotate(69 191.8 371.9)"/><ellipse cx="272.9" cy="393.2" rx="4" ry="2" fill="#e6e0cf" transform="rotate(15 272.9 393.2)"/><ellipse cx="214.4" cy="316.2" rx="4" ry="2" fill="#e6e0cf" transform="rotate(19 214.4 316.2)"/><ellipse cx="191.7" cy="393.7" rx="4" ry="2" fill="#e6e0cf" transform="rotate(53 191.7 393.7)"/><ellipse cx="285.0" cy="382.1" rx="4" ry="2" fill="#e6e0cf" transform="rotate(130 285.0 382.1)"/><circle cx="250.9" cy="364.7" r="18.2" fill="#ef8354"/><circle cx="223.4" cy="371.3" r="18.2" fill="#7fb069"/><circle cx="232.3" cy="347.1" r="18.2" fill="#f2ecd8"/><circle cx="402.1516716685146" cy="365.74022523127496" r="70" fill="#000" opacity="0.35"/><circle cx="402.1516716685146" cy="359.74022523127496" r="70" fill="#2e3230"/><circle cx="402.1516716685146" cy="359.74022523127496" r="60.199999999999996" fill="#f5f2e8"/><ellipse cx="384.5" cy="400.5" rx="4" ry="2" fill="#e6e0cf" transform="rotate(160 384.5 400.5)"/><ellipse cx="389.8" cy="316.8" rx="4" ry="2" fill="#e6e0cf" transform="rotate(70 389.8 316.8)"/><ellipse cx="452.1" cy="361.2" rx="4" ry="2" fill="#e6e0cf" transform="rotate(30 452.1 361.2)"/><ellipse cx="457.6" cy="370.4" rx="4" ry="2" fill="#e6e0cf" transform="rotate(130 457.6 370.4)"/><ellipse cx="360.5" cy="334.1" rx="4" ry="2" fill="#e6e0cf" transform="rotate(112 360.5 334.1)"/><ellipse cx="433.8" cy="401.4" rx="4" ry="2" fill="#e6e0cf" transform="rotate(157 433.8 401.4)"/><ellipse cx="383.9" cy="405.0" rx="4" ry="2" fill="#e6e0cf" transform="rotate(84 383.9 405.0)"/><ellipse cx="421.6" cy="401.7" rx="4" ry="2" fill="#e6e0cf" transform="rotate(159 421.6 401.7)"/><ellipse cx="445.3" cy="392.8" rx="4" ry="2" fill="#e6e0cf" transform="rotate(166 445.3 392.8)"/><ellipse cx="430.0" cy="324.6" rx="4" ry="2" fill="#e6e0cf" transform="rotate(160 430.0 324.6)"/><circle cx="415.8" cy="366.9" r="18.2" fill="#ef8354"/><circle cx="390.2" cy="369.5" r="18.2" fill="#7fb069"/><circle cx="398.4" cy="344.8" r="18.2" fill="#f2ecd8"/><circle cx="563.2598975058645" cy="366.8229556493461" r="70" fill="#000" opacity="0.35"/><circle cx="563.2598975058645" cy="360.8229556493461" r="70" fill="#2e3230"/><circle cx="563.2598975058645" cy="360.8229556493461" r="60.199999999999996" fill="#f5f2e8"/><ellipse cx="618.0" cy="345.4" rx="4" ry="2" fill="#e6e0cf" transform="rotate(55 618.0 345.4)"/><ellipse cx="559.2" cy="312.2" rx="4" ry="2" fill="#e6e0cf" transform="rotate(82 559.2 312.2)"/><ellipse cx="516.1" cy="376.3" rx="4" ry="2" fill="#e6e0cf" transform="rotate(106 516.1 376.3)"/><ellipse cx="614.4" cy="350.6" rx="4" ry="2" fill="#e6e0cf" transform="rotate(139 614.4 350.6)"/><ellipse cx="589.7" cy="311.1" rx="4" ry="2" fill="#e6e0cf" transform="rotate(116 589.7 311.1)"/><ellipse cx="546.3" cy="405.2" rx="4" ry="2" fill="#e6e0cf" transform="rotate(148 546.3 405.2)"/><ellipse cx="542.1" cy="402.0" rx="4" ry="2" fill="#e6e0cf" transform="rotate(89 542.1 402.0)"/><ellipse cx="514.8" cy="368.1" rx="4" ry="2" fill="#e6e0cf" transform="rotate(118 514.8 368.1)"/><ellipse cx="507.8" cy="349.9" rx="4" ry="2" fill="#e6e0cf" transform="rotate(75 507.8 349.9)"/><ellipse cx="547.1" cy="311.9" rx="4" ry="2" fill="#e6e0cf" transform="rotate(118 547.1 311.9)"/><circle cx="578.5" cy="362.9" r="18.2" fill="#ef8354"/><circle cx="550.5" cy="369.5" r="18.2" fill="#7fb069"/><circle cx="562.4" cy="345.4" r="18.2" fill="#f2ecd8"/></svg>