<svg xmlns="http://www.w3.org/2000/svg" viewBox="0 0 800 600"><defs><radialGradient id="bg-hatate-spaysi" cx="50%" cy="35%" r="80%"><stop offset="0%" stop-color="#ffffff"/><stop offset="100%" stop-color="#efeff2"/></radialGradient></defs><rect width="800" height="600" fill="url(#bg-hatate-spaysi)"/><ellipse cx="400" cy="410" rx="150" ry="26" fill="#000" opacity="0.1"/><rect x="280" y="280" width="240" height="130" rx="40" fill="#23272a"/><circle cx="425.5" cy="266.4" r="10.1" fill="#e8d9c5"/><circle cx="432.2" cy="261.2" r="17.5" fill="#e8d9c5"/><circle cx="465.4" cy="257.2" r="16.4" fill="#e8d9c5"/><circle cx="460.6" cy="269.9" r="10.7" fill="#e8d9c5"/><circle cx="478.2" cy="261.4" r="13.2" fill="#e8d9c5"/><circle cx="325.8" cy="278.0" r="18.1" fill="#e8d9c5"/><circle cx="441.6" cy="272.6" r="10.9" fill="#e8d9c5"/><circle cx="347.6" cy="255.9" r="12.6" fill="#e8d9c5"/><circle cx="392.1" cy="256.0" r="12.9" fill="#e8d9c5"/><circle cx="479.7" cy="279.4" r="17.5" fill="#e8d9c5"/><circle cx="423.6" cy="253.3" r="14.7" fill="#e8d9c5"/><circle cx="432.2" cy="266.2" r="11.7" fill="#e8d9c5"/><circle cx="477.3" cy="265.5" r="16.5" fill="#e8d9c5"/><circle cx="362.2" cy="273.5" r="12.4" fill="#e8d9c5"/><circle cx="408.5" cy="276.5" r="18.9" fill="#e8d9c5"/><circle cx="337.0" cy="261.7" r="11.1" fill="#e8d9c5"/><circle cx="385.6" cy="256.9" r="17.3" fill="#e8d9c5"/><circle cx="484.6" cy="258.5" r="14.2" fill="#e8d9c5"/><circle cx="456.9" cy="268.2" r="11.9" fill="#e8d9c5"/><circle cx="342.6" cy="260.5" r="10.6" fill="#e8d9c5"/><circle cx="467.1" cy="275.5" r="16.1" fill="#e8d9c5"/><circle cx="420.7" cy="264.9" r="18.7" fill="#e8d9c5"/><circle cx="371.1" cy="273.9" r="10.9" fill="#e8d9c5"/><circle cx="441.0" cy="263.6" r="14.4" fill="#e8d9c5"/><rect x="280" y="280" width="240" height="130" rx="40" fill="none" stroke="#111" stroke-width="3"/></svg>