<svg xmlns="http://www.w3.org/2000/svg" viewBox="0 0 800 600"><defs><radialGradient id="bg-hiyashchi" cx="50%" cy="35%" r="80%"><stop offset="0%" stop-color="#26262c"/><stop offset="100%" stop-color="#141417"/></radialGradient></defs><rect width="800" height="600" fill="url(#bg-hiyashchi)"/><circle cx="238.80684715509415" cy="203.55302687175572" r="70" fill="#000" opacity="0.35"/><circle cx="238.80684715509415" cy="197.55302687175572" r="70" fill="#2e3230"/><circle cx="238.80684715509415" cy="197.55302687175572" r="60.199999999999996" fill="#f5f2e8"/><ellipse cx="240.2" cy="152.7" rx="4" ry="2" fill="#e6e0cf" transform="rotate(149 240.2 152.7)"/><ellipse cx="216.9" cy="159.9" rx="4" ry="2" fill="#e6e0cf" transform="rotate(9 216.9 159.9)"/><ellipse cx="289.2" cy="210.2" rx="4" ry="2" fill="#e6e0cf" transform="rotate(178 289.2 210.2)"/><ellipse cx="218.3" cy="249.9" rx="4" ry="2" fill="#e6e0cf" transform="rotate(52 218.3 249.9)"/><ellipse cx="254.4" cy="145.3" rx="4" ry="2" fill="#e6e0cf" transform="rotate(13 254.4 145.3)"/><ellipse cx="278.1" cy="220.5" rx="4" ry="2" fill="#e6e0cf" transform="rotate(130 278.1 220.5)"/><ellipse cx="200.2" cy="223.1" rx="4" ry="2" fill="#e6e0cf" transform="rotate(85 200.2 223.1)"/><ellipse cx="224.0" cy="153.8" rx="4" ry="2" fill="#e6e0cf" transform="rotate(43 224.0 153.8)"/><ellipse cx="221.3" cy="246.5" rx="4" ry="2" fill="#e6e0cf" transform="rotate(141 221.3 246.5)"/><ellipse cx="243.2" cy="142.9" rx="4" ry="2" fill="#e6e0cf" transform="rotate(132 243.2 142.9)"/><circle cx="253.8" cy="200.9" r="18.2" fill="#ef8354"/><circle cx="225.2" cy="190.4" r="18.2" fill="#7fb069"/><circle cx="398.1165581420064" cy="209.18089011125267" r="70" fill="#000" opacity="0.35"/><circle cx="398.1165581420064" cy="203.18089011125267" r="70" fill="#2e3230"/><circle cx="398.1165581420064" cy="203.18089011125267" r="60.199999999999996" fill="#f5f2e8"/><ellipse cx="359.1" cy="179.2" rx="4" ry="2" fill="#e6e0cf" transform="rotate(119 359.1 179.2)"/><ellipse cx="435.5" cy="168.1" rx="4" ry="2" fill="#e6e0cf" transform="rotate(39 435.5 168.1)"/><ellipse cx="452.4" cy="191.6" rx="4" ry="2" fill="#e6e0cf" transform="rotate(5 452.4 191.6)"/><ellipse cx="344.4" cy="196.4" rx="4" ry="2" fill="#e6e0cf" transform="rotate(147 344.4 196.4)"/><ellipse cx="347.5" cy="230.1" rx="4" ry="2" fill="#e6e0cf" transform="rotate(18 347.5 230.1)"/><ellipse cx="369.4" cy="168.2" rx="4" ry="2" fill="#e6e0cf" transform="rotate(90 369.4 168.2)"/><ellipse cx="442.0" cy="194.2" rx="4" ry="2" fill="#e6e0cf" transform="rotate(56 442.0 194.2)"/><ellipse cx="377.0" cy="162.9" rx="4" ry="2" fill="#e6e0cf" transform="rotate(66 377.0 162.9)"/><ellipse cx="428.5" cy="162.7" rx="4" ry="2" fill="#e6e0cf" transform="rotate(69 428.5 162.7)"/><ellipse cx="358.0" cy="169.1" rx="4" ry="2" fill="#e6e0cf" transform="rotate(40 358.0 169.1)"/><circle cx="413.0" cy="207.0" r="18.2" fill="#ef8354"/><circle cx="382.7" cy="203.1" r="18.2" fill="#7fb069"/><circle cx="560.9551508910954" cy="207.9722991771996" r="70" fill="#000" opacity="0.35"/><circle cx="560.9551508910954" cy="201.9722991771996" r="70" fill="#2e3230"/><circle cx="560.9551508910954" cy="201.9722991771996" r="60.199999999999996" fill="#f5f2e8"/><ellipse cx="604.1" cy="209.1" rx="4" ry="2" fill="#e6e0cf" transform="rotate(100 604.1 209.1)"/><ellipse cx="606.5" cy="186.4" rx="4" ry="2" fill="#e6e0cf" transform="rotate(8 606.5 186.4)"/><ellipse cx="589.2" cy="245.9" rx="4" ry="2" fill="#e6e0cf" transform="rotate(32 589.2 245.9)"/><ellipse cx="519.9" cy="185.9" rx="4" ry="2" fill="#e6e0cf" transform="rotate(152 519.9 185.9)"/><ellipse cx="506.5" cy="208.2" rx="4" ry="2" fill="#e6e0cf" transform="rotate(10 506.5 208.2)"/><ellipse cx="569.4" cy="148.3" rx="4" ry="2" fill="#e6e0cf" transform="rotate(166 569.4 148.3)"/><ellipse cx="576.0" cy="152.6" rx="4" ry="2" fill="#e6e0cf" transform="rotate(112 576.0 152.6)"/><ellipse cx="528.9" cy="155.6" rx="4" ry="2" fill="#e6e0cf" transform="rotate(103 528.9 155.6)"/><ellipse cx="598.2" cy="162.7" rx="4" ry="2" fill="#e6e0cf" transform="rotate(145 598.2 162.7)"/><ellipse cx="610.6" cy="224.2" rx="4" ry="2" fill="#e6e0cf" transform="rotate(118 610.6 224.2)"/><circle cx="576.0" cy="205.3" r="18.2" fill="#ef8354"/><circle cx="545.6" cy="201.0" r="18.2" fill="#7fb069"/><circle cx="237.19035827554762" cy="368.0442944318056" r="70" fill="#000" opacity="0.35"/><circle cx="237.19035827554762" cy="362.0442944318056" r="70" fill="#2e3230"/><circle cx="237.19035827554762" cy="362.0442944318056" r="60.199999999999996" fill="#f5f2e8"/><ellipse cx="230.2" cy="407.6" rx="4" ry="2" fill="#e6e0cf" transform="rotate(30 230.2 407.6)"/><ellipse cx="281.8" cy="329.3" rx="4" ry="2" fill="#e6e0cf" transform="rotate(73 281.8 329.3)"/><ellipse cx="257.6" cy="414.8" rx="4" ry="2" fill="#e6e0cf" transform="rotate(62 257.6 414.8)"/><ellipse cx="275.0" cy="325.2" rx="4" ry="2" fill="#e6e0cf" transform="rotate(33 275.0 325.2)"/><ellipse cx="199.3" cy="327.9" rx="4" ry="2" fill="#e6e0cf" transform="rotate(105 199.3 327.9)"/><ellipse cx="284.4" cy="391.3" rx="4" ry="2" fill="#e6e0cf" transform="rotate(79 284.4 391.3)"/><ellipse cx="182.2" cy="369.7" rx="4" ry="2" fill="#e6e0cf" transform="rotate(76 182.2 369.7)"/><ellipse cx="187.5" cy="344.6" rx="4" ry="2" fill="#e6e0cf" transform="rotate(138 187.5 344.6)"/><ellipse cx="198.2" cy="401.8" rx="4" ry="2" fill="#e6e0cf" transform="rotate(147 198.2 401.8)"/><ellipse cx="272.2" cy="389.8" rx="4" ry="2" fill="#e6e0cf" transform="rotate(146 272.2 389.8)"/><circle cx="252.4" cy="364.3" r="18.2" fill="#ef8354"/><circle cx="222.0" cy="359.6" r="18.2" fill="#7fb069"/><circle cx="403.9053489547223" cy="369.9844228569418" r="70" fill="#000" opacity="0.35"/><circle cx="403.9053489547223" cy="363.9844228569418" r="70" fill="#2e3230"/><circle cx="403.9053489547223" cy="363.9844228569418" r="60.199999999999996" fill="#f5f2e8"/><ellipse cx="371.0" cy="410.5" rx="4" ry="2" fill="#e6e0cf" transform="rotate(31 371.0 410.5)"/><ellipse cx="368.4" cy="390.2" rx="4" ry="2" fill="#e6e0cf" transform="rotate(77 368.4 390.2)"/><ellipse cx="430.6" cy="409.8" rx="4" ry="2" fill="#e6e0cf" transform="rotate(42 430.6 409.8)"/><ellipse cx="390.7" cy="415.0" rx="4" ry="2" fill="#e6e0cf" transform="rotate(23 390.7 415.0)"/><ellipse cx="385.7" cy="417.4" rx="4" ry="2" fill="#e6e0cf" transform="rotate(116 385.7 417.4)"/><ellipse cx="438.3" cy="401.7" rx="4" ry="2" fill="#e6e0cf" transform="rotate(38 438.3 401.7)"/><ellipse cx="356.1" cy="385.7" rx="4" ry="2" fill="#e6e0cf" transform="rotate(135 356.1 385.7)"/><ellipse cx="360.5" cy="377.6" rx="4" ry="2" fill="#e6e0cf" transform="rotate(41 360.5 377.6)"/><ellipse cx="448.1" cy="376.3" rx="4" ry="2" fill="#e6e0cf" transform="rotate(72 448.1 376.3)"/><ellipse cx="389.6" cy="407.6" rx="4" ry="2" fill="#e6e0cf" transform="rotate(168 389.6 407.6)"/><circle cx="418.8" cy="367.9" r="18.2" fill="#ef8354"/><circle cx="389.1" cy="359.7" r="18.2" fill="#7fb069"/><circle cx="562.6010624431074" cy="363.0951065570116" r="70" fill="#000" opacity="0.35"/><circle cx="562.6010624431074" cy="357.0951065570116" r="70" fill="#2e3230"/><circle cx="562.6010624431074" cy="357.0951065570116" r="60.199999999999996" fill="#f5f2e8"/><ellipse cx="575.2" cy="308.7" rx="4" ry="2" fill="#e6e0cf" transform="rotate(62 575.2 308.7)"/><ellipse cx="600.8" cy="379.9" rx="4" ry="2" fill="#e6e0cf" transform="rotate(109 600.8 379.9)"/><ellipse cx="598.5" cy="383.6" rx="4" ry="2" fill="#e6e0cf" transform="rotate(23 598.5 383.6)"/><ellipse cx="520.6" cy="340.4" rx="4" ry="2" fill="#e6e0cf" transform="rotate(20 520.6 340.4)"/><ellipse cx="536.9" cy="403.3" rx="4" ry="2" fill="#e6e0cf" transform="rotate(148 536.9 403.3)"/><ellipse cx="561.5" cy="309.6" rx="4" ry="2" fill="#e6e0cf" transform="rotate(8 561.5 309.6)"/><ellipse cx="524.4" cy="323.9" rx="4" ry="2" fill="#e6e0cf" transform="rotate(52 524.4 323.9)"/><ellipse cx="609.3" cy="382.8" rx="4" ry="2" fill="#e6e0cf" transform="rotate(46 609.3 382.8)"/><ellipse cx="591.4" cy="394.8" rx="4" ry="2" fill="#e6e0cf" transform="rotate(149 591.4 394.8)"/><ellipse cx="600.5" cy="378.3" rx="4" ry="2" fill="#e6e0cf" transform="rotate(29 600.5 378.3)"/><circle cx="577.9" cy="358.8" r="18.2" fill="#ef8354"/><circle cx="547.2" cy="356.0" r="18.2" fill="#7fb069"/></svg>