<svg xmlns="http://www.w3.org/2000/svg" viewBox="0 0 800 600"><defs><radialGradient id="bg-hokkaido" cx="50%" cy="35%" r="80%"><stop offset="0%" stop-color="#26262c"/><stop offset="100%" stop-color="#141417"/></radialGradient></defs><rect width="800" height="600" fill="url(#bg-hokkaido)"/><circle cx="240.69007669575512" cy="202.61498519778252" r="70" fill="#000" opacity="0.35"/><circle cx="240.69007669575512" cy="196.61498519778252" r="70" fill="#f5f2e8"/><circle cx="240.69007669575512" cy="196.61498519778252" r="60.199999999999996" fill="#f5f2e8"/><ellipse cx="283.1" cy="175.6" rx="4" ry="2" fill="#e6e0cf" transform="rotate(73 283.1 175.6)"/><ellipse cx="196.7" cy="170.6" rx="4" ry="2" fill="#e6e0cf" transform="rotate(69 196.7 170.6)"/><ellipse cx="270.6" cy="231.2" rx="4" ry="2" fill="#e6e0cf" transform="rotate(138 270.6 231.2)"/><ellipse cx="273.4" cy="168.1" rx="4" ry="2" fill="#e6e0cf" transform="rotate(4 273.4 168.1)"/><ellipse cx="229.4" cy="251.0" rx="4" ry="2" fill="#e6e0cf" transform="rotate(155 229.4 251.0)"/><ellipse cx="234.9" cy="242.2" rx="4" ry="2" fill="#e6e0cf" transform="rotate(174 234.9 242.2)"/><ellipse cx="266.6" cy="146.7" rx="4" ry="2" fill="#e6e0cf" transform="rotate(51 266.6 146.7)"/><ellipse cx="268.6" cy="230.8" rx="4" ry="2" fill="#e6e0cf" transform="rotate(111 268.6 230.8)"/><ellipse cx="216.3" cy="246.1" rx="4" ry="2" fill="#e6e0cf" transform="rotate(41 216.3 246.1)"/><ellipse cx="188.2" cy="210.1" rx="4" ry="2" fill="#e6e0cf" transform="rotate(6 188.2 210.1)"/><circle cx="256.0" cy="198.5" r="18.2" fill="#ef8354"/><circle cx="231.0" cy="208.6" r="18.2" fill="#7fb069"/><circle cx="234.7" cy="182.4" r="18.2" fill="#f2ecd8"/><circle cx="401.56788470968604" cy="207.64034753851593" r="70" fill="#000" opacity="0.35"/><circle cx="401.56788470968604" cy="201.64034753851593" r="70" fill="#f5f2e8"/><circle cx="401.56788470968604" cy="201.64034753851593" r="60.199999999999996" fill="#f5f2e8"/><ellipse cx="435.3" cy="170.8" rx="4" ry="2" fill="#e6e0cf" transform="rotate(58 435.3 170.8)"/><ellipse cx="413.3" cy="148.5" rx="4" ry="2" fill="#e6e0cf" transform="rotate(175 413.3 148.5)"/><ellipse cx="430.6" cy="165.3" rx="4" ry="2" fill="#e6e0cf" transform="rotate(112 430.6 165.3)"/><ellipse cx="362.4" cy="160.2" rx="4" ry="2" fill="#e6e0cf" transform="rotate(101 362.4 160.2)"/><ellipse cx="356.5" cy="211.0" rx="4" ry="2" fill="#e6e0cf" transform="rotate(138 356.5 211.0)"/><ellipse cx="458.8" cy="202.0" rx="4" ry="2" fill="#e6e0cf" transform="rotate(73 458.8 202.0)"/><ellipse cx="452.9" cy="203.4" rx="4" ry="2" fill="#e6e0cf" transform="rotate(177 452.9 203.4)"/><ellipse cx="387.6" cy="252.4" rx="4" ry="2" fill="#e6e0cf" transform="rotate(35 387.6 252.4)"/><ellipse cx="436.2" cy="158.1" rx="4" ry="2" fill="#e6e0cf" transform="rotate(119 436.2 158.1)"/><ellipse cx="355.4" cy="186.0" rx="4" ry="2" fill="#e6e0cf" transform="rotate(170 355.4 186.0)"/><circle cx="416.5" cy="205.6" r="18.2" fill="#ef8354"/><circle cx="389.0" cy="210.6" r="18.2" fill="#7fb069"/><circle cx="396.9" cy="187.0" r="18.2" fill="#f2ecd8"/><circle cx="564.6018418110907" cy="202.5771373435855" r="70" fill="#000" opacity="0.35"/><circle cx="564.6018418110907" cy="196.5771373435855" r="70" fill="#f5f2e8"/><circle cx="564.6018418110907" cy="196.5771373435855" r="60.199999999999996" fill="#f5f2e8"/><ellipse cx="560.1" cy="153.1" rx="4" ry="2" fill="#e6e0cf" transform="rotate(81 560.1 153.1)"/><ellipse cx="573.7" cy="251.8" rx="4" ry="2" fill="#e6e0cf" transform="rotate(97 573.7 251.8)"/><ellipse cx="611.2" cy="197.8" rx="4" ry="2" fill="#e6e0cf" transform="rotate(179 611.2 197.8)"/><ellipse cx="538.6" cy="234.0" rx="4" ry="2" fill="#e6e0cf" transform="rotate(140 538.6 234.0)"/><ellipse cx="603.9" cy="155.9" rx="4" ry="2" fill="#e6e0cf" transform="rotate(153 603.9 155.9)"/><ellipse cx="522.1" cy="180.1" rx="4" ry="2" fill="#e6e0cf" transform="rotate(77 522.1 180.1)"/><ellipse cx="594.4" cy="233.0" rx="4" ry="2" fill="#e6e0cf" transform="rotate(47 594.4 233.0)"/><ellipse cx="577.2" cy="249.3" rx="4" ry="2" fill="#e6e0cf" transform="rotate(64 577.2 249.3)"/><ellipse cx="536.8" cy="155.0" rx="4" ry="2" fill="#e6e0cf" transform="rotate(99 536.8 155.0)"/><ellipse cx="584.0" cy="154.6" rx="4" ry="2" fill="#e6e0cf" transform="rotate(49 584.0 154.6)"/><circle cx="579.8" cy="199.1" r="18.2" fill="#ef8354"/><circle cx="554.6" cy="208.3" r="18.2" fill="#7fb069"/><circle cx="559.1" cy="182.2" r="18.2" fill="#f2ecd8"/><circle cx="235.8303048145026" cy="362.7697189040482" r="70" fill="#000" opacity="0.35"/><circle cx="235.8303048145026" cy="356.7697189040482" r="70" fill="#f5f2e8"/><circle cx="235.8303048145026" cy="356.7697189040482" r="60.199999999999996" fill="#f5f2e8"/><ellipse cx="276.5" cy="385.9" rx="4" ry="2" fill="#e6e0cf" transform="rotate(27 276.5 385.9)"/><ellipse cx="235.1" cy="403.0" rx="4" ry="2" fill="#e6e0cf" transform="rotate(37 235.1 403.0)"/><ellipse cx="188.5" cy="358.4" rx="4" ry="2" fill="#e6e0cf" transform="rotate(78 188.5 358.4)"/><ellipse cx="192.4" cy="321.6" rx="4" ry="2" fill="#e6e0cf" transform="rotate(65 192.4 321.6)"/><ellipse cx="221.0" cy="406.0" rx="4" ry="2" fill="#e6e0cf" transform="rotate(136 221.0 406.0)"/><ellipse cx="289.5" cy="354.8" rx="4" ry="2" fill="#e6e0cf" transform="rotate(147 289.5 354.8)"/><ellipse cx="274.5" cy="324.8" rx="4" ry="2" fill="#e6e0cf" transform="rotate(156 274.5 324.8)"/><ellipse cx="279.0" cy="326.1" rx="4" ry="2" fill="#e6e0cf" transform="rotate(155 279.0 326.1)"/><ellipse cx="211.5" cy="398.7" rx="4" ry="2" fill="#e6e0cf" transform="rotate(9 211.5 398.7)"/><ellipse cx="291.0" cy="356.0" rx="4" ry="2" fill="#e6e0cf" transform="rotate(153 291.0 356.0)"/><circle cx="249.5" cy="363.9" r="18.2" fill="#ef8354"/><circle cx="227.3" cy="369.6" r="18.2" fill="#7fb069"/><circle cx="233.1" cy="341.6" r="18.2" fill="#f2ecd8"/><circle cx="403.06731193326414" cy="369.97751102410257" r="70" fill="#000" opacity="0.35"/><circle cx="403.06731193326414" cy="363.97751102410257" r="70" fill="#f5f2e8"/><circle cx="403.06731193326414" cy="363.97751102410257" r="60.199999999999996" fill="#f5f2e8"/><ellipse cx="424.8" cy="413.6" rx="4" ry="2" fill="#e6e0cf" transform="rotate(122 424.8 413.6)"/><ellipse cx="386.1" cy="417.3" rx="4" ry="2" fill="#e6e0cf" transform="rotate(77 386.1 417.3)"/><ellipse cx="364.7" cy="398.3" rx="4" ry="2" fill="#e6e0cf" transform="rotate(120 364.7 398.3)"/><ellipse cx="389.4" cy="322.2" rx="4" ry="2" fill="#e6e0cf" transform="rotate(72 389.4 322.2)"/><ellipse cx="365.4" cy="400.5" rx="4" ry="2" fill="#e6e0cf" transform="rotate(5 365.4 400.5)"/><ellipse cx="440.9" cy="403.4" rx="4" ry="2" fill="#e6e0cf" transform="rotate(47 440.9 403.4)"/><ellipse cx="421.4" cy="416.6" rx="4" ry="2" fill="#e6e0cf" transform="rotate(14 421.4 416.6)"/><ellipse cx="432.2" cy="407.2" rx="4" ry="2" fill="#e6e0cf" transform="rotate(4 432.2 407.2)"/><ellipse cx="445.8" cy="353.0" rx="4" ry="2" fill="#e6e0cf" transform="rotate(153 445.8 353.0)"/><ellipse cx="362.7" cy="334.4" rx="4" ry="2" fill="#e6e0cf" transform="rotate(27 362.7 334.4)"/><circle cx="417.3" cy="369.7" r="18.2" fill="#ef8354"/><circle cx="395.3" cy="377.3" r="18.2" fill="#7fb069"/><circle cx="399.7" cy="349.0" r="18.2" fill="#f2ecd8"/><circle cx="560.5826134923846" cy="367.12797703780234" r="70" fill="#000" opacity="0.35"/><circle cx="560.5826134923846" cy="361.12797703780234" r="70" fill="#f5f2e8"/><circle cx="560.5826134923846" cy="361.12797703780234" r="60.199999999999996" fill="#f5f2e8"/><ellipse cx="534.5" cy="319.2" rx="4" ry="2" fill="#e6e0cf" transform="rotate(130 534.5 319.2)"/><ellipse cx="525.4" cy="334.9" rx="4" ry="2" fill="#e6e0cf" transform="rotate(54 525.4 334.9)"/><ellipse cx="564.3" cy="305.2" rx="4" ry="2" fill="#e6e0cf" transform="rotate(74 564.3 305.2)"/><ellipse cx="541.1" cy="413.3" rx="4" ry="2" fill="#e6e0cf" transform="rotate(15 541.1 413.3)"/><ellipse cx="578.6" cy="312.6" rx="4" ry="2" fill="#e6e0cf" transform="rotate(37 578.6 312.6)"/><ellipse cx="602.8" cy="372.3" rx="4" ry="2" fill="#e6e0cf" transform="rotate(114 602.8 372.3)"/><ellipse cx="510.4" cy="387.7" rx="4" ry="2" fill="#e6e0cf" transform="rotate(16 510.4 387.7)"/><ellipse cx="518.6" cy="381.5" rx="4" ry="2" fill="#e6e0cf" transform="rotate(118 518.6 381.5)"/><ellipse cx="585.1" cy="320.2" rx="4" ry="2" fill="#e6e0cf" transform="rotate(156 585.1 320.2)"/><ellipse cx="521.6" cy="385.1" rx="4" ry="2" fill="#e6e0cf" transform="rotate(60 521.6 385.1)"/><circle cx="575.5" cy="365.0" r="18.2" fill="#ef8354"/><circle cx="550.1" cy="372.4" r="18.2" fill="#7fb069"/><circle cx="557.4" cy="346.1" r="18.2" fill="#f2ecd8"/></svg>