<svg xmlns="http://www.w3.org/2000/svg" viewBox="0 0 800 600"><defs><radialGradient id="bg-ikura-gunkan" cx="50%" cy="35%" r="80%"><stop offset="0%" stop-color="#ffffff"/><stop offset="100%" stop-color="#efeff2"/></radialGradient></defs><rect width="800" height="600" fill="url(#bg-ikura-gunkan)"/><ellipse cx="400" cy="410" rx="150" ry="26" fill="#000" opacity="0.1"/><rect x="280" y="280" width="240" height="130" rx="40" fill="#23272a"/><circle cx="396.7" cy="269.0" r="13.1" fill="#e2503c"/><circle cx="368.6" cy="261.9" r="10.8" fill="#e2503c"/><circle cx="470.5" cy="277.6" r="18.7" fill="#e2503c"/><circle cx="342.7" cy="254.4" r="18.4" fill="#e2503c"/><circle cx="331.6" cy="255.1" r="17.1" fill="#e2503c"/><circle cx="453.3" cy="274.3" r="14.0" fill="#e2503c"/><circle cx="417.8" cy="260.3" r="18.6" fill="#e2503c"/><circle cx="365.5" cy="277.1" r="13.2" fill="#e2503c"/><circle cx="424.9" cy="267.1" r="10.9" fill="#e2503c"/><circle cx="449.5" cy="264.5" r="11.7" fill="#e2503c"/><circle cx="385.7" cy="269.9" r="18.0" fill="#e2503c"/><circle cx="324.6" cy="253.3" r="10.2" fill="#e2503c"/><circle cx="330.9" cy="274.1" r="10.4" fill="#e2503c"/><circle cx="374.9" cy="252.5" r="14.6" fill="#e2503c"/><circle cx="349.4" cy="263.2" r="10.4" fill="#e2503c"/><circle cx="443.0" cy="265.0" r="11.7" fill="#e2503c"/><circle cx="440.3" cy="260.4" r="14.4" fill="#e2503c"/><circle cx="411.7" cy="271.0" r="17.3" fill="#e2503c"/><circle cx="377.8" cy="265.2" r="13.0" fill="#e2503c"/><circle cx="406.4" cy="259.4" r="19.0" fill="#e2503c"/><circle cx="365.4" cy="258.2" r="13.6" fill="#e2503c"/><circle cx="474.4" cy="262.9" r="13.3" fill="#e2503c"/><circle cx="459.9" cy="272.2" r="17.9" fill="#e2503c"/><circle cx="334.6" cy="259.5" r="10.5" fill="#e2503c"/><rect x="280" y="280" width="240" height="130" rx="40" fill="none" stroke="#111" stroke-width="3"/></svg>