<svg xmlns="http://www.w3.org/2000/svg" viewBox="0 0 800 600"><defs><radialGradient id="bg-ikura" cx="50%" cy="35%" r="80%"><stop offset="0%" stop-color="#ffffff"/><stop offset="100%" stop-color="#efeff2"/></radialGradient></defs><rect width="800" height="600" fill="url(#bg-ikura)"/><circle cx="238.19275729730725" cy="206.78347303532064" r="70" fill="#000" opacity="0.1"/><circle cx="238.19275729730725" cy="200.78347303532064" r="70" fill="#f5f2e8" stroke="#e0d9c2" stroke-width="2"/><circle cx="238.19275729730725" cy="200.78347303532064" r="60.199999999999996" fill="#f5f2e8"/><ellipse cx="265.3" cy="165.4" rx="4" ry="2" fill="#e6e0cf" transform="rotate(131 265.3 165.4)"/><ellipse cx="195.8" cy="223.9" rx="4" ry="2" fill="#e6e0cf" transform="rotate(173 195.8 223.9)"/><ellipse cx="288.2" cy="194.4" rx="4" ry="2" fill="#e6e0cf" transform="rotate(41 288.2 194.4)"/><ellipse cx="292.0" cy="183.5" rx="4" ry="2" fill="#e6e0cf" transform="rotate(32 292.0 183.5)"/><ellipse cx="281.3" cy="180.6" rx="4" ry="2" fill="#e6e0cf" transform="rotate(97 281.3 180.6)"/><ellipse cx="267.9" cy="161.6" rx="4" ry="2" fill="#e6e0cf" transform="rotate(170 267.9 161.6)"/><ellipse cx="286.1" cy="230.6" rx="4" ry="2" fill="#e6e0cf" transform="rotate(8 286.1 230.6)"/><ellipse cx="268.1" cy="152.2" rx="4" ry="2" fill="#e6e0cf" transform="rotate(88 268.1 152.2)"/><ellipse cx="197.8" cy="222.9" rx="4" ry="2" fill="#e6e0cf" transform="rotate(171 197.8 222.9)"/><ellipse cx="267.4" cy="167.7" rx="4" ry="2" fill="#e6e0cf" transform="rotate(69 267.4 167.7)"/><circle cx="252.9" cy="205.4" r="18.2" fill="#ef8354"/><circle cx="225.3" cy="209.2" r="18.2" fill="#e2503c"/><circle cx="234.2" cy="185.9" r="18.2" fill="#7fb069"/><circle cx="402.62753106839955" cy="205.89186088368297" r="70" fill="#000" opacity="0.1"/><circle cx="402.62753106839955" cy="199.89186088368297" r="70" fill="#f5f2e8" stroke="#e0d9c2" stroke-width="2"/><circle cx="402.62753106839955" cy="199.89186088368297" r="60.199999999999996" fill="#f5f2e8"/><ellipse cx="453.3" cy="201.3" rx="4" ry="2" fill="#e6e0cf" transform="rotate(62 453.3 201.3)"/><ellipse cx="390.9" cy="153.8" rx="4" ry="2" fill="#e6e0cf" transform="rotate(4 390.9 153.8)"/><ellipse cx="421.4" cy="157.0" rx="4" ry="2" fill="#e6e0cf" transform="rotate(116 421.4 157.0)"/><ellipse cx="424.7" cy="152.8" rx="4" ry="2" fill="#e6e0cf" transform="rotate(83 424.7 152.8)"/><ellipse cx="459.7" cy="198.6" rx="4" ry="2" fill="#e6e0cf" transform="rotate(74 459.7 198.6)"/><ellipse cx="349.2" cy="210.6" rx="4" ry="2" fill="#e6e0cf" transform="rotate(23 349.2 210.6)"/><ellipse cx="360.9" cy="223.3" rx="4" ry="2" fill="#e6e0cf" transform="rotate(37 360.9 223.3)"/><ellipse cx="452.7" cy="178.5" rx="4" ry="2" fill="#e6e0cf" transform="rotate(78 452.7 178.5)"/><ellipse cx="383.9" cy="152.0" rx="4" ry="2" fill="#e6e0cf" transform="rotate(143 383.9 152.0)"/><ellipse cx="372.9" cy="165.8" rx="4" ry="2" fill="#e6e0cf" transform="rotate(124 372.9 165.8)"/><circle cx="418.0" cy="201.2" r="18.2" fill="#ef8354"/><circle cx="390.0" cy="208.7" r="18.2" fill="#e2503c"/><circle cx="397.5" cy="185.4" r="18.2" fill="#7fb069"/><circle cx="558.8346063829958" cy="202.76555083319545" r="70" fill="#000" opacity="0.1"/><circle cx="558.8346063829958" cy="196.76555083319545" r="70" fill="#f5f2e8" stroke="#e0d9c2" stroke-width="2"/><circle cx="558.8346063829958" cy="196.76555083319545" r="60.199999999999996" fill="#f5f2e8"/><ellipse cx="595.3" cy="223.0" rx="4" ry="2" fill="#e6e0cf" transform="rotate(14 595.3 223.0)"/><ellipse cx="604.8" cy="209.5" rx="4" ry="2" fill="#e6e0cf" transform="rotate(137 604.8 209.5)"/><ellipse cx="561.8" cy="142.0" rx="4" ry="2" fill="#e6e0cf" transform="rotate(76 561.8 142.0)"/><ellipse cx="512.4" cy="164.2" rx="4" ry="2" fill="#e6e0cf" transform="rotate(103 512.4 164.2)"/><ellipse cx="607.6" cy="197.9" rx="4" ry="2" fill="#e6e0cf" transform="rotate(161 607.6 197.9)"/><ellipse cx="549.1" cy="251.7" rx="4" ry="2" fill="#e6e0cf" transform="rotate(14 549.1 251.7)"/><ellipse cx="592.9" cy="158.4" rx="4" ry="2" fill="#e6e0cf" transform="rotate(132 592.9 158.4)"/><ellipse cx="537.5" cy="249.8" rx="4" ry="2" fill="#e6e0cf" transform="rotate(65 537.5 249.8)"/><ellipse cx="540.3" cy="154.6" rx="4" ry="2" fill="#e6e0cf" transform="rotate(80 540.3 154.6)"/><ellipse cx="612.1" cy="181.9" rx="4" ry="2" fill="#e6e0cf" transform="rotate(152 612.1 181.9)"/><circle cx="573.0" cy="202.7" r="18.2" fill="#ef8354"/><circle cx="547.4" cy="207.1" r="18.2" fill="#e2503c"/><circle cx="558.2" cy="181.4" r="18.2" fill="#7fb069"/><circle cx="237.57330855168402" cy="367.8367103021592" r="70" fill="#000" opacity="0.1"/><circle cx="237.57330855168402" cy="361.8367103021592" r="70" fill="#f5f2e8" stroke="#e0d9c2" stroke-width="2"/><circle cx="237.57330855168402" cy="361.8367103021592" r="60.199999999999996" fill="#f5f2e8"/><ellipse cx="203.4" cy="323.8" rx="4" ry="2" fill="#e6e0cf" transform="rotate(62 203.4 323.8)"/><ellipse cx="267.0" cy="327.8" rx="4" ry="2" fill="#e6e0cf" transform="rotate(160 267.0 327.8)"/><ellipse cx="189.2" cy="350.8" rx="4" ry="2" fill="#e6e0cf" transform="rotate(178 189.2 350.8)"/><ellipse cx="243.9" cy="309.0" rx="4" ry="2" fill="#e6e0cf" transform="rotate(53 243.9 309.0)"/><ellipse cx="211.1" cy="411.3" rx="4" ry="2" fill="#e6e0cf" transform="rotate(92 211.1 411.3)"/><ellipse cx="213.1" cy="400.2" rx="4" ry="2" fill="#e6e0cf" transform="rotate(108 213.1 400.2)"/><ellipse cx="283.2" cy="345.2" rx="4" ry="2" fill="#e6e0cf" transform="rotate(95 283.2 345.2)"/><ellipse cx="279.9" cy="380.5" rx="4" ry="2" fill="#e6e0cf" transform="rotate(19 279.9 380.5)"/><ellipse cx="293.4" cy="357.7" rx="4" ry="2" fill="#e6e0cf" transform="rotate(108 293.4 357.7)"/><ellipse cx="290.3" cy="368.2" rx="4" ry="2" fill="#e6e0cf" transform="rotate(105 290.3 368.2)"/><circle cx="252.3" cy="366.5" r="18.2" fill="#ef8354"/><circle cx="224.6" cy="370.1" r="18.2" fill="#e2503c"/><circle cx="232.9" cy="347.2" r="18.2" fill="#7fb069"/><circle cx="398.3743154797703" cy="369.16494309715927" r="70" fill="#000" opacity="0.1"/><circle cx="398.3743154797703" cy="363.16494309715927" r="70" fill="#f5f2e8" stroke="#e0d9c2" stroke-width="2"/><circle cx="398.3743154797703" cy="363.16494309715927" r="60.199999999999996" fill="#f5f2e8"/><ellipse cx="422.3" cy="411.2" rx="4" ry="2" fill="#e6e0cf" transform="rotate(22 422.3 411.2)"/><ellipse cx="442.6" cy="350.8" rx="4" ry="2" fill="#e6e0cf" transform="rotate(128 442.6 350.8)"/><ellipse cx="420.9" cy="313.6" rx="4" ry="2" fill="#e6e0cf" transform="rotate(81 420.9 313.6)"/><ellipse cx="439.6" cy="389.8" rx="4" ry="2" fill="#e6e0cf" transform="rotate(115 439.6 389.8)"/><ellipse cx="442.6" cy="340.1" rx="4" ry="2" fill="#e6e0cf" transform="rotate(87 442.6 340.1)"/><ellipse cx="348.9" cy="386.2" rx="4" ry="2" fill="#e6e0cf" transform="rotate(129 348.9 386.2)"/><ellipse cx="356.2" cy="385.6" rx="4" ry="2" fill="#e6e0cf" transform="rotate(95 356.2 385.6)"/><ellipse cx="450.6" cy="377.4" rx="4" ry="2" fill="#e6e0cf" transform="rotate(74 450.6 377.4)"/><ellipse cx="355.8" cy="396.2" rx="4" ry="2" fill="#e6e0cf" transform="rotate(114 355.8 396.2)"/><ellipse cx="427.4" cy="409.8" rx="4" ry="2" fill="#e6e0cf" transform="rotate(12 427.4 409.8)"/><circle cx="412.9" cy="368.2" r="18.2" fill="#ef8354"/><circle cx="385.4" cy="371.4" r="18.2" fill="#e2503c"/><circle cx="393.4" cy="348.6" r="18.2" fill="#7fb069"/><circle cx="563.8484183289111" cy="370.25485070608556" r="70" fill="#000" opacity="0.1"/><circle cx="563.8484183289111" cy="364.25485070608556" r="70" fill="#f5f2e8" stroke="#e0d9c2" stroke-width="2"/><circle cx="563.8484183289111" cy="364.25485070608556" r="60.199999999999996" fill="#f5f2e8"/><ellipse cx="604.6" cy="392.3" rx="4" ry="2" fill="#e6e0cf" transform="rotate(48 604.6 392.3)"/><ellipse cx="582.1" cy="317.4" rx="4" ry="2" fill="#e6e0cf" transform="rotate(169 582.1 317.4)"/><ellipse cx="585.8" cy="408.9" rx="4" ry="2" fill="#e6e0cf" transform="rotate(68 585.8 408.9)"/><ellipse cx="577.6" cy="316.2" rx="4" ry="2" fill="#e6e0cf" transform="rotate(12 577.6 316.2)"/><ellipse cx="527.9" cy="396.5" rx="4" ry="2" fill="#e6e0cf" transform="rotate(50 527.9 396.5)"/><ellipse cx="590.1" cy="329.4" rx="4" ry="2" fill="#e6e0cf" transform="rotate(77 590.1 329.4)"/><ellipse cx="614.7" cy="364.9" rx="4" ry="2" fill="#e6e0cf" transform="rotate(149 614.7 364.9)"/><ellipse cx="522.6" cy="326.6" rx="4" ry="2" fill="#e6e0cf" transform="rotate(35 522.6 326.6)"/><ellipse cx="591.8" cy="322.5" rx="4" ry="2" fill="#e6e0cf" transform="rotate(63 591.8 322.5)"/><ellipse cx="509.9" cy="366.2" rx="4" ry="2" fill="#e6e0cf" transform="rotate(31 509.9 366.2)"/><circle cx="579.2" cy="365.7" r="18.2" fill="#ef8354"/><circle cx="551.2" cy="373.0" r="18.2" fill="#e2503c"/><circle cx="557.6" cy="350.2" r="18.2" fill="#7fb069"/></svg>