<svg xmlns="http://www.w3.org/2000/svg" viewBox="0 0 800 600"><defs><radialGradient id="bg-ikura-unagi" cx="50%" cy="35%" r="80%"><stop offset="0%" stop-color="#ffffff"/><stop offset="100%" stop-color="#efeff2"/></radialGradient></defs><rect width="800" height="600" fill="url(#bg-ikura-unagi)"/><circle cx="240.0311032626778" cy="203.6732913609594" r="70" fill="#000" opacity="0.1"/><circle cx="240.0311032626778" cy="197.6732913609594" r="70" fill="#2e3230" stroke="#1f2321" stroke-width="2"/><circle cx="240.0311032626778" cy="197.6732913609594" r="60.199999999999996" fill="#f5f2e8"/><ellipse cx="270.3" cy="228.9" rx="4" ry="2" fill="#e6e0cf" transform="rotate(45 270.3 228.9)"/><ellipse cx="192.8" cy="188.5" rx="4" ry="2" fill="#e6e0cf" transform="rotate(72 192.8 188.5)"/><ellipse cx="206.6" cy="158.0" rx="4" ry="2" fill="#e6e0cf" transform="rotate(30 206.6 158.0)"/><ellipse cx="290.0" cy="210.7" rx="4" ry="2" fill="#e6e0cf" transform="rotate(74 290.0 210.7)"/><ellipse cx="243.8" cy="153.7" rx="4" ry="2" fill="#e6e0cf" transform="rotate(79 243.8 153.7)"/><ellipse cx="227.5" cy="148.4" rx="4" ry="2" fill="#e6e0cf" transform="rotate(163 227.5 148.4)"/><ellipse cx="200.4" cy="230.1" rx="4" ry="2" fill="#e6e0cf" transform="rotate(124 200.4 230.1)"/><ellipse cx="190.4" cy="208.1" rx="4" ry="2" fill="#e6e0cf" transform="rotate(130 190.4 208.1)"/><ellipse cx="199.0" cy="182.4" rx="4" ry="2" fill="#e6e0cf" transform="rotate(42 199.0 182.4)"/><ellipse cx="197.9" cy="223.1" rx="4" ry="2" fill="#e6e0cf" transform="rotate(10 197.9 223.1)"/><circle cx="255.2" cy="200.5" r="18.2" fill="#8a5a3b"/><circle cx="229.3" cy="208.7" r="18.2" fill="#e2503c"/><circle cx="238.6" cy="182.3" r="18.2" fill="#e87b7b"/><circle cx="403.9989402797073" cy="203.89905176497996" r="70" fill="#000" opacity="0.1"/><circle cx="403.9989402797073" cy="197.89905176497996" r="70" fill="#2e3230" stroke="#1f2321" stroke-width="2"/><circle cx="403.9989402797073" cy="197.89905176497996" r="60.199999999999996" fill="#f5f2e8"/><ellipse cx="384.2" cy="156.6" rx="4" ry="2" fill="#e6e0cf" transform="rotate(176 384.2 156.6)"/><ellipse cx="409.3" cy="251.3" rx="4" ry="2" fill="#e6e0cf" transform="rotate(58 409.3 251.3)"/><ellipse cx="377.1" cy="243.5" rx="4" ry="2" fill="#e6e0cf" transform="rotate(29 377.1 243.5)"/><ellipse cx="436.3" cy="165.9" rx="4" ry="2" fill="#e6e0cf" transform="rotate(92 436.3 165.9)"/><ellipse cx="437.2" cy="157.4" rx="4" ry="2" fill="#e6e0cf" transform="rotate(127 437.2 157.4)"/><ellipse cx="443.6" cy="236.4" rx="4" ry="2" fill="#e6e0cf" transform="rotate(64 443.6 236.4)"/><ellipse cx="429.0" cy="239.1" rx="4" ry="2" fill="#e6e0cf" transform="rotate(135 429.0 239.1)"/><ellipse cx="363.0" cy="235.5" rx="4" ry="2" fill="#e6e0cf" transform="rotate(2 363.0 235.5)"/><ellipse cx="350.0" cy="211.1" rx="4" ry="2" fill="#e6e0cf" transform="rotate(93 350.0 211.1)"/><ellipse cx="443.5" cy="160.4" rx="4" ry="2" fill="#e6e0cf" transform="rotate(8 443.5 160.4)"/><circle cx="419.4" cy="198.9" r="18.2" fill="#8a5a3b"/><circle cx="395.3" cy="210.6" r="18.2" fill="#e2503c"/><circle cx="400.9" cy="182.8" r="18.2" fill="#e87b7b"/><circle cx="557.8802169784904" cy="201.87553040124476" r="70" fill="#000" opacity="0.1"/><circle cx="557.8802169784904" cy="195.87553040124476" r="70" fill="#2e3230" stroke="#1f2321" stroke-width="2"/><circle cx="557.8802169784904" cy="195.87553040124476" r="60.199999999999996" fill="#f5f2e8"/><ellipse cx="602.0" cy="195.1" rx="4" ry="2" fill="#e6e0cf" transform="rotate(115 602.0 195.1)"/><ellipse cx="520.0" cy="237.3" rx="4" ry="2" fill="#e6e0cf" transform="rotate(151 520.0 237.3)"/><ellipse cx="529.3" cy="160.7" rx="4" ry="2" fill="#e6e0cf" transform="rotate(154 529.3 160.7)"/><ellipse cx="541.9" cy="245.5" rx="4" ry="2" fill="#e6e0cf" transform="rotate(72 541.9 245.5)"/><ellipse cx="597.7" cy="233.6" rx="4" ry="2" fill="#e6e0cf" transform="rotate(157 597.7 233.6)"/><ellipse cx="550.2" cy="248.0" rx="4" ry="2" fill="#e6e0cf" transform="rotate(170 550.2 248.0)"/><ellipse cx="521.1" cy="157.2" rx="4" ry="2" fill="#e6e0cf" transform="rotate(146 521.1 157.2)"/><ellipse cx="538.8" cy="244.8" rx="4" ry="2" fill="#e6e0cf" transform="rotate(62 538.8 244.8)"/><ellipse cx="559.2" cy="245.5" rx="4" ry="2" fill="#e6e0cf" transform="rotate(112 559.2 245.5)"/><ellipse cx="538.5" cy="244.0" rx="4" ry="2" fill="#e6e0cf" transform="rotate(115 538.5 244.0)"/><circle cx="571.8" cy="202.4" r="18.2" fill="#8a5a3b"/><circle cx="546.9" cy="206.7" r="18.2" fill="#e2503c"/><circle cx="556.5" cy="180.5" r="18.2" fill="#e87b7b"/><circle cx="240.87367224879563" cy="369.7765874620527" r="70" fill="#000" opacity="0.1"/><circle cx="240.87367224879563" cy="363.7765874620527" r="70" fill="#2e3230" stroke="#1f2321" stroke-width="2"/><circle cx="240.87367224879563" cy="363.7765874620527" r="60.199999999999996" fill="#f5f2e8"/><ellipse cx="259.1" cy="315.7" rx="4" ry="2" fill="#e6e0cf" transform="rotate(53 259.1 315.7)"/><ellipse cx="217.6" cy="326.7" rx="4" ry="2" fill="#e6e0cf" transform="rotate(77 217.6 326.7)"/><ellipse cx="246.7" cy="408.6" rx="4" ry="2" fill="#e6e0cf" transform="rotate(85 246.7 408.6)"/><ellipse cx="193.7" cy="387.1" rx="4" ry="2" fill="#e6e0cf" transform="rotate(49 193.7 387.1)"/><ellipse cx="268.9" cy="407.8" rx="4" ry="2" fill="#e6e0cf" transform="rotate(67 268.9 407.8)"/><ellipse cx="223.0" cy="410.0" rx="4" ry="2" fill="#e6e0cf" transform="rotate(165 223.0 410.0)"/><ellipse cx="190.6" cy="342.9" rx="4" ry="2" fill="#e6e0cf" transform="rotate(93 190.6 342.9)"/><ellipse cx="242.3" cy="309.2" rx="4" ry="2" fill="#e6e0cf" transform="rotate(68 242.3 309.2)"/><ellipse cx="241.7" cy="419.7" rx="4" ry="2" fill="#e6e0cf" transform="rotate(136 241.7 419.7)"/><ellipse cx="287.9" cy="355.8" rx="4" ry="2" fill="#e6e0cf" transform="rotate(140 287.9 355.8)"/><circle cx="255.3" cy="369.2" r="18.2" fill="#8a5a3b"/><circle cx="227.8" cy="371.9" r="18.2" fill="#e2503c"/><circle cx="236.0" cy="349.2" r="18.2" fill="#e87b7b"/><circle cx="402.7343401852995" cy="369.08022299036384" r="70" fill="#000" opacity="0.1"/><circle cx="402.7343401852995" cy="363.08022299036384" r="70" fill="#2e3230" stroke="#1f2321" stroke-width="2"/><circle cx="402.7343401852995" cy="363.08022299036384" r="60.199999999999996" fill="#f5f2e8"/><ellipse cx="424.9" cy="403.3" rx="4" ry="2" fill="#e6e0cf" transform="rotate(30 424.9 403.3)"/><ellipse cx="453.7" cy="368.8" rx="4" ry="2" fill="#e6e0cf" transform="rotate(12 453.7 368.8)"/><ellipse cx="456.3" cy="372.7" rx="4" ry="2" fill="#e6e0cf" transform="rotate(71 456.3 372.7)"/><ellipse cx="386.4" cy="314.6" rx="4" ry="2" fill="#e6e0cf" transform="rotate(5 386.4 314.6)"/><ellipse cx="359.1" cy="359.7" rx="4" ry="2" fill="#e6e0cf" transform="rotate(48 359.1 359.7)"/><ellipse cx="430.1" cy="316.8" rx="4" ry="2" fill="#e6e0cf" transform="rotate(95 430.1 316.8)"/><ellipse cx="346.5" cy="373.0" rx="4" ry="2" fill="#e6e0cf" transform="rotate(131 346.5 373.0)"/><ellipse cx="412.6" cy="317.8" rx="4" ry="2" fill="#e6e0cf" transform="rotate(57 412.6 317.8)"/><ellipse cx="369.7" cy="325.4" rx="4" ry="2" fill="#e6e0cf" transform="rotate(98 369.7 325.4)"/><ellipse cx="395.1" cy="419.8" rx="4" ry="2" fill="#e6e0cf" transform="rotate(55 395.1 419.8)"/><circle cx="418.0" cy="364.9" r="18.2" fill="#8a5a3b"/><circle cx="393.8" cy="375.6" r="18.2" fill="#e2503c"/><circle cx="399.4" cy="348.0" r="18.2" fill="#e87b7b"/><circle cx="560.8504680283368" cy="362.92010397464037" r="70" fill="#000" opacity="0.1"/><circle cx="560.8504680283368" cy="356.92010397464037" r="70" fill="#2e3230" stroke="#1f2321" stroke-width="2"/><circle cx="560.8504680283368" cy="356.92010397464037" r="60.199999999999996" fill="#f5f2e8"/><ellipse cx="517.2" cy="363.8" rx="4" ry="2" fill="#e6e0cf" transform="rotate(124 517.2 363.8)"/><ellipse cx="554.8" cy="412.7" rx="4" ry="2" fill="#e6e0cf" transform="rotate(171 554.8 412.7)"/><ellipse cx="589.7" cy="321.9" rx="4" ry="2" fill="#e6e0cf" transform="rotate(35 589.7 321.9)"/><ellipse cx="507.1" cy="342.4" rx="4" ry="2" fill="#e6e0cf" transform="rotate(68 507.1 342.4)"/><ellipse cx="538.5" cy="314.3" rx="4" ry="2" fill="#e6e0cf" transform="rotate(5 538.5 314.3)"/><ellipse cx="608.1" cy="388.7" rx="4" ry="2" fill="#e6e0cf" transform="rotate(61 608.1 388.7)"/><ellipse cx="604.8" cy="324.1" rx="4" ry="2" fill="#e6e0cf" transform="rotate(180 604.8 324.1)"/><ellipse cx="569.5" cy="404.7" rx="4" ry="2" fill="#e6e0cf" transform="rotate(31 569.5 404.7)"/><ellipse cx="589.3" cy="316.8" rx="4" ry="2" fill="#e6e0cf" transform="rotate(138 589.3 316.8)"/><ellipse cx="504.3" cy="364.6" rx="4" ry="2" fill="#e6e0cf" transform="rotate(83 504.3 364.6)"/><circle cx="575.6" cy="361.2" r="18.2" fill="#8a5a3b"/><circle cx="551.7" cy="369.3" r="18.2" fill="#e2503c"/><circle cx="554.7" cy="342.8" r="18.2" fill="#e87b7b"/></svg>