<svg xmlns="http://www.w3.org/2000/svg" viewBox="0 0 800 600"><defs><radialGradient id="bg-kaliforniya-ebi" cx="50%" cy="35%" r="80%"><stop offset="0%" stop-color="#ffffff"/><stop offset="100%" stop-color="#efeff2"/></radialGradient></defs><rect width="800" height="600" fill="url(#bg-kaliforniya-ebi)"/><circle cx="236.39577915333211" cy="206.87685038894415" r="70" fill="#000" opacity="0.1"/><circle cx="236.39577915333211" cy="200.87685038894415" r="70" fill="#f5f2e8" stroke="#e0d9c2" stroke-width="2"/><circle cx="236.39577915333211" cy="200.87685038894415" r="60.199999999999996" fill="#f5f2e8"/><ellipse cx="286.9" cy="227.9" rx="4" ry="2" fill="#e6e0cf" transform="rotate(147 286.9 227.9)"/><ellipse cx="184.4" cy="193.2" rx="4" ry="2" fill="#e6e0cf" transform="rotate(153 184.4 193.2)"/><ellipse cx="224.5" cy="248.6" rx="4" ry="2" fill="#e6e0cf" transform="rotate(85 224.5 248.6)"/><ellipse cx="253.9" cy="243.5" rx="4" ry="2" fill="#e6e0cf" transform="rotate(56 253.9 243.5)"/><ellipse cx="198.4" cy="169.1" rx="4" ry="2" fill="#e6e0cf" transform="rotate(93 198.4 169.1)"/><ellipse cx="216.7" cy="251.9" rx="4" ry="2" fill="#e6e0cf" transform="rotate(29 216.7 251.9)"/><ellipse cx="188.8" cy="182.8" rx="4" ry="2" fill="#e6e0cf" transform="rotate(103 188.8 182.8)"/><ellipse cx="234.3" cy="155.6" rx="4" ry="2" fill="#e6e0cf" transform="rotate(133 234.3 155.6)"/><ellipse cx="279.1" cy="217.9" rx="4" ry="2" fill="#e6e0cf" transform="rotate(9 279.1 217.9)"/><ellipse cx="227.6" cy="153.9" rx="4" ry="2" fill="#e6e0cf" transform="rotate(147 227.6 153.9)"/><circle cx="251.8" cy="201.2" r="18.2" fill="#f2a48e"/><circle cx="224.1" cy="210.2" r="18.2" fill="#7fb069"/><circle cx="234.1" cy="185.7" r="18.2" fill="#f2ecd8"/><circle cx="396.74258350394666" cy="204.95934633538127" r="70" fill="#000" opacity="0.1"/><circle cx="396.74258350394666" cy="198.95934633538127" r="70" fill="#f5f2e8" stroke="#e0d9c2" stroke-width="2"/><circle cx="396.74258350394666" cy="198.95934633538127" r="60.199999999999996" fill="#f5f2e8"/><ellipse cx="395.3" cy="152.5" rx="4" ry="2" fill="#e6e0cf" transform="rotate(172 395.3 152.5)"/><ellipse cx="390.6" cy="143.8" rx="4" ry="2" fill="#e6e0cf" transform="rotate(161 390.6 143.8)"/><ellipse cx="433.0" cy="239.9" rx="4" ry="2" fill="#e6e0cf" transform="rotate(37 433.0 239.9)"/><ellipse cx="360.9" cy="170.4" rx="4" ry="2" fill="#e6e0cf" transform="rotate(154 360.9 170.4)"/><ellipse cx="361.2" cy="228.4" rx="4" ry="2" fill="#e6e0cf" transform="rotate(149 361.2 228.4)"/><ellipse cx="356.2" cy="165.8" rx="4" ry="2" fill="#e6e0cf" transform="rotate(64 356.2 165.8)"/><ellipse cx="358.3" cy="232.3" rx="4" ry="2" fill="#e6e0cf" transform="rotate(30 358.3 232.3)"/><ellipse cx="355.6" cy="219.9" rx="4" ry="2" fill="#e6e0cf" transform="rotate(143 355.6 219.9)"/><ellipse cx="389.1" cy="255.5" rx="4" ry="2" fill="#e6e0cf" transform="rotate(101 389.1 255.5)"/><ellipse cx="353.1" cy="191.8" rx="4" ry="2" fill="#e6e0cf" transform="rotate(95 353.1 191.8)"/><circle cx="410.7" cy="205.5" r="18.2" fill="#f2a48e"/><circle cx="385.8" cy="209.8" r="18.2" fill="#7fb069"/><circle cx="389.8" cy="185.2" r="18.2" fill="#f2ecd8"/><circle cx="558.648073611781" cy="208.1850402224809" r="70" fill="#000" opacity="0.1"/><circle cx="558.648073611781" cy="202.1850402224809" r="70" fill="#f5f2e8" stroke="#e0d9c2" stroke-width="2"/><circle cx="558.648073611781" cy="202.1850402224809" r="60.199999999999996" fill="#f5f2e8"/><ellipse cx="536.9" cy="250.2" rx="4" ry="2" fill="#e6e0cf" transform="rotate(46 536.9 250.2)"/><ellipse cx="513.2" cy="228.4" rx="4" ry="2" fill="#e6e0cf" transform="rotate(8 513.2 228.4)"/><ellipse cx="608.5" cy="206.0" rx="4" ry="2" fill="#e6e0cf" transform="rotate(7 608.5 206.0)"/><ellipse cx="605.3" cy="235.1" rx="4" ry="2" fill="#e6e0cf" transform="rotate(169 605.3 235.1)"/><ellipse cx="527.7" cy="164.2" rx="4" ry="2" fill="#e6e0cf" transform="rotate(39 527.7 164.2)"/><ellipse cx="551.8" cy="253.2" rx="4" ry="2" fill="#e6e0cf" transform="rotate(6 551.8 253.2)"/><ellipse cx="610.3" cy="218.4" rx="4" ry="2" fill="#e6e0cf" transform="rotate(48 610.3 218.4)"/><ellipse cx="613.9" cy="214.5" rx="4" ry="2" fill="#e6e0cf" transform="rotate(176 613.9 214.5)"/><ellipse cx="577.6" cy="152.4" rx="4" ry="2" fill="#e6e0cf" transform="rotate(60 577.6 152.4)"/><ellipse cx="513.6" cy="202.7" rx="4" ry="2" fill="#e6e0cf" transform="rotate(176 513.6 202.7)"/><circle cx="573.8" cy="205.2" r="18.2" fill="#f2a48e"/><circle cx="547.5" cy="212.8" r="18.2" fill="#7fb069"/><circle cx="552.3" cy="188.1" r="18.2" fill="#f2ecd8"/><circle cx="241.13434708863497" cy="366.29359348863363" r="70" fill="#000" opacity="0.1"/><circle cx="241.13434708863497" cy="360.29359348863363" r="70" fill="#f5f2e8" stroke="#e0d9c2" stroke-width="2"/><circle cx="241.13434708863497" cy="360.29359348863363" r="60.199999999999996" fill="#f5f2e8"/><ellipse cx="285.9" cy="355.8" rx="4" ry="2" fill="#e6e0cf" transform="rotate(85 285.9 355.8)"/><ellipse cx="193.4" cy="343.9" rx="4" ry="2" fill="#e6e0cf" transform="rotate(81 193.4 343.9)"/><ellipse cx="266.5" cy="404.7" rx="4" ry="2" fill="#e6e0cf" transform="rotate(68 266.5 404.7)"/><ellipse cx="257.7" cy="318.6" rx="4" ry="2" fill="#e6e0cf" transform="rotate(130 257.7 318.6)"/><ellipse cx="281.6" cy="400.6" rx="4" ry="2" fill="#e6e0cf" transform="rotate(18 281.6 400.6)"/><ellipse cx="252.9" cy="304.7" rx="4" ry="2" fill="#e6e0cf" transform="rotate(41 252.9 304.7)"/><ellipse cx="273.2" cy="393.2" rx="4" ry="2" fill="#e6e0cf" transform="rotate(136 273.2 393.2)"/><ellipse cx="253.6" cy="310.5" rx="4" ry="2" fill="#e6e0cf" transform="rotate(118 253.6 310.5)"/><ellipse cx="188.2" cy="373.3" rx="4" ry="2" fill="#e6e0cf" transform="rotate(28 188.2 373.3)"/><ellipse cx="204.1" cy="334.1" rx="4" ry="2" fill="#e6e0cf" transform="rotate(73 204.1 334.1)"/><circle cx="255.1" cy="366.9" r="18.2" fill="#f2a48e"/><circle cx="228.3" cy="368.8" r="18.2" fill="#7fb069"/><circle cx="238.2" cy="345.2" r="18.2" fill="#f2ecd8"/><circle cx="403.1156177856028" cy="365.3616623803973" r="70" fill="#000" opacity="0.1"/><circle cx="403.1156177856028" cy="359.3616623803973" r="70" fill="#f5f2e8" stroke="#e0d9c2" stroke-width="2"/><circle cx="403.1156177856028" cy="359.3616623803973" r="60.199999999999996" fill="#f5f2e8"/><ellipse cx="359.7" cy="343.5" rx="4" ry="2" fill="#e6e0cf" transform="rotate(155 359.7 343.5)"/><ellipse cx="355.3" cy="387.0" rx="4" ry="2" fill="#e6e0cf" transform="rotate(158 355.3 387.0)"/><ellipse cx="419.5" cy="305.7" rx="4" ry="2" fill="#e6e0cf" transform="rotate(76 419.5 305.7)"/><ellipse cx="357.8" cy="362.6" rx="4" ry="2" fill="#e6e0cf" transform="rotate(150 357.8 362.6)"/><ellipse cx="405.5" cy="413.6" rx="4" ry="2" fill="#e6e0cf" transform="rotate(154 405.5 413.6)"/><ellipse cx="361.1" cy="338.1" rx="4" ry="2" fill="#e6e0cf" transform="rotate(41 361.1 338.1)"/><ellipse cx="376.6" cy="320.6" rx="4" ry="2" fill="#e6e0cf" transform="rotate(16 376.6 320.6)"/><ellipse cx="443.9" cy="377.2" rx="4" ry="2" fill="#e6e0cf" transform="rotate(131 443.9 377.2)"/><ellipse cx="437.0" cy="393.8" rx="4" ry="2" fill="#e6e0cf" transform="rotate(31 437.0 393.8)"/><ellipse cx="402.1" cy="411.1" rx="4" ry="2" fill="#e6e0cf" transform="rotate(148 402.1 411.1)"/><circle cx="418.4" cy="361.4" r="18.2" fill="#f2a48e"/><circle cx="392.4" cy="370.4" r="18.2" fill="#7fb069"/><circle cx="400.6" cy="344.2" r="18.2" fill="#f2ecd8"/><circle cx="560.9388631712645" cy="364.82001531124115" r="70" fill="#000" opacity="0.1"/><circle cx="560.9388631712645" cy="358.82001531124115" r="70" fill="#f5f2e8" stroke="#e0d9c2" stroke-width="2"/><circle cx="560.9388631712645" cy="358.82001531124115" r="60.199999999999996" fill="#f5f2e8"/><ellipse cx="609.5" cy="384.2" rx="4" ry="2" fill="#e6e0cf" transform="rotate(64 609.5 384.2)"/><ellipse cx="580.8" cy="306.3" rx="4" ry="2" fill="#e6e0cf" transform="rotate(42 580.8 306.3)"/><ellipse cx="610.9" cy="347.7" rx="4" ry="2" fill="#e6e0cf" transform="rotate(17 610.9 347.7)"/><ellipse cx="588.4" cy="323.4" rx="4" ry="2" fill="#e6e0cf" transform="rotate(162 588.4 323.4)"/><ellipse cx="603.2" cy="389.7" rx="4" ry="2" fill="#e6e0cf" transform="rotate(104 603.2 389.7)"/><ellipse cx="550.1" cy="316.3" rx="4" ry="2" fill="#e6e0cf" transform="rotate(42 550.1 316.3)"/><ellipse cx="596.2" cy="314.2" rx="4" ry="2" fill="#e6e0cf" transform="rotate(134 596.2 314.2)"/><ellipse cx="508.8" cy="365.7" rx="4" ry="2" fill="#e6e0cf" transform="rotate(117 508.8 365.7)"/><ellipse cx="542.6" cy="406.8" rx="4" ry="2" fill="#e6e0cf" transform="rotate(38 542.6 406.8)"/><ellipse cx="532.2" cy="321.0" rx="4" ry="2" fill="#e6e0cf" transform="rotate(74 532.2 321.0)"/><circle cx="575.8" cy="362.8" r="18.2" fill="#f2a48e"/><circle cx="548.3" cy="367.6" r="18.2" fill="#7fb069"/><circle cx="558.7" cy="343.6" r="18.2" fill="#f2ecd8"/></svg>