<svg xmlns="http://www.w3.org/2000/svg" viewBox="0 0 800 600"><defs><radialGradient id="bg-kaliforniya-s-lososem" cx="50%" cy="35%" r="80%"><stop offset="0%" stop-color="#ffffff"/><stop offset="100%" stop-color="#efeff2"/></radialGradient></defs><rect width="800" height="600" fill="url(#bg-kaliforniya-s-lososem)"/><circle cx="241.3331893198192" cy="204.1953055281192" r="70" fill="#000" opacity="0.1"/><circle cx="241.3331893198192" cy="198.1953055281192" r="70" fill="#2e3230" stroke="#1f2321" stroke-width="2"/><circle cx="241.3331893198192" cy="198.1953055281192" r="60.199999999999996" fill="#f5f2e8"/><ellipse cx="213.3" cy="160.8" rx="4" ry="2" fill="#e6e0cf" transform="rotate(5 213.3 160.8)"/><ellipse cx="208.5" cy="233.6" rx="4" ry="2" fill="#e6e0cf" transform="rotate(129 208.5 233.6)"/><ellipse cx="276.5" cy="170.4" rx="4" ry="2" fill="#e6e0cf" transform="rotate(44 276.5 170.4)"/><ellipse cx="256.7" cy="156.2" rx="4" ry="2" fill="#e6e0cf" transform="rotate(50 256.7 156.2)"/><ellipse cx="270.1" cy="151.1" rx="4" ry="2" fill="#e6e0cf" transform="rotate(25 270.1 151.1)"/><ellipse cx="197.1" cy="207.2" rx="4" ry="2" fill="#e6e0cf" transform="rotate(165 197.1 207.2)"/><ellipse cx="291.3" cy="226.3" rx="4" ry="2" fill="#e6e0cf" transform="rotate(82 291.3 226.3)"/><ellipse cx="232.4" cy="155.0" rx="4" ry="2" fill="#e6e0cf" transform="rotate(4 232.4 155.0)"/><ellipse cx="283.5" cy="213.2" rx="4" ry="2" fill="#e6e0cf" transform="rotate(5 283.5 213.2)"/><ellipse cx="209.2" cy="159.4" rx="4" ry="2" fill="#e6e0cf" transform="rotate(142 209.2 159.4)"/><circle cx="256.3" cy="201.9" r="18.2" fill="#ef8354"/><circle cx="229.1" cy="207.6" r="18.2" fill="#7fb069"/><circle cx="235.0" cy="184.2" r="18.2" fill="#f2ecd8"/><circle cx="403.31471239216626" cy="208.55237617716193" r="70" fill="#000" opacity="0.1"/><circle cx="403.31471239216626" cy="202.55237617716193" r="70" fill="#2e3230" stroke="#1f2321" stroke-width="2"/><circle cx="403.31471239216626" cy="202.55237617716193" r="60.199999999999996" fill="#f5f2e8"/><ellipse cx="389.2" cy="156.0" rx="4" ry="2" fill="#e6e0cf" transform="rotate(134 389.2 156.0)"/><ellipse cx="425.1" cy="155.0" rx="4" ry="2" fill="#e6e0cf" transform="rotate(42 425.1 155.0)"/><ellipse cx="443.9" cy="235.0" rx="4" ry="2" fill="#e6e0cf" transform="rotate(67 443.9 235.0)"/><ellipse cx="360.1" cy="189.7" rx="4" ry="2" fill="#e6e0cf" transform="rotate(62 360.1 189.7)"/><ellipse cx="367.3" cy="240.3" rx="4" ry="2" fill="#e6e0cf" transform="rotate(25 367.3 240.3)"/><ellipse cx="370.0" cy="245.1" rx="4" ry="2" fill="#e6e0cf" transform="rotate(164 370.0 245.1)"/><ellipse cx="401.0" cy="257.0" rx="4" ry="2" fill="#e6e0cf" transform="rotate(50 401.0 257.0)"/><ellipse cx="351.2" cy="184.9" rx="4" ry="2" fill="#e6e0cf" transform="rotate(93 351.2 184.9)"/><ellipse cx="405.5" cy="249.0" rx="4" ry="2" fill="#e6e0cf" transform="rotate(55 405.5 249.0)"/><ellipse cx="457.5" cy="204.1" rx="4" ry="2" fill="#e6e0cf" transform="rotate(154 457.5 204.1)"/><circle cx="417.9" cy="207.4" r="18.2" fill="#ef8354"/><circle cx="390.7" cy="211.4" r="18.2" fill="#7fb069"/><circle cx="402.5" cy="187.2" r="18.2" fill="#f2ecd8"/><circle cx="564.7754937764257" cy="209.08763691037893" r="70" fill="#000" opacity="0.1"/><circle cx="564.7754937764257" cy="203.08763691037893" r="70" fill="#2e3230" stroke="#1f2321" stroke-width="2"/><circle cx="564.7754937764257" cy="203.08763691037893" r="60.199999999999996" fill="#f5f2e8"/><ellipse cx="596.7" cy="159.7" rx="4" ry="2" fill="#e6e0cf" transform="rotate(20 596.7 159.7)"/><ellipse cx="591.1" cy="243.0" rx="4" ry="2" fill="#e6e0cf" transform="rotate(119 591.1 243.0)"/><ellipse cx="515.5" cy="225.0" rx="4" ry="2" fill="#e6e0cf" transform="rotate(21 515.5 225.0)"/><ellipse cx="609.5" cy="216.8" rx="4" ry="2" fill="#e6e0cf" transform="rotate(74 609.5 216.8)"/><ellipse cx="617.0" cy="198.3" rx="4" ry="2" fill="#e6e0cf" transform="rotate(25 617.0 198.3)"/><ellipse cx="547.0" cy="251.7" rx="4" ry="2" fill="#e6e0cf" transform="rotate(61 547.0 251.7)"/><ellipse cx="526.7" cy="229.7" rx="4" ry="2" fill="#e6e0cf" transform="rotate(152 526.7 229.7)"/><ellipse cx="600.2" cy="165.6" rx="4" ry="2" fill="#e6e0cf" transform="rotate(5 600.2 165.6)"/><ellipse cx="557.8" cy="159.7" rx="4" ry="2" fill="#e6e0cf" transform="rotate(165 557.8 159.7)"/><ellipse cx="607.8" cy="210.3" rx="4" ry="2" fill="#e6e0cf" transform="rotate(15 607.8 210.3)"/><circle cx="578.6" cy="209.8" r="18.2" fill="#ef8354"/><circle cx="553.8" cy="213.9" r="18.2" fill="#7fb069"/><circle cx="559.7" cy="188.5" r="18.2" fill="#f2ecd8"/><circle cx="236.75203604251146" cy="370.46000429056585" r="70" fill="#000" opacity="0.1"/><circle cx="236.75203604251146" cy="364.46000429056585" r="70" fill="#2e3230" stroke="#1f2321" stroke-width="2"/><circle cx="236.75203604251146" cy="364.46000429056585" r="60.199999999999996" fill="#f5f2e8"/><ellipse cx="219.4" cy="418.5" rx="4" ry="2" fill="#e6e0cf" transform="rotate(147 219.4 418.5)"/><ellipse cx="219.1" cy="405.4" rx="4" ry="2" fill="#e6e0cf" transform="rotate(51 219.1 405.4)"/><ellipse cx="288.7" cy="386.1" rx="4" ry="2" fill="#e6e0cf" transform="rotate(144 288.7 386.1)"/><ellipse cx="233.3" cy="412.2" rx="4" ry="2" fill="#e6e0cf" transform="rotate(145 233.3 412.2)"/><ellipse cx="244.8" cy="410.4" rx="4" ry="2" fill="#e6e0cf" transform="rotate(55 244.8 410.4)"/><ellipse cx="284.8" cy="348.1" rx="4" ry="2" fill="#e6e0cf" transform="rotate(71 284.8 348.1)"/><ellipse cx="185.7" cy="368.9" rx="4" ry="2" fill="#e6e0cf" transform="rotate(144 185.7 368.9)"/><ellipse cx="259.5" cy="414.0" rx="4" ry="2" fill="#e6e0cf" transform="rotate(15 259.5 414.0)"/><ellipse cx="281.5" cy="347.6" rx="4" ry="2" fill="#e6e0cf" transform="rotate(164 281.5 347.6)"/><ellipse cx="182.8" cy="381.4" rx="4" ry="2" fill="#e6e0cf" transform="rotate(35 182.8 381.4)"/><circle cx="251.9" cy="367.1" r="18.2" fill="#ef8354"/><circle cx="224.8" cy="374.2" r="18.2" fill="#7fb069"/><circle cx="230.1" cy="350.6" r="18.2" fill="#f2ecd8"/><circle cx="400.93732729926705" cy="367.02643677033484" r="70" fill="#000" opacity="0.1"/><circle cx="400.93732729926705" cy="361.02643677033484" r="70" fill="#2e3230" stroke="#1f2321" stroke-width="2"/><circle cx="400.93732729926705" cy="361.02643677033484" r="60.199999999999996" fill="#f5f2e8"/><ellipse cx="432.7" cy="327.7" rx="4" ry="2" fill="#e6e0cf" transform="rotate(10 432.7 327.7)"/><ellipse cx="372.2" cy="408.9" rx="4" ry="2" fill="#e6e0cf" transform="rotate(98 372.2 408.9)"/><ellipse cx="386.4" cy="409.9" rx="4" ry="2" fill="#e6e0cf" transform="rotate(58 386.4 409.9)"/><ellipse cx="371.8" cy="404.2" rx="4" ry="2" fill="#e6e0cf" transform="rotate(155 371.8 404.2)"/><ellipse cx="380.1" cy="317.8" rx="4" ry="2" fill="#e6e0cf" transform="rotate(145 380.1 317.8)"/><ellipse cx="384.4" cy="307.9" rx="4" ry="2" fill="#e6e0cf" transform="rotate(34 384.4 307.9)"/><ellipse cx="433.9" cy="399.1" rx="4" ry="2" fill="#e6e0cf" transform="rotate(42 433.9 399.1)"/><ellipse cx="440.8" cy="332.3" rx="4" ry="2" fill="#e6e0cf" transform="rotate(106 440.8 332.3)"/><ellipse cx="452.2" cy="335.9" rx="4" ry="2" fill="#e6e0cf" transform="rotate(34 452.2 335.9)"/><ellipse cx="368.2" cy="329.7" rx="4" ry="2" fill="#e6e0cf" transform="rotate(82 368.2 329.7)"/><circle cx="416.3" cy="362.2" r="18.2" fill="#ef8354"/><circle cx="388.9" cy="370.6" r="18.2" fill="#7fb069"/><circle cx="393.4" cy="347.6" r="18.2" fill="#f2ecd8"/><circle cx="559.8656409308314" cy="367.5138704366982" r="70" fill="#000" opacity="0.1"/><circle cx="559.8656409308314" cy="361.5138704366982" r="70" fill="#2e3230" stroke="#1f2321" stroke-width="2"/><circle cx="559.8656409308314" cy="361.5138704366982" r="60.199999999999996" fill="#f5f2e8"/><ellipse cx="513.5" cy="336.3" rx="4" ry="2" fill="#e6e0cf" transform="rotate(25 513.5 336.3)"/><ellipse cx="583.2" cy="320.2" rx="4" ry="2" fill="#e6e0cf" transform="rotate(146 583.2 320.2)"/><ellipse cx="506.6" cy="361.4" rx="4" ry="2" fill="#e6e0cf" transform="rotate(61 506.6 361.4)"/><ellipse cx="517.9" cy="383.9" rx="4" ry="2" fill="#e6e0cf" transform="rotate(104 517.9 383.9)"/><ellipse cx="531.9" cy="394.8" rx="4" ry="2" fill="#e6e0cf" transform="rotate(94 531.9 394.8)"/><ellipse cx="608.0" cy="335.2" rx="4" ry="2" fill="#e6e0cf" transform="rotate(139 608.0 335.2)"/><ellipse cx="590.6" cy="393.1" rx="4" ry="2" fill="#e6e0cf" transform="rotate(18 590.6 393.1)"/><ellipse cx="551.6" cy="307.7" rx="4" ry="2" fill="#e6e0cf" transform="rotate(26 551.6 307.7)"/><ellipse cx="602.7" cy="338.5" rx="4" ry="2" fill="#e6e0cf" transform="rotate(125 602.7 338.5)"/><ellipse cx="588.6" cy="410.9" rx="4" ry="2" fill="#e6e0cf" transform="rotate(26 588.6 410.9)"/><circle cx="575.1" cy="363.5" r="18.2" fill="#ef8354"/><circle cx="547.1" cy="370.1" r="18.2" fill="#7fb069"/><circle cx="555.0" cy="346.9" r="18.2" fill="#f2ecd8"/></svg>