<svg xmlns="http://www.w3.org/2000/svg" viewBox="0 0 800 600"><defs><radialGradient id="bg-kaliforniya-krab" cx="50%" cy="35%" r="80%"><stop offset="0%" stop-color="#26262c"/><stop offset="100%" stop-color="#141417"/></radialGradient></defs><rect width="800" height="600" fill="url(#bg-kaliforniya-krab)"/><circle cx="239.09385892376304" cy="209.2865888029337" r="70" fill="#000" opacity="0.35"/><circle cx="239.09385892376304" cy="203.2865888029337" r="70" fill="#2e3230"/><circle cx="239.09385892376304" cy="203.2865888029337" r="60.199999999999996" fill="#f5f2e8"/><ellipse cx="212.1" cy="242.8" rx="4" ry="2" fill="#e6e0cf" transform="rotate(31 212.1 242.8)"/><ellipse cx="188.7" cy="214.5" rx="4" ry="2" fill="#e6e0cf" transform="rotate(39 188.7 214.5)"/><ellipse cx="247.3" cy="253.5" rx="4" ry="2" fill="#e6e0cf" transform="rotate(123 247.3 253.5)"/><ellipse cx="286.6" cy="215.4" rx="4" ry="2" fill="#e6e0cf" transform="rotate(141 286.6 215.4)"/><ellipse cx="235.1" cy="152.1" rx="4" ry="2" fill="#e6e0cf" transform="rotate(91 235.1 152.1)"/><ellipse cx="264.2" cy="163.9" rx="4" ry="2" fill="#e6e0cf" transform="rotate(83 264.2 163.9)"/><ellipse cx="276.7" cy="178.1" rx="4" ry="2" fill="#e6e0cf" transform="rotate(147 276.7 178.1)"/><ellipse cx="246.3" cy="153.2" rx="4" ry="2" fill="#e6e0cf" transform="rotate(86 246.3 153.2)"/><ellipse cx="209.8" cy="170.9" rx="4" ry="2" fill="#e6e0cf" transform="rotate(175 209.8 170.9)"/><ellipse cx="278.7" cy="174.9" rx="4" ry="2" fill="#e6e0cf" transform="rotate(170 278.7 174.9)"/><circle cx="254.5" cy="203.6" r="18.2" fill="#e87b7b"/><circle cx="229.0" cy="214.9" r="18.2" fill="#7fb069"/><circle cx="237.2" cy="188.0" r="18.2" fill="#f2ecd8"/><circle cx="396.47062920592725" cy="209.20643154159188" r="70" fill="#000" opacity="0.35"/><circle cx="396.47062920592725" cy="203.20643154159188" r="70" fill="#2e3230"/><circle cx="396.47062920592725" cy="203.20643154159188" r="60.199999999999996" fill="#f5f2e8"/><ellipse cx="387.3" cy="256.8" rx="4" ry="2" fill="#e6e0cf" transform="rotate(74 387.3 256.8)"/><ellipse cx="378.8" cy="255.6" rx="4" ry="2" fill="#e6e0cf" transform="rotate(174 378.8 255.6)"/><ellipse cx="408.6" cy="159.4" rx="4" ry="2" fill="#e6e0cf" transform="rotate(155 408.6 159.4)"/><ellipse cx="419.0" cy="240.5" rx="4" ry="2" fill="#e6e0cf" transform="rotate(176 419.0 240.5)"/><ellipse cx="347.4" cy="203.7" rx="4" ry="2" fill="#e6e0cf" transform="rotate(16 347.4 203.7)"/><ellipse cx="374.2" cy="246.8" rx="4" ry="2" fill="#e6e0cf" transform="rotate(167 374.2 246.8)"/><ellipse cx="366.7" cy="161.2" rx="4" ry="2" fill="#e6e0cf" transform="rotate(13 366.7 161.2)"/><ellipse cx="452.2" cy="199.4" rx="4" ry="2" fill="#e6e0cf" transform="rotate(161 452.2 199.4)"/><ellipse cx="433.7" cy="236.1" rx="4" ry="2" fill="#e6e0cf" transform="rotate(174 433.7 236.1)"/><ellipse cx="403.1" cy="259.8" rx="4" ry="2" fill="#e6e0cf" transform="rotate(45 403.1 259.8)"/><circle cx="411.8" cy="204.2" r="18.2" fill="#e87b7b"/><circle cx="384.5" cy="212.9" r="18.2" fill="#7fb069"/><circle cx="389.8" cy="189.3" r="18.2" fill="#f2ecd8"/><circle cx="562.7633431721479" cy="205.69749281927943" r="70" fill="#000" opacity="0.35"/><circle cx="562.7633431721479" cy="199.69749281927943" r="70" fill="#2e3230"/><circle cx="562.7633431721479" cy="199.69749281927943" r="60.199999999999996" fill="#f5f2e8"/><ellipse cx="602.8" cy="223.7" rx="4" ry="2" fill="#e6e0cf" transform="rotate(172 602.8 223.7)"/><ellipse cx="578.5" cy="249.5" rx="4" ry="2" fill="#e6e0cf" transform="rotate(162 578.5 249.5)"/><ellipse cx="583.9" cy="156.9" rx="4" ry="2" fill="#e6e0cf" transform="rotate(68 583.9 156.9)"/><ellipse cx="619.8" cy="198.3" rx="4" ry="2" fill="#e6e0cf" transform="rotate(105 619.8 198.3)"/><ellipse cx="518.8" cy="194.0" rx="4" ry="2" fill="#e6e0cf" transform="rotate(5 518.8 194.0)"/><ellipse cx="614.6" cy="195.5" rx="4" ry="2" fill="#e6e0cf" transform="rotate(94 614.6 195.5)"/><ellipse cx="561.9" cy="152.9" rx="4" ry="2" fill="#e6e0cf" transform="rotate(90 561.9 152.9)"/><ellipse cx="519.1" cy="179.3" rx="4" ry="2" fill="#e6e0cf" transform="rotate(63 519.1 179.3)"/><ellipse cx="555.2" cy="251.5" rx="4" ry="2" fill="#e6e0cf" transform="rotate(130 555.2 251.5)"/><ellipse cx="557.5" cy="243.8" rx="4" ry="2" fill="#e6e0cf" transform="rotate(92 557.5 243.8)"/><circle cx="578.1" cy="201.0" r="18.2" fill="#e87b7b"/><circle cx="550.1" cy="208.4" r="18.2" fill="#7fb069"/><circle cx="555.9" cy="185.9" r="18.2" fill="#f2ecd8"/><circle cx="242.2566580902785" cy="369.23611828126013" r="70" fill="#000" opacity="0.35"/><circle cx="242.2566580902785" cy="363.23611828126013" r="70" fill="#2e3230"/><circle cx="242.2566580902785" cy="363.23611828126013" r="60.199999999999996" fill="#f5f2e8"/><ellipse cx="281.3" cy="337.0" rx="4" ry="2" fill="#e6e0cf" transform="rotate(94 281.3 337.0)"/><ellipse cx="285.8" cy="375.3" rx="4" ry="2" fill="#e6e0cf" transform="rotate(163 285.8 375.3)"/><ellipse cx="195.1" cy="351.7" rx="4" ry="2" fill="#e6e0cf" transform="rotate(61 195.1 351.7)"/><ellipse cx="220.5" cy="403.9" rx="4" ry="2" fill="#e6e0cf" transform="rotate(15 220.5 403.9)"/><ellipse cx="188.1" cy="381.9" rx="4" ry="2" fill="#e6e0cf" transform="rotate(37 188.1 381.9)"/><ellipse cx="195.1" cy="349.6" rx="4" ry="2" fill="#e6e0cf" transform="rotate(61 195.1 349.6)"/><ellipse cx="211.0" cy="321.2" rx="4" ry="2" fill="#e6e0cf" transform="rotate(21 211.0 321.2)"/><ellipse cx="217.7" cy="312.5" rx="4" ry="2" fill="#e6e0cf" transform="rotate(155 217.7 312.5)"/><ellipse cx="207.6" cy="332.6" rx="4" ry="2" fill="#e6e0cf" transform="rotate(171 207.6 332.6)"/><ellipse cx="216.5" cy="324.0" rx="4" ry="2" fill="#e6e0cf" transform="rotate(16 216.5 324.0)"/><circle cx="256.9" cy="368.1" r="18.2" fill="#e87b7b"/><circle cx="230.2" cy="372.8" r="18.2" fill="#7fb069"/><circle cx="237.8" cy="348.5" r="18.2" fill="#f2ecd8"/><circle cx="396.9344161786139" cy="363.13521260395646" r="70" fill="#000" opacity="0.35"/><circle cx="396.9344161786139" cy="357.13521260395646" r="70" fill="#2e3230"/><circle cx="396.9344161786139" cy="357.13521260395646" r="60.199999999999996" fill="#f5f2e8"/><ellipse cx="441.5" cy="335.4" rx="4" ry="2" fill="#e6e0cf" transform="rotate(110 441.5 335.4)"/><ellipse cx="437.0" cy="382.0" rx="4" ry="2" fill="#e6e0cf" transform="rotate(96 437.0 382.0)"/><ellipse cx="353.9" cy="391.4" rx="4" ry="2" fill="#e6e0cf" transform="rotate(26 353.9 391.4)"/><ellipse cx="411.9" cy="408.2" rx="4" ry="2" fill="#e6e0cf" transform="rotate(37 411.9 408.2)"/><ellipse cx="405.1" cy="306.0" rx="4" ry="2" fill="#e6e0cf" transform="rotate(69 405.1 306.0)"/><ellipse cx="439.4" cy="372.3" rx="4" ry="2" fill="#e6e0cf" transform="rotate(5 439.4 372.3)"/><ellipse cx="419.5" cy="319.0" rx="4" ry="2" fill="#e6e0cf" transform="rotate(53 419.5 319.0)"/><ellipse cx="441.1" cy="325.4" rx="4" ry="2" fill="#e6e0cf" transform="rotate(172 441.1 325.4)"/><ellipse cx="346.3" cy="373.6" rx="4" ry="2" fill="#e6e0cf" transform="rotate(150 346.3 373.6)"/><ellipse cx="443.1" cy="371.1" rx="4" ry="2" fill="#e6e0cf" transform="rotate(170 443.1 371.1)"/><circle cx="412.3" cy="358.4" r="18.2" fill="#e87b7b"/><circle cx="385.7" cy="367.6" r="18.2" fill="#7fb069"/><circle cx="392.4" cy="342.4" r="18.2" fill="#f2ecd8"/><circle cx="562.4268388524652" cy="366.9221782796085" r="70" fill="#000" opacity="0.35"/><circle cx="562.4268388524652" cy="360.9221782796085" r="70" fill="#2e3230"/><circle cx="562.4268388524652" cy="360.9221782796085" r="60.199999999999996" fill="#f5f2e8"/><ellipse cx="572.4" cy="406.7" rx="4" ry="2" fill="#e6e0cf" transform="rotate(23 572.4 406.7)"/><ellipse cx="581.5" cy="317.6" rx="4" ry="2" fill="#e6e0cf" transform="rotate(167 581.5 317.6)"/><ellipse cx="604.9" cy="383.9" rx="4" ry="2" fill="#e6e0cf" transform="rotate(76 604.9 383.9)"/><ellipse cx="529.5" cy="331.4" rx="4" ry="2" fill="#e6e0cf" transform="rotate(44 529.5 331.4)"/><ellipse cx="587.2" cy="322.4" rx="4" ry="2" fill="#e6e0cf" transform="rotate(17 587.2 322.4)"/><ellipse cx="574.1" cy="409.6" rx="4" ry="2" fill="#e6e0cf" transform="rotate(36 574.1 409.6)"/><ellipse cx="597.2" cy="316.7" rx="4" ry="2" fill="#e6e0cf" transform="rotate(12 597.2 316.7)"/><ellipse cx="599.0" cy="400.6" rx="4" ry="2" fill="#e6e0cf" transform="rotate(116 599.0 400.6)"/><ellipse cx="554.8" cy="412.6" rx="4" ry="2" fill="#e6e0cf" transform="rotate(130 554.8 412.6)"/><ellipse cx="548.7" cy="309.9" rx="4" ry="2" fill="#e6e0cf" transform="rotate(13 548.7 309.9)"/><circle cx="577.3" cy="364.8" r="18.2" fill="#e87b7b"/><circle cx="553.7" cy="373.6" r="18.2" fill="#7fb069"/><circle cx="556.7" cy="346.6" r="18.2" fill="#f2ecd8"/></svg>