<svg xmlns="http://www.w3.org/2000/svg" viewBox="0 0 800 600"><defs><radialGradient id="bg-kaliforniya-tempura" cx="50%" cy="35%" r="80%"><stop offset="0%" stop-color="#26262c"/><stop offset="100%" stop-color="#141417"/></radialGradient></defs><rect width="800" height="600" fill="url(#bg-kaliforniya-tempura)"/><circle cx="238.29938371106982" cy="206.38545870035887" r="70" fill="#000" opacity="0.35"/><circle cx="238.29938371106982" cy="200.38545870035887" r="70" fill="#d9a45b"/><circle cx="298.9" cy="222.1" r="3.9" fill="#b5854e"/><circle cx="268.2" cy="257.4" r="5.8" fill="#b5854e"/><circle cx="251.1" cy="263.5" r="5.1" fill="#b5854e"/><circle cx="207.6" cy="257.0" r="4.7" fill="#b5854e"/><circle cx="213.0" cy="259.6" r="4.2" fill="#b5854e"/><circle cx="195.6" cy="248.6" r="6.9" fill="#b5854e"/><circle cx="181.4" cy="170.3" r="3.0" fill="#b5854e"/><circle cx="188.5" cy="159.5" r="4.8" fill="#b5854e"/><circle cx="217.6" cy="139.4" r="3.2" fill="#b5854e"/><circle cx="222.8" cy="137.9" r="6.4" fill="#b5854e"/><circle cx="248.0" cy="136.7" r="3.8" fill="#b5854e"/><circle cx="297.0" cy="174.0" r="6.3" fill="#b5854e"/><circle cx="294.3" cy="168.6" r="4.2" fill="#b5854e"/><circle cx="300.7" cy="216.2" r="3.4" fill="#b5854e"/><circle cx="238.29938371106982" cy="200.38545870035887" r="50.4" fill="#f5f2e8"/><circle cx="253.0" cy="204.9" r="18.2" fill="#ef8354"/><circle cx="229.0" cy="212.7" r="18.2" fill="#e87b7b"/><circle cx="236.9" cy="185.1" r="18.2" fill="#7fb069"/><circle cx="398.01595098152757" cy="208.58932488039136" r="70" fill="#000" opacity="0.35"/><circle cx="398.01595098152757" cy="202.58932488039136" r="70" fill="#d9a45b"/><circle cx="458.7" cy="224.1" r="6.5" fill="#b5854e"/><circle cx="450.5" cy="240.0" r="5.7" fill="#b5854e"/><circle cx="402.9" cy="266.8" r="4.2" fill="#b5854e"/><circle cx="368.5" cy="259.8" r="3.1" fill="#b5854e"/><circle cx="346.1" cy="240.6" r="5.6" fill="#b5854e"/><circle cx="346.0" cy="240.6" r="3.6" fill="#b5854e"/><circle cx="333.9" cy="208.3" r="7.0" fill="#b5854e"/><circle cx="335.0" cy="189.5" r="6.7" fill="#b5854e"/><circle cx="367.4" cy="145.9" r="6.5" fill="#b5854e"/><circle cx="398.9" cy="138.2" r="4.3" fill="#b5854e"/><circle cx="439.0" cy="152.9" r="6.0" fill="#b5854e"/><circle cx="420.1" cy="142.1" r="6.4" fill="#b5854e"/><circle cx="448.2" cy="162.2" r="4.1" fill="#b5854e"/><circle cx="462.1" cy="195.8" r="3.6" fill="#b5854e"/><circle cx="398.01595098152757" cy="202.58932488039136" r="50.4" fill="#f5f2e8"/><circle cx="412.3" cy="208.3" r="18.2" fill="#ef8354"/><circle cx="387.7" cy="214.0" r="18.2" fill="#e87b7b"/><circle cx="393.8" cy="187.8" r="18.2" fill="#7fb069"/><circle cx="561.6308224499226" cy="202.09405427612364" r="70" fill="#000" opacity="0.35"/><circle cx="561.6308224499226" cy="196.09405427612364" r="70" fill="#d9a45b"/><circle cx="613.8" cy="233.9" r="5.2" fill="#b5854e"/><circle cx="573.3" cy="259.4" r="4.7" fill="#b5854e"/><circle cx="551.7" cy="259.7" r="5.9" fill="#b5854e"/><circle cx="538.4" cy="256.2" r="4.2" fill="#b5854e"/><circle cx="545.4" cy="258.4" r="5.9" fill="#b5854e"/><circle cx="497.3" cy="199.1" r="4.6" fill="#b5854e"/><circle cx="497.5" cy="190.7" r="3.4" fill="#b5854e"/><circle cx="505.0" cy="165.4" r="7.0" fill="#b5854e"/><circle cx="520.4" cy="146.7" r="5.7" fill="#b5854e"/><circle cx="556.5" cy="131.9" r="6.6" fill="#b5854e"/><circle cx="606.3" cy="149.7" r="5.9" fill="#b5854e"/><circle cx="581.9" cy="135.0" r="6.9" fill="#b5854e"/><circle cx="611.2" cy="154.9" r="4.2" fill="#b5854e"/><circle cx="616.8" cy="229.3" r="4.3" fill="#b5854e"/><circle cx="561.6308224499226" cy="196.09405427612364" r="50.4" fill="#f5f2e8"/><circle cx="575.6" cy="202.7" r="18.2" fill="#ef8354"/><circle cx="549.0" cy="205.0" r="18.2" fill="#e87b7b"/><circle cx="553.9" cy="182.8" r="18.2" fill="#7fb069"/><circle cx="242.42822716198862" cy="369.13081263937056" r="70" fill="#000" opacity="0.35"/><circle cx="242.42822716198862" cy="363.13081263937056" r="70" fill="#d9a45b"/><circle cx="294.9" cy="400.5" r="5.1" fill="#b5854e"/><circle cx="292.5" cy="403.6" r="3.7" fill="#b5854e"/><circle cx="245.4" cy="427.5" r="4.9" fill="#b5854e"/><circle cx="225.6" cy="425.3" r="6.6" fill="#b5854e"/><circle cx="227.3" cy="425.7" r="4.1" fill="#b5854e"/><circle cx="188.5" cy="398.4" r="6.1" fill="#b5854e"/><circle cx="180.7" cy="381.4" r="4.6" fill="#b5854e"/><circle cx="185.3" cy="333.3" r="4.4" fill="#b5854e"/><circle cx="226.1" cy="300.8" r="5.3" fill="#b5854e"/><circle cx="226.9" cy="300.6" r="3.4" fill="#b5854e"/><circle cx="232.2" cy="299.6" r="6.0" fill="#b5854e"/><circle cx="272.7" cy="306.3" r="5.8" fill="#b5854e"/><circle cx="306.7" cy="358.9" r="4.4" fill="#b5854e"/><circle cx="304.7" cy="379.6" r="6.6" fill="#b5854e"/><circle cx="242.42822716198862" cy="363.13081263937056" r="50.4" fill="#f5f2e8"/><circle cx="256.5" cy="369.3" r="18.2" fill="#ef8354"/><circle cx="229.9" cy="372.0" r="18.2" fill="#e87b7b"/><circle cx="241.8" cy="347.7" r="18.2" fill="#7fb069"/><circle cx="399.175520805642" cy="365.2741444930434" r="70" fill="#000" opacity="0.35"/><circle cx="399.175520805642" cy="359.2741444930434" r="70" fill="#d9a45b"/><circle cx="438.6" cy="410.2" r="5.4" fill="#b5854e"/><circle cx="418.8" cy="420.6" r="5.9" fill="#b5854e"/><circle cx="438.0" cy="410.7" r="3.2" fill="#b5854e"/><circle cx="382.8" cy="421.5" r="3.2" fill="#b5854e"/><circle cx="340.8" cy="386.5" r="3.6" fill="#b5854e"/><circle cx="336.2" cy="372.8" r="3.2" fill="#b5854e"/><circle cx="336.2" cy="345.9" r="3.5" fill="#b5854e"/><circle cx="352.3" cy="315.1" r="3.2" fill="#b5854e"/><circle cx="347.1" cy="321.3" r="6.5" fill="#b5854e"/><circle cx="412.0" cy="296.2" r="5.0" fill="#b5854e"/><circle cx="434.5" cy="305.4" r="6.2" fill="#b5854e"/><circle cx="420.9" cy="298.6" r="4.0" fill="#b5854e"/><circle cx="460.6" cy="339.8" r="3.4" fill="#b5854e"/><circle cx="462.8" cy="369.5" r="6.4" fill="#b5854e"/><circle cx="399.175520805642" cy="359.2741444930434" r="50.4" fill="#f5f2e8"/><circle cx="414.5" cy="360.5" r="18.2" fill="#ef8354"/><circle cx="388.5" cy="370.4" r="18.2" fill="#e87b7b"/><circle cx="392.6" cy="345.4" r="18.2" fill="#7fb069"/><circle cx="563.8953965175897" cy="367.08014653995633" r="70" fill="#000" opacity="0.35"/><circle cx="563.8953965175897" cy="361.08014653995633" r="70" fill="#d9a45b"/><circle cx="626.8" cy="374.8" r="6.8" fill="#b5854e"/><circle cx="609.2" cy="406.8" r="6.6" fill="#b5854e"/><circle cx="564.2" cy="425.5" r="6.6" fill="#b5854e"/><circle cx="539.0" cy="420.5" r="3.7" fill="#b5854e"/><circle cx="530.9" cy="416.4" r="5.3" fill="#b5854e"/><circle cx="502.8" cy="381.5" r="4.0" fill="#b5854e"/><circle cx="502.6" cy="341.2" r="6.4" fill="#b5854e"/><circle cx="516.3" cy="317.7" r="6.4" fill="#b5854e"/><circle cx="519.5" cy="314.5" r="4.0" fill="#b5854e"/><circle cx="535.6" cy="303.2" r="3.9" fill="#b5854e"/><circle cx="595.3" cy="304.8" r="5.5" fill="#b5854e"/><circle cx="583.1" cy="299.6" r="3.8" fill="#b5854e"/><circle cx="620.9" cy="331.1" r="6.6" fill="#b5854e"/><circle cx="622.3" cy="333.9" r="5.8" fill="#b5854e"/><circle cx="563.8953965175897" cy="361.08014653995633" r="50.4" fill="#f5f2e8"/><circle cx="579.1" cy="363.2" r="18.2" fill="#ef8354"/><circle cx="554.3" cy="373.1" r="18.2" fill="#e87b7b"/><circle cx="560.6" cy="346.0" r="18.2" fill="#7fb069"/></svg>