<svg xmlns="http://www.w3.org/2000/svg" viewBox="0 0 800 600"><defs><radialGradient id="bg-kani-spaysi" cx="50%" cy="35%" r="80%"><stop offset="0%" stop-color="#26262c"/><stop offset="100%" stop-color="#141417"/></radialGradient></defs><rect width="800" height="600" fill="url(#bg-kani-spaysi)"/><ellipse cx="400" cy="410" rx="150" ry="26" fill="#000" opacity="0.35"/><rect x="280" y="280" width="240" height="130" rx="40" fill="#23272a"/><circle cx="439.0" cy="255.9" r="16.0" fill="#e87b7b"/><circle cx="486.4" cy="262.9" r="17.7" fill="#e87b7b"/><circle cx="445.4" cy="271.2" r="17.7" fill="#e87b7b"/><circle cx="410.0" cy="271.6" r="18.6" fill="#e87b7b"/><circle cx="491.7" cy="254.5" r="16.9" fill="#e87b7b"/><circle cx="479.3" cy="263.0" r="15.7" fill="#e87b7b"/><circle cx="409.0" cy="261.4" r="17.0" fill="#e87b7b"/><circle cx="309.4" cy="266.8" r="17.7" fill="#e87b7b"/><circle cx="317.2" cy="261.5" r="18.3" fill="#e87b7b"/><circle cx="392.9" cy="278.9" r="18.7" fill="#e87b7b"/><circle cx="462.1" cy="278.3" r="12.9" fill="#e87b7b"/><circle cx="432.1" cy="259.0" r="10.7" fill="#e87b7b"/><circle cx="313.5" cy="256.0" r="13.9" fill="#e87b7b"/><circle cx="353.3" cy="278.9" r="17.9" fill="#e87b7b"/><circle cx="353.5" cy="263.5" r="12.4" fill="#e87b7b"/><circle cx="407.2" cy="268.7" r="10.4" fill="#e87b7b"/><circle cx="361.8" cy="257.7" r="13.9" fill="#e87b7b"/><circle cx="446.0" cy="269.2" r="12.0" fill="#e87b7b"/><circle cx="485.2" cy="267.4" r="12.3" fill="#e87b7b"/><circle cx="349.7" cy="267.2" r="15.1" fill="#e87b7b"/><circle cx="347.3" cy="278.1" r="13.9" fill="#e87b7b"/><circle cx="374.4" cy="266.5" r="11.9" fill="#e87b7b"/><circle cx="408.7" cy="257.0" r="10.4" fill="#e87b7b"/><circle cx="446.3" cy="254.5" r="16.7" fill="#e87b7b"/><rect x="280" y="280" width="240" height="130" rx="40" fill="none" stroke="#111" stroke-width="3"/></svg>