<svg xmlns="http://www.w3.org/2000/svg" viewBox="0 0 800 600"><defs><radialGradient id="bg-kappa-maki" cx="50%" cy="35%" r="80%"><stop offset="0%" stop-color="#ffffff"/><stop offset="100%" stop-color="#efeff2"/></radialGradient></defs><rect width="800" height="600" fill="url(#bg-kappa-maki)"/><circle cx="236.46448125131428" cy="203.5698764231056" r="70" fill="#000" opacity="0.1"/><circle cx="236.46448125131428" cy="197.5698764231056" r="70" fill="#f5f2e8" stroke="#e0d9c2" stroke-width="2"/><circle cx="236.46448125131428" cy="197.5698764231056" r="60.199999999999996" fill="#f5f2e8"/><ellipse cx="252.3" cy="146.3" rx="4" ry="2" fill="#e6e0cf" transform="rotate(45 252.3 146.3)"/><ellipse cx="247.2" cy="141.9" rx="4" ry="2" fill="#e6e0cf" transform="rotate(108 247.2 141.9)"/><ellipse cx="271.6" cy="240.2" rx="4" ry="2" fill="#e6e0cf" transform="rotate(152 271.6 240.2)"/><ellipse cx="196.5" cy="221.9" rx="4" ry="2" fill="#e6e0cf" transform="rotate(69 196.5 221.9)"/><ellipse cx="291.8" cy="205.6" rx="4" ry="2" fill="#e6e0cf" transform="rotate(17 291.8 205.6)"/><ellipse cx="250.8" cy="143.0" rx="4" ry="2" fill="#e6e0cf" transform="rotate(124 250.8 143.0)"/><ellipse cx="190.0" cy="185.2" rx="4" ry="2" fill="#e6e0cf" transform="rotate(141 190.0 185.2)"/><ellipse cx="245.6" cy="248.3" rx="4" ry="2" fill="#e6e0cf" transform="rotate(97 245.6 248.3)"/><ellipse cx="232.2" cy="140.9" rx="4" ry="2" fill="#e6e0cf" transform="rotate(37 232.2 140.9)"/><ellipse cx="185.8" cy="200.6" rx="4" ry="2" fill="#e6e0cf" transform="rotate(60 185.8 200.6)"/><circle cx="236.5" cy="197.6" r="28.0" fill="#7fb069"/><circle cx="403.4743053764105" cy="201.5957560352981" r="70" fill="#000" opacity="0.1"/><circle cx="403.4743053764105" cy="195.5957560352981" r="70" fill="#f5f2e8" stroke="#e0d9c2" stroke-width="2"/><circle cx="403.4743053764105" cy="195.5957560352981" r="60.199999999999996" fill="#f5f2e8"/><ellipse cx="414.4" cy="141.0" rx="4" ry="2" fill="#e6e0cf" transform="rotate(44 414.4 141.0)"/><ellipse cx="450.3" cy="210.2" rx="4" ry="2" fill="#e6e0cf" transform="rotate(65 450.3 210.2)"/><ellipse cx="417.9" cy="247.5" rx="4" ry="2" fill="#e6e0cf" transform="rotate(100 417.9 247.5)"/><ellipse cx="356.9" cy="185.7" rx="4" ry="2" fill="#e6e0cf" transform="rotate(84 356.9 185.7)"/><ellipse cx="398.1" cy="238.8" rx="4" ry="2" fill="#e6e0cf" transform="rotate(48 398.1 238.8)"/><ellipse cx="371.1" cy="152.1" rx="4" ry="2" fill="#e6e0cf" transform="rotate(2 371.1 152.1)"/><ellipse cx="457.8" cy="188.6" rx="4" ry="2" fill="#e6e0cf" transform="rotate(59 457.8 188.6)"/><ellipse cx="360.5" cy="188.4" rx="4" ry="2" fill="#e6e0cf" transform="rotate(37 360.5 188.4)"/><ellipse cx="357.2" cy="191.4" rx="4" ry="2" fill="#e6e0cf" transform="rotate(91 357.2 191.4)"/><ellipse cx="446.5" cy="179.4" rx="4" ry="2" fill="#e6e0cf" transform="rotate(73 446.5 179.4)"/><circle cx="403.5" cy="195.6" r="28.0" fill="#7fb069"/><circle cx="557.0633581224829" cy="209.46308960206807" r="70" fill="#000" opacity="0.1"/><circle cx="557.0633581224829" cy="203.46308960206807" r="70" fill="#f5f2e8" stroke="#e0d9c2" stroke-width="2"/><circle cx="557.0633581224829" cy="203.46308960206807" r="60.199999999999996" fill="#f5f2e8"/><ellipse cx="543.1" cy="155.2" rx="4" ry="2" fill="#e6e0cf" transform="rotate(168 543.1 155.2)"/><ellipse cx="538.6" cy="162.6" rx="4" ry="2" fill="#e6e0cf" transform="rotate(47 538.6 162.6)"/><ellipse cx="580.7" cy="249.1" rx="4" ry="2" fill="#e6e0cf" transform="rotate(36 580.7 249.1)"/><ellipse cx="602.9" cy="188.2" rx="4" ry="2" fill="#e6e0cf" transform="rotate(49 602.9 188.2)"/><ellipse cx="575.4" cy="244.5" rx="4" ry="2" fill="#e6e0cf" transform="rotate(170 575.4 244.5)"/><ellipse cx="604.3" cy="211.9" rx="4" ry="2" fill="#e6e0cf" transform="rotate(154 604.3 211.9)"/><ellipse cx="513.2" cy="183.2" rx="4" ry="2" fill="#e6e0cf" transform="rotate(1 513.2 183.2)"/><ellipse cx="565.0" cy="256.4" rx="4" ry="2" fill="#e6e0cf" transform="rotate(40 565.0 256.4)"/><ellipse cx="523.6" cy="163.9" rx="4" ry="2" fill="#e6e0cf" transform="rotate(72 523.6 163.9)"/><ellipse cx="575.7" cy="151.4" rx="4" ry="2" fill="#e6e0cf" transform="rotate(123 575.7 151.4)"/><circle cx="557.1" cy="203.5" r="28.0" fill="#7fb069"/><circle cx="240.44536146707833" cy="369.58673421293497" r="70" fill="#000" opacity="0.1"/><circle cx="240.44536146707833" cy="363.58673421293497" r="70" fill="#f5f2e8" stroke="#e0d9c2" stroke-width="2"/><circle cx="240.44536146707833" cy="363.58673421293497" r="60.199999999999996" fill="#f5f2e8"/><ellipse cx="253.4" cy="314.2" rx="4" ry="2" fill="#e6e0cf" transform="rotate(152 253.4 314.2)"/><ellipse cx="266.6" cy="407.4" rx="4" ry="2" fill="#e6e0cf" transform="rotate(46 266.6 407.4)"/><ellipse cx="265.5" cy="408.1" rx="4" ry="2" fill="#e6e0cf" transform="rotate(37 265.5 408.1)"/><ellipse cx="243.4" cy="408.9" rx="4" ry="2" fill="#e6e0cf" transform="rotate(96 243.4 408.9)"/><ellipse cx="287.0" cy="352.1" rx="4" ry="2" fill="#e6e0cf" transform="rotate(163 287.0 352.1)"/><ellipse cx="196.6" cy="361.7" rx="4" ry="2" fill="#e6e0cf" transform="rotate(125 196.6 361.7)"/><ellipse cx="264.4" cy="324.5" rx="4" ry="2" fill="#e6e0cf" transform="rotate(90 264.4 324.5)"/><ellipse cx="290.5" cy="337.9" rx="4" ry="2" fill="#e6e0cf" transform="rotate(15 290.5 337.9)"/><ellipse cx="236.8" cy="316.9" rx="4" ry="2" fill="#e6e0cf" transform="rotate(6 236.8 316.9)"/><ellipse cx="216.2" cy="315.5" rx="4" ry="2" fill="#e6e0cf" transform="rotate(155 216.2 315.5)"/><circle cx="240.4" cy="363.6" r="28.0" fill="#7fb069"/><circle cx="397.85064038448036" cy="367.4436744377017" r="70" fill="#000" opacity="0.1"/><circle cx="397.85064038448036" cy="361.4436744377017" r="70" fill="#f5f2e8" stroke="#e0d9c2" stroke-width="2"/><circle cx="397.85064038448036" cy="361.4436744377017" r="60.199999999999996" fill="#f5f2e8"/><ellipse cx="454.9" cy="363.3" rx="4" ry="2" fill="#e6e0cf" transform="rotate(17 454.9 363.3)"/><ellipse cx="391.0" cy="413.1" rx="4" ry="2" fill="#e6e0cf" transform="rotate(20 391.0 413.1)"/><ellipse cx="340.8" cy="367.7" rx="4" ry="2" fill="#e6e0cf" transform="rotate(157 340.8 367.7)"/><ellipse cx="433.1" cy="392.1" rx="4" ry="2" fill="#e6e0cf" transform="rotate(89 433.1 392.1)"/><ellipse cx="432.8" cy="326.1" rx="4" ry="2" fill="#e6e0cf" transform="rotate(153 432.8 326.1)"/><ellipse cx="441.0" cy="335.6" rx="4" ry="2" fill="#e6e0cf" transform="rotate(12 441.0 335.6)"/><ellipse cx="440.0" cy="374.9" rx="4" ry="2" fill="#e6e0cf" transform="rotate(23 440.0 374.9)"/><ellipse cx="442.4" cy="342.8" rx="4" ry="2" fill="#e6e0cf" transform="rotate(20 442.4 342.8)"/><ellipse cx="373.0" cy="321.1" rx="4" ry="2" fill="#e6e0cf" transform="rotate(97 373.0 321.1)"/><ellipse cx="343.6" cy="358.1" rx="4" ry="2" fill="#e6e0cf" transform="rotate(142 343.6 358.1)"/><circle cx="397.9" cy="361.4" r="28.0" fill="#7fb069"/><circle cx="558.0355516932905" cy="368.4093719329685" r="70" fill="#000" opacity="0.1"/><circle cx="558.0355516932905" cy="362.4093719329685" r="70" fill="#f5f2e8" stroke="#e0d9c2" stroke-width="2"/><circle cx="558.0355516932905" cy="362.4093719329685" r="60.199999999999996" fill="#f5f2e8"/><ellipse cx="607.3" cy="354.0" rx="4" ry="2" fill="#e6e0cf" transform="rotate(14 607.3 354.0)"/><ellipse cx="600.9" cy="335.3" rx="4" ry="2" fill="#e6e0cf" transform="rotate(149 600.9 335.3)"/><ellipse cx="525.9" cy="319.3" rx="4" ry="2" fill="#e6e0cf" transform="rotate(97 525.9 319.3)"/><ellipse cx="547.8" cy="317.2" rx="4" ry="2" fill="#e6e0cf" transform="rotate(49 547.8 317.2)"/><ellipse cx="610.3" cy="377.4" rx="4" ry="2" fill="#e6e0cf" transform="rotate(7 610.3 377.4)"/><ellipse cx="612.1" cy="368.8" rx="4" ry="2" fill="#e6e0cf" transform="rotate(64 612.1 368.8)"/><ellipse cx="505.7" cy="348.7" rx="4" ry="2" fill="#e6e0cf" transform="rotate(39 505.7 348.7)"/><ellipse cx="572.9" cy="407.4" rx="4" ry="2" fill="#e6e0cf" transform="rotate(57 572.9 407.4)"/><ellipse cx="577.9" cy="405.5" rx="4" ry="2" fill="#e6e0cf" transform="rotate(69 577.9 405.5)"/><ellipse cx="538.3" cy="319.6" rx="4" ry="2" fill="#e6e0cf" transform="rotate(43 538.3 319.6)"/><circle cx="558.0" cy="362.4" r="28.0" fill="#7fb069"/></svg>