<svg xmlns="http://www.w3.org/2000/svg" viewBox="0 0 800 600"><defs><radialGradient id="bg-katana-set" cx="50%" cy="35%" r="80%"><stop offset="0%" stop-color="#ffffff"/><stop offset="100%" stop-color="#efeff2"/></radialGradient></defs><rect width="800" height="600" fill="url(#bg-katana-set)"/><circle cx="183.89190269820392" cy="139.33504978194833" r="62.5" fill="#000" opacity="0.1"/><circle cx="183.89190269820392" cy="133.33504978194833" r="62.5" fill="#f5f2e8" stroke="#e0d9c2" stroke-width="2"/><circle cx="183.89190269820392" cy="133.33504978194833" r="53.75" fill="#f5f2e8"/><ellipse cx="150.5" cy="158.0" rx="4" ry="2" fill="#e6e0cf" transform="rotate(77 150.5 158.0)"/><ellipse cx="138.6" cy="130.3" rx="4" ry="2" fill="#e6e0cf" transform="rotate(75 138.6 130.3)"/><ellipse cx="230.4" cy="143.5" rx="4" ry="2" fill="#e6e0cf" transform="rotate(139 230.4 143.5)"/><ellipse cx="141.9" cy="119.3" rx="4" ry="2" fill="#e6e0cf" transform="rotate(84 141.9 119.3)"/><ellipse cx="157.6" cy="90.8" rx="4" ry="2" fill="#e6e0cf" transform="rotate(47 157.6 90.8)"/><ellipse cx="226.8" cy="119.4" rx="4" ry="2" fill="#e6e0cf" transform="rotate(54 226.8 119.4)"/><ellipse cx="219.2" cy="153.9" rx="4" ry="2" fill="#e6e0cf" transform="rotate(50 219.2 153.9)"/><ellipse cx="147.9" cy="149.3" rx="4" ry="2" fill="#e6e0cf" transform="rotate(126 147.9 149.3)"/><ellipse cx="230.2" cy="124.8" rx="4" ry="2" fill="#e6e0cf" transform="rotate(51 230.2 124.8)"/><ellipse cx="196.0" cy="93.8" rx="4" ry="2" fill="#e6e0cf" transform="rotate(39 196.0 93.8)"/><circle cx="196.5" cy="138.8" r="16.3" fill="#ef8354"/><circle cx="173.1" cy="141.9" r="16.3" fill="#8a5a3b"/><circle cx="179.2" cy="120.4" r="16.3" fill="#f2a48e"/><circle cx="330.5269654970616" cy="142.92570993863046" r="62.5" fill="#000" opacity="0.1"/><circle cx="330.5269654970616" cy="136.92570993863046" r="62.5" fill="#f5f2e8" stroke="#e0d9c2" stroke-width="2"/><circle cx="330.5269654970616" cy="136.92570993863046" r="53.75" fill="#f5f2e8"/><ellipse cx="369.9" cy="141.9" rx="4" ry="2" fill="#e6e0cf" transform="rotate(82 369.9 141.9)"/><ellipse cx="335.8" cy="95.9" rx="4" ry="2" fill="#e6e0cf" transform="rotate(164 335.8 95.9)"/><ellipse cx="311.1" cy="96.2" rx="4" ry="2" fill="#e6e0cf" transform="rotate(34 311.1 96.2)"/><ellipse cx="361.3" cy="99.4" rx="4" ry="2" fill="#e6e0cf" transform="rotate(172 361.3 99.4)"/><ellipse cx="316.7" cy="96.0" rx="4" ry="2" fill="#e6e0cf" transform="rotate(5 316.7 96.0)"/><ellipse cx="377.3" cy="140.5" rx="4" ry="2" fill="#e6e0cf" transform="rotate(167 377.3 140.5)"/><ellipse cx="314.5" cy="176.9" rx="4" ry="2" fill="#e6e0cf" transform="rotate(142 314.5 176.9)"/><ellipse cx="330.3" cy="89.2" rx="4" ry="2" fill="#e6e0cf" transform="rotate(97 330.3 89.2)"/><ellipse cx="324.6" cy="184.1" rx="4" ry="2" fill="#e6e0cf" transform="rotate(174 324.6 184.1)"/><ellipse cx="311.9" cy="102.7" rx="4" ry="2" fill="#e6e0cf" transform="rotate(122 311.9 102.7)"/><circle cx="343.6" cy="141.2" r="16.3" fill="#ef8354"/><circle cx="322.4" cy="148.0" r="16.3" fill="#8a5a3b"/><circle cx="326.1" cy="123.9" r="16.3" fill="#f2a48e"/><circle cx="469.2463891990483" cy="143.26247111149132" r="62.5" fill="#000" opacity="0.1"/><circle cx="469.2463891990483" cy="137.26247111149132" r="62.5" fill="#f5f2e8" stroke="#e0d9c2" stroke-width="2"/><circle cx="469.2463891990483" cy="137.26247111149132" r="53.75" fill="#f5f2e8"/><ellipse cx="511.9" cy="155.5" rx="4" ry="2" fill="#e6e0cf" transform="rotate(73 511.9 155.5)"/><ellipse cx="462.0" cy="90.5" rx="4" ry="2" fill="#e6e0cf" transform="rotate(5 462.0 90.5)"/><ellipse cx="505.2" cy="166.6" rx="4" ry="2" fill="#e6e0cf" transform="rotate(57 505.2 166.6)"/><ellipse cx="420.7" cy="137.5" rx="4" ry="2" fill="#e6e0cf" transform="rotate(174 420.7 137.5)"/><ellipse cx="432.1" cy="156.9" rx="4" ry="2" fill="#e6e0cf" transform="rotate(62 432.1 156.9)"/><ellipse cx="504.0" cy="156.1" rx="4" ry="2" fill="#e6e0cf" transform="rotate(160 504.0 156.1)"/><ellipse cx="426.6" cy="134.0" rx="4" ry="2" fill="#e6e0cf" transform="rotate(9 426.6 134.0)"/><ellipse cx="511.8" cy="157.3" rx="4" ry="2" fill="#e6e0cf" transform="rotate(119 511.8 157.3)"/><ellipse cx="454.9" cy="90.8" rx="4" ry="2" fill="#e6e0cf" transform="rotate(21 454.9 90.8)"/><ellipse cx="434.5" cy="102.5" rx="4" ry="2" fill="#e6e0cf" transform="rotate(129 434.5 102.5)"/><circle cx="482.0" cy="142.4" r="16.3" fill="#ef8354"/><circle cx="458.5" cy="145.8" r="16.3" fill="#8a5a3b"/><circle cx="464.2" cy="124.5" r="16.3" fill="#f2a48e"/><circle cx="619.5527181886137" cy="145.13002274930477" r="62.5" fill="#000" opacity="0.1"/><circle cx="619.5527181886137" cy="139.13002274930477" r="62.5" fill="#f5f2e8" stroke="#e0d9c2" stroke-width="2"/><circle cx="619.5527181886137" cy="139.13002274930477" r="53.75" fill="#f5f2e8"/><ellipse cx="568.8" cy="134.0" rx="4" ry="2" fill="#e6e0cf" transform="rotate(65 568.8 134.0)"/><ellipse cx="628.6" cy="97.2" rx="4" ry="2" fill="#e6e0cf" transform="rotate(30 628.6 97.2)"/><ellipse cx="587.6" cy="164.8" rx="4" ry="2" fill="#e6e0cf" transform="rotate(66 587.6 164.8)"/><ellipse cx="572.7" cy="135.4" rx="4" ry="2" fill="#e6e0cf" transform="rotate(52 572.7 135.4)"/><ellipse cx="580.9" cy="112.6" rx="4" ry="2" fill="#e6e0cf" transform="rotate(21 580.9 112.6)"/><ellipse cx="601.7" cy="174.6" rx="4" ry="2" fill="#e6e0cf" transform="rotate(114 601.7 174.6)"/><ellipse cx="603.6" cy="186.2" rx="4" ry="2" fill="#e6e0cf" transform="rotate(43 603.6 186.2)"/><ellipse cx="589.9" cy="175.2" rx="4" ry="2" fill="#e6e0cf" transform="rotate(145 589.9 175.2)"/><ellipse cx="575.8" cy="139.2" rx="4" ry="2" fill="#e6e0cf" transform="rotate(4 575.8 139.2)"/><ellipse cx="656.2" cy="119.0" rx="4" ry="2" fill="#e6e0cf" transform="rotate(50 656.2 119.0)"/><circle cx="633.3" cy="139.3" r="16.3" fill="#ef8354"/><circle cx="608.5" cy="147.3" r="16.3" fill="#8a5a3b"/><circle cx="613.8" cy="126.7" r="16.3" fill="#f2a48e"/><circle cx="187.2925015538931" cy="283.6486815549433" r="62.5" fill="#000" opacity="0.1"/><circle cx="187.2925015538931" cy="277.6486815549433" r="62.5" fill="#f5f2e8" stroke="#e0d9c2" stroke-width="2"/><circle cx="187.2925015538931" cy="277.6486815549433" r="53.75" fill="#f5f2e8"/><ellipse cx="144.1" cy="285.7" rx="4" ry="2" fill="#e6e0cf" transform="rotate(9 144.1 285.7)"/><ellipse cx="200.9" cy="315.0" rx="4" ry="2" fill="#e6e0cf" transform="rotate(74 200.9 315.0)"/><ellipse cx="231.3" cy="296.7" rx="4" ry="2" fill="#e6e0cf" transform="rotate(77 231.3 296.7)"/><ellipse cx="209.6" cy="242.1" rx="4" ry="2" fill="#e6e0cf" transform="rotate(61 209.6 242.1)"/><ellipse cx="150.5" cy="306.4" rx="4" ry="2" fill="#e6e0cf" transform="rotate(21 150.5 306.4)"/><ellipse cx="227.0" cy="273.3" rx="4" ry="2" fill="#e6e0cf" transform="rotate(15 227.0 273.3)"/><ellipse cx="182.2" cy="233.4" rx="4" ry="2" fill="#e6e0cf" transform="rotate(32 182.2 233.4)"/><ellipse cx="142.5" cy="261.5" rx="4" ry="2" fill="#e6e0cf" transform="rotate(143 142.5 261.5)"/><ellipse cx="221.5" cy="243.2" rx="4" ry="2" fill="#e6e0cf" transform="rotate(3 221.5 243.2)"/><ellipse cx="231.4" cy="271.7" rx="4" ry="2" fill="#e6e0cf" transform="rotate(137 231.4 271.7)"/><circle cx="200.8" cy="280.4" r="16.3" fill="#ef8354"/><circle cx="176.4" cy="286.0" r="16.3" fill="#8a5a3b"/><circle cx="183.1" cy="264.5" r="16.3" fill="#f2a48e"/><circle cx="325.9583442937583" cy="287.24797499366105" r="62.5" fill="#000" opacity="0.1"/><circle cx="325.9583442937583" cy="281.24797499366105" r="62.5" fill="#f5f2e8" stroke="#e0d9c2" stroke-width="2"/><circle cx="325.9583442937583" cy="281.24797499366105" r="53.75" fill="#f5f2e8"/><ellipse cx="327.4" cy="239.6" rx="4" ry="2" fill="#e6e0cf" transform="rotate(163 327.4 239.6)"/><ellipse cx="330.6" cy="331.8" rx="4" ry="2" fill="#e6e0cf" transform="rotate(88 330.6 331.8)"/><ellipse cx="360.1" cy="248.9" rx="4" ry="2" fill="#e6e0cf" transform="rotate(145 360.1 248.9)"/><ellipse cx="292.7" cy="249.4" rx="4" ry="2" fill="#e6e0cf" transform="rotate(106 292.7 249.4)"/><ellipse cx="374.9" cy="281.6" rx="4" ry="2" fill="#e6e0cf" transform="rotate(143 374.9 281.6)"/><ellipse cx="283.2" cy="306.3" rx="4" ry="2" fill="#e6e0cf" transform="rotate(120 283.2 306.3)"/><ellipse cx="319.1" cy="233.1" rx="4" ry="2" fill="#e6e0cf" transform="rotate(7 319.1 233.1)"/><ellipse cx="369.4" cy="286.6" rx="4" ry="2" fill="#e6e0cf" transform="rotate(102 369.4 286.6)"/><ellipse cx="354.8" cy="319.4" rx="4" ry="2" fill="#e6e0cf" transform="rotate(13 354.8 319.4)"/><ellipse cx="287.8" cy="296.3" rx="4" ry="2" fill="#e6e0cf" transform="rotate(9 287.8 296.3)"/><circle cx="338.8" cy="286.2" r="16.3" fill="#ef8354"/><circle cx="315.8" cy="290.5" r="16.3" fill="#8a5a3b"/><circle cx="319.8" cy="269.0" r="16.3" fill="#f2a48e"/><circle cx="471.7209689542651" cy="286.4177583921701" r="62.5" fill="#000" opacity="0.1"/><circle cx="471.7209689542651" cy="280.4177583921701" r="62.5" fill="#f5f2e8" stroke="#e0d9c2" stroke-width="2"/><circle cx="471.7209689542651" cy="280.4177583921701" r="53.75" fill="#f5f2e8"/><ellipse cx="425.2" cy="282.7" rx="4" ry="2" fill="#e6e0cf" transform="rotate(95 425.2 282.7)"/><ellipse cx="447.5" cy="320.8" rx="4" ry="2" fill="#e6e0cf" transform="rotate(103 447.5 320.8)"/><ellipse cx="502.7" cy="239.7" rx="4" ry="2" fill="#e6e0cf" transform="rotate(152 502.7 239.7)"/><ellipse cx="433.3" cy="267.9" rx="4" ry="2" fill="#e6e0cf" transform="rotate(99 433.3 267.9)"/><ellipse cx="443.4" cy="307.8" rx="4" ry="2" fill="#e6e0cf" transform="rotate(93 443.4 307.8)"/><ellipse cx="503.7" cy="242.3" rx="4" ry="2" fill="#e6e0cf" transform="rotate(170 503.7 242.3)"/><ellipse cx="440.0" cy="312.5" rx="4" ry="2" fill="#e6e0cf" transform="rotate(114 440.0 312.5)"/><ellipse cx="475.0" cy="326.2" rx="4" ry="2" fill="#e6e0cf" transform="rotate(77 475.0 326.2)"/><ellipse cx="450.4" cy="316.7" rx="4" ry="2" fill="#e6e0cf" transform="rotate(122 450.4 316.7)"/><ellipse cx="467.3" cy="237.5" rx="4" ry="2" fill="#e6e0cf" transform="rotate(2 467.3 237.5)"/><circle cx="485.0" cy="284.1" r="16.3" fill="#ef8354"/><circle cx="461.6" cy="289.8" r="16.3" fill="#8a5a3b"/><circle cx="467.3" cy="267.4" r="16.3" fill="#f2a48e"/><circle cx="618.285111842677" cy="282.14767706766725" r="62.5" fill="#000" opacity="0.1"/><circle cx="618.285111842677" cy="276.14767706766725" r="62.5" fill="#f5f2e8" stroke="#e0d9c2" stroke-width="2"/><circle cx="618.285111842677" cy="276.14767706766725" r="53.75" fill="#f5f2e8"/><ellipse cx="615.7" cy="323.9" rx="4" ry="2" fill="#e6e0cf" transform="rotate(72 615.7 323.9)"/><ellipse cx="582.4" cy="312.7" rx="4" ry="2" fill="#e6e0cf" transform="rotate(108 582.4 312.7)"/><ellipse cx="659.7" cy="266.1" rx="4" ry="2" fill="#e6e0cf" transform="rotate(164 659.7 266.1)"/><ellipse cx="622.2" cy="230.7" rx="4" ry="2" fill="#e6e0cf" transform="rotate(3 622.2 230.7)"/><ellipse cx="658.9" cy="295.8" rx="4" ry="2" fill="#e6e0cf" transform="rotate(4 658.9 295.8)"/><ellipse cx="637.4" cy="311.9" rx="4" ry="2" fill="#e6e0cf" transform="rotate(53 637.4 311.9)"/><ellipse cx="659.5" cy="290.8" rx="4" ry="2" fill="#e6e0cf" transform="rotate(33 659.5 290.8)"/><ellipse cx="583.2" cy="300.5" rx="4" ry="2" fill="#e6e0cf" transform="rotate(14 583.2 300.5)"/><ellipse cx="641.6" cy="318.6" rx="4" ry="2" fill="#e6e0cf" transform="rotate(92 641.6 318.6)"/><ellipse cx="582.3" cy="292.7" rx="4" ry="2" fill="#e6e0cf" transform="rotate(34 582.3 292.7)"/><circle cx="630.5" cy="282.5" r="16.3" fill="#ef8354"/><circle cx="610.0" cy="287.1" r="16.3" fill="#8a5a3b"/><circle cx="612.2" cy="263.8" r="16.3" fill="#f2a48e"/><circle cx="185.410534305498" cy="429.128366060555" r="62.5" fill="#000" opacity="0.1"/><circle cx="185.410534305498" cy="423.128366060555" r="62.5" fill="#f5f2e8" stroke="#e0d9c2" stroke-width="2"/><circle cx="185.410534305498" cy="423.128366060555" r="53.75" fill="#f5f2e8"/><ellipse cx="207.2" cy="461.7" rx="4" ry="2" fill="#e6e0cf" transform="rotate(65 207.2 461.7)"/><ellipse cx="174.3" cy="380.4" rx="4" ry="2" fill="#e6e0cf" transform="rotate(3 174.3 380.4)"/><ellipse cx="146.3" cy="402.9" rx="4" ry="2" fill="#e6e0cf" transform="rotate(169 146.3 402.9)"/><ellipse cx="191.6" cy="465.0" rx="4" ry="2" fill="#e6e0cf" transform="rotate(138 191.6 465.0)"/><ellipse cx="186.6" cy="469.8" rx="4" ry="2" fill="#e6e0cf" transform="rotate(88 186.6 469.8)"/><ellipse cx="198.0" cy="463.5" rx="4" ry="2" fill="#e6e0cf" transform="rotate(53 198.0 463.5)"/><ellipse cx="195.1" cy="468.9" rx="4" ry="2" fill="#e6e0cf" transform="rotate(9 195.1 468.9)"/><ellipse cx="156.4" cy="392.5" rx="4" ry="2" fill="#e6e0cf" transform="rotate(17 156.4 392.5)"/><ellipse cx="138.7" cy="418.7" rx="4" ry="2" fill="#e6e0cf" transform="rotate(151 138.7 418.7)"/><ellipse cx="214.7" cy="452.5" rx="4" ry="2" fill="#e6e0cf" transform="rotate(119 214.7 452.5)"/><circle cx="197.6" cy="429.4" r="16.3" fill="#ef8354"/><circle cx="178.3" cy="434.9" r="16.3" fill="#8a5a3b"/><circle cx="184.1" cy="409.4" r="16.3" fill="#f2a48e"/><circle cx="326.4071553237736" cy="426.2827340401709" r="62.5" fill="#000" opacity="0.1"/><circle cx="326.4071553237736" cy="420.2827340401709" r="62.5" fill="#f5f2e8" stroke="#e0d9c2" stroke-width="2"/><circle cx="326.4071553237736" cy="420.2827340401709" r="53.75" fill="#f5f2e8"/><ellipse cx="313.4" cy="463.3" rx="4" ry="2" fill="#e6e0cf" transform="rotate(141 313.4 463.3)"/><ellipse cx="301.6" cy="389.6" rx="4" ry="2" fill="#e6e0cf" transform="rotate(62 301.6 389.6)"/><ellipse cx="302.0" cy="461.8" rx="4" ry="2" fill="#e6e0cf" transform="rotate(164 302.0 461.8)"/><ellipse cx="374.9" cy="409.6" rx="4" ry="2" fill="#e6e0cf" transform="rotate(68 374.9 409.6)"/><ellipse cx="338.9" cy="378.7" rx="4" ry="2" fill="#e6e0cf" transform="rotate(34 338.9 378.7)"/><ellipse cx="360.2" cy="400.1" rx="4" ry="2" fill="#e6e0cf" transform="rotate(54 360.2 400.1)"/><ellipse cx="314.6" cy="378.6" rx="4" ry="2" fill="#e6e0cf" transform="rotate(166 314.6 378.6)"/><ellipse cx="366.6" cy="407.1" rx="4" ry="2" fill="#e6e0cf" transform="rotate(127 366.6 407.1)"/><ellipse cx="363.2" cy="444.3" rx="4" ry="2" fill="#e6e0cf" transform="rotate(134 363.2 444.3)"/><ellipse cx="301.6" cy="453.8" rx="4" ry="2" fill="#e6e0cf" transform="rotate(124 301.6 453.8)"/><circle cx="339.8" cy="423.5" r="16.3" fill="#ef8354"/><circle cx="314.7" cy="427.5" r="16.3" fill="#8a5a3b"/><circle cx="325.3" cy="406.6" r="16.3" fill="#f2a48e"/><circle cx="474.9431490637362" cy="431.23080945014954" r="62.5" fill="#000" opacity="0.1"/><circle cx="474.9431490637362" cy="425.23080945014954" r="62.5" fill="#f5f2e8" stroke="#e0d9c2" stroke-width="2"/><circle cx="474.9431490637362" cy="425.23080945014954" r="53.75" fill="#f5f2e8"/><ellipse cx="513.7" cy="444.8" rx="4" ry="2" fill="#e6e0cf" transform="rotate(80 513.7 444.8)"/><ellipse cx="479.3" cy="467.2" rx="4" ry="2" fill="#e6e0cf" transform="rotate(139 479.3 467.2)"/><ellipse cx="509.5" cy="460.0" rx="4" ry="2" fill="#e6e0cf" transform="rotate(149 509.5 460.0)"/><ellipse cx="482.8" cy="464.2" rx="4" ry="2" fill="#e6e0cf" transform="rotate(165 482.8 464.2)"/><ellipse cx="439.1" cy="410.1" rx="4" ry="2" fill="#e6e0cf" transform="rotate(3 439.1 410.1)"/><ellipse cx="432.0" cy="417.8" rx="4" ry="2" fill="#e6e0cf" transform="rotate(89 432.0 417.8)"/><ellipse cx="502.3" cy="397.0" rx="4" ry="2" fill="#e6e0cf" transform="rotate(147 502.3 397.0)"/><ellipse cx="501.5" cy="460.5" rx="4" ry="2" fill="#e6e0cf" transform="rotate(102 501.5 460.5)"/><ellipse cx="494.1" cy="472.7" rx="4" ry="2" fill="#e6e0cf" transform="rotate(141 494.1 472.7)"/><ellipse cx="520.9" cy="415.7" rx="4" ry="2" fill="#e6e0cf" transform="rotate(65 520.9 415.7)"/><circle cx="487.6" cy="430.6" r="16.3" fill="#ef8354"/><circle cx="466.5" cy="436.1" r="16.3" fill="#8a5a3b"/><circle cx="473.0" cy="411.6" r="16.3" fill="#f2a48e"/><circle cx="614.8758925460279" cy="432.55021593905985" r="62.5" fill="#000" opacity="0.1"/><circle cx="614.8758925460279" cy="426.55021593905985" r="62.5" fill="#f5f2e8" stroke="#e0d9c2" stroke-width="2"/><circle cx="614.8758925460279" cy="426.55021593905985" r="53.75" fill="#f5f2e8"/><ellipse cx="653.0" cy="449.1" rx="4" ry="2" fill="#e6e0cf" transform="rotate(71 653.0 449.1)"/><ellipse cx="654.8" cy="444.6" rx="4" ry="2" fill="#e6e0cf" transform="rotate(91 654.8 444.6)"/><ellipse cx="653.5" cy="437.8" rx="4" ry="2" fill="#e6e0cf" transform="rotate(43 653.5 437.8)"/><ellipse cx="593.4" cy="380.6" rx="4" ry="2" fill="#e6e0cf" transform="rotate(148 593.4 380.6)"/><ellipse cx="651.5" cy="409.5" rx="4" ry="2" fill="#e6e0cf" transform="rotate(173 651.5 409.5)"/><ellipse cx="584.8" cy="397.9" rx="4" ry="2" fill="#e6e0cf" transform="rotate(177 584.8 397.9)"/><ellipse cx="585.6" cy="400.4" rx="4" ry="2" fill="#e6e0cf" transform="rotate(10 585.6 400.4)"/><ellipse cx="569.7" cy="422.2" rx="4" ry="2" fill="#e6e0cf" transform="rotate(45 569.7 422.2)"/><ellipse cx="576.7" cy="415.6" rx="4" ry="2" fill="#e6e0cf" transform="rotate(117 576.7 415.6)"/><ellipse cx="653.6" cy="403.9" rx="4" ry="2" fill="#e6e0cf" transform="rotate(175 653.6 403.9)"/><circle cx="628.1" cy="430.2" r="16.3" fill="#ef8354"/><circle cx="603.2" cy="433.8" r="16.3" fill="#8a5a3b"/><circle cx="610.0" cy="413.7" r="16.3" fill="#f2a48e"/></svg>