<svg xmlns="http://www.w3.org/2000/svg" viewBox="0 0 800 600"><defs><radialGradient id="bg-lava" cx="50%" cy="35%" r="80%"><stop offset="0%" stop-color="#ffffff"/><stop offset="100%" stop-color="#efeff2"/></radialGradient></defs><rect width="800" height="600" fill="url(#bg-lava)"/><circle cx="235.84336768835783" cy="208.3711034487933" r="70" fill="#000" opacity="0.1"/><circle cx="235.84336768835783" cy="202.3711034487933" r="70" fill="#2e3230" stroke="#1f2321" stroke-width="2"/><circle cx="235.84336768835783" cy="202.3711034487933" r="60.199999999999996" fill="#f5f2e8"/><ellipse cx="267.0" cy="170.7" rx="4" ry="2" fill="#e6e0cf" transform="rotate(178 267.0 170.7)"/><ellipse cx="182.9" cy="198.4" rx="4" ry="2" fill="#e6e0cf" transform="rotate(35 182.9 198.4)"/><ellipse cx="208.0" cy="154.1" rx="4" ry="2" fill="#e6e0cf" transform="rotate(10 208.0 154.1)"/><ellipse cx="184.8" cy="207.5" rx="4" ry="2" fill="#e6e0cf" transform="rotate(15 184.8 207.5)"/><ellipse cx="251.0" cy="246.6" rx="4" ry="2" fill="#e6e0cf" transform="rotate(57 251.0 246.6)"/><ellipse cx="220.4" cy="253.2" rx="4" ry="2" fill="#e6e0cf" transform="rotate(12 220.4 253.2)"/><ellipse cx="250.0" cy="255.8" rx="4" ry="2" fill="#e6e0cf" transform="rotate(108 250.0 255.8)"/><ellipse cx="283.5" cy="226.1" rx="4" ry="2" fill="#e6e0cf" transform="rotate(177 283.5 226.1)"/><ellipse cx="277.9" cy="190.4" rx="4" ry="2" fill="#e6e0cf" transform="rotate(28 277.9 190.4)"/><ellipse cx="208.6" cy="166.2" rx="4" ry="2" fill="#e6e0cf" transform="rotate(21 208.6 166.2)"/><circle cx="250.5" cy="207.0" r="18.2" fill="#ef8354"/><circle cx="223.0" cy="210.9" r="18.2" fill="#7fb069"/><circle cx="235.2" cy="187.0" r="18.2" fill="#f2ecd8"/><circle cx="396.9514509085566" cy="202.80869023688138" r="70" fill="#000" opacity="0.1"/><circle cx="396.9514509085566" cy="196.80869023688138" r="70" fill="#2e3230" stroke="#1f2321" stroke-width="2"/><circle cx="396.9514509085566" cy="196.80869023688138" r="60.199999999999996" fill="#f5f2e8"/><ellipse cx="438.5" cy="159.4" rx="4" ry="2" fill="#e6e0cf" transform="rotate(171 438.5 159.4)"/><ellipse cx="351.0" cy="178.3" rx="4" ry="2" fill="#e6e0cf" transform="rotate(103 351.0 178.3)"/><ellipse cx="352.3" cy="214.5" rx="4" ry="2" fill="#e6e0cf" transform="rotate(72 352.3 214.5)"/><ellipse cx="451.9" cy="212.8" rx="4" ry="2" fill="#e6e0cf" transform="rotate(118 451.9 212.8)"/><ellipse cx="392.7" cy="145.2" rx="4" ry="2" fill="#e6e0cf" transform="rotate(125 392.7 145.2)"/><ellipse cx="381.4" cy="243.2" rx="4" ry="2" fill="#e6e0cf" transform="rotate(126 381.4 243.2)"/><ellipse cx="415.5" cy="236.4" rx="4" ry="2" fill="#e6e0cf" transform="rotate(84 415.5 236.4)"/><ellipse cx="446.1" cy="176.2" rx="4" ry="2" fill="#e6e0cf" transform="rotate(90 446.1 176.2)"/><ellipse cx="384.0" cy="142.1" rx="4" ry="2" fill="#e6e0cf" transform="rotate(85 384.0 142.1)"/><ellipse cx="358.8" cy="225.6" rx="4" ry="2" fill="#e6e0cf" transform="rotate(124 358.8 225.6)"/><circle cx="411.2" cy="202.8" r="18.2" fill="#ef8354"/><circle cx="384.7" cy="206.1" r="18.2" fill="#7fb069"/><circle cx="390.5" cy="182.8" r="18.2" fill="#f2ecd8"/><circle cx="563.2249732576311" cy="203.30829622782767" r="70" fill="#000" opacity="0.1"/><circle cx="563.2249732576311" cy="197.30829622782767" r="70" fill="#2e3230" stroke="#1f2321" stroke-width="2"/><circle cx="563.2249732576311" cy="197.30829622782767" r="60.199999999999996" fill="#f5f2e8"/><ellipse cx="580.2" cy="251.7" rx="4" ry="2" fill="#e6e0cf" transform="rotate(50 580.2 251.7)"/><ellipse cx="509.4" cy="189.2" rx="4" ry="2" fill="#e6e0cf" transform="rotate(137 509.4 189.2)"/><ellipse cx="599.5" cy="229.9" rx="4" ry="2" fill="#e6e0cf" transform="rotate(143 599.5 229.9)"/><ellipse cx="519.4" cy="198.7" rx="4" ry="2" fill="#e6e0cf" transform="rotate(96 519.4 198.7)"/><ellipse cx="590.1" cy="237.4" rx="4" ry="2" fill="#e6e0cf" transform="rotate(26 590.1 237.4)"/><ellipse cx="588.4" cy="160.9" rx="4" ry="2" fill="#e6e0cf" transform="rotate(121 588.4 160.9)"/><ellipse cx="520.0" cy="201.2" rx="4" ry="2" fill="#e6e0cf" transform="rotate(37 520.0 201.2)"/><ellipse cx="523.6" cy="229.2" rx="4" ry="2" fill="#e6e0cf" transform="rotate(160 523.6 229.2)"/><ellipse cx="523.4" cy="234.6" rx="4" ry="2" fill="#e6e0cf" transform="rotate(175 523.4 234.6)"/><ellipse cx="564.1" cy="243.6" rx="4" ry="2" fill="#e6e0cf" transform="rotate(7 564.1 243.6)"/><circle cx="578.4" cy="199.9" r="18.2" fill="#ef8354"/><circle cx="553.5" cy="209.2" r="18.2" fill="#7fb069"/><circle cx="559.8" cy="182.3" r="18.2" fill="#f2ecd8"/><circle cx="240.6637520082295" cy="369.627000881359" r="70" fill="#000" opacity="0.1"/><circle cx="240.6637520082295" cy="363.627000881359" r="70" fill="#2e3230" stroke="#1f2321" stroke-width="2"/><circle cx="240.6637520082295" cy="363.627000881359" r="60.199999999999996" fill="#f5f2e8"/><ellipse cx="189.0" cy="387.9" rx="4" ry="2" fill="#e6e0cf" transform="rotate(60 189.0 387.9)"/><ellipse cx="263.4" cy="324.1" rx="4" ry="2" fill="#e6e0cf" transform="rotate(102 263.4 324.1)"/><ellipse cx="284.8" cy="384.9" rx="4" ry="2" fill="#e6e0cf" transform="rotate(150 284.8 384.9)"/><ellipse cx="276.6" cy="395.9" rx="4" ry="2" fill="#e6e0cf" transform="rotate(72 276.6 395.9)"/><ellipse cx="276.0" cy="391.1" rx="4" ry="2" fill="#e6e0cf" transform="rotate(76 276.0 391.1)"/><ellipse cx="204.1" cy="325.3" rx="4" ry="2" fill="#e6e0cf" transform="rotate(146 204.1 325.3)"/><ellipse cx="217.0" cy="400.9" rx="4" ry="2" fill="#e6e0cf" transform="rotate(39 217.0 400.9)"/><ellipse cx="202.9" cy="325.4" rx="4" ry="2" fill="#e6e0cf" transform="rotate(75 202.9 325.4)"/><ellipse cx="273.8" cy="316.9" rx="4" ry="2" fill="#e6e0cf" transform="rotate(21 273.8 316.9)"/><ellipse cx="222.4" cy="312.7" rx="4" ry="2" fill="#e6e0cf" transform="rotate(68 222.4 312.7)"/><circle cx="255.1" cy="369.0" r="18.2" fill="#ef8354"/><circle cx="229.7" cy="374.4" r="18.2" fill="#7fb069"/><circle cx="238.9" cy="348.3" r="18.2" fill="#f2ecd8"/><circle cx="400.7271492499858" cy="365.6796712130308" r="70" fill="#000" opacity="0.1"/><circle cx="400.7271492499858" cy="359.6796712130308" r="70" fill="#2e3230" stroke="#1f2321" stroke-width="2"/><circle cx="400.7271492499858" cy="359.6796712130308" r="60.199999999999996" fill="#f5f2e8"/><ellipse cx="437.4" cy="326.8" rx="4" ry="2" fill="#e6e0cf" transform="rotate(52 437.4 326.8)"/><ellipse cx="352.0" cy="382.1" rx="4" ry="2" fill="#e6e0cf" transform="rotate(62 352.0 382.1)"/><ellipse cx="453.8" cy="367.8" rx="4" ry="2" fill="#e6e0cf" transform="rotate(152 453.8 367.8)"/><ellipse cx="379.1" cy="404.8" rx="4" ry="2" fill="#e6e0cf" transform="rotate(76 379.1 404.8)"/><ellipse cx="347.4" cy="361.5" rx="4" ry="2" fill="#e6e0cf" transform="rotate(94 347.4 361.5)"/><ellipse cx="418.0" cy="401.8" rx="4" ry="2" fill="#e6e0cf" transform="rotate(79 418.0 401.8)"/><ellipse cx="392.4" cy="407.4" rx="4" ry="2" fill="#e6e0cf" transform="rotate(143 392.4 407.4)"/><ellipse cx="399.8" cy="310.5" rx="4" ry="2" fill="#e6e0cf" transform="rotate(13 399.8 310.5)"/><ellipse cx="363.7" cy="388.8" rx="4" ry="2" fill="#e6e0cf" transform="rotate(162 363.7 388.8)"/><ellipse cx="345.6" cy="351.6" rx="4" ry="2" fill="#e6e0cf" transform="rotate(78 345.6 351.6)"/><circle cx="415.4" cy="364.3" r="18.2" fill="#ef8354"/><circle cx="392.6" cy="372.7" r="18.2" fill="#7fb069"/><circle cx="395.9" cy="345.0" r="18.2" fill="#f2ecd8"/><circle cx="562.2921588514" cy="364.1837708707899" r="70" fill="#000" opacity="0.1"/><circle cx="562.2921588514" cy="358.1837708707899" r="70" fill="#2e3230" stroke="#1f2321" stroke-width="2"/><circle cx="562.2921588514" cy="358.1837708707899" r="60.199999999999996" fill="#f5f2e8"/><ellipse cx="531.6" cy="313.8" rx="4" ry="2" fill="#e6e0cf" transform="rotate(73 531.6 313.8)"/><ellipse cx="609.4" cy="347.6" rx="4" ry="2" fill="#e6e0cf" transform="rotate(26 609.4 347.6)"/><ellipse cx="597.5" cy="325.2" rx="4" ry="2" fill="#e6e0cf" transform="rotate(12 597.5 325.2)"/><ellipse cx="578.0" cy="402.1" rx="4" ry="2" fill="#e6e0cf" transform="rotate(120 578.0 402.1)"/><ellipse cx="553.1" cy="310.5" rx="4" ry="2" fill="#e6e0cf" transform="rotate(23 553.1 310.5)"/><ellipse cx="609.9" cy="370.8" rx="4" ry="2" fill="#e6e0cf" transform="rotate(67 609.9 370.8)"/><ellipse cx="603.6" cy="340.0" rx="4" ry="2" fill="#e6e0cf" transform="rotate(45 603.6 340.0)"/><ellipse cx="549.0" cy="402.9" rx="4" ry="2" fill="#e6e0cf" transform="rotate(77 549.0 402.9)"/><ellipse cx="604.2" cy="387.3" rx="4" ry="2" fill="#e6e0cf" transform="rotate(156 604.2 387.3)"/><ellipse cx="516.3" cy="340.9" rx="4" ry="2" fill="#e6e0cf" transform="rotate(141 516.3 340.9)"/><circle cx="577.7" cy="358.9" r="18.2" fill="#ef8354"/><circle cx="550.7" cy="368.3" r="18.2" fill="#7fb069"/><circle cx="559.7" cy="343.0" r="18.2" fill="#f2ecd8"/></svg>