<svg xmlns="http://www.w3.org/2000/svg" viewBox="0 0 800 600"><defs><radialGradient id="bg-losos-set" cx="50%" cy="35%" r="80%"><stop offset="0%" stop-color="#ffffff"/><stop offset="100%" stop-color="#efeff2"/></radialGradient></defs><rect width="800" height="600" fill="url(#bg-losos-set)"/><circle cx="183.14925753325224" cy="142.9086242094636" r="62.5" fill="#000" opacity="0.1"/><circle cx="183.14925753325224" cy="136.9086242094636" r="62.5" fill="#f5f2e8" stroke="#e0d9c2" stroke-width="2"/><circle cx="183.14925753325224" cy="136.9086242094636" r="53.75" fill="#f5f2e8"/><ellipse cx="141.7" cy="128.7" rx="4" ry="2" fill="#e6e0cf" transform="rotate(63 141.7 128.7)"/><ellipse cx="201.1" cy="97.2" rx="4" ry="2" fill="#e6e0cf" transform="rotate(121 201.1 97.2)"/><ellipse cx="200.4" cy="173.3" rx="4" ry="2" fill="#e6e0cf" transform="rotate(8 200.4 173.3)"/><ellipse cx="148.2" cy="169.2" rx="4" ry="2" fill="#e6e0cf" transform="rotate(42 148.2 169.2)"/><ellipse cx="184.8" cy="92.1" rx="4" ry="2" fill="#e6e0cf" transform="rotate(116 184.8 92.1)"/><ellipse cx="230.9" cy="148.4" rx="4" ry="2" fill="#e6e0cf" transform="rotate(93 230.9 148.4)"/><ellipse cx="136.0" cy="122.8" rx="4" ry="2" fill="#e6e0cf" transform="rotate(153 136.0 122.8)"/><ellipse cx="220.6" cy="163.0" rx="4" ry="2" fill="#e6e0cf" transform="rotate(153 220.6 163.0)"/><ellipse cx="215.4" cy="108.1" rx="4" ry="2" fill="#e6e0cf" transform="rotate(5 215.4 108.1)"/><ellipse cx="182.9" cy="180.5" rx="4" ry="2" fill="#e6e0cf" transform="rotate(145 182.9 180.5)"/><circle cx="196.9" cy="136.9" r="16.3" fill="#ef8354"/><circle cx="169.5" cy="135.4" r="16.3" fill="#f2a48e"/><circle cx="324.49939408153296" cy="143.568129748106" r="62.5" fill="#000" opacity="0.1"/><circle cx="324.49939408153296" cy="137.568129748106" r="62.5" fill="#f5f2e8" stroke="#e0d9c2" stroke-width="2"/><circle cx="324.49939408153296" cy="137.568129748106" r="53.75" fill="#f5f2e8"/><ellipse cx="279.2" cy="120.6" rx="4" ry="2" fill="#e6e0cf" transform="rotate(135 279.2 120.6)"/><ellipse cx="363.1" cy="122.4" rx="4" ry="2" fill="#e6e0cf" transform="rotate(41 363.1 122.4)"/><ellipse cx="280.9" cy="140.7" rx="4" ry="2" fill="#e6e0cf" transform="rotate(176 280.9 140.7)"/><ellipse cx="282.2" cy="157.2" rx="4" ry="2" fill="#e6e0cf" transform="rotate(37 282.2 157.2)"/><ellipse cx="322.0" cy="181.3" rx="4" ry="2" fill="#e6e0cf" transform="rotate(116 322.0 181.3)"/><ellipse cx="366.6" cy="124.0" rx="4" ry="2" fill="#e6e0cf" transform="rotate(26 366.6 124.0)"/><ellipse cx="308.6" cy="177.5" rx="4" ry="2" fill="#e6e0cf" transform="rotate(66 308.6 177.5)"/><ellipse cx="358.0" cy="169.8" rx="4" ry="2" fill="#e6e0cf" transform="rotate(111 358.0 169.8)"/><ellipse cx="309.0" cy="90.7" rx="4" ry="2" fill="#e6e0cf" transform="rotate(133 309.0 90.7)"/><ellipse cx="287.4" cy="111.1" rx="4" ry="2" fill="#e6e0cf" transform="rotate(96 287.4 111.1)"/><circle cx="337.6" cy="141.7" r="16.3" fill="#ef8354"/><circle cx="310.9" cy="135.4" r="16.3" fill="#f2a48e"/><circle cx="471.25070490315557" cy="141.5437172036618" r="62.5" fill="#000" opacity="0.1"/><circle cx="471.25070490315557" cy="135.5437172036618" r="62.5" fill="#f5f2e8" stroke="#e0d9c2" stroke-width="2"/><circle cx="471.25070490315557" cy="135.5437172036618" r="53.75" fill="#f5f2e8"/><ellipse cx="516.2" cy="145.7" rx="4" ry="2" fill="#e6e0cf" transform="rotate(37 516.2 145.7)"/><ellipse cx="493.7" cy="178.7" rx="4" ry="2" fill="#e6e0cf" transform="rotate(11 493.7 178.7)"/><ellipse cx="422.4" cy="143.3" rx="4" ry="2" fill="#e6e0cf" transform="rotate(6 422.4 143.3)"/><ellipse cx="462.5" cy="87.1" rx="4" ry="2" fill="#e6e0cf" transform="rotate(133 462.5 87.1)"/><ellipse cx="493.3" cy="95.6" rx="4" ry="2" fill="#e6e0cf" transform="rotate(119 493.3 95.6)"/><ellipse cx="500.9" cy="172.4" rx="4" ry="2" fill="#e6e0cf" transform="rotate(141 500.9 172.4)"/><ellipse cx="445.0" cy="167.2" rx="4" ry="2" fill="#e6e0cf" transform="rotate(89 445.0 167.2)"/><ellipse cx="511.6" cy="160.3" rx="4" ry="2" fill="#e6e0cf" transform="rotate(162 511.6 160.3)"/><ellipse cx="491.5" cy="179.8" rx="4" ry="2" fill="#e6e0cf" transform="rotate(122 491.5 179.8)"/><ellipse cx="516.6" cy="125.7" rx="4" ry="2" fill="#e6e0cf" transform="rotate(135 516.6 125.7)"/><circle cx="484.9" cy="137.0" r="16.3" fill="#ef8354"/><circle cx="457.9" cy="132.3" r="16.3" fill="#f2a48e"/><circle cx="612.4387466292828" cy="144.94864526204765" r="62.5" fill="#000" opacity="0.1"/><circle cx="612.4387466292828" cy="138.94864526204765" r="62.5" fill="#f5f2e8" stroke="#e0d9c2" stroke-width="2"/><circle cx="612.4387466292828" cy="138.94864526204765" r="53.75" fill="#f5f2e8"/><ellipse cx="646.7" cy="110.8" rx="4" ry="2" fill="#e6e0cf" transform="rotate(139 646.7 110.8)"/><ellipse cx="570.1" cy="157.3" rx="4" ry="2" fill="#e6e0cf" transform="rotate(1 570.1 157.3)"/><ellipse cx="563.0" cy="147.7" rx="4" ry="2" fill="#e6e0cf" transform="rotate(95 563.0 147.7)"/><ellipse cx="586.7" cy="168.9" rx="4" ry="2" fill="#e6e0cf" transform="rotate(74 586.7 168.9)"/><ellipse cx="561.8" cy="131.5" rx="4" ry="2" fill="#e6e0cf" transform="rotate(4 561.8 131.5)"/><ellipse cx="574.0" cy="114.0" rx="4" ry="2" fill="#e6e0cf" transform="rotate(72 574.0 114.0)"/><ellipse cx="658.5" cy="145.7" rx="4" ry="2" fill="#e6e0cf" transform="rotate(108 658.5 145.7)"/><ellipse cx="616.6" cy="99.7" rx="4" ry="2" fill="#e6e0cf" transform="rotate(84 616.6 99.7)"/><ellipse cx="580.0" cy="160.7" rx="4" ry="2" fill="#e6e0cf" transform="rotate(95 580.0 160.7)"/><ellipse cx="637.6" cy="179.7" rx="4" ry="2" fill="#e6e0cf" transform="rotate(3 637.6 179.7)"/><circle cx="626.2" cy="139.8" r="16.3" fill="#ef8354"/><circle cx="598.8" cy="137.0" r="16.3" fill="#f2a48e"/><circle cx="181.3794083725661" cy="284.7383970245719" r="62.5" fill="#000" opacity="0.1"/><circle cx="181.3794083725661" cy="278.7383970245719" r="62.5" fill="#f5f2e8" stroke="#e0d9c2" stroke-width="2"/><circle cx="181.3794083725661" cy="278.7383970245719" r="53.75" fill="#f5f2e8"/><ellipse cx="221.0" cy="310.6" rx="4" ry="2" fill="#e6e0cf" transform="rotate(165 221.0 310.6)"/><ellipse cx="148.2" cy="243.3" rx="4" ry="2" fill="#e6e0cf" transform="rotate(113 148.2 243.3)"/><ellipse cx="177.2" cy="235.9" rx="4" ry="2" fill="#e6e0cf" transform="rotate(77 177.2 235.9)"/><ellipse cx="184.3" cy="238.1" rx="4" ry="2" fill="#e6e0cf" transform="rotate(76 184.3 238.1)"/><ellipse cx="210.1" cy="310.6" rx="4" ry="2" fill="#e6e0cf" transform="rotate(142 210.1 310.6)"/><ellipse cx="228.2" cy="289.7" rx="4" ry="2" fill="#e6e0cf" transform="rotate(87 228.2 289.7)"/><ellipse cx="148.2" cy="314.2" rx="4" ry="2" fill="#e6e0cf" transform="rotate(120 148.2 314.2)"/><ellipse cx="186.8" cy="237.2" rx="4" ry="2" fill="#e6e0cf" transform="rotate(165 186.8 237.2)"/><ellipse cx="138.2" cy="273.5" rx="4" ry="2" fill="#e6e0cf" transform="rotate(7 138.2 273.5)"/><ellipse cx="219.7" cy="272.3" rx="4" ry="2" fill="#e6e0cf" transform="rotate(82 219.7 272.3)"/><circle cx="193.8" cy="284.7" r="16.3" fill="#ef8354"/><circle cx="168.7" cy="273.5" r="16.3" fill="#f2a48e"/><circle cx="325.84605675563216" cy="285.54283714853227" r="62.5" fill="#000" opacity="0.1"/><circle cx="325.84605675563216" cy="279.54283714853227" r="62.5" fill="#f5f2e8" stroke="#e0d9c2" stroke-width="2"/><circle cx="325.84605675563216" cy="279.54283714853227" r="53.75" fill="#f5f2e8"/><ellipse cx="345.7" cy="319.0" rx="4" ry="2" fill="#e6e0cf" transform="rotate(81 345.7 319.0)"/><ellipse cx="278.8" cy="264.3" rx="4" ry="2" fill="#e6e0cf" transform="rotate(60 278.8 264.3)"/><ellipse cx="305.0" cy="325.2" rx="4" ry="2" fill="#e6e0cf" transform="rotate(128 305.0 325.2)"/><ellipse cx="349.2" cy="321.4" rx="4" ry="2" fill="#e6e0cf" transform="rotate(46 349.2 321.4)"/><ellipse cx="371.3" cy="297.2" rx="4" ry="2" fill="#e6e0cf" transform="rotate(113 371.3 297.2)"/><ellipse cx="280.5" cy="258.7" rx="4" ry="2" fill="#e6e0cf" transform="rotate(98 280.5 258.7)"/><ellipse cx="321.3" cy="322.9" rx="4" ry="2" fill="#e6e0cf" transform="rotate(2 321.3 322.9)"/><ellipse cx="298.7" cy="310.5" rx="4" ry="2" fill="#e6e0cf" transform="rotate(58 298.7 310.5)"/><ellipse cx="339.6" cy="320.8" rx="4" ry="2" fill="#e6e0cf" transform="rotate(166 339.6 320.8)"/><ellipse cx="368.4" cy="280.9" rx="4" ry="2" fill="#e6e0cf" transform="rotate(68 368.4 280.9)"/><circle cx="339.1" cy="283.3" r="16.3" fill="#ef8354"/><circle cx="312.5" cy="276.2" r="16.3" fill="#f2a48e"/><circle cx="475.12587487511337" cy="286.8012146744877" r="62.5" fill="#000" opacity="0.1"/><circle cx="475.12587487511337" cy="280.8012146744877" r="62.5" fill="#f5f2e8" stroke="#e0d9c2" stroke-width="2"/><circle cx="475.12587487511337" cy="280.8012146744877" r="53.75" fill="#f5f2e8"/><ellipse cx="492.0" cy="325.6" rx="4" ry="2" fill="#e6e0cf" transform="rotate(120 492.0 325.6)"/><ellipse cx="432.6" cy="287.3" rx="4" ry="2" fill="#e6e0cf" transform="rotate(174 432.6 287.3)"/><ellipse cx="509.8" cy="298.7" rx="4" ry="2" fill="#e6e0cf" transform="rotate(1 509.8 298.7)"/><ellipse cx="436.7" cy="263.8" rx="4" ry="2" fill="#e6e0cf" transform="rotate(11 436.7 263.8)"/><ellipse cx="441.4" cy="310.6" rx="4" ry="2" fill="#e6e0cf" transform="rotate(80 441.4 310.6)"/><ellipse cx="435.7" cy="249.7" rx="4" ry="2" fill="#e6e0cf" transform="rotate(145 435.7 249.7)"/><ellipse cx="436.4" cy="247.9" rx="4" ry="2" fill="#e6e0cf" transform="rotate(9 436.4 247.9)"/><ellipse cx="443.5" cy="305.7" rx="4" ry="2" fill="#e6e0cf" transform="rotate(16 443.5 305.7)"/><ellipse cx="510.9" cy="298.2" rx="4" ry="2" fill="#e6e0cf" transform="rotate(152 510.9 298.2)"/><ellipse cx="471.1" cy="241.3" rx="4" ry="2" fill="#e6e0cf" transform="rotate(131 471.1 241.3)"/><circle cx="488.6" cy="283.8" r="16.3" fill="#ef8354"/><circle cx="462.6" cy="275.0" r="16.3" fill="#f2a48e"/><circle cx="611.7706183120608" cy="286.46530178934336" r="62.5" fill="#000" opacity="0.1"/><circle cx="611.7706183120608" cy="280.46530178934336" r="62.5" fill="#f5f2e8" stroke="#e0d9c2" stroke-width="2"/><circle cx="611.7706183120608" cy="280.46530178934336" r="53.75" fill="#f5f2e8"/><ellipse cx="612.4" cy="240.7" rx="4" ry="2" fill="#e6e0cf" transform="rotate(47 612.4 240.7)"/><ellipse cx="575.8" cy="307.7" rx="4" ry="2" fill="#e6e0cf" transform="rotate(179 575.8 307.7)"/><ellipse cx="615.8" cy="326.8" rx="4" ry="2" fill="#e6e0cf" transform="rotate(130 615.8 326.8)"/><ellipse cx="623.0" cy="319.7" rx="4" ry="2" fill="#e6e0cf" transform="rotate(161 623.0 319.7)"/><ellipse cx="575.5" cy="246.9" rx="4" ry="2" fill="#e6e0cf" transform="rotate(119 575.5 246.9)"/><ellipse cx="647.1" cy="262.4" rx="4" ry="2" fill="#e6e0cf" transform="rotate(113 647.1 262.4)"/><ellipse cx="630.0" cy="238.4" rx="4" ry="2" fill="#e6e0cf" transform="rotate(47 630.0 238.4)"/><ellipse cx="575.0" cy="300.6" rx="4" ry="2" fill="#e6e0cf" transform="rotate(54 575.0 300.6)"/><ellipse cx="632.0" cy="246.4" rx="4" ry="2" fill="#e6e0cf" transform="rotate(152 632.0 246.4)"/><ellipse cx="610.4" cy="330.8" rx="4" ry="2" fill="#e6e0cf" transform="rotate(100 610.4 330.8)"/><circle cx="624.9" cy="284.5" r="16.3" fill="#ef8354"/><circle cx="598.6" cy="276.4" r="16.3" fill="#f2a48e"/><circle cx="186.67736046388745" cy="433.34163734689355" r="62.5" fill="#000" opacity="0.1"/><circle cx="186.67736046388745" cy="427.34163734689355" r="62.5" fill="#f5f2e8" stroke="#e0d9c2" stroke-width="2"/><circle cx="186.67736046388745" cy="427.34163734689355" r="53.75" fill="#f5f2e8"/><ellipse cx="172.2" cy="467.7" rx="4" ry="2" fill="#e6e0cf" transform="rotate(68 172.2 467.7)"/><ellipse cx="137.0" cy="419.9" rx="4" ry="2" fill="#e6e0cf" transform="rotate(112 137.0 419.9)"/><ellipse cx="145.2" cy="416.9" rx="4" ry="2" fill="#e6e0cf" transform="rotate(22 145.2 416.9)"/><ellipse cx="196.8" cy="385.9" rx="4" ry="2" fill="#e6e0cf" transform="rotate(141 196.8 385.9)"/><ellipse cx="201.8" cy="474.4" rx="4" ry="2" fill="#e6e0cf" transform="rotate(66 201.8 474.4)"/><ellipse cx="209.4" cy="394.9" rx="4" ry="2" fill="#e6e0cf" transform="rotate(4 209.4 394.9)"/><ellipse cx="230.2" cy="445.7" rx="4" ry="2" fill="#e6e0cf" transform="rotate(36 230.2 445.7)"/><ellipse cx="142.6" cy="435.2" rx="4" ry="2" fill="#e6e0cf" transform="rotate(103 142.6 435.2)"/><ellipse cx="197.2" cy="474.7" rx="4" ry="2" fill="#e6e0cf" transform="rotate(170 197.2 474.7)"/><ellipse cx="205.2" cy="462.8" rx="4" ry="2" fill="#e6e0cf" transform="rotate(73 205.2 462.8)"/><circle cx="200.3" cy="429.5" r="16.3" fill="#ef8354"/><circle cx="172.9" cy="426.6" r="16.3" fill="#f2a48e"/><circle cx="325.7721840310842" cy="433.12407303228974" r="62.5" fill="#000" opacity="0.1"/><circle cx="325.7721840310842" cy="427.12407303228974" r="62.5" fill="#f5f2e8" stroke="#e0d9c2" stroke-width="2"/><circle cx="325.7721840310842" cy="427.12407303228974" r="53.75" fill="#f5f2e8"/><ellipse cx="360.4" cy="450.3" rx="4" ry="2" fill="#e6e0cf" transform="rotate(172 360.4 450.3)"/><ellipse cx="315.8" cy="388.5" rx="4" ry="2" fill="#e6e0cf" transform="rotate(149 315.8 388.5)"/><ellipse cx="370.8" cy="419.3" rx="4" ry="2" fill="#e6e0cf" transform="rotate(159 370.8 419.3)"/><ellipse cx="283.4" cy="415.9" rx="4" ry="2" fill="#e6e0cf" transform="rotate(98 283.4 415.9)"/><ellipse cx="310.5" cy="387.9" rx="4" ry="2" fill="#e6e0cf" transform="rotate(108 310.5 387.9)"/><ellipse cx="293.4" cy="397.2" rx="4" ry="2" fill="#e6e0cf" transform="rotate(137 293.4 397.2)"/><ellipse cx="290.8" cy="398.1" rx="4" ry="2" fill="#e6e0cf" transform="rotate(138 290.8 398.1)"/><ellipse cx="365.6" cy="419.2" rx="4" ry="2" fill="#e6e0cf" transform="rotate(6 365.6 419.2)"/><ellipse cx="312.2" cy="464.2" rx="4" ry="2" fill="#e6e0cf" transform="rotate(77 312.2 464.2)"/><ellipse cx="333.2" cy="388.1" rx="4" ry="2" fill="#e6e0cf" transform="rotate(106 333.2 388.1)"/><circle cx="338.4" cy="432.5" r="16.3" fill="#ef8354"/><circle cx="312.0" cy="426.5" r="16.3" fill="#f2a48e"/><circle cx="471.46946255490184" cy="428.93575993180275" r="62.5" fill="#000" opacity="0.1"/><circle cx="471.46946255490184" cy="422.93575993180275" r="62.5" fill="#f5f2e8" stroke="#e0d9c2" stroke-width="2"/><circle cx="471.46946255490184" cy="422.93575993180275" r="53.75" fill="#f5f2e8"/><ellipse cx="427.9" cy="444.4" rx="4" ry="2" fill="#e6e0cf" transform="rotate(51 427.9 444.4)"/><ellipse cx="463.3" cy="378.1" rx="4" ry="2" fill="#e6e0cf" transform="rotate(96 463.3 378.1)"/><ellipse cx="486.4" cy="464.4" rx="4" ry="2" fill="#e6e0cf" transform="rotate(77 486.4 464.4)"/><ellipse cx="513.6" cy="447.5" rx="4" ry="2" fill="#e6e0cf" transform="rotate(122 513.6 447.5)"/><ellipse cx="483.5" cy="463.5" rx="4" ry="2" fill="#e6e0cf" transform="rotate(143 483.5 463.5)"/><ellipse cx="516.6" cy="406.7" rx="4" ry="2" fill="#e6e0cf" transform="rotate(69 516.6 406.7)"/><ellipse cx="436.5" cy="404.3" rx="4" ry="2" fill="#e6e0cf" transform="rotate(142 436.5 404.3)"/><ellipse cx="511.4" cy="441.8" rx="4" ry="2" fill="#e6e0cf" transform="rotate(124 511.4 441.8)"/><ellipse cx="464.8" cy="375.3" rx="4" ry="2" fill="#e6e0cf" transform="rotate(98 464.8 375.3)"/><ellipse cx="442.2" cy="391.4" rx="4" ry="2" fill="#e6e0cf" transform="rotate(61 442.2 391.4)"/><circle cx="485.2" cy="424.2" r="16.3" fill="#ef8354"/><circle cx="458.8" cy="417.5" r="16.3" fill="#f2a48e"/><circle cx="615.4059156030416" cy="433.7480483520776" r="62.5" fill="#000" opacity="0.1"/><circle cx="615.4059156030416" cy="427.7480483520776" r="62.5" fill="#f5f2e8" stroke="#e0d9c2" stroke-width="2"/><circle cx="615.4059156030416" cy="427.7480483520776" r="53.75" fill="#f5f2e8"/><ellipse cx="580.9" cy="451.7" rx="4" ry="2" fill="#e6e0cf" transform="rotate(4 580.9 451.7)"/><ellipse cx="618.8" cy="474.9" rx="4" ry="2" fill="#e6e0cf" transform="rotate(25 618.8 474.9)"/><ellipse cx="582.3" cy="407.3" rx="4" ry="2" fill="#e6e0cf" transform="rotate(19 582.3 407.3)"/><ellipse cx="639.8" cy="384.6" rx="4" ry="2" fill="#e6e0cf" transform="rotate(67 639.8 384.6)"/><ellipse cx="646.3" cy="397.0" rx="4" ry="2" fill="#e6e0cf" transform="rotate(152 646.3 397.0)"/><ellipse cx="616.8" cy="472.2" rx="4" ry="2" fill="#e6e0cf" transform="rotate(127 616.8 472.2)"/><ellipse cx="620.7" cy="385.6" rx="4" ry="2" fill="#e6e0cf" transform="rotate(10 620.7 385.6)"/><ellipse cx="590.1" cy="460.5" rx="4" ry="2" fill="#e6e0cf" transform="rotate(28 590.1 460.5)"/><ellipse cx="617.5" cy="381.5" rx="4" ry="2" fill="#e6e0cf" transform="rotate(27 617.5 381.5)"/><ellipse cx="625.6" cy="476.0" rx="4" ry="2" fill="#e6e0cf" transform="rotate(56 625.6 476.0)"/><circle cx="629.1" cy="429.3" r="16.3" fill="#ef8354"/><circle cx="602.5" cy="423.1" r="16.3" fill="#f2a48e"/></svg>