<svg xmlns="http://www.w3.org/2000/svg" viewBox="0 0 800 600"><defs><radialGradient id="bg-magura" cx="50%" cy="35%" r="80%"><stop offset="0%" stop-color="#ffffff"/><stop offset="100%" stop-color="#efeff2"/></radialGradient></defs><rect width="800" height="600" fill="url(#bg-magura)"/><circle cx="237.34795846045017" cy="203.82406594604254" r="70" fill="#000" opacity="0.1"/><circle cx="237.34795846045017" cy="197.82406594604254" r="70" fill="#f5f2e8" stroke="#e0d9c2" stroke-width="2"/><circle cx="237.34795846045017" cy="197.82406594604254" r="60.199999999999996" fill="#f5f2e8"/><ellipse cx="254.3" cy="145.9" rx="4" ry="2" fill="#e6e0cf" transform="rotate(44 254.3 145.9)"/><ellipse cx="190.0" cy="176.4" rx="4" ry="2" fill="#e6e0cf" transform="rotate(22 190.0 176.4)"/><ellipse cx="234.7" cy="244.7" rx="4" ry="2" fill="#e6e0cf" transform="rotate(53 234.7 244.7)"/><ellipse cx="235.4" cy="250.1" rx="4" ry="2" fill="#e6e0cf" transform="rotate(15 235.4 250.1)"/><ellipse cx="280.3" cy="220.8" rx="4" ry="2" fill="#e6e0cf" transform="rotate(117 280.3 220.8)"/><ellipse cx="231.7" cy="153.2" rx="4" ry="2" fill="#e6e0cf" transform="rotate(56 231.7 153.2)"/><ellipse cx="190.4" cy="187.8" rx="4" ry="2" fill="#e6e0cf" transform="rotate(70 190.4 187.8)"/><ellipse cx="281.8" cy="222.7" rx="4" ry="2" fill="#e6e0cf" transform="rotate(141 281.8 222.7)"/><ellipse cx="289.1" cy="196.4" rx="4" ry="2" fill="#e6e0cf" transform="rotate(158 289.1 196.4)"/><ellipse cx="251.2" cy="152.8" rx="4" ry="2" fill="#e6e0cf" transform="rotate(65 251.2 152.8)"/><circle cx="251.7" cy="203.5" r="18.2" fill="#8a5a3b"/><circle cx="224.3" cy="206.0" r="18.2" fill="#7fb069"/><circle cx="230.3" cy="184.1" r="18.2" fill="#f2ecd8"/><circle cx="401.28596161305904" cy="206.92087770998478" r="70" fill="#000" opacity="0.1"/><circle cx="401.28596161305904" cy="200.92087770998478" r="70" fill="#f5f2e8" stroke="#e0d9c2" stroke-width="2"/><circle cx="401.28596161305904" cy="200.92087770998478" r="60.199999999999996" fill="#f5f2e8"/><ellipse cx="360.4" cy="173.1" rx="4" ry="2" fill="#e6e0cf" transform="rotate(43 360.4 173.1)"/><ellipse cx="440.1" cy="173.8" rx="4" ry="2" fill="#e6e0cf" transform="rotate(136 440.1 173.8)"/><ellipse cx="447.0" cy="200.4" rx="4" ry="2" fill="#e6e0cf" transform="rotate(64 447.0 200.4)"/><ellipse cx="456.7" cy="204.2" rx="4" ry="2" fill="#e6e0cf" transform="rotate(146 456.7 204.2)"/><ellipse cx="366.4" cy="172.0" rx="4" ry="2" fill="#e6e0cf" transform="rotate(90 366.4 172.0)"/><ellipse cx="398.4" cy="256.8" rx="4" ry="2" fill="#e6e0cf" transform="rotate(87 398.4 256.8)"/><ellipse cx="406.3" cy="144.2" rx="4" ry="2" fill="#e6e0cf" transform="rotate(104 406.3 144.2)"/><ellipse cx="438.2" cy="165.2" rx="4" ry="2" fill="#e6e0cf" transform="rotate(28 438.2 165.2)"/><ellipse cx="347.0" cy="196.5" rx="4" ry="2" fill="#e6e0cf" transform="rotate(39 347.0 196.5)"/><ellipse cx="430.2" cy="238.3" rx="4" ry="2" fill="#e6e0cf" transform="rotate(102 430.2 238.3)"/><circle cx="416.7" cy="201.6" r="18.2" fill="#8a5a3b"/><circle cx="390.0" cy="211.4" r="18.2" fill="#7fb069"/><circle cx="395.1" cy="186.8" r="18.2" fill="#f2ecd8"/><circle cx="561.8950847778469" cy="206.3599979430437" r="70" fill="#000" opacity="0.1"/><circle cx="561.8950847778469" cy="200.3599979430437" r="70" fill="#f5f2e8" stroke="#e0d9c2" stroke-width="2"/><circle cx="561.8950847778469" cy="200.3599979430437" r="60.199999999999996" fill="#f5f2e8"/><ellipse cx="517.0" cy="224.5" rx="4" ry="2" fill="#e6e0cf" transform="rotate(14 517.0 224.5)"/><ellipse cx="530.1" cy="240.5" rx="4" ry="2" fill="#e6e0cf" transform="rotate(151 530.1 240.5)"/><ellipse cx="548.4" cy="253.5" rx="4" ry="2" fill="#e6e0cf" transform="rotate(117 548.4 253.5)"/><ellipse cx="614.6" cy="182.0" rx="4" ry="2" fill="#e6e0cf" transform="rotate(49 614.6 182.0)"/><ellipse cx="583.5" cy="242.1" rx="4" ry="2" fill="#e6e0cf" transform="rotate(140 583.5 242.1)"/><ellipse cx="525.8" cy="229.8" rx="4" ry="2" fill="#e6e0cf" transform="rotate(18 525.8 229.8)"/><ellipse cx="588.9" cy="154.7" rx="4" ry="2" fill="#e6e0cf" transform="rotate(75 588.9 154.7)"/><ellipse cx="559.2" cy="146.4" rx="4" ry="2" fill="#e6e0cf" transform="rotate(32 559.2 146.4)"/><ellipse cx="601.8" cy="172.4" rx="4" ry="2" fill="#e6e0cf" transform="rotate(38 601.8 172.4)"/><ellipse cx="532.8" cy="243.8" rx="4" ry="2" fill="#e6e0cf" transform="rotate(124 532.8 243.8)"/><circle cx="577.0" cy="203.5" r="18.2" fill="#8a5a3b"/><circle cx="550.9" cy="211.2" r="18.2" fill="#7fb069"/><circle cx="554.9" cy="186.6" r="18.2" fill="#f2ecd8"/><circle cx="238.37845809943974" cy="363.11249340698123" r="70" fill="#000" opacity="0.1"/><circle cx="238.37845809943974" cy="357.11249340698123" r="70" fill="#f5f2e8" stroke="#e0d9c2" stroke-width="2"/><circle cx="238.37845809943974" cy="357.11249340698123" r="60.199999999999996" fill="#f5f2e8"/><ellipse cx="204.4" cy="324.6" rx="4" ry="2" fill="#e6e0cf" transform="rotate(148 204.4 324.6)"/><ellipse cx="203.7" cy="398.5" rx="4" ry="2" fill="#e6e0cf" transform="rotate(159 203.7 398.5)"/><ellipse cx="267.0" cy="406.8" rx="4" ry="2" fill="#e6e0cf" transform="rotate(132 267.0 406.8)"/><ellipse cx="263.1" cy="397.1" rx="4" ry="2" fill="#e6e0cf" transform="rotate(55 263.1 397.1)"/><ellipse cx="190.2" cy="341.9" rx="4" ry="2" fill="#e6e0cf" transform="rotate(118 190.2 341.9)"/><ellipse cx="255.2" cy="402.8" rx="4" ry="2" fill="#e6e0cf" transform="rotate(33 255.2 402.8)"/><ellipse cx="279.1" cy="376.2" rx="4" ry="2" fill="#e6e0cf" transform="rotate(80 279.1 376.2)"/><ellipse cx="245.4" cy="411.9" rx="4" ry="2" fill="#e6e0cf" transform="rotate(141 245.4 411.9)"/><ellipse cx="243.4" cy="408.6" rx="4" ry="2" fill="#e6e0cf" transform="rotate(152 243.4 408.6)"/><ellipse cx="285.8" cy="329.8" rx="4" ry="2" fill="#e6e0cf" transform="rotate(154 285.8 329.8)"/><circle cx="252.4" cy="363.6" r="18.2" fill="#8a5a3b"/><circle cx="226.4" cy="366.8" r="18.2" fill="#7fb069"/><circle cx="232.4" cy="342.9" r="18.2" fill="#f2ecd8"/><circle cx="399.8056781422347" cy="369.4668438192457" r="70" fill="#000" opacity="0.1"/><circle cx="399.8056781422347" cy="363.4668438192457" r="70" fill="#f5f2e8" stroke="#e0d9c2" stroke-width="2"/><circle cx="399.8056781422347" cy="363.4668438192457" r="60.199999999999996" fill="#f5f2e8"/><ellipse cx="364.3" cy="394.3" rx="4" ry="2" fill="#e6e0cf" transform="rotate(153 364.3 394.3)"/><ellipse cx="447.6" cy="352.4" rx="4" ry="2" fill="#e6e0cf" transform="rotate(118 447.6 352.4)"/><ellipse cx="355.3" cy="339.7" rx="4" ry="2" fill="#e6e0cf" transform="rotate(117 355.3 339.7)"/><ellipse cx="366.5" cy="318.7" rx="4" ry="2" fill="#e6e0cf" transform="rotate(131 366.5 318.7)"/><ellipse cx="413.8" cy="418.1" rx="4" ry="2" fill="#e6e0cf" transform="rotate(81 413.8 418.1)"/><ellipse cx="453.5" cy="364.7" rx="4" ry="2" fill="#e6e0cf" transform="rotate(158 453.5 364.7)"/><ellipse cx="404.7" cy="411.8" rx="4" ry="2" fill="#e6e0cf" transform="rotate(153 404.7 411.8)"/><ellipse cx="384.4" cy="317.6" rx="4" ry="2" fill="#e6e0cf" transform="rotate(69 384.4 317.6)"/><ellipse cx="443.3" cy="397.6" rx="4" ry="2" fill="#e6e0cf" transform="rotate(45 443.3 397.6)"/><ellipse cx="395.3" cy="408.1" rx="4" ry="2" fill="#e6e0cf" transform="rotate(22 395.3 408.1)"/><circle cx="414.2" cy="369.0" r="18.2" fill="#8a5a3b"/><circle cx="387.5" cy="372.7" r="18.2" fill="#7fb069"/><circle cx="396.2" cy="348.5" r="18.2" fill="#f2ecd8"/><circle cx="564.9747559167445" cy="363.2989048101008" r="70" fill="#000" opacity="0.1"/><circle cx="564.9747559167445" cy="357.2989048101008" r="70" fill="#f5f2e8" stroke="#e0d9c2" stroke-width="2"/><circle cx="564.9747559167445" cy="357.2989048101008" r="60.199999999999996" fill="#f5f2e8"/><ellipse cx="525.7" cy="323.2" rx="4" ry="2" fill="#e6e0cf" transform="rotate(29 525.7 323.2)"/><ellipse cx="609.5" cy="377.1" rx="4" ry="2" fill="#e6e0cf" transform="rotate(99 609.5 377.1)"/><ellipse cx="525.4" cy="382.9" rx="4" ry="2" fill="#e6e0cf" transform="rotate(118 525.4 382.9)"/><ellipse cx="517.9" cy="348.1" rx="4" ry="2" fill="#e6e0cf" transform="rotate(45 517.9 348.1)"/><ellipse cx="548.6" cy="408.6" rx="4" ry="2" fill="#e6e0cf" transform="rotate(92 548.6 408.6)"/><ellipse cx="563.7" cy="301.8" rx="4" ry="2" fill="#e6e0cf" transform="rotate(9 563.7 301.8)"/><ellipse cx="542.4" cy="306.5" rx="4" ry="2" fill="#e6e0cf" transform="rotate(26 542.4 306.5)"/><ellipse cx="604.7" cy="397.8" rx="4" ry="2" fill="#e6e0cf" transform="rotate(27 604.7 397.8)"/><ellipse cx="525.4" cy="387.3" rx="4" ry="2" fill="#e6e0cf" transform="rotate(109 525.4 387.3)"/><ellipse cx="536.0" cy="400.9" rx="4" ry="2" fill="#e6e0cf" transform="rotate(77 536.0 400.9)"/><circle cx="580.0" cy="360.5" r="18.2" fill="#8a5a3b"/><circle cx="552.5" cy="366.4" r="18.2" fill="#7fb069"/><circle cx="563.0" cy="342.0" r="18.2" fill="#f2ecd8"/></svg>