<svg xmlns="http://www.w3.org/2000/svg" viewBox="0 0 800 600"><defs><radialGradient id="bg-miguri-set" cx="50%" cy="35%" r="80%"><stop offset="0%" stop-color="#26262c"/><stop offset="100%" stop-color="#141417"/></radialGradient></defs><rect width="800" height="600" fill="url(#bg-miguri-set)"/><circle cx="187.45972834154963" cy="142.75805979780853" r="62.5" fill="#000" opacity="0.35"/><circle cx="187.45972834154963" cy="136.75805979780853" r="62.5" fill="#f5f2e8"/><circle cx="187.45972834154963" cy="136.75805979780853" r="53.75" fill="#f5f2e8"/><ellipse cx="212.7" cy="102.9" rx="4" ry="2" fill="#e6e0cf" transform="rotate(177 212.7 102.9)"/><ellipse cx="175.8" cy="98.8" rx="4" ry="2" fill="#e6e0cf" transform="rotate(86 175.8 98.8)"/><ellipse cx="150.5" cy="109.2" rx="4" ry="2" fill="#e6e0cf" transform="rotate(29 150.5 109.2)"/><ellipse cx="231.3" cy="130.2" rx="4" ry="2" fill="#e6e0cf" transform="rotate(5 231.3 130.2)"/><ellipse cx="220.3" cy="115.3" rx="4" ry="2" fill="#e6e0cf" transform="rotate(94 220.3 115.3)"/><ellipse cx="142.8" cy="154.3" rx="4" ry="2" fill="#e6e0cf" transform="rotate(63 142.8 154.3)"/><ellipse cx="232.8" cy="130.8" rx="4" ry="2" fill="#e6e0cf" transform="rotate(92 232.8 130.8)"/><ellipse cx="177.1" cy="88.3" rx="4" ry="2" fill="#e6e0cf" transform="rotate(93 177.1 88.3)"/><ellipse cx="145.5" cy="154.1" rx="4" ry="2" fill="#e6e0cf" transform="rotate(39 145.5 154.1)"/><ellipse cx="223.9" cy="122.2" rx="4" ry="2" fill="#e6e0cf" transform="rotate(46 223.9 122.2)"/><circle cx="201.1" cy="138.5" r="16.3" fill="#ef8354"/><circle cx="180.0" cy="148.3" r="16.3" fill="#8a5a3b"/><circle cx="186.3" cy="123.1" r="16.3" fill="#f2a48e"/><circle cx="329.79209323227406" cy="142.08884595893323" r="62.5" fill="#000" opacity="0.35"/><circle cx="329.79209323227406" cy="136.08884595893323" r="62.5" fill="#f5f2e8"/><circle cx="329.79209323227406" cy="136.08884595893323" r="53.75" fill="#f5f2e8"/><ellipse cx="376.3" cy="154.1" rx="4" ry="2" fill="#e6e0cf" transform="rotate(157 376.3 154.1)"/><ellipse cx="318.6" cy="181.9" rx="4" ry="2" fill="#e6e0cf" transform="rotate(29 318.6 181.9)"/><ellipse cx="328.7" cy="88.6" rx="4" ry="2" fill="#e6e0cf" transform="rotate(155 328.7 88.6)"/><ellipse cx="362.8" cy="157.9" rx="4" ry="2" fill="#e6e0cf" transform="rotate(19 362.8 157.9)"/><ellipse cx="319.4" cy="179.4" rx="4" ry="2" fill="#e6e0cf" transform="rotate(176 319.4 179.4)"/><ellipse cx="375.1" cy="156.0" rx="4" ry="2" fill="#e6e0cf" transform="rotate(39 375.1 156.0)"/><ellipse cx="305.8" cy="90.8" rx="4" ry="2" fill="#e6e0cf" transform="rotate(90 305.8 90.8)"/><ellipse cx="355.0" cy="93.1" rx="4" ry="2" fill="#e6e0cf" transform="rotate(152 355.0 93.1)"/><ellipse cx="290.4" cy="110.9" rx="4" ry="2" fill="#e6e0cf" transform="rotate(124 290.4 110.9)"/><ellipse cx="292.3" cy="154.0" rx="4" ry="2" fill="#e6e0cf" transform="rotate(41 292.3 154.0)"/><circle cx="343.5" cy="137.4" r="16.3" fill="#ef8354"/><circle cx="319.6" cy="145.3" r="16.3" fill="#8a5a3b"/><circle cx="324.8" cy="123.3" r="16.3" fill="#f2a48e"/><circle cx="474.39377047494054" cy="145.50846903771162" r="62.5" fill="#000" opacity="0.35"/><circle cx="474.39377047494054" cy="139.50846903771162" r="62.5" fill="#f5f2e8"/><circle cx="474.39377047494054" cy="139.50846903771162" r="53.75" fill="#f5f2e8"/><ellipse cx="441.5" cy="118.1" rx="4" ry="2" fill="#e6e0cf" transform="rotate(48 441.5 118.1)"/><ellipse cx="443.2" cy="101.0" rx="4" ry="2" fill="#e6e0cf" transform="rotate(172 443.2 101.0)"/><ellipse cx="427.2" cy="133.9" rx="4" ry="2" fill="#e6e0cf" transform="rotate(135 427.2 133.9)"/><ellipse cx="431.7" cy="161.0" rx="4" ry="2" fill="#e6e0cf" transform="rotate(31 431.7 161.0)"/><ellipse cx="486.2" cy="180.6" rx="4" ry="2" fill="#e6e0cf" transform="rotate(98 486.2 180.6)"/><ellipse cx="434.0" cy="153.3" rx="4" ry="2" fill="#e6e0cf" transform="rotate(154 434.0 153.3)"/><ellipse cx="496.4" cy="180.9" rx="4" ry="2" fill="#e6e0cf" transform="rotate(63 496.4 180.9)"/><ellipse cx="460.2" cy="176.6" rx="4" ry="2" fill="#e6e0cf" transform="rotate(1 460.2 176.6)"/><ellipse cx="512.5" cy="111.7" rx="4" ry="2" fill="#e6e0cf" transform="rotate(179 512.5 111.7)"/><ellipse cx="478.4" cy="90.0" rx="4" ry="2" fill="#e6e0cf" transform="rotate(105 478.4 90.0)"/><circle cx="487.5" cy="143.7" r="16.3" fill="#ef8354"/><circle cx="465.3" cy="149.9" r="16.3" fill="#8a5a3b"/><circle cx="469.2" cy="126.8" r="16.3" fill="#f2a48e"/><circle cx="615.7439663335681" cy="145.809132758528" r="62.5" fill="#000" opacity="0.35"/><circle cx="615.7439663335681" cy="139.809132758528" r="62.5" fill="#f5f2e8"/><circle cx="615.7439663335681" cy="139.809132758528" r="53.75" fill="#f5f2e8"/><ellipse cx="650.8" cy="112.4" rx="4" ry="2" fill="#e6e0cf" transform="rotate(146 650.8 112.4)"/><ellipse cx="600.6" cy="179.5" rx="4" ry="2" fill="#e6e0cf" transform="rotate(142 600.6 179.5)"/><ellipse cx="655.1" cy="129.3" rx="4" ry="2" fill="#e6e0cf" transform="rotate(105 655.1 129.3)"/><ellipse cx="662.1" cy="138.7" rx="4" ry="2" fill="#e6e0cf" transform="rotate(6 662.1 138.7)"/><ellipse cx="621.2" cy="95.6" rx="4" ry="2" fill="#e6e0cf" transform="rotate(142 621.2 95.6)"/><ellipse cx="628.2" cy="178.6" rx="4" ry="2" fill="#e6e0cf" transform="rotate(61 628.2 178.6)"/><ellipse cx="617.4" cy="185.0" rx="4" ry="2" fill="#e6e0cf" transform="rotate(109 617.4 185.0)"/><ellipse cx="577.7" cy="169.5" rx="4" ry="2" fill="#e6e0cf" transform="rotate(115 577.7 169.5)"/><ellipse cx="655.0" cy="116.2" rx="4" ry="2" fill="#e6e0cf" transform="rotate(80 655.0 116.2)"/><ellipse cx="658.4" cy="153.8" rx="4" ry="2" fill="#e6e0cf" transform="rotate(13 658.4 153.8)"/><circle cx="628.5" cy="144.8" r="16.3" fill="#ef8354"/><circle cx="607.0" cy="150.4" r="16.3" fill="#8a5a3b"/><circle cx="611.8" cy="126.6" r="16.3" fill="#f2a48e"/><circle cx="184.5437810663134" cy="286.9075351841748" r="62.5" fill="#000" opacity="0.35"/><circle cx="184.5437810663134" cy="280.9075351841748" r="62.5" fill="#f5f2e8"/><circle cx="184.5437810663134" cy="280.9075351841748" r="53.75" fill="#f5f2e8"/><ellipse cx="218.7" cy="317.4" rx="4" ry="2" fill="#e6e0cf" transform="rotate(172 218.7 317.4)"/><ellipse cx="224.6" cy="256.1" rx="4" ry="2" fill="#e6e0cf" transform="rotate(129 224.6 256.1)"/><ellipse cx="141.0" cy="279.0" rx="4" ry="2" fill="#e6e0cf" transform="rotate(19 141.0 279.0)"/><ellipse cx="175.2" cy="318.9" rx="4" ry="2" fill="#e6e0cf" transform="rotate(21 175.2 318.9)"/><ellipse cx="225.7" cy="259.0" rx="4" ry="2" fill="#e6e0cf" transform="rotate(102 225.7 259.0)"/><ellipse cx="145.7" cy="305.6" rx="4" ry="2" fill="#e6e0cf" transform="rotate(101 145.7 305.6)"/><ellipse cx="226.1" cy="268.9" rx="4" ry="2" fill="#e6e0cf" transform="rotate(7 226.1 268.9)"/><ellipse cx="145.2" cy="257.0" rx="4" ry="2" fill="#e6e0cf" transform="rotate(173 145.2 257.0)"/><ellipse cx="197.3" cy="231.6" rx="4" ry="2" fill="#e6e0cf" transform="rotate(121 197.3 231.6)"/><ellipse cx="152.0" cy="320.4" rx="4" ry="2" fill="#e6e0cf" transform="rotate(18 152.0 320.4)"/><circle cx="196.7" cy="287.2" r="16.3" fill="#ef8354"/><circle cx="174.4" cy="290.2" r="16.3" fill="#8a5a3b"/><circle cx="182.7" cy="267.3" r="16.3" fill="#f2a48e"/><circle cx="328.8337286412716" cy="288.17783117108047" r="62.5" fill="#000" opacity="0.35"/><circle cx="328.8337286412716" cy="282.17783117108047" r="62.5" fill="#f5f2e8"/><circle cx="328.8337286412716" cy="282.17783117108047" r="53.75" fill="#f5f2e8"/><ellipse cx="359.3" cy="257.8" rx="4" ry="2" fill="#e6e0cf" transform="rotate(101 359.3 257.8)"/><ellipse cx="299.8" cy="241.4" rx="4" ry="2" fill="#e6e0cf" transform="rotate(43 299.8 241.4)"/><ellipse cx="334.0" cy="326.0" rx="4" ry="2" fill="#e6e0cf" transform="rotate(109 334.0 326.0)"/><ellipse cx="303.5" cy="239.3" rx="4" ry="2" fill="#e6e0cf" transform="rotate(9 303.5 239.3)"/><ellipse cx="285.8" cy="279.1" rx="4" ry="2" fill="#e6e0cf" transform="rotate(91 285.8 279.1)"/><ellipse cx="313.5" cy="241.7" rx="4" ry="2" fill="#e6e0cf" transform="rotate(62 313.5 241.7)"/><ellipse cx="344.1" cy="330.4" rx="4" ry="2" fill="#e6e0cf" transform="rotate(138 344.1 330.4)"/><ellipse cx="352.6" cy="249.8" rx="4" ry="2" fill="#e6e0cf" transform="rotate(169 352.6 249.8)"/><ellipse cx="367.1" cy="295.3" rx="4" ry="2" fill="#e6e0cf" transform="rotate(8 367.1 295.3)"/><ellipse cx="332.5" cy="233.0" rx="4" ry="2" fill="#e6e0cf" transform="rotate(62 332.5 233.0)"/><circle cx="341.1" cy="288.4" r="16.3" fill="#ef8354"/><circle cx="317.9" cy="290.5" r="16.3" fill="#8a5a3b"/><circle cx="323.2" cy="269.6" r="16.3" fill="#f2a48e"/><circle cx="472.01310205459595" cy="286.7907182723284" r="62.5" fill="#000" opacity="0.35"/><circle cx="472.01310205459595" cy="280.7907182723284" r="62.5" fill="#f5f2e8"/><circle cx="472.01310205459595" cy="280.7907182723284" r="53.75" fill="#f5f2e8"/><ellipse cx="433.9" cy="260.8" rx="4" ry="2" fill="#e6e0cf" transform="rotate(120 433.9 260.8)"/><ellipse cx="493.7" cy="317.4" rx="4" ry="2" fill="#e6e0cf" transform="rotate(138 493.7 317.4)"/><ellipse cx="511.4" cy="280.0" rx="4" ry="2" fill="#e6e0cf" transform="rotate(51 511.4 280.0)"/><ellipse cx="448.1" cy="314.6" rx="4" ry="2" fill="#e6e0cf" transform="rotate(133 448.1 314.6)"/><ellipse cx="507.5" cy="253.8" rx="4" ry="2" fill="#e6e0cf" transform="rotate(130 507.5 253.8)"/><ellipse cx="447.7" cy="247.8" rx="4" ry="2" fill="#e6e0cf" transform="rotate(24 447.7 247.8)"/><ellipse cx="475.1" cy="230.7" rx="4" ry="2" fill="#e6e0cf" transform="rotate(63 475.1 230.7)"/><ellipse cx="490.2" cy="316.2" rx="4" ry="2" fill="#e6e0cf" transform="rotate(48 490.2 316.2)"/><ellipse cx="494.3" cy="319.5" rx="4" ry="2" fill="#e6e0cf" transform="rotate(80 494.3 319.5)"/><ellipse cx="435.7" cy="250.5" rx="4" ry="2" fill="#e6e0cf" transform="rotate(36 435.7 250.5)"/><circle cx="485.5" cy="283.3" r="16.3" fill="#ef8354"/><circle cx="463.4" cy="291.5" r="16.3" fill="#8a5a3b"/><circle cx="469.1" cy="267.4" r="16.3" fill="#f2a48e"/><circle cx="616.977945227176" cy="285.9107225686312" r="62.5" fill="#000" opacity="0.35"/><circle cx="616.977945227176" cy="279.9107225686312" r="62.5" fill="#f5f2e8"/><circle cx="616.977945227176" cy="279.9107225686312" r="53.75" fill="#f5f2e8"/><ellipse cx="655.4" cy="271.3" rx="4" ry="2" fill="#e6e0cf" transform="rotate(134 655.4 271.3)"/><ellipse cx="647.6" cy="305.7" rx="4" ry="2" fill="#e6e0cf" transform="rotate(111 647.6 305.7)"/><ellipse cx="584.8" cy="301.6" rx="4" ry="2" fill="#e6e0cf" transform="rotate(151 584.8 301.6)"/><ellipse cx="638.8" cy="319.2" rx="4" ry="2" fill="#e6e0cf" transform="rotate(11 638.8 319.2)"/><ellipse cx="655.5" cy="260.4" rx="4" ry="2" fill="#e6e0cf" transform="rotate(102 655.5 260.4)"/><ellipse cx="575.2" cy="285.2" rx="4" ry="2" fill="#e6e0cf" transform="rotate(128 575.2 285.2)"/><ellipse cx="620.2" cy="321.7" rx="4" ry="2" fill="#e6e0cf" transform="rotate(97 620.2 321.7)"/><ellipse cx="657.0" cy="264.1" rx="4" ry="2" fill="#e6e0cf" transform="rotate(98 657.0 264.1)"/><ellipse cx="581.1" cy="260.2" rx="4" ry="2" fill="#e6e0cf" transform="rotate(108 581.1 260.2)"/><ellipse cx="574.4" cy="292.1" rx="4" ry="2" fill="#e6e0cf" transform="rotate(126 574.4 292.1)"/><circle cx="630.7" cy="280.5" r="16.3" fill="#ef8354"/><circle cx="606.9" cy="289.3" r="16.3" fill="#8a5a3b"/><circle cx="614.1" cy="266.5" r="16.3" fill="#f2a48e"/><circle cx="187.9568915516138" cy="426.24510885961354" r="62.5" fill="#000" opacity="0.35"/><circle cx="187.9568915516138" cy="420.24510885961354" r="62.5" fill="#f5f2e8"/><circle cx="187.9568915516138" cy="420.24510885961354" r="53.75" fill="#f5f2e8"/><ellipse cx="195.7" cy="370.8" rx="4" ry="2" fill="#e6e0cf" transform="rotate(121 195.7 370.8)"/><ellipse cx="192.1" cy="372.4" rx="4" ry="2" fill="#e6e0cf" transform="rotate(3 192.1 372.4)"/><ellipse cx="156.4" cy="386.2" rx="4" ry="2" fill="#e6e0cf" transform="rotate(180 156.4 386.2)"/><ellipse cx="228.4" cy="432.7" rx="4" ry="2" fill="#e6e0cf" transform="rotate(174 228.4 432.7)"/><ellipse cx="191.4" cy="380.4" rx="4" ry="2" fill="#e6e0cf" transform="rotate(150 191.4 380.4)"/><ellipse cx="234.9" cy="401.4" rx="4" ry="2" fill="#e6e0cf" transform="rotate(174 234.9 401.4)"/><ellipse cx="227.8" cy="433.5" rx="4" ry="2" fill="#e6e0cf" transform="rotate(166 227.8 433.5)"/><ellipse cx="196.6" cy="380.7" rx="4" ry="2" fill="#e6e0cf" transform="rotate(173 196.6 380.7)"/><ellipse cx="206.9" cy="460.6" rx="4" ry="2" fill="#e6e0cf" transform="rotate(40 206.9 460.6)"/><ellipse cx="166.3" cy="453.8" rx="4" ry="2" fill="#e6e0cf" transform="rotate(46 166.3 453.8)"/><circle cx="201.5" cy="422.8" r="16.3" fill="#ef8354"/><circle cx="177.6" cy="429.2" r="16.3" fill="#8a5a3b"/><circle cx="187.2" cy="406.5" r="16.3" fill="#f2a48e"/><circle cx="328.1399987600744" cy="431.5380542334169" r="62.5" fill="#000" opacity="0.35"/><circle cx="328.1399987600744" cy="425.5380542334169" r="62.5" fill="#f5f2e8"/><circle cx="328.1399987600744" cy="425.5380542334169" r="53.75" fill="#f5f2e8"/><ellipse cx="372.8" cy="410.4" rx="4" ry="2" fill="#e6e0cf" transform="rotate(86 372.8 410.4)"/><ellipse cx="363.3" cy="458.5" rx="4" ry="2" fill="#e6e0cf" transform="rotate(54 363.3 458.5)"/><ellipse cx="346.2" cy="388.6" rx="4" ry="2" fill="#e6e0cf" transform="rotate(14 346.2 388.6)"/><ellipse cx="307.7" cy="386.0" rx="4" ry="2" fill="#e6e0cf" transform="rotate(92 307.7 386.0)"/><ellipse cx="328.2" cy="381.2" rx="4" ry="2" fill="#e6e0cf" transform="rotate(142 328.2 381.2)"/><ellipse cx="280.0" cy="415.5" rx="4" ry="2" fill="#e6e0cf" transform="rotate(96 280.0 415.5)"/><ellipse cx="287.2" cy="445.0" rx="4" ry="2" fill="#e6e0cf" transform="rotate(150 287.2 445.0)"/><ellipse cx="318.4" cy="386.7" rx="4" ry="2" fill="#e6e0cf" transform="rotate(98 318.4 386.7)"/><ellipse cx="297.3" cy="461.9" rx="4" ry="2" fill="#e6e0cf" transform="rotate(145 297.3 461.9)"/><ellipse cx="292.6" cy="392.0" rx="4" ry="2" fill="#e6e0cf" transform="rotate(134 292.6 392.0)"/><circle cx="341.4" cy="429.3" r="16.3" fill="#ef8354"/><circle cx="318.8" cy="435.6" r="16.3" fill="#8a5a3b"/><circle cx="326.6" cy="411.9" r="16.3" fill="#f2a48e"/><circle cx="472.51391629874706" cy="433.18498661741614" r="62.5" fill="#000" opacity="0.35"/><circle cx="472.51391629874706" cy="427.18498661741614" r="62.5" fill="#f5f2e8"/><circle cx="472.51391629874706" cy="427.18498661741614" r="53.75" fill="#f5f2e8"/><ellipse cx="493.7" cy="391.4" rx="4" ry="2" fill="#e6e0cf" transform="rotate(161 493.7 391.4)"/><ellipse cx="516.7" cy="437.3" rx="4" ry="2" fill="#e6e0cf" transform="rotate(19 516.7 437.3)"/><ellipse cx="498.6" cy="387.6" rx="4" ry="2" fill="#e6e0cf" transform="rotate(137 498.6 387.6)"/><ellipse cx="443.0" cy="395.5" rx="4" ry="2" fill="#e6e0cf" transform="rotate(41 443.0 395.5)"/><ellipse cx="516.7" cy="415.9" rx="4" ry="2" fill="#e6e0cf" transform="rotate(1 516.7 415.9)"/><ellipse cx="486.6" cy="380.0" rx="4" ry="2" fill="#e6e0cf" transform="rotate(67 486.6 380.0)"/><ellipse cx="488.7" cy="473.8" rx="4" ry="2" fill="#e6e0cf" transform="rotate(100 488.7 473.8)"/><ellipse cx="473.0" cy="376.6" rx="4" ry="2" fill="#e6e0cf" transform="rotate(48 473.0 376.6)"/><ellipse cx="517.9" cy="422.5" rx="4" ry="2" fill="#e6e0cf" transform="rotate(158 517.9 422.5)"/><ellipse cx="444.9" cy="395.3" rx="4" ry="2" fill="#e6e0cf" transform="rotate(74 444.9 395.3)"/><circle cx="485.2" cy="432.4" r="16.3" fill="#ef8354"/><circle cx="462.3" cy="436.4" r="16.3" fill="#8a5a3b"/><circle cx="468.9" cy="413.9" r="16.3" fill="#f2a48e"/><circle cx="616.7877975236624" cy="431.21500803902745" r="62.5" fill="#000" opacity="0.35"/><circle cx="616.7877975236624" cy="425.21500803902745" r="62.5" fill="#f5f2e8"/><circle cx="616.7877975236624" cy="425.21500803902745" r="53.75" fill="#f5f2e8"/><ellipse cx="613.1" cy="465.8" rx="4" ry="2" fill="#e6e0cf" transform="rotate(18 613.1 465.8)"/><ellipse cx="659.8" cy="419.1" rx="4" ry="2" fill="#e6e0cf" transform="rotate(28 659.8 419.1)"/><ellipse cx="624.5" cy="375.7" rx="4" ry="2" fill="#e6e0cf" transform="rotate(59 624.5 375.7)"/><ellipse cx="575.0" cy="449.1" rx="4" ry="2" fill="#e6e0cf" transform="rotate(118 575.0 449.1)"/><ellipse cx="637.1" cy="388.8" rx="4" ry="2" fill="#e6e0cf" transform="rotate(21 637.1 388.8)"/><ellipse cx="572.9" cy="413.7" rx="4" ry="2" fill="#e6e0cf" transform="rotate(112 572.9 413.7)"/><ellipse cx="601.4" cy="379.0" rx="4" ry="2" fill="#e6e0cf" transform="rotate(66 601.4 379.0)"/><ellipse cx="576.6" cy="425.9" rx="4" ry="2" fill="#e6e0cf" transform="rotate(161 576.6 425.9)"/><ellipse cx="586.7" cy="390.5" rx="4" ry="2" fill="#e6e0cf" transform="rotate(179 586.7 390.5)"/><ellipse cx="599.7" cy="468.2" rx="4" ry="2" fill="#e6e0cf" transform="rotate(65 599.7 468.2)"/><circle cx="630.4" cy="427.1" r="16.3" fill="#ef8354"/><circle cx="605.8" cy="433.5" r="16.3" fill="#8a5a3b"/><circle cx="611.5" cy="412.5" r="16.3" fill="#f2a48e"/></svg>