<svg xmlns="http://www.w3.org/2000/svg" viewBox="0 0 800 600"><defs><radialGradient id="bg-minamit-tempura" cx="50%" cy="35%" r="80%"><stop offset="0%" stop-color="#ffffff"/><stop offset="100%" stop-color="#efeff2"/></radialGradient></defs><rect width="800" height="600" fill="url(#bg-minamit-tempura)"/><circle cx="235.96611183322966" cy="203.83547060005367" r="70" fill="#000" opacity="0.1"/><circle cx="235.96611183322966" cy="197.83547060005367" r="70" fill="#d9a45b" stroke="#c08c4a" stroke-width="2"/><circle cx="286.8" cy="237.4" r="4.4" fill="#b5854e"/><circle cx="249.0" cy="260.9" r="5.8" fill="#b5854e"/><circle cx="265.3" cy="255.2" r="6.2" fill="#b5854e"/><circle cx="196.2" cy="248.5" r="6.8" fill="#b5854e"/><circle cx="211.4" cy="257.3" r="4.9" fill="#b5854e"/><circle cx="179.1" cy="228.0" r="6.5" fill="#b5854e"/><circle cx="181.0" cy="164.2" r="3.3" fill="#b5854e"/><circle cx="177.7" cy="170.3" r="4.2" fill="#b5854e"/><circle cx="181.6" cy="163.4" r="5.8" fill="#b5854e"/><circle cx="199.6" cy="144.7" r="6.9" fill="#b5854e"/><circle cx="243.9" cy="133.9" r="6.0" fill="#b5854e"/><circle cx="280.3" cy="151.1" r="3.6" fill="#b5854e"/><circle cx="282.6" cy="153.5" r="3.2" fill="#b5854e"/><circle cx="298.6" cy="183.0" r="3.5" fill="#b5854e"/><circle cx="235.96611183322966" cy="197.83547060005367" r="50.4" fill="#f5f2e8"/><circle cx="249.8" cy="204.6" r="18.2" fill="#ef8354"/><circle cx="224.2" cy="207.8" r="18.2" fill="#8a5a3b"/><circle cx="228.3" cy="184.5" r="18.2" fill="#f2ecd8"/><circle cx="398.673321807757" cy="207.12023115344346" r="70" fill="#000" opacity="0.1"/><circle cx="398.673321807757" cy="201.12023115344346" r="70" fill="#d9a45b" stroke="#c08c4a" stroke-width="2"/><circle cx="463.0" cy="203.8" r="6.1" fill="#b5854e"/><circle cx="429.0" cy="257.9" r="6.1" fill="#b5854e"/><circle cx="413.2" cy="263.9" r="6.5" fill="#b5854e"/><circle cx="367.1" cy="257.2" r="5.3" fill="#b5854e"/><circle cx="343.4" cy="234.1" r="3.4" fill="#b5854e"/><circle cx="335.2" cy="212.0" r="5.1" fill="#b5854e"/><circle cx="334.4" cy="205.5" r="5.7" fill="#b5854e"/><circle cx="334.3" cy="199.8" r="6.6" fill="#b5854e"/><circle cx="375.2" cy="141.2" r="3.1" fill="#b5854e"/><circle cx="380.8" cy="139.3" r="3.9" fill="#b5854e"/><circle cx="436.0" cy="148.7" r="6.9" fill="#b5854e"/><circle cx="442.4" cy="153.9" r="3.8" fill="#b5854e"/><circle cx="458.0" cy="176.0" r="6.1" fill="#b5854e"/><circle cx="462.9" cy="205.7" r="3.4" fill="#b5854e"/><circle cx="398.673321807757" cy="201.12023115344346" r="50.4" fill="#f5f2e8"/><circle cx="413.7" cy="204.3" r="18.2" fill="#ef8354"/><circle cx="386.9" cy="211.0" r="18.2" fill="#8a5a3b"/><circle cx="398.0" cy="185.7" r="18.2" fill="#f2ecd8"/><circle cx="557.466590134427" cy="207.15248360671103" r="70" fill="#000" opacity="0.1"/><circle cx="557.466590134427" cy="201.15248360671103" r="70" fill="#d9a45b" stroke="#c08c4a" stroke-width="2"/><circle cx="611.6" cy="236.1" r="4.6" fill="#b5854e"/><circle cx="595.0" cy="253.5" r="5.0" fill="#b5854e"/><circle cx="572.3" cy="263.8" r="3.6" fill="#b5854e"/><circle cx="526.7" cy="257.7" r="3.8" fill="#b5854e"/><circle cx="512.0" cy="246.7" r="6.8" fill="#b5854e"/><circle cx="493.2" cy="197.3" r="4.0" fill="#b5854e"/><circle cx="495.1" cy="185.2" r="5.8" fill="#b5854e"/><circle cx="510.4" cy="157.2" r="3.2" fill="#b5854e"/><circle cx="542.7" cy="138.5" r="4.9" fill="#b5854e"/><circle cx="558.3" cy="136.8" r="3.8" fill="#b5854e"/><circle cx="565.4" cy="137.2" r="6.5" fill="#b5854e"/><circle cx="610.1" cy="164.1" r="4.1" fill="#b5854e"/><circle cx="611.3" cy="165.9" r="4.6" fill="#b5854e"/><circle cx="621.7" cy="196.0" r="5.5" fill="#b5854e"/><circle cx="557.466590134427" cy="201.15248360671103" r="50.4" fill="#f5f2e8"/><circle cx="572.8" cy="202.9" r="18.2" fill="#ef8354"/><circle cx="545.6" cy="211.0" r="18.2" fill="#8a5a3b"/><circle cx="551.5" cy="186.9" r="18.2" fill="#f2ecd8"/><circle cx="239.6272407732904" cy="367.0168941542506" r="70" fill="#000" opacity="0.1"/><circle cx="239.6272407732904" cy="361.0168941542506" r="70" fill="#d9a45b" stroke="#c08c4a" stroke-width="2"/><circle cx="301.6" cy="378.6" r="3.3" fill="#b5854e"/><circle cx="268.4" cy="418.6" r="4.9" fill="#b5854e"/><circle cx="219.9" cy="422.3" r="4.4" fill="#b5854e"/><circle cx="221.1" cy="422.7" r="5.5" fill="#b5854e"/><circle cx="218.7" cy="421.9" r="5.9" fill="#b5854e"/><circle cx="181.3" cy="388.3" r="4.5" fill="#b5854e"/><circle cx="177.8" cy="379.1" r="4.6" fill="#b5854e"/><circle cx="178.0" cy="342.2" r="3.8" fill="#b5854e"/><circle cx="193.8" cy="315.8" r="6.3" fill="#b5854e"/><circle cx="199.9" cy="310.4" r="3.5" fill="#b5854e"/><circle cx="276.4" cy="308.1" r="4.2" fill="#b5854e"/><circle cx="295.2" cy="328.5" r="6.4" fill="#b5854e"/><circle cx="291.8" cy="323.3" r="5.8" fill="#b5854e"/><circle cx="302.9" cy="349.1" r="5.5" fill="#b5854e"/><circle cx="239.6272407732904" cy="361.0168941542506" r="50.4" fill="#f5f2e8"/><circle cx="253.2" cy="368.3" r="18.2" fill="#ef8354"/><circle cx="227.5" cy="370.5" r="18.2" fill="#8a5a3b"/><circle cx="235.1" cy="346.3" r="18.2" fill="#f2ecd8"/><circle cx="403.25909936241806" cy="366.6393299307674" r="70" fill="#000" opacity="0.1"/><circle cx="403.25909936241806" cy="360.6393299307674" r="70" fill="#d9a45b" stroke="#c08c4a" stroke-width="2"/><circle cx="462.5" cy="385.9" r="5.9" fill="#b5854e"/><circle cx="460.6" cy="389.9" r="3.2" fill="#b5854e"/><circle cx="399.5" cy="424.9" r="4.8" fill="#b5854e"/><circle cx="369.5" cy="415.5" r="4.1" fill="#b5854e"/><circle cx="343.3" cy="384.2" r="5.6" fill="#b5854e"/><circle cx="339.0" cy="356.8" r="3.5" fill="#b5854e"/><circle cx="338.9" cy="363.1" r="5.4" fill="#b5854e"/><circle cx="341.5" cy="342.2" r="5.5" fill="#b5854e"/><circle cx="367.5" cy="307.1" r="6.1" fill="#b5854e"/><circle cx="372.3" cy="304.2" r="3.2" fill="#b5854e"/><circle cx="409.4" cy="296.5" r="4.8" fill="#b5854e"/><circle cx="435.6" cy="305.0" r="3.7" fill="#b5854e"/><circle cx="467.6" cy="357.8" r="6.9" fill="#b5854e"/><circle cx="465.0" cy="379.0" r="3.3" fill="#b5854e"/><circle cx="403.25909936241806" cy="360.6393299307674" r="50.4" fill="#f5f2e8"/><circle cx="418.5" cy="362.6" r="18.2" fill="#ef8354"/><circle cx="395.3" cy="373.8" r="18.2" fill="#8a5a3b"/><circle cx="397.1" cy="346.5" r="18.2" fill="#f2ecd8"/><circle cx="561.6070144996047" cy="369.352247197181" r="70" fill="#000" opacity="0.1"/><circle cx="561.6070144996047" cy="363.352247197181" r="70" fill="#d9a45b" stroke="#c08c4a" stroke-width="2"/><circle cx="617.0" cy="396.2" r="3.2" fill="#b5854e"/><circle cx="605.8" cy="410.2" r="5.7" fill="#b5854e"/><circle cx="555.6" cy="427.5" r="6.0" fill="#b5854e"/><circle cx="533.4" cy="421.3" r="5.5" fill="#b5854e"/><circle cx="528.8" cy="418.8" r="3.4" fill="#b5854e"/><circle cx="497.8" cy="372.1" r="5.4" fill="#b5854e"/><circle cx="497.4" cy="368.9" r="5.9" fill="#b5854e"/><circle cx="520.0" cy="314.2" r="5.5" fill="#b5854e"/><circle cx="513.1" cy="320.9" r="5.8" fill="#b5854e"/><circle cx="530.3" cy="307.0" r="4.0" fill="#b5854e"/><circle cx="553.5" cy="299.5" r="3.3" fill="#b5854e"/><circle cx="577.1" cy="300.9" r="4.9" fill="#b5854e"/><circle cx="615.1" cy="327.5" r="6.0" fill="#b5854e"/><circle cx="623.7" cy="380.6" r="3.2" fill="#b5854e"/><circle cx="561.6070144996047" cy="363.352247197181" r="50.4" fill="#f5f2e8"/><circle cx="575.6" cy="369.7" r="18.2" fill="#ef8354"/><circle cx="550.6" cy="374.2" r="18.2" fill="#8a5a3b"/><circle cx="560.4" cy="348.0" r="18.2" fill="#f2ecd8"/></svg>