<svg xmlns="http://www.w3.org/2000/svg" viewBox="0 0 800 600"><defs><radialGradient id="bg-minamit-maki" cx="50%" cy="35%" r="80%"><stop offset="0%" stop-color="#26262c"/><stop offset="100%" stop-color="#141417"/></radialGradient></defs><rect width="800" height="600" fill="url(#bg-minamit-maki)"/><circle cx="242.29496440850198" cy="206.54390353150666" r="70" fill="#000" opacity="0.35"/><circle cx="242.29496440850198" cy="200.54390353150666" r="70" fill="#2e3230"/><circle cx="242.29496440850198" cy="200.54390353150666" r="60.199999999999996" fill="#f5f2e8"/><ellipse cx="189.4" cy="214.8" rx="4" ry="2" fill="#e6e0cf" transform="rotate(107 189.4 214.8)"/><ellipse cx="264.9" cy="161.3" rx="4" ry="2" fill="#e6e0cf" transform="rotate(158 264.9 161.3)"/><ellipse cx="271.5" cy="248.9" rx="4" ry="2" fill="#e6e0cf" transform="rotate(119 271.5 248.9)"/><ellipse cx="293.2" cy="194.2" rx="4" ry="2" fill="#e6e0cf" transform="rotate(145 293.2 194.2)"/><ellipse cx="296.6" cy="183.7" rx="4" ry="2" fill="#e6e0cf" transform="rotate(72 296.6 183.7)"/><ellipse cx="191.0" cy="225.6" rx="4" ry="2" fill="#e6e0cf" transform="rotate(31 191.0 225.6)"/><ellipse cx="287.5" cy="194.8" rx="4" ry="2" fill="#e6e0cf" transform="rotate(64 287.5 194.8)"/><ellipse cx="214.4" cy="243.8" rx="4" ry="2" fill="#e6e0cf" transform="rotate(156 214.4 243.8)"/><ellipse cx="264.7" cy="241.6" rx="4" ry="2" fill="#e6e0cf" transform="rotate(121 264.7 241.6)"/><ellipse cx="248.3" cy="155.7" rx="4" ry="2" fill="#e6e0cf" transform="rotate(26 248.3 155.7)"/><circle cx="256.0" cy="207.5" r="18.2" fill="#ef8354"/><circle cx="229.7" cy="209.4" r="18.2" fill="#8a5a3b"/><circle cx="237.0" cy="186.1" r="18.2" fill="#7fb069"/><circle cx="401.9503883458674" cy="203.61310409754515" r="70" fill="#000" opacity="0.35"/><circle cx="401.9503883458674" cy="197.61310409754515" r="70" fill="#2e3230"/><circle cx="401.9503883458674" cy="197.61310409754515" r="60.199999999999996" fill="#f5f2e8"/><ellipse cx="379.8" cy="151.6" rx="4" ry="2" fill="#e6e0cf" transform="rotate(108 379.8 151.6)"/><ellipse cx="402.1" cy="147.5" rx="4" ry="2" fill="#e6e0cf" transform="rotate(146 402.1 147.5)"/><ellipse cx="440.6" cy="237.5" rx="4" ry="2" fill="#e6e0cf" transform="rotate(83 440.6 237.5)"/><ellipse cx="379.0" cy="150.7" rx="4" ry="2" fill="#e6e0cf" transform="rotate(37 379.0 150.7)"/><ellipse cx="448.7" cy="199.5" rx="4" ry="2" fill="#e6e0cf" transform="rotate(125 448.7 199.5)"/><ellipse cx="388.6" cy="148.3" rx="4" ry="2" fill="#e6e0cf" transform="rotate(150 388.6 148.3)"/><ellipse cx="433.3" cy="155.5" rx="4" ry="2" fill="#e6e0cf" transform="rotate(91 433.3 155.5)"/><ellipse cx="426.6" cy="161.4" rx="4" ry="2" fill="#e6e0cf" transform="rotate(32 426.6 161.4)"/><ellipse cx="375.0" cy="161.5" rx="4" ry="2" fill="#e6e0cf" transform="rotate(157 375.0 161.5)"/><ellipse cx="367.8" cy="226.0" rx="4" ry="2" fill="#e6e0cf" transform="rotate(178 367.8 226.0)"/><circle cx="415.6" cy="204.7" r="18.2" fill="#ef8354"/><circle cx="392.4" cy="209.7" r="18.2" fill="#8a5a3b"/><circle cx="394.4" cy="184.2" r="18.2" fill="#7fb069"/><circle cx="561.3747438583523" cy="203.2685909960419" r="70" fill="#000" opacity="0.35"/><circle cx="561.3747438583523" cy="197.2685909960419" r="70" fill="#2e3230"/><circle cx="561.3747438583523" cy="197.2685909960419" r="60.199999999999996" fill="#f5f2e8"/><ellipse cx="516.8" cy="202.6" rx="4" ry="2" fill="#e6e0cf" transform="rotate(62 516.8 202.6)"/><ellipse cx="573.8" cy="154.0" rx="4" ry="2" fill="#e6e0cf" transform="rotate(3 573.8 154.0)"/><ellipse cx="583.9" cy="159.9" rx="4" ry="2" fill="#e6e0cf" transform="rotate(49 583.9 159.9)"/><ellipse cx="517.4" cy="189.0" rx="4" ry="2" fill="#e6e0cf" transform="rotate(146 517.4 189.0)"/><ellipse cx="515.4" cy="182.3" rx="4" ry="2" fill="#e6e0cf" transform="rotate(38 515.4 182.3)"/><ellipse cx="520.6" cy="181.8" rx="4" ry="2" fill="#e6e0cf" transform="rotate(43 520.6 181.8)"/><ellipse cx="509.8" cy="172.3" rx="4" ry="2" fill="#e6e0cf" transform="rotate(98 509.8 172.3)"/><ellipse cx="592.6" cy="233.2" rx="4" ry="2" fill="#e6e0cf" transform="rotate(36 592.6 233.2)"/><ellipse cx="546.4" cy="251.4" rx="4" ry="2" fill="#e6e0cf" transform="rotate(120 546.4 251.4)"/><ellipse cx="599.8" cy="166.3" rx="4" ry="2" fill="#e6e0cf" transform="rotate(2 599.8 166.3)"/><circle cx="575.7" cy="203.0" r="18.2" fill="#ef8354"/><circle cx="552.7" cy="210.0" r="18.2" fill="#8a5a3b"/><circle cx="555.4" cy="183.1" r="18.2" fill="#7fb069"/><circle cx="239.1694298926741" cy="364.71719280071557" r="70" fill="#000" opacity="0.35"/><circle cx="239.1694298926741" cy="358.71719280071557" r="70" fill="#2e3230"/><circle cx="239.1694298926741" cy="358.71719280071557" r="60.199999999999996" fill="#f5f2e8"/><ellipse cx="289.2" cy="336.4" rx="4" ry="2" fill="#e6e0cf" transform="rotate(153 289.2 336.4)"/><ellipse cx="187.4" cy="380.3" rx="4" ry="2" fill="#e6e0cf" transform="rotate(167 187.4 380.3)"/><ellipse cx="193.5" cy="370.6" rx="4" ry="2" fill="#e6e0cf" transform="rotate(138 193.5 370.6)"/><ellipse cx="235.3" cy="315.3" rx="4" ry="2" fill="#e6e0cf" transform="rotate(130 235.3 315.3)"/><ellipse cx="242.9" cy="311.8" rx="4" ry="2" fill="#e6e0cf" transform="rotate(118 242.9 311.8)"/><ellipse cx="274.9" cy="327.7" rx="4" ry="2" fill="#e6e0cf" transform="rotate(35 274.9 327.7)"/><ellipse cx="209.4" cy="406.0" rx="4" ry="2" fill="#e6e0cf" transform="rotate(161 209.4 406.0)"/><ellipse cx="261.7" cy="399.7" rx="4" ry="2" fill="#e6e0cf" transform="rotate(49 261.7 399.7)"/><ellipse cx="226.3" cy="304.7" rx="4" ry="2" fill="#e6e0cf" transform="rotate(91 226.3 304.7)"/><ellipse cx="289.1" cy="372.4" rx="4" ry="2" fill="#e6e0cf" transform="rotate(164 289.1 372.4)"/><circle cx="254.6" cy="358.8" r="18.2" fill="#ef8354"/><circle cx="231.2" cy="371.9" r="18.2" fill="#8a5a3b"/><circle cx="237.0" cy="343.5" r="18.2" fill="#7fb069"/><circle cx="400.8816960453987" cy="365.1671429630369" r="70" fill="#000" opacity="0.35"/><circle cx="400.8816960453987" cy="359.1671429630369" r="70" fill="#2e3230"/><circle cx="400.8816960453987" cy="359.1671429630369" r="60.199999999999996" fill="#f5f2e8"/><ellipse cx="396.0" cy="403.5" rx="4" ry="2" fill="#e6e0cf" transform="rotate(82 396.0 403.5)"/><ellipse cx="388.0" cy="309.0" rx="4" ry="2" fill="#e6e0cf" transform="rotate(115 388.0 309.0)"/><ellipse cx="370.6" cy="404.1" rx="4" ry="2" fill="#e6e0cf" transform="rotate(134 370.6 404.1)"/><ellipse cx="436.8" cy="331.0" rx="4" ry="2" fill="#e6e0cf" transform="rotate(75 436.8 331.0)"/><ellipse cx="351.1" cy="367.9" rx="4" ry="2" fill="#e6e0cf" transform="rotate(135 351.1 367.9)"/><ellipse cx="377.5" cy="408.8" rx="4" ry="2" fill="#e6e0cf" transform="rotate(44 377.5 408.8)"/><ellipse cx="367.0" cy="398.7" rx="4" ry="2" fill="#e6e0cf" transform="rotate(162 367.0 398.7)"/><ellipse cx="397.8" cy="411.9" rx="4" ry="2" fill="#e6e0cf" transform="rotate(68 397.8 411.9)"/><ellipse cx="440.0" cy="389.0" rx="4" ry="2" fill="#e6e0cf" transform="rotate(31 440.0 389.0)"/><ellipse cx="354.1" cy="348.2" rx="4" ry="2" fill="#e6e0cf" transform="rotate(97 354.1 348.2)"/><circle cx="415.0" cy="365.4" r="18.2" fill="#ef8354"/><circle cx="390.8" cy="370.8" r="18.2" fill="#8a5a3b"/><circle cx="398.8" cy="343.9" r="18.2" fill="#7fb069"/><circle cx="559.7995545603335" cy="370.190914535895" r="70" fill="#000" opacity="0.35"/><circle cx="559.7995545603335" cy="364.190914535895" r="70" fill="#2e3230"/><circle cx="559.7995545603335" cy="364.190914535895" r="60.199999999999996" fill="#f5f2e8"/><ellipse cx="603.5" cy="387.2" rx="4" ry="2" fill="#e6e0cf" transform="rotate(10 603.5 387.2)"/><ellipse cx="597.3" cy="336.7" rx="4" ry="2" fill="#e6e0cf" transform="rotate(73 597.3 336.7)"/><ellipse cx="521.9" cy="396.8" rx="4" ry="2" fill="#e6e0cf" transform="rotate(177 521.9 396.8)"/><ellipse cx="542.8" cy="412.1" rx="4" ry="2" fill="#e6e0cf" transform="rotate(33 542.8 412.1)"/><ellipse cx="510.0" cy="347.6" rx="4" ry="2" fill="#e6e0cf" transform="rotate(166 510.0 347.6)"/><ellipse cx="551.9" cy="312.7" rx="4" ry="2" fill="#e6e0cf" transform="rotate(147 551.9 312.7)"/><ellipse cx="556.6" cy="316.0" rx="4" ry="2" fill="#e6e0cf" transform="rotate(117 556.6 316.0)"/><ellipse cx="532.0" cy="410.7" rx="4" ry="2" fill="#e6e0cf" transform="rotate(178 532.0 410.7)"/><ellipse cx="537.5" cy="326.8" rx="4" ry="2" fill="#e6e0cf" transform="rotate(33 537.5 326.8)"/><ellipse cx="609.8" cy="367.8" rx="4" ry="2" fill="#e6e0cf" transform="rotate(178 609.8 367.8)"/><circle cx="574.5" cy="368.9" r="18.2" fill="#ef8354"/><circle cx="550.0" cy="376.1" r="18.2" fill="#8a5a3b"/><circle cx="555.9" cy="349.3" r="18.2" fill="#7fb069"/></svg>