<svg xmlns="http://www.w3.org/2000/svg" viewBox="0 0 800 600"><defs><radialGradient id="bg-mini-set" cx="50%" cy="35%" r="80%"><stop offset="0%" stop-color="#26262c"/><stop offset="100%" stop-color="#141417"/></radialGradient></defs><rect width="800" height="600" fill="url(#bg-mini-set)"/><circle cx="187.900466715917" cy="146.06915472447872" r="62.5" fill="#000" opacity="0.35"/><circle cx="187.900466715917" cy="140.06915472447872" r="62.5" fill="#f5f2e8"/><circle cx="187.900466715917" cy="140.06915472447872" r="53.75" fill="#f5f2e8"/><ellipse cx="226.8" cy="154.6" rx="4" ry="2" fill="#e6e0cf" transform="rotate(105 226.8 154.6)"/><ellipse cx="166.1" cy="98.0" rx="4" ry="2" fill="#e6e0cf" transform="rotate(50 166.1 98.0)"/><ellipse cx="151.8" cy="173.7" rx="4" ry="2" fill="#e6e0cf" transform="rotate(72 151.8 173.7)"/><ellipse cx="142.1" cy="157.4" rx="4" ry="2" fill="#e6e0cf" transform="rotate(3 142.1 157.4)"/><ellipse cx="175.0" cy="180.3" rx="4" ry="2" fill="#e6e0cf" transform="rotate(67 175.0 180.3)"/><ellipse cx="193.1" cy="180.9" rx="4" ry="2" fill="#e6e0cf" transform="rotate(96 193.1 180.9)"/><ellipse cx="138.9" cy="143.9" rx="4" ry="2" fill="#e6e0cf" transform="rotate(123 138.9 143.9)"/><ellipse cx="179.4" cy="93.0" rx="4" ry="2" fill="#e6e0cf" transform="rotate(136 179.4 93.0)"/><ellipse cx="153.1" cy="175.4" rx="4" ry="2" fill="#e6e0cf" transform="rotate(128 153.1 175.4)"/><ellipse cx="235.7" cy="134.6" rx="4" ry="2" fill="#e6e0cf" transform="rotate(158 235.7 134.6)"/><circle cx="187.9" cy="140.1" r="25.0" fill="#8a5a3b"/><circle cx="328.28643917292356" cy="145.06244079209864" r="62.5" fill="#000" opacity="0.35"/><circle cx="328.28643917292356" cy="139.06244079209864" r="62.5" fill="#f5f2e8"/><circle cx="328.28643917292356" cy="139.06244079209864" r="53.75" fill="#f5f2e8"/><ellipse cx="303.7" cy="176.7" rx="4" ry="2" fill="#e6e0cf" transform="rotate(20 303.7 176.7)"/><ellipse cx="352.6" cy="171.6" rx="4" ry="2" fill="#e6e0cf" transform="rotate(177 352.6 171.6)"/><ellipse cx="298.6" cy="107.1" rx="4" ry="2" fill="#e6e0cf" transform="rotate(24 298.6 107.1)"/><ellipse cx="359.4" cy="111.0" rx="4" ry="2" fill="#e6e0cf" transform="rotate(1 359.4 111.0)"/><ellipse cx="378.4" cy="146.1" rx="4" ry="2" fill="#e6e0cf" transform="rotate(158 378.4 146.1)"/><ellipse cx="289.9" cy="167.8" rx="4" ry="2" fill="#e6e0cf" transform="rotate(8 289.9 167.8)"/><ellipse cx="358.4" cy="113.8" rx="4" ry="2" fill="#e6e0cf" transform="rotate(144 358.4 113.8)"/><ellipse cx="377.5" cy="146.7" rx="4" ry="2" fill="#e6e0cf" transform="rotate(23 377.5 146.7)"/><ellipse cx="311.3" cy="187.3" rx="4" ry="2" fill="#e6e0cf" transform="rotate(21 311.3 187.3)"/><ellipse cx="290.4" cy="128.8" rx="4" ry="2" fill="#e6e0cf" transform="rotate(127 290.4 128.8)"/><circle cx="328.3" cy="139.1" r="25.0" fill="#8a5a3b"/><circle cx="471.4852363821119" cy="145.54946905188262" r="62.5" fill="#000" opacity="0.35"/><circle cx="471.4852363821119" cy="139.54946905188262" r="62.5" fill="#f5f2e8"/><circle cx="471.4852363821119" cy="139.54946905188262" r="53.75" fill="#f5f2e8"/><ellipse cx="501.3" cy="112.3" rx="4" ry="2" fill="#e6e0cf" transform="rotate(27 501.3 112.3)"/><ellipse cx="451.1" cy="101.1" rx="4" ry="2" fill="#e6e0cf" transform="rotate(130 451.1 101.1)"/><ellipse cx="500.7" cy="103.2" rx="4" ry="2" fill="#e6e0cf" transform="rotate(91 500.7 103.2)"/><ellipse cx="500.0" cy="108.7" rx="4" ry="2" fill="#e6e0cf" transform="rotate(71 500.0 108.7)"/><ellipse cx="447.7" cy="96.2" rx="4" ry="2" fill="#e6e0cf" transform="rotate(159 447.7 96.2)"/><ellipse cx="483.4" cy="91.0" rx="4" ry="2" fill="#e6e0cf" transform="rotate(111 483.4 91.0)"/><ellipse cx="516.4" cy="115.7" rx="4" ry="2" fill="#e6e0cf" transform="rotate(139 516.4 115.7)"/><ellipse cx="518.5" cy="142.2" rx="4" ry="2" fill="#e6e0cf" transform="rotate(58 518.5 142.2)"/><ellipse cx="464.0" cy="188.6" rx="4" ry="2" fill="#e6e0cf" transform="rotate(163 464.0 188.6)"/><ellipse cx="447.7" cy="105.3" rx="4" ry="2" fill="#e6e0cf" transform="rotate(152 447.7 105.3)"/><circle cx="471.5" cy="139.5" r="25.0" fill="#8a5a3b"/><circle cx="612.8045757450163" cy="140.53531952947378" r="62.5" fill="#000" opacity="0.35"/><circle cx="612.8045757450163" cy="134.53531952947378" r="62.5" fill="#f5f2e8"/><circle cx="612.8045757450163" cy="134.53531952947378" r="53.75" fill="#f5f2e8"/><ellipse cx="582.9" cy="102.7" rx="4" ry="2" fill="#e6e0cf" transform="rotate(22 582.9 102.7)"/><ellipse cx="648.9" cy="158.1" rx="4" ry="2" fill="#e6e0cf" transform="rotate(32 648.9 158.1)"/><ellipse cx="583.9" cy="162.9" rx="4" ry="2" fill="#e6e0cf" transform="rotate(75 583.9 162.9)"/><ellipse cx="570.7" cy="155.9" rx="4" ry="2" fill="#e6e0cf" transform="rotate(165 570.7 155.9)"/><ellipse cx="649.4" cy="167.7" rx="4" ry="2" fill="#e6e0cf" transform="rotate(69 649.4 167.7)"/><ellipse cx="579.2" cy="111.8" rx="4" ry="2" fill="#e6e0cf" transform="rotate(145 579.2 111.8)"/><ellipse cx="566.6" cy="131.8" rx="4" ry="2" fill="#e6e0cf" transform="rotate(74 566.6 131.8)"/><ellipse cx="575.8" cy="146.5" rx="4" ry="2" fill="#e6e0cf" transform="rotate(127 575.8 146.5)"/><ellipse cx="634.1" cy="101.8" rx="4" ry="2" fill="#e6e0cf" transform="rotate(97 634.1 101.8)"/><ellipse cx="631.1" cy="91.8" rx="4" ry="2" fill="#e6e0cf" transform="rotate(16 631.1 91.8)"/><circle cx="612.8" cy="134.5" r="25.0" fill="#8a5a3b"/><circle cx="184.8581147491932" cy="285.68747918121517" r="62.5" fill="#000" opacity="0.35"/><circle cx="184.8581147491932" cy="279.68747918121517" r="62.5" fill="#f5f2e8"/><circle cx="184.8581147491932" cy="279.68747918121517" r="53.75" fill="#f5f2e8"/><ellipse cx="143.8" cy="274.9" rx="4" ry="2" fill="#e6e0cf" transform="rotate(97 143.8 274.9)"/><ellipse cx="154.8" cy="320.3" rx="4" ry="2" fill="#e6e0cf" transform="rotate(107 154.8 320.3)"/><ellipse cx="149.4" cy="307.0" rx="4" ry="2" fill="#e6e0cf" transform="rotate(126 149.4 307.0)"/><ellipse cx="152.7" cy="240.6" rx="4" ry="2" fill="#e6e0cf" transform="rotate(64 152.7 240.6)"/><ellipse cx="193.8" cy="241.3" rx="4" ry="2" fill="#e6e0cf" transform="rotate(117 193.8 241.3)"/><ellipse cx="150.0" cy="258.9" rx="4" ry="2" fill="#e6e0cf" transform="rotate(111 150.0 258.9)"/><ellipse cx="225.7" cy="287.1" rx="4" ry="2" fill="#e6e0cf" transform="rotate(71 225.7 287.1)"/><ellipse cx="231.1" cy="273.0" rx="4" ry="2" fill="#e6e0cf" transform="rotate(13 231.1 273.0)"/><ellipse cx="220.8" cy="260.3" rx="4" ry="2" fill="#e6e0cf" transform="rotate(17 220.8 260.3)"/><ellipse cx="217.1" cy="316.4" rx="4" ry="2" fill="#e6e0cf" transform="rotate(72 217.1 316.4)"/><circle cx="184.9" cy="279.7" r="25.0" fill="#8a5a3b"/><circle cx="329.2598277833313" cy="286.6095299925655" r="62.5" fill="#000" opacity="0.35"/><circle cx="329.2598277833313" cy="280.6095299925655" r="62.5" fill="#f5f2e8"/><circle cx="329.2598277833313" cy="280.6095299925655" r="53.75" fill="#f5f2e8"/><ellipse cx="304.3" cy="247.0" rx="4" ry="2" fill="#e6e0cf" transform="rotate(9 304.3 247.0)"/><ellipse cx="350.7" cy="313.0" rx="4" ry="2" fill="#e6e0cf" transform="rotate(15 350.7 313.0)"/><ellipse cx="354.8" cy="312.3" rx="4" ry="2" fill="#e6e0cf" transform="rotate(159 354.8 312.3)"/><ellipse cx="292.9" cy="252.1" rx="4" ry="2" fill="#e6e0cf" transform="rotate(41 292.9 252.1)"/><ellipse cx="353.3" cy="249.3" rx="4" ry="2" fill="#e6e0cf" transform="rotate(118 353.3 249.3)"/><ellipse cx="361.8" cy="243.0" rx="4" ry="2" fill="#e6e0cf" transform="rotate(81 361.8 243.0)"/><ellipse cx="355.4" cy="314.2" rx="4" ry="2" fill="#e6e0cf" transform="rotate(68 355.4 314.2)"/><ellipse cx="373.3" cy="267.0" rx="4" ry="2" fill="#e6e0cf" transform="rotate(82 373.3 267.0)"/><ellipse cx="320.1" cy="326.4" rx="4" ry="2" fill="#e6e0cf" transform="rotate(116 320.1 326.4)"/><ellipse cx="311.6" cy="327.4" rx="4" ry="2" fill="#e6e0cf" transform="rotate(47 311.6 327.4)"/><circle cx="329.3" cy="280.6" r="25.0" fill="#8a5a3b"/><circle cx="475.4143674708903" cy="288.0734019353986" r="62.5" fill="#000" opacity="0.35"/><circle cx="475.4143674708903" cy="282.0734019353986" r="62.5" fill="#f5f2e8"/><circle cx="475.4143674708903" cy="282.0734019353986" r="53.75" fill="#f5f2e8"/><ellipse cx="491.2" cy="326.8" rx="4" ry="2" fill="#e6e0cf" transform="rotate(143 491.2 326.8)"/><ellipse cx="453.2" cy="236.8" rx="4" ry="2" fill="#e6e0cf" transform="rotate(14 453.2 236.8)"/><ellipse cx="435.0" cy="268.7" rx="4" ry="2" fill="#e6e0cf" transform="rotate(92 435.0 268.7)"/><ellipse cx="517.4" cy="283.5" rx="4" ry="2" fill="#e6e0cf" transform="rotate(106 517.4 283.5)"/><ellipse cx="517.1" cy="257.1" rx="4" ry="2" fill="#e6e0cf" transform="rotate(154 517.1 257.1)"/><ellipse cx="494.9" cy="243.6" rx="4" ry="2" fill="#e6e0cf" transform="rotate(134 494.9 243.6)"/><ellipse cx="459.1" cy="241.8" rx="4" ry="2" fill="#e6e0cf" transform="rotate(164 459.1 241.8)"/><ellipse cx="485.7" cy="319.6" rx="4" ry="2" fill="#e6e0cf" transform="rotate(68 485.7 319.6)"/><ellipse cx="484.5" cy="327.3" rx="4" ry="2" fill="#e6e0cf" transform="rotate(94 484.5 327.3)"/><ellipse cx="464.4" cy="319.9" rx="4" ry="2" fill="#e6e0cf" transform="rotate(4 464.4 319.9)"/><circle cx="475.4" cy="282.1" r="25.0" fill="#8a5a3b"/><circle cx="614.5225206445903" cy="282.17095580510795" r="62.5" fill="#000" opacity="0.35"/><circle cx="614.5225206445903" cy="276.17095580510795" r="62.5" fill="#f5f2e8"/><circle cx="614.5225206445903" cy="276.17095580510795" r="53.75" fill="#f5f2e8"/><ellipse cx="580.5" cy="307.6" rx="4" ry="2" fill="#e6e0cf" transform="rotate(82 580.5 307.6)"/><ellipse cx="641.8" cy="234.5" rx="4" ry="2" fill="#e6e0cf" transform="rotate(9 641.8 234.5)"/><ellipse cx="616.4" cy="317.8" rx="4" ry="2" fill="#e6e0cf" transform="rotate(85 616.4 317.8)"/><ellipse cx="605.8" cy="323.9" rx="4" ry="2" fill="#e6e0cf" transform="rotate(77 605.8 323.9)"/><ellipse cx="576.0" cy="294.8" rx="4" ry="2" fill="#e6e0cf" transform="rotate(81 576.0 294.8)"/><ellipse cx="574.1" cy="299.9" rx="4" ry="2" fill="#e6e0cf" transform="rotate(180 574.1 299.9)"/><ellipse cx="639.9" cy="239.5" rx="4" ry="2" fill="#e6e0cf" transform="rotate(66 639.9 239.5)"/><ellipse cx="658.7" cy="300.5" rx="4" ry="2" fill="#e6e0cf" transform="rotate(30 658.7 300.5)"/><ellipse cx="565.6" cy="270.6" rx="4" ry="2" fill="#e6e0cf" transform="rotate(144 565.6 270.6)"/><ellipse cx="641.3" cy="247.0" rx="4" ry="2" fill="#e6e0cf" transform="rotate(17 641.3 247.0)"/><circle cx="614.5" cy="276.2" r="25.0" fill="#8a5a3b"/><circle cx="182.87995467707515" cy="431.8797474745661" r="62.5" fill="#000" opacity="0.35"/><circle cx="182.87995467707515" cy="425.8797474745661" r="62.5" fill="#f5f2e8"/><circle cx="182.87995467707515" cy="425.8797474745661" r="53.75" fill="#f5f2e8"/><ellipse cx="133.4" cy="423.1" rx="4" ry="2" fill="#e6e0cf" transform="rotate(113 133.4 423.1)"/><ellipse cx="151.8" cy="461.2" rx="4" ry="2" fill="#e6e0cf" transform="rotate(177 151.8 461.2)"/><ellipse cx="211.1" cy="461.7" rx="4" ry="2" fill="#e6e0cf" transform="rotate(77 211.1 461.7)"/><ellipse cx="184.0" cy="376.5" rx="4" ry="2" fill="#e6e0cf" transform="rotate(168 184.0 376.5)"/><ellipse cx="214.7" cy="402.3" rx="4" ry="2" fill="#e6e0cf" transform="rotate(131 214.7 402.3)"/><ellipse cx="136.6" cy="446.1" rx="4" ry="2" fill="#e6e0cf" transform="rotate(36 136.6 446.1)"/><ellipse cx="161.9" cy="387.3" rx="4" ry="2" fill="#e6e0cf" transform="rotate(12 161.9 387.3)"/><ellipse cx="164.6" cy="468.5" rx="4" ry="2" fill="#e6e0cf" transform="rotate(168 164.6 468.5)"/><ellipse cx="141.0" cy="430.0" rx="4" ry="2" fill="#e6e0cf" transform="rotate(11 141.0 430.0)"/><ellipse cx="195.0" cy="475.1" rx="4" ry="2" fill="#e6e0cf" transform="rotate(6 195.0 475.1)"/><circle cx="182.9" cy="425.9" r="25.0" fill="#8a5a3b"/><circle cx="324.35366465710104" cy="433.0601077284664" r="62.5" fill="#000" opacity="0.35"/><circle cx="324.35366465710104" cy="427.0601077284664" r="62.5" fill="#f5f2e8"/><circle cx="324.35366465710104" cy="427.0601077284664" r="53.75" fill="#f5f2e8"/><ellipse cx="318.3" cy="376.4" rx="4" ry="2" fill="#e6e0cf" transform="rotate(98 318.3 376.4)"/><ellipse cx="277.9" cy="410.2" rx="4" ry="2" fill="#e6e0cf" transform="rotate(111 277.9 410.2)"/><ellipse cx="367.1" cy="442.6" rx="4" ry="2" fill="#e6e0cf" transform="rotate(107 367.1 442.6)"/><ellipse cx="353.2" cy="395.0" rx="4" ry="2" fill="#e6e0cf" transform="rotate(11 353.2 395.0)"/><ellipse cx="284.3" cy="457.9" rx="4" ry="2" fill="#e6e0cf" transform="rotate(159 284.3 457.9)"/><ellipse cx="328.8" cy="477.6" rx="4" ry="2" fill="#e6e0cf" transform="rotate(144 328.8 477.6)"/><ellipse cx="279.2" cy="447.0" rx="4" ry="2" fill="#e6e0cf" transform="rotate(120 279.2 447.0)"/><ellipse cx="367.8" cy="403.1" rx="4" ry="2" fill="#e6e0cf" transform="rotate(31 367.8 403.1)"/><ellipse cx="359.3" cy="398.7" rx="4" ry="2" fill="#e6e0cf" transform="rotate(121 359.3 398.7)"/><ellipse cx="294.5" cy="455.4" rx="4" ry="2" fill="#e6e0cf" transform="rotate(147 294.5 455.4)"/><circle cx="324.4" cy="427.1" r="25.0" fill="#8a5a3b"/><circle cx="469.67115479521453" cy="430.20776673592627" r="62.5" fill="#000" opacity="0.35"/><circle cx="469.67115479521453" cy="424.20776673592627" r="62.5" fill="#f5f2e8"/><circle cx="469.67115479521453" cy="424.20776673592627" r="53.75" fill="#f5f2e8"/><ellipse cx="464.6" cy="382.3" rx="4" ry="2" fill="#e6e0cf" transform="rotate(14 464.6 382.3)"/><ellipse cx="424.3" cy="403.3" rx="4" ry="2" fill="#e6e0cf" transform="rotate(175 424.3 403.3)"/><ellipse cx="435.8" cy="399.5" rx="4" ry="2" fill="#e6e0cf" transform="rotate(136 435.8 399.5)"/><ellipse cx="505.0" cy="391.8" rx="4" ry="2" fill="#e6e0cf" transform="rotate(67 505.0 391.8)"/><ellipse cx="472.4" cy="471.3" rx="4" ry="2" fill="#e6e0cf" transform="rotate(100 472.4 471.3)"/><ellipse cx="467.3" cy="473.7" rx="4" ry="2" fill="#e6e0cf" transform="rotate(103 467.3 473.7)"/><ellipse cx="479.5" cy="464.7" rx="4" ry="2" fill="#e6e0cf" transform="rotate(91 479.5 464.7)"/><ellipse cx="511.1" cy="453.5" rx="4" ry="2" fill="#e6e0cf" transform="rotate(51 511.1 453.5)"/><ellipse cx="432.8" cy="395.7" rx="4" ry="2" fill="#e6e0cf" transform="rotate(170 432.8 395.7)"/><ellipse cx="515.3" cy="408.4" rx="4" ry="2" fill="#e6e0cf" transform="rotate(35 515.3 408.4)"/><circle cx="469.7" cy="424.2" r="25.0" fill="#8a5a3b"/><circle cx="617.2000474184752" cy="428.60638023912907" r="62.5" fill="#000" opacity="0.35"/><circle cx="617.2000474184752" cy="422.60638023912907" r="62.5" fill="#f5f2e8"/><circle cx="617.2000474184752" cy="422.60638023912907" r="53.75" fill="#f5f2e8"/><ellipse cx="627.8" cy="471.7" rx="4" ry="2" fill="#e6e0cf" transform="rotate(97 627.8 471.7)"/><ellipse cx="597.4" cy="382.7" rx="4" ry="2" fill="#e6e0cf" transform="rotate(26 597.4 382.7)"/><ellipse cx="655.1" cy="452.9" rx="4" ry="2" fill="#e6e0cf" transform="rotate(50 655.1 452.9)"/><ellipse cx="645.6" cy="463.1" rx="4" ry="2" fill="#e6e0cf" transform="rotate(23 645.6 463.1)"/><ellipse cx="586.2" cy="395.5" rx="4" ry="2" fill="#e6e0cf" transform="rotate(103 586.2 395.5)"/><ellipse cx="609.3" cy="380.2" rx="4" ry="2" fill="#e6e0cf" transform="rotate(98 609.3 380.2)"/><ellipse cx="579.2" cy="438.1" rx="4" ry="2" fill="#e6e0cf" transform="rotate(2 579.2 438.1)"/><ellipse cx="656.9" cy="406.0" rx="4" ry="2" fill="#e6e0cf" transform="rotate(61 656.9 406.0)"/><ellipse cx="577.2" cy="422.0" rx="4" ry="2" fill="#e6e0cf" transform="rotate(162 577.2 422.0)"/><ellipse cx="575.4" cy="393.8" rx="4" ry="2" fill="#e6e0cf" transform="rotate(169 575.4 393.8)"/><circle cx="617.2" cy="422.6" r="25.0" fill="#8a5a3b"/></svg>