<svg xmlns="http://www.w3.org/2000/svg" viewBox="0 0 800 600"><defs><radialGradient id="bg-niku-maki" cx="50%" cy="35%" r="80%"><stop offset="0%" stop-color="#26262c"/><stop offset="100%" stop-color="#141417"/></radialGradient></defs><rect width="800" height="600" fill="url(#bg-niku-maki)"/><circle cx="238.70490236766636" cy="209.42221467942" r="70" fill="#000" opacity="0.35"/><circle cx="238.70490236766636" cy="203.42221467942" r="70" fill="#f5f2e8"/><circle cx="238.70490236766636" cy="203.42221467942" r="60.199999999999996" fill="#f5f2e8"/><ellipse cx="256.3" cy="246.7" rx="4" ry="2" fill="#e6e0cf" transform="rotate(105 256.3 246.7)"/><ellipse cx="286.9" cy="172.5" rx="4" ry="2" fill="#e6e0cf" transform="rotate(93 286.9 172.5)"/><ellipse cx="249.1" cy="159.8" rx="4" ry="2" fill="#e6e0cf" transform="rotate(41 249.1 159.8)"/><ellipse cx="203.3" cy="242.6" rx="4" ry="2" fill="#e6e0cf" transform="rotate(54 203.3 242.6)"/><ellipse cx="204.6" cy="241.5" rx="4" ry="2" fill="#e6e0cf" transform="rotate(20 204.6 241.5)"/><ellipse cx="237.6" cy="256.1" rx="4" ry="2" fill="#e6e0cf" transform="rotate(93 237.6 256.1)"/><ellipse cx="252.9" cy="246.4" rx="4" ry="2" fill="#e6e0cf" transform="rotate(18 252.9 246.4)"/><ellipse cx="268.8" cy="240.0" rx="4" ry="2" fill="#e6e0cf" transform="rotate(111 268.8 240.0)"/><ellipse cx="227.3" cy="254.8" rx="4" ry="2" fill="#e6e0cf" transform="rotate(59 227.3 254.8)"/><ellipse cx="218.7" cy="162.2" rx="4" ry="2" fill="#e6e0cf" transform="rotate(139 218.7 162.2)"/><circle cx="254.0" cy="204.8" r="18.2" fill="#ef8354"/><circle cx="228.4" cy="214.9" r="18.2" fill="#7fb069"/><circle cx="235.9" cy="188.3" r="18.2" fill="#f2ecd8"/><circle cx="401.26291074045" cy="205.0088413450867" r="70" fill="#000" opacity="0.35"/><circle cx="401.26291074045" cy="199.0088413450867" r="70" fill="#f5f2e8"/><circle cx="401.26291074045" cy="199.0088413450867" r="60.199999999999996" fill="#f5f2e8"/><ellipse cx="437.5" cy="235.1" rx="4" ry="2" fill="#e6e0cf" transform="rotate(61 437.5 235.1)"/><ellipse cx="383.7" cy="156.2" rx="4" ry="2" fill="#e6e0cf" transform="rotate(142 383.7 156.2)"/><ellipse cx="356.0" cy="172.9" rx="4" ry="2" fill="#e6e0cf" transform="rotate(82 356.0 172.9)"/><ellipse cx="444.5" cy="167.7" rx="4" ry="2" fill="#e6e0cf" transform="rotate(120 444.5 167.7)"/><ellipse cx="389.4" cy="147.3" rx="4" ry="2" fill="#e6e0cf" transform="rotate(148 389.4 147.3)"/><ellipse cx="357.6" cy="235.1" rx="4" ry="2" fill="#e6e0cf" transform="rotate(101 357.6 235.1)"/><ellipse cx="398.1" cy="253.6" rx="4" ry="2" fill="#e6e0cf" transform="rotate(154 398.1 253.6)"/><ellipse cx="378.5" cy="149.7" rx="4" ry="2" fill="#e6e0cf" transform="rotate(2 378.5 149.7)"/><ellipse cx="457.8" cy="194.2" rx="4" ry="2" fill="#e6e0cf" transform="rotate(148 457.8 194.2)"/><ellipse cx="359.5" cy="164.5" rx="4" ry="2" fill="#e6e0cf" transform="rotate(6 359.5 164.5)"/><circle cx="416.6" cy="200.4" r="18.2" fill="#ef8354"/><circle cx="389.0" cy="208.4" r="18.2" fill="#7fb069"/><circle cx="399.8" cy="183.7" r="18.2" fill="#f2ecd8"/><circle cx="562.6975583434105" cy="203.00446518324316" r="70" fill="#000" opacity="0.35"/><circle cx="562.6975583434105" cy="197.00446518324316" r="70" fill="#f5f2e8"/><circle cx="562.6975583434105" cy="197.00446518324316" r="60.199999999999996" fill="#f5f2e8"/><ellipse cx="527.1" cy="238.8" rx="4" ry="2" fill="#e6e0cf" transform="rotate(175 527.1 238.8)"/><ellipse cx="518.7" cy="205.9" rx="4" ry="2" fill="#e6e0cf" transform="rotate(163 518.7 205.9)"/><ellipse cx="543.1" cy="239.4" rx="4" ry="2" fill="#e6e0cf" transform="rotate(120 543.1 239.4)"/><ellipse cx="598.9" cy="163.2" rx="4" ry="2" fill="#e6e0cf" transform="rotate(100 598.9 163.2)"/><ellipse cx="608.1" cy="194.2" rx="4" ry="2" fill="#e6e0cf" transform="rotate(25 608.1 194.2)"/><ellipse cx="521.7" cy="164.7" rx="4" ry="2" fill="#e6e0cf" transform="rotate(134 521.7 164.7)"/><ellipse cx="608.8" cy="172.5" rx="4" ry="2" fill="#e6e0cf" transform="rotate(113 608.8 172.5)"/><ellipse cx="512.7" cy="200.9" rx="4" ry="2" fill="#e6e0cf" transform="rotate(180 512.7 200.9)"/><ellipse cx="515.6" cy="172.3" rx="4" ry="2" fill="#e6e0cf" transform="rotate(72 515.6 172.3)"/><ellipse cx="612.6" cy="209.5" rx="4" ry="2" fill="#e6e0cf" transform="rotate(103 612.6 209.5)"/><circle cx="576.4" cy="204.1" r="18.2" fill="#ef8354"/><circle cx="552.6" cy="208.7" r="18.2" fill="#7fb069"/><circle cx="561.7" cy="181.6" r="18.2" fill="#f2ecd8"/><circle cx="238.7300164680928" cy="365.7153608221561" r="70" fill="#000" opacity="0.35"/><circle cx="238.7300164680928" cy="359.7153608221561" r="70" fill="#f5f2e8"/><circle cx="238.7300164680928" cy="359.7153608221561" r="60.199999999999996" fill="#f5f2e8"/><ellipse cx="235.8" cy="302.6" rx="4" ry="2" fill="#e6e0cf" transform="rotate(67 235.8 302.6)"/><ellipse cx="201.5" cy="333.4" rx="4" ry="2" fill="#e6e0cf" transform="rotate(40 201.5 333.4)"/><ellipse cx="245.7" cy="408.7" rx="4" ry="2" fill="#e6e0cf" transform="rotate(109 245.7 408.7)"/><ellipse cx="245.0" cy="402.8" rx="4" ry="2" fill="#e6e0cf" transform="rotate(115 245.0 402.8)"/><ellipse cx="233.4" cy="413.4" rx="4" ry="2" fill="#e6e0cf" transform="rotate(132 233.4 413.4)"/><ellipse cx="268.9" cy="393.8" rx="4" ry="2" fill="#e6e0cf" transform="rotate(160 268.9 393.8)"/><ellipse cx="256.8" cy="312.3" rx="4" ry="2" fill="#e6e0cf" transform="rotate(153 256.8 312.3)"/><ellipse cx="220.2" cy="314.1" rx="4" ry="2" fill="#e6e0cf" transform="rotate(10 220.2 314.1)"/><ellipse cx="194.3" cy="392.9" rx="4" ry="2" fill="#e6e0cf" transform="rotate(48 194.3 392.9)"/><ellipse cx="289.3" cy="336.2" rx="4" ry="2" fill="#e6e0cf" transform="rotate(153 289.3 336.2)"/><circle cx="253.6" cy="363.9" r="18.2" fill="#ef8354"/><circle cx="229.0" cy="371.6" r="18.2" fill="#7fb069"/><circle cx="231.7" cy="346.0" r="18.2" fill="#f2ecd8"/><circle cx="398.6056227777153" cy="364.5431495048106" r="70" fill="#000" opacity="0.35"/><circle cx="398.6056227777153" cy="358.5431495048106" r="70" fill="#f5f2e8"/><circle cx="398.6056227777153" cy="358.5431495048106" r="60.199999999999996" fill="#f5f2e8"/><ellipse cx="403.1" cy="312.4" rx="4" ry="2" fill="#e6e0cf" transform="rotate(20 403.1 312.4)"/><ellipse cx="450.7" cy="344.4" rx="4" ry="2" fill="#e6e0cf" transform="rotate(165 450.7 344.4)"/><ellipse cx="357.1" cy="341.7" rx="4" ry="2" fill="#e6e0cf" transform="rotate(129 357.1 341.7)"/><ellipse cx="407.3" cy="313.6" rx="4" ry="2" fill="#e6e0cf" transform="rotate(89 407.3 313.6)"/><ellipse cx="381.2" cy="401.1" rx="4" ry="2" fill="#e6e0cf" transform="rotate(167 381.2 401.1)"/><ellipse cx="436.4" cy="391.1" rx="4" ry="2" fill="#e6e0cf" transform="rotate(46 436.4 391.1)"/><ellipse cx="397.8" cy="415.3" rx="4" ry="2" fill="#e6e0cf" transform="rotate(73 397.8 415.3)"/><ellipse cx="402.2" cy="415.2" rx="4" ry="2" fill="#e6e0cf" transform="rotate(101 402.2 415.2)"/><ellipse cx="412.4" cy="316.1" rx="4" ry="2" fill="#e6e0cf" transform="rotate(164 412.4 316.1)"/><ellipse cx="376.7" cy="401.1" rx="4" ry="2" fill="#e6e0cf" transform="rotate(103 376.7 401.1)"/><circle cx="413.8" cy="361.0" r="18.2" fill="#ef8354"/><circle cx="389.5" cy="371.0" r="18.2" fill="#7fb069"/><circle cx="391.5" cy="344.9" r="18.2" fill="#f2ecd8"/><circle cx="561.9639594517648" cy="363.3174752201885" r="70" fill="#000" opacity="0.35"/><circle cx="561.9639594517648" cy="357.3174752201885" r="70" fill="#f5f2e8"/><circle cx="561.9639594517648" cy="357.3174752201885" r="60.199999999999996" fill="#f5f2e8"/><ellipse cx="522.6" cy="384.2" rx="4" ry="2" fill="#e6e0cf" transform="rotate(136 522.6 384.2)"/><ellipse cx="578.9" cy="309.3" rx="4" ry="2" fill="#e6e0cf" transform="rotate(175 578.9 309.3)"/><ellipse cx="614.0" cy="368.2" rx="4" ry="2" fill="#e6e0cf" transform="rotate(146 614.0 368.2)"/><ellipse cx="590.8" cy="390.0" rx="4" ry="2" fill="#e6e0cf" transform="rotate(21 590.8 390.0)"/><ellipse cx="598.8" cy="331.7" rx="4" ry="2" fill="#e6e0cf" transform="rotate(12 598.8 331.7)"/><ellipse cx="522.4" cy="384.2" rx="4" ry="2" fill="#e6e0cf" transform="rotate(99 522.4 384.2)"/><ellipse cx="546.3" cy="408.3" rx="4" ry="2" fill="#e6e0cf" transform="rotate(65 546.3 408.3)"/><ellipse cx="596.7" cy="402.0" rx="4" ry="2" fill="#e6e0cf" transform="rotate(165 596.7 402.0)"/><ellipse cx="532.4" cy="314.8" rx="4" ry="2" fill="#e6e0cf" transform="rotate(75 532.4 314.8)"/><ellipse cx="520.8" cy="381.2" rx="4" ry="2" fill="#e6e0cf" transform="rotate(38 520.8 381.2)"/><circle cx="577.3" cy="358.4" r="18.2" fill="#ef8354"/><circle cx="549.0" cy="365.6" r="18.2" fill="#7fb069"/><circle cx="560.9" cy="342.0" r="18.2" fill="#f2ecd8"/></svg>