<svg xmlns="http://www.w3.org/2000/svg" viewBox="0 0 800 600"><defs><radialGradient id="bg-nivatori-tempura" cx="50%" cy="35%" r="80%"><stop offset="0%" stop-color="#ffffff"/><stop offset="100%" stop-color="#efeff2"/></radialGradient></defs><rect width="800" height="600" fill="url(#bg-nivatori-tempura)"/><circle cx="239.2773387171328" cy="204.4033699017018" r="70" fill="#000" opacity="0.1"/><circle cx="239.2773387171328" cy="198.4033699017018" r="70" fill="#d9a45b" stroke="#c08c4a" stroke-width="2"/><circle cx="302.7" cy="209.6" r="4.3" fill="#b5854e"/><circle cx="255.5" cy="260.7" r="4.7" fill="#b5854e"/><circle cx="218.8" cy="259.5" r="5.1" fill="#b5854e"/><circle cx="225.6" cy="261.3" r="6.5" fill="#b5854e"/><circle cx="180.1" cy="223.9" r="4.7" fill="#b5854e"/><circle cx="175.5" cy="207.4" r="6.5" fill="#b5854e"/><circle cx="174.9" cy="197.7" r="3.1" fill="#b5854e"/><circle cx="182.7" cy="167.6" r="3.5" fill="#b5854e"/><circle cx="194.9" cy="151.7" r="5.3" fill="#b5854e"/><circle cx="245.2" cy="134.3" r="3.5" fill="#b5854e"/><circle cx="246.2" cy="134.4" r="5.2" fill="#b5854e"/><circle cx="276.4" cy="145.8" r="6.9" fill="#b5854e"/><circle cx="303.6" cy="195.8" r="4.6" fill="#b5854e"/><circle cx="297.5" cy="171.0" r="6.6" fill="#b5854e"/><circle cx="239.2773387171328" cy="198.4033699017018" r="50.4" fill="#f5f2e8"/><circle cx="254.3" cy="201.9" r="18.2" fill="#ef8354"/><circle cx="231.1" cy="211.5" r="18.2" fill="#7fb069"/><circle cx="238.1" cy="183.0" r="18.2" fill="#f2ecd8"/><circle cx="396.31630524620414" cy="207.96273986808956" r="70" fill="#000" opacity="0.1"/><circle cx="396.31630524620414" cy="201.96273986808956" r="70" fill="#d9a45b" stroke="#c08c4a" stroke-width="2"/><circle cx="444.4" cy="244.8" r="6.0" fill="#b5854e"/><circle cx="427.0" cy="258.6" r="4.0" fill="#b5854e"/><circle cx="391.5" cy="266.2" r="3.2" fill="#b5854e"/><circle cx="361.5" cy="256.2" r="5.3" fill="#b5854e"/><circle cx="379.0" cy="264.0" r="4.1" fill="#b5854e"/><circle cx="332.2" cy="207.5" r="6.5" fill="#b5854e"/><circle cx="332.1" cy="197.1" r="6.3" fill="#b5854e"/><circle cx="360.4" cy="148.5" r="3.8" fill="#b5854e"/><circle cx="368.7" cy="143.8" r="3.5" fill="#b5854e"/><circle cx="410.4" cy="139.1" r="5.0" fill="#b5854e"/><circle cx="431.7" cy="148.2" r="4.9" fill="#b5854e"/><circle cx="429.9" cy="147.0" r="3.3" fill="#b5854e"/><circle cx="441.5" cy="156.0" r="6.2" fill="#b5854e"/><circle cx="460.5" cy="196.8" r="5.6" fill="#b5854e"/><circle cx="396.31630524620414" cy="201.96273986808956" r="50.4" fill="#f5f2e8"/><circle cx="410.4" cy="208.3" r="18.2" fill="#ef8354"/><circle cx="385.3" cy="212.7" r="18.2" fill="#7fb069"/><circle cx="391.0" cy="187.5" r="18.2" fill="#f2ecd8"/><circle cx="561.2065528519452" cy="208.11537647247314" r="70" fill="#000" opacity="0.1"/><circle cx="561.2065528519452" cy="202.11537647247314" r="70" fill="#d9a45b" stroke="#c08c4a" stroke-width="2"/><circle cx="618.0" cy="232.4" r="4.5" fill="#b5854e"/><circle cx="615.7" cy="236.5" r="6.6" fill="#b5854e"/><circle cx="591.2" cy="259.1" r="6.0" fill="#b5854e"/><circle cx="541.1" cy="263.3" r="7.0" fill="#b5854e"/><circle cx="509.9" cy="241.1" r="6.5" fill="#b5854e"/><circle cx="501.2" cy="225.4" r="5.6" fill="#b5854e"/><circle cx="502.0" cy="227.4" r="3.7" fill="#b5854e"/><circle cx="517.2" cy="155.1" r="3.0" fill="#b5854e"/><circle cx="514.1" cy="158.2" r="6.8" fill="#b5854e"/><circle cx="523.9" cy="149.6" r="4.4" fill="#b5854e"/><circle cx="559.3" cy="137.7" r="5.1" fill="#b5854e"/><circle cx="606.2" cy="156.1" r="6.2" fill="#b5854e"/><circle cx="624.8" cy="192.1" r="6.9" fill="#b5854e"/><circle cx="619.8" cy="228.9" r="5.2" fill="#b5854e"/><circle cx="561.2065528519452" cy="202.11537647247314" r="50.4" fill="#f5f2e8"/><circle cx="576.5" cy="203.7" r="18.2" fill="#ef8354"/><circle cx="550.2" cy="212.8" r="18.2" fill="#7fb069"/><circle cx="556.4" cy="187.5" r="18.2" fill="#f2ecd8"/><circle cx="238.03626997582614" cy="370.0594284646213" r="70" fill="#000" opacity="0.1"/><circle cx="238.03626997582614" cy="364.0594284646213" r="70" fill="#d9a45b" stroke="#c08c4a" stroke-width="2"/><circle cx="281.3" cy="411.8" r="6.6" fill="#b5854e"/><circle cx="253.1" cy="426.7" r="4.6" fill="#b5854e"/><circle cx="240.1" cy="428.4" r="3.2" fill="#b5854e"/><circle cx="203.5" cy="418.4" r="4.9" fill="#b5854e"/><circle cx="181.0" cy="393.9" r="5.4" fill="#b5854e"/><circle cx="173.7" cy="362.7" r="4.9" fill="#b5854e"/><circle cx="179.3" cy="390.5" r="4.6" fill="#b5854e"/><circle cx="174.4" cy="354.4" r="3.1" fill="#b5854e"/><circle cx="222.6" cy="301.5" r="5.6" fill="#b5854e"/><circle cx="226.1" cy="300.8" r="6.6" fill="#b5854e"/><circle cx="256.4" cy="302.3" r="5.5" fill="#b5854e"/><circle cx="290.9" cy="327.3" r="4.2" fill="#b5854e"/><circle cx="300.0" cy="346.6" r="4.8" fill="#b5854e"/><circle cx="299.7" cy="382.6" r="4.1" fill="#b5854e"/><circle cx="238.03626997582614" cy="364.0594284646213" r="50.4" fill="#f5f2e8"/><circle cx="252.4" cy="369.7" r="18.2" fill="#ef8354"/><circle cx="229.2" cy="376.6" r="18.2" fill="#7fb069"/><circle cx="232.2" cy="349.8" r="18.2" fill="#f2ecd8"/><circle cx="400.6213552467525" cy="367.64391715824604" r="70" fill="#000" opacity="0.1"/><circle cx="400.6213552467525" cy="361.64391715824604" r="70" fill="#d9a45b" stroke="#c08c4a" stroke-width="2"/><circle cx="464.8" cy="367.0" r="3.3" fill="#b5854e"/><circle cx="435.2" cy="416.0" r="4.9" fill="#b5854e"/><circle cx="426.7" cy="420.5" r="3.8" fill="#b5854e"/><circle cx="369.5" cy="418.0" r="4.7" fill="#b5854e"/><circle cx="356.8" cy="408.8" r="6.1" fill="#b5854e"/><circle cx="354.4" cy="406.5" r="6.1" fill="#b5854e"/><circle cx="340.1" cy="339.6" r="4.0" fill="#b5854e"/><circle cx="350.2" cy="321.6" r="5.4" fill="#b5854e"/><circle cx="383.1" cy="299.7" r="5.8" fill="#b5854e"/><circle cx="407.4" cy="297.6" r="3.5" fill="#b5854e"/><circle cx="415.6" cy="299.0" r="4.2" fill="#b5854e"/><circle cx="437.2" cy="308.6" r="5.8" fill="#b5854e"/><circle cx="465.0" cy="360.0" r="3.1" fill="#b5854e"/><circle cx="460.7" cy="384.9" r="5.6" fill="#b5854e"/><circle cx="400.6213552467525" cy="361.64391715824604" r="50.4" fill="#f5f2e8"/><circle cx="414.5" cy="368.3" r="18.2" fill="#ef8354"/><circle cx="391.4" cy="374.0" r="18.2" fill="#7fb069"/><circle cx="393.9" cy="347.8" r="18.2" fill="#f2ecd8"/><circle cx="558.2867634203285" cy="366.73928874731064" r="70" fill="#000" opacity="0.1"/><circle cx="558.2867634203285" cy="360.73928874731064" r="70" fill="#d9a45b" stroke="#c08c4a" stroke-width="2"/><circle cx="619.6" cy="380.3" r="4.9" fill="#b5854e"/><circle cx="592.7" cy="415.2" r="4.9" fill="#b5854e"/><circle cx="553.7" cy="425.0" r="3.0" fill="#b5854e"/><circle cx="553.6" cy="425.0" r="3.1" fill="#b5854e"/><circle cx="540.0" cy="422.5" r="5.9" fill="#b5854e"/><circle cx="497.4" cy="381.7" r="4.9" fill="#b5854e"/><circle cx="498.3" cy="384.2" r="6.1" fill="#b5854e"/><circle cx="498.2" cy="337.5" r="3.2" fill="#b5854e"/><circle cx="509.7" cy="318.4" r="3.2" fill="#b5854e"/><circle cx="565.6" cy="296.8" r="7.0" fill="#b5854e"/><circle cx="585.8" cy="302.5" r="6.9" fill="#b5854e"/><circle cx="605.9" cy="317.4" r="6.5" fill="#b5854e"/><circle cx="609.5" cy="321.8" r="5.5" fill="#b5854e"/><circle cx="613.4" cy="394.0" r="5.9" fill="#b5854e"/><circle cx="558.2867634203285" cy="360.73928874731064" r="50.4" fill="#f5f2e8"/><circle cx="572.3" cy="367.0" r="18.2" fill="#ef8354"/><circle cx="548.8" cy="372.9" r="18.2" fill="#7fb069"/><circle cx="555.7" cy="345.6" r="18.2" fill="#f2ecd8"/></svg>