<svg xmlns="http://www.w3.org/2000/svg" viewBox="0 0 800 600"><defs><radialGradient id="bg-osako" cx="50%" cy="35%" r="80%"><stop offset="0%" stop-color="#ffffff"/><stop offset="100%" stop-color="#efeff2"/></radialGradient></defs><rect width="800" height="600" fill="url(#bg-osako)"/><circle cx="242.14334515668452" cy="203.88540398329496" r="70" fill="#000" opacity="0.1"/><circle cx="242.14334515668452" cy="197.88540398329496" r="70" fill="#f5f2e8" stroke="#e0d9c2" stroke-width="2"/><circle cx="242.14334515668452" cy="197.88540398329496" r="60.199999999999996" fill="#f5f2e8"/><ellipse cx="215.2" cy="239.1" rx="4" ry="2" fill="#e6e0cf" transform="rotate(86 215.2 239.1)"/><ellipse cx="192.5" cy="223.8" rx="4" ry="2" fill="#e6e0cf" transform="rotate(107 192.5 223.8)"/><ellipse cx="266.6" cy="156.6" rx="4" ry="2" fill="#e6e0cf" transform="rotate(155 266.6 156.6)"/><ellipse cx="274.0" cy="230.4" rx="4" ry="2" fill="#e6e0cf" transform="rotate(11 274.0 230.4)"/><ellipse cx="292.2" cy="189.7" rx="4" ry="2" fill="#e6e0cf" transform="rotate(117 292.2 189.7)"/><ellipse cx="191.7" cy="171.5" rx="4" ry="2" fill="#e6e0cf" transform="rotate(54 191.7 171.5)"/><ellipse cx="224.5" cy="241.3" rx="4" ry="2" fill="#e6e0cf" transform="rotate(146 224.5 241.3)"/><ellipse cx="289.6" cy="176.9" rx="4" ry="2" fill="#e6e0cf" transform="rotate(107 289.6 176.9)"/><ellipse cx="258.9" cy="152.9" rx="4" ry="2" fill="#e6e0cf" transform="rotate(38 258.9 152.9)"/><ellipse cx="200.2" cy="234.7" rx="4" ry="2" fill="#e6e0cf" transform="rotate(19 200.2 234.7)"/><circle cx="257.5" cy="199.2" r="18.2" fill="#ef8354"/><circle cx="231.4" cy="208.9" r="18.2" fill="#7fb069"/><circle cx="241.5" cy="182.5" r="18.2" fill="#f2ecd8"/><circle cx="397.02012511342764" cy="207.22676676511765" r="70" fill="#000" opacity="0.1"/><circle cx="397.02012511342764" cy="201.22676676511765" r="70" fill="#f5f2e8" stroke="#e0d9c2" stroke-width="2"/><circle cx="397.02012511342764" cy="201.22676676511765" r="60.199999999999996" fill="#f5f2e8"/><ellipse cx="432.0" cy="245.1" rx="4" ry="2" fill="#e6e0cf" transform="rotate(158 432.0 245.1)"/><ellipse cx="345.2" cy="219.2" rx="4" ry="2" fill="#e6e0cf" transform="rotate(61 345.2 219.2)"/><ellipse cx="443.3" cy="215.5" rx="4" ry="2" fill="#e6e0cf" transform="rotate(173 443.3 215.5)"/><ellipse cx="442.0" cy="180.4" rx="4" ry="2" fill="#e6e0cf" transform="rotate(70 442.0 180.4)"/><ellipse cx="397.4" cy="252.8" rx="4" ry="2" fill="#e6e0cf" transform="rotate(25 397.4 252.8)"/><ellipse cx="410.9" cy="246.6" rx="4" ry="2" fill="#e6e0cf" transform="rotate(44 410.9 246.6)"/><ellipse cx="402.9" cy="148.5" rx="4" ry="2" fill="#e6e0cf" transform="rotate(138 402.9 148.5)"/><ellipse cx="373.4" cy="243.9" rx="4" ry="2" fill="#e6e0cf" transform="rotate(142 373.4 243.9)"/><ellipse cx="381.5" cy="249.3" rx="4" ry="2" fill="#e6e0cf" transform="rotate(9 381.5 249.3)"/><ellipse cx="444.2" cy="220.5" rx="4" ry="2" fill="#e6e0cf" transform="rotate(10 444.2 220.5)"/><circle cx="412.4" cy="201.9" r="18.2" fill="#ef8354"/><circle cx="385.9" cy="211.9" r="18.2" fill="#7fb069"/><circle cx="393.1" cy="186.3" r="18.2" fill="#f2ecd8"/><circle cx="558.7485663257539" cy="204.9491864424199" r="70" fill="#000" opacity="0.1"/><circle cx="558.7485663257539" cy="198.9491864424199" r="70" fill="#f5f2e8" stroke="#e0d9c2" stroke-width="2"/><circle cx="558.7485663257539" cy="198.9491864424199" r="60.199999999999996" fill="#f5f2e8"/><ellipse cx="514.6" cy="172.7" rx="4" ry="2" fill="#e6e0cf" transform="rotate(117 514.6 172.7)"/><ellipse cx="581.5" cy="155.4" rx="4" ry="2" fill="#e6e0cf" transform="rotate(9 581.5 155.4)"/><ellipse cx="597.9" cy="167.0" rx="4" ry="2" fill="#e6e0cf" transform="rotate(113 597.9 167.0)"/><ellipse cx="570.2" cy="148.3" rx="4" ry="2" fill="#e6e0cf" transform="rotate(117 570.2 148.3)"/><ellipse cx="521.6" cy="241.1" rx="4" ry="2" fill="#e6e0cf" transform="rotate(28 521.6 241.1)"/><ellipse cx="524.0" cy="162.3" rx="4" ry="2" fill="#e6e0cf" transform="rotate(117 524.0 162.3)"/><ellipse cx="594.9" cy="171.7" rx="4" ry="2" fill="#e6e0cf" transform="rotate(174 594.9 171.7)"/><ellipse cx="522.3" cy="155.6" rx="4" ry="2" fill="#e6e0cf" transform="rotate(128 522.3 155.6)"/><ellipse cx="591.6" cy="156.8" rx="4" ry="2" fill="#e6e0cf" transform="rotate(51 591.6 156.8)"/><ellipse cx="523.6" cy="226.9" rx="4" ry="2" fill="#e6e0cf" transform="rotate(118 523.6 226.9)"/><circle cx="573.8" cy="202.3" r="18.2" fill="#ef8354"/><circle cx="550.1" cy="211.7" r="18.2" fill="#7fb069"/><circle cx="556.4" cy="183.7" r="18.2" fill="#f2ecd8"/><circle cx="235.02283043414354" cy="368.29029970802367" r="70" fill="#000" opacity="0.1"/><circle cx="235.02283043414354" cy="362.29029970802367" r="70" fill="#f5f2e8" stroke="#e0d9c2" stroke-width="2"/><circle cx="235.02283043414354" cy="362.29029970802367" r="60.199999999999996" fill="#f5f2e8"/><ellipse cx="209.4" cy="404.9" rx="4" ry="2" fill="#e6e0cf" transform="rotate(5 209.4 404.9)"/><ellipse cx="279.6" cy="376.1" rx="4" ry="2" fill="#e6e0cf" transform="rotate(138 279.6 376.1)"/><ellipse cx="231.2" cy="315.1" rx="4" ry="2" fill="#e6e0cf" transform="rotate(96 231.2 315.1)"/><ellipse cx="196.3" cy="387.6" rx="4" ry="2" fill="#e6e0cf" transform="rotate(178 196.3 387.6)"/><ellipse cx="233.6" cy="413.9" rx="4" ry="2" fill="#e6e0cf" transform="rotate(16 233.6 413.9)"/><ellipse cx="248.6" cy="404.0" rx="4" ry="2" fill="#e6e0cf" transform="rotate(3 248.6 404.0)"/><ellipse cx="190.7" cy="394.0" rx="4" ry="2" fill="#e6e0cf" transform="rotate(85 190.7 394.0)"/><ellipse cx="206.0" cy="395.1" rx="4" ry="2" fill="#e6e0cf" transform="rotate(142 206.0 395.1)"/><ellipse cx="280.2" cy="379.6" rx="4" ry="2" fill="#e6e0cf" transform="rotate(160 280.2 379.6)"/><ellipse cx="221.1" cy="317.8" rx="4" ry="2" fill="#e6e0cf" transform="rotate(67 221.1 317.8)"/><circle cx="249.2" cy="368.2" r="18.2" fill="#ef8354"/><circle cx="223.0" cy="372.0" r="18.2" fill="#7fb069"/><circle cx="228.4" cy="348.4" r="18.2" fill="#f2ecd8"/><circle cx="402.4446079675108" cy="365.7838524207473" r="70" fill="#000" opacity="0.1"/><circle cx="402.4446079675108" cy="359.7838524207473" r="70" fill="#f5f2e8" stroke="#e0d9c2" stroke-width="2"/><circle cx="402.4446079675108" cy="359.7838524207473" r="60.199999999999996" fill="#f5f2e8"/><ellipse cx="411.3" cy="303.7" rx="4" ry="2" fill="#e6e0cf" transform="rotate(0 411.3 303.7)"/><ellipse cx="450.8" cy="357.5" rx="4" ry="2" fill="#e6e0cf" transform="rotate(171 450.8 357.5)"/><ellipse cx="351.4" cy="369.1" rx="4" ry="2" fill="#e6e0cf" transform="rotate(105 351.4 369.1)"/><ellipse cx="431.5" cy="407.0" rx="4" ry="2" fill="#e6e0cf" transform="rotate(12 431.5 407.0)"/><ellipse cx="355.2" cy="351.0" rx="4" ry="2" fill="#e6e0cf" transform="rotate(38 355.2 351.0)"/><ellipse cx="440.3" cy="336.7" rx="4" ry="2" fill="#e6e0cf" transform="rotate(126 440.3 336.7)"/><ellipse cx="391.1" cy="403.8" rx="4" ry="2" fill="#e6e0cf" transform="rotate(73 391.1 403.8)"/><ellipse cx="358.9" cy="333.3" rx="4" ry="2" fill="#e6e0cf" transform="rotate(31 358.9 333.3)"/><ellipse cx="456.4" cy="343.5" rx="4" ry="2" fill="#e6e0cf" transform="rotate(26 456.4 343.5)"/><ellipse cx="445.2" cy="396.5" rx="4" ry="2" fill="#e6e0cf" transform="rotate(8 445.2 396.5)"/><circle cx="417.5" cy="363.2" r="18.2" fill="#ef8354"/><circle cx="392.4" cy="371.5" r="18.2" fill="#7fb069"/><circle cx="399.0" cy="344.8" r="18.2" fill="#f2ecd8"/><circle cx="557.71393574588" cy="367.7101324982941" r="70" fill="#000" opacity="0.1"/><circle cx="557.71393574588" cy="361.7101324982941" r="70" fill="#f5f2e8" stroke="#e0d9c2" stroke-width="2"/><circle cx="557.71393574588" cy="361.7101324982941" r="60.199999999999996" fill="#f5f2e8"/><ellipse cx="519.2" cy="327.2" rx="4" ry="2" fill="#e6e0cf" transform="rotate(46 519.2 327.2)"/><ellipse cx="584.3" cy="315.1" rx="4" ry="2" fill="#e6e0cf" transform="rotate(42 584.3 315.1)"/><ellipse cx="502.4" cy="375.4" rx="4" ry="2" fill="#e6e0cf" transform="rotate(19 502.4 375.4)"/><ellipse cx="600.4" cy="339.8" rx="4" ry="2" fill="#e6e0cf" transform="rotate(36 600.4 339.8)"/><ellipse cx="553.5" cy="407.9" rx="4" ry="2" fill="#e6e0cf" transform="rotate(65 553.5 407.9)"/><ellipse cx="565.8" cy="418.1" rx="4" ry="2" fill="#e6e0cf" transform="rotate(54 565.8 418.1)"/><ellipse cx="541.8" cy="320.4" rx="4" ry="2" fill="#e6e0cf" transform="rotate(89 541.8 320.4)"/><ellipse cx="582.4" cy="318.7" rx="4" ry="2" fill="#e6e0cf" transform="rotate(57 582.4 318.7)"/><ellipse cx="584.9" cy="409.4" rx="4" ry="2" fill="#e6e0cf" transform="rotate(101 584.9 409.4)"/><ellipse cx="521.5" cy="390.5" rx="4" ry="2" fill="#e6e0cf" transform="rotate(157 521.5 390.5)"/><circle cx="573.0" cy="363.5" r="18.2" fill="#ef8354"/><circle cx="546.7" cy="372.5" r="18.2" fill="#7fb069"/><circle cx="552.0" cy="347.4" r="18.2" fill="#f2ecd8"/></svg>