<svg xmlns="http://www.w3.org/2000/svg" viewBox="0 0 800 600"><defs><radialGradient id="bg-ostryy-losos" cx="50%" cy="35%" r="80%"><stop offset="0%" stop-color="#ffffff"/><stop offset="100%" stop-color="#efeff2"/></radialGradient></defs><rect width="800" height="600" fill="url(#bg-ostryy-losos)"/><circle cx="242.8567959871143" cy="203.7164101228118" r="70" fill="#000" opacity="0.1"/><circle cx="242.8567959871143" cy="197.7164101228118" r="70" fill="#f5f2e8" stroke="#e0d9c2" stroke-width="2"/><circle cx="242.8567959871143" cy="197.7164101228118" r="60.199999999999996" fill="#f5f2e8"/><ellipse cx="242.9" cy="249.1" rx="4" ry="2" fill="#e6e0cf" transform="rotate(121 242.9 249.1)"/><ellipse cx="261.3" cy="145.1" rx="4" ry="2" fill="#e6e0cf" transform="rotate(126 261.3 145.1)"/><ellipse cx="192.0" cy="177.7" rx="4" ry="2" fill="#e6e0cf" transform="rotate(11 192.0 177.7)"/><ellipse cx="260.7" cy="248.4" rx="4" ry="2" fill="#e6e0cf" transform="rotate(115 260.7 248.4)"/><ellipse cx="279.3" cy="230.7" rx="4" ry="2" fill="#e6e0cf" transform="rotate(68 279.3 230.7)"/><ellipse cx="298.8" cy="195.8" rx="4" ry="2" fill="#e6e0cf" transform="rotate(93 298.8 195.8)"/><ellipse cx="190.1" cy="194.8" rx="4" ry="2" fill="#e6e0cf" transform="rotate(5 190.1 194.8)"/><ellipse cx="206.9" cy="167.1" rx="4" ry="2" fill="#e6e0cf" transform="rotate(16 206.9 167.1)"/><ellipse cx="198.6" cy="202.6" rx="4" ry="2" fill="#e6e0cf" transform="rotate(91 198.6 202.6)"/><ellipse cx="208.1" cy="161.5" rx="4" ry="2" fill="#e6e0cf" transform="rotate(80 208.1 161.5)"/><circle cx="257.6" cy="202.1" r="18.2" fill="#ef8354"/><circle cx="229.3" cy="190.4" r="18.2" fill="#7fb069"/><circle cx="403.47211372479796" cy="206.55079630203545" r="70" fill="#000" opacity="0.1"/><circle cx="403.47211372479796" cy="200.55079630203545" r="70" fill="#f5f2e8" stroke="#e0d9c2" stroke-width="2"/><circle cx="403.47211372479796" cy="200.55079630203545" r="60.199999999999996" fill="#f5f2e8"/><ellipse cx="447.9" cy="196.6" rx="4" ry="2" fill="#e6e0cf" transform="rotate(49 447.9 196.6)"/><ellipse cx="387.2" cy="241.1" rx="4" ry="2" fill="#e6e0cf" transform="rotate(3 387.2 241.1)"/><ellipse cx="391.1" cy="252.1" rx="4" ry="2" fill="#e6e0cf" transform="rotate(52 391.1 252.1)"/><ellipse cx="407.9" cy="144.8" rx="4" ry="2" fill="#e6e0cf" transform="rotate(173 407.9 144.8)"/><ellipse cx="418.7" cy="149.2" rx="4" ry="2" fill="#e6e0cf" transform="rotate(121 418.7 149.2)"/><ellipse cx="362.0" cy="218.0" rx="4" ry="2" fill="#e6e0cf" transform="rotate(104 362.0 218.0)"/><ellipse cx="374.0" cy="161.1" rx="4" ry="2" fill="#e6e0cf" transform="rotate(92 374.0 161.1)"/><ellipse cx="371.7" cy="157.2" rx="4" ry="2" fill="#e6e0cf" transform="rotate(115 371.7 157.2)"/><ellipse cx="361.2" cy="231.3" rx="4" ry="2" fill="#e6e0cf" transform="rotate(135 361.2 231.3)"/><ellipse cx="377.1" cy="248.7" rx="4" ry="2" fill="#e6e0cf" transform="rotate(133 377.1 248.7)"/><circle cx="417.6" cy="206.6" r="18.2" fill="#ef8354"/><circle cx="389.6" cy="193.9" r="18.2" fill="#7fb069"/><circle cx="561.8860431425273" cy="208.07189057581127" r="70" fill="#000" opacity="0.1"/><circle cx="561.8860431425273" cy="202.07189057581127" r="70" fill="#f5f2e8" stroke="#e0d9c2" stroke-width="2"/><circle cx="561.8860431425273" cy="202.07189057581127" r="60.199999999999996" fill="#f5f2e8"/><ellipse cx="530.5" cy="156.7" rx="4" ry="2" fill="#e6e0cf" transform="rotate(17 530.5 156.7)"/><ellipse cx="518.6" cy="207.6" rx="4" ry="2" fill="#e6e0cf" transform="rotate(122 518.6 207.6)"/><ellipse cx="518.6" cy="190.6" rx="4" ry="2" fill="#e6e0cf" transform="rotate(116 518.6 190.6)"/><ellipse cx="604.6" cy="180.7" rx="4" ry="2" fill="#e6e0cf" transform="rotate(103 604.6 180.7)"/><ellipse cx="527.0" cy="157.1" rx="4" ry="2" fill="#e6e0cf" transform="rotate(4 527.0 157.1)"/><ellipse cx="604.0" cy="226.5" rx="4" ry="2" fill="#e6e0cf" transform="rotate(156 604.0 226.5)"/><ellipse cx="551.7" cy="156.5" rx="4" ry="2" fill="#e6e0cf" transform="rotate(85 551.7 156.5)"/><ellipse cx="585.9" cy="153.1" rx="4" ry="2" fill="#e6e0cf" transform="rotate(41 585.9 153.1)"/><ellipse cx="592.3" cy="235.8" rx="4" ry="2" fill="#e6e0cf" transform="rotate(93 592.3 235.8)"/><ellipse cx="607.6" cy="220.2" rx="4" ry="2" fill="#e6e0cf" transform="rotate(175 607.6 220.2)"/><circle cx="576.3" cy="207.5" r="18.2" fill="#ef8354"/><circle cx="546.6" cy="199.9" r="18.2" fill="#7fb069"/><circle cx="241.9496931154281" cy="368.7015659082681" r="70" fill="#000" opacity="0.1"/><circle cx="241.9496931154281" cy="362.7015659082681" r="70" fill="#f5f2e8" stroke="#e0d9c2" stroke-width="2"/><circle cx="241.9496931154281" cy="362.7015659082681" r="60.199999999999996" fill="#f5f2e8"/><ellipse cx="205.8" cy="332.7" rx="4" ry="2" fill="#e6e0cf" transform="rotate(171 205.8 332.7)"/><ellipse cx="259.9" cy="316.4" rx="4" ry="2" fill="#e6e0cf" transform="rotate(122 259.9 316.4)"/><ellipse cx="230.0" cy="406.2" rx="4" ry="2" fill="#e6e0cf" transform="rotate(7 230.0 406.2)"/><ellipse cx="261.4" cy="412.6" rx="4" ry="2" fill="#e6e0cf" transform="rotate(111 261.4 412.6)"/><ellipse cx="209.1" cy="316.9" rx="4" ry="2" fill="#e6e0cf" transform="rotate(59 209.1 316.9)"/><ellipse cx="202.7" cy="335.0" rx="4" ry="2" fill="#e6e0cf" transform="rotate(128 202.7 335.0)"/><ellipse cx="296.5" cy="348.0" rx="4" ry="2" fill="#e6e0cf" transform="rotate(84 296.5 348.0)"/><ellipse cx="204.2" cy="327.8" rx="4" ry="2" fill="#e6e0cf" transform="rotate(72 204.2 327.8)"/><ellipse cx="287.4" cy="385.9" rx="4" ry="2" fill="#e6e0cf" transform="rotate(130 287.4 385.9)"/><ellipse cx="205.7" cy="319.3" rx="4" ry="2" fill="#e6e0cf" transform="rotate(1 205.7 319.3)"/><circle cx="257.2" cy="364.7" r="18.2" fill="#ef8354"/><circle cx="226.6" cy="361.9" r="18.2" fill="#7fb069"/><circle cx="403.2048668190837" cy="366.51617681980133" r="70" fill="#000" opacity="0.1"/><circle cx="403.2048668190837" cy="360.51617681980133" r="70" fill="#f5f2e8" stroke="#e0d9c2" stroke-width="2"/><circle cx="403.2048668190837" cy="360.51617681980133" r="60.199999999999996" fill="#f5f2e8"/><ellipse cx="361.7" cy="335.4" rx="4" ry="2" fill="#e6e0cf" transform="rotate(148 361.7 335.4)"/><ellipse cx="349.0" cy="341.9" rx="4" ry="2" fill="#e6e0cf" transform="rotate(115 349.0 341.9)"/><ellipse cx="436.2" cy="390.8" rx="4" ry="2" fill="#e6e0cf" transform="rotate(78 436.2 390.8)"/><ellipse cx="449.9" cy="361.3" rx="4" ry="2" fill="#e6e0cf" transform="rotate(4 449.9 361.3)"/><ellipse cx="368.3" cy="330.8" rx="4" ry="2" fill="#e6e0cf" transform="rotate(79 368.3 330.8)"/><ellipse cx="438.7" cy="386.9" rx="4" ry="2" fill="#e6e0cf" transform="rotate(63 438.7 386.9)"/><ellipse cx="379.7" cy="322.7" rx="4" ry="2" fill="#e6e0cf" transform="rotate(144 379.7 322.7)"/><ellipse cx="446.5" cy="388.9" rx="4" ry="2" fill="#e6e0cf" transform="rotate(26 446.5 388.9)"/><ellipse cx="371.7" cy="321.4" rx="4" ry="2" fill="#e6e0cf" transform="rotate(86 371.7 321.4)"/><ellipse cx="376.0" cy="325.9" rx="4" ry="2" fill="#e6e0cf" transform="rotate(72 376.0 325.9)"/><circle cx="417.9" cy="365.0" r="18.2" fill="#ef8354"/><circle cx="389.3" cy="353.8" r="18.2" fill="#7fb069"/><circle cx="562.1824922617525" cy="370.01609447970986" r="70" fill="#000" opacity="0.1"/><circle cx="562.1824922617525" cy="364.01609447970986" r="70" fill="#f5f2e8" stroke="#e0d9c2" stroke-width="2"/><circle cx="562.1824922617525" cy="364.01609447970986" r="60.199999999999996" fill="#f5f2e8"/><ellipse cx="564.6" cy="313.4" rx="4" ry="2" fill="#e6e0cf" transform="rotate(132 564.6 313.4)"/><ellipse cx="542.0" cy="403.8" rx="4" ry="2" fill="#e6e0cf" transform="rotate(33 542.0 403.8)"/><ellipse cx="570.6" cy="418.9" rx="4" ry="2" fill="#e6e0cf" transform="rotate(40 570.6 418.9)"/><ellipse cx="614.0" cy="384.0" rx="4" ry="2" fill="#e6e0cf" transform="rotate(124 614.0 384.0)"/><ellipse cx="513.4" cy="364.1" rx="4" ry="2" fill="#e6e0cf" transform="rotate(123 513.4 364.1)"/><ellipse cx="525.8" cy="326.0" rx="4" ry="2" fill="#e6e0cf" transform="rotate(131 525.8 326.0)"/><ellipse cx="526.2" cy="407.0" rx="4" ry="2" fill="#e6e0cf" transform="rotate(51 526.2 407.0)"/><ellipse cx="535.9" cy="313.0" rx="4" ry="2" fill="#e6e0cf" transform="rotate(132 535.9 313.0)"/><ellipse cx="595.5" cy="392.4" rx="4" ry="2" fill="#e6e0cf" transform="rotate(51 595.5 392.4)"/><ellipse cx="510.7" cy="356.0" rx="4" ry="2" fill="#e6e0cf" transform="rotate(24 510.7 356.0)"/><circle cx="577.6" cy="364.5" r="18.2" fill="#ef8354"/><circle cx="548.6" cy="356.7" r="18.2" fill="#7fb069"/></svg>