<svg xmlns="http://www.w3.org/2000/svg" viewBox="0 0 800 600"><defs><radialGradient id="bg-piramida" cx="50%" cy="35%" r="80%"><stop offset="0%" stop-color="#26262c"/><stop offset="100%" stop-color="#141417"/></radialGradient></defs><rect width="800" height="600" fill="url(#bg-piramida)"/><circle cx="238.4158279094845" cy="208.10497673414648" r="70" fill="#000" opacity="0.35"/><circle cx="238.4158279094845" cy="202.10497673414648" r="70" fill="#2e3230"/><circle cx="238.4158279094845" cy="202.10497673414648" r="60.199999999999996" fill="#f5f2e8"/><ellipse cx="184.5" cy="191.2" rx="4" ry="2" fill="#e6e0cf" transform="rotate(158 184.5 191.2)"/><ellipse cx="194.0" cy="189.0" rx="4" ry="2" fill="#e6e0cf" transform="rotate(66 194.0 189.0)"/><ellipse cx="192.7" cy="202.8" rx="4" ry="2" fill="#e6e0cf" transform="rotate(171 192.7 202.8)"/><ellipse cx="252.7" cy="147.7" rx="4" ry="2" fill="#e6e0cf" transform="rotate(172 252.7 147.7)"/><ellipse cx="285.0" cy="213.7" rx="4" ry="2" fill="#e6e0cf" transform="rotate(64 285.0 213.7)"/><ellipse cx="181.6" cy="197.0" rx="4" ry="2" fill="#e6e0cf" transform="rotate(164 181.6 197.0)"/><ellipse cx="265.6" cy="249.6" rx="4" ry="2" fill="#e6e0cf" transform="rotate(20 265.6 249.6)"/><ellipse cx="208.5" cy="157.8" rx="4" ry="2" fill="#e6e0cf" transform="rotate(125 208.5 157.8)"/><ellipse cx="289.0" cy="180.3" rx="4" ry="2" fill="#e6e0cf" transform="rotate(149 289.0 180.3)"/><ellipse cx="209.0" cy="159.2" rx="4" ry="2" fill="#e6e0cf" transform="rotate(70 209.0 159.2)"/><circle cx="253.6" cy="204.4" r="18.2" fill="#ef8354"/><circle cx="228.3" cy="213.7" r="18.2" fill="#7fb069"/><circle cx="232.3" cy="188.0" r="18.2" fill="#f2ecd8"/><circle cx="403.1123341806233" cy="208.80202951654792" r="70" fill="#000" opacity="0.35"/><circle cx="403.1123341806233" cy="202.80202951654792" r="70" fill="#2e3230"/><circle cx="403.1123341806233" cy="202.80202951654792" r="60.199999999999996" fill="#f5f2e8"/><ellipse cx="447.7" cy="191.2" rx="4" ry="2" fill="#e6e0cf" transform="rotate(36 447.7 191.2)"/><ellipse cx="353.0" cy="185.7" rx="4" ry="2" fill="#e6e0cf" transform="rotate(75 353.0 185.7)"/><ellipse cx="441.7" cy="165.0" rx="4" ry="2" fill="#e6e0cf" transform="rotate(124 441.7 165.0)"/><ellipse cx="455.4" cy="195.5" rx="4" ry="2" fill="#e6e0cf" transform="rotate(170 455.4 195.5)"/><ellipse cx="454.0" cy="223.2" rx="4" ry="2" fill="#e6e0cf" transform="rotate(143 454.0 223.2)"/><ellipse cx="452.0" cy="214.2" rx="4" ry="2" fill="#e6e0cf" transform="rotate(141 452.0 214.2)"/><ellipse cx="387.5" cy="253.0" rx="4" ry="2" fill="#e6e0cf" transform="rotate(58 387.5 253.0)"/><ellipse cx="405.9" cy="259.2" rx="4" ry="2" fill="#e6e0cf" transform="rotate(100 405.9 259.2)"/><ellipse cx="351.8" cy="215.7" rx="4" ry="2" fill="#e6e0cf" transform="rotate(160 351.8 215.7)"/><ellipse cx="351.8" cy="206.0" rx="4" ry="2" fill="#e6e0cf" transform="rotate(88 351.8 206.0)"/><circle cx="417.8" cy="207.3" r="18.2" fill="#ef8354"/><circle cx="395.3" cy="216.1" r="18.2" fill="#7fb069"/><circle cx="395.7" cy="189.3" r="18.2" fill="#f2ecd8"/><circle cx="559.3424938824028" cy="202.48988066613674" r="70" fill="#000" opacity="0.35"/><circle cx="559.3424938824028" cy="196.48988066613674" r="70" fill="#2e3230"/><circle cx="559.3424938824028" cy="196.48988066613674" r="60.199999999999996" fill="#f5f2e8"/><ellipse cx="599.6" cy="216.4" rx="4" ry="2" fill="#e6e0cf" transform="rotate(9 599.6 216.4)"/><ellipse cx="512.4" cy="186.2" rx="4" ry="2" fill="#e6e0cf" transform="rotate(123 512.4 186.2)"/><ellipse cx="588.3" cy="147.2" rx="4" ry="2" fill="#e6e0cf" transform="rotate(52 588.3 147.2)"/><ellipse cx="606.5" cy="164.1" rx="4" ry="2" fill="#e6e0cf" transform="rotate(48 606.5 164.1)"/><ellipse cx="517.7" cy="219.0" rx="4" ry="2" fill="#e6e0cf" transform="rotate(134 517.7 219.0)"/><ellipse cx="543.2" cy="155.2" rx="4" ry="2" fill="#e6e0cf" transform="rotate(24 543.2 155.2)"/><ellipse cx="519.1" cy="232.9" rx="4" ry="2" fill="#e6e0cf" transform="rotate(163 519.1 232.9)"/><ellipse cx="579.8" cy="151.4" rx="4" ry="2" fill="#e6e0cf" transform="rotate(8 579.8 151.4)"/><ellipse cx="614.2" cy="195.1" rx="4" ry="2" fill="#e6e0cf" transform="rotate(40 614.2 195.1)"/><ellipse cx="513.7" cy="221.5" rx="4" ry="2" fill="#e6e0cf" transform="rotate(47 513.7 221.5)"/><circle cx="574.1" cy="200.8" r="18.2" fill="#ef8354"/><circle cx="549.4" cy="208.3" r="18.2" fill="#7fb069"/><circle cx="555.1" cy="181.7" r="18.2" fill="#f2ecd8"/><circle cx="238.58634397387505" cy="368.74510285817087" r="70" fill="#000" opacity="0.35"/><circle cx="238.58634397387505" cy="362.74510285817087" r="70" fill="#2e3230"/><circle cx="238.58634397387505" cy="362.74510285817087" r="60.199999999999996" fill="#f5f2e8"/><ellipse cx="212.8" cy="400.0" rx="4" ry="2" fill="#e6e0cf" transform="rotate(31 212.8 400.0)"/><ellipse cx="239.3" cy="307.4" rx="4" ry="2" fill="#e6e0cf" transform="rotate(150 239.3 307.4)"/><ellipse cx="287.0" cy="389.7" rx="4" ry="2" fill="#e6e0cf" transform="rotate(146 287.0 389.7)"/><ellipse cx="236.4" cy="407.4" rx="4" ry="2" fill="#e6e0cf" transform="rotate(144 236.4 407.4)"/><ellipse cx="279.5" cy="327.2" rx="4" ry="2" fill="#e6e0cf" transform="rotate(7 279.5 327.2)"/><ellipse cx="287.6" cy="392.4" rx="4" ry="2" fill="#e6e0cf" transform="rotate(144 287.6 392.4)"/><ellipse cx="263.1" cy="311.5" rx="4" ry="2" fill="#e6e0cf" transform="rotate(61 263.1 311.5)"/><ellipse cx="220.3" cy="318.9" rx="4" ry="2" fill="#e6e0cf" transform="rotate(16 220.3 318.9)"/><ellipse cx="212.5" cy="318.1" rx="4" ry="2" fill="#e6e0cf" transform="rotate(31 212.5 318.1)"/><ellipse cx="228.3" cy="411.0" rx="4" ry="2" fill="#e6e0cf" transform="rotate(119 228.3 411.0)"/><circle cx="253.3" cy="367.2" r="18.2" fill="#ef8354"/><circle cx="225.8" cy="371.3" r="18.2" fill="#7fb069"/><circle cx="237.4" cy="347.4" r="18.2" fill="#f2ecd8"/><circle cx="399.7247588299215" cy="364.2288045156747" r="70" fill="#000" opacity="0.35"/><circle cx="399.7247588299215" cy="358.2288045156747" r="70" fill="#2e3230"/><circle cx="399.7247588299215" cy="358.2288045156747" r="60.199999999999996" fill="#f5f2e8"/><ellipse cx="347.4" cy="339.9" rx="4" ry="2" fill="#e6e0cf" transform="rotate(59 347.4 339.9)"/><ellipse cx="370.3" cy="396.3" rx="4" ry="2" fill="#e6e0cf" transform="rotate(73 370.3 396.3)"/><ellipse cx="370.3" cy="318.4" rx="4" ry="2" fill="#e6e0cf" transform="rotate(93 370.3 318.4)"/><ellipse cx="423.3" cy="408.7" rx="4" ry="2" fill="#e6e0cf" transform="rotate(134 423.3 408.7)"/><ellipse cx="346.0" cy="368.7" rx="4" ry="2" fill="#e6e0cf" transform="rotate(54 346.0 368.7)"/><ellipse cx="422.5" cy="318.4" rx="4" ry="2" fill="#e6e0cf" transform="rotate(128 422.5 318.4)"/><ellipse cx="355.2" cy="369.5" rx="4" ry="2" fill="#e6e0cf" transform="rotate(130 355.2 369.5)"/><ellipse cx="349.2" cy="368.9" rx="4" ry="2" fill="#e6e0cf" transform="rotate(176 349.2 368.9)"/><ellipse cx="386.0" cy="310.1" rx="4" ry="2" fill="#e6e0cf" transform="rotate(27 386.0 310.1)"/><ellipse cx="352.9" cy="327.6" rx="4" ry="2" fill="#e6e0cf" transform="rotate(179 352.9 327.6)"/><circle cx="414.3" cy="363.3" r="18.2" fill="#ef8354"/><circle cx="390.6" cy="370.6" r="18.2" fill="#7fb069"/><circle cx="396.2" cy="343.2" r="18.2" fill="#f2ecd8"/><circle cx="562.8218853548169" cy="362.97795557416975" r="70" fill="#000" opacity="0.35"/><circle cx="562.8218853548169" cy="356.97795557416975" r="70" fill="#2e3230"/><circle cx="562.8218853548169" cy="356.97795557416975" r="60.199999999999996" fill="#f5f2e8"/><ellipse cx="609.7" cy="368.0" rx="4" ry="2" fill="#e6e0cf" transform="rotate(108 609.7 368.0)"/><ellipse cx="616.0" cy="357.1" rx="4" ry="2" fill="#e6e0cf" transform="rotate(167 616.0 357.1)"/><ellipse cx="532.6" cy="394.6" rx="4" ry="2" fill="#e6e0cf" transform="rotate(173 532.6 394.6)"/><ellipse cx="520.8" cy="344.0" rx="4" ry="2" fill="#e6e0cf" transform="rotate(64 520.8 344.0)"/><ellipse cx="580.5" cy="411.3" rx="4" ry="2" fill="#e6e0cf" transform="rotate(105 580.5 411.3)"/><ellipse cx="545.2" cy="396.8" rx="4" ry="2" fill="#e6e0cf" transform="rotate(58 545.2 396.8)"/><ellipse cx="612.2" cy="380.6" rx="4" ry="2" fill="#e6e0cf" transform="rotate(114 612.2 380.6)"/><ellipse cx="558.6" cy="307.0" rx="4" ry="2" fill="#e6e0cf" transform="rotate(27 558.6 307.0)"/><ellipse cx="506.8" cy="354.6" rx="4" ry="2" fill="#e6e0cf" transform="rotate(118 506.8 354.6)"/><ellipse cx="555.7" cy="404.5" rx="4" ry="2" fill="#e6e0cf" transform="rotate(105 555.7 404.5)"/><circle cx="577.9" cy="360.0" r="18.2" fill="#ef8354"/><circle cx="550.2" cy="365.8" r="18.2" fill="#7fb069"/><circle cx="556.1" cy="343.1" r="18.2" fill="#f2ecd8"/></svg>