<svg xmlns="http://www.w3.org/2000/svg" viewBox="0 0 800 600"><defs><radialGradient id="bg-razminka-set" cx="50%" cy="35%" r="80%"><stop offset="0%" stop-color="#ffffff"/><stop offset="100%" stop-color="#efeff2"/></radialGradient></defs><rect width="800" height="600" fill="url(#bg-razminka-set)"/><circle cx="184.82291146181524" cy="143.95350538939238" r="62.5" fill="#000" opacity="0.1"/><circle cx="184.82291146181524" cy="137.95350538939238" r="62.5" fill="#f5f2e8" stroke="#e0d9c2" stroke-width="2"/><circle cx="184.82291146181524" cy="137.95350538939238" r="53.75" fill="#f5f2e8"/><ellipse cx="189.7" cy="188.1" rx="4" ry="2" fill="#e6e0cf" transform="rotate(89 189.7 188.1)"/><ellipse cx="171.4" cy="176.1" rx="4" ry="2" fill="#e6e0cf" transform="rotate(95 171.4 176.1)"/><ellipse cx="157.9" cy="168.9" rx="4" ry="2" fill="#e6e0cf" transform="rotate(94 157.9 168.9)"/><ellipse cx="225.9" cy="146.7" rx="4" ry="2" fill="#e6e0cf" transform="rotate(152 225.9 146.7)"/><ellipse cx="140.1" cy="115.2" rx="4" ry="2" fill="#e6e0cf" transform="rotate(138 140.1 115.2)"/><ellipse cx="153.8" cy="109.1" rx="4" ry="2" fill="#e6e0cf" transform="rotate(4 153.8 109.1)"/><ellipse cx="189.0" cy="185.5" rx="4" ry="2" fill="#e6e0cf" transform="rotate(79 189.0 185.5)"/><ellipse cx="207.3" cy="93.3" rx="4" ry="2" fill="#e6e0cf" transform="rotate(139 207.3 93.3)"/><ellipse cx="195.9" cy="175.2" rx="4" ry="2" fill="#e6e0cf" transform="rotate(166 195.9 175.2)"/><ellipse cx="221.9" cy="110.0" rx="4" ry="2" fill="#e6e0cf" transform="rotate(80 221.9 110.0)"/><circle cx="184.8" cy="138.0" r="25.0" fill="#f2a48e"/><circle cx="324.77853619121015" cy="141.4422186035663" r="62.5" fill="#000" opacity="0.1"/><circle cx="324.77853619121015" cy="135.4422186035663" r="62.5" fill="#f5f2e8" stroke="#e0d9c2" stroke-width="2"/><circle cx="324.77853619121015" cy="135.4422186035663" r="53.75" fill="#f5f2e8"/><ellipse cx="374.5" cy="147.5" rx="4" ry="2" fill="#e6e0cf" transform="rotate(106 374.5 147.5)"/><ellipse cx="306.3" cy="175.0" rx="4" ry="2" fill="#e6e0cf" transform="rotate(143 306.3 175.0)"/><ellipse cx="374.1" cy="126.0" rx="4" ry="2" fill="#e6e0cf" transform="rotate(10 374.1 126.0)"/><ellipse cx="277.9" cy="135.4" rx="4" ry="2" fill="#e6e0cf" transform="rotate(64 277.9 135.4)"/><ellipse cx="348.8" cy="97.8" rx="4" ry="2" fill="#e6e0cf" transform="rotate(14 348.8 97.8)"/><ellipse cx="302.9" cy="102.2" rx="4" ry="2" fill="#e6e0cf" transform="rotate(119 302.9 102.2)"/><ellipse cx="358.8" cy="111.7" rx="4" ry="2" fill="#e6e0cf" transform="rotate(147 358.8 111.7)"/><ellipse cx="350.8" cy="99.5" rx="4" ry="2" fill="#e6e0cf" transform="rotate(107 350.8 99.5)"/><ellipse cx="345.0" cy="170.1" rx="4" ry="2" fill="#e6e0cf" transform="rotate(173 345.0 170.1)"/><ellipse cx="354.3" cy="101.1" rx="4" ry="2" fill="#e6e0cf" transform="rotate(117 354.3 101.1)"/><circle cx="324.8" cy="135.4" r="25.0" fill="#f2a48e"/><circle cx="472.9102298524231" cy="144.21361899375916" r="62.5" fill="#000" opacity="0.1"/><circle cx="472.9102298524231" cy="138.21361899375916" r="62.5" fill="#f5f2e8" stroke="#e0d9c2" stroke-width="2"/><circle cx="472.9102298524231" cy="138.21361899375916" r="53.75" fill="#f5f2e8"/><ellipse cx="476.2" cy="179.1" rx="4" ry="2" fill="#e6e0cf" transform="rotate(97 476.2 179.1)"/><ellipse cx="507.5" cy="100.9" rx="4" ry="2" fill="#e6e0cf" transform="rotate(88 507.5 100.9)"/><ellipse cx="422.5" cy="142.1" rx="4" ry="2" fill="#e6e0cf" transform="rotate(70 422.5 142.1)"/><ellipse cx="466.2" cy="95.2" rx="4" ry="2" fill="#e6e0cf" transform="rotate(109 466.2 95.2)"/><ellipse cx="428.5" cy="161.4" rx="4" ry="2" fill="#e6e0cf" transform="rotate(100 428.5 161.4)"/><ellipse cx="503.5" cy="171.2" rx="4" ry="2" fill="#e6e0cf" transform="rotate(174 503.5 171.2)"/><ellipse cx="498.8" cy="100.7" rx="4" ry="2" fill="#e6e0cf" transform="rotate(153 498.8 100.7)"/><ellipse cx="428.7" cy="129.5" rx="4" ry="2" fill="#e6e0cf" transform="rotate(76 428.7 129.5)"/><ellipse cx="434.1" cy="168.0" rx="4" ry="2" fill="#e6e0cf" transform="rotate(8 434.1 168.0)"/><ellipse cx="437.1" cy="173.5" rx="4" ry="2" fill="#e6e0cf" transform="rotate(51 437.1 173.5)"/><circle cx="472.9" cy="138.2" r="25.0" fill="#f2a48e"/><circle cx="618.1624780911952" cy="144.50119598768651" r="62.5" fill="#000" opacity="0.1"/><circle cx="618.1624780911952" cy="138.50119598768651" r="62.5" fill="#f5f2e8" stroke="#e0d9c2" stroke-width="2"/><circle cx="618.1624780911952" cy="138.50119598768651" r="53.75" fill="#f5f2e8"/><ellipse cx="571.2" cy="141.2" rx="4" ry="2" fill="#e6e0cf" transform="rotate(64 571.2 141.2)"/><ellipse cx="627.9" cy="100.8" rx="4" ry="2" fill="#e6e0cf" transform="rotate(5 627.9 100.8)"/><ellipse cx="668.6" cy="141.7" rx="4" ry="2" fill="#e6e0cf" transform="rotate(71 668.6 141.7)"/><ellipse cx="599.4" cy="94.9" rx="4" ry="2" fill="#e6e0cf" transform="rotate(120 599.4 94.9)"/><ellipse cx="586.8" cy="167.6" rx="4" ry="2" fill="#e6e0cf" transform="rotate(103 586.8 167.6)"/><ellipse cx="587.6" cy="171.3" rx="4" ry="2" fill="#e6e0cf" transform="rotate(46 587.6 171.3)"/><ellipse cx="582.8" cy="119.0" rx="4" ry="2" fill="#e6e0cf" transform="rotate(139 582.8 119.0)"/><ellipse cx="589.8" cy="101.1" rx="4" ry="2" fill="#e6e0cf" transform="rotate(174 589.8 101.1)"/><ellipse cx="614.8" cy="99.0" rx="4" ry="2" fill="#e6e0cf" transform="rotate(170 614.8 99.0)"/><ellipse cx="607.7" cy="96.8" rx="4" ry="2" fill="#e6e0cf" transform="rotate(106 607.7 96.8)"/><circle cx="618.2" cy="138.5" r="25.0" fill="#f2a48e"/><circle cx="182.78460286930203" cy="289.88962277956307" r="62.5" fill="#000" opacity="0.1"/><circle cx="182.78460286930203" cy="283.88962277956307" r="62.5" fill="#f5f2e8" stroke="#e0d9c2" stroke-width="2"/><circle cx="182.78460286930203" cy="283.88962277956307" r="53.75" fill="#f5f2e8"/><ellipse cx="223.3" cy="257.1" rx="4" ry="2" fill="#e6e0cf" transform="rotate(122 223.3 257.1)"/><ellipse cx="206.2" cy="249.9" rx="4" ry="2" fill="#e6e0cf" transform="rotate(122 206.2 249.9)"/><ellipse cx="165.6" cy="245.2" rx="4" ry="2" fill="#e6e0cf" transform="rotate(168 165.6 245.2)"/><ellipse cx="197.3" cy="236.7" rx="4" ry="2" fill="#e6e0cf" transform="rotate(132 197.3 236.7)"/><ellipse cx="149.1" cy="303.8" rx="4" ry="2" fill="#e6e0cf" transform="rotate(163 149.1 303.8)"/><ellipse cx="146.1" cy="270.4" rx="4" ry="2" fill="#e6e0cf" transform="rotate(9 146.1 270.4)"/><ellipse cx="232.4" cy="273.4" rx="4" ry="2" fill="#e6e0cf" transform="rotate(118 232.4 273.4)"/><ellipse cx="222.7" cy="297.4" rx="4" ry="2" fill="#e6e0cf" transform="rotate(10 222.7 297.4)"/><ellipse cx="146.9" cy="319.4" rx="4" ry="2" fill="#e6e0cf" transform="rotate(66 146.9 319.4)"/><ellipse cx="199.8" cy="242.9" rx="4" ry="2" fill="#e6e0cf" transform="rotate(34 199.8 242.9)"/><circle cx="182.8" cy="283.9" r="25.0" fill="#f2a48e"/><circle cx="328.3756065387279" cy="288.16219186224043" r="62.5" fill="#000" opacity="0.1"/><circle cx="328.3756065387279" cy="282.16219186224043" r="62.5" fill="#f5f2e8" stroke="#e0d9c2" stroke-width="2"/><circle cx="328.3756065387279" cy="282.16219186224043" r="53.75" fill="#f5f2e8"/><ellipse cx="343.4" cy="327.7" rx="4" ry="2" fill="#e6e0cf" transform="rotate(63 343.4 327.7)"/><ellipse cx="328.1" cy="322.9" rx="4" ry="2" fill="#e6e0cf" transform="rotate(72 328.1 322.9)"/><ellipse cx="281.1" cy="299.7" rx="4" ry="2" fill="#e6e0cf" transform="rotate(58 281.1 299.7)"/><ellipse cx="285.6" cy="274.8" rx="4" ry="2" fill="#e6e0cf" transform="rotate(64 285.6 274.8)"/><ellipse cx="350.0" cy="317.1" rx="4" ry="2" fill="#e6e0cf" transform="rotate(158 350.0 317.1)"/><ellipse cx="294.8" cy="307.4" rx="4" ry="2" fill="#e6e0cf" transform="rotate(5 294.8 307.4)"/><ellipse cx="326.4" cy="327.0" rx="4" ry="2" fill="#e6e0cf" transform="rotate(40 326.4 327.0)"/><ellipse cx="298.4" cy="314.9" rx="4" ry="2" fill="#e6e0cf" transform="rotate(66 298.4 314.9)"/><ellipse cx="285.6" cy="265.0" rx="4" ry="2" fill="#e6e0cf" transform="rotate(150 285.6 265.0)"/><ellipse cx="300.9" cy="242.0" rx="4" ry="2" fill="#e6e0cf" transform="rotate(12 300.9 242.0)"/><circle cx="328.4" cy="282.2" r="25.0" fill="#f2a48e"/><circle cx="468.3375321738422" cy="284.53645376488566" r="62.5" fill="#000" opacity="0.1"/><circle cx="468.3375321738422" cy="278.53645376488566" r="62.5" fill="#f5f2e8" stroke="#e0d9c2" stroke-width="2"/><circle cx="468.3375321738422" cy="278.53645376488566" r="53.75" fill="#f5f2e8"/><ellipse cx="422.8" cy="269.6" rx="4" ry="2" fill="#e6e0cf" transform="rotate(42 422.8 269.6)"/><ellipse cx="426.8" cy="256.6" rx="4" ry="2" fill="#e6e0cf" transform="rotate(17 426.8 256.6)"/><ellipse cx="512.9" cy="279.9" rx="4" ry="2" fill="#e6e0cf" transform="rotate(42 512.9 279.9)"/><ellipse cx="463.5" cy="229.1" rx="4" ry="2" fill="#e6e0cf" transform="rotate(59 463.5 229.1)"/><ellipse cx="469.6" cy="317.5" rx="4" ry="2" fill="#e6e0cf" transform="rotate(46 469.6 317.5)"/><ellipse cx="437.6" cy="249.3" rx="4" ry="2" fill="#e6e0cf" transform="rotate(178 437.6 249.3)"/><ellipse cx="456.4" cy="236.5" rx="4" ry="2" fill="#e6e0cf" transform="rotate(138 456.4 236.5)"/><ellipse cx="427.1" cy="262.7" rx="4" ry="2" fill="#e6e0cf" transform="rotate(35 427.1 262.7)"/><ellipse cx="447.3" cy="317.0" rx="4" ry="2" fill="#e6e0cf" transform="rotate(72 447.3 317.0)"/><ellipse cx="500.4" cy="314.8" rx="4" ry="2" fill="#e6e0cf" transform="rotate(108 500.4 314.8)"/><circle cx="468.3" cy="278.5" r="25.0" fill="#f2a48e"/><circle cx="617.06753683649" cy="287.8808381613344" r="62.5" fill="#000" opacity="0.1"/><circle cx="617.06753683649" cy="281.8808381613344" r="62.5" fill="#f5f2e8" stroke="#e0d9c2" stroke-width="2"/><circle cx="617.06753683649" cy="281.8808381613344" r="53.75" fill="#f5f2e8"/><ellipse cx="579.1" cy="311.2" rx="4" ry="2" fill="#e6e0cf" transform="rotate(115 579.1 311.2)"/><ellipse cx="573.6" cy="271.7" rx="4" ry="2" fill="#e6e0cf" transform="rotate(116 573.6 271.7)"/><ellipse cx="586.5" cy="313.0" rx="4" ry="2" fill="#e6e0cf" transform="rotate(21 586.5 313.0)"/><ellipse cx="581.1" cy="308.9" rx="4" ry="2" fill="#e6e0cf" transform="rotate(153 581.1 308.9)"/><ellipse cx="647.8" cy="253.9" rx="4" ry="2" fill="#e6e0cf" transform="rotate(165 647.8 253.9)"/><ellipse cx="624.2" cy="320.6" rx="4" ry="2" fill="#e6e0cf" transform="rotate(64 624.2 320.6)"/><ellipse cx="627.9" cy="319.4" rx="4" ry="2" fill="#e6e0cf" transform="rotate(113 627.9 319.4)"/><ellipse cx="651.6" cy="311.2" rx="4" ry="2" fill="#e6e0cf" transform="rotate(99 651.6 311.2)"/><ellipse cx="647.3" cy="319.5" rx="4" ry="2" fill="#e6e0cf" transform="rotate(178 647.3 319.5)"/><ellipse cx="598.2" cy="238.4" rx="4" ry="2" fill="#e6e0cf" transform="rotate(130 598.2 238.4)"/><circle cx="617.1" cy="281.9" r="25.0" fill="#f2a48e"/><circle cx="181.97247117385268" cy="428.4966122042388" r="62.5" fill="#000" opacity="0.1"/><circle cx="181.97247117385268" cy="422.4966122042388" r="62.5" fill="#f5f2e8" stroke="#e0d9c2" stroke-width="2"/><circle cx="181.97247117385268" cy="422.4966122042388" r="53.75" fill="#f5f2e8"/><ellipse cx="212.8" cy="458.0" rx="4" ry="2" fill="#e6e0cf" transform="rotate(163 212.8 458.0)"/><ellipse cx="131.4" cy="427.8" rx="4" ry="2" fill="#e6e0cf" transform="rotate(33 131.4 427.8)"/><ellipse cx="140.9" cy="424.4" rx="4" ry="2" fill="#e6e0cf" transform="rotate(167 140.9 424.4)"/><ellipse cx="139.7" cy="407.0" rx="4" ry="2" fill="#e6e0cf" transform="rotate(40 139.7 407.0)"/><ellipse cx="141.1" cy="443.8" rx="4" ry="2" fill="#e6e0cf" transform="rotate(20 141.1 443.8)"/><ellipse cx="149.9" cy="445.4" rx="4" ry="2" fill="#e6e0cf" transform="rotate(52 149.9 445.4)"/><ellipse cx="231.6" cy="426.5" rx="4" ry="2" fill="#e6e0cf" transform="rotate(109 231.6 426.5)"/><ellipse cx="226.2" cy="403.7" rx="4" ry="2" fill="#e6e0cf" transform="rotate(109 226.2 403.7)"/><ellipse cx="209.8" cy="389.9" rx="4" ry="2" fill="#e6e0cf" transform="rotate(46 209.8 389.9)"/><ellipse cx="204.2" cy="465.0" rx="4" ry="2" fill="#e6e0cf" transform="rotate(41 204.2 465.0)"/><circle cx="182.0" cy="422.5" r="25.0" fill="#f2a48e"/><circle cx="329.9944651648402" cy="429.4452724400908" r="62.5" fill="#000" opacity="0.1"/><circle cx="329.9944651648402" cy="423.4452724400908" r="62.5" fill="#f5f2e8" stroke="#e0d9c2" stroke-width="2"/><circle cx="329.9944651648402" cy="423.4452724400908" r="53.75" fill="#f5f2e8"/><ellipse cx="368.3" cy="416.1" rx="4" ry="2" fill="#e6e0cf" transform="rotate(180 368.3 416.1)"/><ellipse cx="379.8" cy="415.0" rx="4" ry="2" fill="#e6e0cf" transform="rotate(89 379.8 415.0)"/><ellipse cx="315.0" cy="386.5" rx="4" ry="2" fill="#e6e0cf" transform="rotate(161 315.0 386.5)"/><ellipse cx="369.5" cy="408.8" rx="4" ry="2" fill="#e6e0cf" transform="rotate(146 369.5 408.8)"/><ellipse cx="361.5" cy="461.9" rx="4" ry="2" fill="#e6e0cf" transform="rotate(75 361.5 461.9)"/><ellipse cx="361.4" cy="462.2" rx="4" ry="2" fill="#e6e0cf" transform="rotate(63 361.4 462.2)"/><ellipse cx="327.5" cy="473.1" rx="4" ry="2" fill="#e6e0cf" transform="rotate(35 327.5 473.1)"/><ellipse cx="290.8" cy="426.8" rx="4" ry="2" fill="#e6e0cf" transform="rotate(111 290.8 426.8)"/><ellipse cx="305.1" cy="466.2" rx="4" ry="2" fill="#e6e0cf" transform="rotate(138 305.1 466.2)"/><ellipse cx="326.1" cy="377.7" rx="4" ry="2" fill="#e6e0cf" transform="rotate(63 326.1 377.7)"/><circle cx="330.0" cy="423.4" r="25.0" fill="#f2a48e"/><circle cx="474.2541171181947" cy="426.0565070398152" r="62.5" fill="#000" opacity="0.1"/><circle cx="474.2541171181947" cy="420.0565070398152" r="62.5" fill="#f5f2e8" stroke="#e0d9c2" stroke-width="2"/><circle cx="474.2541171181947" cy="420.0565070398152" r="53.75" fill="#f5f2e8"/><ellipse cx="514.6" cy="410.3" rx="4" ry="2" fill="#e6e0cf" transform="rotate(129 514.6 410.3)"/><ellipse cx="507.9" cy="453.6" rx="4" ry="2" fill="#e6e0cf" transform="rotate(164 507.9 453.6)"/><ellipse cx="434.9" cy="423.4" rx="4" ry="2" fill="#e6e0cf" transform="rotate(78 434.9 423.4)"/><ellipse cx="462.9" cy="463.9" rx="4" ry="2" fill="#e6e0cf" transform="rotate(16 462.9 463.9)"/><ellipse cx="519.2" cy="415.4" rx="4" ry="2" fill="#e6e0cf" transform="rotate(56 519.2 415.4)"/><ellipse cx="432.7" cy="412.9" rx="4" ry="2" fill="#e6e0cf" transform="rotate(174 432.7 412.9)"/><ellipse cx="514.6" cy="406.9" rx="4" ry="2" fill="#e6e0cf" transform="rotate(167 514.6 406.9)"/><ellipse cx="427.0" cy="412.8" rx="4" ry="2" fill="#e6e0cf" transform="rotate(61 427.0 412.8)"/><ellipse cx="447.5" cy="455.7" rx="4" ry="2" fill="#e6e0cf" transform="rotate(123 447.5 455.7)"/><ellipse cx="456.4" cy="378.7" rx="4" ry="2" fill="#e6e0cf" transform="rotate(59 456.4 378.7)"/><circle cx="474.3" cy="420.1" r="25.0" fill="#f2a48e"/><circle cx="614.2695976961404" cy="426.67159395478666" r="62.5" fill="#000" opacity="0.1"/><circle cx="614.2695976961404" cy="420.67159395478666" r="62.5" fill="#f5f2e8" stroke="#e0d9c2" stroke-width="2"/><circle cx="614.2695976961404" cy="420.67159395478666" r="53.75" fill="#f5f2e8"/><ellipse cx="594.2" cy="467.1" rx="4" ry="2" fill="#e6e0cf" transform="rotate(106 594.2 467.1)"/><ellipse cx="596.5" cy="458.7" rx="4" ry="2" fill="#e6e0cf" transform="rotate(90 596.5 458.7)"/><ellipse cx="589.8" cy="385.4" rx="4" ry="2" fill="#e6e0cf" transform="rotate(88 589.8 385.4)"/><ellipse cx="574.0" cy="394.2" rx="4" ry="2" fill="#e6e0cf" transform="rotate(65 574.0 394.2)"/><ellipse cx="571.7" cy="400.9" rx="4" ry="2" fill="#e6e0cf" transform="rotate(18 571.7 400.9)"/><ellipse cx="596.3" cy="464.4" rx="4" ry="2" fill="#e6e0cf" transform="rotate(124 596.3 464.4)"/><ellipse cx="634.5" cy="458.4" rx="4" ry="2" fill="#e6e0cf" transform="rotate(147 634.5 458.4)"/><ellipse cx="586.3" cy="452.3" rx="4" ry="2" fill="#e6e0cf" transform="rotate(158 586.3 452.3)"/><ellipse cx="604.9" cy="372.9" rx="4" ry="2" fill="#e6e0cf" transform="rotate(44 604.9 372.9)"/><ellipse cx="640.9" cy="380.0" rx="4" ry="2" fill="#e6e0cf" transform="rotate(49 640.9 380.0)"/><circle cx="614.3" cy="420.7" r="25.0" fill="#f2a48e"/></svg>