<svg xmlns="http://www.w3.org/2000/svg" viewBox="0 0 800 600"><defs><radialGradient id="bg-roll-s-lososem" cx="50%" cy="35%" r="80%"><stop offset="0%" stop-color="#ffffff"/><stop offset="100%" stop-color="#efeff2"/></radialGradient></defs><rect width="800" height="600" fill="url(#bg-roll-s-lososem)"/><circle cx="240.15758463554084" cy="208.1194645743817" r="70" fill="#000" opacity="0.1"/><circle cx="240.15758463554084" cy="202.1194645743817" r="70" fill="#f5f2e8" stroke="#e0d9c2" stroke-width="2"/><circle cx="240.15758463554084" cy="202.1194645743817" r="60.199999999999996" fill="#f5f2e8"/><ellipse cx="208.3" cy="233.1" rx="4" ry="2" fill="#e6e0cf" transform="rotate(99 208.3 233.1)"/><ellipse cx="205.3" cy="173.8" rx="4" ry="2" fill="#e6e0cf" transform="rotate(64 205.3 173.8)"/><ellipse cx="195.6" cy="166.0" rx="4" ry="2" fill="#e6e0cf" transform="rotate(58 195.6 166.0)"/><ellipse cx="251.3" cy="154.8" rx="4" ry="2" fill="#e6e0cf" transform="rotate(35 251.3 154.8)"/><ellipse cx="240.1" cy="252.4" rx="4" ry="2" fill="#e6e0cf" transform="rotate(21 240.1 252.4)"/><ellipse cx="208.9" cy="170.6" rx="4" ry="2" fill="#e6e0cf" transform="rotate(55 208.9 170.6)"/><ellipse cx="265.1" cy="158.2" rx="4" ry="2" fill="#e6e0cf" transform="rotate(20 265.1 158.2)"/><ellipse cx="261.3" cy="254.4" rx="4" ry="2" fill="#e6e0cf" transform="rotate(172 261.3 254.4)"/><ellipse cx="263.6" cy="240.4" rx="4" ry="2" fill="#e6e0cf" transform="rotate(32 263.6 240.4)"/><ellipse cx="278.8" cy="242.0" rx="4" ry="2" fill="#e6e0cf" transform="rotate(34 278.8 242.0)"/><circle cx="254.7" cy="207.1" r="18.2" fill="#ef8354"/><circle cx="231.2" cy="214.6" r="18.2" fill="#7fb069"/><circle cx="234.9" cy="187.6" r="18.2" fill="#f2ecd8"/><circle cx="398.53425809554756" cy="203.9512915890664" r="70" fill="#000" opacity="0.1"/><circle cx="398.53425809554756" cy="197.9512915890664" r="70" fill="#f5f2e8" stroke="#e0d9c2" stroke-width="2"/><circle cx="398.53425809554756" cy="197.9512915890664" r="60.199999999999996" fill="#f5f2e8"/><ellipse cx="350.3" cy="200.4" rx="4" ry="2" fill="#e6e0cf" transform="rotate(48 350.3 200.4)"/><ellipse cx="443.4" cy="225.1" rx="4" ry="2" fill="#e6e0cf" transform="rotate(169 443.4 225.1)"/><ellipse cx="409.3" cy="152.1" rx="4" ry="2" fill="#e6e0cf" transform="rotate(80 409.3 152.1)"/><ellipse cx="401.8" cy="253.9" rx="4" ry="2" fill="#e6e0cf" transform="rotate(27 401.8 253.9)"/><ellipse cx="357.3" cy="164.9" rx="4" ry="2" fill="#e6e0cf" transform="rotate(148 357.3 164.9)"/><ellipse cx="349.3" cy="175.3" rx="4" ry="2" fill="#e6e0cf" transform="rotate(131 349.3 175.3)"/><ellipse cx="435.0" cy="174.3" rx="4" ry="2" fill="#e6e0cf" transform="rotate(169 435.0 174.3)"/><ellipse cx="445.3" cy="180.1" rx="4" ry="2" fill="#e6e0cf" transform="rotate(142 445.3 180.1)"/><ellipse cx="422.3" cy="244.9" rx="4" ry="2" fill="#e6e0cf" transform="rotate(68 422.3 244.9)"/><ellipse cx="363.5" cy="241.9" rx="4" ry="2" fill="#e6e0cf" transform="rotate(147 363.5 241.9)"/><circle cx="413.9" cy="199.4" r="18.2" fill="#ef8354"/><circle cx="385.5" cy="206.1" r="18.2" fill="#7fb069"/><circle cx="397.9" cy="182.6" r="18.2" fill="#f2ecd8"/><circle cx="564.3664572238922" cy="203.09110767766833" r="70" fill="#000" opacity="0.1"/><circle cx="564.3664572238922" cy="197.09110767766833" r="70" fill="#f5f2e8" stroke="#e0d9c2" stroke-width="2"/><circle cx="564.3664572238922" cy="197.09110767766833" r="60.199999999999996" fill="#f5f2e8"/><ellipse cx="556.7" cy="250.2" rx="4" ry="2" fill="#e6e0cf" transform="rotate(62 556.7 250.2)"/><ellipse cx="611.0" cy="206.4" rx="4" ry="2" fill="#e6e0cf" transform="rotate(82 611.0 206.4)"/><ellipse cx="609.7" cy="217.4" rx="4" ry="2" fill="#e6e0cf" transform="rotate(132 609.7 217.4)"/><ellipse cx="559.1" cy="146.3" rx="4" ry="2" fill="#e6e0cf" transform="rotate(178 559.1 146.3)"/><ellipse cx="606.4" cy="235.2" rx="4" ry="2" fill="#e6e0cf" transform="rotate(54 606.4 235.2)"/><ellipse cx="523.4" cy="231.8" rx="4" ry="2" fill="#e6e0cf" transform="rotate(51 523.4 231.8)"/><ellipse cx="612.4" cy="214.5" rx="4" ry="2" fill="#e6e0cf" transform="rotate(94 612.4 214.5)"/><ellipse cx="540.4" cy="156.5" rx="4" ry="2" fill="#e6e0cf" transform="rotate(76 540.4 156.5)"/><ellipse cx="524.0" cy="215.0" rx="4" ry="2" fill="#e6e0cf" transform="rotate(70 524.0 215.0)"/><ellipse cx="527.5" cy="221.0" rx="4" ry="2" fill="#e6e0cf" transform="rotate(91 527.5 221.0)"/><circle cx="579.8" cy="197.6" r="18.2" fill="#ef8354"/><circle cx="553.3" cy="207.8" r="18.2" fill="#7fb069"/><circle cx="557.6" cy="183.3" r="18.2" fill="#f2ecd8"/><circle cx="241.5912295281887" cy="366.9890006482601" r="70" fill="#000" opacity="0.1"/><circle cx="241.5912295281887" cy="360.9890006482601" r="70" fill="#f5f2e8" stroke="#e0d9c2" stroke-width="2"/><circle cx="241.5912295281887" cy="360.9890006482601" r="60.199999999999996" fill="#f5f2e8"/><ellipse cx="197.6" cy="353.1" rx="4" ry="2" fill="#e6e0cf" transform="rotate(117 197.6 353.1)"/><ellipse cx="235.3" cy="315.3" rx="4" ry="2" fill="#e6e0cf" transform="rotate(108 235.3 315.3)"/><ellipse cx="241.4" cy="312.6" rx="4" ry="2" fill="#e6e0cf" transform="rotate(0 241.4 312.6)"/><ellipse cx="282.6" cy="339.0" rx="4" ry="2" fill="#e6e0cf" transform="rotate(137 282.6 339.0)"/><ellipse cx="266.8" cy="398.3" rx="4" ry="2" fill="#e6e0cf" transform="rotate(122 266.8 398.3)"/><ellipse cx="271.5" cy="406.9" rx="4" ry="2" fill="#e6e0cf" transform="rotate(75 271.5 406.9)"/><ellipse cx="269.9" cy="401.6" rx="4" ry="2" fill="#e6e0cf" transform="rotate(44 269.9 401.6)"/><ellipse cx="190.7" cy="337.4" rx="4" ry="2" fill="#e6e0cf" transform="rotate(13 190.7 337.4)"/><ellipse cx="215.8" cy="398.7" rx="4" ry="2" fill="#e6e0cf" transform="rotate(156 215.8 398.7)"/><ellipse cx="284.9" cy="377.1" rx="4" ry="2" fill="#e6e0cf" transform="rotate(130 284.9 377.1)"/><circle cx="255.3" cy="368.0" r="18.2" fill="#ef8354"/><circle cx="230.6" cy="371.8" r="18.2" fill="#7fb069"/><circle cx="240.5" cy="345.6" r="18.2" fill="#f2ecd8"/><circle cx="398.01829662919044" cy="366.51662337221205" r="70" fill="#000" opacity="0.1"/><circle cx="398.01829662919044" cy="360.51662337221205" r="70" fill="#f5f2e8" stroke="#e0d9c2" stroke-width="2"/><circle cx="398.01829662919044" cy="360.51662337221205" r="60.199999999999996" fill="#f5f2e8"/><ellipse cx="361.6" cy="323.6" rx="4" ry="2" fill="#e6e0cf" transform="rotate(50 361.6 323.6)"/><ellipse cx="450.1" cy="358.9" rx="4" ry="2" fill="#e6e0cf" transform="rotate(142 450.1 358.9)"/><ellipse cx="349.4" cy="368.2" rx="4" ry="2" fill="#e6e0cf" transform="rotate(58 349.4 368.2)"/><ellipse cx="445.0" cy="340.2" rx="4" ry="2" fill="#e6e0cf" transform="rotate(31 445.0 340.2)"/><ellipse cx="355.8" cy="335.0" rx="4" ry="2" fill="#e6e0cf" transform="rotate(161 355.8 335.0)"/><ellipse cx="350.1" cy="346.1" rx="4" ry="2" fill="#e6e0cf" transform="rotate(17 350.1 346.1)"/><ellipse cx="408.9" cy="315.5" rx="4" ry="2" fill="#e6e0cf" transform="rotate(65 408.9 315.5)"/><ellipse cx="445.5" cy="352.6" rx="4" ry="2" fill="#e6e0cf" transform="rotate(39 445.5 352.6)"/><ellipse cx="369.9" cy="326.4" rx="4" ry="2" fill="#e6e0cf" transform="rotate(2 369.9 326.4)"/><ellipse cx="405.4" cy="405.1" rx="4" ry="2" fill="#e6e0cf" transform="rotate(56 405.4 405.1)"/><circle cx="412.7" cy="365.1" r="18.2" fill="#ef8354"/><circle cx="385.2" cy="369.1" r="18.2" fill="#7fb069"/><circle cx="390.3" cy="347.2" r="18.2" fill="#f2ecd8"/><circle cx="560.159711111337" cy="370.20045477338135" r="70" fill="#000" opacity="0.1"/><circle cx="560.159711111337" cy="364.20045477338135" r="70" fill="#f5f2e8" stroke="#e0d9c2" stroke-width="2"/><circle cx="560.159711111337" cy="364.20045477338135" r="60.199999999999996" fill="#f5f2e8"/><ellipse cx="518.8" cy="340.7" rx="4" ry="2" fill="#e6e0cf" transform="rotate(35 518.8 340.7)"/><ellipse cx="513.3" cy="359.2" rx="4" ry="2" fill="#e6e0cf" transform="rotate(63 513.3 359.2)"/><ellipse cx="546.8" cy="408.8" rx="4" ry="2" fill="#e6e0cf" transform="rotate(7 546.8 408.8)"/><ellipse cx="553.7" cy="408.3" rx="4" ry="2" fill="#e6e0cf" transform="rotate(128 553.7 408.3)"/><ellipse cx="587.2" cy="404.3" rx="4" ry="2" fill="#e6e0cf" transform="rotate(45 587.2 404.3)"/><ellipse cx="513.9" cy="388.0" rx="4" ry="2" fill="#e6e0cf" transform="rotate(171 513.9 388.0)"/><ellipse cx="584.8" cy="404.1" rx="4" ry="2" fill="#e6e0cf" transform="rotate(29 584.8 404.1)"/><ellipse cx="538.2" cy="326.0" rx="4" ry="2" fill="#e6e0cf" transform="rotate(7 538.2 326.0)"/><ellipse cx="511.5" cy="343.5" rx="4" ry="2" fill="#e6e0cf" transform="rotate(27 511.5 343.5)"/><ellipse cx="575.8" cy="412.9" rx="4" ry="2" fill="#e6e0cf" transform="rotate(173 575.8 412.9)"/><circle cx="574.0" cy="371.0" r="18.2" fill="#ef8354"/><circle cx="549.0" cy="374.8" r="18.2" fill="#7fb069"/><circle cx="555.7" cy="349.5" r="18.2" fill="#f2ecd8"/></svg>