<svg xmlns="http://www.w3.org/2000/svg" viewBox="0 0 800 600"><defs><radialGradient id="bg-roll-s-krabom" cx="50%" cy="35%" r="80%"><stop offset="0%" stop-color="#26262c"/><stop offset="100%" stop-color="#141417"/></radialGradient></defs><rect width="800" height="600" fill="url(#bg-roll-s-krabom)"/><circle cx="235.49491682834923" cy="205.43620441295207" r="70" fill="#000" opacity="0.35"/><circle cx="235.49491682834923" cy="199.43620441295207" r="70" fill="#2e3230"/><circle cx="235.49491682834923" cy="199.43620441295207" r="60.199999999999996" fill="#f5f2e8"/><ellipse cx="200.3" cy="160.8" rx="4" ry="2" fill="#e6e0cf" transform="rotate(30 200.3 160.8)"/><ellipse cx="238.0" cy="244.4" rx="4" ry="2" fill="#e6e0cf" transform="rotate(2 238.0 244.4)"/><ellipse cx="238.6" cy="152.6" rx="4" ry="2" fill="#e6e0cf" transform="rotate(154 238.6 152.6)"/><ellipse cx="208.1" cy="161.3" rx="4" ry="2" fill="#e6e0cf" transform="rotate(62 208.1 161.3)"/><ellipse cx="216.6" cy="240.7" rx="4" ry="2" fill="#e6e0cf" transform="rotate(38 216.6 240.7)"/><ellipse cx="198.7" cy="167.6" rx="4" ry="2" fill="#e6e0cf" transform="rotate(52 198.7 167.6)"/><ellipse cx="181.8" cy="204.0" rx="4" ry="2" fill="#e6e0cf" transform="rotate(145 181.8 204.0)"/><ellipse cx="280.0" cy="178.1" rx="4" ry="2" fill="#e6e0cf" transform="rotate(81 280.0 178.1)"/><ellipse cx="287.8" cy="178.4" rx="4" ry="2" fill="#e6e0cf" transform="rotate(77 287.8 178.4)"/><ellipse cx="264.6" cy="155.5" rx="4" ry="2" fill="#e6e0cf" transform="rotate(11 264.6 155.5)"/><circle cx="250.9" cy="199.7" r="18.2" fill="#e87b7b"/><circle cx="225.3" cy="211.0" r="18.2" fill="#7fb069"/><circle cx="233.2" cy="184.2" r="18.2" fill="#f2ecd8"/><circle cx="402.78046813979745" cy="206.94170397147536" r="70" fill="#000" opacity="0.35"/><circle cx="402.78046813979745" cy="200.94170397147536" r="70" fill="#2e3230"/><circle cx="402.78046813979745" cy="200.94170397147536" r="60.199999999999996" fill="#f5f2e8"/><ellipse cx="368.8" cy="159.1" rx="4" ry="2" fill="#e6e0cf" transform="rotate(112 368.8 159.1)"/><ellipse cx="450.0" cy="197.6" rx="4" ry="2" fill="#e6e0cf" transform="rotate(180 450.0 197.6)"/><ellipse cx="425.9" cy="152.4" rx="4" ry="2" fill="#e6e0cf" transform="rotate(20 425.9 152.4)"/><ellipse cx="443.5" cy="221.7" rx="4" ry="2" fill="#e6e0cf" transform="rotate(38 443.5 221.7)"/><ellipse cx="447.4" cy="204.3" rx="4" ry="2" fill="#e6e0cf" transform="rotate(16 447.4 204.3)"/><ellipse cx="450.0" cy="211.2" rx="4" ry="2" fill="#e6e0cf" transform="rotate(48 450.0 211.2)"/><ellipse cx="448.5" cy="186.1" rx="4" ry="2" fill="#e6e0cf" transform="rotate(179 448.5 186.1)"/><ellipse cx="408.6" cy="246.6" rx="4" ry="2" fill="#e6e0cf" transform="rotate(132 408.6 246.6)"/><ellipse cx="349.3" cy="206.1" rx="4" ry="2" fill="#e6e0cf" transform="rotate(126 349.3 206.1)"/><ellipse cx="449.2" cy="190.8" rx="4" ry="2" fill="#e6e0cf" transform="rotate(134 449.2 190.8)"/><circle cx="417.9" cy="203.8" r="18.2" fill="#e87b7b"/><circle cx="392.6" cy="212.5" r="18.2" fill="#7fb069"/><circle cx="399.8" cy="185.8" r="18.2" fill="#f2ecd8"/><circle cx="563.6633997615427" cy="204.19749670289457" r="70" fill="#000" opacity="0.35"/><circle cx="563.6633997615427" cy="198.19749670289457" r="70" fill="#2e3230"/><circle cx="563.6633997615427" cy="198.19749670289457" r="60.199999999999996" fill="#f5f2e8"/><ellipse cx="555.4" cy="143.2" rx="4" ry="2" fill="#e6e0cf" transform="rotate(99 555.4 143.2)"/><ellipse cx="613.8" cy="202.7" rx="4" ry="2" fill="#e6e0cf" transform="rotate(104 613.8 202.7)"/><ellipse cx="571.3" cy="252.2" rx="4" ry="2" fill="#e6e0cf" transform="rotate(81 571.3 252.2)"/><ellipse cx="573.2" cy="241.1" rx="4" ry="2" fill="#e6e0cf" transform="rotate(121 573.2 241.1)"/><ellipse cx="563.7" cy="146.3" rx="4" ry="2" fill="#e6e0cf" transform="rotate(110 563.7 146.3)"/><ellipse cx="526.1" cy="173.3" rx="4" ry="2" fill="#e6e0cf" transform="rotate(153 526.1 173.3)"/><ellipse cx="592.2" cy="246.7" rx="4" ry="2" fill="#e6e0cf" transform="rotate(71 592.2 246.7)"/><ellipse cx="606.1" cy="217.9" rx="4" ry="2" fill="#e6e0cf" transform="rotate(170 606.1 217.9)"/><ellipse cx="608.3" cy="215.1" rx="4" ry="2" fill="#e6e0cf" transform="rotate(133 608.3 215.1)"/><ellipse cx="576.0" cy="248.6" rx="4" ry="2" fill="#e6e0cf" transform="rotate(20 576.0 248.6)"/><circle cx="578.2" cy="203.1" r="18.2" fill="#e87b7b"/><circle cx="551.1" cy="207.0" r="18.2" fill="#7fb069"/><circle cx="558.6" cy="183.6" r="18.2" fill="#f2ecd8"/><circle cx="239.80935376510024" cy="364.07818540371954" r="70" fill="#000" opacity="0.35"/><circle cx="239.80935376510024" cy="358.07818540371954" r="70" fill="#2e3230"/><circle cx="239.80935376510024" cy="358.07818540371954" r="60.199999999999996" fill="#f5f2e8"/><ellipse cx="187.7" cy="353.3" rx="4" ry="2" fill="#e6e0cf" transform="rotate(38 187.7 353.3)"/><ellipse cx="276.0" cy="332.7" rx="4" ry="2" fill="#e6e0cf" transform="rotate(48 276.0 332.7)"/><ellipse cx="209.0" cy="390.6" rx="4" ry="2" fill="#e6e0cf" transform="rotate(69 209.0 390.6)"/><ellipse cx="207.7" cy="390.8" rx="4" ry="2" fill="#e6e0cf" transform="rotate(124 207.7 390.8)"/><ellipse cx="268.3" cy="319.8" rx="4" ry="2" fill="#e6e0cf" transform="rotate(164 268.3 319.8)"/><ellipse cx="256.4" cy="311.4" rx="4" ry="2" fill="#e6e0cf" transform="rotate(125 256.4 311.4)"/><ellipse cx="212.4" cy="407.5" rx="4" ry="2" fill="#e6e0cf" transform="rotate(12 212.4 407.5)"/><ellipse cx="275.5" cy="387.1" rx="4" ry="2" fill="#e6e0cf" transform="rotate(24 275.5 387.1)"/><ellipse cx="191.4" cy="334.4" rx="4" ry="2" fill="#e6e0cf" transform="rotate(79 191.4 334.4)"/><ellipse cx="196.5" cy="337.2" rx="4" ry="2" fill="#e6e0cf" transform="rotate(8 196.5 337.2)"/><circle cx="255.0" cy="360.7" r="18.2" fill="#e87b7b"/><circle cx="230.6" cy="370.4" r="18.2" fill="#7fb069"/><circle cx="236.3" cy="343.1" r="18.2" fill="#f2ecd8"/><circle cx="401.3601259421557" cy="366.19784770160913" r="70" fill="#000" opacity="0.35"/><circle cx="401.3601259421557" cy="360.19784770160913" r="70" fill="#2e3230"/><circle cx="401.3601259421557" cy="360.19784770160913" r="60.199999999999996" fill="#f5f2e8"/><ellipse cx="443.7" cy="337.3" rx="4" ry="2" fill="#e6e0cf" transform="rotate(14 443.7 337.3)"/><ellipse cx="353.1" cy="335.9" rx="4" ry="2" fill="#e6e0cf" transform="rotate(73 353.1 335.9)"/><ellipse cx="442.4" cy="324.2" rx="4" ry="2" fill="#e6e0cf" transform="rotate(168 442.4 324.2)"/><ellipse cx="365.1" cy="395.7" rx="4" ry="2" fill="#e6e0cf" transform="rotate(11 365.1 395.7)"/><ellipse cx="375.6" cy="312.3" rx="4" ry="2" fill="#e6e0cf" transform="rotate(47 375.6 312.3)"/><ellipse cx="410.3" cy="307.1" rx="4" ry="2" fill="#e6e0cf" transform="rotate(44 410.3 307.1)"/><ellipse cx="445.1" cy="343.8" rx="4" ry="2" fill="#e6e0cf" transform="rotate(157 445.1 343.8)"/><ellipse cx="424.0" cy="399.9" rx="4" ry="2" fill="#e6e0cf" transform="rotate(108 424.0 399.9)"/><ellipse cx="435.7" cy="330.1" rx="4" ry="2" fill="#e6e0cf" transform="rotate(57 435.7 330.1)"/><ellipse cx="347.8" cy="354.4" rx="4" ry="2" fill="#e6e0cf" transform="rotate(42 347.8 354.4)"/><circle cx="416.3" cy="363.8" r="18.2" fill="#e87b7b"/><circle cx="393.1" cy="373.2" r="18.2" fill="#7fb069"/><circle cx="396.7" cy="345.5" r="18.2" fill="#f2ecd8"/><circle cx="559.4901050031185" cy="365.5710061378777" r="70" fill="#000" opacity="0.35"/><circle cx="559.4901050031185" cy="359.5710061378777" r="70" fill="#2e3230"/><circle cx="559.4901050031185" cy="359.5710061378777" r="60.199999999999996" fill="#f5f2e8"/><ellipse cx="530.1" cy="316.6" rx="4" ry="2" fill="#e6e0cf" transform="rotate(91 530.1 316.6)"/><ellipse cx="516.5" cy="372.6" rx="4" ry="2" fill="#e6e0cf" transform="rotate(110 516.5 372.6)"/><ellipse cx="526.5" cy="321.4" rx="4" ry="2" fill="#e6e0cf" transform="rotate(54 526.5 321.4)"/><ellipse cx="602.8" cy="364.2" rx="4" ry="2" fill="#e6e0cf" transform="rotate(82 602.8 364.2)"/><ellipse cx="526.4" cy="394.7" rx="4" ry="2" fill="#e6e0cf" transform="rotate(111 526.4 394.7)"/><ellipse cx="616.5" cy="356.6" rx="4" ry="2" fill="#e6e0cf" transform="rotate(168 616.5 356.6)"/><ellipse cx="591.1" cy="325.9" rx="4" ry="2" fill="#e6e0cf" transform="rotate(142 591.1 325.9)"/><ellipse cx="554.0" cy="403.4" rx="4" ry="2" fill="#e6e0cf" transform="rotate(167 554.0 403.4)"/><ellipse cx="523.3" cy="324.0" rx="4" ry="2" fill="#e6e0cf" transform="rotate(117 523.3 324.0)"/><ellipse cx="577.3" cy="410.5" rx="4" ry="2" fill="#e6e0cf" transform="rotate(91 577.3 410.5)"/><circle cx="574.7" cy="362.1" r="18.2" fill="#e87b7b"/><circle cx="547.9" cy="369.7" r="18.2" fill="#7fb069"/><circle cx="552.3" cy="345.9" r="18.2" fill="#f2ecd8"/></svg>