<svg xmlns="http://www.w3.org/2000/svg" viewBox="0 0 800 600"><defs><radialGradient id="bg-roll-s-krevetkoy" cx="50%" cy="35%" r="80%"><stop offset="0%" stop-color="#ffffff"/><stop offset="100%" stop-color="#efeff2"/></radialGradient></defs><rect width="800" height="600" fill="url(#bg-roll-s-krevetkoy)"/><circle cx="238.21647324599326" cy="206.2116755656898" r="70" fill="#000" opacity="0.1"/><circle cx="238.21647324599326" cy="200.2116755656898" r="70" fill="#2e3230" stroke="#1f2321" stroke-width="2"/><circle cx="238.21647324599326" cy="200.2116755656898" r="60.199999999999996" fill="#f5f2e8"/><ellipse cx="242.2" cy="254.4" rx="4" ry="2" fill="#e6e0cf" transform="rotate(119 242.2 254.4)"/><ellipse cx="280.4" cy="169.2" rx="4" ry="2" fill="#e6e0cf" transform="rotate(74 280.4 169.2)"/><ellipse cx="223.7" cy="255.6" rx="4" ry="2" fill="#e6e0cf" transform="rotate(56 223.7 255.6)"/><ellipse cx="183.4" cy="210.4" rx="4" ry="2" fill="#e6e0cf" transform="rotate(3 183.4 210.4)"/><ellipse cx="259.6" cy="150.2" rx="4" ry="2" fill="#e6e0cf" transform="rotate(29 259.6 150.2)"/><ellipse cx="184.6" cy="215.9" rx="4" ry="2" fill="#e6e0cf" transform="rotate(125 184.6 215.9)"/><ellipse cx="249.3" cy="157.6" rx="4" ry="2" fill="#e6e0cf" transform="rotate(112 249.3 157.6)"/><ellipse cx="256.1" cy="252.8" rx="4" ry="2" fill="#e6e0cf" transform="rotate(90 256.1 252.8)"/><ellipse cx="277.7" cy="221.7" rx="4" ry="2" fill="#e6e0cf" transform="rotate(23 277.7 221.7)"/><ellipse cx="198.7" cy="218.4" rx="4" ry="2" fill="#e6e0cf" transform="rotate(146 198.7 218.4)"/><circle cx="252.0" cy="207.0" r="18.2" fill="#f2a48e"/><circle cx="229.1" cy="212.6" r="18.2" fill="#7fb069"/><circle cx="233.7" cy="185.5" r="18.2" fill="#f2ecd8"/><circle cx="399.9856896661222" cy="206.4678182657808" r="70" fill="#000" opacity="0.1"/><circle cx="399.9856896661222" cy="200.4678182657808" r="70" fill="#2e3230" stroke="#1f2321" stroke-width="2"/><circle cx="399.9856896661222" cy="200.4678182657808" r="60.199999999999996" fill="#f5f2e8"/><ellipse cx="452.9" cy="213.7" rx="4" ry="2" fill="#e6e0cf" transform="rotate(73 452.9 213.7)"/><ellipse cx="441.1" cy="235.3" rx="4" ry="2" fill="#e6e0cf" transform="rotate(157 441.1 235.3)"/><ellipse cx="373.8" cy="243.9" rx="4" ry="2" fill="#e6e0cf" transform="rotate(3 373.8 243.9)"/><ellipse cx="360.0" cy="223.0" rx="4" ry="2" fill="#e6e0cf" transform="rotate(132 360.0 223.0)"/><ellipse cx="429.5" cy="241.7" rx="4" ry="2" fill="#e6e0cf" transform="rotate(38 429.5 241.7)"/><ellipse cx="352.6" cy="196.5" rx="4" ry="2" fill="#e6e0cf" transform="rotate(157 352.6 196.5)"/><ellipse cx="412.7" cy="242.1" rx="4" ry="2" fill="#e6e0cf" transform="rotate(25 412.7 242.1)"/><ellipse cx="382.5" cy="157.6" rx="4" ry="2" fill="#e6e0cf" transform="rotate(140 382.5 157.6)"/><ellipse cx="412.0" cy="247.3" rx="4" ry="2" fill="#e6e0cf" transform="rotate(43 412.0 247.3)"/><ellipse cx="423.9" cy="153.8" rx="4" ry="2" fill="#e6e0cf" transform="rotate(9 423.9 153.8)"/><circle cx="415.4" cy="200.7" r="18.2" fill="#f2a48e"/><circle cx="388.2" cy="210.4" r="18.2" fill="#7fb069"/><circle cx="393.2" cy="186.7" r="18.2" fill="#f2ecd8"/><circle cx="561.9700423106551" cy="208.9804467279464" r="70" fill="#000" opacity="0.1"/><circle cx="561.9700423106551" cy="202.9804467279464" r="70" fill="#2e3230" stroke="#1f2321" stroke-width="2"/><circle cx="561.9700423106551" cy="202.9804467279464" r="60.199999999999996" fill="#f5f2e8"/><ellipse cx="536.8" cy="162.2" rx="4" ry="2" fill="#e6e0cf" transform="rotate(129 536.8 162.2)"/><ellipse cx="589.5" cy="167.8" rx="4" ry="2" fill="#e6e0cf" transform="rotate(163 589.5 167.8)"/><ellipse cx="600.4" cy="175.7" rx="4" ry="2" fill="#e6e0cf" transform="rotate(169 600.4 175.7)"/><ellipse cx="512.2" cy="183.9" rx="4" ry="2" fill="#e6e0cf" transform="rotate(95 512.2 183.9)"/><ellipse cx="505.7" cy="206.0" rx="4" ry="2" fill="#e6e0cf" transform="rotate(59 505.7 206.0)"/><ellipse cx="600.9" cy="181.3" rx="4" ry="2" fill="#e6e0cf" transform="rotate(170 600.9 181.3)"/><ellipse cx="535.1" cy="250.6" rx="4" ry="2" fill="#e6e0cf" transform="rotate(118 535.1 250.6)"/><ellipse cx="566.9" cy="247.0" rx="4" ry="2" fill="#e6e0cf" transform="rotate(163 566.9 247.0)"/><ellipse cx="517.3" cy="211.2" rx="4" ry="2" fill="#e6e0cf" transform="rotate(33 517.3 211.2)"/><ellipse cx="539.0" cy="162.2" rx="4" ry="2" fill="#e6e0cf" transform="rotate(22 539.0 162.2)"/><circle cx="576.5" cy="208.1" r="18.2" fill="#f2a48e"/><circle cx="553.9" cy="216.1" r="18.2" fill="#7fb069"/><circle cx="557.6" cy="188.2" r="18.2" fill="#f2ecd8"/><circle cx="236.8870588634163" cy="368.2598463818431" r="70" fill="#000" opacity="0.1"/><circle cx="236.8870588634163" cy="362.2598463818431" r="70" fill="#2e3230" stroke="#1f2321" stroke-width="2"/><circle cx="236.8870588634163" cy="362.2598463818431" r="60.199999999999996" fill="#f5f2e8"/><ellipse cx="185.6" cy="346.1" rx="4" ry="2" fill="#e6e0cf" transform="rotate(164 185.6 346.1)"/><ellipse cx="226.6" cy="413.7" rx="4" ry="2" fill="#e6e0cf" transform="rotate(102 226.6 413.7)"/><ellipse cx="232.0" cy="409.1" rx="4" ry="2" fill="#e6e0cf" transform="rotate(113 232.0 409.1)"/><ellipse cx="285.7" cy="351.0" rx="4" ry="2" fill="#e6e0cf" transform="rotate(160 285.7 351.0)"/><ellipse cx="219.8" cy="413.0" rx="4" ry="2" fill="#e6e0cf" transform="rotate(10 219.8 413.0)"/><ellipse cx="189.3" cy="347.6" rx="4" ry="2" fill="#e6e0cf" transform="rotate(22 189.3 347.6)"/><ellipse cx="201.6" cy="329.9" rx="4" ry="2" fill="#e6e0cf" transform="rotate(112 201.6 329.9)"/><ellipse cx="239.9" cy="307.0" rx="4" ry="2" fill="#e6e0cf" transform="rotate(81 239.9 307.0)"/><ellipse cx="197.1" cy="387.5" rx="4" ry="2" fill="#e6e0cf" transform="rotate(42 197.1 387.5)"/><ellipse cx="231.3" cy="316.1" rx="4" ry="2" fill="#e6e0cf" transform="rotate(78 231.3 316.1)"/><circle cx="250.6" cy="369.3" r="18.2" fill="#f2a48e"/><circle cx="224.4" cy="371.2" r="18.2" fill="#7fb069"/><circle cx="234.6" cy="347.0" r="18.2" fill="#f2ecd8"/><circle cx="397.45932373963296" cy="363.03306049481034" r="70" fill="#000" opacity="0.1"/><circle cx="397.45932373963296" cy="357.03306049481034" r="70" fill="#2e3230" stroke="#1f2321" stroke-width="2"/><circle cx="397.45932373963296" cy="357.03306049481034" r="60.199999999999996" fill="#f5f2e8"/><ellipse cx="434.6" cy="324.4" rx="4" ry="2" fill="#e6e0cf" transform="rotate(123 434.6 324.4)"/><ellipse cx="411.4" cy="308.8" rx="4" ry="2" fill="#e6e0cf" transform="rotate(168 411.4 308.8)"/><ellipse cx="374.3" cy="407.4" rx="4" ry="2" fill="#e6e0cf" transform="rotate(6 374.3 407.4)"/><ellipse cx="421.0" cy="317.8" rx="4" ry="2" fill="#e6e0cf" transform="rotate(47 421.0 317.8)"/><ellipse cx="401.5" cy="404.2" rx="4" ry="2" fill="#e6e0cf" transform="rotate(82 401.5 404.2)"/><ellipse cx="389.2" cy="401.8" rx="4" ry="2" fill="#e6e0cf" transform="rotate(170 389.2 401.8)"/><ellipse cx="432.8" cy="314.1" rx="4" ry="2" fill="#e6e0cf" transform="rotate(160 432.8 314.1)"/><ellipse cx="344.3" cy="339.7" rx="4" ry="2" fill="#e6e0cf" transform="rotate(3 344.3 339.7)"/><ellipse cx="430.8" cy="390.6" rx="4" ry="2" fill="#e6e0cf" transform="rotate(44 430.8 390.6)"/><ellipse cx="447.1" cy="358.7" rx="4" ry="2" fill="#e6e0cf" transform="rotate(70 447.1 358.7)"/><circle cx="411.7" cy="362.9" r="18.2" fill="#f2a48e"/><circle cx="386.4" cy="367.8" r="18.2" fill="#7fb069"/><circle cx="390.4" cy="343.4" r="18.2" fill="#f2ecd8"/><circle cx="558.3080920279026" cy="367.57429981045425" r="70" fill="#000" opacity="0.1"/><circle cx="558.3080920279026" cy="361.57429981045425" r="70" fill="#2e3230" stroke="#1f2321" stroke-width="2"/><circle cx="558.3080920279026" cy="361.57429981045425" r="60.199999999999996" fill="#f5f2e8"/><ellipse cx="509.9" cy="380.7" rx="4" ry="2" fill="#e6e0cf" transform="rotate(28 509.9 380.7)"/><ellipse cx="568.4" cy="305.9" rx="4" ry="2" fill="#e6e0cf" transform="rotate(10 568.4 305.9)"/><ellipse cx="513.6" cy="359.5" rx="4" ry="2" fill="#e6e0cf" transform="rotate(34 513.6 359.5)"/><ellipse cx="580.6" cy="406.5" rx="4" ry="2" fill="#e6e0cf" transform="rotate(146 580.6 406.5)"/><ellipse cx="573.5" cy="317.2" rx="4" ry="2" fill="#e6e0cf" transform="rotate(120 573.5 317.2)"/><ellipse cx="537.4" cy="312.1" rx="4" ry="2" fill="#e6e0cf" transform="rotate(165 537.4 312.1)"/><ellipse cx="570.4" cy="315.4" rx="4" ry="2" fill="#e6e0cf" transform="rotate(52 570.4 315.4)"/><ellipse cx="533.0" cy="397.9" rx="4" ry="2" fill="#e6e0cf" transform="rotate(128 533.0 397.9)"/><ellipse cx="599.1" cy="325.7" rx="4" ry="2" fill="#e6e0cf" transform="rotate(10 599.1 325.7)"/><ellipse cx="584.9" cy="396.4" rx="4" ry="2" fill="#e6e0cf" transform="rotate(112 584.9 396.4)"/><circle cx="573.7" cy="361.6" r="18.2" fill="#f2a48e"/><circle cx="546.9" cy="371.9" r="18.2" fill="#7fb069"/><circle cx="553.8" cy="346.8" r="18.2" fill="#f2ecd8"/></svg>