<svg xmlns="http://www.w3.org/2000/svg" viewBox="0 0 800 600"><defs><radialGradient id="bg-sakura-set" cx="50%" cy="35%" r="80%"><stop offset="0%" stop-color="#26262c"/><stop offset="100%" stop-color="#141417"/></radialGradient></defs><rect width="800" height="600" fill="url(#bg-sakura-set)"/><circle cx="186.2135742660612" cy="145.3417643122375" r="62.5" fill="#000" opacity="0.35"/><circle cx="186.2135742660612" cy="139.3417643122375" r="62.5" fill="#f5f2e8"/><circle cx="186.2135742660612" cy="139.3417643122375" r="53.75" fill="#f5f2e8"/><ellipse cx="195.2" cy="101.0" rx="4" ry="2" fill="#e6e0cf" transform="rotate(151 195.2 101.0)"/><ellipse cx="232.3" cy="142.7" rx="4" ry="2" fill="#e6e0cf" transform="rotate(146 232.3 142.7)"/><ellipse cx="201.6" cy="94.5" rx="4" ry="2" fill="#e6e0cf" transform="rotate(90 201.6 94.5)"/><ellipse cx="181.6" cy="98.3" rx="4" ry="2" fill="#e6e0cf" transform="rotate(105 181.6 98.3)"/><ellipse cx="229.7" cy="160.1" rx="4" ry="2" fill="#e6e0cf" transform="rotate(120 229.7 160.1)"/><ellipse cx="225.1" cy="165.1" rx="4" ry="2" fill="#e6e0cf" transform="rotate(18 225.1 165.1)"/><ellipse cx="205.7" cy="96.7" rx="4" ry="2" fill="#e6e0cf" transform="rotate(84 205.7 96.7)"/><ellipse cx="156.1" cy="166.1" rx="4" ry="2" fill="#e6e0cf" transform="rotate(159 156.1 166.1)"/><ellipse cx="172.8" cy="92.0" rx="4" ry="2" fill="#e6e0cf" transform="rotate(159 172.8 92.0)"/><ellipse cx="188.7" cy="99.8" rx="4" ry="2" fill="#e6e0cf" transform="rotate(174 188.7 99.8)"/><circle cx="186.2" cy="139.3" r="25.0" fill="#ef8354"/><circle cx="326.71615656092763" cy="139.7488536350429" r="62.5" fill="#000" opacity="0.35"/><circle cx="326.71615656092763" cy="133.7488536350429" r="62.5" fill="#f5f2e8"/><circle cx="326.71615656092763" cy="133.7488536350429" r="53.75" fill="#f5f2e8"/><ellipse cx="333.7" cy="92.3" rx="4" ry="2" fill="#e6e0cf" transform="rotate(87 333.7 92.3)"/><ellipse cx="294.8" cy="157.1" rx="4" ry="2" fill="#e6e0cf" transform="rotate(40 294.8 157.1)"/><ellipse cx="287.5" cy="148.8" rx="4" ry="2" fill="#e6e0cf" transform="rotate(169 287.5 148.8)"/><ellipse cx="330.6" cy="94.0" rx="4" ry="2" fill="#e6e0cf" transform="rotate(160 330.6 94.0)"/><ellipse cx="304.2" cy="170.7" rx="4" ry="2" fill="#e6e0cf" transform="rotate(18 304.2 170.7)"/><ellipse cx="368.3" cy="106.2" rx="4" ry="2" fill="#e6e0cf" transform="rotate(106 368.3 106.2)"/><ellipse cx="351.8" cy="89.4" rx="4" ry="2" fill="#e6e0cf" transform="rotate(66 351.8 89.4)"/><ellipse cx="336.9" cy="180.3" rx="4" ry="2" fill="#e6e0cf" transform="rotate(178 336.9 180.3)"/><ellipse cx="329.4" cy="183.6" rx="4" ry="2" fill="#e6e0cf" transform="rotate(172 329.4 183.6)"/><ellipse cx="286.4" cy="154.2" rx="4" ry="2" fill="#e6e0cf" transform="rotate(24 286.4 154.2)"/><circle cx="326.7" cy="133.7" r="25.0" fill="#ef8354"/><circle cx="473.6305200587958" cy="141.6762042734772" r="62.5" fill="#000" opacity="0.35"/><circle cx="473.6305200587958" cy="135.6762042734772" r="62.5" fill="#f5f2e8"/><circle cx="473.6305200587958" cy="135.6762042734772" r="53.75" fill="#f5f2e8"/><ellipse cx="514.0" cy="142.1" rx="4" ry="2" fill="#e6e0cf" transform="rotate(127 514.0 142.1)"/><ellipse cx="521.1" cy="121.7" rx="4" ry="2" fill="#e6e0cf" transform="rotate(9 521.1 121.7)"/><ellipse cx="429.2" cy="146.5" rx="4" ry="2" fill="#e6e0cf" transform="rotate(25 429.2 146.5)"/><ellipse cx="476.1" cy="186.3" rx="4" ry="2" fill="#e6e0cf" transform="rotate(64 476.1 186.3)"/><ellipse cx="476.0" cy="94.7" rx="4" ry="2" fill="#e6e0cf" transform="rotate(3 476.0 94.7)"/><ellipse cx="479.5" cy="176.9" rx="4" ry="2" fill="#e6e0cf" transform="rotate(94 479.5 176.9)"/><ellipse cx="517.8" cy="152.2" rx="4" ry="2" fill="#e6e0cf" transform="rotate(42 517.8 152.2)"/><ellipse cx="470.3" cy="88.9" rx="4" ry="2" fill="#e6e0cf" transform="rotate(111 470.3 88.9)"/><ellipse cx="446.4" cy="100.5" rx="4" ry="2" fill="#e6e0cf" transform="rotate(96 446.4 100.5)"/><ellipse cx="478.2" cy="183.5" rx="4" ry="2" fill="#e6e0cf" transform="rotate(119 478.2 183.5)"/><circle cx="473.6" cy="135.7" r="25.0" fill="#ef8354"/><circle cx="615.1894692778587" cy="138.7992651090026" r="62.5" fill="#000" opacity="0.35"/><circle cx="615.1894692778587" cy="132.7992651090026" r="62.5" fill="#f5f2e8"/><circle cx="615.1894692778587" cy="132.7992651090026" r="53.75" fill="#f5f2e8"/><ellipse cx="660.5" cy="132.1" rx="4" ry="2" fill="#e6e0cf" transform="rotate(9 660.5 132.1)"/><ellipse cx="658.7" cy="112.9" rx="4" ry="2" fill="#e6e0cf" transform="rotate(51 658.7 112.9)"/><ellipse cx="583.9" cy="162.6" rx="4" ry="2" fill="#e6e0cf" transform="rotate(24 583.9 162.6)"/><ellipse cx="614.7" cy="86.7" rx="4" ry="2" fill="#e6e0cf" transform="rotate(75 614.7 86.7)"/><ellipse cx="606.3" cy="171.3" rx="4" ry="2" fill="#e6e0cf" transform="rotate(44 606.3 171.3)"/><ellipse cx="664.0" cy="127.7" rx="4" ry="2" fill="#e6e0cf" transform="rotate(25 664.0 127.7)"/><ellipse cx="619.9" cy="91.4" rx="4" ry="2" fill="#e6e0cf" transform="rotate(2 619.9 91.4)"/><ellipse cx="634.1" cy="178.4" rx="4" ry="2" fill="#e6e0cf" transform="rotate(13 634.1 178.4)"/><ellipse cx="656.6" cy="107.1" rx="4" ry="2" fill="#e6e0cf" transform="rotate(42 656.6 107.1)"/><ellipse cx="599.5" cy="91.8" rx="4" ry="2" fill="#e6e0cf" transform="rotate(3 599.5 91.8)"/><circle cx="615.2" cy="132.8" r="25.0" fill="#ef8354"/><circle cx="184.3796284776181" cy="283.09381035529077" r="62.5" fill="#000" opacity="0.35"/><circle cx="184.3796284776181" cy="277.09381035529077" r="62.5" fill="#f5f2e8"/><circle cx="184.3796284776181" cy="277.09381035529077" r="53.75" fill="#f5f2e8"/><ellipse cx="170.2" cy="240.8" rx="4" ry="2" fill="#e6e0cf" transform="rotate(84 170.2 240.8)"/><ellipse cx="170.0" cy="325.8" rx="4" ry="2" fill="#e6e0cf" transform="rotate(8 170.0 325.8)"/><ellipse cx="231.2" cy="261.2" rx="4" ry="2" fill="#e6e0cf" transform="rotate(151 231.2 261.2)"/><ellipse cx="138.9" cy="293.6" rx="4" ry="2" fill="#e6e0cf" transform="rotate(88 138.9 293.6)"/><ellipse cx="231.2" cy="270.3" rx="4" ry="2" fill="#e6e0cf" transform="rotate(87 231.2 270.3)"/><ellipse cx="152.4" cy="299.4" rx="4" ry="2" fill="#e6e0cf" transform="rotate(53 152.4 299.4)"/><ellipse cx="198.1" cy="228.0" rx="4" ry="2" fill="#e6e0cf" transform="rotate(83 198.1 228.0)"/><ellipse cx="192.6" cy="232.1" rx="4" ry="2" fill="#e6e0cf" transform="rotate(167 192.6 232.1)"/><ellipse cx="153.0" cy="305.9" rx="4" ry="2" fill="#e6e0cf" transform="rotate(72 153.0 305.9)"/><ellipse cx="152.1" cy="248.1" rx="4" ry="2" fill="#e6e0cf" transform="rotate(148 152.1 248.1)"/><circle cx="184.4" cy="277.1" r="25.0" fill="#ef8354"/><circle cx="326.0785516127944" cy="284.33714725263417" r="62.5" fill="#000" opacity="0.35"/><circle cx="326.0785516127944" cy="278.33714725263417" r="62.5" fill="#f5f2e8"/><circle cx="326.0785516127944" cy="278.33714725263417" r="53.75" fill="#f5f2e8"/><ellipse cx="333.7" cy="323.5" rx="4" ry="2" fill="#e6e0cf" transform="rotate(50 333.7 323.5)"/><ellipse cx="339.3" cy="230.3" rx="4" ry="2" fill="#e6e0cf" transform="rotate(59 339.3 230.3)"/><ellipse cx="360.0" cy="258.5" rx="4" ry="2" fill="#e6e0cf" transform="rotate(66 360.0 258.5)"/><ellipse cx="329.5" cy="325.7" rx="4" ry="2" fill="#e6e0cf" transform="rotate(88 329.5 325.7)"/><ellipse cx="335.8" cy="229.6" rx="4" ry="2" fill="#e6e0cf" transform="rotate(153 335.8 229.6)"/><ellipse cx="363.7" cy="295.8" rx="4" ry="2" fill="#e6e0cf" transform="rotate(165 363.7 295.8)"/><ellipse cx="330.5" cy="318.2" rx="4" ry="2" fill="#e6e0cf" transform="rotate(84 330.5 318.2)"/><ellipse cx="292.7" cy="257.6" rx="4" ry="2" fill="#e6e0cf" transform="rotate(137 292.7 257.6)"/><ellipse cx="292.9" cy="304.2" rx="4" ry="2" fill="#e6e0cf" transform="rotate(101 292.9 304.2)"/><ellipse cx="311.0" cy="321.5" rx="4" ry="2" fill="#e6e0cf" transform="rotate(9 311.0 321.5)"/><circle cx="326.1" cy="278.3" r="25.0" fill="#ef8354"/><circle cx="473.2823629807681" cy="289.5147945024073" r="62.5" fill="#000" opacity="0.35"/><circle cx="473.2823629807681" cy="283.5147945024073" r="62.5" fill="#f5f2e8"/><circle cx="473.2823629807681" cy="283.5147945024073" r="53.75" fill="#f5f2e8"/><ellipse cx="439.8" cy="304.6" rx="4" ry="2" fill="#e6e0cf" transform="rotate(171 439.8 304.6)"/><ellipse cx="430.5" cy="283.1" rx="4" ry="2" fill="#e6e0cf" transform="rotate(40 430.5 283.1)"/><ellipse cx="474.6" cy="241.6" rx="4" ry="2" fill="#e6e0cf" transform="rotate(5 474.6 241.6)"/><ellipse cx="491.0" cy="238.6" rx="4" ry="2" fill="#e6e0cf" transform="rotate(155 491.0 238.6)"/><ellipse cx="443.7" cy="311.5" rx="4" ry="2" fill="#e6e0cf" transform="rotate(158 443.7 311.5)"/><ellipse cx="490.8" cy="243.6" rx="4" ry="2" fill="#e6e0cf" transform="rotate(156 490.8 243.6)"/><ellipse cx="516.5" cy="290.9" rx="4" ry="2" fill="#e6e0cf" transform="rotate(95 516.5 290.9)"/><ellipse cx="460.6" cy="246.9" rx="4" ry="2" fill="#e6e0cf" transform="rotate(8 460.6 246.9)"/><ellipse cx="494.1" cy="327.9" rx="4" ry="2" fill="#e6e0cf" transform="rotate(173 494.1 327.9)"/><ellipse cx="429.2" cy="279.5" rx="4" ry="2" fill="#e6e0cf" transform="rotate(128 429.2 279.5)"/><circle cx="473.3" cy="283.5" r="25.0" fill="#ef8354"/><circle cx="613.5310406889766" cy="286.7744901403785" r="62.5" fill="#000" opacity="0.35"/><circle cx="613.5310406889766" cy="280.7744901403785" r="62.5" fill="#f5f2e8"/><circle cx="613.5310406889766" cy="280.7744901403785" r="53.75" fill="#f5f2e8"/><ellipse cx="616.8" cy="329.6" rx="4" ry="2" fill="#e6e0cf" transform="rotate(108 616.8 329.6)"/><ellipse cx="629.8" cy="319.5" rx="4" ry="2" fill="#e6e0cf" transform="rotate(150 629.8 319.5)"/><ellipse cx="619.5" cy="235.2" rx="4" ry="2" fill="#e6e0cf" transform="rotate(152 619.5 235.2)"/><ellipse cx="573.8" cy="257.9" rx="4" ry="2" fill="#e6e0cf" transform="rotate(175 573.8 257.9)"/><ellipse cx="635.6" cy="321.4" rx="4" ry="2" fill="#e6e0cf" transform="rotate(58 635.6 321.4)"/><ellipse cx="566.2" cy="263.8" rx="4" ry="2" fill="#e6e0cf" transform="rotate(109 566.2 263.8)"/><ellipse cx="648.2" cy="309.0" rx="4" ry="2" fill="#e6e0cf" transform="rotate(178 648.2 309.0)"/><ellipse cx="575.8" cy="263.0" rx="4" ry="2" fill="#e6e0cf" transform="rotate(157 575.8 263.0)"/><ellipse cx="595.7" cy="238.1" rx="4" ry="2" fill="#e6e0cf" transform="rotate(37 595.7 238.1)"/><ellipse cx="598.5" cy="244.6" rx="4" ry="2" fill="#e6e0cf" transform="rotate(85 598.5 244.6)"/><circle cx="613.5" cy="280.8" r="25.0" fill="#ef8354"/><circle cx="185.46393300965428" cy="430.65568456426263" r="62.5" fill="#000" opacity="0.35"/><circle cx="185.46393300965428" cy="424.65568456426263" r="62.5" fill="#f5f2e8"/><circle cx="185.46393300965428" cy="424.65568456426263" r="53.75" fill="#f5f2e8"/><ellipse cx="139.9" cy="401.3" rx="4" ry="2" fill="#e6e0cf" transform="rotate(173 139.9 401.3)"/><ellipse cx="233.5" cy="437.4" rx="4" ry="2" fill="#e6e0cf" transform="rotate(34 233.5 437.4)"/><ellipse cx="201.1" cy="384.4" rx="4" ry="2" fill="#e6e0cf" transform="rotate(93 201.1 384.4)"/><ellipse cx="148.1" cy="453.2" rx="4" ry="2" fill="#e6e0cf" transform="rotate(7 148.1 453.2)"/><ellipse cx="197.6" cy="379.7" rx="4" ry="2" fill="#e6e0cf" transform="rotate(76 197.6 379.7)"/><ellipse cx="172.9" cy="466.6" rx="4" ry="2" fill="#e6e0cf" transform="rotate(95 172.9 466.6)"/><ellipse cx="197.0" cy="382.3" rx="4" ry="2" fill="#e6e0cf" transform="rotate(98 197.0 382.3)"/><ellipse cx="145.4" cy="398.9" rx="4" ry="2" fill="#e6e0cf" transform="rotate(110 145.4 398.9)"/><ellipse cx="137.9" cy="440.9" rx="4" ry="2" fill="#e6e0cf" transform="rotate(84 137.9 440.9)"/><ellipse cx="143.6" cy="397.0" rx="4" ry="2" fill="#e6e0cf" transform="rotate(105 143.6 397.0)"/><circle cx="185.5" cy="424.7" r="25.0" fill="#ef8354"/><circle cx="326.918759977445" cy="433.45954494923353" r="62.5" fill="#000" opacity="0.35"/><circle cx="326.918759977445" cy="427.45954494923353" r="62.5" fill="#f5f2e8"/><circle cx="326.918759977445" cy="427.45954494923353" r="53.75" fill="#f5f2e8"/><ellipse cx="288.5" cy="445.0" rx="4" ry="2" fill="#e6e0cf" transform="rotate(83 288.5 445.0)"/><ellipse cx="308.7" cy="473.4" rx="4" ry="2" fill="#e6e0cf" transform="rotate(73 308.7 473.4)"/><ellipse cx="340.6" cy="476.1" rx="4" ry="2" fill="#e6e0cf" transform="rotate(151 340.6 476.1)"/><ellipse cx="318.4" cy="387.9" rx="4" ry="2" fill="#e6e0cf" transform="rotate(124 318.4 387.9)"/><ellipse cx="317.4" cy="380.0" rx="4" ry="2" fill="#e6e0cf" transform="rotate(128 317.4 380.0)"/><ellipse cx="336.9" cy="378.8" rx="4" ry="2" fill="#e6e0cf" transform="rotate(91 336.9 378.8)"/><ellipse cx="358.2" cy="393.5" rx="4" ry="2" fill="#e6e0cf" transform="rotate(32 358.2 393.5)"/><ellipse cx="294.5" cy="398.4" rx="4" ry="2" fill="#e6e0cf" transform="rotate(46 294.5 398.4)"/><ellipse cx="284.1" cy="444.9" rx="4" ry="2" fill="#e6e0cf" transform="rotate(149 284.1 444.9)"/><ellipse cx="352.0" cy="469.3" rx="4" ry="2" fill="#e6e0cf" transform="rotate(78 352.0 469.3)"/><circle cx="326.9" cy="427.5" r="25.0" fill="#ef8354"/><circle cx="473.2723753321916" cy="432.83023318462074" r="62.5" fill="#000" opacity="0.35"/><circle cx="473.2723753321916" cy="426.83023318462074" r="62.5" fill="#f5f2e8"/><circle cx="473.2723753321916" cy="426.83023318462074" r="53.75" fill="#f5f2e8"/><ellipse cx="433.6" cy="455.5" rx="4" ry="2" fill="#e6e0cf" transform="rotate(45 433.6 455.5)"/><ellipse cx="460.2" cy="466.8" rx="4" ry="2" fill="#e6e0cf" transform="rotate(12 460.2 466.8)"/><ellipse cx="433.1" cy="422.5" rx="4" ry="2" fill="#e6e0cf" transform="rotate(73 433.1 422.5)"/><ellipse cx="497.4" cy="466.3" rx="4" ry="2" fill="#e6e0cf" transform="rotate(169 497.4 466.3)"/><ellipse cx="463.9" cy="472.6" rx="4" ry="2" fill="#e6e0cf" transform="rotate(87 463.9 472.6)"/><ellipse cx="486.6" cy="472.5" rx="4" ry="2" fill="#e6e0cf" transform="rotate(27 486.6 472.5)"/><ellipse cx="461.6" cy="470.1" rx="4" ry="2" fill="#e6e0cf" transform="rotate(81 461.6 470.1)"/><ellipse cx="441.5" cy="386.7" rx="4" ry="2" fill="#e6e0cf" transform="rotate(73 441.5 386.7)"/><ellipse cx="508.5" cy="454.2" rx="4" ry="2" fill="#e6e0cf" transform="rotate(122 508.5 454.2)"/><ellipse cx="487.1" cy="386.1" rx="4" ry="2" fill="#e6e0cf" transform="rotate(139 487.1 386.1)"/><circle cx="473.3" cy="426.8" r="25.0" fill="#ef8354"/><circle cx="616.2444410808384" cy="432.63751579634845" r="62.5" fill="#000" opacity="0.35"/><circle cx="616.2444410808384" cy="426.63751579634845" r="62.5" fill="#f5f2e8"/><circle cx="616.2444410808384" cy="426.63751579634845" r="53.75" fill="#f5f2e8"/><ellipse cx="601.6" cy="382.8" rx="4" ry="2" fill="#e6e0cf" transform="rotate(40 601.6 382.8)"/><ellipse cx="571.0" cy="410.1" rx="4" ry="2" fill="#e6e0cf" transform="rotate(173 571.0 410.1)"/><ellipse cx="608.1" cy="466.6" rx="4" ry="2" fill="#e6e0cf" transform="rotate(171 608.1 466.6)"/><ellipse cx="644.7" cy="397.2" rx="4" ry="2" fill="#e6e0cf" transform="rotate(84 644.7 397.2)"/><ellipse cx="581.7" cy="401.5" rx="4" ry="2" fill="#e6e0cf" transform="rotate(86 581.7 401.5)"/><ellipse cx="662.5" cy="428.9" rx="4" ry="2" fill="#e6e0cf" transform="rotate(77 662.5 428.9)"/><ellipse cx="580.5" cy="447.4" rx="4" ry="2" fill="#e6e0cf" transform="rotate(125 580.5 447.4)"/><ellipse cx="587.4" cy="454.9" rx="4" ry="2" fill="#e6e0cf" transform="rotate(33 587.4 454.9)"/><ellipse cx="649.8" cy="398.7" rx="4" ry="2" fill="#e6e0cf" transform="rotate(26 649.8 398.7)"/><ellipse cx="580.5" cy="446.2" rx="4" ry="2" fill="#e6e0cf" transform="rotate(5 580.5 446.2)"/><circle cx="616.2" cy="426.6" r="25.0" fill="#ef8354"/></svg>