<svg xmlns="http://www.w3.org/2000/svg" viewBox="0 0 800 600"><defs><radialGradient id="bg-salamonskiy-tempura" cx="50%" cy="35%" r="80%"><stop offset="0%" stop-color="#26262c"/><stop offset="100%" stop-color="#141417"/></radialGradient></defs><rect width="800" height="600" fill="url(#bg-salamonskiy-tempura)"/><circle cx="235.1038420330733" cy="206.21254310011864" r="70" fill="#000" opacity="0.35"/><circle cx="235.1038420330733" cy="200.21254310011864" r="70" fill="#d9a45b"/><circle cx="299.5" cy="201.0" r="3.3" fill="#b5854e"/><circle cx="291.6" cy="231.1" r="5.2" fill="#b5854e"/><circle cx="274.0" cy="251.5" r="5.4" fill="#b5854e"/><circle cx="214.2" cy="261.1" r="3.5" fill="#b5854e"/><circle cx="187.4" cy="243.5" r="5.1" fill="#b5854e"/><circle cx="170.7" cy="200.9" r="4.8" fill="#b5854e"/><circle cx="174.0" cy="179.9" r="5.9" fill="#b5854e"/><circle cx="171.7" cy="188.8" r="6.7" fill="#b5854e"/><circle cx="187.6" cy="156.8" r="3.6" fill="#b5854e"/><circle cx="203.7" cy="144.0" r="5.7" fill="#b5854e"/><circle cx="265.6" cy="143.5" r="3.7" fill="#b5854e"/><circle cx="293.2" cy="172.5" r="4.1" fill="#b5854e"/><circle cx="287.1" cy="162.2" r="3.2" fill="#b5854e"/><circle cx="299.4" cy="196.3" r="3.4" fill="#b5854e"/><circle cx="235.1038420330733" cy="200.21254310011864" r="50.4" fill="#f5f2e8"/><circle cx="250.5" cy="200.3" r="18.2" fill="#e87b7b"/><circle cx="225.2" cy="212.0" r="18.2" fill="#7fb069"/><circle cx="228.2" cy="186.4" r="18.2" fill="#f2ecd8"/><circle cx="396.11771037243307" cy="203.58369138091803" r="70" fill="#000" opacity="0.35"/><circle cx="396.11771037243307" cy="197.58369138091803" r="70" fill="#d9a45b"/><circle cx="451.4" cy="230.7" r="4.3" fill="#b5854e"/><circle cx="404.8" cy="261.4" r="4.9" fill="#b5854e"/><circle cx="427.2" cy="254.0" r="3.2" fill="#b5854e"/><circle cx="392.5" cy="261.9" r="5.8" fill="#b5854e"/><circle cx="365.8" cy="254.4" r="5.8" fill="#b5854e"/><circle cx="344.8" cy="236.5" r="4.7" fill="#b5854e"/><circle cx="337.3" cy="223.9" r="6.3" fill="#b5854e"/><circle cx="348.5" cy="154.2" r="4.4" fill="#b5854e"/><circle cx="372.7" cy="137.6" r="3.2" fill="#b5854e"/><circle cx="359.2" cy="144.8" r="6.4" fill="#b5854e"/><circle cx="432.9" cy="144.7" r="3.5" fill="#b5854e"/><circle cx="443.3" cy="153.7" r="3.5" fill="#b5854e"/><circle cx="458.3" cy="180.9" r="6.2" fill="#b5854e"/><circle cx="456.5" cy="175.1" r="3.2" fill="#b5854e"/><circle cx="396.11771037243307" cy="197.58369138091803" r="50.4" fill="#f5f2e8"/><circle cx="410.7" cy="202.5" r="18.2" fill="#e87b7b"/><circle cx="385.3" cy="208.5" r="18.2" fill="#7fb069"/><circle cx="391.2" cy="183.0" r="18.2" fill="#f2ecd8"/><circle cx="563.8317699562758" cy="203.3972934037447" r="70" fill="#000" opacity="0.35"/><circle cx="563.8317699562758" cy="197.3972934037447" r="70" fill="#d9a45b"/><circle cx="609.6" cy="242.7" r="6.7" fill="#b5854e"/><circle cx="606.2" cy="245.9" r="4.0" fill="#b5854e"/><circle cx="602.0" cy="249.3" r="3.3" fill="#b5854e"/><circle cx="574.9" cy="260.8" r="6.1" fill="#b5854e"/><circle cx="522.5" cy="246.8" r="6.6" fill="#b5854e"/><circle cx="506.4" cy="226.4" r="3.2" fill="#b5854e"/><circle cx="502.9" cy="218.4" r="5.9" fill="#b5854e"/><circle cx="506.5" cy="168.0" r="6.0" fill="#b5854e"/><circle cx="512.2" cy="158.9" r="3.3" fill="#b5854e"/><circle cx="526.4" cy="145.0" r="4.7" fill="#b5854e"/><circle cx="577.7" cy="134.5" r="5.0" fill="#b5854e"/><circle cx="612.6" cy="155.3" r="4.7" fill="#b5854e"/><circle cx="627.9" cy="203.5" r="4.3" fill="#b5854e"/><circle cx="628.2" cy="199.3" r="3.9" fill="#b5854e"/><circle cx="563.8317699562758" cy="197.3972934037447" r="50.4" fill="#f5f2e8"/><circle cx="578.6" cy="201.9" r="18.2" fill="#e87b7b"/><circle cx="552.4" cy="207.7" r="18.2" fill="#7fb069"/><circle cx="562.6" cy="182.0" r="18.2" fill="#f2ecd8"/><circle cx="240.88846187107265" cy="363.51290648430586" r="70" fill="#000" opacity="0.35"/><circle cx="240.88846187107265" cy="357.51290648430586" r="70" fill="#d9a45b"/><circle cx="284.3" cy="405.1" r="3.7" fill="#b5854e"/><circle cx="280.0" cy="408.6" r="5.4" fill="#b5854e"/><circle cx="280.2" cy="408.5" r="4.7" fill="#b5854e"/><circle cx="206.6" cy="412.0" r="4.9" fill="#b5854e"/><circle cx="220.7" cy="418.7" r="5.9" fill="#b5854e"/><circle cx="179.3" cy="376.3" r="3.0" fill="#b5854e"/><circle cx="182.5" cy="330.4" r="6.7" fill="#b5854e"/><circle cx="181.8" cy="332.0" r="6.8" fill="#b5854e"/><circle cx="185.1" cy="325.3" r="6.2" fill="#b5854e"/><circle cx="229.7" cy="294.1" r="5.9" fill="#b5854e"/><circle cx="233.5" cy="293.5" r="6.1" fill="#b5854e"/><circle cx="289.0" cy="314.7" r="4.3" fill="#b5854e"/><circle cx="298.7" cy="329.2" r="6.7" fill="#b5854e"/><circle cx="303.0" cy="340.5" r="4.0" fill="#b5854e"/><circle cx="240.88846187107265" cy="357.51290648430586" r="50.4" fill="#f5f2e8"/><circle cx="256.3" cy="357.8" r="18.2" fill="#e87b7b"/><circle cx="229.6" cy="367.9" r="18.2" fill="#7fb069"/><circle cx="234.6" cy="343.4" r="18.2" fill="#f2ecd8"/><circle cx="397.85614405199885" cy="366.31808006577194" r="70" fill="#000" opacity="0.35"/><circle cx="397.85614405199885" cy="360.31808006577194" r="70" fill="#d9a45b"/><circle cx="445.1" cy="404.0" r="3.8" fill="#b5854e"/><circle cx="450.4" cy="397.6" r="6.6" fill="#b5854e"/><circle cx="378.3" cy="421.7" r="6.9" fill="#b5854e"/><circle cx="362.3" cy="414.0" r="5.9" fill="#b5854e"/><circle cx="379.5" cy="422.0" r="6.4" fill="#b5854e"/><circle cx="342.9" cy="394.0" r="6.3" fill="#b5854e"/><circle cx="334.2" cy="350.8" r="3.5" fill="#b5854e"/><circle cx="338.6" cy="335.1" r="6.7" fill="#b5854e"/><circle cx="354.4" cy="312.8" r="5.0" fill="#b5854e"/><circle cx="387.0" cy="296.8" r="5.7" fill="#b5854e"/><circle cx="417.7" cy="299.1" r="6.8" fill="#b5854e"/><circle cx="429.3" cy="304.1" r="4.3" fill="#b5854e"/><circle cx="452.1" cy="325.6" r="3.3" fill="#b5854e"/><circle cx="455.4" cy="389.3" r="3.9" fill="#b5854e"/><circle cx="397.85614405199885" cy="360.31808006577194" r="50.4" fill="#f5f2e8"/><circle cx="412.6" cy="364.6" r="18.2" fill="#e87b7b"/><circle cx="388.1" cy="372.2" r="18.2" fill="#7fb069"/><circle cx="393.1" cy="345.7" r="18.2" fill="#f2ecd8"/><circle cx="560.7361094616354" cy="365.82499514333904" r="70" fill="#000" opacity="0.35"/><circle cx="560.7361094616354" cy="359.82499514333904" r="70" fill="#d9a45b"/><circle cx="620.6" cy="383.5" r="4.7" fill="#b5854e"/><circle cx="585.6" cy="419.2" r="4.0" fill="#b5854e"/><circle cx="583.5" cy="420.1" r="4.9" fill="#b5854e"/><circle cx="537.8" cy="420.0" r="6.3" fill="#b5854e"/><circle cx="536.3" cy="419.4" r="4.2" fill="#b5854e"/><circle cx="509.8" cy="399.2" r="3.1" fill="#b5854e"/><circle cx="496.8" cy="351.8" r="4.6" fill="#b5854e"/><circle cx="498.8" cy="342.2" r="5.3" fill="#b5854e"/><circle cx="525.2" cy="306.1" r="6.5" fill="#b5854e"/><circle cx="567.9" cy="295.8" r="3.2" fill="#b5854e"/><circle cx="604.6" cy="312.6" r="5.0" fill="#b5854e"/><circle cx="581.8" cy="299.0" r="6.5" fill="#b5854e"/><circle cx="621.9" cy="339.6" r="6.3" fill="#b5854e"/><circle cx="623.3" cy="375.1" r="5.7" fill="#b5854e"/><circle cx="560.7361094616354" cy="359.82499514333904" r="50.4" fill="#f5f2e8"/><circle cx="575.9" cy="362.7" r="18.2" fill="#e87b7b"/><circle cx="551.5" cy="372.1" r="18.2" fill="#7fb069"/><circle cx="556.7" cy="345.0" r="18.2" fill="#f2ecd8"/></svg>