<svg xmlns="http://www.w3.org/2000/svg" viewBox="0 0 800 600"><defs><radialGradient id="bg-samuray" cx="50%" cy="35%" r="80%"><stop offset="0%" stop-color="#26262c"/><stop offset="100%" stop-color="#141417"/></radialGradient></defs><rect width="800" height="600" fill="url(#bg-samuray)"/><circle cx="241.34786968305707" cy="204.16833667643368" r="70" fill="#000" opacity="0.35"/><circle cx="241.34786968305707" cy="198.16833667643368" r="70" fill="#f5f2e8"/><circle cx="241.34786968305707" cy="198.16833667643368" r="60.199999999999996" fill="#f5f2e8"/><ellipse cx="297.8" cy="204.3" rx="4" ry="2" fill="#e6e0cf" transform="rotate(146 297.8 204.3)"/><ellipse cx="276.4" cy="240.6" rx="4" ry="2" fill="#e6e0cf" transform="rotate(112 276.4 240.6)"/><ellipse cx="265.2" cy="149.1" rx="4" ry="2" fill="#e6e0cf" transform="rotate(56 265.2 149.1)"/><ellipse cx="208.5" cy="158.9" rx="4" ry="2" fill="#e6e0cf" transform="rotate(69 208.5 158.9)"/><ellipse cx="224.1" cy="249.0" rx="4" ry="2" fill="#e6e0cf" transform="rotate(172 224.1 249.0)"/><ellipse cx="197.9" cy="183.3" rx="4" ry="2" fill="#e6e0cf" transform="rotate(88 197.9 183.3)"/><ellipse cx="264.4" cy="152.4" rx="4" ry="2" fill="#e6e0cf" transform="rotate(152 264.4 152.4)"/><ellipse cx="250.0" cy="149.6" rx="4" ry="2" fill="#e6e0cf" transform="rotate(144 250.0 149.6)"/><ellipse cx="293.8" cy="204.5" rx="4" ry="2" fill="#e6e0cf" transform="rotate(166 293.8 204.5)"/><ellipse cx="283.6" cy="214.5" rx="4" ry="2" fill="#e6e0cf" transform="rotate(98 283.6 214.5)"/><circle cx="256.5" cy="200.6" r="18.2" fill="#ef8354"/><circle cx="228.7" cy="207.0" r="18.2" fill="#f2a48e"/><circle cx="237.9" cy="183.2" r="18.2" fill="#7fb069"/><circle cx="399.77278702147305" cy="204.62471300177276" r="70" fill="#000" opacity="0.35"/><circle cx="399.77278702147305" cy="198.62471300177276" r="70" fill="#f5f2e8"/><circle cx="399.77278702147305" cy="198.62471300177276" r="60.199999999999996" fill="#f5f2e8"/><ellipse cx="408.1" cy="149.3" rx="4" ry="2" fill="#e6e0cf" transform="rotate(152 408.1 149.3)"/><ellipse cx="364.4" cy="165.5" rx="4" ry="2" fill="#e6e0cf" transform="rotate(61 364.4 165.5)"/><ellipse cx="372.7" cy="234.2" rx="4" ry="2" fill="#e6e0cf" transform="rotate(54 372.7 234.2)"/><ellipse cx="445.1" cy="205.9" rx="4" ry="2" fill="#e6e0cf" transform="rotate(6 445.1 205.9)"/><ellipse cx="453.0" cy="183.7" rx="4" ry="2" fill="#e6e0cf" transform="rotate(56 453.0 183.7)"/><ellipse cx="428.7" cy="241.4" rx="4" ry="2" fill="#e6e0cf" transform="rotate(143 428.7 241.4)"/><ellipse cx="424.9" cy="155.1" rx="4" ry="2" fill="#e6e0cf" transform="rotate(47 424.9 155.1)"/><ellipse cx="433.4" cy="244.8" rx="4" ry="2" fill="#e6e0cf" transform="rotate(37 433.4 244.8)"/><ellipse cx="392.6" cy="153.5" rx="4" ry="2" fill="#e6e0cf" transform="rotate(9 392.6 153.5)"/><ellipse cx="363.2" cy="241.0" rx="4" ry="2" fill="#e6e0cf" transform="rotate(13 363.2 241.0)"/><circle cx="414.6" cy="202.7" r="18.2" fill="#ef8354"/><circle cx="388.0" cy="208.6" r="18.2" fill="#f2a48e"/><circle cx="399.4" cy="183.2" r="18.2" fill="#7fb069"/><circle cx="564.8190665822476" cy="203.58610857464373" r="70" fill="#000" opacity="0.35"/><circle cx="564.8190665822476" cy="197.58610857464373" r="70" fill="#f5f2e8"/><circle cx="564.8190665822476" cy="197.58610857464373" r="60.199999999999996" fill="#f5f2e8"/><ellipse cx="529.8" cy="157.3" rx="4" ry="2" fill="#e6e0cf" transform="rotate(179 529.8 157.3)"/><ellipse cx="521.6" cy="170.3" rx="4" ry="2" fill="#e6e0cf" transform="rotate(106 521.6 170.3)"/><ellipse cx="606.6" cy="211.4" rx="4" ry="2" fill="#e6e0cf" transform="rotate(92 606.6 211.4)"/><ellipse cx="525.4" cy="158.7" rx="4" ry="2" fill="#e6e0cf" transform="rotate(36 525.4 158.7)"/><ellipse cx="572.6" cy="253.6" rx="4" ry="2" fill="#e6e0cf" transform="rotate(43 572.6 253.6)"/><ellipse cx="522.9" cy="158.7" rx="4" ry="2" fill="#e6e0cf" transform="rotate(8 522.9 158.7)"/><ellipse cx="514.3" cy="203.0" rx="4" ry="2" fill="#e6e0cf" transform="rotate(102 514.3 203.0)"/><ellipse cx="615.9" cy="179.7" rx="4" ry="2" fill="#e6e0cf" transform="rotate(91 615.9 179.7)"/><ellipse cx="587.1" cy="240.3" rx="4" ry="2" fill="#e6e0cf" transform="rotate(152 587.1 240.3)"/><ellipse cx="594.1" cy="233.2" rx="4" ry="2" fill="#e6e0cf" transform="rotate(41 594.1 233.2)"/><circle cx="578.8" cy="203.9" r="18.2" fill="#ef8354"/><circle cx="554.8" cy="209.3" r="18.2" fill="#f2a48e"/><circle cx="560.9" cy="182.7" r="18.2" fill="#7fb069"/><circle cx="235.48751488141716" cy="367.0735309217125" r="70" fill="#000" opacity="0.35"/><circle cx="235.48751488141716" cy="361.0735309217125" r="70" fill="#f5f2e8"/><circle cx="235.48751488141716" cy="361.0735309217125" r="60.199999999999996" fill="#f5f2e8"/><ellipse cx="184.9" cy="386.1" rx="4" ry="2" fill="#e6e0cf" transform="rotate(160 184.9 386.1)"/><ellipse cx="236.0" cy="418.1" rx="4" ry="2" fill="#e6e0cf" transform="rotate(90 236.0 418.1)"/><ellipse cx="222.4" cy="413.8" rx="4" ry="2" fill="#e6e0cf" transform="rotate(163 222.4 413.8)"/><ellipse cx="189.2" cy="379.0" rx="4" ry="2" fill="#e6e0cf" transform="rotate(19 189.2 379.0)"/><ellipse cx="190.3" cy="327.4" rx="4" ry="2" fill="#e6e0cf" transform="rotate(24 190.3 327.4)"/><ellipse cx="234.4" cy="315.9" rx="4" ry="2" fill="#e6e0cf" transform="rotate(83 234.4 315.9)"/><ellipse cx="200.1" cy="395.9" rx="4" ry="2" fill="#e6e0cf" transform="rotate(123 200.1 395.9)"/><ellipse cx="229.6" cy="306.5" rx="4" ry="2" fill="#e6e0cf" transform="rotate(20 229.6 306.5)"/><ellipse cx="255.7" cy="310.9" rx="4" ry="2" fill="#e6e0cf" transform="rotate(52 255.7 310.9)"/><ellipse cx="267.9" cy="323.9" rx="4" ry="2" fill="#e6e0cf" transform="rotate(150 267.9 323.9)"/><circle cx="250.0" cy="366.3" r="18.2" fill="#ef8354"/><circle cx="224.2" cy="371.6" r="18.2" fill="#f2a48e"/><circle cx="234.9" cy="345.7" r="18.2" fill="#7fb069"/><circle cx="399.58173530735075" cy="366.5878505576402" r="70" fill="#000" opacity="0.35"/><circle cx="399.58173530735075" cy="360.5878505576402" r="70" fill="#f5f2e8"/><circle cx="399.58173530735075" cy="360.5878505576402" r="60.199999999999996" fill="#f5f2e8"/><ellipse cx="374.3" cy="397.7" rx="4" ry="2" fill="#e6e0cf" transform="rotate(141 374.3 397.7)"/><ellipse cx="355.9" cy="357.8" rx="4" ry="2" fill="#e6e0cf" transform="rotate(4 355.9 357.8)"/><ellipse cx="357.8" cy="348.4" rx="4" ry="2" fill="#e6e0cf" transform="rotate(3 357.8 348.4)"/><ellipse cx="361.3" cy="385.4" rx="4" ry="2" fill="#e6e0cf" transform="rotate(28 361.3 385.4)"/><ellipse cx="362.6" cy="326.2" rx="4" ry="2" fill="#e6e0cf" transform="rotate(161 362.6 326.2)"/><ellipse cx="424.7" cy="399.9" rx="4" ry="2" fill="#e6e0cf" transform="rotate(156 424.7 399.9)"/><ellipse cx="441.9" cy="350.5" rx="4" ry="2" fill="#e6e0cf" transform="rotate(34 441.9 350.5)"/><ellipse cx="351.9" cy="389.9" rx="4" ry="2" fill="#e6e0cf" transform="rotate(177 351.9 389.9)"/><ellipse cx="356.8" cy="374.9" rx="4" ry="2" fill="#e6e0cf" transform="rotate(36 356.8 374.9)"/><ellipse cx="440.4" cy="334.3" rx="4" ry="2" fill="#e6e0cf" transform="rotate(107 440.4 334.3)"/><circle cx="415.0" cy="360.8" r="18.2" fill="#ef8354"/><circle cx="387.7" cy="370.4" r="18.2" fill="#f2a48e"/><circle cx="396.7" cy="345.5" r="18.2" fill="#7fb069"/><circle cx="557.0321141295135" cy="368.693034010008" r="70" fill="#000" opacity="0.35"/><circle cx="557.0321141295135" cy="362.693034010008" r="70" fill="#f5f2e8"/><circle cx="557.0321141295135" cy="362.693034010008" r="60.199999999999996" fill="#f5f2e8"/><ellipse cx="603.2" cy="361.4" rx="4" ry="2" fill="#e6e0cf" transform="rotate(87 603.2 361.4)"/><ellipse cx="590.4" cy="399.1" rx="4" ry="2" fill="#e6e0cf" transform="rotate(168 590.4 399.1)"/><ellipse cx="535.2" cy="407.3" rx="4" ry="2" fill="#e6e0cf" transform="rotate(64 535.2 407.3)"/><ellipse cx="512.1" cy="390.4" rx="4" ry="2" fill="#e6e0cf" transform="rotate(169 512.1 390.4)"/><ellipse cx="600.9" cy="331.6" rx="4" ry="2" fill="#e6e0cf" transform="rotate(163 600.9 331.6)"/><ellipse cx="543.1" cy="313.6" rx="4" ry="2" fill="#e6e0cf" transform="rotate(116 543.1 313.6)"/><ellipse cx="513.4" cy="379.0" rx="4" ry="2" fill="#e6e0cf" transform="rotate(9 513.4 379.0)"/><ellipse cx="599.4" cy="341.6" rx="4" ry="2" fill="#e6e0cf" transform="rotate(72 599.4 341.6)"/><ellipse cx="563.7" cy="312.3" rx="4" ry="2" fill="#e6e0cf" transform="rotate(120 563.7 312.3)"/><ellipse cx="513.4" cy="378.2" rx="4" ry="2" fill="#e6e0cf" transform="rotate(61 513.4 378.2)"/><circle cx="572.4" cy="363.2" r="18.2" fill="#ef8354"/><circle cx="547.8" cy="375.0" r="18.2" fill="#f2a48e"/><circle cx="553.5" cy="347.7" r="18.2" fill="#7fb069"/></svg>