<svg xmlns="http://www.w3.org/2000/svg" viewBox="0 0 800 600"><defs><radialGradient id="bg-segun" cx="50%" cy="35%" r="80%"><stop offset="0%" stop-color="#ffffff"/><stop offset="100%" stop-color="#efeff2"/></radialGradient></defs><rect width="800" height="600" fill="url(#bg-segun)"/><circle cx="235.55909582972527" cy="201.73831338435411" r="70" fill="#000" opacity="0.1"/><circle cx="235.55909582972527" cy="195.73831338435411" r="70" fill="#f5f2e8" stroke="#e0d9c2" stroke-width="2"/><circle cx="235.55909582972527" cy="195.73831338435411" r="60.199999999999996" fill="#f5f2e8"/><ellipse cx="200.7" cy="167.9" rx="4" ry="2" fill="#e6e0cf" transform="rotate(150 200.7 167.9)"/><ellipse cx="221.0" cy="244.2" rx="4" ry="2" fill="#e6e0cf" transform="rotate(169 221.0 244.2)"/><ellipse cx="223.2" cy="251.0" rx="4" ry="2" fill="#e6e0cf" transform="rotate(124 223.2 251.0)"/><ellipse cx="256.8" cy="156.0" rx="4" ry="2" fill="#e6e0cf" transform="rotate(71 256.8 156.0)"/><ellipse cx="292.6" cy="200.7" rx="4" ry="2" fill="#e6e0cf" transform="rotate(157 292.6 200.7)"/><ellipse cx="288.9" cy="212.6" rx="4" ry="2" fill="#e6e0cf" transform="rotate(74 288.9 212.6)"/><ellipse cx="240.7" cy="151.2" rx="4" ry="2" fill="#e6e0cf" transform="rotate(151 240.7 151.2)"/><ellipse cx="179.3" cy="193.7" rx="4" ry="2" fill="#e6e0cf" transform="rotate(68 179.3 193.7)"/><ellipse cx="211.3" cy="148.2" rx="4" ry="2" fill="#e6e0cf" transform="rotate(4 211.3 148.2)"/><ellipse cx="283.0" cy="217.6" rx="4" ry="2" fill="#e6e0cf" transform="rotate(92 283.0 217.6)"/><circle cx="250.6" cy="199.2" r="18.2" fill="#8a5a3b"/><circle cx="226.9" cy="208.5" r="18.2" fill="#7fb069"/><circle cx="233.5" cy="180.5" r="18.2" fill="#f2ecd8"/><circle cx="396.5310247130692" cy="201.55406107008457" r="70" fill="#000" opacity="0.1"/><circle cx="396.5310247130692" cy="195.55406107008457" r="70" fill="#f5f2e8" stroke="#e0d9c2" stroke-width="2"/><circle cx="396.5310247130692" cy="195.55406107008457" r="60.199999999999996" fill="#f5f2e8"/><ellipse cx="353.8" cy="205.3" rx="4" ry="2" fill="#e6e0cf" transform="rotate(65 353.8 205.3)"/><ellipse cx="435.9" cy="155.0" rx="4" ry="2" fill="#e6e0cf" transform="rotate(125 435.9 155.0)"/><ellipse cx="417.5" cy="146.5" rx="4" ry="2" fill="#e6e0cf" transform="rotate(26 417.5 146.5)"/><ellipse cx="437.9" cy="227.0" rx="4" ry="2" fill="#e6e0cf" transform="rotate(91 437.9 227.0)"/><ellipse cx="422.2" cy="145.7" rx="4" ry="2" fill="#e6e0cf" transform="rotate(26 422.2 145.7)"/><ellipse cx="447.8" cy="213.6" rx="4" ry="2" fill="#e6e0cf" transform="rotate(155 447.8 213.6)"/><ellipse cx="372.8" cy="148.3" rx="4" ry="2" fill="#e6e0cf" transform="rotate(118 372.8 148.3)"/><ellipse cx="425.0" cy="240.4" rx="4" ry="2" fill="#e6e0cf" transform="rotate(104 425.0 240.4)"/><ellipse cx="347.7" cy="180.8" rx="4" ry="2" fill="#e6e0cf" transform="rotate(158 347.7 180.8)"/><ellipse cx="369.9" cy="148.7" rx="4" ry="2" fill="#e6e0cf" transform="rotate(58 369.9 148.7)"/><circle cx="410.1" cy="202.9" r="18.2" fill="#8a5a3b"/><circle cx="388.8" cy="208.8" r="18.2" fill="#7fb069"/><circle cx="390.8" cy="181.2" r="18.2" fill="#f2ecd8"/><circle cx="562.7299901228398" cy="206.3519063293934" r="70" fill="#000" opacity="0.1"/><circle cx="562.7299901228398" cy="200.3519063293934" r="70" fill="#f5f2e8" stroke="#e0d9c2" stroke-width="2"/><circle cx="562.7299901228398" cy="200.3519063293934" r="60.199999999999996" fill="#f5f2e8"/><ellipse cx="611.9" cy="176.0" rx="4" ry="2" fill="#e6e0cf" transform="rotate(127 611.9 176.0)"/><ellipse cx="595.6" cy="164.5" rx="4" ry="2" fill="#e6e0cf" transform="rotate(107 595.6 164.5)"/><ellipse cx="577.5" cy="154.4" rx="4" ry="2" fill="#e6e0cf" transform="rotate(83 577.5 154.4)"/><ellipse cx="600.9" cy="225.6" rx="4" ry="2" fill="#e6e0cf" transform="rotate(63 600.9 225.6)"/><ellipse cx="573.0" cy="247.1" rx="4" ry="2" fill="#e6e0cf" transform="rotate(38 573.0 247.1)"/><ellipse cx="570.0" cy="148.4" rx="4" ry="2" fill="#e6e0cf" transform="rotate(2 570.0 148.4)"/><ellipse cx="517.9" cy="228.5" rx="4" ry="2" fill="#e6e0cf" transform="rotate(8 517.9 228.5)"/><ellipse cx="617.1" cy="191.2" rx="4" ry="2" fill="#e6e0cf" transform="rotate(149 617.1 191.2)"/><ellipse cx="577.7" cy="251.6" rx="4" ry="2" fill="#e6e0cf" transform="rotate(160 577.7 251.6)"/><ellipse cx="599.0" cy="161.8" rx="4" ry="2" fill="#e6e0cf" transform="rotate(98 599.0 161.8)"/><circle cx="577.5" cy="204.8" r="18.2" fill="#8a5a3b"/><circle cx="553.8" cy="212.9" r="18.2" fill="#7fb069"/><circle cx="561.7" cy="185.0" r="18.2" fill="#f2ecd8"/><circle cx="235.37011819519103" cy="362.6458378750831" r="70" fill="#000" opacity="0.1"/><circle cx="235.37011819519103" cy="356.6458378750831" r="70" fill="#f5f2e8" stroke="#e0d9c2" stroke-width="2"/><circle cx="235.37011819519103" cy="356.6458378750831" r="60.199999999999996" fill="#f5f2e8"/><ellipse cx="291.0" cy="357.2" rx="4" ry="2" fill="#e6e0cf" transform="rotate(24 291.0 357.2)"/><ellipse cx="276.9" cy="371.0" rx="4" ry="2" fill="#e6e0cf" transform="rotate(45 276.9 371.0)"/><ellipse cx="225.4" cy="406.0" rx="4" ry="2" fill="#e6e0cf" transform="rotate(62 225.4 406.0)"/><ellipse cx="279.2" cy="374.2" rx="4" ry="2" fill="#e6e0cf" transform="rotate(92 279.2 374.2)"/><ellipse cx="228.6" cy="307.4" rx="4" ry="2" fill="#e6e0cf" transform="rotate(50 228.6 307.4)"/><ellipse cx="285.7" cy="333.0" rx="4" ry="2" fill="#e6e0cf" transform="rotate(102 285.7 333.0)"/><ellipse cx="181.2" cy="356.0" rx="4" ry="2" fill="#e6e0cf" transform="rotate(133 181.2 356.0)"/><ellipse cx="195.8" cy="378.3" rx="4" ry="2" fill="#e6e0cf" transform="rotate(46 195.8 378.3)"/><ellipse cx="194.5" cy="371.6" rx="4" ry="2" fill="#e6e0cf" transform="rotate(78 194.5 371.6)"/><ellipse cx="201.4" cy="322.4" rx="4" ry="2" fill="#e6e0cf" transform="rotate(36 201.4 322.4)"/><circle cx="250.5" cy="359.3" r="18.2" fill="#8a5a3b"/><circle cx="224.6" cy="367.7" r="18.2" fill="#7fb069"/><circle cx="229.1" cy="342.6" r="18.2" fill="#f2ecd8"/><circle cx="397.1450199969113" cy="364.3149346932769" r="70" fill="#000" opacity="0.1"/><circle cx="397.1450199969113" cy="358.3149346932769" r="70" fill="#f5f2e8" stroke="#e0d9c2" stroke-width="2"/><circle cx="397.1450199969113" cy="358.3149346932769" r="60.199999999999996" fill="#f5f2e8"/><ellipse cx="377.8" cy="407.9" rx="4" ry="2" fill="#e6e0cf" transform="rotate(113 377.8 407.9)"/><ellipse cx="390.7" cy="306.1" rx="4" ry="2" fill="#e6e0cf" transform="rotate(103 390.7 306.1)"/><ellipse cx="400.5" cy="404.0" rx="4" ry="2" fill="#e6e0cf" transform="rotate(175 400.5 404.0)"/><ellipse cx="443.1" cy="378.2" rx="4" ry="2" fill="#e6e0cf" transform="rotate(35 443.1 378.2)"/><ellipse cx="377.1" cy="313.4" rx="4" ry="2" fill="#e6e0cf" transform="rotate(172 377.1 313.4)"/><ellipse cx="354.5" cy="342.2" rx="4" ry="2" fill="#e6e0cf" transform="rotate(22 354.5 342.2)"/><ellipse cx="448.3" cy="363.0" rx="4" ry="2" fill="#e6e0cf" transform="rotate(9 448.3 363.0)"/><ellipse cx="350.8" cy="381.6" rx="4" ry="2" fill="#e6e0cf" transform="rotate(148 350.8 381.6)"/><ellipse cx="353.9" cy="380.1" rx="4" ry="2" fill="#e6e0cf" transform="rotate(87 353.9 380.1)"/><ellipse cx="429.5" cy="316.6" rx="4" ry="2" fill="#e6e0cf" transform="rotate(154 429.5 316.6)"/><circle cx="411.9" cy="362.8" r="18.2" fill="#8a5a3b"/><circle cx="388.9" cy="371.3" r="18.2" fill="#7fb069"/><circle cx="389.5" cy="344.9" r="18.2" fill="#f2ecd8"/><circle cx="563.0392992366105" cy="364.81487027555704" r="70" fill="#000" opacity="0.1"/><circle cx="563.0392992366105" cy="358.81487027555704" r="70" fill="#f5f2e8" stroke="#e0d9c2" stroke-width="2"/><circle cx="563.0392992366105" cy="358.81487027555704" r="60.199999999999996" fill="#f5f2e8"/><ellipse cx="568.9" cy="413.3" rx="4" ry="2" fill="#e6e0cf" transform="rotate(12 568.9 413.3)"/><ellipse cx="557.0" cy="314.4" rx="4" ry="2" fill="#e6e0cf" transform="rotate(11 557.0 314.4)"/><ellipse cx="523.3" cy="325.1" rx="4" ry="2" fill="#e6e0cf" transform="rotate(119 523.3 325.1)"/><ellipse cx="575.8" cy="407.4" rx="4" ry="2" fill="#e6e0cf" transform="rotate(166 575.8 407.4)"/><ellipse cx="615.5" cy="353.5" rx="4" ry="2" fill="#e6e0cf" transform="rotate(76 615.5 353.5)"/><ellipse cx="546.3" cy="413.5" rx="4" ry="2" fill="#e6e0cf" transform="rotate(171 546.3 413.5)"/><ellipse cx="533.0" cy="325.4" rx="4" ry="2" fill="#e6e0cf" transform="rotate(116 533.0 325.4)"/><ellipse cx="609.5" cy="386.5" rx="4" ry="2" fill="#e6e0cf" transform="rotate(44 609.5 386.5)"/><ellipse cx="563.6" cy="302.9" rx="4" ry="2" fill="#e6e0cf" transform="rotate(162 563.6 302.9)"/><ellipse cx="606.1" cy="351.7" rx="4" ry="2" fill="#e6e0cf" transform="rotate(69 606.1 351.7)"/><circle cx="577.5" cy="364.0" r="18.2" fill="#8a5a3b"/><circle cx="555.2" cy="372.0" r="18.2" fill="#7fb069"/><circle cx="555.9" cy="345.2" r="18.2" fill="#f2ecd8"/></svg>