<svg xmlns="http://www.w3.org/2000/svg" viewBox="0 0 800 600"><defs><radialGradient id="bg-sensey" cx="50%" cy="35%" r="80%"><stop offset="0%" stop-color="#26262c"/><stop offset="100%" stop-color="#141417"/></radialGradient></defs><rect width="800" height="600" fill="url(#bg-sensey)"/><circle cx="240.18297789990902" cy="208.03890431299806" r="70" fill="#000" opacity="0.35"/><circle cx="240.18297789990902" cy="202.03890431299806" r="70" fill="#f5f2e8"/><circle cx="240.18297789990902" cy="202.03890431299806" r="60.199999999999996" fill="#f5f2e8"/><ellipse cx="283.6" cy="182.6" rx="4" ry="2" fill="#e6e0cf" transform="rotate(20 283.6 182.6)"/><ellipse cx="292.3" cy="222.0" rx="4" ry="2" fill="#e6e0cf" transform="rotate(136 292.3 222.0)"/><ellipse cx="271.0" cy="240.5" rx="4" ry="2" fill="#e6e0cf" transform="rotate(170 271.0 240.5)"/><ellipse cx="271.9" cy="247.9" rx="4" ry="2" fill="#e6e0cf" transform="rotate(6 271.9 247.9)"/><ellipse cx="199.2" cy="179.5" rx="4" ry="2" fill="#e6e0cf" transform="rotate(6 199.2 179.5)"/><ellipse cx="271.8" cy="244.6" rx="4" ry="2" fill="#e6e0cf" transform="rotate(78 271.8 244.6)"/><ellipse cx="197.7" cy="218.0" rx="4" ry="2" fill="#e6e0cf" transform="rotate(130 197.7 218.0)"/><ellipse cx="290.6" cy="220.6" rx="4" ry="2" fill="#e6e0cf" transform="rotate(59 290.6 220.6)"/><ellipse cx="196.8" cy="164.6" rx="4" ry="2" fill="#e6e0cf" transform="rotate(176 196.8 164.6)"/><ellipse cx="279.7" cy="232.2" rx="4" ry="2" fill="#e6e0cf" transform="rotate(37 279.7 232.2)"/><circle cx="254.0" cy="208.9" r="18.2" fill="#f2a48e"/><circle cx="224.8" cy="201.7" r="18.2" fill="#7fb069"/><circle cx="397.61261949688196" cy="205.8949752021581" r="70" fill="#000" opacity="0.35"/><circle cx="397.61261949688196" cy="199.8949752021581" r="70" fill="#f5f2e8"/><circle cx="397.61261949688196" cy="199.8949752021581" r="60.199999999999996" fill="#f5f2e8"/><ellipse cx="440.2" cy="214.0" rx="4" ry="2" fill="#e6e0cf" transform="rotate(124 440.2 214.0)"/><ellipse cx="410.9" cy="150.2" rx="4" ry="2" fill="#e6e0cf" transform="rotate(104 410.9 150.2)"/><ellipse cx="438.1" cy="176.3" rx="4" ry="2" fill="#e6e0cf" transform="rotate(28 438.1 176.3)"/><ellipse cx="385.7" cy="244.6" rx="4" ry="2" fill="#e6e0cf" transform="rotate(9 385.7 244.6)"/><ellipse cx="407.4" cy="149.0" rx="4" ry="2" fill="#e6e0cf" transform="rotate(27 407.4 149.0)"/><ellipse cx="358.0" cy="174.2" rx="4" ry="2" fill="#e6e0cf" transform="rotate(154 358.0 174.2)"/><ellipse cx="429.7" cy="153.0" rx="4" ry="2" fill="#e6e0cf" transform="rotate(26 429.7 153.0)"/><ellipse cx="393.7" cy="254.7" rx="4" ry="2" fill="#e6e0cf" transform="rotate(1 393.7 254.7)"/><ellipse cx="374.3" cy="157.2" rx="4" ry="2" fill="#e6e0cf" transform="rotate(148 374.3 157.2)"/><ellipse cx="452.0" cy="187.4" rx="4" ry="2" fill="#e6e0cf" transform="rotate(117 452.0 187.4)"/><circle cx="412.6" cy="203.5" r="18.2" fill="#f2a48e"/><circle cx="383.2" cy="194.5" r="18.2" fill="#7fb069"/><circle cx="560.2739892173558" cy="207.3471772186458" r="70" fill="#000" opacity="0.35"/><circle cx="560.2739892173558" cy="201.3471772186458" r="70" fill="#f5f2e8"/><circle cx="560.2739892173558" cy="201.3471772186458" r="60.199999999999996" fill="#f5f2e8"/><ellipse cx="515.5" cy="225.6" rx="4" ry="2" fill="#e6e0cf" transform="rotate(172 515.5 225.6)"/><ellipse cx="617.4" cy="207.0" rx="4" ry="2" fill="#e6e0cf" transform="rotate(140 617.4 207.0)"/><ellipse cx="555.6" cy="253.3" rx="4" ry="2" fill="#e6e0cf" transform="rotate(142 555.6 253.3)"/><ellipse cx="610.6" cy="205.3" rx="4" ry="2" fill="#e6e0cf" transform="rotate(16 610.6 205.3)"/><ellipse cx="574.0" cy="256.5" rx="4" ry="2" fill="#e6e0cf" transform="rotate(160 574.0 256.5)"/><ellipse cx="564.3" cy="157.4" rx="4" ry="2" fill="#e6e0cf" transform="rotate(113 564.3 157.4)"/><ellipse cx="518.0" cy="214.0" rx="4" ry="2" fill="#e6e0cf" transform="rotate(104 518.0 214.0)"/><ellipse cx="503.8" cy="195.8" rx="4" ry="2" fill="#e6e0cf" transform="rotate(69 503.8 195.8)"/><ellipse cx="559.1" cy="253.1" rx="4" ry="2" fill="#e6e0cf" transform="rotate(89 559.1 253.1)"/><ellipse cx="608.2" cy="192.1" rx="4" ry="2" fill="#e6e0cf" transform="rotate(179 608.2 192.1)"/><circle cx="575.1" cy="205.4" r="18.2" fill="#f2a48e"/><circle cx="545.5" cy="196.9" r="18.2" fill="#7fb069"/><circle cx="235.60002611204982" cy="362.96227277442813" r="70" fill="#000" opacity="0.35"/><circle cx="235.60002611204982" cy="356.96227277442813" r="70" fill="#f5f2e8"/><circle cx="235.60002611204982" cy="356.96227277442813" r="60.199999999999996" fill="#f5f2e8"/><ellipse cx="264.0" cy="395.4" rx="4" ry="2" fill="#e6e0cf" transform="rotate(91 264.0 395.4)"/><ellipse cx="182.1" cy="337.5" rx="4" ry="2" fill="#e6e0cf" transform="rotate(147 182.1 337.5)"/><ellipse cx="283.5" cy="376.5" rx="4" ry="2" fill="#e6e0cf" transform="rotate(153 283.5 376.5)"/><ellipse cx="236.9" cy="312.4" rx="4" ry="2" fill="#e6e0cf" transform="rotate(161 236.9 312.4)"/><ellipse cx="248.9" cy="315.4" rx="4" ry="2" fill="#e6e0cf" transform="rotate(84 248.9 315.4)"/><ellipse cx="262.1" cy="395.5" rx="4" ry="2" fill="#e6e0cf" transform="rotate(115 262.1 395.5)"/><ellipse cx="195.9" cy="322.1" rx="4" ry="2" fill="#e6e0cf" transform="rotate(122 195.9 322.1)"/><ellipse cx="253.9" cy="313.9" rx="4" ry="2" fill="#e6e0cf" transform="rotate(29 253.9 313.9)"/><ellipse cx="237.8" cy="306.0" rx="4" ry="2" fill="#e6e0cf" transform="rotate(125 237.8 306.0)"/><ellipse cx="267.3" cy="310.2" rx="4" ry="2" fill="#e6e0cf" transform="rotate(116 267.3 310.2)"/><circle cx="250.8" cy="359.2" r="18.2" fill="#f2a48e"/><circle cx="221.7" cy="350.4" r="18.2" fill="#7fb069"/><circle cx="400.89980381913483" cy="363.79928144440055" r="70" fill="#000" opacity="0.35"/><circle cx="400.89980381913483" cy="357.79928144440055" r="70" fill="#f5f2e8"/><circle cx="400.89980381913483" cy="357.79928144440055" r="60.199999999999996" fill="#f5f2e8"/><ellipse cx="438.6" cy="384.3" rx="4" ry="2" fill="#e6e0cf" transform="rotate(86 438.6 384.3)"/><ellipse cx="414.0" cy="316.1" rx="4" ry="2" fill="#e6e0cf" transform="rotate(46 414.0 316.1)"/><ellipse cx="386.2" cy="399.6" rx="4" ry="2" fill="#e6e0cf" transform="rotate(135 386.2 399.6)"/><ellipse cx="415.2" cy="302.4" rx="4" ry="2" fill="#e6e0cf" transform="rotate(54 415.2 302.4)"/><ellipse cx="413.8" cy="411.2" rx="4" ry="2" fill="#e6e0cf" transform="rotate(61 413.8 411.2)"/><ellipse cx="455.3" cy="358.1" rx="4" ry="2" fill="#e6e0cf" transform="rotate(76 455.3 358.1)"/><ellipse cx="442.7" cy="371.5" rx="4" ry="2" fill="#e6e0cf" transform="rotate(37 442.7 371.5)"/><ellipse cx="356.0" cy="369.6" rx="4" ry="2" fill="#e6e0cf" transform="rotate(13 356.0 369.6)"/><ellipse cx="357.2" cy="329.8" rx="4" ry="2" fill="#e6e0cf" transform="rotate(57 357.2 329.8)"/><ellipse cx="421.5" cy="407.6" rx="4" ry="2" fill="#e6e0cf" transform="rotate(167 421.5 407.6)"/><circle cx="415.0" cy="364.0" r="18.2" fill="#f2a48e"/><circle cx="387.3" cy="350.5" r="18.2" fill="#7fb069"/><circle cx="557.4945698250085" cy="369.87337784841657" r="70" fill="#000" opacity="0.35"/><circle cx="557.4945698250085" cy="363.87337784841657" r="70" fill="#f5f2e8"/><circle cx="557.4945698250085" cy="363.87337784841657" r="60.199999999999996" fill="#f5f2e8"/><ellipse cx="567.6" cy="319.3" rx="4" ry="2" fill="#e6e0cf" transform="rotate(76 567.6 319.3)"/><ellipse cx="612.2" cy="376.2" rx="4" ry="2" fill="#e6e0cf" transform="rotate(136 612.2 376.2)"/><ellipse cx="502.0" cy="375.3" rx="4" ry="2" fill="#e6e0cf" transform="rotate(102 502.0 375.3)"/><ellipse cx="530.9" cy="412.7" rx="4" ry="2" fill="#e6e0cf" transform="rotate(3 530.9 412.7)"/><ellipse cx="509.1" cy="349.4" rx="4" ry="2" fill="#e6e0cf" transform="rotate(140 509.1 349.4)"/><ellipse cx="504.2" cy="346.7" rx="4" ry="2" fill="#e6e0cf" transform="rotate(115 504.2 346.7)"/><ellipse cx="569.8" cy="312.7" rx="4" ry="2" fill="#e6e0cf" transform="rotate(25 569.8 312.7)"/><ellipse cx="575.0" cy="319.0" rx="4" ry="2" fill="#e6e0cf" transform="rotate(113 575.0 319.0)"/><ellipse cx="527.7" cy="397.6" rx="4" ry="2" fill="#e6e0cf" transform="rotate(65 527.7 397.6)"/><ellipse cx="574.0" cy="404.8" rx="4" ry="2" fill="#e6e0cf" transform="rotate(60 574.0 404.8)"/><circle cx="572.1" cy="368.7" r="18.2" fill="#f2a48e"/><circle cx="543.1" cy="358.5" r="18.2" fill="#7fb069"/></svg>