<svg xmlns="http://www.w3.org/2000/svg" viewBox="0 0 800 600"><defs><radialGradient id="bg-shaurma-s-kuricey" cx="50%" cy="35%" r="80%"><stop offset="0%" stop-color="#ffffff"/><stop offset="100%" stop-color="#efeff2"/></radialGradient></defs><rect width="800" height="600" fill="url(#bg-shaurma-s-kuricey)"/><ellipse cx="400" cy="430" rx="230" ry="30" fill="#000" opacity="0.1"/><g transform="rotate(-18 360 330)"><rect x="170" y="275" width="380" height="110" rx="55" fill="#e8c07d"/><rect x="170" y="275" width="380" height="110" rx="55" fill="none" stroke="#c99b54" stroke-width="4"/><path d="M 260 275 v 110 M 360 275 v 110 M 460 275 v 110" stroke="#c99b54" stroke-width="6" opacity="0.6"/><ellipse cx="550" cy="330" rx="26" ry="52" fill="#b8874a"/><circle cx="542" cy="312" r="10" fill="#7fb069"/><circle cx="554" cy="336" r="11" fill="#d94f3d"/><circle cx="538" cy="354" r="9" fill="#f2ecd8"/></g><g transform="rotate(-14 450 290)"><rect x="260" y="235" width="380" height="110" rx="55" fill="#e8c07d"/><rect x="260" y="235" width="380" height="110" rx="55" fill="none" stroke="#c99b54" stroke-width="4"/><path d="M 350 235 v 110 M 450 235 v 110 M 550 235 v 110" stroke="#c99b54" stroke-width="6" opacity="0.6"/><ellipse cx="640" cy="290" rx="26" ry="52" fill="#b8874a"/><circle cx="632" cy="272" r="10" fill="#7fb069"/><circle cx="644" cy="296" r="11" fill="#d94f3d"/><circle cx="628" cy="314" r="9" fill="#f2ecd8"/></g></svg>