<svg xmlns="http://www.w3.org/2000/svg" viewBox="0 0 800 600"><defs><radialGradient id="bg-slivochnyy-ugor" cx="50%" cy="35%" r="80%"><stop offset="0%" stop-color="#26262c"/><stop offset="100%" stop-color="#141417"/></radialGradient></defs><rect width="800" height="600" fill="url(#bg-slivochnyy-ugor)"/><circle cx="236.1571928076446" cy="204.14138806797564" r="70" fill="#000" opacity="0.35"/><circle cx="236.1571928076446" cy="198.14138806797564" r="70" fill="#f5f2e8"/><circle cx="236.1571928076446" cy="198.14138806797564" r="60.199999999999996" fill="#f5f2e8"/><ellipse cx="242.9" cy="147.6" rx="4" ry="2" fill="#e6e0cf" transform="rotate(167 242.9 147.6)"/><ellipse cx="261.1" cy="237.6" rx="4" ry="2" fill="#e6e0cf" transform="rotate(46 261.1 237.6)"/><ellipse cx="251.0" cy="154.0" rx="4" ry="2" fill="#e6e0cf" transform="rotate(80 251.0 154.0)"/><ellipse cx="249.0" cy="150.3" rx="4" ry="2" fill="#e6e0cf" transform="rotate(81 249.0 150.3)"/><ellipse cx="201.2" cy="168.5" rx="4" ry="2" fill="#e6e0cf" transform="rotate(16 201.2 168.5)"/><ellipse cx="224.4" cy="247.4" rx="4" ry="2" fill="#e6e0cf" transform="rotate(71 224.4 247.4)"/><ellipse cx="210.8" cy="148.6" rx="4" ry="2" fill="#e6e0cf" transform="rotate(94 210.8 148.6)"/><ellipse cx="192.5" cy="201.8" rx="4" ry="2" fill="#e6e0cf" transform="rotate(140 192.5 201.8)"/><ellipse cx="271.3" cy="235.9" rx="4" ry="2" fill="#e6e0cf" transform="rotate(73 271.3 235.9)"/><ellipse cx="243.7" cy="241.7" rx="4" ry="2" fill="#e6e0cf" transform="rotate(101 243.7 241.7)"/><circle cx="250.4" cy="203.9" r="18.2" fill="#8a5a3b"/><circle cx="226.6" cy="210.2" r="18.2" fill="#7fb069"/><circle cx="231.5" cy="183.5" r="18.2" fill="#f2ecd8"/><circle cx="400.24277328141034" cy="207.24934307672083" r="70" fill="#000" opacity="0.35"/><circle cx="400.24277328141034" cy="201.24934307672083" r="70" fill="#f5f2e8"/><circle cx="400.24277328141034" cy="201.24934307672083" r="60.199999999999996" fill="#f5f2e8"/><ellipse cx="443.9" cy="205.1" rx="4" ry="2" fill="#e6e0cf" transform="rotate(166 443.9 205.1)"/><ellipse cx="364.1" cy="170.0" rx="4" ry="2" fill="#e6e0cf" transform="rotate(21 364.1 170.0)"/><ellipse cx="393.1" cy="157.7" rx="4" ry="2" fill="#e6e0cf" transform="rotate(105 393.1 157.7)"/><ellipse cx="372.1" cy="162.3" rx="4" ry="2" fill="#e6e0cf" transform="rotate(39 372.1 162.3)"/><ellipse cx="352.0" cy="207.7" rx="4" ry="2" fill="#e6e0cf" transform="rotate(113 352.0 207.7)"/><ellipse cx="350.8" cy="203.5" rx="4" ry="2" fill="#e6e0cf" transform="rotate(75 350.8 203.5)"/><ellipse cx="359.7" cy="222.4" rx="4" ry="2" fill="#e6e0cf" transform="rotate(35 359.7 222.4)"/><ellipse cx="368.0" cy="156.0" rx="4" ry="2" fill="#e6e0cf" transform="rotate(99 368.0 156.0)"/><ellipse cx="374.4" cy="240.6" rx="4" ry="2" fill="#e6e0cf" transform="rotate(164 374.4 240.6)"/><ellipse cx="343.6" cy="201.0" rx="4" ry="2" fill="#e6e0cf" transform="rotate(88 343.6 201.0)"/><circle cx="414.2" cy="207.7" r="18.2" fill="#8a5a3b"/><circle cx="388.3" cy="211.0" r="18.2" fill="#7fb069"/><circle cx="393.3" cy="187.5" r="18.2" fill="#f2ecd8"/><circle cx="561.8594977408648" cy="205.27718577347696" r="70" fill="#000" opacity="0.35"/><circle cx="561.8594977408648" cy="199.27718577347696" r="70" fill="#f5f2e8"/><circle cx="561.8594977408648" cy="199.27718577347696" r="60.199999999999996" fill="#f5f2e8"/><ellipse cx="599.4" cy="167.7" rx="4" ry="2" fill="#e6e0cf" transform="rotate(40 599.4 167.7)"/><ellipse cx="524.4" cy="238.7" rx="4" ry="2" fill="#e6e0cf" transform="rotate(41 524.4 238.7)"/><ellipse cx="586.2" cy="242.3" rx="4" ry="2" fill="#e6e0cf" transform="rotate(104 586.2 242.3)"/><ellipse cx="568.7" cy="250.8" rx="4" ry="2" fill="#e6e0cf" transform="rotate(64 568.7 250.8)"/><ellipse cx="596.5" cy="162.8" rx="4" ry="2" fill="#e6e0cf" transform="rotate(75 596.5 162.8)"/><ellipse cx="521.4" cy="168.5" rx="4" ry="2" fill="#e6e0cf" transform="rotate(149 521.4 168.5)"/><ellipse cx="597.2" cy="169.6" rx="4" ry="2" fill="#e6e0cf" transform="rotate(0 597.2 169.6)"/><ellipse cx="575.8" cy="254.4" rx="4" ry="2" fill="#e6e0cf" transform="rotate(19 575.8 254.4)"/><ellipse cx="570.8" cy="147.6" rx="4" ry="2" fill="#e6e0cf" transform="rotate(61 570.8 147.6)"/><ellipse cx="602.5" cy="176.6" rx="4" ry="2" fill="#e6e0cf" transform="rotate(169 602.5 176.6)"/><circle cx="576.7" cy="203.5" r="18.2" fill="#8a5a3b"/><circle cx="553.1" cy="211.9" r="18.2" fill="#7fb069"/><circle cx="554.8" cy="185.6" r="18.2" fill="#f2ecd8"/><circle cx="241.41005039028823" cy="368.6001771148294" r="70" fill="#000" opacity="0.35"/><circle cx="241.41005039028823" cy="362.6001771148294" r="70" fill="#f5f2e8"/><circle cx="241.41005039028823" cy="362.6001771148294" r="60.199999999999996" fill="#f5f2e8"/><ellipse cx="247.5" cy="307.8" rx="4" ry="2" fill="#e6e0cf" transform="rotate(130 247.5 307.8)"/><ellipse cx="230.8" cy="309.9" rx="4" ry="2" fill="#e6e0cf" transform="rotate(71 230.8 309.9)"/><ellipse cx="287.6" cy="385.1" rx="4" ry="2" fill="#e6e0cf" transform="rotate(37 287.6 385.1)"/><ellipse cx="265.8" cy="399.6" rx="4" ry="2" fill="#e6e0cf" transform="rotate(36 265.8 399.6)"/><ellipse cx="199.4" cy="379.9" rx="4" ry="2" fill="#e6e0cf" transform="rotate(150 199.4 379.9)"/><ellipse cx="228.7" cy="316.3" rx="4" ry="2" fill="#e6e0cf" transform="rotate(162 228.7 316.3)"/><ellipse cx="229.2" cy="316.8" rx="4" ry="2" fill="#e6e0cf" transform="rotate(68 229.2 316.8)"/><ellipse cx="226.3" cy="403.7" rx="4" ry="2" fill="#e6e0cf" transform="rotate(109 226.3 403.7)"/><ellipse cx="239.1" cy="309.0" rx="4" ry="2" fill="#e6e0cf" transform="rotate(16 239.1 309.0)"/><ellipse cx="186.5" cy="355.9" rx="4" ry="2" fill="#e6e0cf" transform="rotate(126 186.5 355.9)"/><circle cx="255.1" cy="369.6" r="18.2" fill="#8a5a3b"/><circle cx="228.5" cy="370.9" r="18.2" fill="#7fb069"/><circle cx="238.6" cy="347.5" r="18.2" fill="#f2ecd8"/><circle cx="397.27058315835893" cy="365.894882671535" r="70" fill="#000" opacity="0.35"/><circle cx="397.27058315835893" cy="359.894882671535" r="70" fill="#f5f2e8"/><circle cx="397.27058315835893" cy="359.894882671535" r="60.199999999999996" fill="#f5f2e8"/><ellipse cx="442.9" cy="345.4" rx="4" ry="2" fill="#e6e0cf" transform="rotate(9 442.9 345.4)"/><ellipse cx="388.1" cy="409.5" rx="4" ry="2" fill="#e6e0cf" transform="rotate(5 388.1 409.5)"/><ellipse cx="408.4" cy="413.9" rx="4" ry="2" fill="#e6e0cf" transform="rotate(84 408.4 413.9)"/><ellipse cx="374.6" cy="317.2" rx="4" ry="2" fill="#e6e0cf" transform="rotate(32 374.6 317.2)"/><ellipse cx="425.4" cy="395.6" rx="4" ry="2" fill="#e6e0cf" transform="rotate(52 425.4 395.6)"/><ellipse cx="365.8" cy="316.4" rx="4" ry="2" fill="#e6e0cf" transform="rotate(90 365.8 316.4)"/><ellipse cx="378.9" cy="399.5" rx="4" ry="2" fill="#e6e0cf" transform="rotate(132 378.9 399.5)"/><ellipse cx="446.4" cy="374.3" rx="4" ry="2" fill="#e6e0cf" transform="rotate(146 446.4 374.3)"/><ellipse cx="377.2" cy="413.2" rx="4" ry="2" fill="#e6e0cf" transform="rotate(110 377.2 413.2)"/><ellipse cx="355.6" cy="391.9" rx="4" ry="2" fill="#e6e0cf" transform="rotate(4 355.6 391.9)"/><circle cx="412.4" cy="362.7" r="18.2" fill="#8a5a3b"/><circle cx="384.7" cy="368.8" r="18.2" fill="#7fb069"/><circle cx="392.3" cy="345.3" r="18.2" fill="#f2ecd8"/><circle cx="561.5040817037225" cy="364.46564514376223" r="70" fill="#000" opacity="0.35"/><circle cx="561.5040817037225" cy="358.46564514376223" r="70" fill="#f5f2e8"/><circle cx="561.5040817037225" cy="358.46564514376223" r="60.199999999999996" fill="#f5f2e8"/><ellipse cx="516.5" cy="362.7" rx="4" ry="2" fill="#e6e0cf" transform="rotate(18 516.5 362.7)"/><ellipse cx="553.1" cy="305.4" rx="4" ry="2" fill="#e6e0cf" transform="rotate(152 553.1 305.4)"/><ellipse cx="586.8" cy="318.4" rx="4" ry="2" fill="#e6e0cf" transform="rotate(86 586.8 318.4)"/><ellipse cx="597.6" cy="397.9" rx="4" ry="2" fill="#e6e0cf" transform="rotate(88 597.6 397.9)"/><ellipse cx="538.7" cy="401.5" rx="4" ry="2" fill="#e6e0cf" transform="rotate(71 538.7 401.5)"/><ellipse cx="550.3" cy="311.8" rx="4" ry="2" fill="#e6e0cf" transform="rotate(39 550.3 311.8)"/><ellipse cx="512.9" cy="368.2" rx="4" ry="2" fill="#e6e0cf" transform="rotate(110 512.9 368.2)"/><ellipse cx="595.7" cy="403.8" rx="4" ry="2" fill="#e6e0cf" transform="rotate(172 595.7 403.8)"/><ellipse cx="575.4" cy="407.3" rx="4" ry="2" fill="#e6e0cf" transform="rotate(43 575.4 407.3)"/><ellipse cx="523.4" cy="392.7" rx="4" ry="2" fill="#e6e0cf" transform="rotate(47 523.4 392.7)"/><circle cx="575.5" cy="364.8" r="18.2" fill="#8a5a3b"/><circle cx="548.7" cy="367.1" r="18.2" fill="#7fb069"/><circle cx="559.1" cy="343.2" r="18.2" fill="#f2ecd8"/></svg>