<svg xmlns="http://www.w3.org/2000/svg" viewBox="0 0 800 600"><defs><radialGradient id="bg-syake-maki-gunkan" cx="50%" cy="35%" r="80%"><stop offset="0%" stop-color="#26262c"/><stop offset="100%" stop-color="#141417"/></radialGradient></defs><rect width="800" height="600" fill="url(#bg-syake-maki-gunkan)"/><ellipse cx="400" cy="410" rx="150" ry="26" fill="#000" opacity="0.35"/><rect x="280" y="280" width="240" height="130" rx="40" fill="#23272a"/><circle cx="486.6" cy="263.3" r="16.5" fill="#f2ecd8"/><circle cx="486.9" cy="278.4" r="16.1" fill="#ef8354"/><circle cx="472.4" cy="273.7" r="17.0" fill="#f2ecd8"/><circle cx="331.1" cy="256.7" r="13.1" fill="#ef8354"/><circle cx="312.4" cy="277.4" r="14.8" fill="#ef8354"/><circle cx="431.9" cy="263.0" r="17.7" fill="#ef8354"/><circle cx="365.0" cy="252.1" r="12.3" fill="#ef8354"/><circle cx="433.9" cy="258.6" r="18.7" fill="#f2ecd8"/><circle cx="317.9" cy="267.6" r="18.9" fill="#ef8354"/><circle cx="326.8" cy="278.0" r="16.0" fill="#ef8354"/><circle cx="458.4" cy="264.5" r="17.5" fill="#ef8354"/><circle cx="395.5" cy="272.0" r="10.8" fill="#f2ecd8"/><circle cx="477.3" cy="274.4" r="10.8" fill="#ef8354"/><circle cx="482.2" cy="262.6" r="13.3" fill="#ef8354"/><circle cx="335.8" cy="270.1" r="16.6" fill="#ef8354"/><circle cx="449.3" cy="267.4" r="14.2" fill="#ef8354"/><circle cx="329.5" cy="263.2" r="11.5" fill="#f2ecd8"/><circle cx="457.7" cy="265.7" r="12.6" fill="#ef8354"/><circle cx="389.4" cy="265.1" r="18.7" fill="#ef8354"/><circle cx="468.5" cy="254.3" r="12.3" fill="#ef8354"/><circle cx="460.0" cy="270.3" r="10.6" fill="#ef8354"/><circle cx="458.6" cy="263.6" r="12.7" fill="#ef8354"/><circle cx="316.2" cy="253.3" r="13.8" fill="#f2ecd8"/><circle cx="443.6" cy="252.9" r="17.5" fill="#f2ecd8"/><rect x="280" y="280" width="240" height="130" rx="40" fill="none" stroke="#111" stroke-width="3"/></svg>