<svg xmlns="http://www.w3.org/2000/svg" viewBox="0 0 800 600"><defs><radialGradient id="bg-syake-bonita" cx="50%" cy="35%" r="80%"><stop offset="0%" stop-color="#26262c"/><stop offset="100%" stop-color="#141417"/></radialGradient></defs><rect width="800" height="600" fill="url(#bg-syake-bonita)"/><circle cx="238.70362247526646" cy="209.26731728762388" r="70" fill="#000" opacity="0.35"/><circle cx="238.70362247526646" cy="203.26731728762388" r="70" fill="#2e3230"/><circle cx="238.70362247526646" cy="203.26731728762388" r="60.199999999999996" fill="#f5f2e8"/><ellipse cx="240.2" cy="256.4" rx="4" ry="2" fill="#e6e0cf" transform="rotate(31 240.2 256.4)"/><ellipse cx="232.2" cy="247.5" rx="4" ry="2" fill="#e6e0cf" transform="rotate(138 232.2 247.5)"/><ellipse cx="291.5" cy="205.3" rx="4" ry="2" fill="#e6e0cf" transform="rotate(14 291.5 205.3)"/><ellipse cx="280.8" cy="239.8" rx="4" ry="2" fill="#e6e0cf" transform="rotate(33 280.8 239.8)"/><ellipse cx="229.0" cy="247.6" rx="4" ry="2" fill="#e6e0cf" transform="rotate(21 229.0 247.6)"/><ellipse cx="193.5" cy="213.2" rx="4" ry="2" fill="#e6e0cf" transform="rotate(138 193.5 213.2)"/><ellipse cx="292.3" cy="186.8" rx="4" ry="2" fill="#e6e0cf" transform="rotate(61 292.3 186.8)"/><ellipse cx="191.6" cy="218.6" rx="4" ry="2" fill="#e6e0cf" transform="rotate(64 191.6 218.6)"/><ellipse cx="220.8" cy="156.2" rx="4" ry="2" fill="#e6e0cf" transform="rotate(104 220.8 156.2)"/><ellipse cx="183.5" cy="210.6" rx="4" ry="2" fill="#e6e0cf" transform="rotate(104 183.5 210.6)"/><circle cx="253.4" cy="208.0" r="18.2" fill="#ef8354"/><circle cx="229.1" cy="215.3" r="18.2" fill="#7fb069"/><circle cx="231.8" cy="189.5" r="18.2" fill="#f2ecd8"/><circle cx="398.282309319824" cy="206.61659493669868" r="70" fill="#000" opacity="0.35"/><circle cx="398.282309319824" cy="200.61659493669868" r="70" fill="#2e3230"/><circle cx="398.282309319824" cy="200.61659493669868" r="60.199999999999996" fill="#f5f2e8"/><ellipse cx="404.3" cy="254.4" rx="4" ry="2" fill="#e6e0cf" transform="rotate(156 404.3 254.4)"/><ellipse cx="443.7" cy="207.7" rx="4" ry="2" fill="#e6e0cf" transform="rotate(156 443.7 207.7)"/><ellipse cx="363.3" cy="171.5" rx="4" ry="2" fill="#e6e0cf" transform="rotate(141 363.3 171.5)"/><ellipse cx="397.8" cy="144.5" rx="4" ry="2" fill="#e6e0cf" transform="rotate(121 397.8 144.5)"/><ellipse cx="366.4" cy="239.8" rx="4" ry="2" fill="#e6e0cf" transform="rotate(57 366.4 239.8)"/><ellipse cx="373.0" cy="241.9" rx="4" ry="2" fill="#e6e0cf" transform="rotate(51 373.0 241.9)"/><ellipse cx="351.9" cy="195.2" rx="4" ry="2" fill="#e6e0cf" transform="rotate(36 351.9 195.2)"/><ellipse cx="377.5" cy="158.5" rx="4" ry="2" fill="#e6e0cf" transform="rotate(69 377.5 158.5)"/><ellipse cx="416.1" cy="160.7" rx="4" ry="2" fill="#e6e0cf" transform="rotate(66 416.1 160.7)"/><ellipse cx="450.3" cy="193.8" rx="4" ry="2" fill="#e6e0cf" transform="rotate(33 450.3 193.8)"/><circle cx="413.5" cy="202.9" r="18.2" fill="#ef8354"/><circle cx="385.6" cy="209.3" r="18.2" fill="#7fb069"/><circle cx="395.6" cy="185.4" r="18.2" fill="#f2ecd8"/><circle cx="564.9886293634772" cy="206.1642717886716" r="70" fill="#000" opacity="0.35"/><circle cx="564.9886293634772" cy="200.1642717886716" r="70" fill="#2e3230"/><circle cx="564.9886293634772" cy="200.1642717886716" r="60.199999999999996" fill="#f5f2e8"/><ellipse cx="581.3" cy="246.4" rx="4" ry="2" fill="#e6e0cf" transform="rotate(61 581.3 246.4)"/><ellipse cx="525.4" cy="176.1" rx="4" ry="2" fill="#e6e0cf" transform="rotate(176 525.4 176.1)"/><ellipse cx="572.8" cy="156.8" rx="4" ry="2" fill="#e6e0cf" transform="rotate(165 572.8 156.8)"/><ellipse cx="549.6" cy="252.0" rx="4" ry="2" fill="#e6e0cf" transform="rotate(38 549.6 252.0)"/><ellipse cx="562.8" cy="149.0" rx="4" ry="2" fill="#e6e0cf" transform="rotate(171 562.8 149.0)"/><ellipse cx="612.3" cy="212.9" rx="4" ry="2" fill="#e6e0cf" transform="rotate(69 612.3 212.9)"/><ellipse cx="594.3" cy="241.3" rx="4" ry="2" fill="#e6e0cf" transform="rotate(158 594.3 241.3)"/><ellipse cx="537.4" cy="238.6" rx="4" ry="2" fill="#e6e0cf" transform="rotate(42 537.4 238.6)"/><ellipse cx="606.6" cy="238.2" rx="4" ry="2" fill="#e6e0cf" transform="rotate(176 606.6 238.2)"/><ellipse cx="587.2" cy="243.4" rx="4" ry="2" fill="#e6e0cf" transform="rotate(18 587.2 243.4)"/><circle cx="579.5" cy="205.2" r="18.2" fill="#ef8354"/><circle cx="556.5" cy="213.0" r="18.2" fill="#7fb069"/><circle cx="561.5" cy="185.2" r="18.2" fill="#f2ecd8"/><circle cx="237.47779229842126" cy="369.4748098514974" r="70" fill="#000" opacity="0.35"/><circle cx="237.47779229842126" cy="363.4748098514974" r="70" fill="#2e3230"/><circle cx="237.47779229842126" cy="363.4748098514974" r="60.199999999999996" fill="#f5f2e8"/><ellipse cx="190.2" cy="364.4" rx="4" ry="2" fill="#e6e0cf" transform="rotate(39 190.2 364.4)"/><ellipse cx="275.2" cy="332.6" rx="4" ry="2" fill="#e6e0cf" transform="rotate(66 275.2 332.6)"/><ellipse cx="216.2" cy="406.0" rx="4" ry="2" fill="#e6e0cf" transform="rotate(153 216.2 406.0)"/><ellipse cx="288.1" cy="388.8" rx="4" ry="2" fill="#e6e0cf" transform="rotate(37 288.1 388.8)"/><ellipse cx="184.5" cy="372.1" rx="4" ry="2" fill="#e6e0cf" transform="rotate(163 184.5 372.1)"/><ellipse cx="254.1" cy="415.8" rx="4" ry="2" fill="#e6e0cf" transform="rotate(159 254.1 415.8)"/><ellipse cx="261.5" cy="311.9" rx="4" ry="2" fill="#e6e0cf" transform="rotate(109 261.5 311.9)"/><ellipse cx="280.6" cy="326.7" rx="4" ry="2" fill="#e6e0cf" transform="rotate(63 280.6 326.7)"/><ellipse cx="181.5" cy="370.9" rx="4" ry="2" fill="#e6e0cf" transform="rotate(98 181.5 370.9)"/><ellipse cx="258.6" cy="411.9" rx="4" ry="2" fill="#e6e0cf" transform="rotate(144 258.6 411.9)"/><circle cx="252.8" cy="365.2" r="18.2" fill="#ef8354"/><circle cx="228.6" cy="376.1" r="18.2" fill="#7fb069"/><circle cx="230.4" cy="349.8" r="18.2" fill="#f2ecd8"/><circle cx="396.1168947853148" cy="365.7169364094734" r="70" fill="#000" opacity="0.35"/><circle cx="396.1168947853148" cy="359.7169364094734" r="70" fill="#2e3230"/><circle cx="396.1168947853148" cy="359.7169364094734" r="60.199999999999996" fill="#f5f2e8"/><ellipse cx="393.0" cy="416.0" rx="4" ry="2" fill="#e6e0cf" transform="rotate(173 393.0 416.0)"/><ellipse cx="404.1" cy="409.3" rx="4" ry="2" fill="#e6e0cf" transform="rotate(63 404.1 409.3)"/><ellipse cx="437.5" cy="392.5" rx="4" ry="2" fill="#e6e0cf" transform="rotate(120 437.5 392.5)"/><ellipse cx="439.5" cy="384.5" rx="4" ry="2" fill="#e6e0cf" transform="rotate(53 439.5 384.5)"/><ellipse cx="357.1" cy="320.5" rx="4" ry="2" fill="#e6e0cf" transform="rotate(147 357.1 320.5)"/><ellipse cx="356.2" cy="323.5" rx="4" ry="2" fill="#e6e0cf" transform="rotate(150 356.2 323.5)"/><ellipse cx="359.8" cy="335.5" rx="4" ry="2" fill="#e6e0cf" transform="rotate(21 359.8 335.5)"/><ellipse cx="442.1" cy="382.5" rx="4" ry="2" fill="#e6e0cf" transform="rotate(59 442.1 382.5)"/><ellipse cx="347.4" cy="354.7" rx="4" ry="2" fill="#e6e0cf" transform="rotate(119 347.4 354.7)"/><ellipse cx="439.7" cy="352.9" rx="4" ry="2" fill="#e6e0cf" transform="rotate(179 439.7 352.9)"/><circle cx="410.6" cy="364.8" r="18.2" fill="#ef8354"/><circle cx="383.6" cy="368.7" r="18.2" fill="#7fb069"/><circle cx="394.1" cy="344.4" r="18.2" fill="#f2ecd8"/><circle cx="560.2382397763431" cy="363.01772069372237" r="70" fill="#000" opacity="0.35"/><circle cx="560.2382397763431" cy="357.01772069372237" r="70" fill="#2e3230"/><circle cx="560.2382397763431" cy="357.01772069372237" r="60.199999999999996" fill="#f5f2e8"/><ellipse cx="516.0" cy="371.6" rx="4" ry="2" fill="#e6e0cf" transform="rotate(62 516.0 371.6)"/><ellipse cx="526.1" cy="399.3" rx="4" ry="2" fill="#e6e0cf" transform="rotate(26 526.1 399.3)"/><ellipse cx="587.4" cy="319.4" rx="4" ry="2" fill="#e6e0cf" transform="rotate(129 587.4 319.4)"/><ellipse cx="512.0" cy="339.6" rx="4" ry="2" fill="#e6e0cf" transform="rotate(171 512.0 339.6)"/><ellipse cx="588.8" cy="399.2" rx="4" ry="2" fill="#e6e0cf" transform="rotate(76 588.8 399.2)"/><ellipse cx="527.3" cy="392.0" rx="4" ry="2" fill="#e6e0cf" transform="rotate(1 527.3 392.0)"/><ellipse cx="593.8" cy="385.9" rx="4" ry="2" fill="#e6e0cf" transform="rotate(33 593.8 385.9)"/><ellipse cx="582.2" cy="309.0" rx="4" ry="2" fill="#e6e0cf" transform="rotate(53 582.2 309.0)"/><ellipse cx="606.7" cy="327.4" rx="4" ry="2" fill="#e6e0cf" transform="rotate(76 606.7 327.4)"/><ellipse cx="607.0" cy="370.7" rx="4" ry="2" fill="#e6e0cf" transform="rotate(134 607.0 370.7)"/><circle cx="575.6" cy="358.4" r="18.2" fill="#ef8354"/><circle cx="547.4" cy="365.6" r="18.2" fill="#7fb069"/><circle cx="555.0" cy="342.5" r="18.2" fill="#f2ecd8"/></svg>