<svg xmlns="http://www.w3.org/2000/svg" viewBox="0 0 800 600"><defs><radialGradient id="bg-syake-tortilya" cx="50%" cy="35%" r="80%"><stop offset="0%" stop-color="#26262c"/><stop offset="100%" stop-color="#141417"/></radialGradient></defs><rect width="800" height="600" fill="url(#bg-syake-tortilya)"/><circle cx="241.72302865423262" cy="208.95074731111526" r="70" fill="#000" opacity="0.35"/><circle cx="241.72302865423262" cy="202.95074731111526" r="70" fill="#2e3230"/><circle cx="241.72302865423262" cy="202.95074731111526" r="60.199999999999996" fill="#f5f2e8"/><ellipse cx="226.2" cy="246.8" rx="4" ry="2" fill="#e6e0cf" transform="rotate(80 226.2 246.8)"/><ellipse cx="224.2" cy="156.9" rx="4" ry="2" fill="#e6e0cf" transform="rotate(144 224.2 156.9)"/><ellipse cx="285.4" cy="189.7" rx="4" ry="2" fill="#e6e0cf" transform="rotate(25 285.4 189.7)"/><ellipse cx="240.9" cy="248.7" rx="4" ry="2" fill="#e6e0cf" transform="rotate(17 240.9 248.7)"/><ellipse cx="239.9" cy="249.2" rx="4" ry="2" fill="#e6e0cf" transform="rotate(11 239.9 249.2)"/><ellipse cx="220.5" cy="240.9" rx="4" ry="2" fill="#e6e0cf" transform="rotate(139 220.5 240.9)"/><ellipse cx="193.6" cy="183.7" rx="4" ry="2" fill="#e6e0cf" transform="rotate(89 193.6 183.7)"/><ellipse cx="199.2" cy="191.0" rx="4" ry="2" fill="#e6e0cf" transform="rotate(21 199.2 191.0)"/><ellipse cx="295.5" cy="206.5" rx="4" ry="2" fill="#e6e0cf" transform="rotate(50 295.5 206.5)"/><ellipse cx="189.3" cy="200.3" rx="4" ry="2" fill="#e6e0cf" transform="rotate(179 189.3 200.3)"/><circle cx="257.0" cy="204.6" r="18.2" fill="#ef8354"/><circle cx="231.5" cy="214.4" r="18.2" fill="#7fb069"/><circle cx="240.3" cy="187.6" r="18.2" fill="#f2ecd8"/><circle cx="403.25479282438755" cy="207.97685278952122" r="70" fill="#000" opacity="0.35"/><circle cx="403.25479282438755" cy="201.97685278952122" r="70" fill="#2e3230"/><circle cx="403.25479282438755" cy="201.97685278952122" r="60.199999999999996" fill="#f5f2e8"/><ellipse cx="351.0" cy="182.2" rx="4" ry="2" fill="#e6e0cf" transform="rotate(172 351.0 182.2)"/><ellipse cx="399.0" cy="153.1" rx="4" ry="2" fill="#e6e0cf" transform="rotate(174 399.0 153.1)"/><ellipse cx="424.9" cy="241.7" rx="4" ry="2" fill="#e6e0cf" transform="rotate(67 424.9 241.7)"/><ellipse cx="407.3" cy="152.1" rx="4" ry="2" fill="#e6e0cf" transform="rotate(168 407.3 152.1)"/><ellipse cx="449.9" cy="206.5" rx="4" ry="2" fill="#e6e0cf" transform="rotate(107 449.9 206.5)"/><ellipse cx="412.3" cy="246.3" rx="4" ry="2" fill="#e6e0cf" transform="rotate(88 412.3 246.3)"/><ellipse cx="452.0" cy="204.8" rx="4" ry="2" fill="#e6e0cf" transform="rotate(73 452.0 204.8)"/><ellipse cx="359.7" cy="172.2" rx="4" ry="2" fill="#e6e0cf" transform="rotate(30 359.7 172.2)"/><ellipse cx="388.5" cy="246.3" rx="4" ry="2" fill="#e6e0cf" transform="rotate(166 388.5 246.3)"/><ellipse cx="409.9" cy="150.9" rx="4" ry="2" fill="#e6e0cf" transform="rotate(1 409.9 150.9)"/><circle cx="418.4" cy="204.7" r="18.2" fill="#ef8354"/><circle cx="393.6" cy="214.0" r="18.2" fill="#7fb069"/><circle cx="399.3" cy="187.1" r="18.2" fill="#f2ecd8"/><circle cx="563.309763032943" cy="205.8126359563321" r="70" fill="#000" opacity="0.35"/><circle cx="563.309763032943" cy="199.8126359563321" r="70" fill="#2e3230"/><circle cx="563.309763032943" cy="199.8126359563321" r="60.199999999999996" fill="#f5f2e8"/><ellipse cx="607.2" cy="220.7" rx="4" ry="2" fill="#e6e0cf" transform="rotate(109 607.2 220.7)"/><ellipse cx="598.4" cy="242.5" rx="4" ry="2" fill="#e6e0cf" transform="rotate(91 598.4 242.5)"/><ellipse cx="610.4" cy="186.7" rx="4" ry="2" fill="#e6e0cf" transform="rotate(15 610.4 186.7)"/><ellipse cx="540.5" cy="152.6" rx="4" ry="2" fill="#e6e0cf" transform="rotate(151 540.5 152.6)"/><ellipse cx="607.3" cy="171.1" rx="4" ry="2" fill="#e6e0cf" transform="rotate(144 607.3 171.1)"/><ellipse cx="521.6" cy="187.5" rx="4" ry="2" fill="#e6e0cf" transform="rotate(162 521.6 187.5)"/><ellipse cx="529.6" cy="160.5" rx="4" ry="2" fill="#e6e0cf" transform="rotate(107 529.6 160.5)"/><ellipse cx="565.2" cy="250.0" rx="4" ry="2" fill="#e6e0cf" transform="rotate(142 565.2 250.0)"/><ellipse cx="567.4" cy="144.1" rx="4" ry="2" fill="#e6e0cf" transform="rotate(104 567.4 144.1)"/><ellipse cx="512.5" cy="178.9" rx="4" ry="2" fill="#e6e0cf" transform="rotate(82 512.5 178.9)"/><circle cx="576.9" cy="207.0" r="18.2" fill="#ef8354"/><circle cx="553.9" cy="212.0" r="18.2" fill="#7fb069"/><circle cx="559.2" cy="185.0" r="18.2" fill="#f2ecd8"/><circle cx="235.41926174610853" cy="370.36533121950924" r="70" fill="#000" opacity="0.35"/><circle cx="235.41926174610853" cy="364.36533121950924" r="70" fill="#2e3230"/><circle cx="235.41926174610853" cy="364.36533121950924" r="60.199999999999996" fill="#f5f2e8"/><ellipse cx="286.8" cy="383.5" rx="4" ry="2" fill="#e6e0cf" transform="rotate(123 286.8 383.5)"/><ellipse cx="236.6" cy="317.9" rx="4" ry="2" fill="#e6e0cf" transform="rotate(140 236.6 317.9)"/><ellipse cx="276.5" cy="342.9" rx="4" ry="2" fill="#e6e0cf" transform="rotate(153 276.5 342.9)"/><ellipse cx="223.1" cy="415.4" rx="4" ry="2" fill="#e6e0cf" transform="rotate(23 223.1 415.4)"/><ellipse cx="183.6" cy="351.2" rx="4" ry="2" fill="#e6e0cf" transform="rotate(155 183.6 351.2)"/><ellipse cx="199.1" cy="326.9" rx="4" ry="2" fill="#e6e0cf" transform="rotate(29 199.1 326.9)"/><ellipse cx="279.1" cy="361.1" rx="4" ry="2" fill="#e6e0cf" transform="rotate(1 279.1 361.1)"/><ellipse cx="255.0" cy="316.8" rx="4" ry="2" fill="#e6e0cf" transform="rotate(27 255.0 316.8)"/><ellipse cx="194.8" cy="381.5" rx="4" ry="2" fill="#e6e0cf" transform="rotate(72 194.8 381.5)"/><ellipse cx="239.0" cy="413.0" rx="4" ry="2" fill="#e6e0cf" transform="rotate(123 239.0 413.0)"/><circle cx="250.6" cy="367.0" r="18.2" fill="#ef8354"/><circle cx="225.9" cy="376.5" r="18.2" fill="#7fb069"/><circle cx="229.0" cy="350.3" r="18.2" fill="#f2ecd8"/><circle cx="401.0693384613842" cy="365.1821939460933" r="70" fill="#000" opacity="0.35"/><circle cx="401.0693384613842" cy="359.1821939460933" r="70" fill="#2e3230"/><circle cx="401.0693384613842" cy="359.1821939460933" r="60.199999999999996" fill="#f5f2e8"/><ellipse cx="374.7" cy="319.2" rx="4" ry="2" fill="#e6e0cf" transform="rotate(174 374.7 319.2)"/><ellipse cx="446.2" cy="348.7" rx="4" ry="2" fill="#e6e0cf" transform="rotate(12 446.2 348.7)"/><ellipse cx="447.2" cy="327.0" rx="4" ry="2" fill="#e6e0cf" transform="rotate(21 447.2 327.0)"/><ellipse cx="386.4" cy="316.1" rx="4" ry="2" fill="#e6e0cf" transform="rotate(92 386.4 316.1)"/><ellipse cx="410.0" cy="314.5" rx="4" ry="2" fill="#e6e0cf" transform="rotate(83 410.0 314.5)"/><ellipse cx="346.4" cy="363.7" rx="4" ry="2" fill="#e6e0cf" transform="rotate(171 346.4 363.7)"/><ellipse cx="377.9" cy="317.9" rx="4" ry="2" fill="#e6e0cf" transform="rotate(155 377.9 317.9)"/><ellipse cx="453.5" cy="342.7" rx="4" ry="2" fill="#e6e0cf" transform="rotate(80 453.5 342.7)"/><ellipse cx="445.0" cy="368.3" rx="4" ry="2" fill="#e6e0cf" transform="rotate(29 445.0 368.3)"/><ellipse cx="388.4" cy="407.9" rx="4" ry="2" fill="#e6e0cf" transform="rotate(10 388.4 407.9)"/><circle cx="415.5" cy="364.5" r="18.2" fill="#ef8354"/><circle cx="392.0" cy="371.6" r="18.2" fill="#7fb069"/><circle cx="393.6" cy="345.7" r="18.2" fill="#f2ecd8"/><circle cx="558.8854653332382" cy="363.2427271194756" r="70" fill="#000" opacity="0.35"/><circle cx="558.8854653332382" cy="357.2427271194756" r="70" fill="#2e3230"/><circle cx="558.8854653332382" cy="357.2427271194756" r="60.199999999999996" fill="#f5f2e8"/><ellipse cx="573.2" cy="407.2" rx="4" ry="2" fill="#e6e0cf" transform="rotate(11 573.2 407.2)"/><ellipse cx="557.3" cy="403.6" rx="4" ry="2" fill="#e6e0cf" transform="rotate(35 557.3 403.6)"/><ellipse cx="511.2" cy="375.2" rx="4" ry="2" fill="#e6e0cf" transform="rotate(69 511.2 375.2)"/><ellipse cx="559.4" cy="401.2" rx="4" ry="2" fill="#e6e0cf" transform="rotate(6 559.4 401.2)"/><ellipse cx="526.0" cy="322.4" rx="4" ry="2" fill="#e6e0cf" transform="rotate(122 526.0 322.4)"/><ellipse cx="600.7" cy="392.1" rx="4" ry="2" fill="#e6e0cf" transform="rotate(159 600.7 392.1)"/><ellipse cx="526.9" cy="312.4" rx="4" ry="2" fill="#e6e0cf" transform="rotate(134 526.9 312.4)"/><ellipse cx="517.2" cy="338.1" rx="4" ry="2" fill="#e6e0cf" transform="rotate(115 517.2 338.1)"/><ellipse cx="512.6" cy="343.0" rx="4" ry="2" fill="#e6e0cf" transform="rotate(48 512.6 343.0)"/><ellipse cx="566.7" cy="305.2" rx="4" ry="2" fill="#e6e0cf" transform="rotate(133 566.7 305.2)"/><circle cx="572.6" cy="364.2" r="18.2" fill="#ef8354"/><circle cx="550.1" cy="369.9" r="18.2" fill="#7fb069"/><circle cx="552.9" cy="343.1" r="18.2" fill="#f2ecd8"/></svg>