<svg xmlns="http://www.w3.org/2000/svg" viewBox="0 0 800 600"><defs><radialGradient id="bg-syake-spays" cx="50%" cy="35%" r="80%"><stop offset="0%" stop-color="#26262c"/><stop offset="100%" stop-color="#141417"/></radialGradient></defs><rect width="800" height="600" fill="url(#bg-syake-spays)"/><ellipse cx="400" cy="410" rx="150" ry="26" fill="#000" opacity="0.35"/><rect x="280" y="280" width="240" height="130" rx="40" fill="#23272a"/><circle cx="420.9" cy="279.0" r="14.6" fill="#ef8354"/><circle cx="461.4" cy="264.1" r="11.8" fill="#ef8354"/><circle cx="421.4" cy="259.3" r="16.6" fill="#ef8354"/><circle cx="384.2" cy="253.0" r="11.8" fill="#ef8354"/><circle cx="409.3" cy="252.2" r="13.9" fill="#ef8354"/><circle cx="445.7" cy="273.4" r="13.1" fill="#ef8354"/><circle cx="486.6" cy="274.5" r="13.2" fill="#ef8354"/><circle cx="309.0" cy="269.9" r="13.2" fill="#ef8354"/><circle cx="466.5" cy="260.9" r="10.6" fill="#ef8354"/><circle cx="472.9" cy="275.7" r="13.2" fill="#ef8354"/><circle cx="337.0" cy="264.5" r="14.2" fill="#ef8354"/><circle cx="421.1" cy="261.8" r="11.7" fill="#ef8354"/><circle cx="449.7" cy="252.2" r="14.6" fill="#ef8354"/><circle cx="423.4" cy="262.2" r="16.8" fill="#ef8354"/><circle cx="384.9" cy="278.6" r="13.9" fill="#ef8354"/><circle cx="468.4" cy="259.9" r="12.0" fill="#ef8354"/><circle cx="343.7" cy="262.9" r="16.8" fill="#ef8354"/><circle cx="336.8" cy="256.0" r="12.3" fill="#ef8354"/><circle cx="448.3" cy="258.9" r="16.1" fill="#ef8354"/><circle cx="377.0" cy="255.2" r="12.7" fill="#ef8354"/><circle cx="431.8" cy="254.3" r="16.7" fill="#ef8354"/><circle cx="377.8" cy="275.7" r="13.8" fill="#ef8354"/><circle cx="333.8" cy="275.7" r="16.6" fill="#ef8354"/><circle cx="460.1" cy="278.0" r="12.8" fill="#ef8354"/><rect x="280" y="280" width="240" height="130" rx="40" fill="none" stroke="#111" stroke-width="3"/></svg>