<svg xmlns="http://www.w3.org/2000/svg" viewBox="0 0 800 600"><defs><radialGradient id="bg-syake-tataki" cx="50%" cy="35%" r="80%"><stop offset="0%" stop-color="#26262c"/><stop offset="100%" stop-color="#141417"/></radialGradient></defs><rect width="800" height="600" fill="url(#bg-syake-tataki)"/><circle cx="237.0900848917663" cy="207.16003532148898" r="70" fill="#000" opacity="0.35"/><circle cx="237.0900848917663" cy="201.16003532148898" r="70" fill="#f5f2e8"/><circle cx="237.0900848917663" cy="201.16003532148898" r="60.199999999999996" fill="#f5f2e8"/><ellipse cx="238.9" cy="251.6" rx="4" ry="2" fill="#e6e0cf" transform="rotate(1 238.9 251.6)"/><ellipse cx="280.9" cy="188.2" rx="4" ry="2" fill="#e6e0cf" transform="rotate(70 280.9 188.2)"/><ellipse cx="276.3" cy="228.4" rx="4" ry="2" fill="#e6e0cf" transform="rotate(102 276.3 228.4)"/><ellipse cx="264.0" cy="248.7" rx="4" ry="2" fill="#e6e0cf" transform="rotate(5 264.0 248.7)"/><ellipse cx="192.7" cy="167.8" rx="4" ry="2" fill="#e6e0cf" transform="rotate(124 192.7 167.8)"/><ellipse cx="192.6" cy="189.0" rx="4" ry="2" fill="#e6e0cf" transform="rotate(82 192.6 189.0)"/><ellipse cx="240.8" cy="247.6" rx="4" ry="2" fill="#e6e0cf" transform="rotate(58 240.8 247.6)"/><ellipse cx="188.5" cy="222.5" rx="4" ry="2" fill="#e6e0cf" transform="rotate(118 188.5 222.5)"/><ellipse cx="240.8" cy="149.2" rx="4" ry="2" fill="#e6e0cf" transform="rotate(3 240.8 149.2)"/><ellipse cx="222.6" cy="246.1" rx="4" ry="2" fill="#e6e0cf" transform="rotate(21 222.6 246.1)"/><circle cx="250.8" cy="208.1" r="18.2" fill="#ef8354"/><circle cx="224.9" cy="210.5" r="18.2" fill="#e87b7b"/><circle cx="230.9" cy="187.1" r="18.2" fill="#7fb069"/><circle cx="396.04104077629745" cy="206.20880789868534" r="70" fill="#000" opacity="0.35"/><circle cx="396.04104077629745" cy="200.20880789868534" r="70" fill="#f5f2e8"/><circle cx="396.04104077629745" cy="200.20880789868534" r="60.199999999999996" fill="#f5f2e8"/><ellipse cx="428.1" cy="236.5" rx="4" ry="2" fill="#e6e0cf" transform="rotate(173 428.1 236.5)"/><ellipse cx="424.1" cy="236.7" rx="4" ry="2" fill="#e6e0cf" transform="rotate(178 424.1 236.7)"/><ellipse cx="360.8" cy="243.7" rx="4" ry="2" fill="#e6e0cf" transform="rotate(102 360.8 243.7)"/><ellipse cx="347.1" cy="193.2" rx="4" ry="2" fill="#e6e0cf" transform="rotate(83 347.1 193.2)"/><ellipse cx="346.3" cy="228.1" rx="4" ry="2" fill="#e6e0cf" transform="rotate(116 346.3 228.1)"/><ellipse cx="382.5" cy="251.2" rx="4" ry="2" fill="#e6e0cf" transform="rotate(85 382.5 251.2)"/><ellipse cx="435.2" cy="170.4" rx="4" ry="2" fill="#e6e0cf" transform="rotate(17 435.2 170.4)"/><ellipse cx="348.1" cy="180.8" rx="4" ry="2" fill="#e6e0cf" transform="rotate(179 348.1 180.8)"/><ellipse cx="443.4" cy="223.0" rx="4" ry="2" fill="#e6e0cf" transform="rotate(32 443.4 223.0)"/><ellipse cx="393.9" cy="253.5" rx="4" ry="2" fill="#e6e0cf" transform="rotate(14 393.9 253.5)"/><circle cx="410.0" cy="206.7" r="18.2" fill="#ef8354"/><circle cx="385.9" cy="211.8" r="18.2" fill="#e87b7b"/><circle cx="391.0" cy="185.6" r="18.2" fill="#7fb069"/><circle cx="562.3664135131985" cy="208.43941037915647" r="70" fill="#000" opacity="0.35"/><circle cx="562.3664135131985" cy="202.43941037915647" r="70" fill="#f5f2e8"/><circle cx="562.3664135131985" cy="202.43941037915647" r="60.199999999999996" fill="#f5f2e8"/><ellipse cx="595.8" cy="232.0" rx="4" ry="2" fill="#e6e0cf" transform="rotate(172 595.8 232.0)"/><ellipse cx="572.3" cy="253.5" rx="4" ry="2" fill="#e6e0cf" transform="rotate(109 572.3 253.5)"/><ellipse cx="509.1" cy="185.0" rx="4" ry="2" fill="#e6e0cf" transform="rotate(10 509.1 185.0)"/><ellipse cx="611.8" cy="204.0" rx="4" ry="2" fill="#e6e0cf" transform="rotate(8 611.8 204.0)"/><ellipse cx="507.7" cy="195.1" rx="4" ry="2" fill="#e6e0cf" transform="rotate(8 507.7 195.1)"/><ellipse cx="610.3" cy="172.3" rx="4" ry="2" fill="#e6e0cf" transform="rotate(71 610.3 172.3)"/><ellipse cx="566.9" cy="254.6" rx="4" ry="2" fill="#e6e0cf" transform="rotate(113 566.9 254.6)"/><ellipse cx="515.5" cy="194.2" rx="4" ry="2" fill="#e6e0cf" transform="rotate(118 515.5 194.2)"/><ellipse cx="618.6" cy="201.8" rx="4" ry="2" fill="#e6e0cf" transform="rotate(135 618.6 201.8)"/><ellipse cx="608.8" cy="211.1" rx="4" ry="2" fill="#e6e0cf" transform="rotate(22 608.8 211.1)"/><circle cx="577.4" cy="205.7" r="18.2" fill="#ef8354"/><circle cx="549.4" cy="210.7" r="18.2" fill="#e87b7b"/><circle cx="556.4" cy="188.3" r="18.2" fill="#7fb069"/><circle cx="240.40855113603175" cy="365.25530952587724" r="70" fill="#000" opacity="0.35"/><circle cx="240.40855113603175" cy="359.25530952587724" r="70" fill="#f5f2e8"/><circle cx="240.40855113603175" cy="359.25530952587724" r="60.199999999999996" fill="#f5f2e8"/><ellipse cx="205.1" cy="387.0" rx="4" ry="2" fill="#e6e0cf" transform="rotate(95 205.1 387.0)"/><ellipse cx="227.2" cy="316.0" rx="4" ry="2" fill="#e6e0cf" transform="rotate(25 227.2 316.0)"/><ellipse cx="296.6" cy="367.6" rx="4" ry="2" fill="#e6e0cf" transform="rotate(87 296.6 367.6)"/><ellipse cx="260.7" cy="314.6" rx="4" ry="2" fill="#e6e0cf" transform="rotate(5 260.7 314.6)"/><ellipse cx="279.0" cy="393.2" rx="4" ry="2" fill="#e6e0cf" transform="rotate(76 279.0 393.2)"/><ellipse cx="269.2" cy="323.8" rx="4" ry="2" fill="#e6e0cf" transform="rotate(149 269.2 323.8)"/><ellipse cx="229.9" cy="309.1" rx="4" ry="2" fill="#e6e0cf" transform="rotate(98 229.9 309.1)"/><ellipse cx="216.5" cy="404.9" rx="4" ry="2" fill="#e6e0cf" transform="rotate(91 216.5 404.9)"/><ellipse cx="202.8" cy="317.9" rx="4" ry="2" fill="#e6e0cf" transform="rotate(90 202.8 317.9)"/><ellipse cx="272.7" cy="317.0" rx="4" ry="2" fill="#e6e0cf" transform="rotate(119 272.7 317.0)"/><circle cx="254.2" cy="366.1" r="18.2" fill="#ef8354"/><circle cx="229.4" cy="370.1" r="18.2" fill="#e87b7b"/><circle cx="235.9" cy="344.5" r="18.2" fill="#7fb069"/><circle cx="403.40156298689544" cy="366.8773947581649" r="70" fill="#000" opacity="0.35"/><circle cx="403.40156298689544" cy="360.8773947581649" r="70" fill="#f5f2e8"/><circle cx="403.40156298689544" cy="360.8773947581649" r="60.199999999999996" fill="#f5f2e8"/><ellipse cx="438.7" cy="331.4" rx="4" ry="2" fill="#e6e0cf" transform="rotate(37 438.7 331.4)"/><ellipse cx="409.3" cy="315.9" rx="4" ry="2" fill="#e6e0cf" transform="rotate(145 409.3 315.9)"/><ellipse cx="356.6" cy="372.5" rx="4" ry="2" fill="#e6e0cf" transform="rotate(52 356.6 372.5)"/><ellipse cx="416.0" cy="408.0" rx="4" ry="2" fill="#e6e0cf" transform="rotate(28 416.0 408.0)"/><ellipse cx="422.3" cy="321.5" rx="4" ry="2" fill="#e6e0cf" transform="rotate(45 422.3 321.5)"/><ellipse cx="427.7" cy="410.4" rx="4" ry="2" fill="#e6e0cf" transform="rotate(3 427.7 410.4)"/><ellipse cx="359.0" cy="332.7" rx="4" ry="2" fill="#e6e0cf" transform="rotate(125 359.0 332.7)"/><ellipse cx="372.4" cy="391.4" rx="4" ry="2" fill="#e6e0cf" transform="rotate(73 372.4 391.4)"/><ellipse cx="411.0" cy="317.8" rx="4" ry="2" fill="#e6e0cf" transform="rotate(113 411.0 317.8)"/><ellipse cx="356.4" cy="390.9" rx="4" ry="2" fill="#e6e0cf" transform="rotate(141 356.4 390.9)"/><circle cx="417.1" cy="367.9" r="18.2" fill="#ef8354"/><circle cx="393.1" cy="372.4" r="18.2" fill="#e87b7b"/><circle cx="400.8" cy="345.7" r="18.2" fill="#7fb069"/><circle cx="558.1048260480165" cy="367.9882247131318" r="70" fill="#000" opacity="0.35"/><circle cx="558.1048260480165" cy="361.9882247131318" r="70" fill="#f5f2e8"/><circle cx="558.1048260480165" cy="361.9882247131318" r="60.199999999999996" fill="#f5f2e8"/><ellipse cx="506.9" cy="381.8" rx="4" ry="2" fill="#e6e0cf" transform="rotate(132 506.9 381.8)"/><ellipse cx="541.0" cy="415.8" rx="4" ry="2" fill="#e6e0cf" transform="rotate(123 541.0 415.8)"/><ellipse cx="602.3" cy="360.3" rx="4" ry="2" fill="#e6e0cf" transform="rotate(117 602.3 360.3)"/><ellipse cx="529.6" cy="320.0" rx="4" ry="2" fill="#e6e0cf" transform="rotate(79 529.6 320.0)"/><ellipse cx="600.6" cy="323.8" rx="4" ry="2" fill="#e6e0cf" transform="rotate(14 600.6 323.8)"/><ellipse cx="516.5" cy="394.8" rx="4" ry="2" fill="#e6e0cf" transform="rotate(5 516.5 394.8)"/><ellipse cx="524.5" cy="316.5" rx="4" ry="2" fill="#e6e0cf" transform="rotate(161 524.5 316.5)"/><ellipse cx="600.3" cy="389.3" rx="4" ry="2" fill="#e6e0cf" transform="rotate(76 600.3 389.3)"/><ellipse cx="595.9" cy="329.3" rx="4" ry="2" fill="#e6e0cf" transform="rotate(172 595.9 329.3)"/><ellipse cx="521.0" cy="333.5" rx="4" ry="2" fill="#e6e0cf" transform="rotate(16 521.0 333.5)"/><circle cx="573.5" cy="362.4" r="18.2" fill="#ef8354"/><circle cx="547.9" cy="373.5" r="18.2" fill="#e87b7b"/><circle cx="551.2" cy="348.2" r="18.2" fill="#7fb069"/></svg>