<svg xmlns="http://www.w3.org/2000/svg" viewBox="0 0 800 600"><defs><radialGradient id="bg-tempura-set" cx="50%" cy="35%" r="80%"><stop offset="0%" stop-color="#ffffff"/><stop offset="100%" stop-color="#efeff2"/></radialGradient></defs><rect width="800" height="600" fill="url(#bg-tempura-set)"/><circle cx="180.3955940399319" cy="140.90714677982032" r="62.5" fill="#000" opacity="0.1"/><circle cx="180.3955940399319" cy="134.90714677982032" r="62.5" fill="#f5f2e8" stroke="#e0d9c2" stroke-width="2"/><circle cx="180.3955940399319" cy="134.90714677982032" r="53.75" fill="#f5f2e8"/><ellipse cx="152.1" cy="170.8" rx="4" ry="2" fill="#e6e0cf" transform="rotate(143 152.1 170.8)"/><ellipse cx="200.2" cy="92.9" rx="4" ry="2" fill="#e6e0cf" transform="rotate(30 200.2 92.9)"/><ellipse cx="162.2" cy="174.5" rx="4" ry="2" fill="#e6e0cf" transform="rotate(95 162.2 174.5)"/><ellipse cx="197.8" cy="178.9" rx="4" ry="2" fill="#e6e0cf" transform="rotate(37 197.8 178.9)"/><ellipse cx="221.0" cy="107.9" rx="4" ry="2" fill="#e6e0cf" transform="rotate(42 221.0 107.9)"/><ellipse cx="210.4" cy="159.8" rx="4" ry="2" fill="#e6e0cf" transform="rotate(2 210.4 159.8)"/><ellipse cx="197.4" cy="174.2" rx="4" ry="2" fill="#e6e0cf" transform="rotate(53 197.4 174.2)"/><ellipse cx="135.7" cy="113.9" rx="4" ry="2" fill="#e6e0cf" transform="rotate(121 135.7 113.9)"/><ellipse cx="186.5" cy="179.1" rx="4" ry="2" fill="#e6e0cf" transform="rotate(60 186.5 179.1)"/><ellipse cx="167.8" cy="97.4" rx="4" ry="2" fill="#e6e0cf" transform="rotate(146 167.8 97.4)"/><circle cx="180.4" cy="134.9" r="25.0" fill="#8a5a3b"/><circle cx="328.3324169833213" cy="139.27450181171298" r="62.5" fill="#000" opacity="0.1"/><circle cx="328.3324169833213" cy="133.27450181171298" r="62.5" fill="#f5f2e8" stroke="#e0d9c2" stroke-width="2"/><circle cx="328.3324169833213" cy="133.27450181171298" r="53.75" fill="#f5f2e8"/><ellipse cx="369.0" cy="150.7" rx="4" ry="2" fill="#e6e0cf" transform="rotate(86 369.0 150.7)"/><ellipse cx="377.1" cy="128.2" rx="4" ry="2" fill="#e6e0cf" transform="rotate(147 377.1 128.2)"/><ellipse cx="367.9" cy="132.3" rx="4" ry="2" fill="#e6e0cf" transform="rotate(150 367.9 132.3)"/><ellipse cx="285.3" cy="152.0" rx="4" ry="2" fill="#e6e0cf" transform="rotate(138 285.3 152.0)"/><ellipse cx="367.9" cy="152.8" rx="4" ry="2" fill="#e6e0cf" transform="rotate(57 367.9 152.8)"/><ellipse cx="322.5" cy="91.0" rx="4" ry="2" fill="#e6e0cf" transform="rotate(112 322.5 91.0)"/><ellipse cx="328.0" cy="85.6" rx="4" ry="2" fill="#e6e0cf" transform="rotate(148 328.0 85.6)"/><ellipse cx="295.1" cy="160.2" rx="4" ry="2" fill="#e6e0cf" transform="rotate(7 295.1 160.2)"/><ellipse cx="333.4" cy="177.7" rx="4" ry="2" fill="#e6e0cf" transform="rotate(120 333.4 177.7)"/><ellipse cx="366.7" cy="140.9" rx="4" ry="2" fill="#e6e0cf" transform="rotate(54 366.7 140.9)"/><circle cx="328.3" cy="133.3" r="25.0" fill="#8a5a3b"/><circle cx="474.5523333735764" cy="145.0051987953484" r="62.5" fill="#000" opacity="0.1"/><circle cx="474.5523333735764" cy="139.0051987953484" r="62.5" fill="#f5f2e8" stroke="#e0d9c2" stroke-width="2"/><circle cx="474.5523333735764" cy="139.0051987953484" r="53.75" fill="#f5f2e8"/><ellipse cx="517.3" cy="113.3" rx="4" ry="2" fill="#e6e0cf" transform="rotate(21 517.3 113.3)"/><ellipse cx="434.1" cy="123.7" rx="4" ry="2" fill="#e6e0cf" transform="rotate(16 434.1 123.7)"/><ellipse cx="514.2" cy="128.3" rx="4" ry="2" fill="#e6e0cf" transform="rotate(99 514.2 128.3)"/><ellipse cx="447.4" cy="100.7" rx="4" ry="2" fill="#e6e0cf" transform="rotate(131 447.4 100.7)"/><ellipse cx="437.5" cy="124.0" rx="4" ry="2" fill="#e6e0cf" transform="rotate(78 437.5 124.0)"/><ellipse cx="434.7" cy="117.9" rx="4" ry="2" fill="#e6e0cf" transform="rotate(72 434.7 117.9)"/><ellipse cx="439.7" cy="162.4" rx="4" ry="2" fill="#e6e0cf" transform="rotate(95 439.7 162.4)"/><ellipse cx="428.9" cy="122.2" rx="4" ry="2" fill="#e6e0cf" transform="rotate(53 428.9 122.2)"/><ellipse cx="430.9" cy="118.1" rx="4" ry="2" fill="#e6e0cf" transform="rotate(111 430.9 118.1)"/><ellipse cx="464.0" cy="101.7" rx="4" ry="2" fill="#e6e0cf" transform="rotate(17 464.0 101.7)"/><circle cx="474.6" cy="139.0" r="25.0" fill="#8a5a3b"/><circle cx="619.5609186571091" cy="141.8031157143414" r="62.5" fill="#000" opacity="0.1"/><circle cx="619.5609186571091" cy="135.8031157143414" r="62.5" fill="#f5f2e8" stroke="#e0d9c2" stroke-width="2"/><circle cx="619.5609186571091" cy="135.8031157143414" r="53.75" fill="#f5f2e8"/><ellipse cx="584.0" cy="117.0" rx="4" ry="2" fill="#e6e0cf" transform="rotate(85 584.0 117.0)"/><ellipse cx="624.5" cy="87.9" rx="4" ry="2" fill="#e6e0cf" transform="rotate(22 624.5 87.9)"/><ellipse cx="576.6" cy="118.2" rx="4" ry="2" fill="#e6e0cf" transform="rotate(23 576.6 118.2)"/><ellipse cx="622.8" cy="186.1" rx="4" ry="2" fill="#e6e0cf" transform="rotate(128 622.8 186.1)"/><ellipse cx="607.5" cy="88.1" rx="4" ry="2" fill="#e6e0cf" transform="rotate(135 607.5 88.1)"/><ellipse cx="580.0" cy="122.7" rx="4" ry="2" fill="#e6e0cf" transform="rotate(47 580.0 122.7)"/><ellipse cx="654.5" cy="152.7" rx="4" ry="2" fill="#e6e0cf" transform="rotate(26 654.5 152.7)"/><ellipse cx="630.8" cy="90.0" rx="4" ry="2" fill="#e6e0cf" transform="rotate(87 630.8 90.0)"/><ellipse cx="658.8" cy="111.3" rx="4" ry="2" fill="#e6e0cf" transform="rotate(118 658.8 111.3)"/><ellipse cx="601.0" cy="174.3" rx="4" ry="2" fill="#e6e0cf" transform="rotate(19 601.0 174.3)"/><circle cx="619.6" cy="135.8" r="25.0" fill="#8a5a3b"/><circle cx="183.13083309307694" cy="283.88095467723906" r="62.5" fill="#000" opacity="0.1"/><circle cx="183.13083309307694" cy="277.88095467723906" r="62.5" fill="#f5f2e8" stroke="#e0d9c2" stroke-width="2"/><circle cx="183.13083309307694" cy="277.88095467723906" r="53.75" fill="#f5f2e8"/><ellipse cx="156.3" cy="239.1" rx="4" ry="2" fill="#e6e0cf" transform="rotate(163 156.3 239.1)"/><ellipse cx="139.7" cy="281.6" rx="4" ry="2" fill="#e6e0cf" transform="rotate(62 139.7 281.6)"/><ellipse cx="178.1" cy="238.7" rx="4" ry="2" fill="#e6e0cf" transform="rotate(167 178.1 238.7)"/><ellipse cx="213.3" cy="245.9" rx="4" ry="2" fill="#e6e0cf" transform="rotate(133 213.3 245.9)"/><ellipse cx="135.7" cy="260.7" rx="4" ry="2" fill="#e6e0cf" transform="rotate(57 135.7 260.7)"/><ellipse cx="161.0" cy="317.6" rx="4" ry="2" fill="#e6e0cf" transform="rotate(77 161.0 317.6)"/><ellipse cx="177.6" cy="328.0" rx="4" ry="2" fill="#e6e0cf" transform="rotate(167 177.6 328.0)"/><ellipse cx="216.0" cy="300.0" rx="4" ry="2" fill="#e6e0cf" transform="rotate(150 216.0 300.0)"/><ellipse cx="226.1" cy="295.3" rx="4" ry="2" fill="#e6e0cf" transform="rotate(161 226.1 295.3)"/><ellipse cx="230.1" cy="263.9" rx="4" ry="2" fill="#e6e0cf" transform="rotate(86 230.1 263.9)"/><circle cx="183.1" cy="277.9" r="25.0" fill="#8a5a3b"/><circle cx="330.9257376380265" cy="288.85643718764186" r="62.5" fill="#000" opacity="0.1"/><circle cx="330.9257376380265" cy="282.85643718764186" r="62.5" fill="#f5f2e8" stroke="#e0d9c2" stroke-width="2"/><circle cx="330.9257376380265" cy="282.85643718764186" r="53.75" fill="#f5f2e8"/><ellipse cx="299.5" cy="254.9" rx="4" ry="2" fill="#e6e0cf" transform="rotate(17 299.5 254.9)"/><ellipse cx="288.3" cy="264.9" rx="4" ry="2" fill="#e6e0cf" transform="rotate(114 288.3 264.9)"/><ellipse cx="289.2" cy="294.6" rx="4" ry="2" fill="#e6e0cf" transform="rotate(117 289.2 294.6)"/><ellipse cx="305.9" cy="323.9" rx="4" ry="2" fill="#e6e0cf" transform="rotate(117 305.9 323.9)"/><ellipse cx="364.5" cy="251.9" rx="4" ry="2" fill="#e6e0cf" transform="rotate(106 364.5 251.9)"/><ellipse cx="336.6" cy="237.1" rx="4" ry="2" fill="#e6e0cf" transform="rotate(19 336.6 237.1)"/><ellipse cx="284.3" cy="275.4" rx="4" ry="2" fill="#e6e0cf" transform="rotate(146 284.3 275.4)"/><ellipse cx="361.2" cy="252.0" rx="4" ry="2" fill="#e6e0cf" transform="rotate(145 361.2 252.0)"/><ellipse cx="308.6" cy="248.1" rx="4" ry="2" fill="#e6e0cf" transform="rotate(40 308.6 248.1)"/><ellipse cx="292.1" cy="270.0" rx="4" ry="2" fill="#e6e0cf" transform="rotate(70 292.1 270.0)"/><circle cx="330.9" cy="282.9" r="25.0" fill="#8a5a3b"/><circle cx="474.2833104413003" cy="283.8305387441069" r="62.5" fill="#000" opacity="0.1"/><circle cx="474.2833104413003" cy="277.8305387441069" r="62.5" fill="#f5f2e8" stroke="#e0d9c2" stroke-width="2"/><circle cx="474.2833104413003" cy="277.8305387441069" r="53.75" fill="#f5f2e8"/><ellipse cx="495.3" cy="321.2" rx="4" ry="2" fill="#e6e0cf" transform="rotate(104 495.3 321.2)"/><ellipse cx="438.8" cy="299.3" rx="4" ry="2" fill="#e6e0cf" transform="rotate(38 438.8 299.3)"/><ellipse cx="505.4" cy="302.7" rx="4" ry="2" fill="#e6e0cf" transform="rotate(64 505.4 302.7)"/><ellipse cx="471.3" cy="317.9" rx="4" ry="2" fill="#e6e0cf" transform="rotate(35 471.3 317.9)"/><ellipse cx="473.8" cy="238.2" rx="4" ry="2" fill="#e6e0cf" transform="rotate(93 473.8 238.2)"/><ellipse cx="441.1" cy="305.8" rx="4" ry="2" fill="#e6e0cf" transform="rotate(67 441.1 305.8)"/><ellipse cx="510.9" cy="249.5" rx="4" ry="2" fill="#e6e0cf" transform="rotate(127 510.9 249.5)"/><ellipse cx="485.1" cy="234.7" rx="4" ry="2" fill="#e6e0cf" transform="rotate(91 485.1 234.7)"/><ellipse cx="439.6" cy="242.6" rx="4" ry="2" fill="#e6e0cf" transform="rotate(21 439.6 242.6)"/><ellipse cx="477.0" cy="231.9" rx="4" ry="2" fill="#e6e0cf" transform="rotate(137 477.0 231.9)"/><circle cx="474.3" cy="277.8" r="25.0" fill="#8a5a3b"/><circle cx="618.9774698894471" cy="285.5228587631136" r="62.5" fill="#000" opacity="0.1"/><circle cx="618.9774698894471" cy="279.5228587631136" r="62.5" fill="#f5f2e8" stroke="#e0d9c2" stroke-width="2"/><circle cx="618.9774698894471" cy="279.5228587631136" r="53.75" fill="#f5f2e8"/><ellipse cx="597.5" cy="312.4" rx="4" ry="2" fill="#e6e0cf" transform="rotate(62 597.5 312.4)"/><ellipse cx="586.0" cy="311.3" rx="4" ry="2" fill="#e6e0cf" transform="rotate(9 586.0 311.3)"/><ellipse cx="583.6" cy="243.6" rx="4" ry="2" fill="#e6e0cf" transform="rotate(18 583.6 243.6)"/><ellipse cx="652.6" cy="259.5" rx="4" ry="2" fill="#e6e0cf" transform="rotate(25 652.6 259.5)"/><ellipse cx="581.4" cy="290.0" rx="4" ry="2" fill="#e6e0cf" transform="rotate(51 581.4 290.0)"/><ellipse cx="581.6" cy="268.2" rx="4" ry="2" fill="#e6e0cf" transform="rotate(148 581.6 268.2)"/><ellipse cx="587.6" cy="239.9" rx="4" ry="2" fill="#e6e0cf" transform="rotate(22 587.6 239.9)"/><ellipse cx="582.2" cy="247.2" rx="4" ry="2" fill="#e6e0cf" transform="rotate(113 582.2 247.2)"/><ellipse cx="583.5" cy="314.9" rx="4" ry="2" fill="#e6e0cf" transform="rotate(142 583.5 314.9)"/><ellipse cx="663.6" cy="289.2" rx="4" ry="2" fill="#e6e0cf" transform="rotate(119 663.6 289.2)"/><circle cx="619.0" cy="279.5" r="25.0" fill="#8a5a3b"/><circle cx="182.4234538115561" cy="427.33302005566657" r="62.5" fill="#000" opacity="0.1"/><circle cx="182.4234538115561" cy="421.33302005566657" r="62.5" fill="#f5f2e8" stroke="#e0d9c2" stroke-width="2"/><circle cx="182.4234538115561" cy="421.33302005566657" r="53.75" fill="#f5f2e8"/><ellipse cx="223.0" cy="429.3" rx="4" ry="2" fill="#e6e0cf" transform="rotate(105 223.0 429.3)"/><ellipse cx="146.6" cy="447.8" rx="4" ry="2" fill="#e6e0cf" transform="rotate(65 146.6 447.8)"/><ellipse cx="224.6" cy="399.6" rx="4" ry="2" fill="#e6e0cf" transform="rotate(86 224.6 399.6)"/><ellipse cx="196.1" cy="382.1" rx="4" ry="2" fill="#e6e0cf" transform="rotate(121 196.1 382.1)"/><ellipse cx="169.8" cy="375.3" rx="4" ry="2" fill="#e6e0cf" transform="rotate(30 169.8 375.3)"/><ellipse cx="141.6" cy="425.0" rx="4" ry="2" fill="#e6e0cf" transform="rotate(105 141.6 425.0)"/><ellipse cx="140.9" cy="444.1" rx="4" ry="2" fill="#e6e0cf" transform="rotate(116 140.9 444.1)"/><ellipse cx="153.8" cy="456.0" rx="4" ry="2" fill="#e6e0cf" transform="rotate(137 153.8 456.0)"/><ellipse cx="154.1" cy="456.8" rx="4" ry="2" fill="#e6e0cf" transform="rotate(75 154.1 456.8)"/><ellipse cx="156.6" cy="391.2" rx="4" ry="2" fill="#e6e0cf" transform="rotate(72 156.6 391.2)"/><circle cx="182.4" cy="421.3" r="25.0" fill="#8a5a3b"/><circle cx="327.5386598519981" cy="430.6752960663289" r="62.5" fill="#000" opacity="0.1"/><circle cx="327.5386598519981" cy="424.6752960663289" r="62.5" fill="#f5f2e8" stroke="#e0d9c2" stroke-width="2"/><circle cx="327.5386598519981" cy="424.6752960663289" r="53.75" fill="#f5f2e8"/><ellipse cx="281.7" cy="435.6" rx="4" ry="2" fill="#e6e0cf" transform="rotate(142 281.7 435.6)"/><ellipse cx="359.5" cy="447.3" rx="4" ry="2" fill="#e6e0cf" transform="rotate(5 359.5 447.3)"/><ellipse cx="370.6" cy="422.2" rx="4" ry="2" fill="#e6e0cf" transform="rotate(88 370.6 422.2)"/><ellipse cx="328.2" cy="374.2" rx="4" ry="2" fill="#e6e0cf" transform="rotate(61 328.2 374.2)"/><ellipse cx="290.0" cy="403.9" rx="4" ry="2" fill="#e6e0cf" transform="rotate(3 290.0 403.9)"/><ellipse cx="290.7" cy="410.5" rx="4" ry="2" fill="#e6e0cf" transform="rotate(99 290.7 410.5)"/><ellipse cx="299.3" cy="384.6" rx="4" ry="2" fill="#e6e0cf" transform="rotate(146 299.3 384.6)"/><ellipse cx="358.5" cy="386.6" rx="4" ry="2" fill="#e6e0cf" transform="rotate(12 358.5 386.6)"/><ellipse cx="367.7" cy="453.2" rx="4" ry="2" fill="#e6e0cf" transform="rotate(102 367.7 453.2)"/><ellipse cx="283.8" cy="415.3" rx="4" ry="2" fill="#e6e0cf" transform="rotate(42 283.8 415.3)"/><circle cx="327.5" cy="424.7" r="25.0" fill="#8a5a3b"/><circle cx="474.1252016108483" cy="426.96736210398376" r="62.5" fill="#000" opacity="0.1"/><circle cx="474.1252016108483" cy="420.96736210398376" r="62.5" fill="#f5f2e8" stroke="#e0d9c2" stroke-width="2"/><circle cx="474.1252016108483" cy="420.96736210398376" r="53.75" fill="#f5f2e8"/><ellipse cx="521.4" cy="429.5" rx="4" ry="2" fill="#e6e0cf" transform="rotate(155 521.4 429.5)"/><ellipse cx="435.1" cy="418.5" rx="4" ry="2" fill="#e6e0cf" transform="rotate(100 435.1 418.5)"/><ellipse cx="469.4" cy="372.8" rx="4" ry="2" fill="#e6e0cf" transform="rotate(46 469.4 372.8)"/><ellipse cx="452.8" cy="454.0" rx="4" ry="2" fill="#e6e0cf" transform="rotate(141 452.8 454.0)"/><ellipse cx="508.2" cy="395.0" rx="4" ry="2" fill="#e6e0cf" transform="rotate(116 508.2 395.0)"/><ellipse cx="519.8" cy="442.4" rx="4" ry="2" fill="#e6e0cf" transform="rotate(49 519.8 442.4)"/><ellipse cx="481.0" cy="470.9" rx="4" ry="2" fill="#e6e0cf" transform="rotate(68 481.0 470.9)"/><ellipse cx="433.4" cy="417.6" rx="4" ry="2" fill="#e6e0cf" transform="rotate(69 433.4 417.6)"/><ellipse cx="472.8" cy="377.4" rx="4" ry="2" fill="#e6e0cf" transform="rotate(17 472.8 377.4)"/><ellipse cx="452.9" cy="454.0" rx="4" ry="2" fill="#e6e0cf" transform="rotate(29 452.9 454.0)"/><circle cx="474.1" cy="421.0" r="25.0" fill="#8a5a3b"/><circle cx="614.0807620566338" cy="429.62615234963596" r="62.5" fill="#000" opacity="0.1"/><circle cx="614.0807620566338" cy="423.62615234963596" r="62.5" fill="#f5f2e8" stroke="#e0d9c2" stroke-width="2"/><circle cx="614.0807620566338" cy="423.62615234963596" r="53.75" fill="#f5f2e8"/><ellipse cx="640.4" cy="460.5" rx="4" ry="2" fill="#e6e0cf" transform="rotate(134 640.4 460.5)"/><ellipse cx="647.8" cy="398.4" rx="4" ry="2" fill="#e6e0cf" transform="rotate(31 647.8 398.4)"/><ellipse cx="566.3" cy="435.5" rx="4" ry="2" fill="#e6e0cf" transform="rotate(177 566.3 435.5)"/><ellipse cx="563.6" cy="424.7" rx="4" ry="2" fill="#e6e0cf" transform="rotate(80 563.6 424.7)"/><ellipse cx="579.1" cy="447.2" rx="4" ry="2" fill="#e6e0cf" transform="rotate(129 579.1 447.2)"/><ellipse cx="619.5" cy="469.6" rx="4" ry="2" fill="#e6e0cf" transform="rotate(121 619.5 469.6)"/><ellipse cx="661.7" cy="431.5" rx="4" ry="2" fill="#e6e0cf" transform="rotate(90 661.7 431.5)"/><ellipse cx="608.8" cy="464.7" rx="4" ry="2" fill="#e6e0cf" transform="rotate(81 608.8 464.7)"/><ellipse cx="568.9" cy="419.7" rx="4" ry="2" fill="#e6e0cf" transform="rotate(49 568.9 419.7)"/><ellipse cx="565.3" cy="433.5" rx="4" ry="2" fill="#e6e0cf" transform="rotate(74 565.3 433.5)"/><circle cx="614.1" cy="423.6" r="25.0" fill="#8a5a3b"/></svg>