<svg xmlns="http://www.w3.org/2000/svg" viewBox="0 0 800 600"><defs><radialGradient id="bg-tokio" cx="50%" cy="35%" r="80%"><stop offset="0%" stop-color="#ffffff"/><stop offset="100%" stop-color="#efeff2"/></radialGradient></defs><rect width="800" height="600" fill="url(#bg-tokio)"/><circle cx="239.6106764320284" cy="208.7634597159922" r="70" fill="#000" opacity="0.1"/><circle cx="239.6106764320284" cy="202.7634597159922" r="70" fill="#f5f2e8" stroke="#e0d9c2" stroke-width="2"/><circle cx="239.6106764320284" cy="202.7634597159922" r="60.199999999999996" fill="#f5f2e8"/><ellipse cx="200.8" cy="161.4" rx="4" ry="2" fill="#e6e0cf" transform="rotate(11 200.8 161.4)"/><ellipse cx="229.5" cy="154.5" rx="4" ry="2" fill="#e6e0cf" transform="rotate(26 229.5 154.5)"/><ellipse cx="266.8" cy="166.3" rx="4" ry="2" fill="#e6e0cf" transform="rotate(121 266.8 166.3)"/><ellipse cx="191.7" cy="198.3" rx="4" ry="2" fill="#e6e0cf" transform="rotate(168 191.7 198.3)"/><ellipse cx="255.5" cy="156.3" rx="4" ry="2" fill="#e6e0cf" transform="rotate(33 255.5 156.3)"/><ellipse cx="264.5" cy="157.0" rx="4" ry="2" fill="#e6e0cf" transform="rotate(7 264.5 157.0)"/><ellipse cx="253.4" cy="160.7" rx="4" ry="2" fill="#e6e0cf" transform="rotate(48 253.4 160.7)"/><ellipse cx="290.6" cy="221.8" rx="4" ry="2" fill="#e6e0cf" transform="rotate(49 290.6 221.8)"/><ellipse cx="288.2" cy="202.3" rx="4" ry="2" fill="#e6e0cf" transform="rotate(40 288.2 202.3)"/><ellipse cx="266.0" cy="152.8" rx="4" ry="2" fill="#e6e0cf" transform="rotate(57 266.0 152.8)"/><circle cx="254.6" cy="206.2" r="18.2" fill="#ef8354"/><circle cx="227.3" cy="212.0" r="18.2" fill="#e87b7b"/><circle cx="238.6" cy="187.4" r="18.2" fill="#7fb069"/><circle cx="398.8831480909139" cy="205.4808744583279" r="70" fill="#000" opacity="0.1"/><circle cx="398.8831480909139" cy="199.4808744583279" r="70" fill="#f5f2e8" stroke="#e0d9c2" stroke-width="2"/><circle cx="398.8831480909139" cy="199.4808744583279" r="60.199999999999996" fill="#f5f2e8"/><ellipse cx="425.6" cy="239.9" rx="4" ry="2" fill="#e6e0cf" transform="rotate(179 425.6 239.9)"/><ellipse cx="394.7" cy="246.9" rx="4" ry="2" fill="#e6e0cf" transform="rotate(50 394.7 246.9)"/><ellipse cx="422.9" cy="238.7" rx="4" ry="2" fill="#e6e0cf" transform="rotate(114 422.9 238.7)"/><ellipse cx="395.1" cy="252.2" rx="4" ry="2" fill="#e6e0cf" transform="rotate(108 395.1 252.2)"/><ellipse cx="455.6" cy="207.0" rx="4" ry="2" fill="#e6e0cf" transform="rotate(6 455.6 207.0)"/><ellipse cx="359.7" cy="159.9" rx="4" ry="2" fill="#e6e0cf" transform="rotate(25 359.7 159.9)"/><ellipse cx="410.5" cy="148.0" rx="4" ry="2" fill="#e6e0cf" transform="rotate(1 410.5 148.0)"/><ellipse cx="390.1" cy="246.2" rx="4" ry="2" fill="#e6e0cf" transform="rotate(87 390.1 246.2)"/><ellipse cx="454.7" cy="188.6" rx="4" ry="2" fill="#e6e0cf" transform="rotate(84 454.7 188.6)"/><ellipse cx="357.3" cy="220.9" rx="4" ry="2" fill="#e6e0cf" transform="rotate(98 357.3 220.9)"/><circle cx="414.1" cy="202.1" r="18.2" fill="#ef8354"/><circle cx="386.8" cy="209.0" r="18.2" fill="#e87b7b"/><circle cx="393.2" cy="185.2" r="18.2" fill="#7fb069"/><circle cx="558.4875273033977" cy="201.82601208798587" r="70" fill="#000" opacity="0.1"/><circle cx="558.4875273033977" cy="195.82601208798587" r="70" fill="#f5f2e8" stroke="#e0d9c2" stroke-width="2"/><circle cx="558.4875273033977" cy="195.82601208798587" r="60.199999999999996" fill="#f5f2e8"/><ellipse cx="505.4" cy="202.0" rx="4" ry="2" fill="#e6e0cf" transform="rotate(43 505.4 202.0)"/><ellipse cx="577.3" cy="145.1" rx="4" ry="2" fill="#e6e0cf" transform="rotate(81 577.3 145.1)"/><ellipse cx="540.2" cy="141.4" rx="4" ry="2" fill="#e6e0cf" transform="rotate(8 540.2 141.4)"/><ellipse cx="539.6" cy="150.5" rx="4" ry="2" fill="#e6e0cf" transform="rotate(80 539.6 150.5)"/><ellipse cx="558.2" cy="251.4" rx="4" ry="2" fill="#e6e0cf" transform="rotate(154 558.2 251.4)"/><ellipse cx="508.3" cy="177.3" rx="4" ry="2" fill="#e6e0cf" transform="rotate(110 508.3 177.3)"/><ellipse cx="508.5" cy="182.0" rx="4" ry="2" fill="#e6e0cf" transform="rotate(17 508.5 182.0)"/><ellipse cx="578.0" cy="243.4" rx="4" ry="2" fill="#e6e0cf" transform="rotate(146 578.0 243.4)"/><ellipse cx="556.2" cy="150.8" rx="4" ry="2" fill="#e6e0cf" transform="rotate(131 556.2 150.8)"/><ellipse cx="578.2" cy="142.1" rx="4" ry="2" fill="#e6e0cf" transform="rotate(106 578.2 142.1)"/><circle cx="572.3" cy="202.7" r="18.2" fill="#ef8354"/><circle cx="546.0" cy="204.8" r="18.2" fill="#e87b7b"/><circle cx="552.3" cy="181.7" r="18.2" fill="#7fb069"/><circle cx="240.84904655441642" cy="362.6787876840681" r="70" fill="#000" opacity="0.1"/><circle cx="240.84904655441642" cy="356.6787876840681" r="70" fill="#f5f2e8" stroke="#e0d9c2" stroke-width="2"/><circle cx="240.84904655441642" cy="356.6787876840681" r="60.199999999999996" fill="#f5f2e8"/><ellipse cx="212.9" cy="312.2" rx="4" ry="2" fill="#e6e0cf" transform="rotate(61 212.9 312.2)"/><ellipse cx="204.5" cy="383.8" rx="4" ry="2" fill="#e6e0cf" transform="rotate(64 204.5 383.8)"/><ellipse cx="292.8" cy="370.5" rx="4" ry="2" fill="#e6e0cf" transform="rotate(80 292.8 370.5)"/><ellipse cx="280.7" cy="394.2" rx="4" ry="2" fill="#e6e0cf" transform="rotate(158 280.7 394.2)"/><ellipse cx="210.5" cy="317.2" rx="4" ry="2" fill="#e6e0cf" transform="rotate(87 210.5 317.2)"/><ellipse cx="204.1" cy="400.3" rx="4" ry="2" fill="#e6e0cf" transform="rotate(177 204.1 400.3)"/><ellipse cx="287.2" cy="335.8" rx="4" ry="2" fill="#e6e0cf" transform="rotate(62 287.2 335.8)"/><ellipse cx="282.0" cy="323.8" rx="4" ry="2" fill="#e6e0cf" transform="rotate(69 282.0 323.8)"/><ellipse cx="276.4" cy="392.1" rx="4" ry="2" fill="#e6e0cf" transform="rotate(13 276.4 392.1)"/><ellipse cx="194.4" cy="353.0" rx="4" ry="2" fill="#e6e0cf" transform="rotate(134 194.4 353.0)"/><circle cx="256.2" cy="358.3" r="18.2" fill="#ef8354"/><circle cx="230.5" cy="368.1" r="18.2" fill="#e87b7b"/><circle cx="238.0" cy="341.6" r="18.2" fill="#7fb069"/><circle cx="403.329841632396" cy="363.1712224986404" r="70" fill="#000" opacity="0.1"/><circle cx="403.329841632396" cy="357.1712224986404" r="70" fill="#f5f2e8" stroke="#e0d9c2" stroke-width="2"/><circle cx="403.329841632396" cy="357.1712224986404" r="60.199999999999996" fill="#f5f2e8"/><ellipse cx="355.9" cy="345.0" rx="4" ry="2" fill="#e6e0cf" transform="rotate(178 355.9 345.0)"/><ellipse cx="348.3" cy="371.9" rx="4" ry="2" fill="#e6e0cf" transform="rotate(102 348.3 371.9)"/><ellipse cx="446.7" cy="379.5" rx="4" ry="2" fill="#e6e0cf" transform="rotate(66 446.7 379.5)"/><ellipse cx="453.9" cy="360.5" rx="4" ry="2" fill="#e6e0cf" transform="rotate(6 453.9 360.5)"/><ellipse cx="418.6" cy="406.2" rx="4" ry="2" fill="#e6e0cf" transform="rotate(174 418.6 406.2)"/><ellipse cx="372.6" cy="392.3" rx="4" ry="2" fill="#e6e0cf" transform="rotate(39 372.6 392.3)"/><ellipse cx="375.0" cy="406.8" rx="4" ry="2" fill="#e6e0cf" transform="rotate(146 375.0 406.8)"/><ellipse cx="352.2" cy="343.0" rx="4" ry="2" fill="#e6e0cf" transform="rotate(68 352.2 343.0)"/><ellipse cx="383.2" cy="310.9" rx="4" ry="2" fill="#e6e0cf" transform="rotate(99 383.2 310.9)"/><ellipse cx="445.4" cy="326.4" rx="4" ry="2" fill="#e6e0cf" transform="rotate(44 445.4 326.4)"/><circle cx="417.3" cy="363.6" r="18.2" fill="#ef8354"/><circle cx="393.5" cy="369.1" r="18.2" fill="#e87b7b"/><circle cx="402.6" cy="341.8" r="18.2" fill="#7fb069"/><circle cx="564.8477619290352" cy="368.6623312998563" r="70" fill="#000" opacity="0.1"/><circle cx="564.8477619290352" cy="362.6623312998563" r="70" fill="#f5f2e8" stroke="#e0d9c2" stroke-width="2"/><circle cx="564.8477619290352" cy="362.6623312998563" r="60.199999999999996" fill="#f5f2e8"/><ellipse cx="609.7" cy="358.6" rx="4" ry="2" fill="#e6e0cf" transform="rotate(39 609.7 358.6)"/><ellipse cx="593.7" cy="399.9" rx="4" ry="2" fill="#e6e0cf" transform="rotate(51 593.7 399.9)"/><ellipse cx="574.6" cy="310.9" rx="4" ry="2" fill="#e6e0cf" transform="rotate(162 574.6 310.9)"/><ellipse cx="618.8" cy="368.0" rx="4" ry="2" fill="#e6e0cf" transform="rotate(154 618.8 368.0)"/><ellipse cx="604.6" cy="336.9" rx="4" ry="2" fill="#e6e0cf" transform="rotate(62 604.6 336.9)"/><ellipse cx="533.0" cy="323.6" rx="4" ry="2" fill="#e6e0cf" transform="rotate(57 533.0 323.6)"/><ellipse cx="589.0" cy="318.7" rx="4" ry="2" fill="#e6e0cf" transform="rotate(105 589.0 318.7)"/><ellipse cx="610.1" cy="359.6" rx="4" ry="2" fill="#e6e0cf" transform="rotate(34 610.1 359.6)"/><ellipse cx="620.5" cy="350.2" rx="4" ry="2" fill="#e6e0cf" transform="rotate(40 620.5 350.2)"/><ellipse cx="516.1" cy="377.5" rx="4" ry="2" fill="#e6e0cf" transform="rotate(129 516.1 377.5)"/><circle cx="579.3" cy="368.0" r="18.2" fill="#ef8354"/><circle cx="556.0" cy="375.3" r="18.2" fill="#e87b7b"/><circle cx="562.0" cy="347.5" r="18.2" fill="#7fb069"/></svg>