<svg xmlns="http://www.w3.org/2000/svg" viewBox="0 0 800 600"><defs><radialGradient id="bg-tokio-set" cx="50%" cy="35%" r="80%"><stop offset="0%" stop-color="#26262c"/><stop offset="100%" stop-color="#141417"/></radialGradient></defs><rect width="800" height="600" fill="url(#bg-tokio-set)"/><circle cx="184.1904498115182" cy="144.34046134911478" r="62.5" fill="#000" opacity="0.35"/><circle cx="184.1904498115182" cy="138.34046134911478" r="62.5" fill="#f5f2e8"/><circle cx="184.1904498115182" cy="138.34046134911478" r="53.75" fill="#f5f2e8"/><ellipse cx="220.7" cy="166.1" rx="4" ry="2" fill="#e6e0cf" transform="rotate(17 220.7 166.1)"/><ellipse cx="212.8" cy="177.3" rx="4" ry="2" fill="#e6e0cf" transform="rotate(22 212.8 177.3)"/><ellipse cx="205.3" cy="178.6" rx="4" ry="2" fill="#e6e0cf" transform="rotate(21 205.3 178.6)"/><ellipse cx="140.4" cy="145.2" rx="4" ry="2" fill="#e6e0cf" transform="rotate(141 140.4 145.2)"/><ellipse cx="215.9" cy="173.4" rx="4" ry="2" fill="#e6e0cf" transform="rotate(125 215.9 173.4)"/><ellipse cx="171.5" cy="185.4" rx="4" ry="2" fill="#e6e0cf" transform="rotate(1 171.5 185.4)"/><ellipse cx="146.7" cy="113.6" rx="4" ry="2" fill="#e6e0cf" transform="rotate(4 146.7 113.6)"/><ellipse cx="221.9" cy="171.7" rx="4" ry="2" fill="#e6e0cf" transform="rotate(82 221.9 171.7)"/><ellipse cx="197.2" cy="96.4" rx="4" ry="2" fill="#e6e0cf" transform="rotate(106 197.2 96.4)"/><ellipse cx="144.0" cy="155.1" rx="4" ry="2" fill="#e6e0cf" transform="rotate(126 144.0 155.1)"/><circle cx="196.8" cy="143.9" r="16.3" fill="#ef8354"/><circle cx="170.6" cy="136.0" r="16.3" fill="#f2a48e"/><circle cx="324.5758951231837" cy="141.30361930280924" r="62.5" fill="#000" opacity="0.35"/><circle cx="324.5758951231837" cy="135.30361930280924" r="62.5" fill="#f5f2e8"/><circle cx="324.5758951231837" cy="135.30361930280924" r="53.75" fill="#f5f2e8"/><ellipse cx="302.7" cy="89.4" rx="4" ry="2" fill="#e6e0cf" transform="rotate(51 302.7 89.4)"/><ellipse cx="326.3" cy="182.9" rx="4" ry="2" fill="#e6e0cf" transform="rotate(31 326.3 182.9)"/><ellipse cx="286.2" cy="153.8" rx="4" ry="2" fill="#e6e0cf" transform="rotate(166 286.2 153.8)"/><ellipse cx="289.4" cy="113.2" rx="4" ry="2" fill="#e6e0cf" transform="rotate(120 289.4 113.2)"/><ellipse cx="365.7" cy="158.0" rx="4" ry="2" fill="#e6e0cf" transform="rotate(131 365.7 158.0)"/><ellipse cx="361.9" cy="165.7" rx="4" ry="2" fill="#e6e0cf" transform="rotate(127 361.9 165.7)"/><ellipse cx="300.3" cy="178.7" rx="4" ry="2" fill="#e6e0cf" transform="rotate(175 300.3 178.7)"/><ellipse cx="368.0" cy="143.3" rx="4" ry="2" fill="#e6e0cf" transform="rotate(117 368.0 143.3)"/><ellipse cx="284.4" cy="147.1" rx="4" ry="2" fill="#e6e0cf" transform="rotate(16 284.4 147.1)"/><ellipse cx="363.0" cy="145.3" rx="4" ry="2" fill="#e6e0cf" transform="rotate(23 363.0 145.3)"/><circle cx="338.2" cy="136.8" r="16.3" fill="#ef8354"/><circle cx="311.3" cy="131.8" r="16.3" fill="#f2a48e"/><circle cx="470.27301950752735" cy="144.97839909046888" r="62.5" fill="#000" opacity="0.35"/><circle cx="470.27301950752735" cy="138.97839909046888" r="62.5" fill="#f5f2e8"/><circle cx="470.27301950752735" cy="138.97839909046888" r="53.75" fill="#f5f2e8"/><ellipse cx="498.1" cy="173.5" rx="4" ry="2" fill="#e6e0cf" transform="rotate(73 498.1 173.5)"/><ellipse cx="427.4" cy="162.1" rx="4" ry="2" fill="#e6e0cf" transform="rotate(40 427.4 162.1)"/><ellipse cx="501.3" cy="164.3" rx="4" ry="2" fill="#e6e0cf" transform="rotate(170 501.3 164.3)"/><ellipse cx="438.3" cy="105.6" rx="4" ry="2" fill="#e6e0cf" transform="rotate(65 438.3 105.6)"/><ellipse cx="452.3" cy="100.1" rx="4" ry="2" fill="#e6e0cf" transform="rotate(166 452.3 100.1)"/><ellipse cx="508.6" cy="108.1" rx="4" ry="2" fill="#e6e0cf" transform="rotate(172 508.6 108.1)"/><ellipse cx="517.3" cy="138.2" rx="4" ry="2" fill="#e6e0cf" transform="rotate(3 517.3 138.2)"/><ellipse cx="517.0" cy="133.7" rx="4" ry="2" fill="#e6e0cf" transform="rotate(94 517.0 133.7)"/><ellipse cx="517.4" cy="143.5" rx="4" ry="2" fill="#e6e0cf" transform="rotate(77 517.4 143.5)"/><ellipse cx="428.3" cy="110.6" rx="4" ry="2" fill="#e6e0cf" transform="rotate(61 428.3 110.6)"/><circle cx="483.7" cy="141.9" r="16.3" fill="#ef8354"/><circle cx="456.5" cy="138.9" r="16.3" fill="#f2a48e"/><circle cx="617.4137518666685" cy="144.84190045669675" r="62.5" fill="#000" opacity="0.35"/><circle cx="617.4137518666685" cy="138.84190045669675" r="62.5" fill="#f5f2e8"/><circle cx="617.4137518666685" cy="138.84190045669675" r="53.75" fill="#f5f2e8"/><ellipse cx="581.8" cy="118.8" rx="4" ry="2" fill="#e6e0cf" transform="rotate(103 581.8 118.8)"/><ellipse cx="636.8" cy="175.9" rx="4" ry="2" fill="#e6e0cf" transform="rotate(60 636.8 175.9)"/><ellipse cx="652.2" cy="114.9" rx="4" ry="2" fill="#e6e0cf" transform="rotate(72 652.2 114.9)"/><ellipse cx="630.1" cy="186.5" rx="4" ry="2" fill="#e6e0cf" transform="rotate(33 630.1 186.5)"/><ellipse cx="638.5" cy="92.5" rx="4" ry="2" fill="#e6e0cf" transform="rotate(92 638.5 92.5)"/><ellipse cx="648.4" cy="167.8" rx="4" ry="2" fill="#e6e0cf" transform="rotate(143 648.4 167.8)"/><ellipse cx="606.2" cy="100.3" rx="4" ry="2" fill="#e6e0cf" transform="rotate(46 606.2 100.3)"/><ellipse cx="661.8" cy="117.4" rx="4" ry="2" fill="#e6e0cf" transform="rotate(18 661.8 117.4)"/><ellipse cx="570.1" cy="131.4" rx="4" ry="2" fill="#e6e0cf" transform="rotate(90 570.1 131.4)"/><ellipse cx="647.3" cy="165.9" rx="4" ry="2" fill="#e6e0cf" transform="rotate(29 647.3 165.9)"/><circle cx="630.2" cy="143.9" r="16.3" fill="#ef8354"/><circle cx="605.0" cy="132.9" r="16.3" fill="#f2a48e"/><circle cx="183.2328277863562" cy="284.56925285980105" r="62.5" fill="#000" opacity="0.35"/><circle cx="183.2328277863562" cy="278.56925285980105" r="62.5" fill="#f5f2e8"/><circle cx="183.2328277863562" cy="278.56925285980105" r="53.75" fill="#f5f2e8"/><ellipse cx="152.0" cy="315.2" rx="4" ry="2" fill="#e6e0cf" transform="rotate(92 152.0 315.2)"/><ellipse cx="205.5" cy="233.1" rx="4" ry="2" fill="#e6e0cf" transform="rotate(80 205.5 233.1)"/><ellipse cx="148.0" cy="296.1" rx="4" ry="2" fill="#e6e0cf" transform="rotate(130 148.0 296.1)"/><ellipse cx="149.8" cy="312.1" rx="4" ry="2" fill="#e6e0cf" transform="rotate(116 149.8 312.1)"/><ellipse cx="207.2" cy="248.1" rx="4" ry="2" fill="#e6e0cf" transform="rotate(174 207.2 248.1)"/><ellipse cx="136.0" cy="281.6" rx="4" ry="2" fill="#e6e0cf" transform="rotate(147 136.0 281.6)"/><ellipse cx="212.7" cy="313.7" rx="4" ry="2" fill="#e6e0cf" transform="rotate(153 212.7 313.7)"/><ellipse cx="194.6" cy="233.1" rx="4" ry="2" fill="#e6e0cf" transform="rotate(178 194.6 233.1)"/><ellipse cx="199.1" cy="233.8" rx="4" ry="2" fill="#e6e0cf" transform="rotate(15 199.1 233.8)"/><ellipse cx="164.3" cy="237.6" rx="4" ry="2" fill="#e6e0cf" transform="rotate(95 164.3 237.6)"/><circle cx="196.6" cy="281.8" r="16.3" fill="#ef8354"/><circle cx="170.2" cy="274.2" r="16.3" fill="#f2a48e"/><circle cx="329.3476094081998" cy="284.74464442022145" r="62.5" fill="#000" opacity="0.35"/><circle cx="329.3476094081998" cy="278.74464442022145" r="62.5" fill="#f5f2e8"/><circle cx="329.3476094081998" cy="278.74464442022145" r="53.75" fill="#f5f2e8"/><ellipse cx="354.0" cy="311.0" rx="4" ry="2" fill="#e6e0cf" transform="rotate(155 354.0 311.0)"/><ellipse cx="308.8" cy="242.2" rx="4" ry="2" fill="#e6e0cf" transform="rotate(121 308.8 242.2)"/><ellipse cx="291.9" cy="259.7" rx="4" ry="2" fill="#e6e0cf" transform="rotate(130 291.9 259.7)"/><ellipse cx="368.9" cy="248.5" rx="4" ry="2" fill="#e6e0cf" transform="rotate(124 368.9 248.5)"/><ellipse cx="362.2" cy="248.5" rx="4" ry="2" fill="#e6e0cf" transform="rotate(6 362.2 248.5)"/><ellipse cx="299.2" cy="248.2" rx="4" ry="2" fill="#e6e0cf" transform="rotate(19 299.2 248.2)"/><ellipse cx="332.4" cy="239.8" rx="4" ry="2" fill="#e6e0cf" transform="rotate(14 332.4 239.8)"/><ellipse cx="353.3" cy="240.5" rx="4" ry="2" fill="#e6e0cf" transform="rotate(5 353.3 240.5)"/><ellipse cx="345.2" cy="317.3" rx="4" ry="2" fill="#e6e0cf" transform="rotate(47 345.2 317.3)"/><ellipse cx="343.4" cy="239.6" rx="4" ry="2" fill="#e6e0cf" transform="rotate(178 343.4 239.6)"/><circle cx="343.0" cy="280.3" r="16.3" fill="#ef8354"/><circle cx="317.1" cy="272.5" r="16.3" fill="#f2a48e"/><circle cx="471.21734697557986" cy="282.21297182329" r="62.5" fill="#000" opacity="0.35"/><circle cx="471.21734697557986" cy="276.21297182329" r="62.5" fill="#f5f2e8"/><circle cx="471.21734697557986" cy="276.21297182329" r="53.75" fill="#f5f2e8"/><ellipse cx="486.3" cy="229.5" rx="4" ry="2" fill="#e6e0cf" transform="rotate(143 486.3 229.5)"/><ellipse cx="479.5" cy="319.2" rx="4" ry="2" fill="#e6e0cf" transform="rotate(164 479.5 319.2)"/><ellipse cx="514.6" cy="288.9" rx="4" ry="2" fill="#e6e0cf" transform="rotate(45 514.6 288.9)"/><ellipse cx="509.3" cy="243.5" rx="4" ry="2" fill="#e6e0cf" transform="rotate(64 509.3 243.5)"/><ellipse cx="507.6" cy="294.2" rx="4" ry="2" fill="#e6e0cf" transform="rotate(25 507.6 294.2)"/><ellipse cx="470.2" cy="324.0" rx="4" ry="2" fill="#e6e0cf" transform="rotate(8 470.2 324.0)"/><ellipse cx="492.5" cy="243.1" rx="4" ry="2" fill="#e6e0cf" transform="rotate(18 492.5 243.1)"/><ellipse cx="514.2" cy="248.3" rx="4" ry="2" fill="#e6e0cf" transform="rotate(111 514.2 248.3)"/><ellipse cx="428.3" cy="300.5" rx="4" ry="2" fill="#e6e0cf" transform="rotate(54 428.3 300.5)"/><ellipse cx="471.8" cy="316.6" rx="4" ry="2" fill="#e6e0cf" transform="rotate(36 471.8 316.6)"/><circle cx="484.9" cy="277.1" r="16.3" fill="#ef8354"/><circle cx="457.5" cy="276.2" r="16.3" fill="#f2a48e"/><circle cx="614.3996947277337" cy="289.1488285344094" r="62.5" fill="#000" opacity="0.35"/><circle cx="614.3996947277337" cy="283.1488285344094" r="62.5" fill="#f5f2e8"/><circle cx="614.3996947277337" cy="283.1488285344094" r="53.75" fill="#f5f2e8"/><ellipse cx="617.9" cy="233.5" rx="4" ry="2" fill="#e6e0cf" transform="rotate(157 617.9 233.5)"/><ellipse cx="565.5" cy="282.1" rx="4" ry="2" fill="#e6e0cf" transform="rotate(119 565.5 282.1)"/><ellipse cx="627.8" cy="235.6" rx="4" ry="2" fill="#e6e0cf" transform="rotate(93 627.8 235.6)"/><ellipse cx="583.8" cy="252.0" rx="4" ry="2" fill="#e6e0cf" transform="rotate(124 583.8 252.0)"/><ellipse cx="576.4" cy="298.6" rx="4" ry="2" fill="#e6e0cf" transform="rotate(53 576.4 298.6)"/><ellipse cx="567.6" cy="291.1" rx="4" ry="2" fill="#e6e0cf" transform="rotate(130 567.6 291.1)"/><ellipse cx="612.3" cy="325.7" rx="4" ry="2" fill="#e6e0cf" transform="rotate(113 612.3 325.7)"/><ellipse cx="575.2" cy="253.0" rx="4" ry="2" fill="#e6e0cf" transform="rotate(179 575.2 253.0)"/><ellipse cx="652.8" cy="252.0" rx="4" ry="2" fill="#e6e0cf" transform="rotate(2 652.8 252.0)"/><ellipse cx="654.0" cy="302.0" rx="4" ry="2" fill="#e6e0cf" transform="rotate(113 654.0 302.0)"/><circle cx="627.5" cy="287.2" r="16.3" fill="#ef8354"/><circle cx="600.9" cy="280.7" r="16.3" fill="#f2a48e"/><circle cx="183.29785636253655" cy="430.8283256776631" r="62.5" fill="#000" opacity="0.35"/><circle cx="183.29785636253655" cy="424.8283256776631" r="62.5" fill="#f5f2e8"/><circle cx="183.29785636253655" cy="424.8283256776631" r="53.75" fill="#f5f2e8"/><ellipse cx="185.1" cy="468.7" rx="4" ry="2" fill="#e6e0cf" transform="rotate(6 185.1 468.7)"/><ellipse cx="181.4" cy="378.9" rx="4" ry="2" fill="#e6e0cf" transform="rotate(26 181.4 378.9)"/><ellipse cx="175.9" cy="472.0" rx="4" ry="2" fill="#e6e0cf" transform="rotate(41 175.9 472.0)"/><ellipse cx="224.8" cy="407.9" rx="4" ry="2" fill="#e6e0cf" transform="rotate(64 224.8 407.9)"/><ellipse cx="217.4" cy="444.4" rx="4" ry="2" fill="#e6e0cf" transform="rotate(22 217.4 444.4)"/><ellipse cx="224.5" cy="454.3" rx="4" ry="2" fill="#e6e0cf" transform="rotate(136 224.5 454.3)"/><ellipse cx="168.9" cy="464.9" rx="4" ry="2" fill="#e6e0cf" transform="rotate(74 168.9 464.9)"/><ellipse cx="175.0" cy="386.9" rx="4" ry="2" fill="#e6e0cf" transform="rotate(47 175.0 386.9)"/><ellipse cx="139.5" cy="451.1" rx="4" ry="2" fill="#e6e0cf" transform="rotate(159 139.5 451.1)"/><ellipse cx="144.9" cy="430.8" rx="4" ry="2" fill="#e6e0cf" transform="rotate(165 144.9 430.8)"/><circle cx="197.0" cy="426.3" r="16.3" fill="#ef8354"/><circle cx="170.4" cy="420.1" r="16.3" fill="#f2a48e"/><circle cx="324.87834105081856" cy="428.4136127717793" r="62.5" fill="#000" opacity="0.35"/><circle cx="324.87834105081856" cy="422.4136127717793" r="62.5" fill="#f5f2e8"/><circle cx="324.87834105081856" cy="422.4136127717793" r="53.75" fill="#f5f2e8"/><ellipse cx="343.0" cy="374.8" rx="4" ry="2" fill="#e6e0cf" transform="rotate(62 343.0 374.8)"/><ellipse cx="342.3" cy="380.6" rx="4" ry="2" fill="#e6e0cf" transform="rotate(34 342.3 380.6)"/><ellipse cx="331.5" cy="471.7" rx="4" ry="2" fill="#e6e0cf" transform="rotate(87 331.5 471.7)"/><ellipse cx="276.6" cy="410.7" rx="4" ry="2" fill="#e6e0cf" transform="rotate(84 276.6 410.7)"/><ellipse cx="290.4" cy="399.5" rx="4" ry="2" fill="#e6e0cf" transform="rotate(75 290.4 399.5)"/><ellipse cx="303.3" cy="383.8" rx="4" ry="2" fill="#e6e0cf" transform="rotate(122 303.3 383.8)"/><ellipse cx="372.9" cy="440.1" rx="4" ry="2" fill="#e6e0cf" transform="rotate(32 372.9 440.1)"/><ellipse cx="363.5" cy="418.5" rx="4" ry="2" fill="#e6e0cf" transform="rotate(134 363.5 418.5)"/><ellipse cx="299.6" cy="466.4" rx="4" ry="2" fill="#e6e0cf" transform="rotate(63 299.6 466.4)"/><ellipse cx="360.7" cy="405.3" rx="4" ry="2" fill="#e6e0cf" transform="rotate(57 360.7 405.3)"/><circle cx="337.4" cy="428.1" r="16.3" fill="#ef8354"/><circle cx="311.2" cy="420.9" r="16.3" fill="#f2a48e"/><circle cx="473.9634453151375" cy="433.0594553463161" r="62.5" fill="#000" opacity="0.35"/><circle cx="473.9634453151375" cy="427.0594553463161" r="62.5" fill="#f5f2e8"/><circle cx="473.9634453151375" cy="427.0594553463161" r="53.75" fill="#f5f2e8"/><ellipse cx="446.3" cy="462.9" rx="4" ry="2" fill="#e6e0cf" transform="rotate(50 446.3 462.9)"/><ellipse cx="433.6" cy="395.7" rx="4" ry="2" fill="#e6e0cf" transform="rotate(125 433.6 395.7)"/><ellipse cx="439.2" cy="446.2" rx="4" ry="2" fill="#e6e0cf" transform="rotate(122 439.2 446.2)"/><ellipse cx="501.1" cy="392.0" rx="4" ry="2" fill="#e6e0cf" transform="rotate(92 501.1 392.0)"/><ellipse cx="451.9" cy="385.8" rx="4" ry="2" fill="#e6e0cf" transform="rotate(105 451.9 385.8)"/><ellipse cx="524.2" cy="429.8" rx="4" ry="2" fill="#e6e0cf" transform="rotate(40 524.2 429.8)"/><ellipse cx="509.8" cy="453.9" rx="4" ry="2" fill="#e6e0cf" transform="rotate(63 509.8 453.9)"/><ellipse cx="524.2" cy="434.7" rx="4" ry="2" fill="#e6e0cf" transform="rotate(33 524.2 434.7)"/><ellipse cx="509.8" cy="406.8" rx="4" ry="2" fill="#e6e0cf" transform="rotate(67 509.8 406.8)"/><ellipse cx="425.0" cy="433.2" rx="4" ry="2" fill="#e6e0cf" transform="rotate(176 425.0 433.2)"/><circle cx="486.8" cy="432.0" r="16.3" fill="#ef8354"/><circle cx="461.7" cy="420.9" r="16.3" fill="#f2a48e"/><circle cx="616.2514223251492" cy="429.65053912997246" r="62.5" fill="#000" opacity="0.35"/><circle cx="616.2514223251492" cy="423.65053912997246" r="62.5" fill="#f5f2e8"/><circle cx="616.2514223251492" cy="423.65053912997246" r="53.75" fill="#f5f2e8"/><ellipse cx="655.5" cy="428.8" rx="4" ry="2" fill="#e6e0cf" transform="rotate(114 655.5 428.8)"/><ellipse cx="576.7" cy="395.2" rx="4" ry="2" fill="#e6e0cf" transform="rotate(43 576.7 395.2)"/><ellipse cx="656.4" cy="398.9" rx="4" ry="2" fill="#e6e0cf" transform="rotate(145 656.4 398.9)"/><ellipse cx="610.9" cy="379.6" rx="4" ry="2" fill="#e6e0cf" transform="rotate(38 610.9 379.6)"/><ellipse cx="606.4" cy="374.0" rx="4" ry="2" fill="#e6e0cf" transform="rotate(154 606.4 374.0)"/><ellipse cx="643.3" cy="463.8" rx="4" ry="2" fill="#e6e0cf" transform="rotate(85 643.3 463.8)"/><ellipse cx="588.6" cy="455.5" rx="4" ry="2" fill="#e6e0cf" transform="rotate(82 588.6 455.5)"/><ellipse cx="591.1" cy="389.9" rx="4" ry="2" fill="#e6e0cf" transform="rotate(46 591.1 389.9)"/><ellipse cx="655.3" cy="443.4" rx="4" ry="2" fill="#e6e0cf" transform="rotate(55 655.3 443.4)"/><ellipse cx="643.5" cy="395.4" rx="4" ry="2" fill="#e6e0cf" transform="rotate(32 643.5 395.4)"/><circle cx="629.6" cy="427.0" r="16.3" fill="#ef8354"/><circle cx="604.1" cy="417.2" r="16.3" fill="#f2a48e"/></svg>