<svg xmlns="http://www.w3.org/2000/svg" viewBox="0 0 800 600"><defs><radialGradient id="bg-tortilya" cx="50%" cy="35%" r="80%"><stop offset="0%" stop-color="#ffffff"/><stop offset="100%" stop-color="#efeff2"/></radialGradient></defs><rect width="800" height="600" fill="url(#bg-tortilya)"/><circle cx="240.135359313339" cy="205.82586795464158" r="70" fill="#000" opacity="0.1"/><circle cx="240.135359313339" cy="199.82586795464158" r="70" fill="#2e3230" stroke="#1f2321" stroke-width="2"/><circle cx="240.135359313339" cy="199.82586795464158" r="60.199999999999996" fill="#f5f2e8"/><ellipse cx="211.2" cy="234.4" rx="4" ry="2" fill="#e6e0cf" transform="rotate(18 211.2 234.4)"/><ellipse cx="221.6" cy="160.2" rx="4" ry="2" fill="#e6e0cf" transform="rotate(19 221.6 160.2)"/><ellipse cx="219.8" cy="242.2" rx="4" ry="2" fill="#e6e0cf" transform="rotate(54 219.8 242.2)"/><ellipse cx="292.7" cy="211.7" rx="4" ry="2" fill="#e6e0cf" transform="rotate(66 292.7 211.7)"/><ellipse cx="266.7" cy="240.3" rx="4" ry="2" fill="#e6e0cf" transform="rotate(61 266.7 240.3)"/><ellipse cx="216.5" cy="159.7" rx="4" ry="2" fill="#e6e0cf" transform="rotate(98 216.5 159.7)"/><ellipse cx="194.4" cy="175.5" rx="4" ry="2" fill="#e6e0cf" transform="rotate(152 194.4 175.5)"/><ellipse cx="229.7" cy="154.9" rx="4" ry="2" fill="#e6e0cf" transform="rotate(89 229.7 154.9)"/><ellipse cx="245.6" cy="155.5" rx="4" ry="2" fill="#e6e0cf" transform="rotate(45 245.6 155.5)"/><ellipse cx="279.2" cy="177.2" rx="4" ry="2" fill="#e6e0cf" transform="rotate(19 279.2 177.2)"/><circle cx="255.5" cy="200.9" r="18.2" fill="#7fb069"/><circle cx="231.0" cy="212.2" r="18.2" fill="#f2ecd8"/><circle cx="233.1" cy="186.1" r="18.2" fill="#d9a45b"/><circle cx="400.5010245516896" cy="203.94772049039602" r="70" fill="#000" opacity="0.1"/><circle cx="400.5010245516896" cy="197.94772049039602" r="70" fill="#2e3230" stroke="#1f2321" stroke-width="2"/><circle cx="400.5010245516896" cy="197.94772049039602" r="60.199999999999996" fill="#f5f2e8"/><ellipse cx="426.6" cy="244.0" rx="4" ry="2" fill="#e6e0cf" transform="rotate(38 426.6 244.0)"/><ellipse cx="444.2" cy="213.4" rx="4" ry="2" fill="#e6e0cf" transform="rotate(37 444.2 213.4)"/><ellipse cx="367.8" cy="153.2" rx="4" ry="2" fill="#e6e0cf" transform="rotate(116 367.8 153.2)"/><ellipse cx="355.2" cy="209.2" rx="4" ry="2" fill="#e6e0cf" transform="rotate(41 355.2 209.2)"/><ellipse cx="345.0" cy="210.6" rx="4" ry="2" fill="#e6e0cf" transform="rotate(143 345.0 210.6)"/><ellipse cx="440.7" cy="171.0" rx="4" ry="2" fill="#e6e0cf" transform="rotate(14 440.7 171.0)"/><ellipse cx="362.1" cy="236.6" rx="4" ry="2" fill="#e6e0cf" transform="rotate(152 362.1 236.6)"/><ellipse cx="381.1" cy="154.8" rx="4" ry="2" fill="#e6e0cf" transform="rotate(124 381.1 154.8)"/><ellipse cx="446.3" cy="197.9" rx="4" ry="2" fill="#e6e0cf" transform="rotate(25 446.3 197.9)"/><ellipse cx="382.5" cy="154.2" rx="4" ry="2" fill="#e6e0cf" transform="rotate(107 382.5 154.2)"/><circle cx="415.7" cy="200.4" r="18.2" fill="#7fb069"/><circle cx="391.1" cy="210.2" r="18.2" fill="#f2ecd8"/><circle cx="396.6" cy="183.0" r="18.2" fill="#d9a45b"/><circle cx="562.4059474058449" cy="205.79120297916234" r="70" fill="#000" opacity="0.1"/><circle cx="562.4059474058449" cy="199.79120297916234" r="70" fill="#2e3230" stroke="#1f2321" stroke-width="2"/><circle cx="562.4059474058449" cy="199.79120297916234" r="60.199999999999996" fill="#f5f2e8"/><ellipse cx="613.0" cy="222.7" rx="4" ry="2" fill="#e6e0cf" transform="rotate(176 613.0 222.7)"/><ellipse cx="602.3" cy="178.0" rx="4" ry="2" fill="#e6e0cf" transform="rotate(70 602.3 178.0)"/><ellipse cx="593.4" cy="247.0" rx="4" ry="2" fill="#e6e0cf" transform="rotate(125 593.4 247.0)"/><ellipse cx="576.4" cy="154.0" rx="4" ry="2" fill="#e6e0cf" transform="rotate(107 576.4 154.0)"/><ellipse cx="556.9" cy="145.9" rx="4" ry="2" fill="#e6e0cf" transform="rotate(47 556.9 145.9)"/><ellipse cx="521.0" cy="186.3" rx="4" ry="2" fill="#e6e0cf" transform="rotate(143 521.0 186.3)"/><ellipse cx="587.6" cy="235.5" rx="4" ry="2" fill="#e6e0cf" transform="rotate(24 587.6 235.5)"/><ellipse cx="563.4" cy="145.5" rx="4" ry="2" fill="#e6e0cf" transform="rotate(2 563.4 145.5)"/><ellipse cx="565.9" cy="251.8" rx="4" ry="2" fill="#e6e0cf" transform="rotate(135 565.9 251.8)"/><ellipse cx="518.8" cy="209.4" rx="4" ry="2" fill="#e6e0cf" transform="rotate(64 518.8 209.4)"/><circle cx="577.7" cy="201.6" r="18.2" fill="#7fb069"/><circle cx="552.6" cy="211.7" r="18.2" fill="#f2ecd8"/><circle cx="558.6" cy="184.9" r="18.2" fill="#d9a45b"/><circle cx="237.2625155672431" cy="365.92192933149636" r="70" fill="#000" opacity="0.1"/><circle cx="237.2625155672431" cy="359.92192933149636" r="70" fill="#2e3230" stroke="#1f2321" stroke-width="2"/><circle cx="237.2625155672431" cy="359.92192933149636" r="60.199999999999996" fill="#f5f2e8"/><ellipse cx="193.0" cy="356.0" rx="4" ry="2" fill="#e6e0cf" transform="rotate(130 193.0 356.0)"/><ellipse cx="203.6" cy="390.3" rx="4" ry="2" fill="#e6e0cf" transform="rotate(56 203.6 390.3)"/><ellipse cx="274.5" cy="335.8" rx="4" ry="2" fill="#e6e0cf" transform="rotate(128 274.5 335.8)"/><ellipse cx="233.4" cy="304.3" rx="4" ry="2" fill="#e6e0cf" transform="rotate(128 233.4 304.3)"/><ellipse cx="200.5" cy="322.3" rx="4" ry="2" fill="#e6e0cf" transform="rotate(90 200.5 322.3)"/><ellipse cx="181.9" cy="346.1" rx="4" ry="2" fill="#e6e0cf" transform="rotate(99 181.9 346.1)"/><ellipse cx="281.9" cy="395.6" rx="4" ry="2" fill="#e6e0cf" transform="rotate(94 281.9 395.6)"/><ellipse cx="208.6" cy="322.4" rx="4" ry="2" fill="#e6e0cf" transform="rotate(6 208.6 322.4)"/><ellipse cx="279.7" cy="344.5" rx="4" ry="2" fill="#e6e0cf" transform="rotate(169 279.7 344.5)"/><ellipse cx="283.0" cy="345.8" rx="4" ry="2" fill="#e6e0cf" transform="rotate(149 283.0 345.8)"/><circle cx="251.6" cy="365.5" r="18.2" fill="#7fb069"/><circle cx="227.0" cy="371.4" r="18.2" fill="#f2ecd8"/><circle cx="232.6" cy="345.2" r="18.2" fill="#d9a45b"/><circle cx="402.77429695241153" cy="365.98424212634563" r="70" fill="#000" opacity="0.1"/><circle cx="402.77429695241153" cy="359.98424212634563" r="70" fill="#2e3230" stroke="#1f2321" stroke-width="2"/><circle cx="402.77429695241153" cy="359.98424212634563" r="60.199999999999996" fill="#f5f2e8"/><ellipse cx="446.4" cy="363.0" rx="4" ry="2" fill="#e6e0cf" transform="rotate(8 446.4 363.0)"/><ellipse cx="396.5" cy="411.9" rx="4" ry="2" fill="#e6e0cf" transform="rotate(9 396.5 411.9)"/><ellipse cx="443.1" cy="334.1" rx="4" ry="2" fill="#e6e0cf" transform="rotate(10 443.1 334.1)"/><ellipse cx="449.2" cy="340.8" rx="4" ry="2" fill="#e6e0cf" transform="rotate(8 449.2 340.8)"/><ellipse cx="428.3" cy="316.1" rx="4" ry="2" fill="#e6e0cf" transform="rotate(36 428.3 316.1)"/><ellipse cx="359.3" cy="350.1" rx="4" ry="2" fill="#e6e0cf" transform="rotate(105 359.3 350.1)"/><ellipse cx="383.8" cy="316.8" rx="4" ry="2" fill="#e6e0cf" transform="rotate(112 383.8 316.8)"/><ellipse cx="403.1" cy="306.4" rx="4" ry="2" fill="#e6e0cf" transform="rotate(123 403.1 306.4)"/><ellipse cx="366.5" cy="319.7" rx="4" ry="2" fill="#e6e0cf" transform="rotate(70 366.5 319.7)"/><ellipse cx="450.5" cy="381.2" rx="4" ry="2" fill="#e6e0cf" transform="rotate(149 450.5 381.2)"/><circle cx="416.9" cy="366.2" r="18.2" fill="#7fb069"/><circle cx="389.7" cy="368.1" r="18.2" fill="#f2ecd8"/><circle cx="398.9" cy="345.1" r="18.2" fill="#d9a45b"/><circle cx="564.5126341413707" cy="368.61110049672425" r="70" fill="#000" opacity="0.1"/><circle cx="564.5126341413707" cy="362.61110049672425" r="70" fill="#2e3230" stroke="#1f2321" stroke-width="2"/><circle cx="564.5126341413707" cy="362.61110049672425" r="60.199999999999996" fill="#f5f2e8"/><ellipse cx="519.7" cy="353.8" rx="4" ry="2" fill="#e6e0cf" transform="rotate(30 519.7 353.8)"/><ellipse cx="514.3" cy="382.5" rx="4" ry="2" fill="#e6e0cf" transform="rotate(116 514.3 382.5)"/><ellipse cx="515.5" cy="381.6" rx="4" ry="2" fill="#e6e0cf" transform="rotate(119 515.5 381.6)"/><ellipse cx="548.2" cy="409.5" rx="4" ry="2" fill="#e6e0cf" transform="rotate(140 548.2 409.5)"/><ellipse cx="527.8" cy="337.0" rx="4" ry="2" fill="#e6e0cf" transform="rotate(140 527.8 337.0)"/><ellipse cx="590.4" cy="397.6" rx="4" ry="2" fill="#e6e0cf" transform="rotate(4 590.4 397.6)"/><ellipse cx="614.7" cy="372.0" rx="4" ry="2" fill="#e6e0cf" transform="rotate(8 614.7 372.0)"/><ellipse cx="581.1" cy="410.6" rx="4" ry="2" fill="#e6e0cf" transform="rotate(32 581.1 410.6)"/><ellipse cx="541.9" cy="322.7" rx="4" ry="2" fill="#e6e0cf" transform="rotate(72 541.9 322.7)"/><ellipse cx="586.1" cy="315.4" rx="4" ry="2" fill="#e6e0cf" transform="rotate(145 586.1 315.4)"/><circle cx="579.8" cy="364.0" r="18.2" fill="#7fb069"/><circle cx="551.8" cy="371.2" r="18.2" fill="#f2ecd8"/><circle cx="560.6" cy="347.7" r="18.2" fill="#d9a45b"/></svg>