<svg xmlns="http://www.w3.org/2000/svg" viewBox="0 0 800 600"><defs><radialGradient id="bg-toyama" cx="50%" cy="35%" r="80%"><stop offset="0%" stop-color="#ffffff"/><stop offset="100%" stop-color="#efeff2"/></radialGradient></defs><rect width="800" height="600" fill="url(#bg-toyama)"/><circle cx="235.14099440351129" cy="206.99585093557835" r="70" fill="#000" opacity="0.1"/><circle cx="235.14099440351129" cy="200.99585093557835" r="70" fill="#f5f2e8" stroke="#e0d9c2" stroke-width="2"/><circle cx="235.14099440351129" cy="200.99585093557835" r="60.199999999999996" fill="#f5f2e8"/><ellipse cx="231.6" cy="151.5" rx="4" ry="2" fill="#e6e0cf" transform="rotate(173 231.6 151.5)"/><ellipse cx="280.8" cy="183.7" rx="4" ry="2" fill="#e6e0cf" transform="rotate(141 280.8 183.7)"/><ellipse cx="184.0" cy="183.4" rx="4" ry="2" fill="#e6e0cf" transform="rotate(103 184.0 183.4)"/><ellipse cx="219.6" cy="156.3" rx="4" ry="2" fill="#e6e0cf" transform="rotate(170 219.6 156.3)"/><ellipse cx="184.7" cy="197.1" rx="4" ry="2" fill="#e6e0cf" transform="rotate(55 184.7 197.1)"/><ellipse cx="283.7" cy="203.6" rx="4" ry="2" fill="#e6e0cf" transform="rotate(89 283.7 203.6)"/><ellipse cx="280.6" cy="177.2" rx="4" ry="2" fill="#e6e0cf" transform="rotate(95 280.6 177.2)"/><ellipse cx="224.9" cy="254.0" rx="4" ry="2" fill="#e6e0cf" transform="rotate(153 224.9 254.0)"/><ellipse cx="241.1" cy="246.7" rx="4" ry="2" fill="#e6e0cf" transform="rotate(69 241.1 246.7)"/><ellipse cx="252.3" cy="253.8" rx="4" ry="2" fill="#e6e0cf" transform="rotate(169 252.3 253.8)"/><circle cx="249.9" cy="205.4" r="18.2" fill="#f2a48e"/><circle cx="227.1" cy="214.1" r="18.2" fill="#7fb069"/><circle cx="234.6" cy="185.6" r="18.2" fill="#f2ecd8"/><circle cx="401.6910679191351" cy="204.54637645184994" r="70" fill="#000" opacity="0.1"/><circle cx="401.6910679191351" cy="198.54637645184994" r="70" fill="#f5f2e8" stroke="#e0d9c2" stroke-width="2"/><circle cx="401.6910679191351" cy="198.54637645184994" r="60.199999999999996" fill="#f5f2e8"/><ellipse cx="375.7" cy="157.4" rx="4" ry="2" fill="#e6e0cf" transform="rotate(165 375.7 157.4)"/><ellipse cx="410.2" cy="150.9" rx="4" ry="2" fill="#e6e0cf" transform="rotate(96 410.2 150.9)"/><ellipse cx="416.1" cy="253.3" rx="4" ry="2" fill="#e6e0cf" transform="rotate(19 416.1 253.3)"/><ellipse cx="355.0" cy="226.8" rx="4" ry="2" fill="#e6e0cf" transform="rotate(131 355.0 226.8)"/><ellipse cx="451.3" cy="178.8" rx="4" ry="2" fill="#e6e0cf" transform="rotate(172 451.3 178.8)"/><ellipse cx="381.6" cy="238.3" rx="4" ry="2" fill="#e6e0cf" transform="rotate(133 381.6 238.3)"/><ellipse cx="435.5" cy="163.1" rx="4" ry="2" fill="#e6e0cf" transform="rotate(40 435.5 163.1)"/><ellipse cx="352.6" cy="189.1" rx="4" ry="2" fill="#e6e0cf" transform="rotate(33 352.6 189.1)"/><ellipse cx="389.9" cy="145.8" rx="4" ry="2" fill="#e6e0cf" transform="rotate(177 389.9 145.8)"/><ellipse cx="349.1" cy="192.1" rx="4" ry="2" fill="#e6e0cf" transform="rotate(2 349.1 192.1)"/><circle cx="415.8" cy="204.8" r="18.2" fill="#f2a48e"/><circle cx="389.1" cy="207.5" r="18.2" fill="#7fb069"/><circle cx="396.8" cy="184.0" r="18.2" fill="#f2ecd8"/><circle cx="558.5264536105096" cy="208.43835367634892" r="70" fill="#000" opacity="0.1"/><circle cx="558.5264536105096" cy="202.43835367634892" r="70" fill="#f5f2e8" stroke="#e0d9c2" stroke-width="2"/><circle cx="558.5264536105096" cy="202.43835367634892" r="60.199999999999996" fill="#f5f2e8"/><ellipse cx="569.4" cy="257.6" rx="4" ry="2" fill="#e6e0cf" transform="rotate(18 569.4 257.6)"/><ellipse cx="585.1" cy="166.2" rx="4" ry="2" fill="#e6e0cf" transform="rotate(58 585.1 166.2)"/><ellipse cx="525.5" cy="240.2" rx="4" ry="2" fill="#e6e0cf" transform="rotate(161 525.5 240.2)"/><ellipse cx="572.4" cy="147.8" rx="4" ry="2" fill="#e6e0cf" transform="rotate(117 572.4 147.8)"/><ellipse cx="517.4" cy="218.6" rx="4" ry="2" fill="#e6e0cf" transform="rotate(35 517.4 218.6)"/><ellipse cx="527.8" cy="169.5" rx="4" ry="2" fill="#e6e0cf" transform="rotate(20 527.8 169.5)"/><ellipse cx="533.8" cy="250.9" rx="4" ry="2" fill="#e6e0cf" transform="rotate(23 533.8 250.9)"/><ellipse cx="572.0" cy="153.0" rx="4" ry="2" fill="#e6e0cf" transform="rotate(67 572.0 153.0)"/><ellipse cx="585.4" cy="162.6" rx="4" ry="2" fill="#e6e0cf" transform="rotate(172 585.4 162.6)"/><ellipse cx="504.7" cy="220.1" rx="4" ry="2" fill="#e6e0cf" transform="rotate(161 504.7 220.1)"/><circle cx="573.6" cy="205.6" r="18.2" fill="#f2a48e"/><circle cx="545.8" cy="211.1" r="18.2" fill="#7fb069"/><circle cx="553.5" cy="187.9" r="18.2" fill="#f2ecd8"/><circle cx="236.2204706147313" cy="363.16445061564445" r="70" fill="#000" opacity="0.1"/><circle cx="236.2204706147313" cy="357.16445061564445" r="70" fill="#f5f2e8" stroke="#e0d9c2" stroke-width="2"/><circle cx="236.2204706147313" cy="357.16445061564445" r="60.199999999999996" fill="#f5f2e8"/><ellipse cx="192.8" cy="328.8" rx="4" ry="2" fill="#e6e0cf" transform="rotate(48 192.8 328.8)"/><ellipse cx="242.6" cy="305.2" rx="4" ry="2" fill="#e6e0cf" transform="rotate(122 242.6 305.2)"/><ellipse cx="186.3" cy="342.6" rx="4" ry="2" fill="#e6e0cf" transform="rotate(164 186.3 342.6)"/><ellipse cx="274.9" cy="389.1" rx="4" ry="2" fill="#e6e0cf" transform="rotate(106 274.9 389.1)"/><ellipse cx="280.5" cy="370.0" rx="4" ry="2" fill="#e6e0cf" transform="rotate(19 280.5 370.0)"/><ellipse cx="198.4" cy="321.7" rx="4" ry="2" fill="#e6e0cf" transform="rotate(62 198.4 321.7)"/><ellipse cx="263.6" cy="393.6" rx="4" ry="2" fill="#e6e0cf" transform="rotate(78 263.6 393.6)"/><ellipse cx="287.0" cy="381.9" rx="4" ry="2" fill="#e6e0cf" transform="rotate(2 287.0 381.9)"/><ellipse cx="274.9" cy="389.4" rx="4" ry="2" fill="#e6e0cf" transform="rotate(32 274.9 389.4)"/><ellipse cx="187.4" cy="340.3" rx="4" ry="2" fill="#e6e0cf" transform="rotate(16 187.4 340.3)"/><circle cx="250.8" cy="362.2" r="18.2" fill="#f2a48e"/><circle cx="226.3" cy="368.9" r="18.2" fill="#7fb069"/><circle cx="229.5" cy="343.3" r="18.2" fill="#f2ecd8"/><circle cx="403.48242803290486" cy="364.72399175167084" r="70" fill="#000" opacity="0.1"/><circle cx="403.48242803290486" cy="358.72399175167084" r="70" fill="#f5f2e8" stroke="#e0d9c2" stroke-width="2"/><circle cx="403.48242803290486" cy="358.72399175167084" r="60.199999999999996" fill="#f5f2e8"/><ellipse cx="440.9" cy="317.5" rx="4" ry="2" fill="#e6e0cf" transform="rotate(174 440.9 317.5)"/><ellipse cx="353.8" cy="360.3" rx="4" ry="2" fill="#e6e0cf" transform="rotate(111 353.8 360.3)"/><ellipse cx="454.8" cy="351.3" rx="4" ry="2" fill="#e6e0cf" transform="rotate(12 454.8 351.3)"/><ellipse cx="355.8" cy="333.0" rx="4" ry="2" fill="#e6e0cf" transform="rotate(78 355.8 333.0)"/><ellipse cx="367.9" cy="317.0" rx="4" ry="2" fill="#e6e0cf" transform="rotate(80 367.9 317.0)"/><ellipse cx="360.2" cy="349.7" rx="4" ry="2" fill="#e6e0cf" transform="rotate(74 360.2 349.7)"/><ellipse cx="451.0" cy="375.0" rx="4" ry="2" fill="#e6e0cf" transform="rotate(19 451.0 375.0)"/><ellipse cx="454.1" cy="375.1" rx="4" ry="2" fill="#e6e0cf" transform="rotate(44 454.1 375.1)"/><ellipse cx="353.0" cy="341.2" rx="4" ry="2" fill="#e6e0cf" transform="rotate(65 353.0 341.2)"/><ellipse cx="381.3" cy="308.6" rx="4" ry="2" fill="#e6e0cf" transform="rotate(68 381.3 308.6)"/><circle cx="418.4" cy="362.6" r="18.2" fill="#f2a48e"/><circle cx="391.2" cy="368.1" r="18.2" fill="#7fb069"/><circle cx="396.6" cy="344.9" r="18.2" fill="#f2ecd8"/><circle cx="558.0800517443568" cy="367.9290433190763" r="70" fill="#000" opacity="0.1"/><circle cx="558.0800517443568" cy="361.9290433190763" r="70" fill="#f5f2e8" stroke="#e0d9c2" stroke-width="2"/><circle cx="558.0800517443568" cy="361.9290433190763" r="60.199999999999996" fill="#f5f2e8"/><ellipse cx="518.2" cy="331.7" rx="4" ry="2" fill="#e6e0cf" transform="rotate(165 518.2 331.7)"/><ellipse cx="591.9" cy="403.5" rx="4" ry="2" fill="#e6e0cf" transform="rotate(24 591.9 403.5)"/><ellipse cx="511.1" cy="343.5" rx="4" ry="2" fill="#e6e0cf" transform="rotate(99 511.1 343.5)"/><ellipse cx="523.4" cy="317.7" rx="4" ry="2" fill="#e6e0cf" transform="rotate(33 523.4 317.7)"/><ellipse cx="591.3" cy="334.0" rx="4" ry="2" fill="#e6e0cf" transform="rotate(147 591.3 334.0)"/><ellipse cx="541.6" cy="402.1" rx="4" ry="2" fill="#e6e0cf" transform="rotate(80 541.6 402.1)"/><ellipse cx="515.5" cy="338.9" rx="4" ry="2" fill="#e6e0cf" transform="rotate(51 515.5 338.9)"/><ellipse cx="516.4" cy="387.3" rx="4" ry="2" fill="#e6e0cf" transform="rotate(42 516.4 387.3)"/><ellipse cx="512.6" cy="389.4" rx="4" ry="2" fill="#e6e0cf" transform="rotate(44 512.6 389.4)"/><ellipse cx="538.5" cy="401.2" rx="4" ry="2" fill="#e6e0cf" transform="rotate(59 538.5 401.2)"/><circle cx="573.1" cy="365.2" r="18.2" fill="#f2a48e"/><circle cx="547.4" cy="373.0" r="18.2" fill="#7fb069"/><circle cx="556.7" cy="346.6" r="18.2" fill="#f2ecd8"/></svg>