<svg xmlns="http://www.w3.org/2000/svg" viewBox="0 0 800 600"><defs><radialGradient id="bg-una" cx="50%" cy="35%" r="80%"><stop offset="0%" stop-color="#ffffff"/><stop offset="100%" stop-color="#efeff2"/></radialGradient></defs><rect width="800" height="600" fill="url(#bg-una)"/><circle cx="242.37091276794672" cy="205.69152052514255" r="70" fill="#000" opacity="0.1"/><circle cx="242.37091276794672" cy="199.69152052514255" r="70" fill="#f5f2e8" stroke="#e0d9c2" stroke-width="2"/><circle cx="242.37091276794672" cy="199.69152052514255" r="60.199999999999996" fill="#f5f2e8"/><ellipse cx="284.1" cy="167.0" rx="4" ry="2" fill="#e6e0cf" transform="rotate(145 284.1 167.0)"/><ellipse cx="195.0" cy="196.6" rx="4" ry="2" fill="#e6e0cf" transform="rotate(11 195.0 196.6)"/><ellipse cx="223.4" cy="153.9" rx="4" ry="2" fill="#e6e0cf" transform="rotate(115 223.4 153.9)"/><ellipse cx="243.3" cy="155.9" rx="4" ry="2" fill="#e6e0cf" transform="rotate(38 243.3 155.9)"/><ellipse cx="254.3" cy="244.2" rx="4" ry="2" fill="#e6e0cf" transform="rotate(40 254.3 244.2)"/><ellipse cx="269.1" cy="236.5" rx="4" ry="2" fill="#e6e0cf" transform="rotate(12 269.1 236.5)"/><ellipse cx="283.7" cy="225.3" rx="4" ry="2" fill="#e6e0cf" transform="rotate(147 283.7 225.3)"/><ellipse cx="198.4" cy="166.1" rx="4" ry="2" fill="#e6e0cf" transform="rotate(100 198.4 166.1)"/><ellipse cx="267.4" cy="160.6" rx="4" ry="2" fill="#e6e0cf" transform="rotate(51 267.4 160.6)"/><ellipse cx="255.5" cy="156.8" rx="4" ry="2" fill="#e6e0cf" transform="rotate(84 255.5 156.8)"/><circle cx="257.8" cy="200.0" r="18.2" fill="#ef8354"/><circle cx="232.5" cy="211.5" r="18.2" fill="#8a5a3b"/><circle cx="241.3" cy="184.3" r="18.2" fill="#7fb069"/><circle cx="398.75965269468725" cy="204.06344667635858" r="70" fill="#000" opacity="0.1"/><circle cx="398.75965269468725" cy="198.06344667635858" r="70" fill="#f5f2e8" stroke="#e0d9c2" stroke-width="2"/><circle cx="398.75965269468725" cy="198.06344667635858" r="60.199999999999996" fill="#f5f2e8"/><ellipse cx="343.2" cy="208.6" rx="4" ry="2" fill="#e6e0cf" transform="rotate(154 343.2 208.6)"/><ellipse cx="344.4" cy="188.6" rx="4" ry="2" fill="#e6e0cf" transform="rotate(135 344.4 188.6)"/><ellipse cx="373.5" cy="147.9" rx="4" ry="2" fill="#e6e0cf" transform="rotate(178 373.5 147.9)"/><ellipse cx="413.7" cy="246.3" rx="4" ry="2" fill="#e6e0cf" transform="rotate(100 413.7 246.3)"/><ellipse cx="353.9" cy="173.0" rx="4" ry="2" fill="#e6e0cf" transform="rotate(28 353.9 173.0)"/><ellipse cx="450.2" cy="198.2" rx="4" ry="2" fill="#e6e0cf" transform="rotate(87 450.2 198.2)"/><ellipse cx="425.4" cy="240.6" rx="4" ry="2" fill="#e6e0cf" transform="rotate(19 425.4 240.6)"/><ellipse cx="348.2" cy="181.9" rx="4" ry="2" fill="#e6e0cf" transform="rotate(71 348.2 181.9)"/><ellipse cx="350.2" cy="216.9" rx="4" ry="2" fill="#e6e0cf" transform="rotate(49 350.2 216.9)"/><ellipse cx="454.3" cy="193.5" rx="4" ry="2" fill="#e6e0cf" transform="rotate(58 454.3 193.5)"/><circle cx="414.2" cy="198.3" r="18.2" fill="#ef8354"/><circle cx="387.5" cy="208.6" r="18.2" fill="#8a5a3b"/><circle cx="392.5" cy="184.0" r="18.2" fill="#7fb069"/><circle cx="560.0777486972511" cy="206.3444954585284" r="70" fill="#000" opacity="0.1"/><circle cx="560.0777486972511" cy="200.3444954585284" r="70" fill="#f5f2e8" stroke="#e0d9c2" stroke-width="2"/><circle cx="560.0777486972511" cy="200.3444954585284" r="60.199999999999996" fill="#f5f2e8"/><ellipse cx="508.4" cy="207.9" rx="4" ry="2" fill="#e6e0cf" transform="rotate(169 508.4 207.9)"/><ellipse cx="574.8" cy="157.2" rx="4" ry="2" fill="#e6e0cf" transform="rotate(68 574.8 157.2)"/><ellipse cx="537.4" cy="251.5" rx="4" ry="2" fill="#e6e0cf" transform="rotate(108 537.4 251.5)"/><ellipse cx="602.6" cy="187.9" rx="4" ry="2" fill="#e6e0cf" transform="rotate(74 602.6 187.9)"/><ellipse cx="514.8" cy="205.7" rx="4" ry="2" fill="#e6e0cf" transform="rotate(174 514.8 205.7)"/><ellipse cx="603.8" cy="193.7" rx="4" ry="2" fill="#e6e0cf" transform="rotate(133 603.8 193.7)"/><ellipse cx="610.9" cy="191.2" rx="4" ry="2" fill="#e6e0cf" transform="rotate(5 610.9 191.2)"/><ellipse cx="548.7" cy="154.0" rx="4" ry="2" fill="#e6e0cf" transform="rotate(15 548.7 154.0)"/><ellipse cx="511.5" cy="204.6" rx="4" ry="2" fill="#e6e0cf" transform="rotate(68 511.5 204.6)"/><ellipse cx="609.2" cy="209.1" rx="4" ry="2" fill="#e6e0cf" transform="rotate(76 609.2 209.1)"/><circle cx="574.8" cy="204.8" r="18.2" fill="#ef8354"/><circle cx="547.0" cy="208.5" r="18.2" fill="#8a5a3b"/><circle cx="554.7" cy="185.9" r="18.2" fill="#7fb069"/><circle cx="235.6685856897384" cy="366.82089014723897" r="70" fill="#000" opacity="0.1"/><circle cx="235.6685856897384" cy="360.82089014723897" r="70" fill="#f5f2e8" stroke="#e0d9c2" stroke-width="2"/><circle cx="235.6685856897384" cy="360.82089014723897" r="60.199999999999996" fill="#f5f2e8"/><ellipse cx="288.3" cy="361.8" rx="4" ry="2" fill="#e6e0cf" transform="rotate(36 288.3 361.8)"/><ellipse cx="238.5" cy="409.8" rx="4" ry="2" fill="#e6e0cf" transform="rotate(45 238.5 409.8)"/><ellipse cx="261.7" cy="396.3" rx="4" ry="2" fill="#e6e0cf" transform="rotate(140 261.7 396.3)"/><ellipse cx="266.0" cy="315.9" rx="4" ry="2" fill="#e6e0cf" transform="rotate(70 266.0 315.9)"/><ellipse cx="204.6" cy="318.2" rx="4" ry="2" fill="#e6e0cf" transform="rotate(179 204.6 318.2)"/><ellipse cx="186.9" cy="390.1" rx="4" ry="2" fill="#e6e0cf" transform="rotate(24 186.9 390.1)"/><ellipse cx="280.8" cy="364.2" rx="4" ry="2" fill="#e6e0cf" transform="rotate(111 280.8 364.2)"/><ellipse cx="279.5" cy="340.3" rx="4" ry="2" fill="#e6e0cf" transform="rotate(73 279.5 340.3)"/><ellipse cx="203.7" cy="315.6" rx="4" ry="2" fill="#e6e0cf" transform="rotate(27 203.7 315.6)"/><ellipse cx="211.2" cy="404.2" rx="4" ry="2" fill="#e6e0cf" transform="rotate(81 211.2 404.2)"/><circle cx="250.6" cy="364.8" r="18.2" fill="#ef8354"/><circle cx="223.9" cy="370.8" r="18.2" fill="#8a5a3b"/><circle cx="229.5" cy="346.7" r="18.2" fill="#7fb069"/><circle cx="396.665449578315" cy="368.6046410910785" r="70" fill="#000" opacity="0.1"/><circle cx="396.665449578315" cy="362.6046410910785" r="70" fill="#f5f2e8" stroke="#e0d9c2" stroke-width="2"/><circle cx="396.665449578315" cy="362.6046410910785" r="60.199999999999996" fill="#f5f2e8"/><ellipse cx="444.4" cy="347.9" rx="4" ry="2" fill="#e6e0cf" transform="rotate(145 444.4 347.9)"/><ellipse cx="386.4" cy="310.6" rx="4" ry="2" fill="#e6e0cf" transform="rotate(78 386.4 310.6)"/><ellipse cx="395.2" cy="408.0" rx="4" ry="2" fill="#e6e0cf" transform="rotate(165 395.2 408.0)"/><ellipse cx="375.3" cy="413.8" rx="4" ry="2" fill="#e6e0cf" transform="rotate(36 375.3 413.8)"/><ellipse cx="444.9" cy="388.2" rx="4" ry="2" fill="#e6e0cf" transform="rotate(9 444.9 388.2)"/><ellipse cx="361.0" cy="336.1" rx="4" ry="2" fill="#e6e0cf" transform="rotate(71 361.0 336.1)"/><ellipse cx="347.4" cy="359.3" rx="4" ry="2" fill="#e6e0cf" transform="rotate(60 347.4 359.3)"/><ellipse cx="354.1" cy="350.1" rx="4" ry="2" fill="#e6e0cf" transform="rotate(107 354.1 350.1)"/><ellipse cx="393.5" cy="409.3" rx="4" ry="2" fill="#e6e0cf" transform="rotate(167 393.5 409.3)"/><ellipse cx="424.6" cy="405.5" rx="4" ry="2" fill="#e6e0cf" transform="rotate(36 424.6 405.5)"/><circle cx="411.1" cy="367.9" r="18.2" fill="#ef8354"/><circle cx="384.4" cy="371.9" r="18.2" fill="#8a5a3b"/><circle cx="392.1" cy="347.9" r="18.2" fill="#7fb069"/><circle cx="560.8473750688136" cy="365.2418770175427" r="70" fill="#000" opacity="0.1"/><circle cx="560.8473750688136" cy="359.2418770175427" r="70" fill="#f5f2e8" stroke="#e0d9c2" stroke-width="2"/><circle cx="560.8473750688136" cy="359.2418770175427" r="60.199999999999996" fill="#f5f2e8"/><ellipse cx="607.8" cy="364.8" rx="4" ry="2" fill="#e6e0cf" transform="rotate(106 607.8 364.8)"/><ellipse cx="525.0" cy="387.1" rx="4" ry="2" fill="#e6e0cf" transform="rotate(52 525.0 387.1)"/><ellipse cx="604.3" cy="377.3" rx="4" ry="2" fill="#e6e0cf" transform="rotate(27 604.3 377.3)"/><ellipse cx="503.8" cy="353.3" rx="4" ry="2" fill="#e6e0cf" transform="rotate(62 503.8 353.3)"/><ellipse cx="611.7" cy="352.9" rx="4" ry="2" fill="#e6e0cf" transform="rotate(164 611.7 352.9)"/><ellipse cx="562.2" cy="404.2" rx="4" ry="2" fill="#e6e0cf" transform="rotate(113 562.2 404.2)"/><ellipse cx="551.8" cy="305.5" rx="4" ry="2" fill="#e6e0cf" transform="rotate(108 551.8 305.5)"/><ellipse cx="535.0" cy="410.5" rx="4" ry="2" fill="#e6e0cf" transform="rotate(39 535.0 410.5)"/><ellipse cx="600.4" cy="399.6" rx="4" ry="2" fill="#e6e0cf" transform="rotate(115 600.4 399.6)"/><ellipse cx="579.9" cy="318.5" rx="4" ry="2" fill="#e6e0cf" transform="rotate(89 579.9 318.5)"/><circle cx="575.7" cy="363.2" r="18.2" fill="#ef8354"/><circle cx="548.0" cy="367.8" r="18.2" fill="#8a5a3b"/><circle cx="557.4" cy="344.2" r="18.2" fill="#7fb069"/></svg>