<svg xmlns="http://www.w3.org/2000/svg" viewBox="0 0 800 600"><defs><radialGradient id="bg-unagi-tempura" cx="50%" cy="35%" r="80%"><stop offset="0%" stop-color="#ffffff"/><stop offset="100%" stop-color="#efeff2"/></radialGradient></defs><rect width="800" height="600" fill="url(#bg-unagi-tempura)"/><circle cx="239.04002609103918" cy="202.3037528730929" r="70" fill="#000" opacity="0.1"/><circle cx="239.04002609103918" cy="196.3037528730929" r="70" fill="#d9a45b" stroke="#c08c4a" stroke-width="2"/><circle cx="283.1" cy="243.3" r="5.4" fill="#b5854e"/><circle cx="271.5" cy="251.9" r="4.5" fill="#b5854e"/><circle cx="275.9" cy="249.1" r="3.7" fill="#b5854e"/><circle cx="200.4" cy="247.9" r="4.8" fill="#b5854e"/><circle cx="185.1" cy="231.5" r="6.0" fill="#b5854e"/><circle cx="182.6" cy="227.2" r="4.9" fill="#b5854e"/><circle cx="174.8" cy="192.5" r="5.8" fill="#b5854e"/><circle cx="185.1" cy="161.2" r="5.9" fill="#b5854e"/><circle cx="220.5" cy="134.6" r="5.9" fill="#b5854e"/><circle cx="240.8" cy="131.9" r="4.4" fill="#b5854e"/><circle cx="261.7" cy="136.0" r="6.1" fill="#b5854e"/><circle cx="281.8" cy="148.1" r="4.0" fill="#b5854e"/><circle cx="299.7" cy="174.5" r="3.8" fill="#b5854e"/><circle cx="302.8" cy="205.2" r="5.1" fill="#b5854e"/><circle cx="239.04002609103918" cy="196.3037528730929" r="50.4" fill="#f5f2e8"/><circle cx="254.3" cy="198.6" r="18.2" fill="#8a5a3b"/><circle cx="226.7" cy="205.6" r="18.2" fill="#7fb069"/><circle cx="237.4" cy="181.0" r="18.2" fill="#f2ecd8"/><circle cx="396.1505195386708" cy="208.96216223575175" r="70" fill="#000" opacity="0.1"/><circle cx="396.1505195386708" cy="202.96216223575175" r="70" fill="#d9a45b" stroke="#c08c4a" stroke-width="2"/><circle cx="446.5" cy="243.1" r="5.6" fill="#b5854e"/><circle cx="452.0" cy="235.0" r="4.1" fill="#b5854e"/><circle cx="421.3" cy="262.3" r="3.4" fill="#b5854e"/><circle cx="373.7" cy="263.3" r="3.4" fill="#b5854e"/><circle cx="336.4" cy="226.9" r="5.7" fill="#b5854e"/><circle cx="332.3" cy="211.3" r="6.2" fill="#b5854e"/><circle cx="337.9" cy="175.5" r="6.4" fill="#b5854e"/><circle cx="342.6" cy="167.2" r="6.1" fill="#b5854e"/><circle cx="345.2" cy="163.5" r="4.3" fill="#b5854e"/><circle cx="413.5" cy="140.9" r="3.0" fill="#b5854e"/><circle cx="417.2" cy="142.1" r="3.5" fill="#b5854e"/><circle cx="410.5" cy="140.2" r="6.5" fill="#b5854e"/><circle cx="436.9" cy="153.1" r="5.2" fill="#b5854e"/><circle cx="451.6" cy="235.7" r="5.8" fill="#b5854e"/><circle cx="396.1505195386708" cy="202.96216223575175" r="50.4" fill="#f5f2e8"/><circle cx="410.1" cy="209.5" r="18.2" fill="#8a5a3b"/><circle cx="387.5" cy="215.7" r="18.2" fill="#7fb069"/><circle cx="394.9" cy="187.6" r="18.2" fill="#f2ecd8"/><circle cx="564.5205434951931" cy="204.6819536909461" r="70" fill="#000" opacity="0.1"/><circle cx="564.5205434951931" cy="198.6819536909461" r="70" fill="#d9a45b" stroke="#c08c4a" stroke-width="2"/><circle cx="625.0" cy="220.9" r="4.5" fill="#b5854e"/><circle cx="580.2" cy="261.1" r="3.8" fill="#b5854e"/><circle cx="599.2" cy="252.9" r="7.0" fill="#b5854e"/><circle cx="568.0" cy="263.0" r="5.7" fill="#b5854e"/><circle cx="543.5" cy="259.5" r="5.5" fill="#b5854e"/><circle cx="513.6" cy="238.1" r="5.7" fill="#b5854e"/><circle cx="503.0" cy="179.8" r="5.3" fill="#b5854e"/><circle cx="504.2" cy="176.2" r="5.6" fill="#b5854e"/><circle cx="543.7" cy="137.7" r="6.0" fill="#b5854e"/><circle cx="548.8" cy="136.2" r="5.4" fill="#b5854e"/><circle cx="561.6" cy="134.3" r="5.6" fill="#b5854e"/><circle cx="583.1" cy="137.0" r="4.1" fill="#b5854e"/><circle cx="606.9" cy="150.2" r="6.6" fill="#b5854e"/><circle cx="627.8" cy="210.6" r="4.9" fill="#b5854e"/><circle cx="564.5205434951931" cy="198.6819536909461" r="50.4" fill="#f5f2e8"/><circle cx="579.4" cy="202.7" r="18.2" fill="#8a5a3b"/><circle cx="552.5" cy="208.3" r="18.2" fill="#7fb069"/><circle cx="557.0" cy="185.2" r="18.2" fill="#f2ecd8"/><circle cx="239.04959287121892" cy="366.65566389262676" r="70" fill="#000" opacity="0.1"/><circle cx="239.04959287121892" cy="360.65566389262676" r="70" fill="#d9a45b" stroke="#c08c4a" stroke-width="2"/><circle cx="303.4" cy="362.3" r="5.2" fill="#b5854e"/><circle cx="256.8" cy="422.6" r="6.5" fill="#b5854e"/><circle cx="222.0" cy="422.7" r="5.8" fill="#b5854e"/><circle cx="216.3" cy="420.9" r="4.7" fill="#b5854e"/><circle cx="180.0" cy="386.3" r="3.5" fill="#b5854e"/><circle cx="182.3" cy="391.2" r="5.1" fill="#b5854e"/><circle cx="176.3" cy="375.3" r="3.5" fill="#b5854e"/><circle cx="175.1" cy="352.8" r="5.1" fill="#b5854e"/><circle cx="197.2" cy="311.7" r="6.8" fill="#b5854e"/><circle cx="244.2" cy="296.5" r="5.6" fill="#b5854e"/><circle cx="236.1" cy="296.3" r="3.0" fill="#b5854e"/><circle cx="275.9" cy="307.8" r="5.1" fill="#b5854e"/><circle cx="290.5" cy="321.9" r="5.4" fill="#b5854e"/><circle cx="299.9" cy="381.9" r="3.4" fill="#b5854e"/><circle cx="239.04959287121892" cy="360.65566389262676" r="50.4" fill="#f5f2e8"/><circle cx="254.4" cy="360.7" r="18.2" fill="#8a5a3b"/><circle cx="230.9" cy="373.7" r="18.2" fill="#7fb069"/><circle cx="237.4" cy="345.3" r="18.2" fill="#f2ecd8"/><circle cx="402.9761402159929" cy="369.6517930403352" r="70" fill="#000" opacity="0.1"/><circle cx="402.9761402159929" cy="363.6517930403352" r="70" fill="#d9a45b" stroke="#c08c4a" stroke-width="2"/><circle cx="457.3" cy="398.3" r="5.3" fill="#b5854e"/><circle cx="436.8" cy="418.5" r="5.1" fill="#b5854e"/><circle cx="425.5" cy="424.0" r="6.9" fill="#b5854e"/><circle cx="405.4" cy="428.0" r="5.5" fill="#b5854e"/><circle cx="357.2" cy="408.9" r="6.3" fill="#b5854e"/><circle cx="350.3" cy="400.7" r="4.1" fill="#b5854e"/><circle cx="344.9" cy="391.6" r="3.8" fill="#b5854e"/><circle cx="360.2" cy="315.5" r="3.3" fill="#b5854e"/><circle cx="352.6" cy="323.5" r="3.5" fill="#b5854e"/><circle cx="382.1" cy="302.7" r="3.6" fill="#b5854e"/><circle cx="436.9" cy="308.9" r="5.5" fill="#b5854e"/><circle cx="431.0" cy="305.7" r="4.7" fill="#b5854e"/><circle cx="466.7" cy="354.6" r="4.5" fill="#b5854e"/><circle cx="464.4" cy="344.3" r="5.9" fill="#b5854e"/><circle cx="402.9761402159929" cy="363.6517930403352" r="50.4" fill="#f5f2e8"/><circle cx="417.8" cy="367.8" r="18.2" fill="#8a5a3b"/><circle cx="391.7" cy="374.1" r="18.2" fill="#7fb069"/><circle cx="401.9" cy="348.3" r="18.2" fill="#f2ecd8"/><circle cx="563.1364946048707" cy="369.57479064539075" r="70" fill="#000" opacity="0.1"/><circle cx="563.1364946048707" cy="363.57479064539075" r="70" fill="#d9a45b" stroke="#c08c4a" stroke-width="2"/><circle cx="624.3" cy="383.7" r="7.0" fill="#b5854e"/><circle cx="586.8" cy="423.5" r="4.0" fill="#b5854e"/><circle cx="576.6" cy="426.6" r="6.1" fill="#b5854e"/><circle cx="530.0" cy="418.8" r="4.0" fill="#b5854e"/><circle cx="509.8" cy="399.6" r="6.8" fill="#b5854e"/><circle cx="519.8" cy="411.2" r="6.5" fill="#b5854e"/><circle cx="499.1" cy="356.6" r="5.8" fill="#b5854e"/><circle cx="506.9" cy="332.1" r="3.9" fill="#b5854e"/><circle cx="515.5" cy="320.3" r="4.7" fill="#b5854e"/><circle cx="572.2" cy="299.8" r="4.0" fill="#b5854e"/><circle cx="607.7" cy="317.1" r="4.3" fill="#b5854e"/><circle cx="596.7" cy="308.6" r="6.9" fill="#b5854e"/><circle cx="611.9" cy="321.5" r="6.6" fill="#b5854e"/><circle cx="622.7" cy="339.2" r="3.1" fill="#b5854e"/><circle cx="563.1364946048707" cy="363.57479064539075" r="50.4" fill="#f5f2e8"/><circle cx="577.8" cy="368.2" r="18.2" fill="#8a5a3b"/><circle cx="550.5" cy="372.4" r="18.2" fill="#7fb069"/><circle cx="556.4" cy="349.7" r="18.2" fill="#f2ecd8"/></svg>