<svg xmlns="http://www.w3.org/2000/svg" viewBox="0 0 800 600"><defs><radialGradient id="bg-unagi-sushi" cx="50%" cy="35%" r="80%"><stop offset="0%" stop-color="#26262c"/><stop offset="100%" stop-color="#141417"/></radialGradient></defs><rect width="800" height="600" fill="url(#bg-unagi-sushi)"/><ellipse cx="400" cy="410" rx="150" ry="26" fill="#000" opacity="0.35"/><rect x="280" y="280" width="240" height="130" rx="40" fill="#23272a"/><circle cx="484.4" cy="266.3" r="14.5" fill="#8a5a3b"/><circle cx="479.5" cy="263.0" r="15.9" fill="#8a5a3b"/><circle cx="370.2" cy="253.4" r="14.1" fill="#8a5a3b"/><circle cx="340.3" cy="274.4" r="15.4" fill="#8a5a3b"/><circle cx="448.2" cy="266.9" r="12.1" fill="#8a5a3b"/><circle cx="450.3" cy="262.9" r="12.9" fill="#8a5a3b"/><circle cx="379.1" cy="260.7" r="16.8" fill="#8a5a3b"/><circle cx="406.4" cy="254.0" r="11.3" fill="#8a5a3b"/><circle cx="428.4" cy="267.0" r="16.6" fill="#8a5a3b"/><circle cx="408.1" cy="267.5" r="18.0" fill="#8a5a3b"/><circle cx="380.2" cy="256.4" r="18.9" fill="#8a5a3b"/><circle cx="440.6" cy="271.6" r="16.7" fill="#8a5a3b"/><circle cx="436.1" cy="278.4" r="12.3" fill="#8a5a3b"/><circle cx="468.3" cy="278.5" r="18.9" fill="#8a5a3b"/><circle cx="421.7" cy="256.1" r="10.3" fill="#8a5a3b"/><circle cx="396.9" cy="264.8" r="18.3" fill="#8a5a3b"/><circle cx="349.1" cy="256.7" r="16.7" fill="#8a5a3b"/><circle cx="456.9" cy="279.5" r="10.4" fill="#8a5a3b"/><circle cx="348.8" cy="274.5" r="17.1" fill="#8a5a3b"/><circle cx="352.7" cy="260.4" r="14.5" fill="#8a5a3b"/><circle cx="334.0" cy="256.7" r="11.6" fill="#8a5a3b"/><circle cx="340.6" cy="262.2" r="18.4" fill="#8a5a3b"/><circle cx="374.6" cy="269.5" r="12.4" fill="#8a5a3b"/><circle cx="476.3" cy="269.3" r="13.6" fill="#8a5a3b"/><rect x="280" y="280" width="240" height="130" rx="40" fill="none" stroke="#111" stroke-width="3"/></svg>