<svg xmlns="http://www.w3.org/2000/svg" viewBox="0 0 800 600"><defs><radialGradient id="bg-unagi-spaysi" cx="50%" cy="35%" r="80%"><stop offset="0%" stop-color="#26262c"/><stop offset="100%" stop-color="#141417"/></radialGradient></defs><rect width="800" height="600" fill="url(#bg-unagi-spaysi)"/><ellipse cx="400" cy="410" rx="150" ry="26" fill="#000" opacity="0.35"/><rect x="280" y="280" width="240" height="130" rx="40" fill="#23272a"/><circle cx="441.0" cy="271.9" r="17.0" fill="#8a5a3b"/><circle cx="395.4" cy="273.8" r="16.4" fill="#8a5a3b"/><circle cx="345.3" cy="277.2" r="11.6" fill="#8a5a3b"/><circle cx="474.6" cy="279.9" r="13.6" fill="#8a5a3b"/><circle cx="312.9" cy="273.6" r="13.8" fill="#8a5a3b"/><circle cx="369.1" cy="277.2" r="11.7" fill="#8a5a3b"/><circle cx="491.3" cy="262.1" r="13.3" fill="#8a5a3b"/><circle cx="439.3" cy="255.0" r="16.8" fill="#8a5a3b"/><circle cx="436.0" cy="259.1" r="17.3" fill="#8a5a3b"/><circle cx="438.7" cy="272.6" r="18.5" fill="#8a5a3b"/><circle cx="426.3" cy="278.7" r="18.0" fill="#8a5a3b"/><circle cx="458.0" cy="276.8" r="12.3" fill="#8a5a3b"/><circle cx="455.1" cy="265.9" r="15.5" fill="#8a5a3b"/><circle cx="417.4" cy="254.6" r="13.4" fill="#8a5a3b"/><circle cx="391.6" cy="257.2" r="17.0" fill="#8a5a3b"/><circle cx="346.7" cy="252.4" r="15.2" fill="#8a5a3b"/><circle cx="334.5" cy="253.2" r="13.0" fill="#8a5a3b"/><circle cx="386.7" cy="273.2" r="14.1" fill="#8a5a3b"/><circle cx="434.1" cy="277.2" r="11.8" fill="#8a5a3b"/><circle cx="453.7" cy="256.0" r="14.8" fill="#8a5a3b"/><circle cx="381.1" cy="275.4" r="14.2" fill="#8a5a3b"/><circle cx="346.4" cy="275.3" r="18.3" fill="#8a5a3b"/><circle cx="346.1" cy="258.3" r="17.9" fill="#8a5a3b"/><circle cx="402.1" cy="271.1" r="15.2" fill="#8a5a3b"/><rect x="280" y="280" width="240" height="130" rx="40" fill="none" stroke="#111" stroke-width="3"/></svg>