<svg xmlns="http://www.w3.org/2000/svg" viewBox="0 0 800 600"><defs><radialGradient id="bg-unagi" cx="50%" cy="35%" r="80%"><stop offset="0%" stop-color="#26262c"/><stop offset="100%" stop-color="#141417"/></radialGradient></defs><rect width="800" height="600" fill="url(#bg-unagi)"/><circle cx="241.91361550427973" cy="207.72742959298193" r="70" fill="#000" opacity="0.35"/><circle cx="241.91361550427973" cy="201.72742959298193" r="70" fill="#2e3230"/><circle cx="241.91361550427973" cy="201.72742959298193" r="60.199999999999996" fill="#f5f2e8"/><ellipse cx="282.9" cy="172.1" rx="4" ry="2" fill="#e6e0cf" transform="rotate(165 282.9 172.1)"/><ellipse cx="256.8" cy="247.5" rx="4" ry="2" fill="#e6e0cf" transform="rotate(143 256.8 247.5)"/><ellipse cx="215.6" cy="156.3" rx="4" ry="2" fill="#e6e0cf" transform="rotate(7 215.6 156.3)"/><ellipse cx="197.1" cy="205.1" rx="4" ry="2" fill="#e6e0cf" transform="rotate(174 197.1 205.1)"/><ellipse cx="201.8" cy="184.9" rx="4" ry="2" fill="#e6e0cf" transform="rotate(120 201.8 184.9)"/><ellipse cx="206.2" cy="240.4" rx="4" ry="2" fill="#e6e0cf" transform="rotate(175 206.2 240.4)"/><ellipse cx="228.3" cy="150.5" rx="4" ry="2" fill="#e6e0cf" transform="rotate(30 228.3 150.5)"/><ellipse cx="216.8" cy="245.2" rx="4" ry="2" fill="#e6e0cf" transform="rotate(106 216.8 245.2)"/><ellipse cx="219.2" cy="249.8" rx="4" ry="2" fill="#e6e0cf" transform="rotate(154 219.2 249.8)"/><ellipse cx="285.6" cy="177.7" rx="4" ry="2" fill="#e6e0cf" transform="rotate(68 285.6 177.7)"/><circle cx="257.0" cy="204.6" r="18.2" fill="#8a5a3b"/><circle cx="226.7" cy="199.5" r="18.2" fill="#7fb069"/><circle cx="402.89388295449317" cy="209.0973167028278" r="70" fill="#000" opacity="0.35"/><circle cx="402.89388295449317" cy="203.0973167028278" r="70" fill="#2e3230"/><circle cx="402.89388295449317" cy="203.0973167028278" r="60.199999999999996" fill="#f5f2e8"/><ellipse cx="355.0" cy="230.2" rx="4" ry="2" fill="#e6e0cf" transform="rotate(98 355.0 230.2)"/><ellipse cx="383.1" cy="160.2" rx="4" ry="2" fill="#e6e0cf" transform="rotate(174 383.1 160.2)"/><ellipse cx="410.3" cy="254.9" rx="4" ry="2" fill="#e6e0cf" transform="rotate(5 410.3 254.9)"/><ellipse cx="368.5" cy="247.0" rx="4" ry="2" fill="#e6e0cf" transform="rotate(74 368.5 247.0)"/><ellipse cx="363.1" cy="163.7" rx="4" ry="2" fill="#e6e0cf" transform="rotate(10 363.1 163.7)"/><ellipse cx="349.9" cy="198.9" rx="4" ry="2" fill="#e6e0cf" transform="rotate(111 349.9 198.9)"/><ellipse cx="406.2" cy="251.6" rx="4" ry="2" fill="#e6e0cf" transform="rotate(73 406.2 251.6)"/><ellipse cx="456.6" cy="208.3" rx="4" ry="2" fill="#e6e0cf" transform="rotate(154 456.6 208.3)"/><ellipse cx="359.1" cy="235.6" rx="4" ry="2" fill="#e6e0cf" transform="rotate(132 359.1 235.6)"/><ellipse cx="355.7" cy="231.4" rx="4" ry="2" fill="#e6e0cf" transform="rotate(160 355.7 231.4)"/><circle cx="417.9" cy="206.7" r="18.2" fill="#8a5a3b"/><circle cx="389.0" cy="196.4" r="18.2" fill="#7fb069"/><circle cx="564.1541874464601" cy="203.3596528545022" r="70" fill="#000" opacity="0.35"/><circle cx="564.1541874464601" cy="197.3596528545022" r="70" fill="#2e3230"/><circle cx="564.1541874464601" cy="197.3596528545022" r="60.199999999999996" fill="#f5f2e8"/><ellipse cx="574.5" cy="152.5" rx="4" ry="2" fill="#e6e0cf" transform="rotate(145 574.5 152.5)"/><ellipse cx="581.2" cy="156.9" rx="4" ry="2" fill="#e6e0cf" transform="rotate(62 581.2 156.9)"/><ellipse cx="602.5" cy="223.4" rx="4" ry="2" fill="#e6e0cf" transform="rotate(98 602.5 223.4)"/><ellipse cx="602.0" cy="163.8" rx="4" ry="2" fill="#e6e0cf" transform="rotate(30 602.0 163.8)"/><ellipse cx="588.9" cy="245.6" rx="4" ry="2" fill="#e6e0cf" transform="rotate(137 588.9 245.6)"/><ellipse cx="608.3" cy="233.0" rx="4" ry="2" fill="#e6e0cf" transform="rotate(15 608.3 233.0)"/><ellipse cx="521.4" cy="172.7" rx="4" ry="2" fill="#e6e0cf" transform="rotate(170 521.4 172.7)"/><ellipse cx="530.4" cy="231.1" rx="4" ry="2" fill="#e6e0cf" transform="rotate(128 530.4 231.1)"/><ellipse cx="605.8" cy="213.5" rx="4" ry="2" fill="#e6e0cf" transform="rotate(8 605.8 213.5)"/><ellipse cx="547.8" cy="152.7" rx="4" ry="2" fill="#e6e0cf" transform="rotate(141 547.8 152.7)"/><circle cx="578.8" cy="202.3" r="18.2" fill="#8a5a3b"/><circle cx="548.9" cy="195.5" r="18.2" fill="#7fb069"/><circle cx="236.4945088569075" cy="365.4866382777691" r="70" fill="#000" opacity="0.35"/><circle cx="236.4945088569075" cy="359.4866382777691" r="70" fill="#2e3230"/><circle cx="236.4945088569075" cy="359.4866382777691" r="60.199999999999996" fill="#f5f2e8"/><ellipse cx="281.6" cy="385.6" rx="4" ry="2" fill="#e6e0cf" transform="rotate(143 281.6 385.6)"/><ellipse cx="191.7" cy="347.9" rx="4" ry="2" fill="#e6e0cf" transform="rotate(102 191.7 347.9)"/><ellipse cx="240.2" cy="304.1" rx="4" ry="2" fill="#e6e0cf" transform="rotate(155 240.2 304.1)"/><ellipse cx="227.5" cy="306.9" rx="4" ry="2" fill="#e6e0cf" transform="rotate(96 227.5 306.9)"/><ellipse cx="284.6" cy="357.5" rx="4" ry="2" fill="#e6e0cf" transform="rotate(129 284.6 357.5)"/><ellipse cx="283.9" cy="368.0" rx="4" ry="2" fill="#e6e0cf" transform="rotate(92 283.9 368.0)"/><ellipse cx="236.6" cy="313.7" rx="4" ry="2" fill="#e6e0cf" transform="rotate(45 236.6 313.7)"/><ellipse cx="209.0" cy="397.6" rx="4" ry="2" fill="#e6e0cf" transform="rotate(53 209.0 397.6)"/><ellipse cx="292.0" cy="372.3" rx="4" ry="2" fill="#e6e0cf" transform="rotate(113 292.0 372.3)"/><ellipse cx="274.1" cy="385.1" rx="4" ry="2" fill="#e6e0cf" transform="rotate(101 274.1 385.1)"/><circle cx="251.1" cy="364.3" r="18.2" fill="#8a5a3b"/><circle cx="221.8" cy="355.0" r="18.2" fill="#7fb069"/><circle cx="398.8075711000711" cy="370.24127750471234" r="70" fill="#000" opacity="0.35"/><circle cx="398.8075711000711" cy="364.24127750471234" r="70" fill="#2e3230"/><circle cx="398.8075711000711" cy="364.24127750471234" r="60.199999999999996" fill="#f5f2e8"/><ellipse cx="401.1" cy="310.6" rx="4" ry="2" fill="#e6e0cf" transform="rotate(173 401.1 310.6)"/><ellipse cx="388.8" cy="416.2" rx="4" ry="2" fill="#e6e0cf" transform="rotate(124 388.8 416.2)"/><ellipse cx="448.9" cy="376.2" rx="4" ry="2" fill="#e6e0cf" transform="rotate(79 448.9 376.2)"/><ellipse cx="385.8" cy="414.1" rx="4" ry="2" fill="#e6e0cf" transform="rotate(109 385.8 414.1)"/><ellipse cx="344.8" cy="366.6" rx="4" ry="2" fill="#e6e0cf" transform="rotate(175 344.8 366.6)"/><ellipse cx="413.3" cy="419.3" rx="4" ry="2" fill="#e6e0cf" transform="rotate(20 413.3 419.3)"/><ellipse cx="357.3" cy="325.0" rx="4" ry="2" fill="#e6e0cf" transform="rotate(178 357.3 325.0)"/><ellipse cx="415.6" cy="318.8" rx="4" ry="2" fill="#e6e0cf" transform="rotate(31 415.6 318.8)"/><ellipse cx="392.8" cy="413.1" rx="4" ry="2" fill="#e6e0cf" transform="rotate(106 392.8 413.1)"/><ellipse cx="388.2" cy="413.5" rx="4" ry="2" fill="#e6e0cf" transform="rotate(37 388.2 413.5)"/><circle cx="412.4" cy="371.4" r="18.2" fill="#8a5a3b"/><circle cx="384.6" cy="358.3" r="18.2" fill="#7fb069"/><circle cx="561.2439334671944" cy="366.9323819838464" r="70" fill="#000" opacity="0.35"/><circle cx="561.2439334671944" cy="360.9323819838464" r="70" fill="#2e3230"/><circle cx="561.2439334671944" cy="360.9323819838464" r="60.199999999999996" fill="#f5f2e8"/><ellipse cx="615.6" cy="352.0" rx="4" ry="2" fill="#e6e0cf" transform="rotate(71 615.6 352.0)"/><ellipse cx="596.8" cy="323.6" rx="4" ry="2" fill="#e6e0cf" transform="rotate(112 596.8 323.6)"/><ellipse cx="516.9" cy="374.2" rx="4" ry="2" fill="#e6e0cf" transform="rotate(84 516.9 374.2)"/><ellipse cx="504.2" cy="361.4" rx="4" ry="2" fill="#e6e0cf" transform="rotate(171 504.2 361.4)"/><ellipse cx="606.8" cy="360.3" rx="4" ry="2" fill="#e6e0cf" transform="rotate(99 606.8 360.3)"/><ellipse cx="574.9" cy="314.5" rx="4" ry="2" fill="#e6e0cf" transform="rotate(180 574.9 314.5)"/><ellipse cx="516.4" cy="374.0" rx="4" ry="2" fill="#e6e0cf" transform="rotate(140 516.4 374.0)"/><ellipse cx="597.5" cy="317.4" rx="4" ry="2" fill="#e6e0cf" transform="rotate(13 597.5 317.4)"/><ellipse cx="616.3" cy="347.1" rx="4" ry="2" fill="#e6e0cf" transform="rotate(160 616.3 347.1)"/><ellipse cx="530.3" cy="400.5" rx="4" ry="2" fill="#e6e0cf" transform="rotate(88 530.3 400.5)"/><circle cx="575.2" cy="367.4" r="18.2" fill="#8a5a3b"/><circle cx="547.3" cy="354.3" r="18.2" fill="#7fb069"/></svg>