<svg xmlns="http://www.w3.org/2000/svg" viewBox="0 0 800 600"><defs><radialGradient id="bg-ust-kut-set" cx="50%" cy="35%" r="80%"><stop offset="0%" stop-color="#ffffff"/><stop offset="100%" stop-color="#efeff2"/></radialGradient></defs><rect width="800" height="600" fill="url(#bg-ust-kut-set)"/><circle cx="184.66052534617484" cy="141.10839511826634" r="62.5" fill="#000" opacity="0.1"/><circle cx="184.66052534617484" cy="135.10839511826634" r="62.5" fill="#f5f2e8" stroke="#e0d9c2" stroke-width="2"/><circle cx="184.66052534617484" cy="135.10839511826634" r="53.75" fill="#f5f2e8"/><ellipse cx="194.3" cy="88.9" rx="4" ry="2" fill="#e6e0cf" transform="rotate(25 194.3 88.9)"/><ellipse cx="170.3" cy="88.9" rx="4" ry="2" fill="#e6e0cf" transform="rotate(28 170.3 88.9)"/><ellipse cx="229.8" cy="136.8" rx="4" ry="2" fill="#e6e0cf" transform="rotate(100 229.8 136.8)"/><ellipse cx="175.1" cy="175.4" rx="4" ry="2" fill="#e6e0cf" transform="rotate(160 175.1 175.4)"/><ellipse cx="174.3" cy="93.4" rx="4" ry="2" fill="#e6e0cf" transform="rotate(120 174.3 93.4)"/><ellipse cx="180.4" cy="176.9" rx="4" ry="2" fill="#e6e0cf" transform="rotate(151 180.4 176.9)"/><ellipse cx="144.9" cy="128.1" rx="4" ry="2" fill="#e6e0cf" transform="rotate(83 144.9 128.1)"/><ellipse cx="193.1" cy="96.5" rx="4" ry="2" fill="#e6e0cf" transform="rotate(135 193.1 96.5)"/><ellipse cx="145.1" cy="167.0" rx="4" ry="2" fill="#e6e0cf" transform="rotate(80 145.1 167.0)"/><ellipse cx="182.2" cy="91.8" rx="4" ry="2" fill="#e6e0cf" transform="rotate(89 182.2 91.8)"/><circle cx="184.7" cy="135.1" r="25.0" fill="#ef8354"/><circle cx="326.52391696721315" cy="144.14812661334872" r="62.5" fill="#000" opacity="0.1"/><circle cx="326.52391696721315" cy="138.14812661334872" r="62.5" fill="#f5f2e8" stroke="#e0d9c2" stroke-width="2"/><circle cx="326.52391696721315" cy="138.14812661334872" r="53.75" fill="#f5f2e8"/><ellipse cx="356.5" cy="103.8" rx="4" ry="2" fill="#e6e0cf" transform="rotate(175 356.5 103.8)"/><ellipse cx="313.9" cy="88.6" rx="4" ry="2" fill="#e6e0cf" transform="rotate(12 313.9 88.6)"/><ellipse cx="337.3" cy="184.3" rx="4" ry="2" fill="#e6e0cf" transform="rotate(32 337.3 184.3)"/><ellipse cx="365.0" cy="116.1" rx="4" ry="2" fill="#e6e0cf" transform="rotate(174 365.0 116.1)"/><ellipse cx="350.2" cy="95.0" rx="4" ry="2" fill="#e6e0cf" transform="rotate(67 350.2 95.0)"/><ellipse cx="366.8" cy="111.5" rx="4" ry="2" fill="#e6e0cf" transform="rotate(64 366.8 111.5)"/><ellipse cx="353.2" cy="179.4" rx="4" ry="2" fill="#e6e0cf" transform="rotate(8 353.2 179.4)"/><ellipse cx="287.2" cy="150.3" rx="4" ry="2" fill="#e6e0cf" transform="rotate(17 287.2 150.3)"/><ellipse cx="328.4" cy="187.5" rx="4" ry="2" fill="#e6e0cf" transform="rotate(104 328.4 187.5)"/><ellipse cx="373.5" cy="155.7" rx="4" ry="2" fill="#e6e0cf" transform="rotate(103 373.5 155.7)"/><circle cx="326.5" cy="138.1" r="25.0" fill="#ef8354"/><circle cx="467.87837460823357" cy="143.0146800801158" r="62.5" fill="#000" opacity="0.1"/><circle cx="467.87837460823357" cy="137.0146800801158" r="62.5" fill="#f5f2e8" stroke="#e0d9c2" stroke-width="2"/><circle cx="467.87837460823357" cy="137.0146800801158" r="53.75" fill="#f5f2e8"/><ellipse cx="450.4" cy="172.6" rx="4" ry="2" fill="#e6e0cf" transform="rotate(64 450.4 172.6)"/><ellipse cx="471.9" cy="179.1" rx="4" ry="2" fill="#e6e0cf" transform="rotate(161 471.9 179.1)"/><ellipse cx="492.9" cy="176.4" rx="4" ry="2" fill="#e6e0cf" transform="rotate(78 492.9 176.4)"/><ellipse cx="419.9" cy="144.1" rx="4" ry="2" fill="#e6e0cf" transform="rotate(4 419.9 144.1)"/><ellipse cx="469.3" cy="181.6" rx="4" ry="2" fill="#e6e0cf" transform="rotate(94 469.3 181.6)"/><ellipse cx="422.3" cy="123.0" rx="4" ry="2" fill="#e6e0cf" transform="rotate(148 422.3 123.0)"/><ellipse cx="507.0" cy="113.9" rx="4" ry="2" fill="#e6e0cf" transform="rotate(130 507.0 113.9)"/><ellipse cx="495.0" cy="102.3" rx="4" ry="2" fill="#e6e0cf" transform="rotate(39 495.0 102.3)"/><ellipse cx="463.8" cy="179.9" rx="4" ry="2" fill="#e6e0cf" transform="rotate(124 463.8 179.9)"/><ellipse cx="420.4" cy="134.4" rx="4" ry="2" fill="#e6e0cf" transform="rotate(76 420.4 134.4)"/><circle cx="467.9" cy="137.0" r="25.0" fill="#ef8354"/><circle cx="616.7382864914834" cy="145.07358552515507" r="62.5" fill="#000" opacity="0.1"/><circle cx="616.7382864914834" cy="139.07358552515507" r="62.5" fill="#f5f2e8" stroke="#e0d9c2" stroke-width="2"/><circle cx="616.7382864914834" cy="139.07358552515507" r="53.75" fill="#f5f2e8"/><ellipse cx="649.8" cy="105.3" rx="4" ry="2" fill="#e6e0cf" transform="rotate(62 649.8 105.3)"/><ellipse cx="605.2" cy="98.4" rx="4" ry="2" fill="#e6e0cf" transform="rotate(19 605.2 98.4)"/><ellipse cx="655.9" cy="153.3" rx="4" ry="2" fill="#e6e0cf" transform="rotate(6 655.9 153.3)"/><ellipse cx="578.1" cy="171.2" rx="4" ry="2" fill="#e6e0cf" transform="rotate(175 578.1 171.2)"/><ellipse cx="648.9" cy="173.4" rx="4" ry="2" fill="#e6e0cf" transform="rotate(38 648.9 173.4)"/><ellipse cx="620.4" cy="99.8" rx="4" ry="2" fill="#e6e0cf" transform="rotate(136 620.4 99.8)"/><ellipse cx="607.1" cy="98.1" rx="4" ry="2" fill="#e6e0cf" transform="rotate(2 607.1 98.1)"/><ellipse cx="641.6" cy="182.2" rx="4" ry="2" fill="#e6e0cf" transform="rotate(75 641.6 182.2)"/><ellipse cx="588.6" cy="167.1" rx="4" ry="2" fill="#e6e0cf" transform="rotate(8 588.6 167.1)"/><ellipse cx="589.3" cy="105.5" rx="4" ry="2" fill="#e6e0cf" transform="rotate(144 589.3 105.5)"/><circle cx="616.7" cy="139.1" r="25.0" fill="#ef8354"/><circle cx="183.81829848326743" cy="285.09768618270755" r="62.5" fill="#000" opacity="0.1"/><circle cx="183.81829848326743" cy="279.09768618270755" r="62.5" fill="#f5f2e8" stroke="#e0d9c2" stroke-width="2"/><circle cx="183.81829848326743" cy="279.09768618270755" r="53.75" fill="#f5f2e8"/><ellipse cx="169.8" cy="322.3" rx="4" ry="2" fill="#e6e0cf" transform="rotate(71 169.8 322.3)"/><ellipse cx="142.9" cy="256.0" rx="4" ry="2" fill="#e6e0cf" transform="rotate(98 142.9 256.0)"/><ellipse cx="167.6" cy="318.1" rx="4" ry="2" fill="#e6e0cf" transform="rotate(113 167.6 318.1)"/><ellipse cx="197.7" cy="232.9" rx="4" ry="2" fill="#e6e0cf" transform="rotate(176 197.7 232.9)"/><ellipse cx="208.6" cy="319.9" rx="4" ry="2" fill="#e6e0cf" transform="rotate(59 208.6 319.9)"/><ellipse cx="160.7" cy="319.2" rx="4" ry="2" fill="#e6e0cf" transform="rotate(16 160.7 319.2)"/><ellipse cx="215.3" cy="310.9" rx="4" ry="2" fill="#e6e0cf" transform="rotate(6 215.3 310.9)"/><ellipse cx="153.8" cy="239.3" rx="4" ry="2" fill="#e6e0cf" transform="rotate(145 153.8 239.3)"/><ellipse cx="137.9" cy="291.0" rx="4" ry="2" fill="#e6e0cf" transform="rotate(27 137.9 291.0)"/><ellipse cx="229.7" cy="273.6" rx="4" ry="2" fill="#e6e0cf" transform="rotate(16 229.7 273.6)"/><circle cx="183.8" cy="279.1" r="25.0" fill="#ef8354"/><circle cx="326.42813600599766" cy="282.90575542114675" r="62.5" fill="#000" opacity="0.1"/><circle cx="326.42813600599766" cy="276.90575542114675" r="62.5" fill="#f5f2e8" stroke="#e0d9c2" stroke-width="2"/><circle cx="326.42813600599766" cy="276.90575542114675" r="53.75" fill="#f5f2e8"/><ellipse cx="373.3" cy="281.4" rx="4" ry="2" fill="#e6e0cf" transform="rotate(72 373.3 281.4)"/><ellipse cx="319.6" cy="315.7" rx="4" ry="2" fill="#e6e0cf" transform="rotate(98 319.6 315.7)"/><ellipse cx="303.1" cy="315.7" rx="4" ry="2" fill="#e6e0cf" transform="rotate(6 303.1 315.7)"/><ellipse cx="304.3" cy="235.4" rx="4" ry="2" fill="#e6e0cf" transform="rotate(118 304.3 235.4)"/><ellipse cx="335.1" cy="235.6" rx="4" ry="2" fill="#e6e0cf" transform="rotate(74 335.1 235.6)"/><ellipse cx="297.9" cy="245.1" rx="4" ry="2" fill="#e6e0cf" transform="rotate(26 297.9 245.1)"/><ellipse cx="375.8" cy="280.5" rx="4" ry="2" fill="#e6e0cf" transform="rotate(149 375.8 280.5)"/><ellipse cx="277.9" cy="265.9" rx="4" ry="2" fill="#e6e0cf" transform="rotate(104 277.9 265.9)"/><ellipse cx="348.2" cy="237.8" rx="4" ry="2" fill="#e6e0cf" transform="rotate(140 348.2 237.8)"/><ellipse cx="282.9" cy="268.5" rx="4" ry="2" fill="#e6e0cf" transform="rotate(104 282.9 268.5)"/><circle cx="326.4" cy="276.9" r="25.0" fill="#ef8354"/><circle cx="470.2563917506486" cy="288.8933764565736" r="62.5" fill="#000" opacity="0.1"/><circle cx="470.2563917506486" cy="282.8933764565736" r="62.5" fill="#f5f2e8" stroke="#e0d9c2" stroke-width="2"/><circle cx="470.2563917506486" cy="282.8933764565736" r="53.75" fill="#f5f2e8"/><ellipse cx="493.2" cy="239.3" rx="4" ry="2" fill="#e6e0cf" transform="rotate(13 493.2 239.3)"/><ellipse cx="498.2" cy="313.3" rx="4" ry="2" fill="#e6e0cf" transform="rotate(141 498.2 313.3)"/><ellipse cx="475.7" cy="325.2" rx="4" ry="2" fill="#e6e0cf" transform="rotate(56 475.7 325.2)"/><ellipse cx="465.0" cy="322.7" rx="4" ry="2" fill="#e6e0cf" transform="rotate(79 465.0 322.7)"/><ellipse cx="454.4" cy="240.6" rx="4" ry="2" fill="#e6e0cf" transform="rotate(159 454.4 240.6)"/><ellipse cx="454.6" cy="325.8" rx="4" ry="2" fill="#e6e0cf" transform="rotate(175 454.6 325.8)"/><ellipse cx="478.4" cy="322.6" rx="4" ry="2" fill="#e6e0cf" transform="rotate(65 478.4 322.6)"/><ellipse cx="496.3" cy="251.1" rx="4" ry="2" fill="#e6e0cf" transform="rotate(110 496.3 251.1)"/><ellipse cx="474.8" cy="333.7" rx="4" ry="2" fill="#e6e0cf" transform="rotate(99 474.8 333.7)"/><ellipse cx="472.1" cy="333.9" rx="4" ry="2" fill="#e6e0cf" transform="rotate(104 472.1 333.9)"/><circle cx="470.3" cy="282.9" r="25.0" fill="#ef8354"/><circle cx="617.0566194672137" cy="283.47073739767075" r="62.5" fill="#000" opacity="0.1"/><circle cx="617.0566194672137" cy="277.47073739767075" r="62.5" fill="#f5f2e8" stroke="#e0d9c2" stroke-width="2"/><circle cx="617.0566194672137" cy="277.47073739767075" r="53.75" fill="#f5f2e8"/><ellipse cx="664.2" cy="286.4" rx="4" ry="2" fill="#e6e0cf" transform="rotate(0 664.2 286.4)"/><ellipse cx="585.4" cy="315.3" rx="4" ry="2" fill="#e6e0cf" transform="rotate(106 585.4 315.3)"/><ellipse cx="634.8" cy="318.8" rx="4" ry="2" fill="#e6e0cf" transform="rotate(7 634.8 318.8)"/><ellipse cx="637.7" cy="318.1" rx="4" ry="2" fill="#e6e0cf" transform="rotate(106 637.7 318.1)"/><ellipse cx="649.8" cy="244.0" rx="4" ry="2" fill="#e6e0cf" transform="rotate(23 649.8 244.0)"/><ellipse cx="656.4" cy="281.3" rx="4" ry="2" fill="#e6e0cf" transform="rotate(107 656.4 281.3)"/><ellipse cx="664.4" cy="295.8" rx="4" ry="2" fill="#e6e0cf" transform="rotate(129 664.4 295.8)"/><ellipse cx="577.2" cy="285.4" rx="4" ry="2" fill="#e6e0cf" transform="rotate(56 577.2 285.4)"/><ellipse cx="581.9" cy="297.6" rx="4" ry="2" fill="#e6e0cf" transform="rotate(136 581.9 297.6)"/><ellipse cx="577.6" cy="261.7" rx="4" ry="2" fill="#e6e0cf" transform="rotate(25 577.6 261.7)"/><circle cx="617.1" cy="277.5" r="25.0" fill="#ef8354"/><circle cx="182.17518256232142" cy="427.9137663524598" r="62.5" fill="#000" opacity="0.1"/><circle cx="182.17518256232142" cy="421.9137663524598" r="62.5" fill="#f5f2e8" stroke="#e0d9c2" stroke-width="2"/><circle cx="182.17518256232142" cy="421.9137663524598" r="53.75" fill="#f5f2e8"/><ellipse cx="140.6" cy="395.0" rx="4" ry="2" fill="#e6e0cf" transform="rotate(22 140.6 395.0)"/><ellipse cx="137.6" cy="418.9" rx="4" ry="2" fill="#e6e0cf" transform="rotate(87 137.6 418.9)"/><ellipse cx="222.3" cy="415.1" rx="4" ry="2" fill="#e6e0cf" transform="rotate(9 222.3 415.1)"/><ellipse cx="176.3" cy="378.7" rx="4" ry="2" fill="#e6e0cf" transform="rotate(150 176.3 378.7)"/><ellipse cx="219.7" cy="407.5" rx="4" ry="2" fill="#e6e0cf" transform="rotate(125 219.7 407.5)"/><ellipse cx="150.0" cy="448.2" rx="4" ry="2" fill="#e6e0cf" transform="rotate(122 150.0 448.2)"/><ellipse cx="181.3" cy="471.8" rx="4" ry="2" fill="#e6e0cf" transform="rotate(169 181.3 471.8)"/><ellipse cx="217.9" cy="458.0" rx="4" ry="2" fill="#e6e0cf" transform="rotate(63 217.9 458.0)"/><ellipse cx="138.5" cy="411.7" rx="4" ry="2" fill="#e6e0cf" transform="rotate(9 138.5 411.7)"/><ellipse cx="177.6" cy="374.1" rx="4" ry="2" fill="#e6e0cf" transform="rotate(53 177.6 374.1)"/><circle cx="182.2" cy="421.9" r="25.0" fill="#ef8354"/><circle cx="325.41164592280984" cy="428.2817135863006" r="62.5" fill="#000" opacity="0.1"/><circle cx="325.41164592280984" cy="422.2817135863006" r="62.5" fill="#f5f2e8" stroke="#e0d9c2" stroke-width="2"/><circle cx="325.41164592280984" cy="422.2817135863006" r="53.75" fill="#f5f2e8"/><ellipse cx="293.3" cy="459.1" rx="4" ry="2" fill="#e6e0cf" transform="rotate(91 293.3 459.1)"/><ellipse cx="338.5" cy="471.4" rx="4" ry="2" fill="#e6e0cf" transform="rotate(16 338.5 471.4)"/><ellipse cx="314.3" cy="373.9" rx="4" ry="2" fill="#e6e0cf" transform="rotate(41 314.3 373.9)"/><ellipse cx="304.0" cy="384.8" rx="4" ry="2" fill="#e6e0cf" transform="rotate(143 304.0 384.8)"/><ellipse cx="330.7" cy="472.9" rx="4" ry="2" fill="#e6e0cf" transform="rotate(132 330.7 472.9)"/><ellipse cx="280.8" cy="405.7" rx="4" ry="2" fill="#e6e0cf" transform="rotate(26 280.8 405.7)"/><ellipse cx="349.2" cy="465.8" rx="4" ry="2" fill="#e6e0cf" transform="rotate(39 349.2 465.8)"/><ellipse cx="288.1" cy="407.7" rx="4" ry="2" fill="#e6e0cf" transform="rotate(177 288.1 407.7)"/><ellipse cx="356.9" cy="446.9" rx="4" ry="2" fill="#e6e0cf" transform="rotate(109 356.9 446.9)"/><ellipse cx="275.9" cy="421.1" rx="4" ry="2" fill="#e6e0cf" transform="rotate(163 275.9 421.1)"/><circle cx="325.4" cy="422.3" r="25.0" fill="#ef8354"/><circle cx="473.8423972092569" cy="429.4074557777494" r="62.5" fill="#000" opacity="0.1"/><circle cx="473.8423972092569" cy="423.4074557777494" r="62.5" fill="#f5f2e8" stroke="#e0d9c2" stroke-width="2"/><circle cx="473.8423972092569" cy="423.4074557777494" r="53.75" fill="#f5f2e8"/><ellipse cx="513.4" cy="408.3" rx="4" ry="2" fill="#e6e0cf" transform="rotate(120 513.4 408.3)"/><ellipse cx="505.2" cy="451.5" rx="4" ry="2" fill="#e6e0cf" transform="rotate(17 505.2 451.5)"/><ellipse cx="449.6" cy="381.9" rx="4" ry="2" fill="#e6e0cf" transform="rotate(32 449.6 381.9)"/><ellipse cx="513.9" cy="438.4" rx="4" ry="2" fill="#e6e0cf" transform="rotate(150 513.9 438.4)"/><ellipse cx="489.2" cy="386.2" rx="4" ry="2" fill="#e6e0cf" transform="rotate(163 489.2 386.2)"/><ellipse cx="448.1" cy="391.4" rx="4" ry="2" fill="#e6e0cf" transform="rotate(50 448.1 391.4)"/><ellipse cx="510.2" cy="393.9" rx="4" ry="2" fill="#e6e0cf" transform="rotate(109 510.2 393.9)"/><ellipse cx="423.8" cy="429.7" rx="4" ry="2" fill="#e6e0cf" transform="rotate(69 423.8 429.7)"/><ellipse cx="429.5" cy="424.8" rx="4" ry="2" fill="#e6e0cf" transform="rotate(141 429.5 424.8)"/><ellipse cx="462.6" cy="386.3" rx="4" ry="2" fill="#e6e0cf" transform="rotate(97 462.6 386.3)"/><circle cx="473.8" cy="423.4" r="25.0" fill="#ef8354"/><circle cx="617.2272931411862" cy="429.57158316113055" r="62.5" fill="#000" opacity="0.1"/><circle cx="617.2272931411862" cy="423.57158316113055" r="62.5" fill="#f5f2e8" stroke="#e0d9c2" stroke-width="2"/><circle cx="617.2272931411862" cy="423.57158316113055" r="53.75" fill="#f5f2e8"/><ellipse cx="656.7" cy="394.4" rx="4" ry="2" fill="#e6e0cf" transform="rotate(37 656.7 394.4)"/><ellipse cx="616.7" cy="464.3" rx="4" ry="2" fill="#e6e0cf" transform="rotate(67 616.7 464.3)"/><ellipse cx="582.6" cy="445.9" rx="4" ry="2" fill="#e6e0cf" transform="rotate(97 582.6 445.9)"/><ellipse cx="588.6" cy="394.5" rx="4" ry="2" fill="#e6e0cf" transform="rotate(49 588.6 394.5)"/><ellipse cx="634.3" cy="388.3" rx="4" ry="2" fill="#e6e0cf" transform="rotate(165 634.3 388.3)"/><ellipse cx="659.5" cy="417.7" rx="4" ry="2" fill="#e6e0cf" transform="rotate(53 659.5 417.7)"/><ellipse cx="657.5" cy="453.6" rx="4" ry="2" fill="#e6e0cf" transform="rotate(38 657.5 453.6)"/><ellipse cx="667.8" cy="426.2" rx="4" ry="2" fill="#e6e0cf" transform="rotate(154 667.8 426.2)"/><ellipse cx="587.3" cy="392.8" rx="4" ry="2" fill="#e6e0cf" transform="rotate(0 587.3 392.8)"/><ellipse cx="622.9" cy="471.4" rx="4" ry="2" fill="#e6e0cf" transform="rotate(40 622.9 471.4)"/><circle cx="617.2" cy="423.6" r="25.0" fill="#ef8354"/></svg>