<svg xmlns="http://www.w3.org/2000/svg" viewBox="0 0 800 600"><defs><radialGradient id="bg-vse-vklyucheno-set" cx="50%" cy="35%" r="80%"><stop offset="0%" stop-color="#ffffff"/><stop offset="100%" stop-color="#efeff2"/></radialGradient></defs><rect width="800" height="600" fill="url(#bg-vse-vklyucheno-set)"/><circle cx="184.2035502642393" cy="141.810097489506" r="62.5" fill="#000" opacity="0.1"/><circle cx="184.2035502642393" cy="135.810097489506" r="62.5" fill="#f5f2e8" stroke="#e0d9c2" stroke-width="2"/><circle cx="184.2035502642393" cy="135.810097489506" r="53.75" fill="#f5f2e8"/><ellipse cx="234.3" cy="132.7" rx="4" ry="2" fill="#e6e0cf" transform="rotate(80 234.3 132.7)"/><ellipse cx="159.3" cy="174.2" rx="4" ry="2" fill="#e6e0cf" transform="rotate(75 159.3 174.2)"/><ellipse cx="158.5" cy="91.7" rx="4" ry="2" fill="#e6e0cf" transform="rotate(13 158.5 91.7)"/><ellipse cx="162.0" cy="97.7" rx="4" ry="2" fill="#e6e0cf" transform="rotate(167 162.0 97.7)"/><ellipse cx="183.9" cy="186.6" rx="4" ry="2" fill="#e6e0cf" transform="rotate(33 183.9 186.6)"/><ellipse cx="156.3" cy="95.3" rx="4" ry="2" fill="#e6e0cf" transform="rotate(28 156.3 95.3)"/><ellipse cx="225.3" cy="147.0" rx="4" ry="2" fill="#e6e0cf" transform="rotate(144 225.3 147.0)"/><ellipse cx="228.5" cy="132.5" rx="4" ry="2" fill="#e6e0cf" transform="rotate(47 228.5 132.5)"/><ellipse cx="217.5" cy="162.3" rx="4" ry="2" fill="#e6e0cf" transform="rotate(131 217.5 162.3)"/><ellipse cx="159.5" cy="174.7" rx="4" ry="2" fill="#e6e0cf" transform="rotate(72 159.5 174.7)"/><circle cx="197.9" cy="136.9" r="16.3" fill="#ef8354"/><circle cx="176.6" cy="147.2" r="16.3" fill="#8a5a3b"/><circle cx="177.4" cy="123.9" r="16.3" fill="#f2a48e"/><circle cx="327.75580034404993" cy="145.25674115121365" r="62.5" fill="#000" opacity="0.1"/><circle cx="327.75580034404993" cy="139.25674115121365" r="62.5" fill="#f5f2e8" stroke="#e0d9c2" stroke-width="2"/><circle cx="327.75580034404993" cy="139.25674115121365" r="53.75" fill="#f5f2e8"/><ellipse cx="301.2" cy="98.9" rx="4" ry="2" fill="#e6e0cf" transform="rotate(67 301.2 98.9)"/><ellipse cx="354.0" cy="98.6" rx="4" ry="2" fill="#e6e0cf" transform="rotate(20 354.0 98.6)"/><ellipse cx="304.8" cy="108.0" rx="4" ry="2" fill="#e6e0cf" transform="rotate(90 304.8 108.0)"/><ellipse cx="345.0" cy="102.7" rx="4" ry="2" fill="#e6e0cf" transform="rotate(179 345.0 102.7)"/><ellipse cx="291.2" cy="166.8" rx="4" ry="2" fill="#e6e0cf" transform="rotate(122 291.2 166.8)"/><ellipse cx="358.9" cy="172.9" rx="4" ry="2" fill="#e6e0cf" transform="rotate(114 358.9 172.9)"/><ellipse cx="369.7" cy="122.1" rx="4" ry="2" fill="#e6e0cf" transform="rotate(117 369.7 122.1)"/><ellipse cx="286.5" cy="128.5" rx="4" ry="2" fill="#e6e0cf" transform="rotate(105 286.5 128.5)"/><ellipse cx="324.7" cy="190.4" rx="4" ry="2" fill="#e6e0cf" transform="rotate(158 324.7 190.4)"/><ellipse cx="302.9" cy="169.1" rx="4" ry="2" fill="#e6e0cf" transform="rotate(175 302.9 169.1)"/><circle cx="340.0" cy="145.5" r="16.3" fill="#ef8354"/><circle cx="316.6" cy="147.3" r="16.3" fill="#8a5a3b"/><circle cx="322.0" cy="126.8" r="16.3" fill="#f2a48e"/><circle cx="472.05148180387914" cy="146.11414072476327" r="62.5" fill="#000" opacity="0.1"/><circle cx="472.05148180387914" cy="140.11414072476327" r="62.5" fill="#f5f2e8" stroke="#e0d9c2" stroke-width="2"/><circle cx="472.05148180387914" cy="140.11414072476327" r="53.75" fill="#f5f2e8"/><ellipse cx="486.9" cy="188.4" rx="4" ry="2" fill="#e6e0cf" transform="rotate(17 486.9 188.4)"/><ellipse cx="439.4" cy="103.0" rx="4" ry="2" fill="#e6e0cf" transform="rotate(108 439.4 103.0)"/><ellipse cx="517.2" cy="164.0" rx="4" ry="2" fill="#e6e0cf" transform="rotate(171 517.2 164.0)"/><ellipse cx="501.7" cy="178.8" rx="4" ry="2" fill="#e6e0cf" transform="rotate(88 501.7 178.8)"/><ellipse cx="517.3" cy="143.9" rx="4" ry="2" fill="#e6e0cf" transform="rotate(116 517.3 143.9)"/><ellipse cx="470.5" cy="89.8" rx="4" ry="2" fill="#e6e0cf" transform="rotate(111 470.5 89.8)"/><ellipse cx="504.1" cy="115.8" rx="4" ry="2" fill="#e6e0cf" transform="rotate(81 504.1 115.8)"/><ellipse cx="484.4" cy="188.5" rx="4" ry="2" fill="#e6e0cf" transform="rotate(20 484.4 188.5)"/><ellipse cx="442.4" cy="108.2" rx="4" ry="2" fill="#e6e0cf" transform="rotate(157 442.4 108.2)"/><ellipse cx="493.7" cy="106.3" rx="4" ry="2" fill="#e6e0cf" transform="rotate(156 493.7 106.3)"/><circle cx="485.5" cy="142.9" r="16.3" fill="#ef8354"/><circle cx="462.5" cy="150.0" r="16.3" fill="#8a5a3b"/><circle cx="466.9" cy="127.4" r="16.3" fill="#f2a48e"/><circle cx="616.2429223041981" cy="140.47044751234353" r="62.5" fill="#000" opacity="0.1"/><circle cx="616.2429223041981" cy="134.47044751234353" r="62.5" fill="#f5f2e8" stroke="#e0d9c2" stroke-width="2"/><circle cx="616.2429223041981" cy="134.47044751234353" r="53.75" fill="#f5f2e8"/><ellipse cx="570.3" cy="128.0" rx="4" ry="2" fill="#e6e0cf" transform="rotate(107 570.3 128.0)"/><ellipse cx="599.9" cy="172.9" rx="4" ry="2" fill="#e6e0cf" transform="rotate(0 599.9 172.9)"/><ellipse cx="637.7" cy="170.4" rx="4" ry="2" fill="#e6e0cf" transform="rotate(27 637.7 170.4)"/><ellipse cx="608.0" cy="172.6" rx="4" ry="2" fill="#e6e0cf" transform="rotate(50 608.0 172.6)"/><ellipse cx="571.3" cy="144.6" rx="4" ry="2" fill="#e6e0cf" transform="rotate(43 571.3 144.6)"/><ellipse cx="610.5" cy="85.2" rx="4" ry="2" fill="#e6e0cf" transform="rotate(108 610.5 85.2)"/><ellipse cx="582.1" cy="114.4" rx="4" ry="2" fill="#e6e0cf" transform="rotate(60 582.1 114.4)"/><ellipse cx="643.8" cy="100.5" rx="4" ry="2" fill="#e6e0cf" transform="rotate(93 643.8 100.5)"/><ellipse cx="630.3" cy="175.7" rx="4" ry="2" fill="#e6e0cf" transform="rotate(131 630.3 175.7)"/><ellipse cx="642.7" cy="174.5" rx="4" ry="2" fill="#e6e0cf" transform="rotate(140 642.7 174.5)"/><circle cx="629.7" cy="137.1" r="16.3" fill="#ef8354"/><circle cx="604.7" cy="141.9" r="16.3" fill="#8a5a3b"/><circle cx="609.5" cy="122.5" r="16.3" fill="#f2a48e"/><circle cx="185.77557533420622" cy="282.2126482296735" r="62.5" fill="#000" opacity="0.1"/><circle cx="185.77557533420622" cy="276.2126482296735" r="62.5" fill="#f5f2e8" stroke="#e0d9c2" stroke-width="2"/><circle cx="185.77557533420622" cy="276.2126482296735" r="53.75" fill="#f5f2e8"/><ellipse cx="145.5" cy="303.8" rx="4" ry="2" fill="#e6e0cf" transform="rotate(101 145.5 303.8)"/><ellipse cx="232.4" cy="282.5" rx="4" ry="2" fill="#e6e0cf" transform="rotate(28 232.4 282.5)"/><ellipse cx="155.6" cy="300.9" rx="4" ry="2" fill="#e6e0cf" transform="rotate(109 155.6 300.9)"/><ellipse cx="202.2" cy="228.3" rx="4" ry="2" fill="#e6e0cf" transform="rotate(17 202.2 228.3)"/><ellipse cx="144.4" cy="264.9" rx="4" ry="2" fill="#e6e0cf" transform="rotate(46 144.4 264.9)"/><ellipse cx="164.8" cy="239.7" rx="4" ry="2" fill="#e6e0cf" transform="rotate(60 164.8 239.7)"/><ellipse cx="221.4" cy="303.6" rx="4" ry="2" fill="#e6e0cf" transform="rotate(166 221.4 303.6)"/><ellipse cx="206.2" cy="234.6" rx="4" ry="2" fill="#e6e0cf" transform="rotate(40 206.2 234.6)"/><ellipse cx="209.8" cy="245.1" rx="4" ry="2" fill="#e6e0cf" transform="rotate(93 209.8 245.1)"/><ellipse cx="202.3" cy="322.1" rx="4" ry="2" fill="#e6e0cf" transform="rotate(48 202.3 322.1)"/><circle cx="198.5" cy="281.4" r="16.3" fill="#ef8354"/><circle cx="174.8" cy="284.5" r="16.3" fill="#8a5a3b"/><circle cx="184.1" cy="262.6" r="16.3" fill="#f2a48e"/><circle cx="331.62893954105675" cy="285.59472252987325" r="62.5" fill="#000" opacity="0.1"/><circle cx="331.62893954105675" cy="279.59472252987325" r="62.5" fill="#f5f2e8" stroke="#e0d9c2" stroke-width="2"/><circle cx="331.62893954105675" cy="279.59472252987325" r="53.75" fill="#f5f2e8"/><ellipse cx="285.4" cy="278.6" rx="4" ry="2" fill="#e6e0cf" transform="rotate(35 285.4 278.6)"/><ellipse cx="380.3" cy="281.8" rx="4" ry="2" fill="#e6e0cf" transform="rotate(111 380.3 281.8)"/><ellipse cx="359.5" cy="314.7" rx="4" ry="2" fill="#e6e0cf" transform="rotate(115 359.5 314.7)"/><ellipse cx="373.9" cy="285.3" rx="4" ry="2" fill="#e6e0cf" transform="rotate(127 373.9 285.3)"/><ellipse cx="339.9" cy="328.0" rx="4" ry="2" fill="#e6e0cf" transform="rotate(120 339.9 328.0)"/><ellipse cx="315.4" cy="325.9" rx="4" ry="2" fill="#e6e0cf" transform="rotate(88 315.4 325.9)"/><ellipse cx="297.4" cy="250.7" rx="4" ry="2" fill="#e6e0cf" transform="rotate(31 297.4 250.7)"/><ellipse cx="297.7" cy="246.9" rx="4" ry="2" fill="#e6e0cf" transform="rotate(146 297.7 246.9)"/><ellipse cx="299.9" cy="247.7" rx="4" ry="2" fill="#e6e0cf" transform="rotate(65 299.9 247.7)"/><ellipse cx="298.9" cy="251.6" rx="4" ry="2" fill="#e6e0cf" transform="rotate(154 298.9 251.6)"/><circle cx="344.9" cy="283.1" r="16.3" fill="#ef8354"/><circle cx="323.1" cy="290.4" r="16.3" fill="#8a5a3b"/><circle cx="329.9" cy="266.0" r="16.3" fill="#f2a48e"/><circle cx="470.79534653387964" cy="284.9100663177669" r="62.5" fill="#000" opacity="0.1"/><circle cx="470.79534653387964" cy="278.9100663177669" r="62.5" fill="#f5f2e8" stroke="#e0d9c2" stroke-width="2"/><circle cx="470.79534653387964" cy="278.9100663177669" r="53.75" fill="#f5f2e8"/><ellipse cx="441.0" cy="248.7" rx="4" ry="2" fill="#e6e0cf" transform="rotate(61 441.0 248.7)"/><ellipse cx="439.8" cy="248.8" rx="4" ry="2" fill="#e6e0cf" transform="rotate(53 439.8 248.8)"/><ellipse cx="422.5" cy="281.8" rx="4" ry="2" fill="#e6e0cf" transform="rotate(58 422.5 281.8)"/><ellipse cx="437.1" cy="311.0" rx="4" ry="2" fill="#e6e0cf" transform="rotate(110 437.1 311.0)"/><ellipse cx="490.5" cy="243.6" rx="4" ry="2" fill="#e6e0cf" transform="rotate(147 490.5 243.6)"/><ellipse cx="505.9" cy="316.0" rx="4" ry="2" fill="#e6e0cf" transform="rotate(26 505.9 316.0)"/><ellipse cx="481.9" cy="320.0" rx="4" ry="2" fill="#e6e0cf" transform="rotate(18 481.9 320.0)"/><ellipse cx="514.3" cy="255.0" rx="4" ry="2" fill="#e6e0cf" transform="rotate(38 514.3 255.0)"/><ellipse cx="446.8" cy="317.0" rx="4" ry="2" fill="#e6e0cf" transform="rotate(42 446.8 317.0)"/><ellipse cx="449.2" cy="232.5" rx="4" ry="2" fill="#e6e0cf" transform="rotate(4 449.2 232.5)"/><circle cx="483.8" cy="283.4" r="16.3" fill="#ef8354"/><circle cx="460.3" cy="287.8" r="16.3" fill="#8a5a3b"/><circle cx="469.8" cy="265.2" r="16.3" fill="#f2a48e"/><circle cx="617.3024624884129" cy="285.333948597312" r="62.5" fill="#000" opacity="0.1"/><circle cx="617.3024624884129" cy="279.333948597312" r="62.5" fill="#f5f2e8" stroke="#e0d9c2" stroke-width="2"/><circle cx="617.3024624884129" cy="279.333948597312" r="53.75" fill="#f5f2e8"/><ellipse cx="569.0" cy="270.6" rx="4" ry="2" fill="#e6e0cf" transform="rotate(33 569.0 270.6)"/><ellipse cx="619.0" cy="235.1" rx="4" ry="2" fill="#e6e0cf" transform="rotate(73 619.0 235.1)"/><ellipse cx="619.6" cy="235.6" rx="4" ry="2" fill="#e6e0cf" transform="rotate(150 619.6 235.6)"/><ellipse cx="571.1" cy="280.5" rx="4" ry="2" fill="#e6e0cf" transform="rotate(89 571.1 280.5)"/><ellipse cx="648.7" cy="246.8" rx="4" ry="2" fill="#e6e0cf" transform="rotate(23 648.7 246.8)"/><ellipse cx="666.3" cy="292.3" rx="4" ry="2" fill="#e6e0cf" transform="rotate(12 666.3 292.3)"/><ellipse cx="663.9" cy="280.6" rx="4" ry="2" fill="#e6e0cf" transform="rotate(70 663.9 280.6)"/><ellipse cx="574.1" cy="285.6" rx="4" ry="2" fill="#e6e0cf" transform="rotate(125 574.1 285.6)"/><ellipse cx="618.1" cy="235.8" rx="4" ry="2" fill="#e6e0cf" transform="rotate(44 618.1 235.8)"/><ellipse cx="635.6" cy="319.1" rx="4" ry="2" fill="#e6e0cf" transform="rotate(165 635.6 319.1)"/><circle cx="631.0" cy="280.7" r="16.3" fill="#ef8354"/><circle cx="605.7" cy="286.8" r="16.3" fill="#8a5a3b"/><circle cx="611.7" cy="266.8" r="16.3" fill="#f2a48e"/><circle cx="182.5883498545736" cy="431.21546957828104" r="62.5" fill="#000" opacity="0.1"/><circle cx="182.5883498545736" cy="425.21546957828104" r="62.5" fill="#f5f2e8" stroke="#e0d9c2" stroke-width="2"/><circle cx="182.5883498545736" cy="425.21546957828104" r="53.75" fill="#f5f2e8"/><ellipse cx="179.6" cy="464.3" rx="4" ry="2" fill="#e6e0cf" transform="rotate(151 179.6 464.3)"/><ellipse cx="219.8" cy="403.8" rx="4" ry="2" fill="#e6e0cf" transform="rotate(39 219.8 403.8)"/><ellipse cx="227.5" cy="402.7" rx="4" ry="2" fill="#e6e0cf" transform="rotate(105 227.5 402.7)"/><ellipse cx="151.6" cy="462.9" rx="4" ry="2" fill="#e6e0cf" transform="rotate(132 151.6 462.9)"/><ellipse cx="228.3" cy="422.6" rx="4" ry="2" fill="#e6e0cf" transform="rotate(90 228.3 422.6)"/><ellipse cx="225.8" cy="412.5" rx="4" ry="2" fill="#e6e0cf" transform="rotate(18 225.8 412.5)"/><ellipse cx="136.2" cy="442.7" rx="4" ry="2" fill="#e6e0cf" transform="rotate(4 136.2 442.7)"/><ellipse cx="216.8" cy="398.5" rx="4" ry="2" fill="#e6e0cf" transform="rotate(100 216.8 398.5)"/><ellipse cx="151.9" cy="386.8" rx="4" ry="2" fill="#e6e0cf" transform="rotate(123 151.9 386.8)"/><ellipse cx="224.0" cy="442.1" rx="4" ry="2" fill="#e6e0cf" transform="rotate(143 224.0 442.1)"/><circle cx="195.0" cy="431.2" r="16.3" fill="#ef8354"/><circle cx="172.0" cy="434.0" r="16.3" fill="#8a5a3b"/><circle cx="175.8" cy="413.3" r="16.3" fill="#f2a48e"/><circle cx="324.3187674898654" cy="428.986116906628" r="62.5" fill="#000" opacity="0.1"/><circle cx="324.3187674898654" cy="422.986116906628" r="62.5" fill="#f5f2e8" stroke="#e0d9c2" stroke-width="2"/><circle cx="324.3187674898654" cy="422.986116906628" r="53.75" fill="#f5f2e8"/><ellipse cx="363.5" cy="447.7" rx="4" ry="2" fill="#e6e0cf" transform="rotate(72 363.5 447.7)"/><ellipse cx="307.6" cy="386.2" rx="4" ry="2" fill="#e6e0cf" transform="rotate(100 307.6 386.2)"/><ellipse cx="300.1" cy="385.1" rx="4" ry="2" fill="#e6e0cf" transform="rotate(15 300.1 385.1)"/><ellipse cx="362.9" cy="414.0" rx="4" ry="2" fill="#e6e0cf" transform="rotate(102 362.9 414.0)"/><ellipse cx="344.2" cy="378.8" rx="4" ry="2" fill="#e6e0cf" transform="rotate(87 344.2 378.8)"/><ellipse cx="353.9" cy="392.1" rx="4" ry="2" fill="#e6e0cf" transform="rotate(60 353.9 392.1)"/><ellipse cx="291.1" cy="452.4" rx="4" ry="2" fill="#e6e0cf" transform="rotate(104 291.1 452.4)"/><ellipse cx="294.3" cy="458.2" rx="4" ry="2" fill="#e6e0cf" transform="rotate(129 294.3 458.2)"/><ellipse cx="312.1" cy="377.0" rx="4" ry="2" fill="#e6e0cf" transform="rotate(6 312.1 377.0)"/><ellipse cx="302.1" cy="457.5" rx="4" ry="2" fill="#e6e0cf" transform="rotate(79 302.1 457.5)"/><circle cx="338.0" cy="424.6" r="16.3" fill="#ef8354"/><circle cx="316.4" cy="434.2" r="16.3" fill="#8a5a3b"/><circle cx="317.5" cy="411.1" r="16.3" fill="#f2a48e"/><circle cx="475.4326179251075" cy="429.7143051084131" r="62.5" fill="#000" opacity="0.1"/><circle cx="475.4326179251075" cy="423.7143051084131" r="62.5" fill="#f5f2e8" stroke="#e0d9c2" stroke-width="2"/><circle cx="475.4326179251075" cy="423.7143051084131" r="53.75" fill="#f5f2e8"/><ellipse cx="511.9" cy="408.4" rx="4" ry="2" fill="#e6e0cf" transform="rotate(71 511.9 408.4)"/><ellipse cx="437.7" cy="442.1" rx="4" ry="2" fill="#e6e0cf" transform="rotate(164 437.7 442.1)"/><ellipse cx="512.5" cy="391.3" rx="4" ry="2" fill="#e6e0cf" transform="rotate(171 512.5 391.3)"/><ellipse cx="433.8" cy="441.4" rx="4" ry="2" fill="#e6e0cf" transform="rotate(107 433.8 441.4)"/><ellipse cx="441.0" cy="447.7" rx="4" ry="2" fill="#e6e0cf" transform="rotate(151 441.0 447.7)"/><ellipse cx="452.0" cy="467.9" rx="4" ry="2" fill="#e6e0cf" transform="rotate(161 452.0 467.9)"/><ellipse cx="491.4" cy="382.4" rx="4" ry="2" fill="#e6e0cf" transform="rotate(135 491.4 382.4)"/><ellipse cx="445.6" cy="389.8" rx="4" ry="2" fill="#e6e0cf" transform="rotate(55 445.6 389.8)"/><ellipse cx="427.3" cy="413.4" rx="4" ry="2" fill="#e6e0cf" transform="rotate(159 427.3 413.4)"/><ellipse cx="516.8" cy="395.2" rx="4" ry="2" fill="#e6e0cf" transform="rotate(62 516.8 395.2)"/><circle cx="487.7" cy="429.8" r="16.3" fill="#ef8354"/><circle cx="465.2" cy="432.9" r="16.3" fill="#8a5a3b"/><circle cx="472.3" cy="410.3" r="16.3" fill="#f2a48e"/><circle cx="614.0176294967532" cy="433.66663165204227" r="62.5" fill="#000" opacity="0.1"/><circle cx="614.0176294967532" cy="427.66663165204227" r="62.5" fill="#f5f2e8" stroke="#e0d9c2" stroke-width="2"/><circle cx="614.0176294967532" cy="427.66663165204227" r="53.75" fill="#f5f2e8"/><ellipse cx="572.2" cy="432.5" rx="4" ry="2" fill="#e6e0cf" transform="rotate(7 572.2 432.5)"/><ellipse cx="660.4" cy="432.9" rx="4" ry="2" fill="#e6e0cf" transform="rotate(59 660.4 432.9)"/><ellipse cx="572.4" cy="414.0" rx="4" ry="2" fill="#e6e0cf" transform="rotate(111 572.4 414.0)"/><ellipse cx="635.6" cy="395.0" rx="4" ry="2" fill="#e6e0cf" transform="rotate(36 635.6 395.0)"/><ellipse cx="655.1" cy="397.4" rx="4" ry="2" fill="#e6e0cf" transform="rotate(96 655.1 397.4)"/><ellipse cx="570.4" cy="445.7" rx="4" ry="2" fill="#e6e0cf" transform="rotate(168 570.4 445.7)"/><ellipse cx="608.5" cy="385.8" rx="4" ry="2" fill="#e6e0cf" transform="rotate(51 608.5 385.8)"/><ellipse cx="626.9" cy="389.2" rx="4" ry="2" fill="#e6e0cf" transform="rotate(22 626.9 389.2)"/><ellipse cx="618.1" cy="379.0" rx="4" ry="2" fill="#e6e0cf" transform="rotate(39 618.1 379.0)"/><ellipse cx="579.8" cy="407.7" rx="4" ry="2" fill="#e6e0cf" transform="rotate(38 579.8 407.7)"/><circle cx="627.7" cy="429.1" r="16.3" fill="#ef8354"/><circle cx="605.8" cy="438.7" r="16.3" fill="#8a5a3b"/><circle cx="609.4" cy="414.7" r="16.3" fill="#f2a48e"/></svg>