<svg xmlns="http://www.w3.org/2000/svg" viewBox="0 0 800 600"><defs><radialGradient id="bg-vulkan" cx="50%" cy="35%" r="80%"><stop offset="0%" stop-color="#26262c"/><stop offset="100%" stop-color="#141417"/></radialGradient></defs><rect width="800" height="600" fill="url(#bg-vulkan)"/><circle cx="242.24630115553737" cy="208.33109845034778" r="70" fill="#000" opacity="0.35"/><circle cx="242.24630115553737" cy="202.33109845034778" r="70" fill="#f5f2e8"/><circle cx="242.24630115553737" cy="202.33109845034778" r="60.199999999999996" fill="#f5f2e8"/><ellipse cx="259.6" cy="251.7" rx="4" ry="2" fill="#e6e0cf" transform="rotate(88 259.6 251.7)"/><ellipse cx="201.5" cy="238.8" rx="4" ry="2" fill="#e6e0cf" transform="rotate(85 201.5 238.8)"/><ellipse cx="208.8" cy="242.9" rx="4" ry="2" fill="#e6e0cf" transform="rotate(168 208.8 242.9)"/><ellipse cx="234.6" cy="156.3" rx="4" ry="2" fill="#e6e0cf" transform="rotate(135 234.6 156.3)"/><ellipse cx="192.0" cy="202.1" rx="4" ry="2" fill="#e6e0cf" transform="rotate(158 192.0 202.1)"/><ellipse cx="272.4" cy="169.8" rx="4" ry="2" fill="#e6e0cf" transform="rotate(18 272.4 169.8)"/><ellipse cx="214.8" cy="162.2" rx="4" ry="2" fill="#e6e0cf" transform="rotate(19 214.8 162.2)"/><ellipse cx="192.1" cy="182.6" rx="4" ry="2" fill="#e6e0cf" transform="rotate(96 192.1 182.6)"/><ellipse cx="290.1" cy="215.4" rx="4" ry="2" fill="#e6e0cf" transform="rotate(171 290.1 215.4)"/><ellipse cx="289.2" cy="198.7" rx="4" ry="2" fill="#e6e0cf" transform="rotate(93 289.2 198.7)"/><circle cx="257.6" cy="202.6" r="18.2" fill="#ef8354"/><circle cx="233.8" cy="215.2" r="18.2" fill="#8a5a3b"/><circle cx="234.9" cy="188.8" r="18.2" fill="#7fb069"/><circle cx="398.3164986278862" cy="206.71919399499893" r="70" fill="#000" opacity="0.35"/><circle cx="398.3164986278862" cy="200.71919399499893" r="70" fill="#f5f2e8"/><circle cx="398.3164986278862" cy="200.71919399499893" r="60.199999999999996" fill="#f5f2e8"/><ellipse cx="421.2" cy="246.3" rx="4" ry="2" fill="#e6e0cf" transform="rotate(131 421.2 246.3)"/><ellipse cx="426.6" cy="162.7" rx="4" ry="2" fill="#e6e0cf" transform="rotate(178 426.6 162.7)"/><ellipse cx="442.8" cy="219.6" rx="4" ry="2" fill="#e6e0cf" transform="rotate(89 442.8 219.6)"/><ellipse cx="425.8" cy="158.3" rx="4" ry="2" fill="#e6e0cf" transform="rotate(148 425.8 158.3)"/><ellipse cx="380.4" cy="245.0" rx="4" ry="2" fill="#e6e0cf" transform="rotate(1 380.4 245.0)"/><ellipse cx="439.1" cy="166.4" rx="4" ry="2" fill="#e6e0cf" transform="rotate(169 439.1 166.4)"/><ellipse cx="427.7" cy="235.7" rx="4" ry="2" fill="#e6e0cf" transform="rotate(121 427.7 235.7)"/><ellipse cx="352.2" cy="203.7" rx="4" ry="2" fill="#e6e0cf" transform="rotate(53 352.2 203.7)"/><ellipse cx="441.9" cy="196.0" rx="4" ry="2" fill="#e6e0cf" transform="rotate(138 441.9 196.0)"/><ellipse cx="424.7" cy="240.4" rx="4" ry="2" fill="#e6e0cf" transform="rotate(51 424.7 240.4)"/><circle cx="413.4" cy="203.9" r="18.2" fill="#ef8354"/><circle cx="390.1" cy="213.7" r="18.2" fill="#8a5a3b"/><circle cx="396.6" cy="185.4" r="18.2" fill="#7fb069"/><circle cx="558.3783838450909" cy="208.72177141718566" r="70" fill="#000" opacity="0.35"/><circle cx="558.3783838450909" cy="202.72177141718566" r="70" fill="#f5f2e8"/><circle cx="558.3783838450909" cy="202.72177141718566" r="60.199999999999996" fill="#f5f2e8"/><ellipse cx="603.5" cy="177.1" rx="4" ry="2" fill="#e6e0cf" transform="rotate(153 603.5 177.1)"/><ellipse cx="528.8" cy="239.4" rx="4" ry="2" fill="#e6e0cf" transform="rotate(21 528.8 239.4)"/><ellipse cx="594.0" cy="174.3" rx="4" ry="2" fill="#e6e0cf" transform="rotate(80 594.0 174.3)"/><ellipse cx="558.3" cy="250.5" rx="4" ry="2" fill="#e6e0cf" transform="rotate(22 558.3 250.5)"/><ellipse cx="607.1" cy="189.1" rx="4" ry="2" fill="#e6e0cf" transform="rotate(107 607.1 189.1)"/><ellipse cx="539.4" cy="241.8" rx="4" ry="2" fill="#e6e0cf" transform="rotate(98 539.4 241.8)"/><ellipse cx="602.2" cy="201.9" rx="4" ry="2" fill="#e6e0cf" transform="rotate(162 602.2 201.9)"/><ellipse cx="520.0" cy="244.5" rx="4" ry="2" fill="#e6e0cf" transform="rotate(62 520.0 244.5)"/><ellipse cx="601.3" cy="188.4" rx="4" ry="2" fill="#e6e0cf" transform="rotate(78 601.3 188.4)"/><ellipse cx="598.7" cy="233.3" rx="4" ry="2" fill="#e6e0cf" transform="rotate(171 598.7 233.3)"/><circle cx="573.3" cy="206.5" r="18.2" fill="#ef8354"/><circle cx="549.4" cy="215.2" r="18.2" fill="#8a5a3b"/><circle cx="551.5" cy="189.0" r="18.2" fill="#7fb069"/><circle cx="235.22311045601964" cy="364.55205949395895" r="70" fill="#000" opacity="0.35"/><circle cx="235.22311045601964" cy="358.55205949395895" r="70" fill="#f5f2e8"/><circle cx="235.22311045601964" cy="358.55205949395895" r="60.199999999999996" fill="#f5f2e8"/><ellipse cx="190.7" cy="357.7" rx="4" ry="2" fill="#e6e0cf" transform="rotate(157 190.7 357.7)"/><ellipse cx="190.7" cy="363.2" rx="4" ry="2" fill="#e6e0cf" transform="rotate(96 190.7 363.2)"/><ellipse cx="266.3" cy="317.3" rx="4" ry="2" fill="#e6e0cf" transform="rotate(16 266.3 317.3)"/><ellipse cx="181.6" cy="344.6" rx="4" ry="2" fill="#e6e0cf" transform="rotate(70 181.6 344.6)"/><ellipse cx="283.9" cy="379.8" rx="4" ry="2" fill="#e6e0cf" transform="rotate(121 283.9 379.8)"/><ellipse cx="185.0" cy="384.1" rx="4" ry="2" fill="#e6e0cf" transform="rotate(37 185.0 384.1)"/><ellipse cx="204.5" cy="318.6" rx="4" ry="2" fill="#e6e0cf" transform="rotate(21 204.5 318.6)"/><ellipse cx="210.8" cy="315.2" rx="4" ry="2" fill="#e6e0cf" transform="rotate(77 210.8 315.2)"/><ellipse cx="189.7" cy="372.1" rx="4" ry="2" fill="#e6e0cf" transform="rotate(58 189.7 372.1)"/><ellipse cx="227.6" cy="407.1" rx="4" ry="2" fill="#e6e0cf" transform="rotate(56 227.6 407.1)"/><circle cx="250.6" cy="358.9" r="18.2" fill="#ef8354"/><circle cx="224.7" cy="369.8" r="18.2" fill="#8a5a3b"/><circle cx="232.1" cy="343.5" r="18.2" fill="#7fb069"/><circle cx="402.319905905053" cy="365.38402608036995" r="70" fill="#000" opacity="0.35"/><circle cx="402.319905905053" cy="359.38402608036995" r="70" fill="#f5f2e8"/><circle cx="402.319905905053" cy="359.38402608036995" r="60.199999999999996" fill="#f5f2e8"/><ellipse cx="389.2" cy="306.1" rx="4" ry="2" fill="#e6e0cf" transform="rotate(130 389.2 306.1)"/><ellipse cx="392.4" cy="304.9" rx="4" ry="2" fill="#e6e0cf" transform="rotate(21 392.4 304.9)"/><ellipse cx="448.0" cy="328.7" rx="4" ry="2" fill="#e6e0cf" transform="rotate(106 448.0 328.7)"/><ellipse cx="457.3" cy="345.8" rx="4" ry="2" fill="#e6e0cf" transform="rotate(128 457.3 345.8)"/><ellipse cx="422.1" cy="409.5" rx="4" ry="2" fill="#e6e0cf" transform="rotate(10 422.1 409.5)"/><ellipse cx="445.7" cy="392.2" rx="4" ry="2" fill="#e6e0cf" transform="rotate(77 445.7 392.2)"/><ellipse cx="390.1" cy="402.1" rx="4" ry="2" fill="#e6e0cf" transform="rotate(148 390.1 402.1)"/><ellipse cx="447.4" cy="344.7" rx="4" ry="2" fill="#e6e0cf" transform="rotate(2 447.4 344.7)"/><ellipse cx="363.8" cy="391.7" rx="4" ry="2" fill="#e6e0cf" transform="rotate(1 363.8 391.7)"/><ellipse cx="365.9" cy="323.4" rx="4" ry="2" fill="#e6e0cf" transform="rotate(119 365.9 323.4)"/><circle cx="416.3" cy="365.9" r="18.2" fill="#ef8354"/><circle cx="389.5" cy="368.0" r="18.2" fill="#8a5a3b"/><circle cx="396.0" cy="345.3" r="18.2" fill="#7fb069"/><circle cx="558.5089290738106" cy="368.38837995938957" r="70" fill="#000" opacity="0.35"/><circle cx="558.5089290738106" cy="362.38837995938957" r="70" fill="#f5f2e8"/><circle cx="558.5089290738106" cy="362.38837995938957" r="60.199999999999996" fill="#f5f2e8"/><ellipse cx="592.3" cy="390.7" rx="4" ry="2" fill="#e6e0cf" transform="rotate(5 592.3 390.7)"/><ellipse cx="592.0" cy="333.8" rx="4" ry="2" fill="#e6e0cf" transform="rotate(54 592.0 333.8)"/><ellipse cx="590.1" cy="395.1" rx="4" ry="2" fill="#e6e0cf" transform="rotate(83 590.1 395.1)"/><ellipse cx="529.7" cy="324.1" rx="4" ry="2" fill="#e6e0cf" transform="rotate(117 529.7 324.1)"/><ellipse cx="508.1" cy="368.9" rx="4" ry="2" fill="#e6e0cf" transform="rotate(24 508.1 368.9)"/><ellipse cx="534.5" cy="410.2" rx="4" ry="2" fill="#e6e0cf" transform="rotate(94 534.5 410.2)"/><ellipse cx="591.3" cy="396.1" rx="4" ry="2" fill="#e6e0cf" transform="rotate(20 591.3 396.1)"/><ellipse cx="531.8" cy="405.8" rx="4" ry="2" fill="#e6e0cf" transform="rotate(60 531.8 405.8)"/><ellipse cx="516.4" cy="389.2" rx="4" ry="2" fill="#e6e0cf" transform="rotate(107 516.4 389.2)"/><ellipse cx="564.5" cy="316.8" rx="4" ry="2" fill="#e6e0cf" transform="rotate(84 564.5 316.8)"/><circle cx="573.6" cy="365.3" r="18.2" fill="#ef8354"/><circle cx="549.5" cy="374.9" r="18.2" fill="#8a5a3b"/><circle cx="554.2" cy="347.6" r="18.2" fill="#7fb069"/></svg>